%
M48
M72
T01C0.0276
T02C0.0300
T03C0.0400
T04C0.0440
T05C0.0470
T06C0.1300
%
T01
X5600Y5100
X5600Y6100
X34600Y11600
X35600Y11600
T02
X31975Y11975
X30475Y11975
X28975Y11975
X25975Y11975
X24475Y11975
X22975Y11975
X21975Y10975
X22350Y10350
X24350Y9850
X26350Y9350
X26850Y9725
X28350Y8850
X30350Y8350
X30350Y7100
X28350Y7100
X26350Y7100
X26100Y6350
X26975Y5350
X25100Y5350
X24100Y6350
X24350Y7100
X22350Y7100
X21975Y6350
X21350Y5350
X20100Y5975
X18225Y5100
X17600Y5475
X19225Y4725
X23100Y5350
X20100Y7100
X17475Y6725
X14600Y7850
X14225Y6725
X10850Y4725
X9600Y4225
X8100Y4600
X5600Y4100
X7100Y2725
X10600Y3225
X12350Y3975
X13975Y3850
X9850Y6475
X9850Y7100
X9725Y7850
X8350Y8350
X7350Y7725
X7850Y8975
X6350Y11975
X4850Y11975
X1600Y12600
X10850Y11975
X12350Y11975
X16975Y11975
X18475Y11975
X19975Y11975
X24725Y1725
T03
X24600Y15100
X23600Y15100
X22600Y15100
X19600Y15100
X18600Y15100
X17600Y15100
X16600Y15100
X13600Y15100
X12600Y15100
X11600Y15100
X10600Y15100
X7600Y15100
X6600Y15100
X5600Y15100
X4600Y15100
X25600Y15100
X28600Y15100
X29600Y15100
X30600Y15100
X31600Y15100
T04
X30600Y2100
X29600Y2100
X28600Y2100
X27600Y2100
X26600Y2100
X12100Y2100
X11100Y2100
X10100Y2100
X9100Y2100
X8100Y2100
T05
X35350Y6600
X35350Y8600
T06
X2100Y2100
X2100Y15600
X35100Y15600
X35100Y2100
M30
