G75*
G70*
%OFA0B0*%
%FSLAX24Y24*%
%IPPOS*%
%LPD*%
%AMOC8*
5,1,8,0,0,1.08239X$1,22.5*
%
%ADD10C,0.0650*%
%ADD11R,0.0650X0.0650*%
%ADD12C,0.0740*%
%ADD13R,0.0740X0.0740*%
%ADD14C,0.0740*%
%ADD15C,0.0710*%
%ADD16C,0.0460*%
%ADD17C,0.0120*%
%ADD18C,0.0240*%
%ADD19C,0.0560*%
%ADD20C,0.0100*%
D10*
X005600Y006100D03*
X035600Y011600D03*
D11*
X034600Y011600D03*
X005600Y005100D03*
D12*
X008100Y002470D02*
X008100Y001730D01*
X009100Y001730D02*
X009100Y002470D01*
X010100Y002470D02*
X010100Y001730D01*
X011100Y001730D02*
X011100Y002470D01*
X012100Y002470D02*
X012100Y001730D01*
X026600Y001730D02*
X026600Y002470D01*
X027600Y002470D02*
X027600Y001730D01*
X028600Y001730D02*
X028600Y002470D01*
X029600Y002470D02*
X029600Y001730D01*
X030600Y001730D02*
X030600Y002470D01*
D13*
X028600Y015100D03*
X022600Y015100D03*
X016600Y015100D03*
X010600Y015100D03*
X004600Y015100D03*
D14*
X005600Y015100D03*
X006600Y015100D03*
X007600Y015100D03*
X011600Y015100D03*
X012600Y015100D03*
X013600Y015100D03*
X017600Y015100D03*
X018600Y015100D03*
X019600Y015100D03*
X023600Y015100D03*
X024600Y015100D03*
X025600Y015100D03*
X029600Y015100D03*
X030600Y015100D03*
X031600Y015100D03*
D15*
X034995Y008600D02*
X035705Y008600D01*
X035705Y006600D02*
X034995Y006600D01*
D16*
X030350Y007100D03*
X028350Y007100D03*
X026350Y007100D03*
X026100Y006350D03*
X026975Y005350D03*
X025100Y005350D03*
X024100Y006350D03*
X024350Y007100D03*
X022350Y007100D03*
X021975Y006350D03*
X021350Y005350D03*
X020100Y005975D03*
X018225Y005100D03*
X017600Y005475D03*
X019225Y004725D03*
X023100Y005350D03*
X020100Y007100D03*
X017475Y006725D03*
X014600Y007850D03*
X014225Y006725D03*
X010850Y004725D03*
X009600Y004225D03*
X008100Y004600D03*
X005600Y004100D03*
X007100Y002725D03*
X010600Y003225D03*
X012350Y003975D03*
X013975Y003850D03*
X009850Y006475D03*
X009850Y007100D03*
X009725Y007850D03*
X008350Y008350D03*
X007350Y007725D03*
X007850Y008975D03*
X006350Y011975D03*
X004850Y011975D03*
X001600Y012600D03*
X010850Y011975D03*
X012350Y011975D03*
X016975Y011975D03*
X018475Y011975D03*
X019975Y011975D03*
X021975Y010975D03*
X022350Y010350D03*
X024350Y009850D03*
X026350Y009350D03*
X026850Y009725D03*
X028350Y008850D03*
X030350Y008350D03*
X030475Y011975D03*
X028975Y011975D03*
X025975Y011975D03*
X024475Y011975D03*
X022975Y011975D03*
X031975Y011975D03*
X024725Y001725D03*
D17*
X025100Y005350D02*
X023100Y005350D01*
X021350Y005350D01*
X025100Y005350D02*
X026975Y005350D01*
D18*
X007100Y002725D02*
X007100Y000725D01*
X012100Y000725D01*
X030600Y000725D01*
X030600Y002100D01*
X029600Y002100D02*
X029600Y003225D01*
X024725Y003225D01*
X024725Y001725D01*
X012100Y002100D02*
X012100Y000725D01*
X007100Y002725D02*
X007100Y004100D01*
X005600Y004100D01*
D19*
X005366Y012350D02*
X005207Y012509D01*
X004975Y012605D01*
X004725Y012605D01*
X004493Y012509D01*
X004334Y012350D01*
X000780Y012350D01*
X000780Y015388D01*
X000861Y015087D01*
X001036Y014783D01*
X001283Y014536D01*
X001587Y014361D01*
X001925Y014270D01*
X002275Y014270D01*
X002613Y014361D01*
X002917Y014536D01*
X003164Y014783D01*
X003339Y015087D01*
X003430Y015425D01*
X003430Y015775D01*
X003339Y016113D01*
X003164Y016417D01*
X002917Y016664D01*
X002613Y016839D01*
X002275Y016930D01*
X001925Y016930D01*
X001587Y016839D01*
X001283Y016664D01*
X001036Y016417D01*
X000861Y016113D01*
X000780Y015812D01*
X000780Y017416D01*
X036290Y017416D01*
X036290Y016199D01*
X036164Y016417D01*
X035917Y016664D01*
X035613Y016839D01*
X035275Y016930D01*
X034925Y016930D01*
X034587Y016839D01*
X034283Y016664D01*
X034036Y016417D01*
X033861Y016113D01*
X033770Y015775D01*
X033770Y015425D01*
X033861Y015087D01*
X034036Y014783D01*
X034283Y014536D01*
X034587Y014361D01*
X034925Y014270D01*
X035275Y014270D01*
X035613Y014361D01*
X035917Y014536D01*
X036164Y014783D01*
X036290Y015001D01*
X036290Y011829D01*
X036215Y012011D01*
X036011Y012215D01*
X035744Y012325D01*
X035456Y012325D01*
X035189Y012215D01*
X035181Y012206D01*
X035167Y012220D01*
X035105Y012262D01*
X035036Y012290D01*
X034962Y012305D01*
X034600Y012305D01*
X034600Y011600D01*
X034600Y011600D01*
X034600Y010895D01*
X034962Y010895D01*
X035036Y010910D01*
X035105Y010938D01*
X035167Y010980D01*
X035181Y010994D01*
X035189Y010985D01*
X035456Y010875D01*
X035744Y010875D01*
X036011Y010985D01*
X036215Y011189D01*
X036290Y011371D01*
X036290Y009083D01*
X036133Y009240D01*
X035855Y009355D01*
X034845Y009355D01*
X034567Y009240D01*
X034355Y009028D01*
X034240Y008750D01*
X034240Y008450D01*
X034355Y008172D01*
X034567Y007960D01*
X034845Y007845D01*
X035855Y007845D01*
X036133Y007960D01*
X036290Y008117D01*
X036290Y007045D01*
X036259Y007086D01*
X036191Y007154D01*
X036114Y007212D01*
X036031Y007261D01*
X035942Y007297D01*
X035849Y007322D01*
X035753Y007335D01*
X035350Y007335D01*
X035350Y006600D01*
X035350Y006600D01*
X035350Y007335D01*
X034947Y007335D01*
X034851Y007322D01*
X034758Y007297D01*
X034669Y007261D01*
X034586Y007212D01*
X034509Y007154D01*
X034441Y007086D01*
X034383Y007009D01*
X034334Y006926D01*
X034298Y006837D01*
X034273Y006744D01*
X034260Y006648D01*
X034260Y006600D01*
X035350Y006600D01*
X035350Y005865D01*
X035753Y005865D01*
X035849Y005878D01*
X035942Y005903D01*
X036031Y005939D01*
X036114Y005988D01*
X036191Y006046D01*
X036259Y006114D01*
X036290Y006155D01*
X036290Y004600D01*
X033100Y004600D01*
X032425Y005701D01*
X032425Y011534D01*
X032509Y011618D01*
X032605Y011850D01*
X032605Y012100D01*
X032509Y012332D01*
X032332Y012509D01*
X032100Y012605D01*
X031850Y012605D01*
X031618Y012509D01*
X031441Y012332D01*
X031345Y012100D01*
X031345Y011850D01*
X031441Y011618D01*
X031525Y011534D01*
X031525Y007170D01*
X030939Y008126D01*
X030980Y008225D01*
X030980Y008475D01*
X030884Y008707D01*
X030707Y008884D01*
X030475Y008980D01*
X030415Y008980D01*
X030050Y009576D01*
X030050Y009881D01*
X030711Y011391D01*
X030832Y011441D01*
X031009Y011618D01*
X031105Y011850D01*
X031105Y012100D01*
X031009Y012332D01*
X030832Y012509D01*
X030600Y012605D01*
X030350Y012605D01*
X030118Y012509D01*
X029941Y012332D01*
X029845Y012100D01*
X029845Y011850D01*
X029886Y011751D01*
X029425Y010698D01*
X029425Y011534D01*
X029509Y011618D01*
X029605Y011850D01*
X029605Y012100D01*
X029509Y012332D01*
X029332Y012509D01*
X029100Y012605D01*
X028850Y012605D01*
X028618Y012509D01*
X028441Y012332D01*
X028409Y012254D01*
X028350Y012350D01*
X026491Y012350D01*
X026332Y012509D01*
X026100Y012605D01*
X025850Y012605D01*
X025618Y012509D01*
X025459Y012350D01*
X024991Y012350D01*
X024832Y012509D01*
X024600Y012605D01*
X024350Y012605D01*
X024118Y012509D01*
X023959Y012350D01*
X023491Y012350D01*
X023332Y012509D01*
X023100Y012605D01*
X022850Y012605D01*
X022618Y012509D01*
X022459Y012350D01*
X020491Y012350D01*
X020332Y012509D01*
X020100Y012605D01*
X019850Y012605D01*
X019618Y012509D01*
X019459Y012350D01*
X018991Y012350D01*
X018832Y012509D01*
X018600Y012605D01*
X018350Y012605D01*
X018118Y012509D01*
X017959Y012350D01*
X017491Y012350D01*
X017332Y012509D01*
X017100Y012605D01*
X016850Y012605D01*
X016618Y012509D01*
X016459Y012350D01*
X012866Y012350D01*
X012707Y012509D01*
X012475Y012605D01*
X012225Y012605D01*
X011993Y012509D01*
X011834Y012350D01*
X011366Y012350D01*
X011207Y012509D01*
X010975Y012605D01*
X010725Y012605D01*
X010493Y012509D01*
X010334Y012350D01*
X006866Y012350D01*
X006707Y012509D01*
X006475Y012605D01*
X006225Y012605D01*
X005993Y012509D01*
X005834Y012350D01*
X005366Y012350D01*
X005329Y012387D02*
X005871Y012387D01*
X006829Y012387D02*
X010371Y012387D01*
X011329Y012387D02*
X011871Y012387D01*
X012829Y012387D02*
X016496Y012387D01*
X017454Y012387D02*
X017996Y012387D01*
X018954Y012387D02*
X019496Y012387D01*
X020454Y012387D02*
X022496Y012387D01*
X023454Y012387D02*
X023996Y012387D01*
X024954Y012387D02*
X025496Y012387D01*
X026454Y012387D02*
X028496Y012387D01*
X029454Y012387D02*
X029996Y012387D01*
X029854Y011829D02*
X029596Y011829D01*
X029675Y011270D02*
X029425Y011270D01*
X029425Y010712D02*
X029431Y010712D01*
X030413Y010712D02*
X031525Y010712D01*
X032425Y010712D02*
X036290Y010712D01*
X036290Y011270D02*
X036248Y011270D01*
X034600Y011270D02*
X034600Y011270D01*
X034164Y010910D02*
X034095Y010938D01*
X034033Y010980D01*
X033980Y011033D01*
X033938Y011095D01*
X033910Y011164D01*
X033895Y011238D01*
X033895Y011600D01*
X034600Y011600D01*
X034600Y011600D01*
X034600Y011600D01*
X034600Y012305D01*
X034238Y012305D01*
X034164Y012290D01*
X034095Y012262D01*
X034033Y012220D01*
X033980Y012167D01*
X033938Y012105D01*
X033910Y012036D01*
X033895Y011962D01*
X033895Y011600D01*
X034600Y011600D01*
X034600Y010895D01*
X034238Y010895D01*
X034164Y010910D01*
X033895Y011270D02*
X032425Y011270D01*
X031525Y011270D02*
X030658Y011270D01*
X031096Y011829D02*
X031354Y011829D01*
X031496Y012387D02*
X030954Y012387D01*
X032454Y012387D02*
X036290Y012387D01*
X036290Y012946D02*
X000780Y012946D01*
X000780Y013504D02*
X036290Y013504D01*
X036290Y014063D02*
X000780Y014063D01*
X000780Y014621D02*
X001198Y014621D01*
X000836Y015180D02*
X000780Y015180D01*
X003002Y014621D02*
X003864Y014621D01*
X003865Y014619D02*
X003893Y014550D01*
X003935Y014488D01*
X003988Y014435D01*
X004050Y014393D01*
X004119Y014365D01*
X004193Y014350D01*
X004600Y014350D01*
X005007Y014350D01*
X005081Y014365D01*
X005150Y014393D01*
X005205Y014430D01*
X005447Y014330D01*
X005753Y014330D01*
X006036Y014447D01*
X006100Y014511D01*
X006164Y014447D01*
X006447Y014330D01*
X006753Y014330D01*
X007036Y014447D01*
X007100Y014511D01*
X007164Y014447D01*
X007447Y014330D01*
X007753Y014330D01*
X008036Y014447D01*
X008253Y014664D01*
X008370Y014947D01*
X008370Y015253D01*
X008253Y015536D01*
X008036Y015753D01*
X007753Y015870D01*
X007447Y015870D01*
X007164Y015753D01*
X007100Y015689D01*
X007036Y015753D01*
X006753Y015870D01*
X006447Y015870D01*
X006164Y015753D01*
X006100Y015689D01*
X006036Y015753D01*
X005753Y015870D01*
X005447Y015870D01*
X005205Y015770D01*
X005150Y015807D01*
X005081Y015835D01*
X005007Y015850D01*
X004600Y015850D01*
X004600Y015100D01*
X004600Y015100D01*
X004600Y014350D01*
X004600Y015100D01*
X004600Y015100D01*
X004600Y015100D01*
X003850Y015100D01*
X003850Y015507D01*
X003865Y015581D01*
X003893Y015650D01*
X003935Y015712D01*
X003988Y015765D01*
X004050Y015807D01*
X004119Y015835D01*
X004193Y015850D01*
X004600Y015850D01*
X004600Y015100D01*
X003850Y015100D01*
X003850Y014693D01*
X003865Y014619D01*
X004600Y014621D02*
X004600Y014621D01*
X004600Y015180D02*
X004600Y015180D01*
X003850Y015180D02*
X003364Y015180D01*
X003430Y015738D02*
X003961Y015738D01*
X004600Y015738D02*
X004600Y015738D01*
X006051Y015738D02*
X006149Y015738D01*
X007051Y015738D02*
X007149Y015738D01*
X008051Y015738D02*
X009961Y015738D01*
X009935Y015712D02*
X009893Y015650D01*
X009865Y015581D01*
X009850Y015507D01*
X009850Y015100D01*
X010600Y015100D01*
X010600Y015100D01*
X010600Y015850D01*
X011007Y015850D01*
X011081Y015835D01*
X011150Y015807D01*
X011205Y015770D01*
X011447Y015870D01*
X011753Y015870D01*
X012036Y015753D01*
X012100Y015689D01*
X012164Y015753D01*
X012447Y015870D01*
X012753Y015870D01*
X013036Y015753D01*
X013100Y015689D01*
X013164Y015753D01*
X013447Y015870D01*
X013753Y015870D01*
X014036Y015753D01*
X014253Y015536D01*
X014370Y015253D01*
X014370Y014947D01*
X014253Y014664D01*
X014036Y014447D01*
X013753Y014330D01*
X013447Y014330D01*
X013164Y014447D01*
X013100Y014511D01*
X013036Y014447D01*
X012753Y014330D01*
X012447Y014330D01*
X012164Y014447D01*
X012100Y014511D01*
X012036Y014447D01*
X011753Y014330D01*
X011447Y014330D01*
X011205Y014430D01*
X011150Y014393D01*
X011081Y014365D01*
X011007Y014350D01*
X010600Y014350D01*
X010600Y015100D01*
X010600Y015100D01*
X010600Y015100D01*
X010600Y015850D01*
X010193Y015850D01*
X010119Y015835D01*
X010050Y015807D01*
X009988Y015765D01*
X009935Y015712D01*
X010600Y015738D02*
X010600Y015738D01*
X010600Y015180D02*
X010600Y015180D01*
X010600Y015100D02*
X009850Y015100D01*
X009850Y014693D01*
X009865Y014619D01*
X009893Y014550D01*
X009935Y014488D01*
X009988Y014435D01*
X010050Y014393D01*
X010119Y014365D01*
X010193Y014350D01*
X010600Y014350D01*
X010600Y015100D01*
X010600Y014621D02*
X010600Y014621D01*
X009864Y014621D02*
X008210Y014621D01*
X008370Y015180D02*
X009850Y015180D01*
X012051Y015738D02*
X012149Y015738D01*
X013051Y015738D02*
X013149Y015738D01*
X014051Y015738D02*
X015961Y015738D01*
X015935Y015712D02*
X015893Y015650D01*
X015865Y015581D01*
X015850Y015507D01*
X015850Y015100D01*
X016600Y015100D01*
X016600Y015100D01*
X016600Y015850D01*
X017007Y015850D01*
X017081Y015835D01*
X017150Y015807D01*
X017205Y015770D01*
X017447Y015870D01*
X017753Y015870D01*
X018036Y015753D01*
X018100Y015689D01*
X018164Y015753D01*
X018447Y015870D01*
X018753Y015870D01*
X019036Y015753D01*
X019100Y015689D01*
X019164Y015753D01*
X019447Y015870D01*
X019753Y015870D01*
X020036Y015753D01*
X020253Y015536D01*
X020370Y015253D01*
X020370Y014947D01*
X020253Y014664D01*
X020036Y014447D01*
X019753Y014330D01*
X019447Y014330D01*
X019164Y014447D01*
X019100Y014511D01*
X019036Y014447D01*
X018753Y014330D01*
X018447Y014330D01*
X018164Y014447D01*
X018100Y014511D01*
X018036Y014447D01*
X017753Y014330D01*
X017447Y014330D01*
X017205Y014430D01*
X017150Y014393D01*
X017081Y014365D01*
X017007Y014350D01*
X016600Y014350D01*
X016600Y015100D01*
X016600Y015100D01*
X016600Y015100D01*
X016600Y015850D01*
X016193Y015850D01*
X016119Y015835D01*
X016050Y015807D01*
X015988Y015765D01*
X015935Y015712D01*
X016600Y015738D02*
X016600Y015738D01*
X016600Y015180D02*
X016600Y015180D01*
X016600Y015100D02*
X015850Y015100D01*
X015850Y014693D01*
X015865Y014619D01*
X015893Y014550D01*
X015935Y014488D01*
X015988Y014435D01*
X016050Y014393D01*
X016119Y014365D01*
X016193Y014350D01*
X016600Y014350D01*
X016600Y015100D01*
X016600Y014621D02*
X016600Y014621D01*
X015864Y014621D02*
X014210Y014621D01*
X014370Y015180D02*
X015850Y015180D01*
X018051Y015738D02*
X018149Y015738D01*
X019051Y015738D02*
X019149Y015738D01*
X020051Y015738D02*
X021961Y015738D01*
X021935Y015712D02*
X021893Y015650D01*
X021865Y015581D01*
X021850Y015507D01*
X021850Y015100D01*
X022600Y015100D01*
X022600Y015100D01*
X022600Y015850D01*
X023007Y015850D01*
X023081Y015835D01*
X023150Y015807D01*
X023205Y015770D01*
X023447Y015870D01*
X023753Y015870D01*
X024036Y015753D01*
X024100Y015689D01*
X024164Y015753D01*
X024447Y015870D01*
X024753Y015870D01*
X025036Y015753D01*
X025100Y015689D01*
X025164Y015753D01*
X025447Y015870D01*
X025753Y015870D01*
X026036Y015753D01*
X026253Y015536D01*
X026370Y015253D01*
X026370Y014947D01*
X026253Y014664D01*
X026036Y014447D01*
X025753Y014330D01*
X025447Y014330D01*
X025164Y014447D01*
X025100Y014511D01*
X025036Y014447D01*
X024753Y014330D01*
X024447Y014330D01*
X024164Y014447D01*
X024100Y014511D01*
X024036Y014447D01*
X023753Y014330D01*
X023447Y014330D01*
X023205Y014430D01*
X023150Y014393D01*
X023081Y014365D01*
X023007Y014350D01*
X022600Y014350D01*
X022600Y015100D01*
X022600Y015100D01*
X022600Y015100D01*
X022600Y015850D01*
X022193Y015850D01*
X022119Y015835D01*
X022050Y015807D01*
X021988Y015765D01*
X021935Y015712D01*
X022600Y015738D02*
X022600Y015738D01*
X022600Y015180D02*
X022600Y015180D01*
X022600Y015100D02*
X021850Y015100D01*
X021850Y014693D01*
X021865Y014619D01*
X021893Y014550D01*
X021935Y014488D01*
X021988Y014435D01*
X022050Y014393D01*
X022119Y014365D01*
X022193Y014350D01*
X022600Y014350D01*
X022600Y015100D01*
X022600Y014621D02*
X022600Y014621D01*
X021864Y014621D02*
X020210Y014621D01*
X020370Y015180D02*
X021850Y015180D01*
X024051Y015738D02*
X024149Y015738D01*
X025051Y015738D02*
X025149Y015738D01*
X026051Y015738D02*
X027961Y015738D01*
X027935Y015712D02*
X027893Y015650D01*
X027865Y015581D01*
X027850Y015507D01*
X027850Y015100D01*
X028600Y015100D01*
X028600Y015100D01*
X028600Y015850D01*
X029007Y015850D01*
X029081Y015835D01*
X029150Y015807D01*
X029205Y015770D01*
X029447Y015870D01*
X029753Y015870D01*
X030036Y015753D01*
X030100Y015689D01*
X030164Y015753D01*
X030447Y015870D01*
X030753Y015870D01*
X031036Y015753D01*
X031100Y015689D01*
X031164Y015753D01*
X031447Y015870D01*
X031753Y015870D01*
X032036Y015753D01*
X032253Y015536D01*
X032370Y015253D01*
X032370Y014947D01*
X032253Y014664D01*
X032036Y014447D01*
X031753Y014330D01*
X031447Y014330D01*
X031164Y014447D01*
X031100Y014511D01*
X031036Y014447D01*
X030753Y014330D01*
X030447Y014330D01*
X030164Y014447D01*
X030100Y014511D01*
X030036Y014447D01*
X029753Y014330D01*
X029447Y014330D01*
X029205Y014430D01*
X029150Y014393D01*
X029081Y014365D01*
X029007Y014350D01*
X028600Y014350D01*
X028600Y015100D01*
X028600Y015100D01*
X028600Y015100D01*
X028600Y015850D01*
X028193Y015850D01*
X028119Y015835D01*
X028050Y015807D01*
X027988Y015765D01*
X027935Y015712D01*
X028600Y015738D02*
X028600Y015738D01*
X028600Y015180D02*
X028600Y015180D01*
X028600Y015100D02*
X027850Y015100D01*
X027850Y014693D01*
X027865Y014619D01*
X027893Y014550D01*
X027935Y014488D01*
X027988Y014435D01*
X028050Y014393D01*
X028119Y014365D01*
X028193Y014350D01*
X028600Y014350D01*
X028600Y015100D01*
X028600Y014621D02*
X028600Y014621D01*
X027864Y014621D02*
X026210Y014621D01*
X026370Y015180D02*
X027850Y015180D01*
X030051Y015738D02*
X030149Y015738D01*
X031051Y015738D02*
X031149Y015738D01*
X032051Y015738D02*
X033770Y015738D01*
X033836Y015180D02*
X032370Y015180D01*
X032210Y014621D02*
X034198Y014621D01*
X036002Y014621D02*
X036290Y014621D01*
X036234Y016297D02*
X036290Y016297D01*
X036290Y016855D02*
X035555Y016855D01*
X034645Y016855D02*
X002555Y016855D01*
X001645Y016855D02*
X000780Y016855D01*
X000780Y016297D02*
X000966Y016297D01*
X000780Y017414D02*
X036290Y017414D01*
X033966Y016297D02*
X003234Y016297D01*
X004371Y012387D02*
X000780Y012387D01*
X030050Y009595D02*
X031525Y009595D01*
X032425Y009595D02*
X036290Y009595D01*
X036290Y010153D02*
X032425Y010153D01*
X031525Y010153D02*
X030169Y010153D01*
X030381Y009036D02*
X031525Y009036D01*
X032425Y009036D02*
X034363Y009036D01*
X034240Y008478D02*
X032425Y008478D01*
X031525Y008478D02*
X030979Y008478D01*
X031066Y007919D02*
X031525Y007919D01*
X032425Y007919D02*
X034666Y007919D01*
X036034Y007919D02*
X036290Y007919D01*
X036290Y007361D02*
X032425Y007361D01*
X031525Y007361D02*
X031408Y007361D01*
X032425Y006802D02*
X034288Y006802D01*
X034260Y006600D02*
X034260Y006552D01*
X034273Y006456D01*
X034298Y006363D01*
X034334Y006274D01*
X034383Y006191D01*
X034441Y006114D01*
X034509Y006046D01*
X034586Y005988D01*
X034669Y005939D01*
X034758Y005903D01*
X034851Y005878D01*
X034947Y005865D01*
X035350Y005865D01*
X035350Y006600D01*
X035350Y006600D01*
X035350Y006600D01*
X034260Y006600D01*
X034352Y006244D02*
X032425Y006244D01*
X032435Y005685D02*
X036290Y005685D01*
X036290Y005127D02*
X032777Y005127D01*
X035350Y006244D02*
X035350Y006244D01*
X035350Y006802D02*
X035350Y006802D01*
X034600Y011829D02*
X034600Y011829D01*
X033895Y011829D02*
X032596Y011829D01*
D20*
X031975Y011975D02*
X031975Y003600D01*
X019225Y003600D01*
X019225Y004725D01*
X019225Y005225D02*
X018225Y005100D01*
X017600Y005475D02*
X019225Y005600D01*
X020225Y005350D01*
X020225Y004100D01*
X028975Y004100D01*
X028975Y011975D01*
X030475Y011975D02*
X029600Y009975D01*
X029600Y003850D01*
X019725Y003850D01*
X019725Y005100D01*
X019225Y005225D01*
X020100Y005975D02*
X020725Y005975D01*
X020725Y004350D01*
X027475Y004350D01*
X027475Y010725D01*
X025975Y011975D01*
X024475Y011975D02*
X025100Y010725D01*
X025100Y006475D01*
X024100Y006350D01*
X022975Y006475D02*
X022975Y011975D01*
X021975Y010975D02*
X019975Y010850D01*
X019975Y011975D01*
X018475Y011975D02*
X018475Y009975D01*
X013350Y009975D01*
X010850Y008600D01*
X010850Y004725D01*
X010350Y004850D02*
X010350Y008850D01*
X013100Y010600D01*
X016975Y011975D01*
X012350Y011975D02*
X008350Y008350D01*
X008725Y007725D02*
X007350Y007725D01*
X007225Y007100D02*
X006350Y008225D01*
X006350Y011975D01*
X004850Y011975D02*
X004850Y008975D01*
X007100Y006475D01*
X009850Y006475D01*
X009850Y007100D02*
X007225Y007100D01*
X008725Y007725D02*
X009725Y007850D01*
X011350Y007475D02*
X011350Y003725D01*
X010100Y003725D01*
X010100Y002100D01*
X008100Y002100D02*
X008100Y004600D01*
X009600Y004850D02*
X009600Y004225D01*
X009600Y004850D02*
X010350Y004850D01*
X012350Y003975D02*
X013975Y003850D01*
X013475Y003225D02*
X011600Y003225D01*
X010600Y003225D01*
X011600Y003225D02*
X011600Y006850D01*
X014225Y006725D01*
X014600Y007850D02*
X011350Y007475D01*
X007850Y008975D02*
X010850Y011975D01*
X004600Y015100D02*
X001600Y012600D01*
X017475Y006725D02*
X020100Y006725D01*
X020100Y007100D01*
X021975Y006350D02*
X022975Y006475D01*
X022350Y007100D02*
X022350Y010350D01*
X024350Y009850D02*
X024350Y007100D01*
X026100Y006350D02*
X026850Y006475D01*
X026850Y009725D01*
X026350Y009350D02*
X026350Y007100D01*
X028350Y007100D02*
X028350Y008850D01*
X030350Y008350D02*
X030350Y007100D01*
X027600Y002100D02*
X027600Y001100D01*
X013475Y001100D01*
X013475Y003225D01*
M02*
