G75*
G70*
%OFA0B0*%
%FSLAX24Y24*%
%IPPOS*%
%LPD*%
%AMOC8*
5,1,8,0,0,1.08239X$1,22.5*
%
%ADD10C,0.0000*%
%ADD11R,0.0390X0.0120*%
%ADD12R,0.0472X0.0315*%
%ADD13C,0.0650*%
%ADD14R,0.0650X0.0650*%
%ADD15C,0.0740*%
%ADD16R,0.0630X0.0460*%
%ADD17R,0.0394X0.0551*%
%ADD18R,0.0740X0.0740*%
%ADD19C,0.0740*%
%ADD20C,0.0710*%
%ADD21R,0.0472X0.0551*%
%ADD22C,0.0560*%
%ADD23C,0.0120*%
%ADD24C,0.0460*%
%ADD25C,0.0100*%
%ADD26C,0.0160*%
%ADD27C,0.0240*%
D10*
X000100Y000100D02*
X000100Y018096D01*
X036970Y018096D01*
X036970Y000100D01*
X000100Y000100D01*
X001450Y002100D02*
X001452Y002150D01*
X001458Y002200D01*
X001468Y002250D01*
X001481Y002298D01*
X001498Y002346D01*
X001519Y002392D01*
X001543Y002436D01*
X001571Y002478D01*
X001602Y002518D01*
X001636Y002555D01*
X001673Y002590D01*
X001712Y002621D01*
X001753Y002650D01*
X001797Y002675D01*
X001843Y002697D01*
X001890Y002715D01*
X001938Y002729D01*
X001987Y002740D01*
X002037Y002747D01*
X002087Y002750D01*
X002138Y002749D01*
X002188Y002744D01*
X002238Y002735D01*
X002286Y002723D01*
X002334Y002706D01*
X002380Y002686D01*
X002425Y002663D01*
X002468Y002636D01*
X002508Y002606D01*
X002546Y002573D01*
X002581Y002537D01*
X002614Y002498D01*
X002643Y002457D01*
X002669Y002414D01*
X002692Y002369D01*
X002711Y002322D01*
X002726Y002274D01*
X002738Y002225D01*
X002746Y002175D01*
X002750Y002125D01*
X002750Y002075D01*
X002746Y002025D01*
X002738Y001975D01*
X002726Y001926D01*
X002711Y001878D01*
X002692Y001831D01*
X002669Y001786D01*
X002643Y001743D01*
X002614Y001702D01*
X002581Y001663D01*
X002546Y001627D01*
X002508Y001594D01*
X002468Y001564D01*
X002425Y001537D01*
X002380Y001514D01*
X002334Y001494D01*
X002286Y001477D01*
X002238Y001465D01*
X002188Y001456D01*
X002138Y001451D01*
X002087Y001450D01*
X002037Y001453D01*
X001987Y001460D01*
X001938Y001471D01*
X001890Y001485D01*
X001843Y001503D01*
X001797Y001525D01*
X001753Y001550D01*
X001712Y001579D01*
X001673Y001610D01*
X001636Y001645D01*
X001602Y001682D01*
X001571Y001722D01*
X001543Y001764D01*
X001519Y001808D01*
X001498Y001854D01*
X001481Y001902D01*
X001468Y001950D01*
X001458Y002000D01*
X001452Y002050D01*
X001450Y002100D01*
X001450Y015600D02*
X001452Y015650D01*
X001458Y015700D01*
X001468Y015750D01*
X001481Y015798D01*
X001498Y015846D01*
X001519Y015892D01*
X001543Y015936D01*
X001571Y015978D01*
X001602Y016018D01*
X001636Y016055D01*
X001673Y016090D01*
X001712Y016121D01*
X001753Y016150D01*
X001797Y016175D01*
X001843Y016197D01*
X001890Y016215D01*
X001938Y016229D01*
X001987Y016240D01*
X002037Y016247D01*
X002087Y016250D01*
X002138Y016249D01*
X002188Y016244D01*
X002238Y016235D01*
X002286Y016223D01*
X002334Y016206D01*
X002380Y016186D01*
X002425Y016163D01*
X002468Y016136D01*
X002508Y016106D01*
X002546Y016073D01*
X002581Y016037D01*
X002614Y015998D01*
X002643Y015957D01*
X002669Y015914D01*
X002692Y015869D01*
X002711Y015822D01*
X002726Y015774D01*
X002738Y015725D01*
X002746Y015675D01*
X002750Y015625D01*
X002750Y015575D01*
X002746Y015525D01*
X002738Y015475D01*
X002726Y015426D01*
X002711Y015378D01*
X002692Y015331D01*
X002669Y015286D01*
X002643Y015243D01*
X002614Y015202D01*
X002581Y015163D01*
X002546Y015127D01*
X002508Y015094D01*
X002468Y015064D01*
X002425Y015037D01*
X002380Y015014D01*
X002334Y014994D01*
X002286Y014977D01*
X002238Y014965D01*
X002188Y014956D01*
X002138Y014951D01*
X002087Y014950D01*
X002037Y014953D01*
X001987Y014960D01*
X001938Y014971D01*
X001890Y014985D01*
X001843Y015003D01*
X001797Y015025D01*
X001753Y015050D01*
X001712Y015079D01*
X001673Y015110D01*
X001636Y015145D01*
X001602Y015182D01*
X001571Y015222D01*
X001543Y015264D01*
X001519Y015308D01*
X001498Y015354D01*
X001481Y015402D01*
X001468Y015450D01*
X001458Y015500D01*
X001452Y015550D01*
X001450Y015600D01*
X034450Y015600D02*
X034452Y015650D01*
X034458Y015700D01*
X034468Y015750D01*
X034481Y015798D01*
X034498Y015846D01*
X034519Y015892D01*
X034543Y015936D01*
X034571Y015978D01*
X034602Y016018D01*
X034636Y016055D01*
X034673Y016090D01*
X034712Y016121D01*
X034753Y016150D01*
X034797Y016175D01*
X034843Y016197D01*
X034890Y016215D01*
X034938Y016229D01*
X034987Y016240D01*
X035037Y016247D01*
X035087Y016250D01*
X035138Y016249D01*
X035188Y016244D01*
X035238Y016235D01*
X035286Y016223D01*
X035334Y016206D01*
X035380Y016186D01*
X035425Y016163D01*
X035468Y016136D01*
X035508Y016106D01*
X035546Y016073D01*
X035581Y016037D01*
X035614Y015998D01*
X035643Y015957D01*
X035669Y015914D01*
X035692Y015869D01*
X035711Y015822D01*
X035726Y015774D01*
X035738Y015725D01*
X035746Y015675D01*
X035750Y015625D01*
X035750Y015575D01*
X035746Y015525D01*
X035738Y015475D01*
X035726Y015426D01*
X035711Y015378D01*
X035692Y015331D01*
X035669Y015286D01*
X035643Y015243D01*
X035614Y015202D01*
X035581Y015163D01*
X035546Y015127D01*
X035508Y015094D01*
X035468Y015064D01*
X035425Y015037D01*
X035380Y015014D01*
X035334Y014994D01*
X035286Y014977D01*
X035238Y014965D01*
X035188Y014956D01*
X035138Y014951D01*
X035087Y014950D01*
X035037Y014953D01*
X034987Y014960D01*
X034938Y014971D01*
X034890Y014985D01*
X034843Y015003D01*
X034797Y015025D01*
X034753Y015050D01*
X034712Y015079D01*
X034673Y015110D01*
X034636Y015145D01*
X034602Y015182D01*
X034571Y015222D01*
X034543Y015264D01*
X034519Y015308D01*
X034498Y015354D01*
X034481Y015402D01*
X034468Y015450D01*
X034458Y015500D01*
X034452Y015550D01*
X034450Y015600D01*
X034450Y002100D02*
X034452Y002150D01*
X034458Y002200D01*
X034468Y002250D01*
X034481Y002298D01*
X034498Y002346D01*
X034519Y002392D01*
X034543Y002436D01*
X034571Y002478D01*
X034602Y002518D01*
X034636Y002555D01*
X034673Y002590D01*
X034712Y002621D01*
X034753Y002650D01*
X034797Y002675D01*
X034843Y002697D01*
X034890Y002715D01*
X034938Y002729D01*
X034987Y002740D01*
X035037Y002747D01*
X035087Y002750D01*
X035138Y002749D01*
X035188Y002744D01*
X035238Y002735D01*
X035286Y002723D01*
X035334Y002706D01*
X035380Y002686D01*
X035425Y002663D01*
X035468Y002636D01*
X035508Y002606D01*
X035546Y002573D01*
X035581Y002537D01*
X035614Y002498D01*
X035643Y002457D01*
X035669Y002414D01*
X035692Y002369D01*
X035711Y002322D01*
X035726Y002274D01*
X035738Y002225D01*
X035746Y002175D01*
X035750Y002125D01*
X035750Y002075D01*
X035746Y002025D01*
X035738Y001975D01*
X035726Y001926D01*
X035711Y001878D01*
X035692Y001831D01*
X035669Y001786D01*
X035643Y001743D01*
X035614Y001702D01*
X035581Y001663D01*
X035546Y001627D01*
X035508Y001594D01*
X035468Y001564D01*
X035425Y001537D01*
X035380Y001514D01*
X035334Y001494D01*
X035286Y001477D01*
X035238Y001465D01*
X035188Y001456D01*
X035138Y001451D01*
X035087Y001450D01*
X035037Y001453D01*
X034987Y001460D01*
X034938Y001471D01*
X034890Y001485D01*
X034843Y001503D01*
X034797Y001525D01*
X034753Y001550D01*
X034712Y001579D01*
X034673Y001610D01*
X034636Y001645D01*
X034602Y001682D01*
X034571Y001722D01*
X034543Y001764D01*
X034519Y001808D01*
X034498Y001854D01*
X034481Y001902D01*
X034468Y001950D01*
X034458Y002000D01*
X034452Y002050D01*
X034450Y002100D01*
D11*
X015749Y004437D03*
X015749Y004693D03*
X015749Y004948D03*
X015749Y005204D03*
X015749Y005460D03*
X015749Y005716D03*
X015749Y005972D03*
X015749Y006228D03*
X015749Y006484D03*
X015749Y006740D03*
X015749Y006996D03*
X015749Y007252D03*
X015749Y007507D03*
X015749Y007763D03*
X013451Y007763D03*
X013451Y007507D03*
X013451Y007252D03*
X013451Y006996D03*
X013451Y006740D03*
X013451Y006484D03*
X013451Y006228D03*
X013451Y005972D03*
X013451Y005716D03*
X013451Y005460D03*
X013451Y005204D03*
X013451Y004948D03*
X013451Y004693D03*
X013451Y004437D03*
D12*
X017725Y007371D03*
X017725Y008079D03*
X006100Y002454D03*
X004600Y002454D03*
X004600Y001746D03*
X006100Y001746D03*
X001600Y006996D03*
X001600Y007704D03*
X001600Y008996D03*
X001600Y009704D03*
D13*
X005600Y006100D03*
X035600Y011600D03*
D14*
X034600Y011600D03*
X005600Y005100D03*
D15*
X008100Y002470D02*
X008100Y001730D01*
X009100Y001730D02*
X009100Y002470D01*
X010100Y002470D02*
X010100Y001730D01*
X011100Y001730D02*
X011100Y002470D01*
X012100Y002470D02*
X012100Y001730D01*
X026600Y001730D02*
X026600Y002470D01*
X027600Y002470D02*
X027600Y001730D01*
X028600Y001730D02*
X028600Y002470D01*
X029600Y002470D02*
X029600Y001730D01*
X030600Y001730D02*
X030600Y002470D01*
D16*
X031100Y006500D03*
X031100Y007100D03*
X031100Y007700D03*
X029100Y007700D03*
X029100Y007100D03*
X029100Y006500D03*
X027100Y006500D03*
X027100Y007100D03*
X027100Y007700D03*
X025100Y007700D03*
X025100Y007100D03*
X025100Y006500D03*
X023100Y006500D03*
X023100Y007100D03*
X023100Y007700D03*
X021100Y007700D03*
X021100Y007100D03*
X021100Y006500D03*
D17*
X020724Y012917D03*
X019976Y012917D03*
X019224Y012917D03*
X018476Y012917D03*
X017724Y012917D03*
X016976Y012917D03*
X017350Y013783D03*
X018850Y013783D03*
X020350Y013783D03*
X022976Y012917D03*
X023724Y012917D03*
X024476Y012917D03*
X025224Y012917D03*
X025976Y012917D03*
X026724Y012917D03*
X026350Y013783D03*
X024850Y013783D03*
X023350Y013783D03*
X028976Y012917D03*
X029724Y012917D03*
X030476Y012917D03*
X031224Y012917D03*
X031976Y012917D03*
X032724Y012917D03*
X032350Y013783D03*
X030850Y013783D03*
X029350Y013783D03*
X014599Y012917D03*
X013851Y012917D03*
X013099Y012917D03*
X012351Y012917D03*
X011599Y012917D03*
X010851Y012917D03*
X011225Y013783D03*
X012725Y013783D03*
X014225Y013783D03*
X008599Y012917D03*
X007851Y012917D03*
X007099Y012917D03*
X006351Y012917D03*
X005599Y012917D03*
X004851Y012917D03*
X005225Y013783D03*
X006725Y013783D03*
X008225Y013783D03*
D18*
X010600Y015100D03*
X004600Y015100D03*
X016600Y015100D03*
X022600Y015100D03*
X028600Y015100D03*
D19*
X029600Y015100D03*
X030600Y015100D03*
X031600Y015100D03*
X025600Y015100D03*
X024600Y015100D03*
X023600Y015100D03*
X019600Y015100D03*
X018600Y015100D03*
X017600Y015100D03*
X013600Y015100D03*
X012600Y015100D03*
X011600Y015100D03*
X007600Y015100D03*
X006600Y015100D03*
X005600Y015100D03*
D20*
X034995Y008600D02*
X035705Y008600D01*
X035705Y006600D02*
X034995Y006600D01*
D21*
X004191Y007600D03*
X003009Y007600D03*
X003009Y009100D03*
X004191Y009100D03*
D22*
X004807Y009100D01*
X004807Y009413D01*
X004792Y009486D01*
X004764Y009556D01*
X004722Y009618D01*
X004669Y009671D01*
X004607Y009712D01*
X004538Y009741D01*
X004464Y009756D01*
X004191Y009756D01*
X004191Y009100D01*
X004191Y009100D01*
X004807Y009100D01*
X004807Y008787D01*
X004792Y008714D01*
X004764Y008644D01*
X004722Y008582D01*
X004669Y008529D01*
X004607Y008488D01*
X004538Y008459D01*
X004464Y008444D01*
X004191Y008444D01*
X004191Y009100D01*
X004191Y009100D01*
X004191Y009100D01*
X004191Y009756D01*
X003917Y009756D01*
X003843Y009741D01*
X003774Y009712D01*
X003712Y009671D01*
X003659Y009618D01*
X003618Y009556D01*
X003611Y009539D01*
X003585Y009602D01*
X003472Y009715D01*
X003325Y009776D01*
X002694Y009776D01*
X002547Y009715D01*
X002434Y009602D01*
X002373Y009455D01*
X002373Y009446D01*
X002227Y009446D01*
X002236Y009467D01*
X002236Y009941D01*
X002175Y010088D01*
X002063Y010201D01*
X002050Y010206D01*
X002050Y012159D01*
X002134Y012243D01*
X002230Y012475D01*
X002230Y012725D01*
X002134Y012957D01*
X001957Y013134D01*
X001725Y013230D01*
X001475Y013230D01*
X001243Y013134D01*
X001066Y012957D01*
X000970Y012725D01*
X000970Y012475D01*
X001066Y012243D01*
X001150Y012159D01*
X001150Y010206D01*
X001137Y010201D01*
X001025Y010088D01*
X000964Y009941D01*
X000964Y009467D01*
X001012Y009350D01*
X000964Y009233D01*
X000964Y008759D01*
X001025Y008612D01*
X001137Y008499D01*
X001284Y008438D01*
X001916Y008438D01*
X002063Y008499D01*
X002109Y008546D01*
X002486Y008546D01*
X002547Y008485D01*
X002694Y008424D01*
X003325Y008424D01*
X003472Y008485D01*
X003585Y008598D01*
X003611Y008661D01*
X003618Y008644D01*
X003659Y008582D01*
X003712Y008529D01*
X003774Y008488D01*
X003843Y008459D01*
X003917Y008444D01*
X004191Y008444D01*
X004191Y009100D01*
X004191Y009036D02*
X004191Y009036D01*
X004807Y009036D02*
X007220Y009036D01*
X007220Y009100D02*
X007220Y008850D01*
X007316Y008618D01*
X007400Y008534D01*
X007400Y008355D01*
X007225Y008355D01*
X006993Y008259D01*
X006816Y008082D01*
X006720Y007850D01*
X006720Y007600D01*
X006816Y007368D01*
X006900Y007284D01*
X006900Y005226D01*
X006900Y005137D01*
X006900Y005136D01*
X006900Y005135D01*
X006934Y005053D01*
X006968Y004971D01*
X006969Y004970D01*
X007031Y004907D01*
X007094Y004844D01*
X007095Y004844D01*
X007095Y004844D01*
X007177Y004809D01*
X007259Y004775D01*
X007260Y004775D01*
X007260Y004775D01*
X007349Y004775D01*
X007490Y004775D01*
X007470Y004725D01*
X007470Y004475D01*
X007566Y004243D01*
X007743Y004066D01*
X007975Y003970D01*
X008225Y003970D01*
X008275Y003991D01*
X008275Y003675D01*
X006066Y003675D01*
X006134Y003743D01*
X006230Y003975D01*
X006230Y004225D01*
X006144Y004433D01*
X006152Y004436D01*
X006264Y004548D01*
X006325Y004695D01*
X006325Y005505D01*
X006264Y005652D01*
X006195Y005721D01*
X006234Y005788D01*
X006269Y005873D01*
X006293Y005962D01*
X006305Y006054D01*
X006305Y006100D01*
X006305Y006146D01*
X006293Y006238D01*
X006269Y006327D01*
X006234Y006412D01*
X006187Y006493D01*
X006131Y006566D01*
X006066Y006631D01*
X005993Y006687D01*
X005912Y006734D01*
X005827Y006769D01*
X005738Y006793D01*
X005646Y006805D01*
X005600Y006805D01*
X005600Y006100D01*
X005600Y006100D01*
X006305Y006100D01*
X005600Y006100D01*
X005600Y006100D01*
X005600Y006100D01*
X004895Y006100D01*
X004895Y006146D01*
X004907Y006238D01*
X004931Y006327D01*
X004966Y006412D01*
X005013Y006493D01*
X005069Y006566D01*
X005134Y006631D01*
X005207Y006687D01*
X005288Y006734D01*
X005373Y006769D01*
X005462Y006793D01*
X005554Y006805D01*
X005600Y006805D01*
X005600Y006100D01*
X004895Y006100D01*
X004895Y006054D01*
X004907Y005962D01*
X004931Y005873D01*
X004966Y005788D01*
X005005Y005721D01*
X004936Y005652D01*
X004898Y005560D01*
X003686Y005560D01*
X002236Y007010D01*
X002236Y007233D01*
X002227Y007254D01*
X002373Y007254D01*
X002373Y007245D01*
X002434Y007098D01*
X002547Y006985D01*
X002694Y006924D01*
X003325Y006924D01*
X003472Y006985D01*
X003585Y007098D01*
X003611Y007161D01*
X003618Y007144D01*
X003659Y007082D01*
X003712Y007029D01*
X003774Y006988D01*
X003843Y006959D01*
X003917Y006944D01*
X004191Y006944D01*
X004464Y006944D01*
X004538Y006959D01*
X004607Y006988D01*
X004669Y007029D01*
X004722Y007082D01*
X004764Y007144D01*
X004792Y007214D01*
X004807Y007287D01*
X004807Y007600D01*
X004807Y007913D01*
X004792Y007986D01*
X004764Y008056D01*
X004722Y008118D01*
X004669Y008171D01*
X004607Y008212D01*
X004538Y008241D01*
X004464Y008256D01*
X004191Y008256D01*
X004191Y007600D01*
X004807Y007600D01*
X004191Y007600D01*
X004191Y007600D01*
X004191Y007600D01*
X004191Y006944D01*
X004191Y007600D01*
X004191Y007600D01*
X004191Y008256D01*
X003917Y008256D01*
X003843Y008241D01*
X003774Y008212D01*
X003712Y008171D01*
X003659Y008118D01*
X003618Y008056D01*
X003611Y008039D01*
X003585Y008102D01*
X003472Y008215D01*
X003325Y008276D01*
X002694Y008276D01*
X002547Y008215D01*
X002486Y008154D01*
X002109Y008154D01*
X002063Y008201D01*
X001916Y008262D01*
X001284Y008262D01*
X001137Y008201D01*
X001025Y008088D01*
X000964Y007941D01*
X000964Y007467D01*
X001012Y007350D01*
X000964Y007233D01*
X000964Y006759D01*
X001025Y006612D01*
X001137Y006499D01*
X001284Y006438D01*
X001507Y006438D01*
X003235Y004710D01*
X003404Y004640D01*
X004898Y004640D01*
X004936Y004548D01*
X005048Y004436D01*
X005056Y004433D01*
X004970Y004225D01*
X004970Y003975D01*
X005066Y003743D01*
X005134Y003675D01*
X003635Y003675D01*
X003470Y003606D01*
X003344Y003480D01*
X003275Y003315D01*
X003275Y002725D01*
X003164Y002917D01*
X002917Y003164D01*
X002613Y003339D01*
X002275Y003430D01*
X001925Y003430D01*
X001587Y003339D01*
X001283Y003164D01*
X001036Y002917D01*
X000861Y002613D01*
X000780Y002312D01*
X000780Y015388D01*
X000861Y015087D01*
X001036Y014783D01*
X001283Y014536D01*
X001587Y014361D01*
X001925Y014270D01*
X002275Y014270D01*
X002613Y014361D01*
X002917Y014536D01*
X003164Y014783D01*
X003339Y015087D01*
X003430Y015425D01*
X003430Y015775D01*
X003339Y016113D01*
X003164Y016417D01*
X002917Y016664D01*
X002613Y016839D01*
X002275Y016930D01*
X001925Y016930D01*
X001587Y016839D01*
X001283Y016664D01*
X001036Y016417D01*
X000861Y016113D01*
X000780Y015812D01*
X000780Y017416D01*
X036290Y017416D01*
X036290Y016199D01*
X036164Y016417D01*
X035917Y016664D01*
X035613Y016839D01*
X035275Y016930D01*
X034925Y016930D01*
X034587Y016839D01*
X034283Y016664D01*
X034036Y016417D01*
X033861Y016113D01*
X033770Y015775D01*
X033770Y015425D01*
X033861Y015087D01*
X034036Y014783D01*
X034283Y014536D01*
X034587Y014361D01*
X034925Y014270D01*
X035275Y014270D01*
X035613Y014361D01*
X035917Y014536D01*
X036164Y014783D01*
X036290Y015001D01*
X036290Y011748D01*
X036269Y011827D01*
X036234Y011912D01*
X036187Y011993D01*
X036131Y012066D01*
X036066Y012131D01*
X035993Y012187D01*
X035912Y012234D01*
X035827Y012269D01*
X035738Y012293D01*
X035646Y012305D01*
X035600Y012305D01*
X035600Y011600D01*
X035600Y011600D01*
X035600Y010895D01*
X035646Y010895D01*
X035738Y010907D01*
X035827Y010931D01*
X035912Y010966D01*
X035993Y011013D01*
X036066Y011069D01*
X036131Y011134D01*
X036187Y011207D01*
X036234Y011288D01*
X036269Y011373D01*
X036290Y011452D01*
X036290Y009045D01*
X036259Y009086D01*
X036191Y009154D01*
X036114Y009212D01*
X036031Y009261D01*
X035942Y009297D01*
X035849Y009322D01*
X035753Y009335D01*
X035350Y009335D01*
X035350Y008600D01*
X035350Y008600D01*
X035350Y007865D01*
X035753Y007865D01*
X035849Y007878D01*
X035942Y007903D01*
X036031Y007939D01*
X036114Y007988D01*
X036191Y008046D01*
X036259Y008114D01*
X036290Y008155D01*
X036290Y007083D01*
X036133Y007240D01*
X035855Y007355D01*
X034845Y007355D01*
X034567Y007240D01*
X034355Y007028D01*
X034240Y006750D01*
X034240Y006450D01*
X034355Y006172D01*
X034567Y005960D01*
X034845Y005845D01*
X035855Y005845D01*
X036133Y005960D01*
X036290Y006117D01*
X036290Y002699D01*
X036164Y002917D01*
X035917Y003164D01*
X035613Y003339D01*
X035275Y003430D01*
X034925Y003430D01*
X034587Y003339D01*
X034283Y003164D01*
X034036Y002917D01*
X033861Y002613D01*
X033770Y002275D01*
X033770Y001925D01*
X033861Y001587D01*
X034036Y001283D01*
X034283Y001036D01*
X034587Y000861D01*
X034888Y000780D01*
X029050Y000780D01*
X029050Y001091D01*
X029115Y001156D01*
X029182Y001105D01*
X029268Y001056D01*
X029358Y001018D01*
X029453Y000993D01*
X029551Y000980D01*
X029600Y000980D01*
X029649Y000980D01*
X029747Y000993D01*
X029842Y001018D01*
X029932Y001056D01*
X030018Y001105D01*
X030085Y001156D01*
X030164Y001077D01*
X030447Y000960D01*
X030753Y000960D01*
X031036Y001077D01*
X031253Y001294D01*
X031370Y001577D01*
X031370Y001620D01*
X032070Y001620D01*
X032247Y001693D01*
X032382Y001828D01*
X032455Y002005D01*
X032455Y007820D01*
X032382Y007997D01*
X032247Y008132D01*
X032070Y008205D01*
X031706Y008205D01*
X031642Y008269D01*
X031495Y008330D01*
X030980Y008330D01*
X030980Y008475D01*
X030884Y008707D01*
X030707Y008884D01*
X030475Y008980D01*
X030225Y008980D01*
X029993Y008884D01*
X029919Y008810D01*
X028980Y008832D01*
X028980Y008975D01*
X028884Y009207D01*
X028707Y009384D01*
X028475Y009480D01*
X028225Y009480D01*
X027993Y009384D01*
X027913Y009304D01*
X027325Y009309D01*
X027384Y009368D01*
X027480Y009600D01*
X027480Y009850D01*
X027384Y010082D01*
X027207Y010259D01*
X026975Y010355D01*
X026725Y010355D01*
X026526Y010273D01*
X022523Y011299D01*
X022509Y011332D01*
X022332Y011509D01*
X022100Y011605D01*
X021850Y011605D01*
X021618Y011509D01*
X021441Y011332D01*
X021345Y011100D01*
X021345Y010850D01*
X021377Y010772D01*
X014304Y010567D01*
X014300Y010619D01*
X014301Y012274D01*
X014365Y012261D01*
X014599Y012261D01*
X014599Y012917D01*
X015176Y012917D01*
X015176Y013230D01*
X015161Y013303D01*
X015133Y013373D01*
X015091Y013435D01*
X015038Y013488D01*
X014976Y013529D01*
X014907Y013558D01*
X014869Y013565D01*
X014911Y013682D01*
X014897Y013952D01*
X014822Y014111D01*
X014822Y014138D01*
X014761Y014285D01*
X014720Y014326D01*
X014370Y015064D01*
X014370Y015253D01*
X014253Y015536D01*
X014036Y015753D01*
X013753Y015870D01*
X013447Y015870D01*
X013164Y015753D01*
X013100Y015689D01*
X013036Y015753D01*
X012753Y015870D01*
X012447Y015870D01*
X012164Y015753D01*
X012100Y015689D01*
X012036Y015753D01*
X011753Y015870D01*
X011447Y015870D01*
X011227Y015779D01*
X011197Y015809D01*
X011050Y015870D01*
X010150Y015870D01*
X010003Y015809D01*
X009891Y015697D01*
X009830Y015550D01*
X009830Y014650D01*
X009891Y014503D01*
X010003Y014391D01*
X010150Y014330D01*
X010674Y014330D01*
X010534Y013839D01*
X010563Y013588D01*
X010428Y013532D01*
X010315Y013419D01*
X010254Y013272D01*
X010254Y012562D01*
X010315Y012415D01*
X010357Y012373D01*
X010316Y012332D01*
X010220Y012100D01*
X010220Y011850D01*
X010316Y011618D01*
X010493Y011441D01*
X010725Y011345D01*
X010975Y011345D01*
X011207Y011441D01*
X011384Y011618D01*
X011480Y011850D01*
X011480Y012100D01*
X011413Y012261D01*
X011599Y012261D01*
X011599Y012917D01*
X011599Y012917D01*
X011599Y012261D01*
X011787Y012261D01*
X011720Y012100D01*
X011720Y011850D01*
X011816Y011618D01*
X011993Y011441D01*
X012225Y011345D01*
X012475Y011345D01*
X012707Y011441D01*
X012884Y011618D01*
X012980Y011850D01*
X012980Y012100D01*
X012913Y012261D01*
X013099Y012261D01*
X013099Y012917D01*
X013099Y012917D01*
X013099Y012261D01*
X013333Y012261D01*
X013401Y012275D01*
X013400Y010874D01*
X009536Y008884D01*
X009470Y008856D01*
X009456Y008843D01*
X009439Y008834D01*
X009413Y008803D01*
X008182Y010957D01*
X008263Y012287D01*
X008291Y012276D01*
X008365Y012261D01*
X008599Y012261D01*
X008599Y012917D01*
X009176Y012917D01*
X009176Y013230D01*
X009161Y013303D01*
X009133Y013373D01*
X009091Y013435D01*
X009038Y013488D01*
X008976Y013529D01*
X008907Y013558D01*
X008869Y013565D01*
X008911Y013682D01*
X008897Y013952D01*
X008822Y014111D01*
X008822Y014138D01*
X008761Y014285D01*
X008720Y014326D01*
X008370Y015064D01*
X008370Y015253D01*
X008253Y015536D01*
X008036Y015753D01*
X007753Y015870D01*
X007447Y015870D01*
X007164Y015753D01*
X007100Y015689D01*
X007036Y015753D01*
X006753Y015870D01*
X006447Y015870D01*
X006164Y015753D01*
X006100Y015689D01*
X006036Y015753D01*
X005753Y015870D01*
X005447Y015870D01*
X005227Y015779D01*
X005197Y015809D01*
X005050Y015870D01*
X004150Y015870D01*
X004003Y015809D01*
X003891Y015697D01*
X003830Y015550D01*
X003830Y014650D01*
X003891Y014503D01*
X004003Y014391D01*
X004150Y014330D01*
X004674Y014330D01*
X004534Y013839D01*
X004563Y013588D01*
X004428Y013532D01*
X004315Y013419D01*
X004254Y013272D01*
X004254Y012562D01*
X004315Y012415D01*
X004357Y012373D01*
X004316Y012332D01*
X004220Y012100D01*
X004220Y011850D01*
X004316Y011618D01*
X004493Y011441D01*
X004725Y011345D01*
X004975Y011345D01*
X005207Y011441D01*
X005384Y011618D01*
X005480Y011850D01*
X005480Y012100D01*
X005413Y012261D01*
X005599Y012261D01*
X005599Y012917D01*
X005599Y012917D01*
X005599Y012261D01*
X005787Y012261D01*
X005720Y012100D01*
X005720Y011850D01*
X005816Y011618D01*
X005993Y011441D01*
X006225Y011345D01*
X006475Y011345D01*
X006707Y011441D01*
X006884Y011618D01*
X006980Y011850D01*
X006980Y012100D01*
X006913Y012261D01*
X007099Y012261D01*
X007099Y012917D01*
X007099Y012917D01*
X007099Y012261D01*
X007333Y012261D01*
X007361Y012267D01*
X007279Y010924D01*
X007267Y010882D01*
X007273Y010835D01*
X007270Y010788D01*
X007284Y010747D01*
X007290Y010704D01*
X007313Y010663D01*
X007329Y010619D01*
X007357Y010586D01*
X007918Y009605D01*
X007725Y009605D01*
X007493Y009509D01*
X007316Y009332D01*
X007220Y009100D01*
X007699Y009595D02*
X004738Y009595D01*
X004191Y009595D02*
X004191Y009595D01*
X003644Y009595D02*
X003588Y009595D01*
X002431Y009595D02*
X002236Y009595D01*
X002111Y010153D02*
X007605Y010153D01*
X007289Y010712D02*
X002050Y010712D01*
X001150Y010712D02*
X000780Y010712D01*
X000780Y011270D02*
X001150Y011270D01*
X002050Y011270D02*
X007300Y011270D01*
X008201Y011270D02*
X013400Y011270D01*
X014300Y011270D02*
X021415Y011270D01*
X022441Y011618D02*
X022618Y011441D01*
X022850Y011345D01*
X023100Y011345D01*
X023332Y011441D01*
X023509Y011618D01*
X023605Y011850D01*
X023605Y012100D01*
X023538Y012261D01*
X023724Y012261D01*
X023724Y012917D01*
X023724Y012917D01*
X023724Y012261D01*
X023912Y012261D01*
X023845Y012100D01*
X023845Y011850D01*
X023941Y011618D01*
X024118Y011441D01*
X024350Y011345D01*
X024600Y011345D01*
X024832Y011441D01*
X025009Y011618D01*
X025105Y011850D01*
X025105Y012100D01*
X025038Y012261D01*
X025224Y012261D01*
X025224Y012917D01*
X025224Y012917D01*
X025224Y012261D01*
X025412Y012261D01*
X025345Y012100D01*
X025345Y011850D01*
X025441Y011618D01*
X025618Y011441D01*
X025850Y011345D01*
X026100Y011345D01*
X026332Y011441D01*
X026509Y011618D01*
X026605Y011850D01*
X026605Y012100D01*
X026538Y012261D01*
X026724Y012261D01*
X026724Y012917D01*
X027301Y012917D01*
X027301Y013230D01*
X027286Y013303D01*
X027258Y013373D01*
X027216Y013435D01*
X027163Y013488D01*
X027101Y013529D01*
X027032Y013558D01*
X026995Y013565D01*
X027042Y013734D01*
X027008Y014002D01*
X026947Y014109D01*
X026947Y014138D01*
X026886Y014285D01*
X026794Y014377D01*
X026370Y015122D01*
X026370Y015253D01*
X026253Y015536D01*
X026036Y015753D01*
X025753Y015870D01*
X025447Y015870D01*
X025164Y015753D01*
X025100Y015689D01*
X025036Y015753D01*
X024753Y015870D01*
X024447Y015870D01*
X024164Y015753D01*
X024100Y015689D01*
X024036Y015753D01*
X023753Y015870D01*
X023447Y015870D01*
X023227Y015779D01*
X023197Y015809D01*
X023050Y015870D01*
X022150Y015870D01*
X022003Y015809D01*
X021891Y015697D01*
X021830Y015550D01*
X021830Y014650D01*
X021891Y014503D01*
X022003Y014391D01*
X022150Y014330D01*
X022762Y014330D01*
X022657Y013777D01*
X022695Y013591D01*
X022553Y013532D01*
X022440Y013419D01*
X022379Y013272D01*
X022379Y012562D01*
X022440Y012415D01*
X022482Y012373D01*
X022441Y012332D01*
X022345Y012100D01*
X022345Y011850D01*
X022441Y011618D01*
X022354Y011829D02*
X020596Y011829D01*
X020605Y011850D02*
X020605Y012100D01*
X020538Y012261D01*
X020724Y012261D01*
X020724Y012917D01*
X021301Y012917D01*
X021301Y013230D01*
X021286Y013303D01*
X021258Y013373D01*
X021216Y013435D01*
X021163Y013488D01*
X021101Y013529D01*
X021032Y013558D01*
X020995Y013565D01*
X021042Y013734D01*
X021008Y014002D01*
X020947Y014109D01*
X020947Y014138D01*
X020886Y014285D01*
X020794Y014377D01*
X020370Y015122D01*
X020370Y015253D01*
X020253Y015536D01*
X020036Y015753D01*
X019753Y015870D01*
X019447Y015870D01*
X019164Y015753D01*
X019100Y015689D01*
X019036Y015753D01*
X018753Y015870D01*
X018447Y015870D01*
X018164Y015753D01*
X018100Y015689D01*
X018036Y015753D01*
X017753Y015870D01*
X017447Y015870D01*
X017227Y015779D01*
X017197Y015809D01*
X017050Y015870D01*
X016150Y015870D01*
X016003Y015809D01*
X015891Y015697D01*
X015830Y015550D01*
X015830Y014650D01*
X015891Y014503D01*
X016003Y014391D01*
X016150Y014330D01*
X016762Y014330D01*
X016657Y013777D01*
X016695Y013591D01*
X016553Y013532D01*
X016440Y013419D01*
X016379Y013272D01*
X016379Y012562D01*
X016440Y012415D01*
X016482Y012373D01*
X016441Y012332D01*
X016345Y012100D01*
X016345Y011850D01*
X016441Y011618D01*
X016618Y011441D01*
X016850Y011345D01*
X017100Y011345D01*
X017332Y011441D01*
X017509Y011618D01*
X017605Y011850D01*
X017605Y012100D01*
X017538Y012261D01*
X017724Y012261D01*
X017724Y012917D01*
X017724Y012917D01*
X017724Y012261D01*
X017912Y012261D01*
X017845Y012100D01*
X017845Y011850D01*
X017941Y011618D01*
X018118Y011441D01*
X018350Y011345D01*
X018600Y011345D01*
X018832Y011441D01*
X019009Y011618D01*
X019105Y011850D01*
X019105Y012100D01*
X019038Y012261D01*
X019224Y012261D01*
X019224Y012917D01*
X019224Y012917D01*
X019224Y012261D01*
X019412Y012261D01*
X019345Y012100D01*
X019345Y011850D01*
X019441Y011618D01*
X019618Y011441D01*
X019850Y011345D01*
X020100Y011345D01*
X020332Y011441D01*
X020509Y011618D01*
X020605Y011850D01*
X020724Y012261D02*
X020958Y012261D01*
X021032Y012276D01*
X021101Y012305D01*
X021163Y012346D01*
X021216Y012399D01*
X021258Y012461D01*
X021286Y012530D01*
X021301Y012604D01*
X021301Y012917D01*
X020724Y012917D01*
X020724Y012917D01*
X020724Y012917D01*
X020724Y012261D01*
X020724Y012387D02*
X020724Y012387D01*
X021204Y012387D02*
X022468Y012387D01*
X022379Y012946D02*
X021301Y012946D01*
X021139Y013504D02*
X022525Y013504D01*
X023350Y013783D02*
X023600Y015100D01*
X024600Y015100D02*
X024850Y013783D01*
X026350Y013783D02*
X025600Y015100D01*
X026370Y015180D02*
X027830Y015180D01*
X027830Y015550D02*
X027830Y014650D01*
X027891Y014503D01*
X028003Y014391D01*
X028150Y014330D01*
X028762Y014330D01*
X028657Y013777D01*
X028695Y013591D01*
X028553Y013532D01*
X028440Y013419D01*
X028379Y013272D01*
X028379Y012562D01*
X028440Y012415D01*
X028482Y012373D01*
X028441Y012332D01*
X028345Y012100D01*
X028345Y011850D01*
X028441Y011618D01*
X028618Y011441D01*
X028850Y011345D01*
X029100Y011345D01*
X029332Y011441D01*
X029509Y011618D01*
X029605Y011850D01*
X029605Y012100D01*
X029538Y012261D01*
X029724Y012261D01*
X029724Y012917D01*
X029724Y012917D01*
X029724Y012261D01*
X029912Y012261D01*
X029845Y012100D01*
X029845Y011850D01*
X029941Y011618D01*
X030118Y011441D01*
X030350Y011345D01*
X030600Y011345D01*
X030832Y011441D01*
X031009Y011618D01*
X031105Y011850D01*
X031105Y012100D01*
X031038Y012261D01*
X031224Y012261D01*
X031224Y012917D01*
X031224Y012917D01*
X031224Y012261D01*
X031412Y012261D01*
X031345Y012100D01*
X031345Y011850D01*
X031441Y011618D01*
X031618Y011441D01*
X031850Y011345D01*
X032100Y011345D01*
X032332Y011441D01*
X032509Y011618D01*
X032605Y011850D01*
X032605Y012100D01*
X032538Y012261D01*
X032724Y012261D01*
X032724Y012917D01*
X033301Y012917D01*
X033301Y013230D01*
X033286Y013303D01*
X033258Y013373D01*
X033216Y013435D01*
X033163Y013488D01*
X033101Y013529D01*
X033032Y013558D01*
X032995Y013565D01*
X033042Y013734D01*
X033008Y014002D01*
X032947Y014109D01*
X032947Y014138D01*
X032886Y014285D01*
X032794Y014377D01*
X032370Y015122D01*
X032370Y015253D01*
X032253Y015536D01*
X032036Y015753D01*
X031753Y015870D01*
X031447Y015870D01*
X031164Y015753D01*
X031100Y015689D01*
X031036Y015753D01*
X030753Y015870D01*
X030447Y015870D01*
X030164Y015753D01*
X030100Y015689D01*
X030036Y015753D01*
X029753Y015870D01*
X029447Y015870D01*
X029227Y015779D01*
X029197Y015809D01*
X029050Y015870D01*
X028150Y015870D01*
X028003Y015809D01*
X027891Y015697D01*
X027830Y015550D01*
X027932Y015738D02*
X026051Y015738D01*
X025149Y015738D02*
X025051Y015738D01*
X024149Y015738D02*
X024051Y015738D01*
X021932Y015738D02*
X020051Y015738D01*
X019149Y015738D02*
X019051Y015738D01*
X018149Y015738D02*
X018051Y015738D01*
X017600Y015100D02*
X017350Y013783D01*
X016711Y014063D02*
X014845Y014063D01*
X014225Y013783D02*
X013600Y015100D01*
X014370Y015180D02*
X015830Y015180D01*
X015842Y014621D02*
X014580Y014621D01*
X012725Y013783D02*
X012600Y015100D01*
X011600Y015100D02*
X011225Y013783D01*
X010598Y014063D02*
X008845Y014063D01*
X008225Y013783D02*
X007600Y015100D01*
X008370Y015180D02*
X009830Y015180D01*
X009842Y014621D02*
X008580Y014621D01*
X006725Y013783D02*
X006600Y015100D01*
X005600Y015100D02*
X005225Y013783D01*
X004598Y014063D02*
X000780Y014063D01*
X000780Y014621D02*
X001198Y014621D01*
X000836Y015180D02*
X000780Y015180D01*
X003002Y014621D02*
X003842Y014621D01*
X003830Y015180D02*
X003364Y015180D01*
X003430Y015738D02*
X003932Y015738D01*
X003234Y016297D02*
X033966Y016297D01*
X033770Y015738D02*
X032051Y015738D01*
X031149Y015738D02*
X031051Y015738D01*
X030149Y015738D02*
X030051Y015738D01*
X029600Y015100D02*
X029350Y013783D01*
X028711Y014063D02*
X026973Y014063D01*
X027139Y013504D02*
X028525Y013504D01*
X028379Y012946D02*
X027301Y012946D01*
X027301Y012917D02*
X026724Y012917D01*
X026724Y012917D01*
X026724Y012917D01*
X026724Y012261D01*
X026958Y012261D01*
X027032Y012276D01*
X027101Y012305D01*
X027163Y012346D01*
X027216Y012399D01*
X027258Y012461D01*
X027286Y012530D01*
X027301Y012604D01*
X027301Y012917D01*
X027204Y012387D02*
X028468Y012387D01*
X028354Y011829D02*
X026596Y011829D01*
X026724Y012387D02*
X026724Y012387D01*
X025354Y011829D02*
X025096Y011829D01*
X025224Y012387D02*
X025224Y012387D01*
X023854Y011829D02*
X023596Y011829D01*
X023724Y012387D02*
X023724Y012387D01*
X022636Y011270D02*
X033875Y011270D01*
X033875Y011195D02*
X033936Y011048D01*
X034048Y010936D01*
X034195Y010875D01*
X035005Y010875D01*
X035152Y010936D01*
X035221Y011005D01*
X035288Y010966D01*
X035373Y010931D01*
X035462Y010907D01*
X035554Y010895D01*
X035600Y010895D01*
X035600Y011600D01*
X035600Y011600D01*
X035600Y012305D01*
X035554Y012305D01*
X035462Y012293D01*
X035373Y012269D01*
X035288Y012234D01*
X035221Y012195D01*
X035152Y012264D01*
X035005Y012325D01*
X034195Y012325D01*
X034048Y012264D01*
X033936Y012152D01*
X033875Y012005D01*
X033875Y011195D01*
X033875Y011829D02*
X032596Y011829D01*
X032724Y012261D02*
X032958Y012261D01*
X033032Y012276D01*
X033101Y012305D01*
X033163Y012346D01*
X033216Y012399D01*
X033258Y012461D01*
X033286Y012530D01*
X033301Y012604D01*
X033301Y012917D01*
X032724Y012917D01*
X032724Y012917D01*
X032724Y012917D01*
X032724Y012261D01*
X032724Y012387D02*
X032724Y012387D01*
X033204Y012387D02*
X036290Y012387D01*
X036268Y011829D02*
X036290Y011829D01*
X035600Y011829D02*
X035600Y011829D01*
X035600Y011270D02*
X035600Y011270D01*
X036224Y011270D02*
X036290Y011270D01*
X036290Y010712D02*
X024814Y010712D01*
X027313Y010153D02*
X036290Y010153D01*
X036290Y009595D02*
X027478Y009595D01*
X028955Y009036D02*
X034403Y009036D01*
X034383Y009009D02*
X034334Y008926D01*
X034298Y008837D01*
X034273Y008744D01*
X034260Y008648D01*
X034260Y008600D01*
X035350Y008600D01*
X035350Y008600D01*
X035350Y008600D01*
X035350Y009335D01*
X034947Y009335D01*
X034851Y009322D01*
X034758Y009297D01*
X034669Y009261D01*
X034586Y009212D01*
X034509Y009154D01*
X034441Y009086D01*
X034383Y009009D01*
X034260Y008600D02*
X034260Y008552D01*
X034273Y008456D01*
X034298Y008363D01*
X034334Y008274D01*
X034383Y008191D01*
X034441Y008114D01*
X034509Y008046D01*
X034586Y007988D01*
X034669Y007939D01*
X034758Y007903D01*
X034851Y007878D01*
X034947Y007865D01*
X035350Y007865D01*
X035350Y008600D01*
X034260Y008600D01*
X034270Y008478D02*
X030979Y008478D01*
X032414Y007919D02*
X034718Y007919D01*
X035350Y007919D02*
X035350Y007919D01*
X035982Y007919D02*
X036290Y007919D01*
X036290Y007361D02*
X032455Y007361D01*
X032455Y006802D02*
X034261Y006802D01*
X034325Y006244D02*
X032455Y006244D01*
X032455Y005685D02*
X036290Y005685D01*
X036290Y005127D02*
X032455Y005127D01*
X032455Y004568D02*
X036290Y004568D01*
X036290Y004010D02*
X032455Y004010D01*
X031495Y004010D02*
X026550Y004010D01*
X025650Y004010D02*
X024550Y004010D01*
X024550Y003550D02*
X024550Y005909D01*
X024587Y005946D01*
X024605Y005933D01*
X024674Y005905D01*
X024748Y005890D01*
X025100Y005890D01*
X025452Y005890D01*
X025526Y005905D01*
X025595Y005933D01*
X025613Y005946D01*
X025650Y005909D01*
X025650Y003550D01*
X024550Y003550D01*
X023650Y003925D02*
X022425Y003925D01*
X022425Y005909D01*
X022509Y005993D01*
X022514Y006004D01*
X022543Y005975D01*
X022605Y005933D01*
X022674Y005905D01*
X022748Y005890D01*
X023100Y005890D01*
X023452Y005890D01*
X023526Y005905D01*
X023595Y005933D01*
X023613Y005946D01*
X023650Y005909D01*
X023650Y003925D01*
X023650Y004010D02*
X022425Y004010D01*
X021525Y004300D02*
X020550Y004300D01*
X020550Y005534D01*
X020634Y005618D01*
X020730Y005850D01*
X020730Y005893D01*
X020748Y005890D01*
X021100Y005890D01*
X021452Y005890D01*
X021525Y005904D01*
X021525Y004300D01*
X021525Y004568D02*
X020550Y004568D01*
X020550Y005127D02*
X021525Y005127D01*
X022425Y005127D02*
X023650Y005127D01*
X023650Y005685D02*
X022425Y005685D01*
X023100Y005890D02*
X023100Y006470D01*
X023100Y005890D01*
X023100Y006244D02*
X023100Y006244D01*
X023100Y006470D02*
X023100Y006470D01*
X024550Y005685D02*
X025650Y005685D01*
X025100Y005890D02*
X025100Y006470D01*
X025100Y006470D01*
X025100Y005890D01*
X025100Y006244D02*
X025100Y006244D01*
X026550Y005909D02*
X026587Y005946D01*
X026605Y005933D01*
X026674Y005905D01*
X026748Y005890D01*
X027100Y005890D01*
X027452Y005890D01*
X027526Y005905D01*
X027595Y005933D01*
X027657Y005975D01*
X027710Y006028D01*
X027752Y006090D01*
X027780Y006159D01*
X027795Y006233D01*
X027795Y006500D01*
X027795Y006742D01*
X027806Y006768D01*
X027816Y006743D01*
X027993Y006566D01*
X028225Y006470D01*
X028405Y006470D01*
X028405Y006233D01*
X028420Y006159D01*
X028448Y006090D01*
X028490Y006028D01*
X028543Y005975D01*
X028605Y005933D01*
X028674Y005905D01*
X028748Y005890D01*
X029100Y005890D01*
X029452Y005890D01*
X029526Y005905D01*
X029595Y005933D01*
X029657Y005975D01*
X029710Y006028D01*
X029752Y006090D01*
X029780Y006159D01*
X029795Y006233D01*
X029795Y006500D01*
X029795Y006742D01*
X029806Y006768D01*
X029816Y006743D01*
X029993Y006566D01*
X030225Y006470D01*
X030405Y006470D01*
X030405Y006233D01*
X030420Y006159D01*
X030448Y006090D01*
X030490Y006028D01*
X030543Y005975D01*
X030605Y005933D01*
X030674Y005905D01*
X030748Y005890D01*
X031100Y005890D01*
X031452Y005890D01*
X031495Y005898D01*
X031495Y002580D01*
X031370Y002580D01*
X031370Y002623D01*
X031253Y002906D01*
X031036Y003123D01*
X030753Y003240D01*
X030447Y003240D01*
X030164Y003123D01*
X030085Y003044D01*
X030018Y003095D01*
X029932Y003144D01*
X029842Y003182D01*
X029747Y003207D01*
X029649Y003220D01*
X029600Y003220D01*
X029600Y002100D01*
X029600Y002100D01*
X029600Y003220D01*
X029551Y003220D01*
X029453Y003207D01*
X029358Y003182D01*
X029268Y003144D01*
X029182Y003095D01*
X029115Y003044D01*
X029036Y003123D01*
X028753Y003240D01*
X028447Y003240D01*
X028164Y003123D01*
X028100Y003059D01*
X028036Y003123D01*
X027753Y003240D01*
X027447Y003240D01*
X027164Y003123D01*
X027100Y003059D01*
X027036Y003123D01*
X026753Y003240D01*
X026550Y003240D01*
X026550Y005909D01*
X026550Y005685D02*
X031495Y005685D01*
X031100Y005890D02*
X031100Y006470D01*
X031100Y006470D01*
X031100Y005890D01*
X031100Y006244D02*
X031100Y006244D01*
X030405Y006244D02*
X029795Y006244D01*
X029795Y006500D02*
X029567Y006500D01*
X029795Y006500D01*
X029567Y006500D02*
X029567Y006500D01*
X029100Y006470D02*
X029100Y005890D01*
X029100Y006470D01*
X029100Y006470D01*
X029100Y006244D02*
X029100Y006244D01*
X028405Y006244D02*
X027795Y006244D01*
X027795Y006500D02*
X027567Y006500D01*
X027795Y006500D01*
X027567Y006500D02*
X027567Y006500D01*
X027100Y006470D02*
X027100Y005890D01*
X027100Y006470D01*
X027100Y006470D01*
X027100Y006244D02*
X027100Y006244D01*
X026550Y005127D02*
X031495Y005127D01*
X031495Y004568D02*
X026550Y004568D01*
X025650Y004568D02*
X024550Y004568D01*
X024550Y005127D02*
X025650Y005127D01*
X023650Y004568D02*
X022425Y004568D01*
X021525Y005685D02*
X020662Y005685D01*
X021100Y005890D02*
X021100Y006470D01*
X021100Y005890D01*
X021100Y006244D02*
X021100Y006244D01*
X021100Y006470D02*
X021100Y006470D01*
X019812Y006537D02*
X019743Y006509D01*
X019566Y006332D01*
X019548Y006288D01*
X019544Y006292D01*
X019480Y006356D01*
X019480Y006357D01*
X019398Y006391D01*
X019315Y006425D01*
X019314Y006425D01*
X019224Y006425D01*
X019135Y006425D01*
X018032Y006424D01*
X018105Y006600D01*
X018105Y006850D01*
X018101Y006860D01*
X018141Y006876D01*
X018203Y006918D01*
X018256Y006971D01*
X018298Y007033D01*
X018327Y007102D01*
X018341Y007176D01*
X018341Y007371D01*
X018341Y007566D01*
X018333Y007605D01*
X019726Y007617D01*
X019566Y007457D01*
X019470Y007225D01*
X019470Y006975D01*
X019566Y006743D01*
X019743Y006566D01*
X019812Y006537D01*
X019480Y006357D02*
X019480Y006357D01*
X019314Y006425D02*
X019314Y006425D01*
X019135Y006425D02*
X019135Y006425D01*
X019542Y006802D02*
X018105Y006802D01*
X018341Y007361D02*
X019526Y007361D01*
X018341Y007371D02*
X017725Y007371D01*
X017725Y007371D01*
X017109Y007371D01*
X017109Y007566D01*
X017109Y007568D01*
X016729Y007378D01*
X016539Y007364D01*
X016500Y007377D01*
X016344Y007362D01*
X016344Y007185D01*
X017038Y007179D01*
X017109Y007250D01*
X017109Y007371D01*
X017725Y007371D01*
X017725Y007371D01*
X018341Y007371D01*
X017109Y007361D02*
X016344Y007361D01*
X010916Y009595D02*
X008961Y009595D01*
X008642Y010153D02*
X012000Y010153D01*
X013084Y010712D02*
X008322Y010712D01*
X008235Y011829D02*
X010229Y011829D01*
X010343Y012387D02*
X009079Y012387D01*
X009091Y012399D02*
X009133Y012461D01*
X009161Y012530D01*
X009176Y012604D01*
X009176Y012917D01*
X008599Y012917D01*
X008599Y012917D01*
X008599Y012917D01*
X008599Y012261D01*
X008833Y012261D01*
X008907Y012276D01*
X008976Y012305D01*
X009038Y012346D01*
X009091Y012399D01*
X008599Y012387D02*
X008599Y012387D01*
X009176Y012946D02*
X010254Y012946D01*
X010400Y013504D02*
X009014Y013504D01*
X007099Y012387D02*
X007099Y012387D01*
X006971Y011829D02*
X007334Y011829D01*
X005729Y011829D02*
X005471Y011829D01*
X005599Y012387D02*
X005599Y012387D01*
X004343Y012387D02*
X002194Y012387D01*
X002139Y012946D02*
X004254Y012946D01*
X004400Y013504D02*
X000780Y013504D01*
X000780Y012946D02*
X001061Y012946D01*
X001006Y012387D02*
X000780Y012387D01*
X000780Y011829D02*
X001150Y011829D01*
X002050Y011829D02*
X004229Y011829D01*
X001089Y010153D02*
X000780Y010153D01*
X000780Y009595D02*
X000964Y009595D01*
X000964Y009036D02*
X000780Y009036D01*
X000780Y008478D02*
X001189Y008478D01*
X002011Y008478D02*
X002565Y008478D01*
X003453Y008478D02*
X003799Y008478D01*
X004191Y008478D02*
X004191Y008478D01*
X004582Y008478D02*
X007400Y008478D01*
X006748Y007919D02*
X004806Y007919D01*
X004191Y007919D02*
X004191Y007919D01*
X004191Y007361D02*
X004191Y007361D01*
X004807Y007361D02*
X006824Y007361D01*
X006900Y006802D02*
X005669Y006802D01*
X005600Y006802D02*
X005600Y006802D01*
X005531Y006802D02*
X002444Y006802D01*
X003003Y006244D02*
X004909Y006244D01*
X005600Y006244D02*
X005600Y006244D01*
X006291Y006244D02*
X006900Y006244D01*
X006900Y005685D02*
X006231Y005685D01*
X006325Y005127D02*
X006904Y005127D01*
X006968Y004971D02*
X006968Y004971D01*
X007470Y004568D02*
X006272Y004568D01*
X006230Y004010D02*
X007879Y004010D01*
X004970Y004010D02*
X000780Y004010D01*
X000780Y004568D02*
X004928Y004568D01*
X002819Y005127D02*
X000780Y005127D01*
X000780Y005685D02*
X002260Y005685D01*
X001702Y006244D02*
X000780Y006244D01*
X000780Y006802D02*
X000964Y006802D01*
X001008Y007361D02*
X000780Y007361D01*
X000780Y007919D02*
X000964Y007919D01*
X003561Y005685D02*
X004969Y005685D01*
X003332Y003451D02*
X000780Y003451D01*
X000780Y002893D02*
X001022Y002893D01*
X000786Y002334D02*
X000780Y002334D01*
X003178Y002893D02*
X003275Y002893D01*
X011230Y003209D02*
X011230Y003267D01*
X011235Y003266D01*
X011274Y003275D01*
X011315Y003275D01*
X011361Y003294D01*
X012003Y003437D01*
X012225Y003345D01*
X012475Y003345D01*
X012707Y003441D01*
X012884Y003618D01*
X012980Y003850D01*
X012980Y004100D01*
X012969Y004126D01*
X013014Y004081D01*
X013076Y004040D01*
X013145Y004011D01*
X013219Y003997D01*
X013354Y003997D01*
X013345Y003975D01*
X013345Y003725D01*
X013441Y003493D01*
X013618Y003316D01*
X013850Y003220D01*
X014100Y003220D01*
X014275Y003292D01*
X014275Y002635D01*
X014344Y002470D01*
X014470Y002344D01*
X014635Y002275D01*
X025025Y002275D01*
X025025Y002010D01*
X025094Y001845D01*
X025220Y001719D01*
X025385Y001650D01*
X025830Y001650D01*
X025830Y001577D01*
X025947Y001294D01*
X026066Y001175D01*
X012634Y001175D01*
X012753Y001294D01*
X012870Y001577D01*
X012870Y002623D01*
X012753Y002906D01*
X012536Y003123D01*
X012253Y003240D01*
X011947Y003240D01*
X011664Y003123D01*
X011585Y003044D01*
X011518Y003095D01*
X011432Y003144D01*
X011342Y003182D01*
X011247Y003207D01*
X011230Y003209D01*
X012717Y003451D02*
X013483Y003451D01*
X012758Y002893D02*
X014275Y002893D01*
X014493Y002334D02*
X012870Y002334D01*
X012870Y001776D02*
X025163Y001776D01*
X026024Y001217D02*
X012676Y001217D01*
X012980Y004010D02*
X013154Y004010D01*
X009831Y009036D02*
X009280Y009036D01*
X014300Y010712D02*
X019290Y010712D01*
X019354Y011829D02*
X019096Y011829D01*
X019224Y012387D02*
X019224Y012387D01*
X017854Y011829D02*
X017596Y011829D01*
X017724Y012387D02*
X017724Y012387D01*
X016468Y012387D02*
X015079Y012387D01*
X015091Y012399D02*
X015133Y012461D01*
X015161Y012530D01*
X015176Y012604D01*
X015176Y012917D01*
X014599Y012917D01*
X014599Y012917D01*
X014599Y012917D01*
X014599Y012261D01*
X014833Y012261D01*
X014907Y012276D01*
X014976Y012305D01*
X015038Y012346D01*
X015091Y012399D01*
X014599Y012387D02*
X014599Y012387D01*
X014301Y011829D02*
X016354Y011829D01*
X016379Y012946D02*
X015176Y012946D01*
X015014Y013504D02*
X016525Y013504D01*
X018850Y013783D02*
X018600Y015100D01*
X019600Y015100D02*
X020350Y013783D01*
X020973Y014063D02*
X022711Y014063D01*
X021842Y014621D02*
X020655Y014621D01*
X020370Y015180D02*
X021830Y015180D01*
X026655Y014621D02*
X027842Y014621D01*
X030600Y015100D02*
X030850Y013783D01*
X032350Y013783D02*
X031600Y015100D01*
X032370Y015180D02*
X033836Y015180D01*
X034198Y014621D02*
X032655Y014621D01*
X032973Y014063D02*
X036290Y014063D01*
X036290Y014621D02*
X036002Y014621D01*
X036290Y013504D02*
X033139Y013504D01*
X033301Y012946D02*
X036290Y012946D01*
X031354Y011829D02*
X031096Y011829D01*
X031224Y012387D02*
X031224Y012387D01*
X029854Y011829D02*
X029596Y011829D01*
X029724Y012387D02*
X029724Y012387D01*
X035350Y009036D02*
X035350Y009036D01*
X035350Y008478D02*
X035350Y008478D01*
X036290Y003451D02*
X032455Y003451D01*
X032455Y002893D02*
X034022Y002893D01*
X033786Y002334D02*
X032455Y002334D01*
X032329Y001776D02*
X033810Y001776D01*
X034102Y001217D02*
X031176Y001217D01*
X029600Y001217D02*
X029600Y001217D01*
X029600Y000980D02*
X029600Y002100D01*
X029600Y002100D01*
X029600Y000980D01*
X029600Y001776D02*
X029600Y001776D01*
X029600Y002334D02*
X029600Y002334D01*
X029600Y002893D02*
X029600Y002893D01*
X031258Y002893D02*
X031495Y002893D01*
X031495Y003451D02*
X026550Y003451D01*
X036178Y002893D02*
X036290Y002893D01*
X013401Y011829D02*
X012971Y011829D01*
X013099Y012387D02*
X013099Y012387D01*
X011729Y011829D02*
X011471Y011829D01*
X011599Y012387D02*
X011599Y012387D01*
X012051Y015738D02*
X012149Y015738D01*
X013051Y015738D02*
X013149Y015738D01*
X014051Y015738D02*
X015932Y015738D01*
X009932Y015738D02*
X008051Y015738D01*
X007149Y015738D02*
X007051Y015738D01*
X006149Y015738D02*
X006051Y015738D01*
X002555Y016855D02*
X034645Y016855D01*
X035555Y016855D02*
X036290Y016855D01*
X036290Y016297D02*
X036234Y016297D01*
X036290Y017414D02*
X000780Y017414D01*
X000780Y016855D02*
X001645Y016855D01*
X000966Y016297D02*
X000780Y016297D01*
D23*
X015749Y007763D02*
X016600Y007850D01*
X017225Y007350D02*
X017725Y007371D01*
X018475Y006475D01*
X021100Y006500D01*
X021100Y005725D01*
X021350Y005350D01*
X017225Y007350D02*
X016850Y006975D01*
X015749Y006996D01*
X015225Y006975D01*
X014350Y006225D01*
X014350Y004475D01*
X013451Y004437D01*
X012975Y004475D01*
X012850Y004225D01*
X012850Y003350D01*
X011100Y003350D01*
X011100Y002100D01*
X005600Y005100D02*
X003496Y005100D01*
X001600Y006996D01*
X026975Y005350D02*
X027100Y006500D01*
D24*
X026100Y006350D03*
X026350Y007100D03*
X028350Y007100D03*
X030350Y007100D03*
X030350Y008350D03*
X028350Y008850D03*
X026850Y009725D03*
X026350Y009350D03*
X024350Y009850D03*
X022350Y010350D03*
X021975Y010975D03*
X022975Y011975D03*
X024475Y011975D03*
X025975Y011975D03*
X028975Y011975D03*
X030475Y011975D03*
X031975Y011975D03*
X024350Y007100D03*
X024100Y006350D03*
X023100Y005350D03*
X021975Y006350D03*
X022350Y007100D03*
X020100Y007100D03*
X020100Y005975D03*
X021350Y005350D03*
X019225Y004725D03*
X018225Y005100D03*
X017600Y005475D03*
X017475Y006725D03*
X014600Y007850D03*
X014225Y006725D03*
X010850Y004725D03*
X009600Y004225D03*
X008100Y004600D03*
X005600Y004100D03*
X007100Y002725D03*
X010600Y003225D03*
X012350Y003975D03*
X013975Y003850D03*
X009850Y006475D03*
X009850Y007100D03*
X009725Y007850D03*
X008350Y008350D03*
X007350Y007725D03*
X007850Y008975D03*
X006350Y011975D03*
X004850Y011975D03*
X001600Y012600D03*
X010850Y011975D03*
X012350Y011975D03*
X016975Y011975D03*
X018475Y011975D03*
X019975Y011975D03*
X025100Y005350D03*
X026975Y005350D03*
X024725Y001725D03*
D25*
X025475Y002100D02*
X026600Y002100D01*
X025475Y002100D02*
X025475Y002725D01*
X014725Y002725D01*
X014725Y003850D01*
X013975Y003850D01*
X014725Y003850D02*
X014725Y006100D01*
X015100Y006475D01*
X015749Y006484D01*
X015749Y006740D02*
X017475Y006725D01*
X015749Y007252D02*
X015100Y007225D01*
X014225Y006725D01*
X013451Y006740D02*
X012975Y006725D01*
X012475Y006725D01*
X012100Y006975D01*
X010475Y007100D01*
X010475Y008475D01*
X013725Y010100D01*
X022350Y010350D01*
X021975Y010975D02*
X026850Y009725D01*
X026350Y009350D02*
X013725Y009350D01*
X010975Y008100D01*
X010975Y007600D01*
X011725Y007600D01*
X012225Y007475D01*
X012725Y007225D01*
X013451Y007252D01*
X013451Y006996D02*
X012600Y006975D01*
X012100Y007225D01*
X011600Y007350D01*
X010725Y007350D01*
X010725Y008225D01*
X013850Y009850D01*
X024350Y009850D01*
X024475Y011975D02*
X024476Y012917D01*
X025976Y012917D02*
X025975Y011975D01*
X028975Y011975D02*
X028976Y012917D01*
X030476Y012917D02*
X030475Y011975D01*
X031975Y011975D02*
X031976Y012917D01*
X028350Y008850D02*
X014100Y008975D01*
X011350Y007975D01*
X012350Y007725D01*
X012850Y007475D01*
X013451Y007507D01*
X013451Y007763D02*
X012850Y007850D01*
X012850Y008100D01*
X014225Y008725D01*
X030350Y008350D01*
X029100Y007725D02*
X029100Y007700D01*
X029100Y007100D02*
X028350Y007100D01*
X027100Y007100D02*
X026350Y007100D01*
X025100Y007100D02*
X024350Y007100D01*
X023100Y007100D02*
X022350Y007100D01*
X021100Y007100D02*
X020100Y007100D01*
X021975Y006350D02*
X021975Y003850D01*
X019225Y003850D01*
X018600Y004225D01*
X016850Y004225D01*
X016475Y004975D01*
X015749Y004948D01*
X015749Y005204D02*
X016600Y005225D01*
X016975Y004600D01*
X018600Y004600D01*
X019225Y004225D01*
X020100Y004225D01*
X020100Y005975D01*
X019225Y005975D02*
X019225Y004725D01*
X018225Y005100D02*
X017225Y004850D01*
X016725Y005475D01*
X015749Y005460D01*
X015749Y005716D02*
X016600Y005725D01*
X017225Y005725D01*
X017600Y005475D01*
X019225Y005975D02*
X015749Y005972D01*
X013451Y005972D02*
X009225Y005975D01*
X009225Y008225D01*
X007725Y010850D01*
X007851Y012917D01*
X006351Y012917D02*
X006350Y011975D01*
X004850Y011975D02*
X004851Y012917D01*
X001600Y012600D02*
X001600Y009704D01*
X002905Y008996D02*
X003009Y009100D01*
X002925Y009015D01*
X002905Y008996D02*
X001600Y008996D01*
X001600Y007704D02*
X002905Y007704D01*
X003009Y007600D01*
X002925Y007685D01*
X007350Y007725D02*
X007350Y005225D01*
X013451Y005204D01*
X013451Y004948D02*
X012975Y004975D01*
X010850Y004725D01*
X011475Y004225D02*
X009600Y004225D01*
X008725Y004600D02*
X008725Y003725D01*
X011225Y003725D01*
X012350Y003975D01*
X011475Y004225D02*
X012975Y004725D01*
X013451Y004693D01*
X015100Y004475D02*
X015100Y003725D01*
X016100Y003725D01*
X019225Y003100D01*
X026100Y003100D01*
X026100Y006350D01*
X025100Y006500D02*
X025100Y005350D01*
X024100Y006350D02*
X024100Y003475D01*
X019225Y003475D01*
X018225Y003975D01*
X016600Y003975D01*
X016225Y004725D01*
X015749Y004693D01*
X015749Y004437D02*
X015100Y004475D01*
X013451Y005460D02*
X007850Y005475D01*
X007850Y008975D01*
X008350Y008350D02*
X008350Y005725D01*
X013451Y005716D01*
X013451Y006228D02*
X011975Y006225D01*
X009850Y006475D01*
X009850Y007100D02*
X010475Y006725D01*
X011975Y006725D01*
X012350Y006475D01*
X013451Y006484D01*
X014600Y007850D02*
X014975Y007475D01*
X015749Y007507D01*
X013850Y010600D02*
X009725Y008475D01*
X009725Y007850D01*
X013850Y010600D02*
X013851Y012917D01*
X012351Y012917D02*
X012350Y011975D01*
X010850Y011975D02*
X010851Y012917D01*
X016976Y012917D02*
X016975Y011975D01*
X018475Y011975D02*
X018476Y012917D01*
X019976Y012917D02*
X019975Y011975D01*
X022975Y011975D02*
X022976Y012917D01*
X030350Y007100D02*
X031100Y007100D01*
X023100Y006500D02*
X023100Y005350D01*
X028600Y002100D02*
X028600Y000725D01*
X010100Y000725D01*
X010100Y002100D01*
X009100Y002100D02*
X009100Y003225D01*
X010600Y003225D01*
X009100Y003225D02*
X003725Y003225D01*
X003725Y000725D01*
X004600Y000725D01*
X004600Y001746D01*
X006100Y001746D02*
X006100Y000725D01*
X010100Y000725D01*
X007100Y002725D02*
X006100Y002454D01*
X004600Y002454D01*
X008100Y004600D02*
X008725Y004600D01*
D26*
X011100Y002100D02*
X011100Y000975D01*
X024725Y000975D01*
X024725Y001725D01*
X030600Y002100D02*
X031975Y002100D01*
X031975Y007725D01*
X031100Y007725D01*
X031100Y007700D01*
X029100Y007700D01*
X029100Y007725D02*
X027100Y007700D01*
X025100Y007700D01*
X023100Y007700D01*
X021100Y007700D01*
X020100Y008100D01*
X017725Y008079D01*
X017100Y008100D01*
X016600Y007850D01*
D27*
X005600Y005100D02*
X005600Y004100D01*
M02*
