G75*
G70*
%OFA0B0*%
%FSLAX24Y24*%
%IPPOS*%
%LPD*%
%AMOC8*
5,1,8,0,0,1.08239X$1,22.5*
%
%ADD10R,0.0470X0.0200*%
%ADD11R,0.0552X0.0395*%
%ADD12C,0.0730*%
%ADD13R,0.0730X0.0730*%
%ADD14C,0.1380*%
%ADD15C,0.0820*%
%ADD16R,0.0710X0.0540*%
%ADD17R,0.0474X0.0631*%
%ADD18R,0.0820X0.0820*%
%ADD19C,0.0820*%
%ADD20C,0.0790*%
%ADD21R,0.0552X0.0631*%
%ADD22C,0.0540*%
D10*
X013451Y004437D03*
X013451Y004693D03*
X013451Y004948D03*
X013451Y005204D03*
X013451Y005460D03*
X013451Y005716D03*
X013451Y005972D03*
X013451Y006228D03*
X013451Y006484D03*
X013451Y006740D03*
X013451Y006996D03*
X013451Y007252D03*
X013451Y007507D03*
X013451Y007763D03*
X015749Y007763D03*
X015749Y007507D03*
X015749Y007252D03*
X015749Y006996D03*
X015749Y006740D03*
X015749Y006484D03*
X015749Y006228D03*
X015749Y005972D03*
X015749Y005716D03*
X015749Y005460D03*
X015749Y005204D03*
X015749Y004948D03*
X015749Y004693D03*
X015749Y004437D03*
D11*
X017725Y007371D03*
X017725Y008079D03*
X006100Y002454D03*
X004600Y002454D03*
X004600Y001746D03*
X006100Y001746D03*
X001600Y006996D03*
X001600Y007704D03*
X001600Y008996D03*
X001600Y009704D03*
D12*
X005600Y006100D03*
X035600Y011600D03*
D13*
X034600Y011600D03*
X005600Y005100D03*
D14*
X002100Y002100D03*
X002100Y015600D03*
X035100Y015600D03*
X035100Y002100D03*
D15*
X030600Y002470D02*
X030600Y001730D01*
X029600Y001730D02*
X029600Y002470D01*
X028600Y002470D02*
X028600Y001730D01*
X027600Y001730D02*
X027600Y002470D01*
X026600Y002470D02*
X026600Y001730D01*
X012100Y001730D02*
X012100Y002470D01*
X011100Y002470D02*
X011100Y001730D01*
X010100Y001730D02*
X010100Y002470D01*
X009100Y002470D02*
X009100Y001730D01*
X008100Y001730D02*
X008100Y002470D01*
D16*
X021100Y006500D03*
X021100Y007100D03*
X021100Y007700D03*
X023100Y007700D03*
X023100Y007100D03*
X023100Y006500D03*
X025100Y006500D03*
X025100Y007100D03*
X025100Y007700D03*
X027100Y007700D03*
X027100Y007100D03*
X027100Y006500D03*
X029100Y006500D03*
X029100Y007100D03*
X029100Y007700D03*
X031100Y007700D03*
X031100Y007100D03*
X031100Y006500D03*
D17*
X031224Y012917D03*
X030476Y012917D03*
X029724Y012917D03*
X028976Y012917D03*
X029350Y013783D03*
X030850Y013783D03*
X032350Y013783D03*
X031976Y012917D03*
X032724Y012917D03*
X026724Y012917D03*
X025976Y012917D03*
X025224Y012917D03*
X024476Y012917D03*
X023724Y012917D03*
X022976Y012917D03*
X023350Y013783D03*
X024850Y013783D03*
X026350Y013783D03*
X020724Y012917D03*
X019976Y012917D03*
X019224Y012917D03*
X018476Y012917D03*
X017724Y012917D03*
X016976Y012917D03*
X017350Y013783D03*
X018850Y013783D03*
X020350Y013783D03*
X014599Y012917D03*
X013851Y012917D03*
X013099Y012917D03*
X012351Y012917D03*
X011599Y012917D03*
X010851Y012917D03*
X011225Y013783D03*
X012725Y013783D03*
X014225Y013783D03*
X008599Y012917D03*
X007851Y012917D03*
X007099Y012917D03*
X006351Y012917D03*
X005599Y012917D03*
X004851Y012917D03*
X005225Y013783D03*
X006725Y013783D03*
X008225Y013783D03*
D18*
X010600Y015100D03*
X004600Y015100D03*
X016600Y015100D03*
X022600Y015100D03*
X028600Y015100D03*
D19*
X029600Y015100D03*
X030600Y015100D03*
X031600Y015100D03*
X025600Y015100D03*
X024600Y015100D03*
X023600Y015100D03*
X019600Y015100D03*
X018600Y015100D03*
X017600Y015100D03*
X013600Y015100D03*
X012600Y015100D03*
X011600Y015100D03*
X007600Y015100D03*
X006600Y015100D03*
X005600Y015100D03*
D20*
X034995Y008600D02*
X035705Y008600D01*
X035705Y006600D02*
X034995Y006600D01*
D21*
X004191Y007600D03*
X003009Y007600D03*
X003009Y009100D03*
X004191Y009100D03*
D22*
X007350Y007725D03*
X008350Y008350D03*
X007850Y008975D03*
X009725Y007850D03*
X009850Y007100D03*
X009850Y006475D03*
X010850Y004725D03*
X009600Y004225D03*
X008100Y004600D03*
X005600Y004100D03*
X007100Y002725D03*
X010600Y003225D03*
X012350Y003975D03*
X013975Y003850D03*
X017600Y005475D03*
X018225Y005100D03*
X019225Y004725D03*
X021350Y005350D03*
X020100Y005975D03*
X021975Y006350D03*
X022350Y007100D03*
X024100Y006350D03*
X024350Y007100D03*
X026100Y006350D03*
X026350Y007100D03*
X028350Y007100D03*
X030350Y007100D03*
X030350Y008350D03*
X028350Y008850D03*
X026850Y009725D03*
X026350Y009350D03*
X024350Y009850D03*
X022350Y010350D03*
X021975Y010975D03*
X022975Y011975D03*
X024475Y011975D03*
X025975Y011975D03*
X028975Y011975D03*
X030475Y011975D03*
X031975Y011975D03*
X019975Y011975D03*
X018475Y011975D03*
X016975Y011975D03*
X012350Y011975D03*
X010850Y011975D03*
X006350Y011975D03*
X004850Y011975D03*
X001600Y012600D03*
X014225Y006725D03*
X014600Y007850D03*
X017475Y006725D03*
X020100Y007100D03*
X023100Y005350D03*
X025100Y005350D03*
X026975Y005350D03*
X024725Y001725D03*
M02*
