G75*
%MOIN*%
%OFA0B0*%
%FSLAX24Y24*%
%IPPOS*%
%LPD*%
%AMOC8*
5,1,8,0,0,1.08239X$1,22.5*
%
%ADD10C,0.0120*%
%ADD11C,0.0080*%
%ADD12C,0.0160*%
%ADD13C,0.0100*%
%ADD14C,0.0060*%
%ADD15C,0.0110*%
%ADD16C,0.0050*%
%ADD17C,0.0040*%
%ADD18C,0.0010*%
D10*
X020383Y006300D02*
X020833Y006750D01*
X025333Y006750D01*
X035333Y007900D02*
X035683Y007550D01*
X035333Y007900D02*
X035333Y012500D01*
X035333Y016750D02*
X035333Y022150D01*
X035683Y022500D01*
X037333Y024000D02*
X037333Y024250D01*
X038333Y024250D01*
X038333Y024000D01*
X034333Y020100D02*
X033933Y019700D01*
X033133Y019700D01*
X025433Y019700D02*
X024783Y019700D01*
X024333Y020150D01*
X022933Y021250D02*
X023333Y021650D01*
X022933Y021250D02*
X018583Y021250D01*
X016333Y021250D02*
X012233Y021250D01*
X011833Y021650D01*
X035433Y006750D02*
X035883Y006300D01*
X037333Y005750D02*
X037333Y005550D01*
X038333Y005550D01*
X038333Y005750D01*
D11*
X038083Y006000D02*
X037833Y006250D01*
X037583Y006000D01*
X037083Y006000D01*
X036833Y006250D01*
X036833Y006750D01*
X037083Y007000D01*
X037583Y007000D01*
X037833Y006750D01*
X038083Y007000D01*
X038583Y007000D01*
X038833Y006750D01*
X038833Y006250D01*
X038583Y006000D01*
X038083Y006000D01*
X038873Y005940D02*
X038873Y005620D01*
X038953Y005540D01*
X039114Y005540D01*
X039194Y005620D01*
X039194Y005780D01*
X039033Y005780D01*
X038873Y005940D02*
X038953Y006020D01*
X039114Y006020D01*
X039194Y005940D01*
X039389Y006020D02*
X039389Y005540D01*
X039709Y005540D02*
X039709Y006020D01*
X039905Y006020D02*
X040145Y006020D01*
X040225Y005940D01*
X040225Y005620D01*
X040145Y005540D01*
X039905Y005540D01*
X039905Y006020D01*
X039389Y006020D02*
X039709Y005540D01*
X038583Y007000D02*
X038083Y007000D01*
X037833Y007250D01*
X037583Y007000D01*
X037083Y007000D01*
X036833Y007250D01*
X036833Y007750D01*
X037083Y008000D01*
X036833Y008250D01*
X036833Y008750D01*
X037083Y009000D01*
X036833Y009250D01*
X036833Y009750D01*
X037083Y010000D01*
X036833Y010250D01*
X036833Y010750D01*
X037083Y011000D01*
X036833Y011250D01*
X036833Y011750D01*
X037083Y012000D01*
X036833Y012250D01*
X036833Y012750D01*
X037083Y013000D01*
X036833Y013250D01*
X036833Y013750D01*
X037083Y014000D01*
X036833Y014250D01*
X036833Y014750D01*
X037083Y015000D01*
X036833Y015250D01*
X036833Y015750D01*
X037083Y016000D01*
X036833Y016250D01*
X036833Y016750D01*
X037083Y017000D01*
X036833Y017250D01*
X036833Y017750D01*
X037083Y018000D01*
X036833Y018250D01*
X036833Y018750D01*
X037083Y019000D01*
X036833Y019250D01*
X036833Y019750D01*
X037083Y020000D01*
X036833Y020250D01*
X036833Y020750D01*
X037083Y021000D01*
X036833Y021250D01*
X036833Y021750D01*
X037083Y022000D01*
X036833Y022250D01*
X036833Y022750D01*
X037083Y023000D01*
X037583Y023000D01*
X037833Y023250D01*
X038083Y023000D01*
X038583Y023000D01*
X038833Y023250D01*
X038833Y023750D01*
X038583Y024000D01*
X038083Y024000D01*
X037833Y023750D01*
X037583Y024000D01*
X037083Y024000D01*
X036833Y023750D01*
X036833Y023250D01*
X037083Y023000D01*
X037583Y023000D01*
X037833Y022750D01*
X038083Y023000D01*
X038583Y023000D01*
X038833Y022750D01*
X038833Y022250D01*
X038583Y022000D01*
X038833Y021750D01*
X038833Y021250D01*
X038583Y021000D01*
X038833Y020750D01*
X038833Y020250D01*
X038583Y020000D01*
X038833Y019750D01*
X038833Y019250D01*
X038583Y019000D01*
X038833Y018750D01*
X038833Y018250D01*
X038583Y018000D01*
X038833Y017750D01*
X038833Y017250D01*
X038583Y017000D01*
X038833Y016750D01*
X038833Y016250D01*
X038583Y016000D01*
X038833Y015750D01*
X038833Y015250D01*
X038583Y015000D01*
X038833Y014750D01*
X038833Y014250D01*
X038583Y014000D01*
X038833Y013750D01*
X038833Y013250D01*
X038583Y013000D01*
X038833Y012750D01*
X038833Y012250D01*
X038583Y012000D01*
X038833Y011750D01*
X038833Y011250D01*
X038583Y011000D01*
X038833Y010750D01*
X038833Y010250D01*
X038583Y010000D01*
X038833Y009750D01*
X038833Y009250D01*
X038583Y009000D01*
X038833Y008750D01*
X038833Y008250D01*
X038583Y008000D01*
X038833Y007750D01*
X038833Y007250D01*
X038583Y007000D01*
X037833Y007250D02*
X037833Y007750D01*
X037583Y008000D01*
X037833Y008250D01*
X038083Y008000D01*
X037833Y007750D01*
X037833Y007250D01*
X036709Y007290D02*
X036389Y007290D01*
X036709Y007610D01*
X036709Y007690D01*
X036629Y007770D01*
X036469Y007770D01*
X036389Y007690D01*
X036194Y007770D02*
X035873Y007770D01*
X035873Y007530D01*
X036033Y007610D01*
X036114Y007610D01*
X036194Y007530D01*
X036194Y007370D01*
X036114Y007290D01*
X035953Y007290D01*
X035873Y007370D01*
X035433Y006750D02*
X031083Y006750D01*
X031193Y006176D02*
X031513Y005856D01*
X031593Y005936D01*
X031593Y006096D01*
X031513Y006176D01*
X031193Y006176D01*
X031113Y006096D01*
X031113Y005936D01*
X031193Y005856D01*
X031513Y005856D01*
X031593Y005660D02*
X031593Y005340D01*
X031593Y005500D02*
X031113Y005500D01*
X031273Y005340D01*
X031083Y005000D02*
X031583Y005000D01*
X031833Y004750D01*
X032083Y005000D01*
X032583Y005000D01*
X032833Y004750D01*
X033083Y005000D01*
X033583Y005000D01*
X033833Y004750D01*
X034083Y005000D01*
X034583Y005000D01*
X034833Y004750D01*
X035083Y005000D01*
X035583Y005000D01*
X035833Y004750D01*
X036083Y005000D01*
X036583Y005000D01*
X036833Y004750D01*
X036833Y004250D01*
X036583Y004000D01*
X036083Y004000D01*
X035833Y004250D01*
X035583Y004000D01*
X035083Y004000D01*
X034833Y004250D01*
X034583Y004000D01*
X034083Y004000D01*
X033833Y004250D01*
X033583Y004000D01*
X033083Y004000D01*
X032833Y004250D01*
X032583Y004000D01*
X032083Y004000D01*
X031833Y004250D01*
X031583Y004000D01*
X031083Y004000D01*
X030833Y004250D01*
X030583Y004000D01*
X030083Y004000D01*
X029833Y004250D01*
X029583Y004000D01*
X029083Y004000D01*
X028833Y004250D01*
X028833Y004750D01*
X029083Y005000D01*
X029583Y005000D01*
X029833Y004750D01*
X030083Y005000D01*
X030583Y005000D01*
X030833Y004750D01*
X031083Y005000D01*
X030593Y005420D02*
X030593Y005580D01*
X030513Y005660D01*
X030193Y005660D01*
X030113Y005580D01*
X030113Y005420D01*
X030193Y005340D01*
X030273Y005340D01*
X030353Y005420D01*
X030353Y005660D01*
X030593Y005420D02*
X030513Y005340D01*
X029593Y005420D02*
X029513Y005340D01*
X029433Y005340D01*
X029353Y005420D01*
X029353Y005580D01*
X029433Y005660D01*
X029513Y005660D01*
X029593Y005580D01*
X029593Y005420D01*
X029353Y005420D02*
X029273Y005340D01*
X029193Y005340D01*
X029113Y005420D01*
X029113Y005580D01*
X029193Y005660D01*
X029273Y005660D01*
X029353Y005580D01*
X027833Y004750D02*
X027833Y004250D01*
X027583Y004000D01*
X027083Y004000D01*
X026833Y004250D01*
X026583Y004000D01*
X026083Y004000D01*
X025833Y004250D01*
X025583Y004000D01*
X025083Y004000D01*
X024833Y004250D01*
X024583Y004000D01*
X024083Y004000D01*
X023833Y004250D01*
X023583Y004000D01*
X023083Y004000D01*
X022833Y004250D01*
X022583Y004000D01*
X022083Y004000D01*
X021833Y004250D01*
X021583Y004000D01*
X021083Y004000D01*
X020833Y004250D01*
X020583Y004000D01*
X020083Y004000D01*
X019833Y004250D01*
X019833Y004750D01*
X020083Y005000D01*
X020583Y005000D01*
X020833Y004750D01*
X021083Y005000D01*
X021583Y005000D01*
X021833Y004750D01*
X022083Y005000D01*
X022583Y005000D01*
X022833Y004750D01*
X023083Y005000D01*
X023583Y005000D01*
X023833Y004750D01*
X024083Y005000D01*
X024583Y005000D01*
X024833Y004750D01*
X025083Y005000D01*
X025583Y005000D01*
X025833Y004750D01*
X026083Y005000D01*
X026583Y005000D01*
X026833Y004750D01*
X027083Y005000D01*
X027583Y005000D01*
X027833Y004750D01*
X027593Y005340D02*
X027513Y005340D01*
X027193Y005660D01*
X027113Y005660D01*
X027113Y005340D01*
X026493Y005420D02*
X026493Y005580D01*
X026413Y005660D01*
X026333Y005660D01*
X026253Y005580D01*
X026253Y005340D01*
X026413Y005340D01*
X026493Y005420D01*
X026253Y005340D02*
X026093Y005500D01*
X026013Y005660D01*
X025493Y005580D02*
X025493Y005420D01*
X025413Y005340D01*
X025253Y005340D02*
X025173Y005500D01*
X025173Y005580D01*
X025253Y005660D01*
X025413Y005660D01*
X025493Y005580D01*
X025253Y005340D02*
X025013Y005340D01*
X025013Y005660D01*
X024593Y005580D02*
X024113Y005580D01*
X024353Y005340D01*
X024353Y005660D01*
X023593Y005580D02*
X023593Y005420D01*
X023513Y005340D01*
X023353Y005500D02*
X023353Y005580D01*
X023433Y005660D01*
X023513Y005660D01*
X023593Y005580D01*
X023353Y005580D02*
X023273Y005660D01*
X023193Y005660D01*
X023113Y005580D01*
X023113Y005420D01*
X023193Y005340D01*
X022593Y005340D02*
X022593Y005660D01*
X022593Y005340D02*
X022273Y005660D01*
X022193Y005660D01*
X022113Y005580D01*
X022113Y005420D01*
X022193Y005340D01*
X021493Y005340D02*
X021493Y005660D01*
X021493Y005500D02*
X021013Y005500D01*
X021173Y005340D01*
X020593Y005420D02*
X020513Y005340D01*
X020193Y005660D01*
X020513Y005660D01*
X020593Y005580D01*
X020593Y005420D01*
X020513Y005340D02*
X020193Y005340D01*
X020113Y005420D01*
X020113Y005580D01*
X020193Y005660D01*
X019068Y005702D02*
X019068Y005222D01*
X018748Y005702D01*
X018748Y005222D01*
X018564Y005222D02*
X018404Y005222D01*
X018484Y005222D02*
X018484Y005702D01*
X018404Y005702D02*
X018564Y005702D01*
X018208Y005702D02*
X018208Y005382D01*
X018048Y005222D01*
X017888Y005382D01*
X017888Y005702D01*
X017520Y005622D02*
X017520Y005302D01*
X017440Y005222D01*
X017199Y005222D01*
X017199Y005702D01*
X017440Y005702D01*
X017520Y005622D01*
X017004Y005702D02*
X017004Y005222D01*
X016684Y005702D01*
X016684Y005222D01*
X016488Y005302D02*
X016408Y005222D01*
X016248Y005222D01*
X016168Y005302D01*
X016168Y005622D01*
X016248Y005702D01*
X016408Y005702D01*
X016488Y005622D01*
X016488Y005462D02*
X016328Y005462D01*
X016488Y005462D02*
X016488Y005302D01*
X016583Y004950D02*
X016083Y004950D01*
X015833Y004700D01*
X015833Y004200D01*
X015583Y003950D01*
X015083Y003950D01*
X014833Y004200D01*
X014833Y004700D01*
X015083Y004950D01*
X015583Y004950D01*
X015833Y004700D01*
X015833Y004200D02*
X016083Y003950D01*
X016583Y003950D01*
X016833Y004200D01*
X016833Y004700D01*
X017083Y004950D01*
X017583Y004950D01*
X017833Y004700D01*
X017833Y004200D01*
X017583Y003950D01*
X017083Y003950D01*
X016833Y004200D01*
X016833Y004700D02*
X016583Y004950D01*
X015804Y005382D02*
X015804Y005702D01*
X015804Y005382D02*
X015644Y005222D01*
X015484Y005382D01*
X015484Y005702D01*
X015288Y005702D02*
X014968Y005702D01*
X014968Y005462D01*
X015128Y005542D01*
X015208Y005542D01*
X015288Y005462D01*
X015288Y005302D01*
X015208Y005222D01*
X015048Y005222D01*
X014968Y005302D01*
X014532Y005295D02*
X014452Y005215D01*
X014532Y005295D02*
X014532Y005455D01*
X014452Y005535D01*
X014371Y005535D01*
X014291Y005455D01*
X014291Y005375D01*
X014291Y005455D02*
X014211Y005535D01*
X014131Y005535D01*
X014051Y005455D01*
X014051Y005295D01*
X014131Y005215D01*
X014083Y004950D02*
X014583Y004950D01*
X014833Y004700D01*
X014833Y004200D02*
X014583Y003950D01*
X014083Y003950D01*
X013833Y004200D01*
X013833Y004700D01*
X014083Y004950D01*
X013833Y004700D02*
X013583Y004950D01*
X013083Y004950D01*
X012833Y004700D01*
X012833Y004200D01*
X013083Y003950D01*
X013583Y003950D01*
X013833Y004200D01*
X012533Y004550D02*
X012533Y006250D01*
X013051Y006326D02*
X013131Y006246D01*
X013211Y006246D01*
X013291Y006326D01*
X013291Y006486D01*
X013371Y006566D01*
X013452Y006566D01*
X013532Y006486D01*
X013532Y006326D01*
X013452Y006246D01*
X013532Y006051D02*
X013532Y005730D01*
X013051Y005730D01*
X013051Y006051D01*
X013051Y006326D02*
X013051Y006486D01*
X013131Y006566D01*
X014051Y006486D02*
X014131Y006566D01*
X014211Y006566D01*
X014291Y006486D01*
X014371Y006566D01*
X014452Y006566D01*
X014532Y006486D01*
X014532Y006326D01*
X014452Y006246D01*
X014371Y006051D02*
X014051Y006051D01*
X014131Y006246D02*
X014051Y006326D01*
X014051Y006486D01*
X014291Y006486D02*
X014291Y006406D01*
X014371Y006051D02*
X014532Y005891D01*
X014371Y005730D01*
X014051Y005730D01*
X013532Y005535D02*
X013371Y005375D01*
X013371Y005455D02*
X013371Y005215D01*
X013532Y005215D02*
X013051Y005215D01*
X013051Y005455D01*
X013131Y005535D01*
X013291Y005535D01*
X013371Y005455D01*
X013291Y005730D02*
X013291Y005891D01*
X011738Y006600D02*
X010933Y006600D01*
X010133Y006250D02*
X010133Y004550D01*
X009931Y004832D02*
X009611Y004832D01*
X009771Y004832D02*
X009771Y004352D01*
X009415Y004352D02*
X009095Y004352D01*
X009095Y004832D01*
X009415Y004832D01*
X009255Y004592D02*
X009095Y004592D01*
X008900Y004512D02*
X008900Y004432D01*
X008820Y004352D01*
X008659Y004352D01*
X008579Y004432D01*
X008659Y004592D02*
X008579Y004672D01*
X008579Y004752D01*
X008659Y004832D01*
X008820Y004832D01*
X008900Y004752D01*
X008820Y004592D02*
X008900Y004512D01*
X008820Y004592D02*
X008659Y004592D01*
X008384Y004832D02*
X008064Y004832D01*
X008064Y004352D01*
X008384Y004352D01*
X008224Y004592D02*
X008064Y004592D01*
X007868Y004592D02*
X007788Y004512D01*
X007548Y004512D01*
X007548Y004352D02*
X007548Y004832D01*
X007788Y004832D01*
X007868Y004752D01*
X007868Y004592D01*
X007708Y004512D02*
X007868Y004352D01*
X008833Y005350D02*
X006833Y005350D01*
X006833Y005650D01*
X006733Y005650D01*
X006833Y005650D02*
X006833Y005950D01*
X008833Y005950D01*
X008833Y005650D01*
X008933Y005650D01*
X008833Y005650D02*
X008833Y005350D01*
X008833Y006250D02*
X006833Y006250D01*
X006833Y006550D01*
X006733Y006550D01*
X006833Y006550D02*
X006833Y006850D01*
X008833Y006850D01*
X008833Y006550D01*
X008933Y006550D01*
X008833Y006550D02*
X008833Y006250D01*
X008833Y007200D02*
X006833Y007200D01*
X006833Y007500D01*
X006733Y007500D01*
X006833Y007500D02*
X006833Y007800D01*
X008833Y007800D01*
X008833Y007500D01*
X008933Y007500D01*
X008833Y007500D02*
X008833Y007200D01*
X010633Y005400D02*
X010635Y005452D01*
X010641Y005504D01*
X010651Y005556D01*
X010664Y005606D01*
X010681Y005656D01*
X010702Y005704D01*
X010727Y005750D01*
X010755Y005794D01*
X010786Y005836D01*
X010820Y005876D01*
X010857Y005913D01*
X010897Y005947D01*
X010939Y005978D01*
X010983Y006006D01*
X011029Y006031D01*
X011077Y006052D01*
X011127Y006069D01*
X011177Y006082D01*
X011229Y006092D01*
X011281Y006098D01*
X011333Y006100D01*
X011385Y006098D01*
X011437Y006092D01*
X011489Y006082D01*
X011539Y006069D01*
X011589Y006052D01*
X011637Y006031D01*
X011683Y006006D01*
X011727Y005978D01*
X011769Y005947D01*
X011809Y005913D01*
X011846Y005876D01*
X011880Y005836D01*
X011911Y005794D01*
X011939Y005750D01*
X011964Y005704D01*
X011985Y005656D01*
X012002Y005606D01*
X012015Y005556D01*
X012025Y005504D01*
X012031Y005452D01*
X012033Y005400D01*
X012031Y005348D01*
X012025Y005296D01*
X012015Y005244D01*
X012002Y005194D01*
X011985Y005144D01*
X011964Y005096D01*
X011939Y005050D01*
X011911Y005006D01*
X011880Y004964D01*
X011846Y004924D01*
X011809Y004887D01*
X011769Y004853D01*
X011727Y004822D01*
X011683Y004794D01*
X011637Y004769D01*
X011589Y004748D01*
X011539Y004731D01*
X011489Y004718D01*
X011437Y004708D01*
X011385Y004702D01*
X011333Y004700D01*
X011281Y004702D01*
X011229Y004708D01*
X011177Y004718D01*
X011127Y004731D01*
X011077Y004748D01*
X011029Y004769D01*
X010983Y004794D01*
X010939Y004822D01*
X010897Y004853D01*
X010857Y004887D01*
X010820Y004924D01*
X010786Y004964D01*
X010755Y005006D01*
X010727Y005050D01*
X010702Y005096D01*
X010681Y005144D01*
X010664Y005194D01*
X010651Y005244D01*
X010641Y005296D01*
X010635Y005348D01*
X010633Y005400D01*
X010933Y004200D02*
X011726Y004200D01*
X017833Y004200D02*
X018083Y003950D01*
X018583Y003950D01*
X018833Y004200D01*
X018833Y004700D01*
X018583Y004950D01*
X018083Y004950D01*
X017833Y004700D01*
X032113Y005500D02*
X032593Y005500D01*
X032593Y005340D02*
X032593Y005660D01*
X032593Y005856D02*
X032593Y006176D01*
X032593Y006016D02*
X032113Y006016D01*
X032273Y005856D01*
X032113Y005500D02*
X032273Y005340D01*
X033113Y005500D02*
X033273Y005340D01*
X033113Y005500D02*
X033593Y005500D01*
X033593Y005340D02*
X033593Y005660D01*
X033593Y005856D02*
X033273Y006176D01*
X033193Y006176D01*
X033113Y006096D01*
X033113Y005936D01*
X033193Y005856D01*
X033593Y005856D02*
X033593Y006176D01*
X034113Y006096D02*
X034113Y005936D01*
X034193Y005856D01*
X034353Y006016D02*
X034353Y006096D01*
X034433Y006176D01*
X034513Y006176D01*
X034593Y006096D01*
X034593Y005936D01*
X034513Y005856D01*
X034593Y005660D02*
X034593Y005340D01*
X034593Y005500D02*
X034113Y005500D01*
X034273Y005340D01*
X034813Y005500D02*
X035293Y005500D01*
X035293Y005340D02*
X035293Y005660D01*
X035053Y005856D02*
X035053Y006176D01*
X034813Y006096D02*
X035053Y005856D01*
X035293Y006096D02*
X034813Y006096D01*
X034353Y006096D02*
X034273Y006176D01*
X034193Y006176D01*
X034113Y006096D01*
X034813Y005500D02*
X034973Y005340D01*
X035713Y005500D02*
X035873Y005340D01*
X035713Y005500D02*
X036193Y005500D01*
X036193Y005340D02*
X036193Y005660D01*
X036113Y005856D02*
X036193Y005936D01*
X036193Y006096D01*
X036113Y006176D01*
X035953Y006176D01*
X035873Y006096D01*
X035873Y006016D01*
X035953Y005856D01*
X035713Y005856D01*
X035713Y006176D01*
X039123Y007370D02*
X039203Y007290D01*
X039364Y007290D01*
X039444Y007370D01*
X039444Y007530D01*
X039364Y007610D01*
X039283Y007610D01*
X039123Y007530D01*
X039123Y007770D01*
X039444Y007770D01*
X039639Y007690D02*
X039719Y007770D01*
X039879Y007770D01*
X039959Y007690D01*
X039959Y007610D01*
X039879Y007530D01*
X039959Y007450D01*
X039959Y007370D01*
X039879Y007290D01*
X039719Y007290D01*
X039639Y007370D01*
X039799Y007530D02*
X039879Y007530D01*
X039799Y008290D02*
X039799Y008770D01*
X039639Y008610D01*
X039444Y008530D02*
X039444Y008370D01*
X039364Y008290D01*
X039203Y008290D01*
X039123Y008370D01*
X039123Y008530D02*
X039283Y008610D01*
X039364Y008610D01*
X039444Y008530D01*
X039444Y008770D02*
X039123Y008770D01*
X039123Y008530D01*
X039639Y008290D02*
X039959Y008290D01*
X039879Y009290D02*
X039959Y009370D01*
X039959Y009690D01*
X039879Y009770D01*
X039719Y009770D01*
X039639Y009690D01*
X039639Y009610D01*
X039719Y009530D01*
X039959Y009530D01*
X039879Y009290D02*
X039719Y009290D01*
X039639Y009370D01*
X039444Y009530D02*
X039123Y009530D01*
X039364Y009770D01*
X039364Y009290D01*
X038083Y009000D02*
X037833Y008750D01*
X037583Y009000D01*
X037833Y009250D01*
X038083Y009000D01*
X037833Y008750D02*
X037833Y008250D01*
X037833Y008750D01*
X037833Y009250D02*
X037833Y009750D01*
X037583Y010000D01*
X037833Y010250D01*
X038083Y010000D01*
X037833Y009750D01*
X037833Y009250D01*
X036709Y009370D02*
X036629Y009290D01*
X036469Y009290D01*
X036389Y009370D01*
X036389Y009450D01*
X036469Y009530D01*
X036629Y009530D01*
X036709Y009450D01*
X036709Y009370D01*
X036629Y009530D02*
X036709Y009610D01*
X036709Y009690D01*
X036629Y009770D01*
X036469Y009770D01*
X036389Y009690D01*
X036389Y009610D01*
X036469Y009530D01*
X036194Y009530D02*
X035873Y009530D01*
X036114Y009770D01*
X036114Y009290D01*
X036194Y008770D02*
X035873Y008770D01*
X035873Y008530D01*
X036033Y008610D01*
X036114Y008610D01*
X036194Y008530D01*
X036194Y008370D01*
X036114Y008290D01*
X035953Y008290D01*
X035873Y008370D01*
X036389Y008370D02*
X036389Y008690D01*
X036469Y008770D01*
X036629Y008770D01*
X036709Y008690D01*
X036389Y008370D01*
X036469Y008290D01*
X036629Y008290D01*
X036709Y008370D01*
X036709Y008690D01*
X036629Y010290D02*
X036469Y010290D01*
X036389Y010370D01*
X036389Y010530D01*
X036629Y010530D01*
X036709Y010450D01*
X036709Y010370D01*
X036629Y010290D01*
X036389Y010530D02*
X036549Y010690D01*
X036709Y010770D01*
X036194Y010530D02*
X035873Y010530D01*
X036114Y010770D01*
X036114Y010290D01*
X037583Y011000D02*
X037833Y011250D01*
X038083Y011000D01*
X037833Y010750D01*
X037583Y011000D01*
X037833Y010750D02*
X037833Y010250D01*
X037833Y010750D01*
X037833Y011250D02*
X037833Y011750D01*
X037583Y012000D01*
X037833Y012250D01*
X038083Y012000D01*
X037833Y011750D01*
X037833Y011250D01*
X036709Y011530D02*
X036389Y011530D01*
X036629Y011770D01*
X036629Y011290D01*
X036194Y011530D02*
X035873Y011530D01*
X036114Y011770D01*
X036114Y011290D01*
X036114Y012290D02*
X036114Y012770D01*
X035873Y012530D01*
X036194Y012530D01*
X036389Y012690D02*
X036469Y012770D01*
X036629Y012770D01*
X036709Y012690D01*
X036709Y012610D01*
X036389Y012290D01*
X036709Y012290D01*
X037833Y012250D02*
X037833Y012750D01*
X037583Y013000D01*
X037833Y013250D01*
X038083Y013000D01*
X037833Y012750D01*
X037833Y012250D01*
X037833Y013250D02*
X037833Y013750D01*
X037583Y014000D01*
X037833Y014250D01*
X038083Y014000D01*
X037833Y013750D01*
X037833Y013250D01*
X036709Y013370D02*
X036629Y013290D01*
X036469Y013290D01*
X036389Y013370D01*
X036709Y013690D01*
X036709Y013370D01*
X036389Y013370D02*
X036389Y013690D01*
X036469Y013770D01*
X036629Y013770D01*
X036709Y013690D01*
X036194Y013530D02*
X035873Y013530D01*
X036114Y013770D01*
X036114Y013290D01*
X036114Y014290D02*
X035953Y014290D01*
X035873Y014370D01*
X036033Y014530D02*
X036114Y014530D01*
X036194Y014450D01*
X036194Y014370D01*
X036114Y014290D01*
X036114Y014530D02*
X036194Y014610D01*
X036194Y014690D01*
X036114Y014770D01*
X035953Y014770D01*
X035873Y014690D01*
X036389Y014690D02*
X036469Y014770D01*
X036629Y014770D01*
X036709Y014690D01*
X036709Y014610D01*
X036629Y014530D01*
X036469Y014530D01*
X036389Y014610D01*
X036389Y014690D01*
X036469Y014530D02*
X036389Y014450D01*
X036389Y014370D01*
X036469Y014290D01*
X036629Y014290D01*
X036709Y014370D01*
X036709Y014450D01*
X036629Y014530D01*
X037583Y015000D02*
X037833Y015250D01*
X038083Y015000D01*
X037833Y014750D01*
X037583Y015000D01*
X037833Y014750D02*
X037833Y014250D01*
X037833Y014750D01*
X037833Y015250D02*
X037833Y015750D01*
X037583Y016000D01*
X037833Y016250D01*
X038083Y016000D01*
X037833Y015750D01*
X037833Y015250D01*
X036709Y015370D02*
X036709Y015450D01*
X036629Y015530D01*
X036389Y015530D01*
X036389Y015370D01*
X036469Y015290D01*
X036629Y015290D01*
X036709Y015370D01*
X036549Y015690D02*
X036389Y015530D01*
X036194Y015450D02*
X036114Y015530D01*
X036033Y015530D01*
X036114Y015530D02*
X036194Y015610D01*
X036194Y015690D01*
X036114Y015770D01*
X035953Y015770D01*
X035873Y015690D01*
X035873Y015370D02*
X035953Y015290D01*
X036114Y015290D01*
X036194Y015370D01*
X036194Y015450D01*
X036549Y015690D02*
X036709Y015770D01*
X036629Y016290D02*
X036629Y016770D01*
X036389Y016530D01*
X036709Y016530D01*
X036194Y016450D02*
X036194Y016370D01*
X036114Y016290D01*
X035953Y016290D01*
X035873Y016370D01*
X036033Y016530D02*
X036114Y016530D01*
X036194Y016450D01*
X036114Y016530D02*
X036194Y016610D01*
X036194Y016690D01*
X036114Y016770D01*
X035953Y016770D01*
X035873Y016690D01*
X035953Y017290D02*
X035873Y017370D01*
X035953Y017290D02*
X036114Y017290D01*
X036194Y017370D01*
X036194Y017450D01*
X036114Y017530D01*
X036033Y017530D01*
X036114Y017530D02*
X036194Y017610D01*
X036194Y017690D01*
X036114Y017770D01*
X035953Y017770D01*
X035873Y017690D01*
X036389Y017690D02*
X036469Y017770D01*
X036629Y017770D01*
X036709Y017690D01*
X036709Y017610D01*
X036389Y017290D01*
X036709Y017290D01*
X037583Y017000D02*
X037833Y017250D01*
X038083Y017000D01*
X037833Y016750D01*
X037583Y017000D01*
X037833Y016750D02*
X037833Y016250D01*
X037833Y016750D01*
X037833Y017250D02*
X037833Y017750D01*
X037583Y018000D01*
X037833Y018250D01*
X038083Y018000D01*
X037833Y017750D01*
X037833Y017250D01*
X037833Y018250D02*
X037833Y018750D01*
X037583Y019000D01*
X037833Y019250D01*
X038083Y019000D01*
X037833Y018750D01*
X037833Y018250D01*
X036709Y018370D02*
X036629Y018290D01*
X036469Y018290D01*
X036389Y018370D01*
X036709Y018690D01*
X036709Y018370D01*
X036389Y018370D02*
X036389Y018690D01*
X036469Y018770D01*
X036629Y018770D01*
X036709Y018690D01*
X036194Y018690D02*
X036114Y018770D01*
X035953Y018770D01*
X035873Y018690D01*
X036033Y018530D02*
X036114Y018530D01*
X036194Y018450D01*
X036194Y018370D01*
X036114Y018290D01*
X035953Y018290D01*
X035873Y018370D01*
X036114Y018530D02*
X036194Y018610D01*
X036194Y018690D01*
X036194Y019290D02*
X035873Y019290D01*
X036194Y019610D01*
X036194Y019690D01*
X036114Y019770D01*
X035953Y019770D01*
X035873Y019690D01*
X036389Y019690D02*
X036469Y019770D01*
X036629Y019770D01*
X036709Y019690D01*
X036709Y019610D01*
X036629Y019530D01*
X036469Y019530D01*
X036389Y019610D01*
X036389Y019690D01*
X036469Y019530D02*
X036389Y019450D01*
X036389Y019370D01*
X036469Y019290D01*
X036629Y019290D01*
X036709Y019370D01*
X036709Y019450D01*
X036629Y019530D01*
X037583Y020000D02*
X037833Y020250D01*
X038083Y020000D01*
X037833Y019750D01*
X037583Y020000D01*
X037833Y019750D02*
X037833Y019250D01*
X037833Y019750D01*
X037833Y020250D02*
X037833Y020750D01*
X037583Y021000D01*
X037833Y021250D01*
X038083Y021000D01*
X037833Y020750D01*
X037833Y020250D01*
X036709Y020370D02*
X036709Y020450D01*
X036629Y020530D01*
X036389Y020530D01*
X036389Y020370D01*
X036469Y020290D01*
X036629Y020290D01*
X036709Y020370D01*
X036549Y020690D02*
X036389Y020530D01*
X036194Y020610D02*
X036194Y020690D01*
X036114Y020770D01*
X035953Y020770D01*
X035873Y020690D01*
X036194Y020610D02*
X035873Y020290D01*
X036194Y020290D01*
X036549Y020690D02*
X036709Y020770D01*
X036629Y021290D02*
X036629Y021770D01*
X036389Y021530D01*
X036709Y021530D01*
X036194Y021610D02*
X036194Y021690D01*
X036114Y021770D01*
X035953Y021770D01*
X035873Y021690D01*
X036194Y021610D02*
X035873Y021290D01*
X036194Y021290D01*
X037583Y022000D02*
X037833Y022250D01*
X038083Y022000D01*
X037833Y021750D01*
X037583Y022000D01*
X037833Y021750D02*
X037833Y021250D01*
X037833Y021750D01*
X037833Y022250D02*
X037833Y022750D01*
X037833Y022250D01*
X036709Y022290D02*
X036389Y022290D01*
X036709Y022610D01*
X036709Y022690D01*
X036629Y022770D01*
X036469Y022770D01*
X036389Y022690D01*
X036194Y022690D02*
X036114Y022770D01*
X035953Y022770D01*
X035873Y022690D01*
X036194Y022690D02*
X036194Y022610D01*
X035873Y022290D01*
X036194Y022290D01*
X034543Y022260D02*
X034543Y021940D01*
X034223Y022260D01*
X034143Y022260D01*
X034063Y022180D01*
X034063Y022020D01*
X034143Y021940D01*
X034543Y021592D02*
X034543Y021271D01*
X034063Y021271D01*
X034143Y021076D02*
X034063Y020996D01*
X034063Y020836D01*
X034143Y020756D01*
X034463Y020756D01*
X034543Y020836D01*
X034543Y020996D01*
X034463Y021076D01*
X034463Y020560D02*
X034383Y020560D01*
X034303Y020480D01*
X034303Y020320D01*
X034223Y020240D01*
X034143Y020240D01*
X034063Y020320D01*
X034063Y020480D01*
X034143Y020560D01*
X034463Y020560D02*
X034543Y020480D01*
X034543Y020320D01*
X034463Y020240D01*
X033543Y020320D02*
X033463Y020240D01*
X033543Y020320D02*
X033543Y020480D01*
X033463Y020560D01*
X033383Y020560D01*
X033303Y020480D01*
X033303Y020320D01*
X033223Y020240D01*
X033143Y020240D01*
X033063Y020320D01*
X033063Y020480D01*
X033143Y020560D01*
X033063Y020756D02*
X033063Y020996D01*
X033143Y021076D01*
X033463Y021076D01*
X033543Y020996D01*
X033543Y020756D01*
X033063Y020756D01*
X032543Y020756D02*
X032063Y021076D01*
X032223Y021271D02*
X032063Y021431D01*
X032543Y021431D01*
X032543Y021271D02*
X032543Y021592D01*
X032543Y021940D02*
X032543Y022260D01*
X032543Y022100D02*
X032063Y022100D01*
X032223Y021940D01*
X031543Y021940D02*
X031543Y022260D01*
X031543Y022100D02*
X031063Y022100D01*
X031223Y021940D01*
X031543Y021592D02*
X031543Y021271D01*
X031543Y021431D02*
X031063Y021431D01*
X031223Y021271D01*
X031063Y021076D02*
X031543Y020756D01*
X031543Y021076D02*
X031063Y020756D01*
X031063Y020560D02*
X031063Y020240D01*
X031063Y020400D02*
X031543Y020400D01*
X032063Y020480D02*
X032143Y020560D01*
X032303Y020560D01*
X032383Y020480D01*
X032383Y020240D01*
X032383Y020400D02*
X032543Y020560D01*
X032543Y020240D02*
X032063Y020240D01*
X032063Y020480D01*
X032063Y020756D02*
X032543Y021076D01*
X033063Y021431D02*
X033223Y021592D01*
X033543Y021592D01*
X033303Y021592D02*
X033303Y021271D01*
X033223Y021271D02*
X033063Y021431D01*
X033223Y021271D02*
X033543Y021271D01*
X033543Y021940D02*
X033223Y022260D01*
X033143Y022260D01*
X033063Y022180D01*
X033063Y022020D01*
X033143Y021940D01*
X033543Y021940D02*
X033543Y022260D01*
X033463Y022456D02*
X033543Y022536D01*
X033543Y022696D01*
X033463Y022776D01*
X033143Y022776D01*
X033463Y022456D01*
X033143Y022456D01*
X033063Y022536D01*
X033063Y022696D01*
X033143Y022776D01*
X033083Y023000D02*
X033583Y023000D01*
X033833Y023250D01*
X034083Y023000D01*
X034583Y023000D01*
X034833Y023250D01*
X034833Y023750D01*
X034583Y024000D01*
X034083Y024000D01*
X033833Y023750D01*
X033583Y024000D01*
X033083Y024000D01*
X032833Y023750D01*
X032583Y024000D01*
X032083Y024000D01*
X031833Y023750D01*
X031583Y024000D01*
X031083Y024000D01*
X030833Y023750D01*
X030583Y024000D01*
X030083Y024000D01*
X029833Y023750D01*
X029583Y024000D01*
X029083Y024000D01*
X028833Y023750D01*
X028583Y024000D01*
X028083Y024000D01*
X027833Y023750D01*
X027583Y024000D01*
X027083Y024000D01*
X026833Y023750D01*
X026833Y023250D01*
X027083Y023000D01*
X027583Y023000D01*
X027833Y023250D01*
X028083Y023000D01*
X028583Y023000D01*
X028833Y023250D01*
X029083Y023000D01*
X029583Y023000D01*
X029833Y023250D01*
X030083Y023000D01*
X030583Y023000D01*
X030833Y023250D01*
X031083Y023000D01*
X031583Y023000D01*
X031833Y023250D01*
X032083Y023000D01*
X032583Y023000D01*
X032833Y023250D01*
X033083Y023000D01*
X032543Y022696D02*
X032463Y022776D01*
X032143Y022776D01*
X032063Y022696D01*
X032063Y022536D01*
X032143Y022456D01*
X032223Y022456D01*
X032303Y022536D01*
X032303Y022776D01*
X032543Y022696D02*
X032543Y022536D01*
X032463Y022456D01*
X031543Y022536D02*
X031463Y022456D01*
X031383Y022456D01*
X031303Y022536D01*
X031303Y022696D01*
X031383Y022776D01*
X031463Y022776D01*
X031543Y022696D01*
X031543Y022536D01*
X031303Y022536D02*
X031223Y022456D01*
X031143Y022456D01*
X031063Y022536D01*
X031063Y022696D01*
X031143Y022776D01*
X031223Y022776D01*
X031303Y022696D01*
X030543Y022456D02*
X030463Y022456D01*
X030143Y022776D01*
X030063Y022776D01*
X030063Y022456D01*
X030063Y022100D02*
X030543Y022100D01*
X030543Y021940D02*
X030543Y022260D01*
X030223Y021940D02*
X030063Y022100D01*
X029543Y022100D02*
X029063Y022100D01*
X029223Y021940D01*
X029543Y021940D02*
X029543Y022260D01*
X029463Y022456D02*
X029543Y022536D01*
X029543Y022696D01*
X029463Y022776D01*
X029383Y022776D01*
X029303Y022696D01*
X029303Y022456D01*
X029463Y022456D01*
X029303Y022456D02*
X029143Y022616D01*
X029063Y022776D01*
X028543Y022696D02*
X028543Y022536D01*
X028463Y022456D01*
X028303Y022456D02*
X028223Y022616D01*
X028223Y022696D01*
X028303Y022776D01*
X028463Y022776D01*
X028543Y022696D01*
X028303Y022456D02*
X028063Y022456D01*
X028063Y022776D01*
X027543Y022696D02*
X027063Y022696D01*
X027303Y022456D01*
X027303Y022776D01*
X027543Y022260D02*
X027543Y021940D01*
X027543Y022100D02*
X027063Y022100D01*
X027223Y021940D01*
X027223Y021592D02*
X027303Y021511D01*
X027383Y021592D01*
X027463Y021592D01*
X027543Y021511D01*
X027543Y021351D01*
X027463Y021271D01*
X027543Y021076D02*
X027063Y020756D01*
X027063Y020560D02*
X027063Y020240D01*
X027063Y020400D02*
X027543Y020400D01*
X028063Y020480D02*
X028143Y020560D01*
X028303Y020560D01*
X028383Y020480D01*
X028383Y020240D01*
X028383Y020400D02*
X028543Y020560D01*
X028543Y020756D02*
X028063Y021076D01*
X028143Y021271D02*
X028063Y021351D01*
X028063Y021511D01*
X028143Y021592D01*
X028223Y021592D01*
X028303Y021511D01*
X028383Y021592D01*
X028463Y021592D01*
X028543Y021511D01*
X028543Y021351D01*
X028463Y021271D01*
X028543Y021076D02*
X028063Y020756D01*
X027543Y020756D02*
X027063Y021076D01*
X027143Y021271D02*
X027063Y021351D01*
X027063Y021511D01*
X027143Y021592D01*
X027223Y021592D01*
X027303Y021511D02*
X027303Y021431D01*
X028303Y021431D02*
X028303Y021511D01*
X028223Y021940D02*
X028063Y022100D01*
X028543Y022100D01*
X028543Y021940D02*
X028543Y022260D01*
X029143Y021592D02*
X029063Y021511D01*
X029063Y021351D01*
X029143Y021271D01*
X029063Y021076D02*
X029543Y020756D01*
X029543Y021076D02*
X029063Y020756D01*
X029063Y020560D02*
X029063Y020240D01*
X029063Y020400D02*
X029543Y020400D01*
X030063Y020480D02*
X030143Y020560D01*
X030303Y020560D01*
X030383Y020480D01*
X030383Y020240D01*
X030383Y020400D02*
X030543Y020560D01*
X030543Y020756D02*
X030063Y021076D01*
X030143Y021271D02*
X030063Y021351D01*
X030063Y021511D01*
X030143Y021592D01*
X030223Y021592D01*
X030543Y021271D01*
X030543Y021592D01*
X030543Y021076D02*
X030063Y020756D01*
X030063Y020480D02*
X030063Y020240D01*
X030543Y020240D01*
X029543Y021271D02*
X029223Y021592D01*
X029143Y021592D01*
X029543Y021592D02*
X029543Y021271D01*
X028543Y020240D02*
X028063Y020240D01*
X028063Y020480D01*
X025543Y020610D02*
X025383Y020450D01*
X025383Y020530D02*
X025383Y020290D01*
X025543Y020290D02*
X025063Y020290D01*
X025063Y020530D01*
X025143Y020610D01*
X025303Y020610D01*
X025383Y020530D01*
X025543Y020806D02*
X025063Y021126D01*
X025063Y020806D02*
X025543Y021126D01*
X024543Y021126D02*
X024063Y020806D01*
X024063Y020610D02*
X024063Y020290D01*
X024063Y020450D02*
X024543Y020450D01*
X024543Y020806D02*
X024063Y021126D01*
X024223Y022290D02*
X024063Y022450D01*
X024543Y022450D01*
X024543Y022290D02*
X024543Y022610D01*
X025063Y022530D02*
X025063Y022370D01*
X025143Y022290D01*
X025463Y022290D01*
X025143Y022610D01*
X025463Y022610D01*
X025543Y022530D01*
X025543Y022370D01*
X025463Y022290D01*
X025143Y022610D02*
X025063Y022530D01*
X025083Y023000D02*
X024833Y023250D01*
X024583Y023000D01*
X024083Y023000D01*
X023833Y023250D01*
X023583Y023000D01*
X023083Y023000D01*
X022833Y023250D01*
X022583Y023000D01*
X022083Y023000D01*
X021833Y023250D01*
X021583Y023000D01*
X021083Y023000D01*
X020833Y023250D01*
X020583Y023000D01*
X020083Y023000D01*
X019833Y023250D01*
X019583Y023000D01*
X019083Y023000D01*
X018833Y023250D01*
X018583Y023000D01*
X018083Y023000D01*
X017833Y023250D01*
X017833Y023750D01*
X018083Y024000D01*
X018583Y024000D01*
X018833Y023750D01*
X019083Y024000D01*
X019583Y024000D01*
X019833Y023750D01*
X020083Y024000D01*
X020583Y024000D01*
X020833Y023750D01*
X021083Y024000D01*
X021583Y024000D01*
X021833Y023750D01*
X022083Y024000D01*
X022583Y024000D01*
X022833Y023750D01*
X023083Y024000D01*
X023583Y024000D01*
X023833Y023750D01*
X024083Y024000D01*
X024583Y024000D01*
X024833Y023750D01*
X025083Y024000D01*
X025583Y024000D01*
X025833Y023750D01*
X025833Y023250D01*
X025583Y023000D01*
X025083Y023000D01*
X023543Y022610D02*
X023543Y022290D01*
X023223Y022610D01*
X023143Y022610D01*
X023063Y022530D01*
X023063Y022370D01*
X023143Y022290D01*
X022543Y022370D02*
X022543Y022530D01*
X022463Y022610D01*
X022383Y022610D01*
X022303Y022530D01*
X022303Y022450D01*
X022303Y022530D02*
X022223Y022610D01*
X022143Y022610D01*
X022063Y022530D01*
X022063Y022370D01*
X022143Y022290D01*
X022463Y022290D02*
X022543Y022370D01*
X021543Y022530D02*
X021063Y022530D01*
X021303Y022290D01*
X021303Y022610D01*
X020543Y022530D02*
X020543Y022370D01*
X020463Y022290D01*
X020303Y022290D02*
X020223Y022450D01*
X020223Y022530D01*
X020303Y022610D01*
X020463Y022610D01*
X020543Y022530D01*
X020303Y022290D02*
X020063Y022290D01*
X020063Y022610D01*
X019543Y022530D02*
X019543Y022370D01*
X019463Y022290D01*
X019303Y022290D01*
X019303Y022530D01*
X019383Y022610D01*
X019463Y022610D01*
X019543Y022530D01*
X019303Y022290D02*
X019143Y022450D01*
X019063Y022610D01*
X018543Y022290D02*
X018463Y022290D01*
X018143Y022610D01*
X018063Y022610D01*
X018063Y022290D01*
X017043Y022370D02*
X016963Y022290D01*
X016883Y022290D01*
X016803Y022370D01*
X016803Y022530D01*
X016883Y022610D01*
X016963Y022610D01*
X017043Y022530D01*
X017043Y022370D01*
X016803Y022370D02*
X016723Y022290D01*
X016643Y022290D01*
X016563Y022370D01*
X016563Y022530D01*
X016643Y022610D01*
X016723Y022610D01*
X016803Y022530D01*
X016583Y023000D02*
X016333Y023250D01*
X016083Y023000D01*
X015583Y023000D01*
X015333Y023250D01*
X015083Y023000D01*
X014583Y023000D01*
X014333Y023250D01*
X014083Y023000D01*
X013583Y023000D01*
X013333Y023250D01*
X013083Y023000D01*
X012583Y023000D01*
X012333Y023250D01*
X012083Y023000D01*
X011583Y023000D01*
X011333Y023250D01*
X011083Y023000D01*
X010583Y023000D01*
X010333Y023250D01*
X010083Y023000D01*
X009583Y023000D01*
X009333Y023250D01*
X009333Y023750D01*
X009583Y024000D01*
X010083Y024000D01*
X010333Y023750D01*
X010583Y024000D01*
X011083Y024000D01*
X011333Y023750D01*
X011583Y024000D01*
X012083Y024000D01*
X012333Y023750D01*
X012583Y024000D01*
X013083Y024000D01*
X013333Y023750D01*
X013583Y024000D01*
X014083Y024000D01*
X014333Y023750D01*
X014583Y024000D01*
X015083Y024000D01*
X015333Y023750D01*
X015583Y024000D01*
X016083Y024000D01*
X016333Y023750D01*
X016583Y024000D01*
X017083Y024000D01*
X017333Y023750D01*
X017333Y023250D01*
X017083Y023000D01*
X016583Y023000D01*
X016043Y022530D02*
X015963Y022610D01*
X015643Y022610D01*
X015563Y022530D01*
X015563Y022370D01*
X015643Y022290D01*
X015723Y022290D01*
X015803Y022370D01*
X015803Y022610D01*
X016043Y022530D02*
X016043Y022370D01*
X015963Y022290D01*
X015043Y022386D02*
X014963Y022306D01*
X014643Y022626D01*
X014963Y022626D01*
X015043Y022546D01*
X015043Y022386D01*
X014963Y022306D02*
X014643Y022306D01*
X014563Y022386D01*
X014563Y022546D01*
X014643Y022626D01*
X014043Y022626D02*
X014043Y022306D01*
X014043Y022466D02*
X013563Y022466D01*
X013723Y022306D01*
X014043Y022110D02*
X014043Y021790D01*
X014043Y021950D02*
X013563Y021950D01*
X013723Y021790D01*
X013043Y021790D02*
X013043Y022110D01*
X013043Y021950D02*
X012563Y021950D01*
X012723Y021790D01*
X012043Y021790D02*
X012043Y022110D01*
X012043Y021950D02*
X011563Y021950D01*
X011723Y021790D01*
X011643Y022306D02*
X011563Y022386D01*
X011563Y022546D01*
X011643Y022626D01*
X011723Y022626D01*
X011803Y022546D01*
X011883Y022626D01*
X011963Y022626D01*
X012043Y022546D01*
X012043Y022386D01*
X011963Y022306D01*
X011803Y022466D02*
X011803Y022546D01*
X012563Y022546D02*
X012563Y022386D01*
X012643Y022306D01*
X012563Y022546D02*
X012643Y022626D01*
X012723Y022626D01*
X013043Y022306D01*
X013043Y022626D01*
X014563Y021950D02*
X015043Y021950D01*
X015043Y021790D02*
X015043Y022110D01*
X014723Y021790D02*
X014563Y021950D01*
X010886Y021960D02*
X010405Y021960D01*
X010886Y022281D01*
X010405Y022281D01*
X010405Y022476D02*
X010405Y022716D01*
X010486Y022796D01*
X010806Y022796D01*
X010886Y022716D01*
X010886Y022476D01*
X010405Y022476D01*
X009932Y022482D02*
X009451Y022482D01*
X009451Y022802D01*
X009691Y022642D02*
X009691Y022482D01*
X009451Y022286D02*
X009451Y021966D01*
X009932Y021966D01*
X009932Y022286D01*
X009691Y022126D02*
X009691Y021966D01*
X009691Y021771D02*
X009771Y021691D01*
X009771Y021450D01*
X009771Y021611D02*
X009932Y021771D01*
X009691Y021771D02*
X009531Y021771D01*
X009451Y021691D01*
X009451Y021450D01*
X009932Y021450D01*
X009932Y021255D02*
X009611Y021255D01*
X009451Y021095D01*
X009611Y020935D01*
X009932Y020935D01*
X009691Y020935D02*
X009691Y021255D01*
X010405Y021525D02*
X010486Y021445D01*
X010806Y021445D01*
X010886Y021525D01*
X010886Y021685D01*
X010806Y021765D01*
X010646Y021765D01*
X010646Y021605D01*
X010486Y021765D02*
X010405Y021685D01*
X010405Y021525D01*
X000833Y019000D02*
X000833Y018000D01*
X030833Y018000D01*
X030833Y019000D01*
X000833Y019000D01*
X002833Y006250D02*
X002833Y004750D01*
X003333Y004750D02*
X003333Y006250D01*
X034063Y022616D02*
X034223Y022456D01*
X034063Y022616D02*
X034543Y022616D01*
X034543Y022456D02*
X034543Y022776D01*
X039123Y018690D02*
X039203Y018770D01*
X039364Y018770D01*
X039444Y018690D01*
X039444Y018610D01*
X039364Y018530D01*
X039444Y018450D01*
X039444Y018370D01*
X039364Y018290D01*
X039203Y018290D01*
X039123Y018370D01*
X039283Y018530D02*
X039364Y018530D01*
X039639Y018610D02*
X039799Y018770D01*
X039799Y018290D01*
X039639Y018290D02*
X039959Y018290D01*
X039879Y017770D02*
X039959Y017690D01*
X039959Y017610D01*
X039879Y017530D01*
X039959Y017450D01*
X039959Y017370D01*
X039879Y017290D01*
X039719Y017290D01*
X039639Y017370D01*
X039444Y017370D02*
X039364Y017290D01*
X039203Y017290D01*
X039123Y017370D01*
X039283Y017530D02*
X039364Y017530D01*
X039444Y017450D01*
X039444Y017370D01*
X039364Y017530D02*
X039444Y017610D01*
X039444Y017690D01*
X039364Y017770D01*
X039203Y017770D01*
X039123Y017690D01*
X039639Y017690D02*
X039719Y017770D01*
X039879Y017770D01*
X039879Y017530D02*
X039799Y017530D01*
X039639Y016770D02*
X039639Y016530D01*
X039799Y016610D01*
X039879Y016610D01*
X039959Y016530D01*
X039959Y016370D01*
X039879Y016290D01*
X039719Y016290D01*
X039639Y016370D01*
X039444Y016370D02*
X039364Y016290D01*
X039203Y016290D01*
X039123Y016370D01*
X039283Y016530D02*
X039364Y016530D01*
X039444Y016450D01*
X039444Y016370D01*
X039364Y016530D02*
X039444Y016610D01*
X039444Y016690D01*
X039364Y016770D01*
X039203Y016770D01*
X039123Y016690D01*
X039639Y016770D02*
X039959Y016770D01*
X039959Y015770D02*
X039959Y015690D01*
X039639Y015370D01*
X039639Y015290D01*
X039444Y015370D02*
X039364Y015290D01*
X039203Y015290D01*
X039123Y015370D01*
X039283Y015530D02*
X039364Y015530D01*
X039444Y015450D01*
X039444Y015370D01*
X039364Y015530D02*
X039444Y015610D01*
X039444Y015690D01*
X039364Y015770D01*
X039203Y015770D01*
X039123Y015690D01*
X039639Y015770D02*
X039959Y015770D01*
X039879Y014770D02*
X039719Y014770D01*
X039639Y014690D01*
X039639Y014610D01*
X039719Y014530D01*
X039959Y014530D01*
X039959Y014370D02*
X039959Y014690D01*
X039879Y014770D01*
X039444Y014690D02*
X039444Y014610D01*
X039364Y014530D01*
X039444Y014450D01*
X039444Y014370D01*
X039364Y014290D01*
X039203Y014290D01*
X039123Y014370D01*
X039283Y014530D02*
X039364Y014530D01*
X039444Y014690D02*
X039364Y014770D01*
X039203Y014770D01*
X039123Y014690D01*
X039639Y014370D02*
X039719Y014290D01*
X039879Y014290D01*
X039959Y014370D01*
X039799Y013770D02*
X039799Y013290D01*
X039639Y013290D02*
X039959Y013290D01*
X039639Y013610D02*
X039799Y013770D01*
X039444Y013530D02*
X039123Y013530D01*
X039364Y013770D01*
X039364Y013290D01*
X039364Y012770D02*
X039123Y012530D01*
X039444Y012530D01*
X039639Y012370D02*
X039719Y012290D01*
X039879Y012290D01*
X039959Y012370D01*
X039959Y012450D01*
X039879Y012530D01*
X039799Y012530D01*
X039879Y012530D02*
X039959Y012610D01*
X039959Y012690D01*
X039879Y012770D01*
X039719Y012770D01*
X039639Y012690D01*
X039364Y012770D02*
X039364Y012290D01*
X039364Y011770D02*
X039123Y011530D01*
X039444Y011530D01*
X039639Y011530D02*
X039639Y011770D01*
X039959Y011770D01*
X039879Y011610D02*
X039959Y011530D01*
X039959Y011370D01*
X039879Y011290D01*
X039719Y011290D01*
X039639Y011370D01*
X039639Y011530D02*
X039799Y011610D01*
X039879Y011610D01*
X039364Y011770D02*
X039364Y011290D01*
X039364Y010770D02*
X039123Y010530D01*
X039444Y010530D01*
X039639Y010370D02*
X039639Y010290D01*
X039639Y010370D02*
X039959Y010690D01*
X039959Y010770D01*
X039639Y010770D01*
X039364Y010770D02*
X039364Y010290D01*
D12*
X025333Y021500D02*
X025083Y022000D01*
X025333Y021750D01*
X025333Y022000D01*
X025583Y022000D01*
X025333Y021750D01*
X025333Y021500D02*
X025583Y022000D01*
X025333Y022000D02*
X025083Y022000D01*
X024583Y021500D02*
X024333Y021500D01*
X024333Y021750D01*
X024583Y021500D01*
X024333Y022000D01*
X024083Y021500D01*
X024333Y021750D01*
X024333Y021500D02*
X024083Y021500D01*
D13*
X025733Y019767D02*
X025733Y019393D01*
X025827Y019300D01*
X026014Y019300D01*
X026107Y019393D01*
X026341Y019393D02*
X026434Y019300D01*
X026621Y019300D01*
X026715Y019393D01*
X026715Y019767D01*
X026621Y019860D01*
X026434Y019860D01*
X026341Y019767D01*
X026341Y019393D01*
X026949Y019300D02*
X026949Y019860D01*
X027136Y019674D01*
X027322Y019860D01*
X027322Y019300D01*
X027556Y019300D02*
X027556Y019860D01*
X027743Y019674D01*
X027930Y019860D01*
X027930Y019300D01*
X028164Y019393D02*
X028258Y019300D01*
X028444Y019300D01*
X028538Y019393D01*
X028538Y019860D01*
X028772Y019860D02*
X029146Y019300D01*
X029146Y019860D01*
X029380Y019860D02*
X029566Y019860D01*
X029473Y019860D02*
X029473Y019300D01*
X029380Y019300D02*
X029566Y019300D01*
X029785Y019393D02*
X029878Y019300D01*
X030065Y019300D01*
X030158Y019393D01*
X030393Y019300D02*
X030393Y019674D01*
X030579Y019860D01*
X030766Y019674D01*
X030766Y019300D01*
X030766Y019580D02*
X030393Y019580D01*
X030158Y019767D02*
X030065Y019860D01*
X029878Y019860D01*
X029785Y019767D01*
X029785Y019393D01*
X030833Y019000D02*
X030833Y018000D01*
X000833Y018000D01*
X000833Y019000D01*
X030833Y019000D01*
X030833Y018965D02*
X000833Y018965D01*
X000833Y018866D02*
X030833Y018866D01*
X030833Y018768D02*
X000833Y018768D01*
X000833Y018669D02*
X030833Y018669D01*
X030833Y018571D02*
X000833Y018571D01*
X000833Y018472D02*
X030833Y018472D01*
X030833Y018374D02*
X000833Y018374D01*
X000833Y018275D02*
X030833Y018275D01*
X030833Y018177D02*
X000833Y018177D01*
X000833Y018078D02*
X030833Y018078D01*
X031187Y019300D02*
X031187Y019860D01*
X031000Y019860D02*
X031374Y019860D01*
X031608Y019860D02*
X031795Y019860D01*
X031701Y019860D02*
X031701Y019300D01*
X031608Y019300D02*
X031795Y019300D01*
X032013Y019393D02*
X032107Y019300D01*
X032293Y019300D01*
X032387Y019393D01*
X032387Y019767D01*
X032293Y019860D01*
X032107Y019860D01*
X032013Y019767D01*
X032013Y019393D01*
X032621Y019300D02*
X032621Y019860D01*
X032994Y019300D01*
X032994Y019860D01*
X028772Y019860D02*
X028772Y019300D01*
X028164Y019393D02*
X028164Y019860D01*
X026107Y019767D02*
X026014Y019860D01*
X025827Y019860D01*
X025733Y019767D01*
X018222Y021050D02*
X018222Y021610D01*
X018036Y021424D01*
X017849Y021610D01*
X017849Y021050D01*
X017615Y021050D02*
X017615Y021610D01*
X017241Y021610D02*
X017241Y021050D01*
X017428Y021237D01*
X017615Y021050D01*
X017007Y021330D02*
X016914Y021237D01*
X016633Y021237D01*
X016633Y021050D02*
X016633Y021610D01*
X016914Y021610D01*
X017007Y021517D01*
X017007Y021330D01*
X034973Y016041D02*
X035533Y016041D01*
X035533Y016415D01*
X035533Y015807D02*
X035160Y015807D01*
X034973Y015620D01*
X035160Y015433D01*
X035533Y015433D01*
X035253Y015433D02*
X035253Y015807D01*
X034973Y015199D02*
X034973Y014826D01*
X034973Y015013D02*
X035533Y015013D01*
X035533Y014607D02*
X035533Y014421D01*
X035533Y014514D02*
X034973Y014514D01*
X034973Y014421D02*
X034973Y014607D01*
X035066Y014187D02*
X034973Y014093D01*
X034973Y013906D01*
X035066Y013813D01*
X035440Y013813D01*
X035533Y013906D01*
X035533Y014093D01*
X035440Y014187D01*
X035253Y014187D01*
X035253Y014000D01*
X034973Y013595D02*
X034973Y013408D01*
X034973Y013501D02*
X035533Y013501D01*
X035533Y013408D02*
X035533Y013595D01*
X035440Y013174D02*
X035066Y013174D01*
X034973Y013080D01*
X034973Y012800D01*
X035533Y012800D01*
X035533Y013080D01*
X035440Y013174D01*
X030833Y008000D02*
X030833Y007000D01*
X009833Y007000D01*
X009833Y008000D01*
X030833Y008000D01*
X030833Y007933D02*
X009833Y007933D01*
X009833Y007834D02*
X030833Y007834D01*
X030833Y007736D02*
X009833Y007736D01*
X009833Y007637D02*
X030833Y007637D01*
X030833Y007539D02*
X009833Y007539D01*
X009833Y007440D02*
X030833Y007440D01*
X030833Y007342D02*
X009833Y007342D01*
X009833Y007243D02*
X030833Y007243D01*
X030833Y007145D02*
X009833Y007145D01*
X009833Y007046D02*
X030833Y007046D01*
X030666Y006860D02*
X030666Y006300D01*
X030293Y006860D01*
X030293Y006300D01*
X030074Y006300D02*
X029887Y006300D01*
X029981Y006300D02*
X029981Y006860D01*
X030074Y006860D02*
X029887Y006860D01*
X029046Y006767D02*
X028952Y006860D01*
X028765Y006860D01*
X028672Y006767D01*
X028672Y006393D01*
X028765Y006300D01*
X028952Y006300D01*
X029046Y006393D01*
X029046Y006580D01*
X028859Y006580D01*
X028438Y006393D02*
X028438Y006767D01*
X028344Y006860D01*
X028158Y006860D01*
X028064Y006767D01*
X028064Y006393D01*
X028158Y006300D01*
X028344Y006300D01*
X028438Y006393D01*
X027830Y006300D02*
X027456Y006300D01*
X027456Y006860D01*
X027222Y006674D02*
X027222Y006300D01*
X027222Y006580D02*
X026849Y006580D01*
X026849Y006674D02*
X027036Y006860D01*
X027222Y006674D01*
X026849Y006674D02*
X026849Y006300D01*
X026615Y006300D02*
X026615Y006860D01*
X026241Y006860D02*
X026615Y006300D01*
X026241Y006300D02*
X026241Y006860D01*
X026007Y006674D02*
X026007Y006300D01*
X026007Y006580D02*
X025633Y006580D01*
X025633Y006674D02*
X025820Y006860D01*
X026007Y006674D01*
X025633Y006674D02*
X025633Y006300D01*
D14*
X001195Y003692D02*
X001138Y003748D01*
X001195Y003692D02*
X001308Y003692D01*
X001365Y003748D01*
X001365Y003805D01*
X001308Y003862D01*
X001195Y003862D01*
X001138Y003919D01*
X001138Y003975D01*
X001195Y004032D01*
X001308Y004032D01*
X001365Y003975D01*
X001506Y004032D02*
X001733Y004032D01*
X001620Y004032D02*
X001620Y003692D01*
X001875Y003692D02*
X001875Y003919D01*
X001988Y004032D01*
X002102Y003919D01*
X002102Y003692D01*
X002102Y003862D02*
X001875Y003862D01*
X002243Y004032D02*
X002470Y004032D01*
X002357Y004032D02*
X002357Y003692D01*
X003488Y003692D02*
X003488Y004032D01*
X003658Y004032D01*
X003715Y003975D01*
X003715Y003862D01*
X003658Y003805D01*
X003488Y003805D01*
X003856Y003748D02*
X003913Y003692D01*
X004027Y003692D01*
X004083Y003748D01*
X004083Y003975D01*
X004027Y004032D01*
X003913Y004032D01*
X003856Y003975D01*
X003856Y003748D01*
X004225Y003692D02*
X004338Y003805D01*
X004452Y003692D01*
X004452Y004032D01*
X004593Y004032D02*
X004593Y003692D01*
X004820Y003692D01*
X004961Y003692D02*
X004961Y004032D01*
X005132Y004032D01*
X005188Y003975D01*
X005188Y003862D01*
X005132Y003805D01*
X004961Y003805D01*
X005075Y003805D02*
X005188Y003692D01*
X004820Y004032D02*
X004593Y004032D01*
X004593Y003862D02*
X004707Y003862D01*
X004225Y004032D02*
X004225Y003692D01*
X003333Y005500D02*
X003335Y005563D01*
X003341Y005625D01*
X003351Y005687D01*
X003364Y005749D01*
X003382Y005809D01*
X003403Y005868D01*
X003428Y005926D01*
X003457Y005982D01*
X003489Y006036D01*
X003524Y006088D01*
X003562Y006137D01*
X003604Y006185D01*
X003648Y006229D01*
X003696Y006271D01*
X003745Y006309D01*
X003797Y006344D01*
X003851Y006376D01*
X003907Y006405D01*
X003965Y006430D01*
X004024Y006451D01*
X004084Y006469D01*
X004146Y006482D01*
X004208Y006492D01*
X004270Y006498D01*
X004333Y006500D01*
X004396Y006498D01*
X004458Y006492D01*
X004520Y006482D01*
X004582Y006469D01*
X004642Y006451D01*
X004701Y006430D01*
X004759Y006405D01*
X004815Y006376D01*
X004869Y006344D01*
X004921Y006309D01*
X004970Y006271D01*
X005018Y006229D01*
X005062Y006185D01*
X005104Y006137D01*
X005142Y006088D01*
X005177Y006036D01*
X005209Y005982D01*
X005238Y005926D01*
X005263Y005868D01*
X005284Y005809D01*
X005302Y005749D01*
X005315Y005687D01*
X005325Y005625D01*
X005331Y005563D01*
X005333Y005500D01*
X005331Y005437D01*
X005325Y005375D01*
X005315Y005313D01*
X005302Y005251D01*
X005284Y005191D01*
X005263Y005132D01*
X005238Y005074D01*
X005209Y005018D01*
X005177Y004964D01*
X005142Y004912D01*
X005104Y004863D01*
X005062Y004815D01*
X005018Y004771D01*
X004970Y004729D01*
X004921Y004691D01*
X004869Y004656D01*
X004815Y004624D01*
X004759Y004595D01*
X004701Y004570D01*
X004642Y004549D01*
X004582Y004531D01*
X004520Y004518D01*
X004458Y004508D01*
X004396Y004502D01*
X004333Y004500D01*
X004270Y004502D01*
X004208Y004508D01*
X004146Y004518D01*
X004084Y004531D01*
X004024Y004549D01*
X003965Y004570D01*
X003907Y004595D01*
X003851Y004624D01*
X003797Y004656D01*
X003745Y004691D01*
X003696Y004729D01*
X003648Y004771D01*
X003604Y004815D01*
X003562Y004863D01*
X003524Y004912D01*
X003489Y004964D01*
X003457Y005018D01*
X003428Y005074D01*
X003403Y005132D01*
X003382Y005191D01*
X003364Y005251D01*
X003351Y005313D01*
X003341Y005375D01*
X003335Y005437D01*
X003333Y005500D01*
X000833Y005500D02*
X000835Y005563D01*
X000841Y005625D01*
X000851Y005687D01*
X000864Y005749D01*
X000882Y005809D01*
X000903Y005868D01*
X000928Y005926D01*
X000957Y005982D01*
X000989Y006036D01*
X001024Y006088D01*
X001062Y006137D01*
X001104Y006185D01*
X001148Y006229D01*
X001196Y006271D01*
X001245Y006309D01*
X001297Y006344D01*
X001351Y006376D01*
X001407Y006405D01*
X001465Y006430D01*
X001524Y006451D01*
X001584Y006469D01*
X001646Y006482D01*
X001708Y006492D01*
X001770Y006498D01*
X001833Y006500D01*
X001896Y006498D01*
X001958Y006492D01*
X002020Y006482D01*
X002082Y006469D01*
X002142Y006451D01*
X002201Y006430D01*
X002259Y006405D01*
X002315Y006376D01*
X002369Y006344D01*
X002421Y006309D01*
X002470Y006271D01*
X002518Y006229D01*
X002562Y006185D01*
X002604Y006137D01*
X002642Y006088D01*
X002677Y006036D01*
X002709Y005982D01*
X002738Y005926D01*
X002763Y005868D01*
X002784Y005809D01*
X002802Y005749D01*
X002815Y005687D01*
X002825Y005625D01*
X002831Y005563D01*
X002833Y005500D01*
X002831Y005437D01*
X002825Y005375D01*
X002815Y005313D01*
X002802Y005251D01*
X002784Y005191D01*
X002763Y005132D01*
X002738Y005074D01*
X002709Y005018D01*
X002677Y004964D01*
X002642Y004912D01*
X002604Y004863D01*
X002562Y004815D01*
X002518Y004771D01*
X002470Y004729D01*
X002421Y004691D01*
X002369Y004656D01*
X002315Y004624D01*
X002259Y004595D01*
X002201Y004570D01*
X002142Y004549D01*
X002082Y004531D01*
X002020Y004518D01*
X001958Y004508D01*
X001896Y004502D01*
X001833Y004500D01*
X001770Y004502D01*
X001708Y004508D01*
X001646Y004518D01*
X001584Y004531D01*
X001524Y004549D01*
X001465Y004570D01*
X001407Y004595D01*
X001351Y004624D01*
X001297Y004656D01*
X001245Y004691D01*
X001196Y004729D01*
X001148Y004771D01*
X001104Y004815D01*
X001062Y004863D01*
X001024Y004912D01*
X000989Y004964D01*
X000957Y005018D01*
X000928Y005074D01*
X000903Y005132D01*
X000882Y005191D01*
X000864Y005251D01*
X000851Y005313D01*
X000841Y005375D01*
X000835Y005437D01*
X000833Y005500D01*
X036377Y024037D02*
X036433Y023980D01*
X036547Y023980D01*
X036604Y024037D01*
X036604Y024150D01*
X036547Y024207D01*
X036490Y024207D01*
X036377Y024150D01*
X036377Y024320D01*
X036604Y024320D01*
X036745Y024320D02*
X036745Y024093D01*
X036858Y023980D01*
X036972Y024093D01*
X036972Y024320D01*
D15*
X033567Y018846D02*
X033272Y018846D01*
X033272Y018255D01*
X033567Y018255D01*
X033666Y018353D01*
X033666Y018452D01*
X033567Y018550D01*
X033272Y018550D01*
X033567Y018550D02*
X033666Y018649D01*
X033666Y018747D01*
X033567Y018846D01*
X033917Y018649D02*
X033917Y018353D01*
X034015Y018255D01*
X034310Y018255D01*
X034310Y018649D01*
X034561Y018550D02*
X034659Y018452D01*
X034856Y018452D01*
X034955Y018353D01*
X034856Y018255D01*
X034561Y018255D01*
X034561Y018550D02*
X034659Y018649D01*
X034955Y018649D01*
X032377Y018452D02*
X032377Y018846D01*
X031983Y018846D02*
X031983Y018452D01*
X032180Y018255D01*
X032377Y018452D01*
X031732Y018550D02*
X031732Y018353D01*
X031634Y018255D01*
X031437Y018255D01*
X031338Y018353D01*
X031338Y018550D02*
X031535Y018649D01*
X031634Y018649D01*
X031732Y018550D01*
X031732Y018846D02*
X031338Y018846D01*
X031338Y018550D01*
X031334Y007796D02*
X031137Y007796D01*
X031038Y007697D01*
X031038Y007303D01*
X031137Y007205D01*
X031334Y007205D01*
X031432Y007303D01*
X031432Y007500D01*
X031235Y007500D01*
X031432Y007697D02*
X031334Y007796D01*
X031683Y007796D02*
X032077Y007205D01*
X032077Y007796D01*
X032327Y007796D02*
X032623Y007796D01*
X032721Y007697D01*
X032721Y007303D01*
X032623Y007205D01*
X032327Y007205D01*
X032327Y007796D01*
X031683Y007796D02*
X031683Y007205D01*
X033617Y007205D02*
X033912Y007205D01*
X034010Y007303D01*
X034010Y007402D01*
X033912Y007500D01*
X033617Y007500D01*
X033912Y007500D02*
X034010Y007599D01*
X034010Y007697D01*
X033912Y007796D01*
X033617Y007796D01*
X033617Y007205D01*
X034261Y007303D02*
X034359Y007205D01*
X034655Y007205D01*
X034655Y007599D01*
X034906Y007500D02*
X035004Y007402D01*
X035201Y007402D01*
X035299Y007303D01*
X035201Y007205D01*
X034906Y007205D01*
X034906Y007500D02*
X035004Y007599D01*
X035299Y007599D01*
X034261Y007599D02*
X034261Y007303D01*
D16*
X036138Y007295D02*
X036138Y007145D01*
X036138Y007220D02*
X036513Y007220D01*
X036588Y007145D01*
X036588Y007070D01*
X036513Y006995D01*
X036828Y007320D02*
X036903Y007245D01*
X036978Y007245D01*
X037054Y007320D01*
X037054Y007695D01*
X037129Y007695D02*
X036978Y007695D01*
X037138Y007681D02*
X037213Y007756D01*
X037363Y007756D01*
X037438Y007681D01*
X037438Y007455D01*
X037514Y007395D02*
X037289Y007395D01*
X037289Y007245D02*
X037289Y007695D01*
X037514Y007695D01*
X037589Y007620D01*
X037589Y007470D01*
X037514Y007395D01*
X037588Y007455D02*
X037138Y007455D01*
X037138Y007681D01*
X037213Y007916D02*
X037288Y007916D01*
X037363Y007991D01*
X037363Y008141D01*
X037438Y008216D01*
X037513Y008216D01*
X037588Y008141D01*
X037588Y007991D01*
X037513Y007916D01*
X037438Y007916D01*
X037363Y007991D01*
X037363Y008141D02*
X037288Y008216D01*
X037213Y008216D01*
X037138Y008141D01*
X037138Y007991D01*
X037213Y007916D01*
X036588Y007991D02*
X036588Y008141D01*
X036513Y008216D01*
X036213Y008216D01*
X036138Y008141D01*
X036138Y007991D01*
X036213Y007916D01*
X036288Y007916D01*
X036363Y007991D01*
X036363Y008216D01*
X036588Y007991D02*
X036513Y007916D01*
X036363Y007756D02*
X036438Y007681D01*
X036438Y007455D01*
X036588Y007455D02*
X036138Y007455D01*
X036138Y007681D01*
X036213Y007756D01*
X036363Y007756D01*
X037138Y007295D02*
X037138Y007145D01*
X037138Y007220D02*
X037513Y007220D01*
X037588Y007145D01*
X037588Y007070D01*
X037513Y006995D01*
X037749Y007245D02*
X038049Y007245D01*
X037899Y007245D02*
X037899Y007695D01*
X037749Y007545D01*
X038210Y007545D02*
X038360Y007695D01*
X038360Y007245D01*
X038210Y007245D02*
X038510Y007245D01*
X030049Y005695D02*
X029899Y005620D01*
X029749Y005470D01*
X029974Y005470D01*
X030049Y005395D01*
X030049Y005320D01*
X029974Y005245D01*
X029824Y005245D01*
X029749Y005320D01*
X029749Y005470D01*
X029589Y005470D02*
X029589Y005620D01*
X029514Y005695D01*
X029289Y005695D01*
X029289Y005245D01*
X029289Y005395D02*
X029514Y005395D01*
X029589Y005470D01*
X029129Y005695D02*
X028978Y005695D01*
X029054Y005695D02*
X029054Y005320D01*
X028978Y005245D01*
X028903Y005245D01*
X028828Y005320D01*
X021049Y005620D02*
X020749Y005320D01*
X020749Y005245D01*
X020589Y005470D02*
X020514Y005395D01*
X020289Y005395D01*
X020289Y005245D02*
X020289Y005695D01*
X020514Y005695D01*
X020589Y005620D01*
X020589Y005470D01*
X020749Y005695D02*
X021049Y005695D01*
X021049Y005620D01*
X020129Y005695D02*
X019978Y005695D01*
X020054Y005695D02*
X020054Y005320D01*
X019978Y005245D01*
X019903Y005245D01*
X019828Y005320D01*
X018833Y005800D02*
X016833Y005800D01*
X016833Y008000D01*
X017333Y008000D01*
X017333Y007500D01*
X018333Y007500D01*
X018333Y008000D01*
X018833Y008000D01*
X018833Y005800D01*
X018333Y008000D02*
X017333Y008000D01*
X013308Y006265D02*
X013308Y005965D01*
X013308Y006115D02*
X012858Y006115D01*
X013008Y005965D01*
X012933Y005804D02*
X012858Y005729D01*
X012858Y005579D01*
X012933Y005504D01*
X013008Y005504D01*
X013083Y005579D01*
X013083Y005729D01*
X013158Y005804D01*
X013233Y005804D01*
X013308Y005729D01*
X013308Y005579D01*
X013233Y005504D01*
X007798Y005555D02*
X007663Y005645D01*
X007798Y005735D01*
X007663Y005825D02*
X007663Y005555D01*
X007548Y005600D02*
X007503Y005555D01*
X007413Y005555D01*
X007368Y005600D01*
X007548Y005780D01*
X007548Y005600D01*
X007368Y005600D02*
X007368Y005780D01*
X007413Y005825D01*
X007503Y005825D01*
X007548Y005780D01*
X007254Y005555D02*
X007073Y005555D01*
X007164Y005555D02*
X007164Y005825D01*
X007073Y005735D01*
X007103Y006375D02*
X007058Y006420D01*
X007103Y006375D02*
X007193Y006375D01*
X007238Y006420D01*
X007238Y006465D01*
X007193Y006510D01*
X007148Y006510D01*
X007193Y006510D02*
X007238Y006555D01*
X007238Y006600D01*
X007193Y006645D01*
X007103Y006645D01*
X007058Y006600D01*
X007353Y006600D02*
X007398Y006645D01*
X007488Y006645D01*
X007533Y006600D01*
X007533Y006555D01*
X007488Y006510D01*
X007533Y006465D01*
X007533Y006420D01*
X007488Y006375D01*
X007398Y006375D01*
X007353Y006420D01*
X007443Y006510D02*
X007488Y006510D01*
X007648Y006420D02*
X007648Y006600D01*
X007693Y006645D01*
X007783Y006645D01*
X007828Y006600D01*
X007648Y006420D01*
X007693Y006375D01*
X007783Y006375D01*
X007828Y006420D01*
X007828Y006600D01*
X007783Y007325D02*
X007693Y007325D01*
X007648Y007370D01*
X007828Y007550D01*
X007828Y007370D01*
X007783Y007325D01*
X007648Y007370D02*
X007648Y007550D01*
X007693Y007595D01*
X007783Y007595D01*
X007828Y007550D01*
X007533Y007550D02*
X007533Y007505D01*
X007488Y007460D01*
X007533Y007415D01*
X007533Y007370D01*
X007488Y007325D01*
X007398Y007325D01*
X007353Y007370D01*
X007238Y007370D02*
X007193Y007325D01*
X007103Y007325D01*
X007058Y007370D01*
X007148Y007460D02*
X007193Y007460D01*
X007238Y007415D01*
X007238Y007370D01*
X007193Y007460D02*
X007238Y007505D01*
X007238Y007550D01*
X007193Y007595D01*
X007103Y007595D01*
X007058Y007550D01*
X007353Y007550D02*
X007398Y007595D01*
X007488Y007595D01*
X007533Y007550D01*
X007488Y007460D02*
X007443Y007460D01*
X004790Y006110D02*
X004715Y006185D01*
X004565Y006185D01*
X004490Y006110D01*
X004329Y006110D02*
X004254Y006185D01*
X004029Y006185D01*
X004029Y005735D01*
X004254Y005735D01*
X004329Y005810D01*
X004329Y006110D01*
X004490Y005735D02*
X004790Y006035D01*
X004790Y006110D01*
X004790Y005735D02*
X004490Y005735D01*
X003869Y005735D02*
X003569Y005735D01*
X003569Y006185D01*
X003869Y006185D01*
X003719Y005960D02*
X003569Y005960D01*
X003409Y005735D02*
X003108Y005735D01*
X003108Y006185D01*
X002798Y005265D02*
X002798Y004815D01*
X002648Y004815D02*
X002948Y004815D01*
X002648Y005115D02*
X002798Y005265D01*
X002488Y005190D02*
X002413Y005265D01*
X002188Y005265D01*
X002188Y004815D01*
X002413Y004815D01*
X002488Y004890D01*
X002488Y005190D01*
X002027Y005265D02*
X001727Y005265D01*
X001727Y004815D01*
X002027Y004815D01*
X001877Y005040D02*
X001727Y005040D01*
X001567Y004815D02*
X001267Y004815D01*
X001267Y005265D01*
X000809Y010972D02*
X000558Y010972D01*
X000558Y011097D01*
X000600Y011138D01*
X000683Y011138D01*
X000725Y011097D01*
X000725Y010972D01*
X000558Y011239D02*
X000558Y011323D01*
X000558Y011281D02*
X000809Y011281D01*
X000809Y011323D01*
X000683Y011432D02*
X000642Y011432D01*
X000642Y011599D01*
X000683Y011599D02*
X000725Y011557D01*
X000725Y011474D01*
X000683Y011432D01*
X000558Y011474D02*
X000558Y011557D01*
X000600Y011599D01*
X000683Y011599D01*
X000725Y011741D02*
X000558Y011741D01*
X000558Y011700D02*
X000558Y011783D01*
X000558Y011892D02*
X000683Y011892D01*
X000725Y011934D01*
X000725Y012017D01*
X000683Y012059D01*
X000642Y012169D02*
X000600Y012169D01*
X000558Y012210D01*
X000558Y012294D01*
X000600Y012335D01*
X000683Y012294D02*
X000683Y012210D01*
X000642Y012169D01*
X000767Y012169D02*
X000809Y012210D01*
X000809Y012294D01*
X000767Y012335D01*
X000725Y012335D01*
X000683Y012294D01*
X000809Y012059D02*
X000558Y012059D01*
X000725Y011783D02*
X000725Y011741D01*
X000809Y011741D02*
X000850Y011741D01*
X000725Y012721D02*
X000558Y012721D01*
X000683Y012721D02*
X000683Y012888D01*
X000725Y012888D02*
X000809Y012804D01*
X000725Y012721D01*
X000725Y012888D02*
X000558Y012888D01*
X000600Y012997D02*
X000683Y012997D01*
X000683Y013081D01*
X000600Y013164D02*
X000558Y013122D01*
X000558Y013039D01*
X000600Y012997D01*
X000767Y012997D02*
X000809Y013039D01*
X000809Y013122D01*
X000767Y013164D01*
X000600Y013164D01*
X000558Y013274D02*
X000558Y013440D01*
X000809Y013440D01*
X000809Y013274D01*
X000683Y013357D02*
X000683Y013440D01*
X000558Y013550D02*
X000809Y013550D01*
X000725Y013633D01*
X000809Y013717D01*
X000558Y013717D01*
X000600Y014102D02*
X000642Y014144D01*
X000642Y014227D01*
X000683Y014269D01*
X000725Y014227D01*
X000725Y014102D01*
X000600Y014102D02*
X000558Y014144D01*
X000558Y014269D01*
X000558Y014370D02*
X000558Y014453D01*
X000558Y014412D02*
X000725Y014412D01*
X000725Y014453D01*
X000809Y014412D02*
X000850Y014412D01*
X000725Y014563D02*
X000725Y014688D01*
X000683Y014729D01*
X000642Y014688D01*
X000642Y014604D01*
X000600Y014563D01*
X000558Y014604D01*
X000558Y014729D01*
X000642Y014839D02*
X000642Y015006D01*
X000683Y015006D02*
X000725Y014964D01*
X000725Y014881D01*
X000683Y014839D01*
X000642Y014839D01*
X000558Y014881D02*
X000558Y014964D01*
X000600Y015006D01*
X000683Y015006D01*
X000683Y015115D02*
X000558Y015115D01*
X000683Y015115D02*
X000725Y015157D01*
X000725Y015240D01*
X000683Y015282D01*
X000725Y015383D02*
X000725Y015466D01*
X000767Y015424D02*
X000600Y015424D01*
X000558Y015383D01*
X000558Y015282D02*
X000809Y015282D01*
X000725Y015576D02*
X000725Y015701D01*
X000683Y015742D01*
X000642Y015701D01*
X000642Y015617D01*
X000600Y015576D01*
X000558Y015617D01*
X000558Y015742D01*
X000600Y015852D02*
X000683Y015852D01*
X000725Y015893D01*
X000725Y015977D01*
X000683Y016019D01*
X000600Y016019D01*
X000558Y015977D01*
X000558Y015893D01*
X000600Y015852D01*
X000725Y016124D02*
X000725Y016165D01*
X000642Y016249D01*
X000725Y016249D02*
X000558Y016249D01*
X000683Y016358D02*
X000642Y016400D01*
X000642Y016525D01*
X000558Y016525D02*
X000809Y016525D01*
X000809Y016400D01*
X000767Y016358D01*
X000683Y016358D01*
X016007Y022380D02*
X016082Y022305D01*
X016157Y022305D01*
X016232Y022380D01*
X016232Y022755D01*
X016157Y022755D02*
X016307Y022755D01*
X016468Y022755D02*
X016693Y022755D01*
X016768Y022680D01*
X016768Y022530D01*
X016693Y022455D01*
X016468Y022455D01*
X016468Y022305D02*
X016468Y022755D01*
X016928Y022680D02*
X017003Y022755D01*
X017153Y022755D01*
X017228Y022680D01*
X017228Y022605D01*
X017153Y022530D01*
X017228Y022455D01*
X017228Y022380D01*
X017153Y022305D01*
X017003Y022305D01*
X016928Y022380D01*
X017078Y022530D02*
X017153Y022530D01*
X024507Y022380D02*
X024582Y022305D01*
X024657Y022305D01*
X024732Y022380D01*
X024732Y022755D01*
X024657Y022755D02*
X024807Y022755D01*
X024968Y022755D02*
X025193Y022755D01*
X025268Y022680D01*
X025268Y022530D01*
X025193Y022455D01*
X024968Y022455D01*
X024968Y022305D02*
X024968Y022755D01*
X025428Y022530D02*
X025728Y022530D01*
X025653Y022305D02*
X025653Y022755D01*
X025428Y022530D01*
X026903Y024245D02*
X026978Y024245D01*
X027054Y024320D01*
X027054Y024695D01*
X027129Y024695D02*
X026978Y024695D01*
X027289Y024695D02*
X027289Y024245D01*
X027289Y024395D02*
X027514Y024395D01*
X027589Y024470D01*
X027589Y024620D01*
X027514Y024695D01*
X027289Y024695D01*
X027749Y024695D02*
X027749Y024470D01*
X027899Y024545D01*
X027974Y024545D01*
X028049Y024470D01*
X028049Y024320D01*
X027974Y024245D01*
X027824Y024245D01*
X027749Y024320D01*
X027749Y024695D02*
X028049Y024695D01*
X026903Y024245D02*
X026828Y024320D01*
X036828Y024320D02*
X036903Y024245D01*
X036978Y024245D01*
X037054Y024320D01*
X037054Y024695D01*
X037129Y024695D02*
X036978Y024695D01*
X037289Y024695D02*
X037514Y024695D01*
X037589Y024620D01*
X037589Y024470D01*
X037514Y024395D01*
X037289Y024395D01*
X037289Y024245D02*
X037289Y024695D01*
X037749Y024545D02*
X037899Y024695D01*
X037899Y024245D01*
X037749Y024245D02*
X038049Y024245D01*
X038210Y024245D02*
X038510Y024545D01*
X038510Y024620D01*
X038435Y024695D01*
X038285Y024695D01*
X038210Y024620D01*
X038210Y024245D02*
X038510Y024245D01*
D17*
X014541Y005604D02*
X014235Y005297D01*
X014311Y005220D01*
X014465Y005220D01*
X014541Y005297D01*
X014541Y005604D01*
X014465Y005680D01*
X014311Y005680D01*
X014235Y005604D01*
X014235Y005297D01*
X014081Y005220D02*
X013774Y005220D01*
X013928Y005220D02*
X013928Y005680D01*
X013774Y005527D01*
X013621Y005604D02*
X013621Y005450D01*
X013544Y005373D01*
X013314Y005373D01*
X013314Y005220D02*
X013314Y005680D01*
X013544Y005680D01*
X013621Y005604D01*
X013160Y005680D02*
X013007Y005680D01*
X013084Y005680D02*
X013084Y005297D01*
X013007Y005220D01*
X012930Y005220D01*
X012853Y005297D01*
D18*
X008791Y005120D02*
X008791Y005095D01*
X008766Y005070D01*
X008791Y005045D01*
X008791Y005020D01*
X008766Y004995D01*
X008716Y004995D01*
X008691Y005020D01*
X008644Y004995D02*
X008594Y005045D01*
X008619Y005045D02*
X008544Y005045D01*
X008544Y004995D02*
X008544Y005145D01*
X008619Y005145D01*
X008644Y005120D01*
X008644Y005070D01*
X008619Y005045D01*
X008691Y005120D02*
X008716Y005145D01*
X008766Y005145D01*
X008791Y005120D01*
X008766Y005070D02*
X008741Y005070D01*
X007086Y007055D02*
X006986Y007055D01*
X006938Y007055D02*
X006888Y007105D01*
X006913Y007105D02*
X006838Y007105D01*
X006838Y007055D02*
X006838Y007205D01*
X006913Y007205D01*
X006938Y007180D01*
X006938Y007130D01*
X006913Y007105D01*
X006986Y007155D02*
X007036Y007205D01*
X007036Y007055D01*
X007086Y008005D02*
X006986Y008005D01*
X007086Y008105D01*
X007086Y008130D01*
X007061Y008155D01*
X007011Y008155D01*
X006986Y008130D01*
X006938Y008130D02*
X006938Y008080D01*
X006913Y008055D01*
X006838Y008055D01*
X006838Y008005D02*
X006838Y008155D01*
X006913Y008155D01*
X006938Y008130D01*
X006888Y008055D02*
X006938Y008005D01*
X003301Y004720D02*
X003373Y004774D01*
X003372Y004773D02*
X003415Y004720D01*
X003460Y004669D01*
X003509Y004621D01*
X003560Y004576D01*
X003614Y004533D01*
X003670Y004494D01*
X003728Y004458D01*
X003788Y004425D01*
X003849Y004396D01*
X003913Y004371D01*
X003977Y004349D01*
X004043Y004330D01*
X004110Y004316D01*
X004177Y004305D01*
X004245Y004298D01*
X004313Y004295D01*
X004382Y004296D01*
X004450Y004301D01*
X004518Y004309D01*
X004585Y004322D01*
X004651Y004338D01*
X004716Y004358D01*
X004781Y004381D01*
X004843Y004408D01*
X004904Y004439D01*
X004963Y004473D01*
X005021Y004510D01*
X005076Y004551D01*
X005128Y004595D01*
X005178Y004641D01*
X005225Y004690D01*
X005270Y004742D01*
X005311Y004796D01*
X005350Y004853D01*
X005385Y004912D01*
X005416Y004972D01*
X005444Y005034D01*
X005469Y005098D01*
X005490Y005163D01*
X005507Y005229D01*
X005521Y005296D01*
X005530Y005364D01*
X005536Y005432D01*
X005538Y005500D01*
X005536Y005568D01*
X005530Y005636D01*
X005521Y005704D01*
X005507Y005771D01*
X005490Y005837D01*
X005469Y005902D01*
X005444Y005966D01*
X005416Y006028D01*
X005385Y006088D01*
X005350Y006147D01*
X005311Y006204D01*
X005270Y006258D01*
X005225Y006310D01*
X005178Y006359D01*
X005128Y006405D01*
X005076Y006449D01*
X005021Y006490D01*
X004963Y006527D01*
X004904Y006561D01*
X004843Y006592D01*
X004781Y006619D01*
X004716Y006642D01*
X004651Y006662D01*
X004585Y006678D01*
X004518Y006691D01*
X004450Y006699D01*
X004382Y006704D01*
X004313Y006705D01*
X004245Y006702D01*
X004177Y006695D01*
X004110Y006684D01*
X004043Y006670D01*
X003977Y006651D01*
X003913Y006629D01*
X003849Y006604D01*
X003788Y006575D01*
X003728Y006542D01*
X003670Y006506D01*
X003614Y006467D01*
X003560Y006424D01*
X003509Y006379D01*
X003460Y006331D01*
X003415Y006280D01*
X003372Y006227D01*
X003301Y006280D01*
X003300Y006281D01*
X003344Y006336D01*
X003392Y006389D01*
X003442Y006440D01*
X003495Y006487D01*
X003550Y006531D01*
X003608Y006573D01*
X003668Y006611D01*
X003729Y006646D01*
X003793Y006677D01*
X003858Y006705D01*
X003925Y006729D01*
X003993Y006750D01*
X004062Y006766D01*
X004132Y006779D01*
X004202Y006788D01*
X004273Y006794D01*
X004344Y006795D01*
X004415Y006792D01*
X004486Y006786D01*
X004556Y006776D01*
X004625Y006762D01*
X004694Y006744D01*
X004762Y006722D01*
X004828Y006697D01*
X004893Y006668D01*
X004956Y006635D01*
X005017Y006599D01*
X005076Y006560D01*
X005133Y006518D01*
X005188Y006473D01*
X005240Y006424D01*
X005289Y006373D01*
X005336Y006320D01*
X005379Y006263D01*
X005419Y006205D01*
X005456Y006144D01*
X005490Y006082D01*
X005520Y006018D01*
X005547Y005952D01*
X005570Y005885D01*
X005589Y005816D01*
X005604Y005747D01*
X005616Y005677D01*
X005624Y005606D01*
X005628Y005535D01*
X005628Y005465D01*
X005624Y005394D01*
X005616Y005323D01*
X005604Y005253D01*
X005589Y005184D01*
X005570Y005115D01*
X005547Y005048D01*
X005520Y004982D01*
X005490Y004918D01*
X005456Y004856D01*
X005419Y004795D01*
X005379Y004737D01*
X005336Y004680D01*
X005289Y004627D01*
X005240Y004576D01*
X005188Y004527D01*
X005133Y004482D01*
X005076Y004440D01*
X005017Y004401D01*
X004956Y004365D01*
X004893Y004332D01*
X004828Y004303D01*
X004762Y004278D01*
X004694Y004256D01*
X004625Y004238D01*
X004556Y004224D01*
X004486Y004214D01*
X004415Y004208D01*
X004344Y004205D01*
X004273Y004206D01*
X004202Y004212D01*
X004132Y004221D01*
X004062Y004234D01*
X003993Y004250D01*
X003925Y004271D01*
X003858Y004295D01*
X003793Y004323D01*
X003729Y004354D01*
X003668Y004389D01*
X003608Y004427D01*
X003550Y004469D01*
X003495Y004513D01*
X003442Y004560D01*
X003392Y004611D01*
X003344Y004664D01*
X003300Y004719D01*
X003307Y004724D01*
X003352Y004669D01*
X003399Y004616D01*
X003450Y004565D01*
X003503Y004518D01*
X003559Y004473D01*
X003617Y004432D01*
X003677Y004394D01*
X003739Y004359D01*
X003803Y004328D01*
X003869Y004301D01*
X003936Y004277D01*
X004005Y004257D01*
X004074Y004240D01*
X004144Y004228D01*
X004215Y004219D01*
X004286Y004215D01*
X004357Y004214D01*
X004428Y004218D01*
X004499Y004225D01*
X004570Y004236D01*
X004639Y004251D01*
X004708Y004270D01*
X004776Y004293D01*
X004842Y004319D01*
X004907Y004349D01*
X004969Y004383D01*
X005030Y004419D01*
X005089Y004460D01*
X005146Y004503D01*
X005200Y004550D01*
X005251Y004599D01*
X005299Y004652D01*
X005345Y004706D01*
X005387Y004764D01*
X005426Y004823D01*
X005462Y004885D01*
X005495Y004948D01*
X005523Y005013D01*
X005549Y005080D01*
X005570Y005148D01*
X005588Y005217D01*
X005601Y005287D01*
X005611Y005358D01*
X005617Y005429D01*
X005619Y005500D01*
X005617Y005571D01*
X005611Y005642D01*
X005601Y005713D01*
X005588Y005783D01*
X005570Y005852D01*
X005549Y005920D01*
X005523Y005987D01*
X005495Y006052D01*
X005462Y006115D01*
X005426Y006177D01*
X005387Y006236D01*
X005345Y006294D01*
X005299Y006348D01*
X005251Y006401D01*
X005200Y006450D01*
X005146Y006497D01*
X005089Y006540D01*
X005030Y006581D01*
X004969Y006617D01*
X004907Y006651D01*
X004842Y006681D01*
X004776Y006707D01*
X004708Y006730D01*
X004639Y006749D01*
X004570Y006764D01*
X004499Y006775D01*
X004428Y006782D01*
X004357Y006786D01*
X004286Y006785D01*
X004215Y006781D01*
X004144Y006772D01*
X004074Y006760D01*
X004005Y006743D01*
X003936Y006723D01*
X003869Y006699D01*
X003803Y006672D01*
X003739Y006641D01*
X003677Y006606D01*
X003617Y006568D01*
X003559Y006527D01*
X003503Y006482D01*
X003450Y006435D01*
X003399Y006384D01*
X003352Y006331D01*
X003307Y006276D01*
X003314Y006270D01*
X003359Y006325D01*
X003406Y006378D01*
X003456Y006428D01*
X003509Y006475D01*
X003564Y006519D01*
X003622Y006561D01*
X003681Y006598D01*
X003743Y006633D01*
X003807Y006664D01*
X003872Y006691D01*
X003939Y006715D01*
X004007Y006735D01*
X004076Y006751D01*
X004145Y006763D01*
X004216Y006772D01*
X004286Y006776D01*
X004357Y006777D01*
X004428Y006773D01*
X004498Y006766D01*
X004568Y006755D01*
X004637Y006740D01*
X004705Y006721D01*
X004773Y006699D01*
X004838Y006673D01*
X004903Y006643D01*
X004965Y006610D01*
X005025Y006573D01*
X005084Y006533D01*
X005140Y006490D01*
X005194Y006444D01*
X005244Y006394D01*
X005293Y006343D01*
X005338Y006288D01*
X005380Y006231D01*
X005419Y006172D01*
X005454Y006111D01*
X005487Y006048D01*
X005515Y005983D01*
X005540Y005917D01*
X005561Y005849D01*
X005579Y005781D01*
X005592Y005711D01*
X005602Y005641D01*
X005608Y005571D01*
X005610Y005500D01*
X005608Y005429D01*
X005602Y005359D01*
X005592Y005289D01*
X005579Y005219D01*
X005561Y005151D01*
X005540Y005083D01*
X005515Y005017D01*
X005487Y004952D01*
X005454Y004889D01*
X005419Y004828D01*
X005380Y004769D01*
X005338Y004712D01*
X005293Y004657D01*
X005244Y004606D01*
X005194Y004556D01*
X005140Y004510D01*
X005084Y004467D01*
X005025Y004427D01*
X004965Y004390D01*
X004903Y004357D01*
X004838Y004327D01*
X004773Y004301D01*
X004705Y004279D01*
X004637Y004260D01*
X004568Y004245D01*
X004498Y004234D01*
X004428Y004227D01*
X004357Y004223D01*
X004286Y004224D01*
X004216Y004228D01*
X004145Y004237D01*
X004076Y004249D01*
X004007Y004265D01*
X003939Y004285D01*
X003872Y004309D01*
X003807Y004336D01*
X003743Y004367D01*
X003681Y004402D01*
X003622Y004439D01*
X003564Y004481D01*
X003509Y004525D01*
X003456Y004572D01*
X003406Y004622D01*
X003359Y004675D01*
X003314Y004730D01*
X003322Y004735D01*
X003366Y004680D01*
X003414Y004627D01*
X003464Y004577D01*
X003517Y004529D01*
X003573Y004485D01*
X003631Y004444D01*
X003691Y004407D01*
X003753Y004372D01*
X003817Y004342D01*
X003883Y004315D01*
X003950Y004291D01*
X004018Y004272D01*
X004088Y004256D01*
X004158Y004244D01*
X004228Y004236D01*
X004299Y004232D01*
X004370Y004233D01*
X004441Y004237D01*
X004512Y004245D01*
X004582Y004257D01*
X004651Y004273D01*
X004719Y004292D01*
X004787Y004316D01*
X004852Y004343D01*
X004916Y004374D01*
X004978Y004408D01*
X005038Y004446D01*
X005096Y004488D01*
X005152Y004532D01*
X005205Y004579D01*
X005255Y004630D01*
X005302Y004683D01*
X005347Y004738D01*
X005388Y004796D01*
X005425Y004856D01*
X005460Y004919D01*
X005491Y004983D01*
X005518Y005048D01*
X005541Y005115D01*
X005561Y005184D01*
X005577Y005253D01*
X005589Y005323D01*
X005597Y005394D01*
X005601Y005464D01*
X005601Y005536D01*
X005597Y005606D01*
X005589Y005677D01*
X005577Y005747D01*
X005561Y005816D01*
X005541Y005885D01*
X005518Y005952D01*
X005491Y006017D01*
X005460Y006081D01*
X005425Y006144D01*
X005388Y006204D01*
X005347Y006262D01*
X005302Y006317D01*
X005255Y006370D01*
X005205Y006421D01*
X005152Y006468D01*
X005096Y006512D01*
X005038Y006554D01*
X004978Y006592D01*
X004916Y006626D01*
X004852Y006657D01*
X004787Y006684D01*
X004719Y006708D01*
X004651Y006727D01*
X004582Y006743D01*
X004512Y006755D01*
X004441Y006763D01*
X004370Y006767D01*
X004299Y006768D01*
X004228Y006764D01*
X004158Y006756D01*
X004088Y006744D01*
X004018Y006728D01*
X003950Y006709D01*
X003883Y006685D01*
X003817Y006658D01*
X003753Y006628D01*
X003691Y006593D01*
X003631Y006556D01*
X003573Y006515D01*
X003517Y006471D01*
X003464Y006423D01*
X003414Y006373D01*
X003366Y006320D01*
X003322Y006265D01*
X003329Y006259D01*
X003373Y006314D01*
X003420Y006367D01*
X003470Y006417D01*
X003523Y006464D01*
X003578Y006508D01*
X003636Y006548D01*
X003695Y006586D01*
X003757Y006620D01*
X003821Y006650D01*
X003886Y006677D01*
X003953Y006700D01*
X004021Y006720D01*
X004089Y006735D01*
X004159Y006747D01*
X004229Y006755D01*
X004300Y006759D01*
X004370Y006758D01*
X004441Y006754D01*
X004511Y006746D01*
X004580Y006734D01*
X004649Y006719D01*
X004717Y006699D01*
X004783Y006676D01*
X004848Y006649D01*
X004912Y006618D01*
X004974Y006584D01*
X005033Y006546D01*
X005091Y006505D01*
X005146Y006461D01*
X005199Y006414D01*
X005248Y006364D01*
X005295Y006312D01*
X005339Y006256D01*
X005380Y006199D01*
X005418Y006139D01*
X005452Y006077D01*
X005482Y006014D01*
X005509Y005949D01*
X005533Y005882D01*
X005552Y005814D01*
X005568Y005745D01*
X005580Y005676D01*
X005588Y005606D01*
X005592Y005535D01*
X005592Y005465D01*
X005588Y005394D01*
X005580Y005324D01*
X005568Y005255D01*
X005552Y005186D01*
X005533Y005118D01*
X005509Y005051D01*
X005482Y004986D01*
X005452Y004923D01*
X005418Y004861D01*
X005380Y004801D01*
X005339Y004744D01*
X005295Y004688D01*
X005248Y004636D01*
X005199Y004586D01*
X005146Y004539D01*
X005091Y004495D01*
X005033Y004454D01*
X004974Y004416D01*
X004912Y004382D01*
X004848Y004351D01*
X004783Y004324D01*
X004717Y004301D01*
X004649Y004281D01*
X004580Y004266D01*
X004511Y004254D01*
X004441Y004246D01*
X004370Y004242D01*
X004300Y004241D01*
X004229Y004245D01*
X004159Y004253D01*
X004089Y004265D01*
X004021Y004280D01*
X003953Y004300D01*
X003886Y004323D01*
X003821Y004350D01*
X003757Y004380D01*
X003695Y004414D01*
X003636Y004452D01*
X003578Y004492D01*
X003523Y004536D01*
X003470Y004583D01*
X003420Y004633D01*
X003373Y004686D01*
X003329Y004741D01*
X003336Y004746D01*
X003380Y004691D01*
X003427Y004639D01*
X003476Y004590D01*
X003529Y004543D01*
X003583Y004500D01*
X003641Y004459D01*
X003700Y004422D01*
X003761Y004388D01*
X003825Y004358D01*
X003889Y004331D01*
X003956Y004308D01*
X004023Y004289D01*
X004091Y004274D01*
X004160Y004262D01*
X004230Y004254D01*
X004300Y004250D01*
X004370Y004251D01*
X004440Y004255D01*
X004509Y004263D01*
X004578Y004274D01*
X004647Y004290D01*
X004714Y004309D01*
X004780Y004333D01*
X004845Y004360D01*
X004908Y004390D01*
X004969Y004424D01*
X005028Y004461D01*
X005086Y004502D01*
X005140Y004546D01*
X005192Y004592D01*
X005242Y004642D01*
X005289Y004694D01*
X005332Y004749D01*
X005373Y004806D01*
X005410Y004865D01*
X005444Y004927D01*
X005474Y004990D01*
X005501Y005055D01*
X005524Y005121D01*
X005543Y005188D01*
X005559Y005256D01*
X005571Y005325D01*
X005579Y005395D01*
X005583Y005465D01*
X005583Y005535D01*
X005579Y005605D01*
X005571Y005675D01*
X005559Y005744D01*
X005543Y005812D01*
X005524Y005879D01*
X005501Y005945D01*
X005474Y006010D01*
X005444Y006073D01*
X005410Y006135D01*
X005373Y006194D01*
X005332Y006251D01*
X005289Y006306D01*
X005242Y006358D01*
X005192Y006408D01*
X005140Y006454D01*
X005086Y006498D01*
X005028Y006539D01*
X004969Y006576D01*
X004908Y006610D01*
X004845Y006640D01*
X004780Y006667D01*
X004714Y006691D01*
X004647Y006710D01*
X004578Y006726D01*
X004509Y006737D01*
X004440Y006745D01*
X004370Y006749D01*
X004300Y006750D01*
X004230Y006746D01*
X004160Y006738D01*
X004091Y006726D01*
X004023Y006711D01*
X003956Y006692D01*
X003889Y006669D01*
X003825Y006642D01*
X003761Y006612D01*
X003700Y006578D01*
X003641Y006541D01*
X003583Y006500D01*
X003529Y006457D01*
X003476Y006410D01*
X003427Y006361D01*
X003380Y006309D01*
X003336Y006254D01*
X003343Y006249D01*
X003387Y006303D01*
X003433Y006355D01*
X003482Y006404D01*
X003534Y006450D01*
X003589Y006493D01*
X003646Y006533D01*
X003705Y006570D01*
X003766Y006604D01*
X003828Y006634D01*
X003893Y006660D01*
X003958Y006683D01*
X004025Y006702D01*
X004093Y006718D01*
X004162Y006729D01*
X004231Y006737D01*
X004300Y006741D01*
X004370Y006740D01*
X004439Y006736D01*
X004508Y006729D01*
X004577Y006717D01*
X004644Y006701D01*
X004711Y006682D01*
X004777Y006659D01*
X004841Y006632D01*
X004904Y006602D01*
X004965Y006568D01*
X005023Y006531D01*
X005080Y006491D01*
X005134Y006448D01*
X005186Y006401D01*
X005235Y006352D01*
X005282Y006300D01*
X005325Y006246D01*
X005365Y006189D01*
X005402Y006130D01*
X005436Y006069D01*
X005466Y006006D01*
X005493Y005942D01*
X005516Y005877D01*
X005535Y005810D01*
X005550Y005742D01*
X005562Y005673D01*
X005570Y005604D01*
X005574Y005535D01*
X005574Y005465D01*
X005570Y005396D01*
X005562Y005327D01*
X005550Y005258D01*
X005535Y005190D01*
X005516Y005123D01*
X005493Y005058D01*
X005466Y004994D01*
X005436Y004931D01*
X005402Y004870D01*
X005365Y004811D01*
X005325Y004754D01*
X005282Y004700D01*
X005235Y004648D01*
X005186Y004599D01*
X005134Y004552D01*
X005080Y004509D01*
X005023Y004469D01*
X004965Y004432D01*
X004904Y004398D01*
X004841Y004368D01*
X004777Y004341D01*
X004711Y004318D01*
X004644Y004299D01*
X004577Y004283D01*
X004508Y004271D01*
X004439Y004264D01*
X004370Y004260D01*
X004300Y004259D01*
X004231Y004263D01*
X004162Y004271D01*
X004093Y004282D01*
X004025Y004298D01*
X003958Y004317D01*
X003893Y004340D01*
X003828Y004366D01*
X003766Y004396D01*
X003705Y004430D01*
X003646Y004467D01*
X003589Y004507D01*
X003534Y004550D01*
X003482Y004596D01*
X003433Y004645D01*
X003387Y004697D01*
X003343Y004751D01*
X003350Y004757D01*
X003394Y004703D01*
X003440Y004652D01*
X003489Y004603D01*
X003540Y004557D01*
X003594Y004514D01*
X003651Y004474D01*
X003709Y004438D01*
X003770Y004404D01*
X003832Y004374D01*
X003896Y004348D01*
X003961Y004326D01*
X004027Y004307D01*
X004095Y004291D01*
X004163Y004280D01*
X004231Y004272D01*
X004300Y004268D01*
X004369Y004269D01*
X004438Y004273D01*
X004507Y004280D01*
X004575Y004292D01*
X004642Y004307D01*
X004709Y004327D01*
X004774Y004350D01*
X004837Y004376D01*
X004900Y004406D01*
X004960Y004439D01*
X005018Y004476D01*
X005075Y004516D01*
X005129Y004559D01*
X005180Y004605D01*
X005229Y004654D01*
X005275Y004706D01*
X005318Y004760D01*
X005358Y004816D01*
X005394Y004875D01*
X005428Y004935D01*
X005458Y004997D01*
X005484Y005061D01*
X005507Y005126D01*
X005526Y005193D01*
X005541Y005260D01*
X005553Y005328D01*
X005561Y005397D01*
X005565Y005465D01*
X005565Y005535D01*
X005561Y005603D01*
X005553Y005672D01*
X005541Y005740D01*
X005526Y005807D01*
X005507Y005874D01*
X005484Y005939D01*
X005458Y006003D01*
X005428Y006065D01*
X005394Y006125D01*
X005358Y006184D01*
X005318Y006240D01*
X005275Y006294D01*
X005229Y006346D01*
X005180Y006395D01*
X005129Y006441D01*
X005075Y006484D01*
X005018Y006524D01*
X004960Y006561D01*
X004900Y006594D01*
X004837Y006624D01*
X004774Y006650D01*
X004709Y006673D01*
X004642Y006693D01*
X004575Y006708D01*
X004507Y006720D01*
X004438Y006727D01*
X004369Y006731D01*
X004300Y006732D01*
X004231Y006728D01*
X004163Y006720D01*
X004095Y006709D01*
X004027Y006693D01*
X003961Y006674D01*
X003896Y006652D01*
X003832Y006626D01*
X003770Y006596D01*
X003709Y006562D01*
X003651Y006526D01*
X003594Y006486D01*
X003540Y006443D01*
X003489Y006397D01*
X003440Y006348D01*
X003394Y006297D01*
X003350Y006243D01*
X003358Y006238D01*
X003401Y006292D01*
X003447Y006343D01*
X003497Y006392D01*
X003548Y006438D01*
X003603Y006481D01*
X003660Y006521D01*
X003718Y006557D01*
X003779Y006591D01*
X003842Y006620D01*
X003906Y006646D01*
X003972Y006668D01*
X004039Y006687D01*
X004106Y006702D01*
X004175Y006713D01*
X004244Y006720D01*
X004313Y006723D01*
X004382Y006722D01*
X004452Y006717D01*
X004520Y006709D01*
X004588Y006696D01*
X004656Y006680D01*
X004722Y006659D01*
X004787Y006636D01*
X004851Y006608D01*
X004913Y006577D01*
X004973Y006542D01*
X005031Y006504D01*
X005087Y006463D01*
X005140Y006419D01*
X005191Y006372D01*
X005239Y006322D01*
X005284Y006269D01*
X005326Y006214D01*
X005365Y006157D01*
X005400Y006097D01*
X005432Y006036D01*
X005461Y005973D01*
X005486Y005908D01*
X005507Y005842D01*
X005525Y005775D01*
X005538Y005707D01*
X005548Y005638D01*
X005554Y005569D01*
X005556Y005500D01*
X005554Y005431D01*
X005548Y005362D01*
X005538Y005293D01*
X005525Y005225D01*
X005507Y005158D01*
X005486Y005092D01*
X005461Y005027D01*
X005432Y004964D01*
X005400Y004903D01*
X005365Y004843D01*
X005326Y004786D01*
X005284Y004731D01*
X005239Y004678D01*
X005191Y004628D01*
X005140Y004581D01*
X005087Y004537D01*
X005031Y004496D01*
X004973Y004458D01*
X004913Y004423D01*
X004851Y004392D01*
X004787Y004364D01*
X004722Y004341D01*
X004656Y004320D01*
X004588Y004304D01*
X004520Y004291D01*
X004452Y004283D01*
X004382Y004278D01*
X004313Y004277D01*
X004244Y004280D01*
X004175Y004287D01*
X004106Y004298D01*
X004039Y004313D01*
X003972Y004332D01*
X003906Y004354D01*
X003842Y004380D01*
X003779Y004409D01*
X003718Y004443D01*
X003660Y004479D01*
X003603Y004519D01*
X003548Y004562D01*
X003497Y004608D01*
X003447Y004657D01*
X003401Y004708D01*
X003358Y004762D01*
X003365Y004768D01*
X003408Y004714D01*
X003454Y004663D01*
X003503Y004614D01*
X003554Y004569D01*
X003608Y004526D01*
X003665Y004487D01*
X003723Y004450D01*
X003783Y004417D01*
X003846Y004388D01*
X003909Y004362D01*
X003975Y004340D01*
X004041Y004322D01*
X004108Y004307D01*
X004176Y004296D01*
X004245Y004289D01*
X004313Y004286D01*
X004382Y004287D01*
X004451Y004292D01*
X004519Y004300D01*
X004587Y004313D01*
X004653Y004329D01*
X004719Y004349D01*
X004784Y004373D01*
X004847Y004400D01*
X004908Y004431D01*
X004968Y004465D01*
X005026Y004503D01*
X005081Y004544D01*
X005134Y004588D01*
X005184Y004635D01*
X005232Y004684D01*
X005277Y004736D01*
X005319Y004791D01*
X005357Y004848D01*
X005392Y004907D01*
X005424Y004968D01*
X005453Y005031D01*
X005477Y005095D01*
X005499Y005161D01*
X005516Y005227D01*
X005529Y005295D01*
X005539Y005363D01*
X005545Y005431D01*
X005547Y005500D01*
X005545Y005569D01*
X005539Y005637D01*
X005529Y005705D01*
X005516Y005773D01*
X005499Y005839D01*
X005477Y005905D01*
X005453Y005969D01*
X005424Y006032D01*
X005392Y006093D01*
X005357Y006152D01*
X005319Y006209D01*
X005277Y006264D01*
X005232Y006316D01*
X005184Y006365D01*
X005134Y006412D01*
X005081Y006456D01*
X005026Y006497D01*
X004968Y006535D01*
X004908Y006569D01*
X004847Y006600D01*
X004784Y006627D01*
X004719Y006651D01*
X004653Y006671D01*
X004587Y006687D01*
X004519Y006700D01*
X004451Y006708D01*
X004382Y006713D01*
X004313Y006714D01*
X004245Y006711D01*
X004176Y006704D01*
X004108Y006693D01*
X004041Y006678D01*
X003975Y006660D01*
X003909Y006638D01*
X003846Y006612D01*
X003783Y006583D01*
X003723Y006550D01*
X003665Y006513D01*
X003608Y006474D01*
X003554Y006431D01*
X003503Y006386D01*
X003454Y006337D01*
X003408Y006286D01*
X003365Y006232D01*
X002865Y006280D02*
X002793Y006226D01*
X002794Y006227D02*
X002751Y006280D01*
X002706Y006331D01*
X002657Y006379D01*
X002606Y006424D01*
X002552Y006467D01*
X002496Y006506D01*
X002438Y006542D01*
X002378Y006575D01*
X002317Y006604D01*
X002253Y006629D01*
X002189Y006651D01*
X002123Y006670D01*
X002056Y006684D01*
X001989Y006695D01*
X001921Y006702D01*
X001853Y006705D01*
X001784Y006704D01*
X001716Y006699D01*
X001648Y006691D01*
X001581Y006678D01*
X001515Y006662D01*
X001450Y006642D01*
X001385Y006619D01*
X001323Y006592D01*
X001262Y006561D01*
X001203Y006527D01*
X001145Y006490D01*
X001090Y006449D01*
X001038Y006405D01*
X000988Y006359D01*
X000941Y006310D01*
X000896Y006258D01*
X000855Y006204D01*
X000816Y006147D01*
X000781Y006088D01*
X000750Y006028D01*
X000722Y005966D01*
X000697Y005902D01*
X000676Y005837D01*
X000659Y005771D01*
X000645Y005704D01*
X000636Y005636D01*
X000630Y005568D01*
X000628Y005500D01*
X000630Y005432D01*
X000636Y005364D01*
X000645Y005296D01*
X000659Y005229D01*
X000676Y005163D01*
X000697Y005098D01*
X000722Y005034D01*
X000750Y004972D01*
X000781Y004912D01*
X000816Y004853D01*
X000855Y004796D01*
X000896Y004742D01*
X000941Y004690D01*
X000988Y004641D01*
X001038Y004595D01*
X001090Y004551D01*
X001145Y004510D01*
X001203Y004473D01*
X001262Y004439D01*
X001323Y004408D01*
X001385Y004381D01*
X001450Y004358D01*
X001515Y004338D01*
X001581Y004322D01*
X001648Y004309D01*
X001716Y004301D01*
X001784Y004296D01*
X001853Y004295D01*
X001921Y004298D01*
X001989Y004305D01*
X002056Y004316D01*
X002123Y004330D01*
X002189Y004349D01*
X002253Y004371D01*
X002317Y004396D01*
X002378Y004425D01*
X002438Y004458D01*
X002496Y004494D01*
X002552Y004533D01*
X002606Y004576D01*
X002657Y004621D01*
X002706Y004669D01*
X002751Y004720D01*
X002794Y004773D01*
X002865Y004720D01*
X002866Y004719D01*
X002822Y004664D01*
X002774Y004611D01*
X002724Y004560D01*
X002671Y004513D01*
X002616Y004469D01*
X002558Y004427D01*
X002498Y004389D01*
X002437Y004354D01*
X002373Y004323D01*
X002308Y004295D01*
X002241Y004271D01*
X002173Y004250D01*
X002104Y004234D01*
X002034Y004221D01*
X001964Y004212D01*
X001893Y004206D01*
X001822Y004205D01*
X001751Y004208D01*
X001680Y004214D01*
X001610Y004224D01*
X001541Y004238D01*
X001472Y004256D01*
X001404Y004278D01*
X001338Y004303D01*
X001273Y004332D01*
X001210Y004365D01*
X001149Y004401D01*
X001090Y004440D01*
X001033Y004482D01*
X000978Y004527D01*
X000926Y004576D01*
X000877Y004627D01*
X000830Y004680D01*
X000787Y004737D01*
X000747Y004795D01*
X000710Y004856D01*
X000676Y004918D01*
X000646Y004982D01*
X000619Y005048D01*
X000596Y005115D01*
X000577Y005184D01*
X000562Y005253D01*
X000550Y005323D01*
X000542Y005394D01*
X000538Y005465D01*
X000538Y005535D01*
X000542Y005606D01*
X000550Y005677D01*
X000562Y005747D01*
X000577Y005816D01*
X000596Y005885D01*
X000619Y005952D01*
X000646Y006018D01*
X000676Y006082D01*
X000710Y006144D01*
X000747Y006205D01*
X000787Y006263D01*
X000830Y006320D01*
X000877Y006373D01*
X000926Y006424D01*
X000978Y006473D01*
X001033Y006518D01*
X001090Y006560D01*
X001149Y006599D01*
X001210Y006635D01*
X001273Y006668D01*
X001338Y006697D01*
X001404Y006722D01*
X001472Y006744D01*
X001541Y006762D01*
X001610Y006776D01*
X001680Y006786D01*
X001751Y006792D01*
X001822Y006795D01*
X001893Y006794D01*
X001964Y006788D01*
X002034Y006779D01*
X002104Y006766D01*
X002173Y006750D01*
X002241Y006729D01*
X002308Y006705D01*
X002373Y006677D01*
X002437Y006646D01*
X002498Y006611D01*
X002558Y006573D01*
X002616Y006531D01*
X002671Y006487D01*
X002724Y006440D01*
X002774Y006389D01*
X002822Y006336D01*
X002866Y006281D01*
X002859Y006276D01*
X002814Y006331D01*
X002767Y006384D01*
X002716Y006435D01*
X002663Y006482D01*
X002607Y006527D01*
X002549Y006568D01*
X002489Y006606D01*
X002427Y006641D01*
X002363Y006672D01*
X002297Y006699D01*
X002230Y006723D01*
X002161Y006743D01*
X002092Y006760D01*
X002022Y006772D01*
X001951Y006781D01*
X001880Y006785D01*
X001809Y006786D01*
X001738Y006782D01*
X001667Y006775D01*
X001596Y006764D01*
X001527Y006749D01*
X001458Y006730D01*
X001390Y006707D01*
X001324Y006681D01*
X001259Y006651D01*
X001197Y006617D01*
X001136Y006581D01*
X001077Y006540D01*
X001020Y006497D01*
X000966Y006450D01*
X000915Y006401D01*
X000867Y006348D01*
X000821Y006294D01*
X000779Y006236D01*
X000740Y006177D01*
X000704Y006115D01*
X000671Y006052D01*
X000643Y005987D01*
X000617Y005920D01*
X000596Y005852D01*
X000578Y005783D01*
X000565Y005713D01*
X000555Y005642D01*
X000549Y005571D01*
X000547Y005500D01*
X000549Y005429D01*
X000555Y005358D01*
X000565Y005287D01*
X000578Y005217D01*
X000596Y005148D01*
X000617Y005080D01*
X000643Y005013D01*
X000671Y004948D01*
X000704Y004885D01*
X000740Y004823D01*
X000779Y004764D01*
X000821Y004706D01*
X000867Y004652D01*
X000915Y004599D01*
X000966Y004550D01*
X001020Y004503D01*
X001077Y004460D01*
X001136Y004419D01*
X001197Y004383D01*
X001259Y004349D01*
X001324Y004319D01*
X001390Y004293D01*
X001458Y004270D01*
X001527Y004251D01*
X001596Y004236D01*
X001667Y004225D01*
X001738Y004218D01*
X001809Y004214D01*
X001880Y004215D01*
X001951Y004219D01*
X002022Y004228D01*
X002092Y004240D01*
X002161Y004257D01*
X002230Y004277D01*
X002297Y004301D01*
X002363Y004328D01*
X002427Y004359D01*
X002489Y004394D01*
X002549Y004432D01*
X002607Y004473D01*
X002663Y004518D01*
X002716Y004565D01*
X002767Y004616D01*
X002814Y004669D01*
X002859Y004724D01*
X002852Y004730D01*
X002807Y004675D01*
X002760Y004622D01*
X002710Y004572D01*
X002657Y004525D01*
X002602Y004481D01*
X002544Y004439D01*
X002485Y004402D01*
X002423Y004367D01*
X002359Y004336D01*
X002294Y004309D01*
X002227Y004285D01*
X002159Y004265D01*
X002090Y004249D01*
X002021Y004237D01*
X001950Y004228D01*
X001880Y004224D01*
X001809Y004223D01*
X001738Y004227D01*
X001668Y004234D01*
X001598Y004245D01*
X001529Y004260D01*
X001461Y004279D01*
X001393Y004301D01*
X001328Y004327D01*
X001263Y004357D01*
X001201Y004390D01*
X001141Y004427D01*
X001082Y004467D01*
X001026Y004510D01*
X000972Y004556D01*
X000922Y004606D01*
X000873Y004657D01*
X000828Y004712D01*
X000786Y004769D01*
X000747Y004828D01*
X000712Y004889D01*
X000679Y004952D01*
X000651Y005017D01*
X000626Y005083D01*
X000605Y005151D01*
X000587Y005219D01*
X000574Y005289D01*
X000564Y005359D01*
X000558Y005429D01*
X000556Y005500D01*
X000558Y005571D01*
X000564Y005641D01*
X000574Y005711D01*
X000587Y005781D01*
X000605Y005849D01*
X000626Y005917D01*
X000651Y005983D01*
X000679Y006048D01*
X000712Y006111D01*
X000747Y006172D01*
X000786Y006231D01*
X000828Y006288D01*
X000873Y006343D01*
X000922Y006394D01*
X000972Y006444D01*
X001026Y006490D01*
X001082Y006533D01*
X001141Y006573D01*
X001201Y006610D01*
X001263Y006643D01*
X001328Y006673D01*
X001393Y006699D01*
X001461Y006721D01*
X001529Y006740D01*
X001598Y006755D01*
X001668Y006766D01*
X001738Y006773D01*
X001809Y006777D01*
X001880Y006776D01*
X001950Y006772D01*
X002021Y006763D01*
X002090Y006751D01*
X002159Y006735D01*
X002227Y006715D01*
X002294Y006691D01*
X002359Y006664D01*
X002423Y006633D01*
X002485Y006598D01*
X002544Y006561D01*
X002602Y006519D01*
X002657Y006475D01*
X002710Y006428D01*
X002760Y006378D01*
X002807Y006325D01*
X002852Y006270D01*
X002844Y006265D01*
X002800Y006320D01*
X002752Y006373D01*
X002702Y006423D01*
X002649Y006471D01*
X002593Y006515D01*
X002535Y006556D01*
X002475Y006593D01*
X002413Y006628D01*
X002349Y006658D01*
X002283Y006685D01*
X002216Y006709D01*
X002148Y006728D01*
X002078Y006744D01*
X002008Y006756D01*
X001938Y006764D01*
X001867Y006768D01*
X001796Y006767D01*
X001725Y006763D01*
X001654Y006755D01*
X001584Y006743D01*
X001515Y006727D01*
X001447Y006708D01*
X001379Y006684D01*
X001314Y006657D01*
X001250Y006626D01*
X001188Y006592D01*
X001128Y006554D01*
X001070Y006512D01*
X001014Y006468D01*
X000961Y006421D01*
X000911Y006370D01*
X000864Y006317D01*
X000819Y006262D01*
X000778Y006204D01*
X000741Y006144D01*
X000706Y006081D01*
X000675Y006017D01*
X000648Y005952D01*
X000625Y005885D01*
X000605Y005816D01*
X000589Y005747D01*
X000577Y005677D01*
X000569Y005606D01*
X000565Y005536D01*
X000565Y005464D01*
X000569Y005394D01*
X000577Y005323D01*
X000589Y005253D01*
X000605Y005184D01*
X000625Y005115D01*
X000648Y005048D01*
X000675Y004983D01*
X000706Y004919D01*
X000741Y004856D01*
X000778Y004796D01*
X000819Y004738D01*
X000864Y004683D01*
X000911Y004630D01*
X000961Y004579D01*
X001014Y004532D01*
X001070Y004488D01*
X001128Y004446D01*
X001188Y004408D01*
X001250Y004374D01*
X001314Y004343D01*
X001379Y004316D01*
X001447Y004292D01*
X001515Y004273D01*
X001584Y004257D01*
X001654Y004245D01*
X001725Y004237D01*
X001796Y004233D01*
X001867Y004232D01*
X001938Y004236D01*
X002008Y004244D01*
X002078Y004256D01*
X002148Y004272D01*
X002216Y004291D01*
X002283Y004315D01*
X002349Y004342D01*
X002413Y004372D01*
X002475Y004407D01*
X002535Y004444D01*
X002593Y004485D01*
X002649Y004529D01*
X002702Y004577D01*
X002752Y004627D01*
X002800Y004680D01*
X002844Y004735D01*
X002837Y004741D01*
X002793Y004686D01*
X002746Y004633D01*
X002696Y004583D01*
X002643Y004536D01*
X002588Y004492D01*
X002530Y004452D01*
X002471Y004414D01*
X002409Y004380D01*
X002345Y004350D01*
X002280Y004323D01*
X002213Y004300D01*
X002145Y004280D01*
X002077Y004265D01*
X002007Y004253D01*
X001937Y004245D01*
X001866Y004241D01*
X001796Y004242D01*
X001725Y004246D01*
X001655Y004254D01*
X001586Y004266D01*
X001517Y004281D01*
X001449Y004301D01*
X001383Y004324D01*
X001318Y004351D01*
X001254Y004382D01*
X001192Y004416D01*
X001133Y004454D01*
X001075Y004495D01*
X001020Y004539D01*
X000967Y004586D01*
X000918Y004636D01*
X000871Y004688D01*
X000827Y004744D01*
X000786Y004801D01*
X000748Y004861D01*
X000714Y004923D01*
X000684Y004986D01*
X000657Y005051D01*
X000633Y005118D01*
X000614Y005186D01*
X000598Y005255D01*
X000586Y005324D01*
X000578Y005394D01*
X000574Y005465D01*
X000574Y005535D01*
X000578Y005606D01*
X000586Y005676D01*
X000598Y005745D01*
X000614Y005814D01*
X000633Y005882D01*
X000657Y005949D01*
X000684Y006014D01*
X000714Y006077D01*
X000748Y006139D01*
X000786Y006199D01*
X000827Y006256D01*
X000871Y006312D01*
X000918Y006364D01*
X000967Y006414D01*
X001020Y006461D01*
X001075Y006505D01*
X001133Y006546D01*
X001192Y006584D01*
X001254Y006618D01*
X001318Y006649D01*
X001383Y006676D01*
X001449Y006699D01*
X001517Y006719D01*
X001586Y006734D01*
X001655Y006746D01*
X001725Y006754D01*
X001796Y006758D01*
X001866Y006759D01*
X001937Y006755D01*
X002007Y006747D01*
X002077Y006735D01*
X002145Y006720D01*
X002213Y006700D01*
X002280Y006677D01*
X002345Y006650D01*
X002409Y006620D01*
X002471Y006586D01*
X002530Y006548D01*
X002588Y006508D01*
X002643Y006464D01*
X002696Y006417D01*
X002746Y006367D01*
X002793Y006314D01*
X002837Y006259D01*
X002830Y006254D01*
X002786Y006309D01*
X002739Y006361D01*
X002690Y006410D01*
X002637Y006457D01*
X002583Y006500D01*
X002525Y006541D01*
X002466Y006578D01*
X002405Y006612D01*
X002341Y006642D01*
X002277Y006669D01*
X002210Y006692D01*
X002143Y006711D01*
X002075Y006726D01*
X002006Y006738D01*
X001936Y006746D01*
X001866Y006750D01*
X001796Y006749D01*
X001726Y006745D01*
X001657Y006737D01*
X001588Y006726D01*
X001519Y006710D01*
X001452Y006691D01*
X001386Y006667D01*
X001321Y006640D01*
X001258Y006610D01*
X001197Y006576D01*
X001138Y006539D01*
X001080Y006498D01*
X001026Y006454D01*
X000974Y006408D01*
X000924Y006358D01*
X000877Y006306D01*
X000834Y006251D01*
X000793Y006194D01*
X000756Y006135D01*
X000722Y006073D01*
X000692Y006010D01*
X000665Y005945D01*
X000642Y005879D01*
X000623Y005812D01*
X000607Y005744D01*
X000595Y005675D01*
X000587Y005605D01*
X000583Y005535D01*
X000583Y005465D01*
X000587Y005395D01*
X000595Y005325D01*
X000607Y005256D01*
X000623Y005188D01*
X000642Y005121D01*
X000665Y005055D01*
X000692Y004990D01*
X000722Y004927D01*
X000756Y004865D01*
X000793Y004806D01*
X000834Y004749D01*
X000877Y004694D01*
X000924Y004642D01*
X000974Y004592D01*
X001026Y004546D01*
X001080Y004502D01*
X001138Y004461D01*
X001197Y004424D01*
X001258Y004390D01*
X001321Y004360D01*
X001386Y004333D01*
X001452Y004309D01*
X001519Y004290D01*
X001588Y004274D01*
X001657Y004263D01*
X001726Y004255D01*
X001796Y004251D01*
X001866Y004250D01*
X001936Y004254D01*
X002006Y004262D01*
X002075Y004274D01*
X002143Y004289D01*
X002210Y004308D01*
X002277Y004331D01*
X002341Y004358D01*
X002405Y004388D01*
X002466Y004422D01*
X002525Y004459D01*
X002583Y004500D01*
X002637Y004543D01*
X002690Y004590D01*
X002739Y004639D01*
X002786Y004691D01*
X002830Y004746D01*
X002823Y004751D01*
X002779Y004697D01*
X002733Y004645D01*
X002684Y004596D01*
X002632Y004550D01*
X002577Y004507D01*
X002520Y004467D01*
X002461Y004430D01*
X002400Y004396D01*
X002338Y004366D01*
X002273Y004340D01*
X002208Y004317D01*
X002141Y004298D01*
X002073Y004282D01*
X002004Y004271D01*
X001935Y004263D01*
X001866Y004259D01*
X001796Y004260D01*
X001727Y004264D01*
X001658Y004271D01*
X001589Y004283D01*
X001522Y004299D01*
X001455Y004318D01*
X001389Y004341D01*
X001325Y004368D01*
X001262Y004398D01*
X001201Y004432D01*
X001143Y004469D01*
X001086Y004509D01*
X001032Y004552D01*
X000980Y004599D01*
X000931Y004648D01*
X000884Y004700D01*
X000841Y004754D01*
X000801Y004811D01*
X000764Y004870D01*
X000730Y004931D01*
X000700Y004994D01*
X000673Y005058D01*
X000650Y005123D01*
X000631Y005190D01*
X000616Y005258D01*
X000604Y005327D01*
X000596Y005396D01*
X000592Y005465D01*
X000592Y005535D01*
X000596Y005604D01*
X000604Y005673D01*
X000616Y005742D01*
X000631Y005810D01*
X000650Y005877D01*
X000673Y005942D01*
X000700Y006006D01*
X000730Y006069D01*
X000764Y006130D01*
X000801Y006189D01*
X000841Y006246D01*
X000884Y006300D01*
X000931Y006352D01*
X000980Y006401D01*
X001032Y006448D01*
X001086Y006491D01*
X001143Y006531D01*
X001201Y006568D01*
X001262Y006602D01*
X001325Y006632D01*
X001389Y006659D01*
X001455Y006682D01*
X001522Y006701D01*
X001589Y006717D01*
X001658Y006729D01*
X001727Y006736D01*
X001796Y006740D01*
X001866Y006741D01*
X001935Y006737D01*
X002004Y006729D01*
X002073Y006718D01*
X002141Y006702D01*
X002208Y006683D01*
X002273Y006660D01*
X002338Y006634D01*
X002400Y006604D01*
X002461Y006570D01*
X002520Y006533D01*
X002577Y006493D01*
X002632Y006450D01*
X002684Y006404D01*
X002733Y006355D01*
X002779Y006303D01*
X002823Y006249D01*
X002816Y006243D01*
X002772Y006297D01*
X002726Y006348D01*
X002677Y006397D01*
X002626Y006443D01*
X002572Y006486D01*
X002515Y006526D01*
X002457Y006562D01*
X002396Y006596D01*
X002334Y006626D01*
X002270Y006652D01*
X002205Y006674D01*
X002139Y006693D01*
X002071Y006709D01*
X002003Y006720D01*
X001935Y006728D01*
X001866Y006732D01*
X001797Y006731D01*
X001728Y006727D01*
X001659Y006720D01*
X001591Y006708D01*
X001524Y006693D01*
X001457Y006673D01*
X001392Y006650D01*
X001329Y006624D01*
X001266Y006594D01*
X001206Y006561D01*
X001148Y006524D01*
X001091Y006484D01*
X001037Y006441D01*
X000986Y006395D01*
X000937Y006346D01*
X000891Y006294D01*
X000848Y006240D01*
X000808Y006184D01*
X000772Y006125D01*
X000738Y006065D01*
X000708Y006003D01*
X000682Y005939D01*
X000659Y005874D01*
X000640Y005807D01*
X000625Y005740D01*
X000613Y005672D01*
X000605Y005603D01*
X000601Y005535D01*
X000601Y005465D01*
X000605Y005397D01*
X000613Y005328D01*
X000625Y005260D01*
X000640Y005193D01*
X000659Y005126D01*
X000682Y005061D01*
X000708Y004997D01*
X000738Y004935D01*
X000772Y004875D01*
X000808Y004816D01*
X000848Y004760D01*
X000891Y004706D01*
X000937Y004654D01*
X000986Y004605D01*
X001037Y004559D01*
X001091Y004516D01*
X001148Y004476D01*
X001206Y004439D01*
X001266Y004406D01*
X001329Y004376D01*
X001392Y004350D01*
X001457Y004327D01*
X001524Y004307D01*
X001591Y004292D01*
X001659Y004280D01*
X001728Y004273D01*
X001797Y004269D01*
X001866Y004268D01*
X001935Y004272D01*
X002003Y004280D01*
X002071Y004291D01*
X002139Y004307D01*
X002205Y004326D01*
X002270Y004348D01*
X002334Y004374D01*
X002396Y004404D01*
X002457Y004438D01*
X002515Y004474D01*
X002572Y004514D01*
X002626Y004557D01*
X002677Y004603D01*
X002726Y004652D01*
X002772Y004703D01*
X002816Y004757D01*
X002808Y004762D01*
X002765Y004708D01*
X002719Y004657D01*
X002669Y004608D01*
X002618Y004562D01*
X002563Y004519D01*
X002506Y004479D01*
X002448Y004443D01*
X002387Y004409D01*
X002324Y004380D01*
X002260Y004354D01*
X002194Y004332D01*
X002127Y004313D01*
X002060Y004298D01*
X001991Y004287D01*
X001922Y004280D01*
X001853Y004277D01*
X001784Y004278D01*
X001714Y004283D01*
X001646Y004291D01*
X001578Y004304D01*
X001510Y004320D01*
X001444Y004341D01*
X001379Y004364D01*
X001315Y004392D01*
X001253Y004423D01*
X001193Y004458D01*
X001135Y004496D01*
X001079Y004537D01*
X001026Y004581D01*
X000975Y004628D01*
X000927Y004678D01*
X000882Y004731D01*
X000840Y004786D01*
X000801Y004843D01*
X000766Y004903D01*
X000734Y004964D01*
X000705Y005027D01*
X000680Y005092D01*
X000659Y005158D01*
X000641Y005225D01*
X000628Y005293D01*
X000618Y005362D01*
X000612Y005431D01*
X000610Y005500D01*
X000612Y005569D01*
X000618Y005638D01*
X000628Y005707D01*
X000641Y005775D01*
X000659Y005842D01*
X000680Y005908D01*
X000705Y005973D01*
X000734Y006036D01*
X000766Y006097D01*
X000801Y006157D01*
X000840Y006214D01*
X000882Y006269D01*
X000927Y006322D01*
X000975Y006372D01*
X001026Y006419D01*
X001079Y006463D01*
X001135Y006504D01*
X001193Y006542D01*
X001253Y006577D01*
X001315Y006608D01*
X001379Y006636D01*
X001444Y006659D01*
X001510Y006680D01*
X001578Y006696D01*
X001646Y006709D01*
X001714Y006717D01*
X001784Y006722D01*
X001853Y006723D01*
X001922Y006720D01*
X001991Y006713D01*
X002060Y006702D01*
X002127Y006687D01*
X002194Y006668D01*
X002260Y006646D01*
X002324Y006620D01*
X002387Y006591D01*
X002448Y006557D01*
X002506Y006521D01*
X002563Y006481D01*
X002618Y006438D01*
X002669Y006392D01*
X002719Y006343D01*
X002765Y006292D01*
X002808Y006238D01*
X002801Y006232D01*
X002758Y006286D01*
X002712Y006337D01*
X002663Y006386D01*
X002612Y006431D01*
X002558Y006474D01*
X002501Y006513D01*
X002443Y006550D01*
X002383Y006583D01*
X002320Y006612D01*
X002257Y006638D01*
X002191Y006660D01*
X002125Y006678D01*
X002058Y006693D01*
X001990Y006704D01*
X001921Y006711D01*
X001853Y006714D01*
X001784Y006713D01*
X001715Y006708D01*
X001647Y006700D01*
X001579Y006687D01*
X001513Y006671D01*
X001447Y006651D01*
X001382Y006627D01*
X001319Y006600D01*
X001258Y006569D01*
X001198Y006535D01*
X001140Y006497D01*
X001085Y006456D01*
X001032Y006412D01*
X000982Y006365D01*
X000934Y006316D01*
X000889Y006264D01*
X000847Y006209D01*
X000809Y006152D01*
X000774Y006093D01*
X000742Y006032D01*
X000713Y005969D01*
X000689Y005905D01*
X000667Y005839D01*
X000650Y005773D01*
X000637Y005705D01*
X000627Y005637D01*
X000621Y005569D01*
X000619Y005500D01*
X000621Y005431D01*
X000627Y005363D01*
X000637Y005295D01*
X000650Y005227D01*
X000667Y005161D01*
X000689Y005095D01*
X000713Y005031D01*
X000742Y004968D01*
X000774Y004907D01*
X000809Y004848D01*
X000847Y004791D01*
X000889Y004736D01*
X000934Y004684D01*
X000982Y004635D01*
X001032Y004588D01*
X001085Y004544D01*
X001140Y004503D01*
X001198Y004465D01*
X001258Y004431D01*
X001319Y004400D01*
X001382Y004373D01*
X001447Y004349D01*
X001513Y004329D01*
X001579Y004313D01*
X001647Y004300D01*
X001715Y004292D01*
X001784Y004287D01*
X001853Y004286D01*
X001921Y004289D01*
X001990Y004296D01*
X002058Y004307D01*
X002125Y004322D01*
X002191Y004340D01*
X002257Y004362D01*
X002320Y004388D01*
X002383Y004417D01*
X002443Y004450D01*
X002501Y004487D01*
X002558Y004526D01*
X002612Y004569D01*
X002663Y004614D01*
X002712Y004663D01*
X002758Y004714D01*
X002801Y004768D01*
M02*
