%
M48
M72
T01C0.0320
T02C0.0354
T03C0.0400
T04C0.1260
%
T01
X1333Y5500
X2333Y5500
X3833Y5500
X4833Y5500
T02
X6333Y5650
X6333Y6550
X6333Y7500
X9333Y7500
X9333Y6550
X9333Y5650
T03
X10443Y6680
X10333Y7500
X11333Y7500
X12333Y7500
X13333Y7500
X14333Y7500
X15333Y7500
X15333Y8500
X14333Y8500
X13333Y8500
X12333Y8500
X11333Y8500
X10333Y8500
X9333Y8500
X8333Y8500
X7333Y8500
X6333Y8500
X5333Y8500
X4333Y8500
X3333Y8500
X2333Y8500
X1333Y8500
X1333Y7500
X2333Y7500
X3333Y7500
X4333Y7500
X5333Y7500
X5333Y9500
X4333Y9500
X3333Y9500
X2333Y9500
X1333Y9500
X2333Y10500
X3333Y10500
X4333Y10500
X5333Y10500
X6333Y10500
X7333Y10500
X8333Y10500
X9333Y10500
X10333Y10500
X11333Y10500
X12333Y10500
X13333Y10500
X14333Y10500
X15333Y10500
X16333Y10500
X17333Y10500
X18333Y10500
X19333Y10500
X20333Y10500
X21333Y10500
X22333Y10500
X23333Y10500
X24333Y10500
X25333Y10500
X26333Y10500
X27333Y10500
X28333Y10500
X29333Y10500
X30333Y10500
X31333Y10500
X32333Y10500
X33333Y10500
X34333Y10500
X34333Y9500
X33333Y9500
X32333Y9500
X31333Y9500
X30333Y9500
X29333Y9500
X28333Y9500
X27333Y9500
X26333Y9500
X25333Y9500
X24333Y9500
X23333Y9500
X22333Y9500
X21333Y9500
X20333Y9500
X19333Y9500
X18333Y9500
X17333Y9500
X16333Y9500
X15333Y9500
X14333Y9500
X13333Y9500
X12333Y9500
X11333Y9500
X10333Y9500
X9333Y9500
X8333Y9500
X7333Y9500
X6333Y9500
X6333Y11500
X5333Y11500
X4333Y11500
X3333Y11500
X2333Y11500
X2333Y12500
X3333Y12500
X4333Y12500
X5333Y12500
X6333Y12500
X7333Y12500
X8333Y12500
X9333Y12500
X10333Y12500
X11333Y12500
X12333Y12500
X13333Y12500
X14333Y12500
X15333Y12500
X16333Y12500
X17333Y12500
X18333Y12500
X19333Y12500
X20333Y12500
X21333Y12500
X22333Y12500
X23333Y12500
X24333Y12500
X25333Y12500
X26333Y12500
X27333Y12500
X28333Y12500
X29333Y12500
X30333Y12500
X31333Y12500
X32333Y12500
X33333Y12500
X34333Y12500
X34333Y11500
X33333Y11500
X32333Y11500
X31333Y11500
X30333Y11500
X29333Y11500
X28333Y11500
X27333Y11500
X26333Y11500
X25333Y11500
X24333Y11500
X23333Y11500
X22333Y11500
X21333Y11500
X20333Y11500
X19333Y11500
X18333Y11500
X17333Y11500
X16333Y11500
X15333Y11500
X14333Y11500
X13333Y11500
X12333Y11500
X11333Y11500
X10333Y11500
X9333Y11500
X8333Y11500
X7333Y11500
X7333Y13500
X8333Y13500
X9333Y13500
X10333Y13500
X11333Y13500
X12333Y13500
X13333Y13500
X14333Y13500
X15333Y13500
X16333Y13500
X17333Y13500
X18333Y13500
X19333Y13500
X20333Y13500
X21333Y13500
X22333Y13500
X23333Y13500
X24333Y13500
X25333Y13500
X26333Y13500
X27333Y13500
X28333Y13500
X29333Y13500
X30333Y13500
X31333Y13500
X32333Y13500
X33333Y13500
X34333Y13500
X34333Y14500
X33333Y14500
X32333Y14500
X31333Y14500
X30333Y14500
X29333Y14500
X28333Y14500
X27333Y14500
X26333Y14500
X25333Y14500
X24333Y14500
X23333Y14500
X22333Y14500
X21333Y14500
X20333Y14500
X19333Y14500
X18333Y14500
X17333Y14500
X16333Y14500
X15333Y14500
X14333Y14500
X13333Y14500
X12333Y14500
X11333Y14500
X10333Y14500
X9333Y14500
X8333Y14500
X7333Y14500
X6333Y14500
X5333Y14500
X4333Y14500
X3333Y14500
X3333Y13500
X2333Y13500
X4333Y13500
X5333Y13500
X6333Y13500
X6333Y15500
X5333Y15500
X4333Y15500
X3333Y15500
X2333Y15500
X2333Y16500
X3333Y16500
X4333Y16500
X5333Y16500
X6333Y16500
X7333Y16500
X8333Y16500
X9333Y16500
X10333Y16500
X11333Y16500
X12333Y16500
X13333Y16500
X14333Y16500
X15333Y16500
X16333Y16500
X17333Y16500
X18333Y16500
X19333Y16500
X20333Y16500
X21333Y16500
X22333Y16500
X23333Y16500
X24333Y16500
X25333Y16500
X26333Y16500
X27333Y16500
X28333Y16500
X29333Y16500
X30333Y16500
X31333Y16500
X32333Y16500
X33333Y16500
X34333Y16500
X34333Y15500
X33333Y15500
X32333Y15500
X31333Y15500
X30333Y15500
X29333Y15500
X28333Y15500
X27333Y15500
X26333Y15500
X25333Y15500
X24333Y15500
X23333Y15500
X22333Y15500
X21333Y15500
X20333Y15500
X19333Y15500
X18333Y15500
X17333Y15500
X16333Y15500
X15333Y15500
X14333Y15500
X13333Y15500
X12333Y15500
X11333Y15500
X10333Y15500
X9333Y15500
X8333Y15500
X7333Y15500
X7333Y17500
X8333Y17500
X9333Y17500
X10333Y17500
X11333Y17500
X12333Y17500
X13333Y17500
X14333Y17500
X15333Y17500
X16333Y17500
X17333Y17500
X18333Y17500
X19333Y17500
X20333Y17500
X21333Y17500
X22333Y17500
X23333Y17500
X24333Y17500
X25333Y17500
X26333Y17500
X27333Y17500
X28333Y17500
X29333Y17500
X30333Y17500
X31333Y17500
X32333Y17500
X33333Y17500
X34333Y17500
X37283Y17500
X38283Y17500
X38383Y16500
X37383Y16500
X37283Y15500
X38283Y15500
X38383Y14500
X37383Y14500
X37283Y13500
X38283Y13500
X38383Y12500
X37383Y12500
X37283Y11500
X38283Y11500
X38383Y10500
X37383Y10500
X37283Y9500
X38283Y9500
X38383Y8500
X37383Y8500
X37283Y7500
X38283Y7500
X38403Y6500
X37263Y6500
X35333Y4550
X36333Y4450
X34333Y4450
X33333Y4550
X32333Y4450
X31333Y4550
X30333Y4450
X29333Y4550
X27333Y4450
X26333Y4550
X25333Y4450
X24333Y4550
X23333Y4450
X22333Y4550
X21333Y4450
X20333Y4550
X18333Y4400
X17333Y4500
X16333Y4400
X15333Y4500
X14333Y4400
X13333Y4500
X12223Y4120
X10443Y4120
X12223Y6680
X16333Y8500
X17333Y8500
X18333Y8500
X19333Y8500
X20333Y8500
X21333Y8500
X22333Y8500
X23333Y8500
X24333Y8500
X25333Y8500
X26333Y8500
X27333Y8500
X28333Y8500
X29333Y8500
X30333Y8500
X31333Y8500
X32333Y8500
X33333Y8500
X34333Y8500
X30333Y7500
X29333Y7500
X28333Y7500
X27333Y7500
X26333Y7500
X25333Y7500
X24333Y7500
X23333Y7500
X22333Y7500
X21333Y7500
X20333Y7500
X18383Y7000
X17283Y7000
X6333Y17500
X5333Y17500
X4333Y17500
X3333Y17500
X2333Y17500
X2333Y18500
X1333Y18500
X1333Y19500
X2333Y19500
X3333Y19500
X4333Y19500
X5333Y19500
X6333Y19500
X7333Y19500
X8333Y19500
X9333Y19500
X10333Y19500
X11333Y19500
X12333Y19500
X13333Y19500
X14333Y19500
X15333Y19500
X16333Y19500
X17333Y19500
X18333Y19500
X19333Y19500
X20333Y19500
X21333Y19500
X22333Y19500
X23333Y19500
X23333Y18500
X24333Y18500
X25333Y18500
X26333Y18500
X27333Y18500
X28333Y18500
X29333Y18500
X30333Y18500
X37283Y19500
X38283Y19500
X38383Y18500
X37383Y18500
X37383Y20500
X38383Y20500
X38283Y21500
X37283Y21500
X37383Y22500
X38383Y22500
X38403Y23500
X37263Y23500
X34333Y23450
X33333Y23550
X32333Y23450
X31333Y23550
X30333Y23450
X29333Y23550
X28333Y23450
X27333Y23550
X25333Y23450
X24333Y23550
X23333Y23450
X22333Y23550
X21333Y23450
X20333Y23550
X19333Y23450
X18333Y23550
X16833Y23450
X15833Y23550
X14833Y23450
X13833Y23550
X12833Y23450
X11833Y23550
X10833Y23450
X9833Y23550
X8333Y23500
X8333Y22500
X7333Y22500
X7333Y21500
X8333Y21500
X8333Y20500
X7333Y20500
X6333Y20500
X5333Y20500
X4333Y20500
X3333Y20500
X2333Y20500
X1333Y20500
X1333Y21500
X2333Y21500
X3333Y21500
X4333Y21500
X5333Y21500
X6333Y21500
X5333Y22500
X4333Y22500
X3333Y22500
X2333Y22500
X1333Y22500
X1333Y23500
X2333Y23500
X3333Y23500
X4333Y23500
X9333Y20500
X10333Y20500
X11333Y20500
X12333Y20500
X13333Y20500
X14333Y20500
X15333Y20500
X16333Y20500
X17333Y20500
X18333Y20500
X19333Y20500
X20333Y20500
X21333Y20500
X22333Y20500
X23333Y20500
X22333Y18500
X21333Y18500
X20333Y18500
X19333Y18500
X18333Y18500
X17333Y18500
X16333Y18500
X15333Y18500
X14333Y18500
X13333Y18500
X12333Y18500
X11333Y18500
X10333Y18500
X9333Y18500
X8333Y18500
X7333Y18500
X6333Y18500
X5333Y18500
X4333Y18500
X3333Y18500
T04
X6333Y4500
X38333Y4500
X35833Y23500
X6333Y23500
M30
