G75*
%MOIN*%
%OFA0B0*%
%FSLAX24Y24*%
%IPPOS*%
%LPD*%
%AMOC8*
5,1,8,0,0,1.08239X$1,22.5*
%
%ADD10C,0.0080*%
%ADD11C,0.0000*%
%ADD12R,0.0740X0.0740*%
%ADD13C,0.0740*%
%ADD14C,0.0640*%
%ADD15C,0.0100*%
%ADD16C,0.0240*%
%ADD17C,0.0320*%
D10*
X000333Y003500D02*
X000333Y024500D01*
X038333Y024500D01*
X039333Y023500D01*
X039333Y019500D01*
X040333Y018500D01*
X040333Y005000D01*
X039333Y004000D01*
X039333Y003500D01*
X000333Y003500D01*
X014333Y004400D02*
X014333Y004500D01*
X014333Y004400D01*
X018333Y004400D02*
X018333Y004500D01*
X020333Y004550D02*
X020333Y004500D01*
X021333Y004500D02*
X021333Y004450D01*
X021333Y004500D01*
X022333Y004500D02*
X022333Y004550D01*
X023333Y004500D02*
X023333Y004450D01*
X023333Y004500D01*
X024333Y004500D02*
X024333Y004550D01*
X025333Y004500D02*
X025333Y004450D01*
X025333Y004500D01*
X026333Y004500D02*
X026333Y004550D01*
X027333Y004500D02*
X027333Y004450D01*
X027333Y004500D01*
X029333Y004550D02*
X029333Y004500D01*
X030333Y004500D02*
X030333Y004450D01*
X030333Y004500D01*
X031333Y004500D02*
X031333Y004550D01*
X032333Y004500D02*
X032333Y004450D01*
X032333Y004500D01*
X033333Y004500D02*
X033333Y004550D01*
X034333Y004500D02*
X034333Y004450D01*
X034333Y004500D01*
X035333Y004500D02*
X035333Y004550D01*
X036333Y004500D02*
X036333Y004450D01*
X036333Y004500D01*
X034333Y023450D02*
X034333Y023500D01*
X033333Y023500D02*
X033333Y023550D01*
X033333Y023500D01*
X032333Y023500D02*
X032333Y023450D01*
X031333Y023500D02*
X031333Y023550D01*
X031333Y023500D01*
X030333Y023500D02*
X030333Y023450D01*
X029333Y023500D02*
X029333Y023550D01*
X029333Y023500D01*
X028333Y023500D02*
X028333Y023450D01*
X027333Y023500D02*
X027333Y023550D01*
X027333Y023500D01*
X025333Y023450D02*
X025333Y023500D01*
X024333Y023500D02*
X024333Y023550D01*
X024333Y023500D01*
X023333Y023500D02*
X023333Y023450D01*
X022333Y023500D02*
X022333Y023550D01*
X022333Y023500D01*
X021333Y023500D02*
X021333Y023450D01*
X020333Y023500D02*
X020333Y023550D01*
X020333Y023500D01*
X019333Y023500D02*
X019333Y023450D01*
X018333Y023500D02*
X018333Y023550D01*
X018333Y023500D01*
X016833Y023450D02*
X016833Y023500D01*
X015833Y023500D02*
X015833Y023550D01*
X015833Y023500D01*
X014833Y023500D02*
X014833Y023450D01*
X013833Y023500D02*
X013833Y023550D01*
X013833Y023500D01*
X012833Y023500D02*
X012833Y023450D01*
X009833Y023500D02*
X009833Y023550D01*
X009833Y023500D01*
D11*
X005703Y023500D02*
X005705Y023550D01*
X005711Y023600D01*
X005721Y023649D01*
X005735Y023697D01*
X005752Y023744D01*
X005773Y023789D01*
X005798Y023833D01*
X005826Y023874D01*
X005858Y023913D01*
X005892Y023950D01*
X005929Y023984D01*
X005969Y024014D01*
X006011Y024041D01*
X006055Y024065D01*
X006101Y024086D01*
X006148Y024102D01*
X006196Y024115D01*
X006246Y024124D01*
X006295Y024129D01*
X006346Y024130D01*
X006396Y024127D01*
X006445Y024120D01*
X006494Y024109D01*
X006542Y024094D01*
X006588Y024076D01*
X006633Y024054D01*
X006676Y024028D01*
X006717Y023999D01*
X006756Y023967D01*
X006792Y023932D01*
X006824Y023894D01*
X006854Y023854D01*
X006881Y023811D01*
X006904Y023767D01*
X006923Y023721D01*
X006939Y023673D01*
X006951Y023624D01*
X006959Y023575D01*
X006963Y023525D01*
X006963Y023475D01*
X006959Y023425D01*
X006951Y023376D01*
X006939Y023327D01*
X006923Y023279D01*
X006904Y023233D01*
X006881Y023189D01*
X006854Y023146D01*
X006824Y023106D01*
X006792Y023068D01*
X006756Y023033D01*
X006717Y023001D01*
X006676Y022972D01*
X006633Y022946D01*
X006588Y022924D01*
X006542Y022906D01*
X006494Y022891D01*
X006445Y022880D01*
X006396Y022873D01*
X006346Y022870D01*
X006295Y022871D01*
X006246Y022876D01*
X006196Y022885D01*
X006148Y022898D01*
X006101Y022914D01*
X006055Y022935D01*
X006011Y022959D01*
X005969Y022986D01*
X005929Y023016D01*
X005892Y023050D01*
X005858Y023087D01*
X005826Y023126D01*
X005798Y023167D01*
X005773Y023211D01*
X005752Y023256D01*
X005735Y023303D01*
X005721Y023351D01*
X005711Y023400D01*
X005705Y023450D01*
X005703Y023500D01*
X035203Y023500D02*
X035205Y023550D01*
X035211Y023600D01*
X035221Y023649D01*
X035235Y023697D01*
X035252Y023744D01*
X035273Y023789D01*
X035298Y023833D01*
X035326Y023874D01*
X035358Y023913D01*
X035392Y023950D01*
X035429Y023984D01*
X035469Y024014D01*
X035511Y024041D01*
X035555Y024065D01*
X035601Y024086D01*
X035648Y024102D01*
X035696Y024115D01*
X035746Y024124D01*
X035795Y024129D01*
X035846Y024130D01*
X035896Y024127D01*
X035945Y024120D01*
X035994Y024109D01*
X036042Y024094D01*
X036088Y024076D01*
X036133Y024054D01*
X036176Y024028D01*
X036217Y023999D01*
X036256Y023967D01*
X036292Y023932D01*
X036324Y023894D01*
X036354Y023854D01*
X036381Y023811D01*
X036404Y023767D01*
X036423Y023721D01*
X036439Y023673D01*
X036451Y023624D01*
X036459Y023575D01*
X036463Y023525D01*
X036463Y023475D01*
X036459Y023425D01*
X036451Y023376D01*
X036439Y023327D01*
X036423Y023279D01*
X036404Y023233D01*
X036381Y023189D01*
X036354Y023146D01*
X036324Y023106D01*
X036292Y023068D01*
X036256Y023033D01*
X036217Y023001D01*
X036176Y022972D01*
X036133Y022946D01*
X036088Y022924D01*
X036042Y022906D01*
X035994Y022891D01*
X035945Y022880D01*
X035896Y022873D01*
X035846Y022870D01*
X035795Y022871D01*
X035746Y022876D01*
X035696Y022885D01*
X035648Y022898D01*
X035601Y022914D01*
X035555Y022935D01*
X035511Y022959D01*
X035469Y022986D01*
X035429Y023016D01*
X035392Y023050D01*
X035358Y023087D01*
X035326Y023126D01*
X035298Y023167D01*
X035273Y023211D01*
X035252Y023256D01*
X035235Y023303D01*
X035221Y023351D01*
X035211Y023400D01*
X035205Y023450D01*
X035203Y023500D01*
X037703Y004500D02*
X037705Y004550D01*
X037711Y004600D01*
X037721Y004649D01*
X037735Y004697D01*
X037752Y004744D01*
X037773Y004789D01*
X037798Y004833D01*
X037826Y004874D01*
X037858Y004913D01*
X037892Y004950D01*
X037929Y004984D01*
X037969Y005014D01*
X038011Y005041D01*
X038055Y005065D01*
X038101Y005086D01*
X038148Y005102D01*
X038196Y005115D01*
X038246Y005124D01*
X038295Y005129D01*
X038346Y005130D01*
X038396Y005127D01*
X038445Y005120D01*
X038494Y005109D01*
X038542Y005094D01*
X038588Y005076D01*
X038633Y005054D01*
X038676Y005028D01*
X038717Y004999D01*
X038756Y004967D01*
X038792Y004932D01*
X038824Y004894D01*
X038854Y004854D01*
X038881Y004811D01*
X038904Y004767D01*
X038923Y004721D01*
X038939Y004673D01*
X038951Y004624D01*
X038959Y004575D01*
X038963Y004525D01*
X038963Y004475D01*
X038959Y004425D01*
X038951Y004376D01*
X038939Y004327D01*
X038923Y004279D01*
X038904Y004233D01*
X038881Y004189D01*
X038854Y004146D01*
X038824Y004106D01*
X038792Y004068D01*
X038756Y004033D01*
X038717Y004001D01*
X038676Y003972D01*
X038633Y003946D01*
X038588Y003924D01*
X038542Y003906D01*
X038494Y003891D01*
X038445Y003880D01*
X038396Y003873D01*
X038346Y003870D01*
X038295Y003871D01*
X038246Y003876D01*
X038196Y003885D01*
X038148Y003898D01*
X038101Y003914D01*
X038055Y003935D01*
X038011Y003959D01*
X037969Y003986D01*
X037929Y004016D01*
X037892Y004050D01*
X037858Y004087D01*
X037826Y004126D01*
X037798Y004167D01*
X037773Y004211D01*
X037752Y004256D01*
X037735Y004303D01*
X037721Y004351D01*
X037711Y004400D01*
X037705Y004450D01*
X037703Y004500D01*
X005703Y004500D02*
X005705Y004550D01*
X005711Y004600D01*
X005721Y004649D01*
X005735Y004697D01*
X005752Y004744D01*
X005773Y004789D01*
X005798Y004833D01*
X005826Y004874D01*
X005858Y004913D01*
X005892Y004950D01*
X005929Y004984D01*
X005969Y005014D01*
X006011Y005041D01*
X006055Y005065D01*
X006101Y005086D01*
X006148Y005102D01*
X006196Y005115D01*
X006246Y005124D01*
X006295Y005129D01*
X006346Y005130D01*
X006396Y005127D01*
X006445Y005120D01*
X006494Y005109D01*
X006542Y005094D01*
X006588Y005076D01*
X006633Y005054D01*
X006676Y005028D01*
X006717Y004999D01*
X006756Y004967D01*
X006792Y004932D01*
X006824Y004894D01*
X006854Y004854D01*
X006881Y004811D01*
X006904Y004767D01*
X006923Y004721D01*
X006939Y004673D01*
X006951Y004624D01*
X006959Y004575D01*
X006963Y004525D01*
X006963Y004475D01*
X006959Y004425D01*
X006951Y004376D01*
X006939Y004327D01*
X006923Y004279D01*
X006904Y004233D01*
X006881Y004189D01*
X006854Y004146D01*
X006824Y004106D01*
X006792Y004068D01*
X006756Y004033D01*
X006717Y004001D01*
X006676Y003972D01*
X006633Y003946D01*
X006588Y003924D01*
X006542Y003906D01*
X006494Y003891D01*
X006445Y003880D01*
X006396Y003873D01*
X006346Y003870D01*
X006295Y003871D01*
X006246Y003876D01*
X006196Y003885D01*
X006148Y003898D01*
X006101Y003914D01*
X006055Y003935D01*
X006011Y003959D01*
X005969Y003986D01*
X005929Y004016D01*
X005892Y004050D01*
X005858Y004087D01*
X005826Y004126D01*
X005798Y004167D01*
X005773Y004211D01*
X005752Y004256D01*
X005735Y004303D01*
X005721Y004351D01*
X005711Y004400D01*
X005705Y004450D01*
X005703Y004500D01*
D12*
X018383Y007000D03*
X020333Y004550D03*
X029333Y004550D03*
X025333Y023450D03*
X027333Y023550D03*
X016833Y023450D03*
D13*
X015833Y023550D03*
X014833Y023450D03*
X013833Y023550D03*
X012833Y023450D03*
X011833Y023550D03*
X010833Y023450D03*
X009833Y023550D03*
X008333Y023500D03*
X008333Y022500D03*
X007333Y022500D03*
X007333Y021500D03*
X008333Y021500D03*
X008333Y020500D03*
X007333Y020500D03*
X006333Y020500D03*
X005333Y020500D03*
X004333Y020500D03*
X003333Y020500D03*
X002333Y020500D03*
X001333Y020500D03*
X001333Y019500D03*
X002333Y019500D03*
X003333Y019500D03*
X004333Y019500D03*
X005333Y019500D03*
X006333Y019500D03*
X007333Y019500D03*
X008333Y019500D03*
X009333Y019500D03*
X010333Y019500D03*
X011333Y019500D03*
X012333Y019500D03*
X013333Y019500D03*
X014333Y019500D03*
X015333Y019500D03*
X016333Y019500D03*
X017333Y019500D03*
X018333Y019500D03*
X019333Y019500D03*
X020333Y019500D03*
X021333Y019500D03*
X022333Y019500D03*
X023333Y019500D03*
X023333Y018500D03*
X024333Y018500D03*
X025333Y018500D03*
X026333Y018500D03*
X027333Y018500D03*
X028333Y018500D03*
X029333Y018500D03*
X030333Y018500D03*
X030333Y017500D03*
X029333Y017500D03*
X028333Y017500D03*
X027333Y017500D03*
X026333Y017500D03*
X025333Y017500D03*
X024333Y017500D03*
X023333Y017500D03*
X022333Y017500D03*
X021333Y017500D03*
X020333Y017500D03*
X019333Y017500D03*
X018333Y017500D03*
X017333Y017500D03*
X016333Y017500D03*
X015333Y017500D03*
X014333Y017500D03*
X013333Y017500D03*
X012333Y017500D03*
X011333Y017500D03*
X010333Y017500D03*
X009333Y017500D03*
X008333Y017500D03*
X007333Y017500D03*
X006333Y017500D03*
X005333Y017500D03*
X004333Y017500D03*
X003333Y017500D03*
X002333Y017500D03*
X002333Y016500D03*
X003333Y016500D03*
X004333Y016500D03*
X005333Y016500D03*
X006333Y016500D03*
X007333Y016500D03*
X008333Y016500D03*
X009333Y016500D03*
X010333Y016500D03*
X011333Y016500D03*
X012333Y016500D03*
X013333Y016500D03*
X014333Y016500D03*
X015333Y016500D03*
X016333Y016500D03*
X017333Y016500D03*
X018333Y016500D03*
X019333Y016500D03*
X020333Y016500D03*
X021333Y016500D03*
X022333Y016500D03*
X023333Y016500D03*
X024333Y016500D03*
X025333Y016500D03*
X026333Y016500D03*
X027333Y016500D03*
X028333Y016500D03*
X029333Y016500D03*
X030333Y016500D03*
X031333Y016500D03*
X032333Y016500D03*
X033333Y016500D03*
X034333Y016500D03*
X034333Y015500D03*
X033333Y015500D03*
X032333Y015500D03*
X031333Y015500D03*
X030333Y015500D03*
X029333Y015500D03*
X028333Y015500D03*
X027333Y015500D03*
X026333Y015500D03*
X025333Y015500D03*
X024333Y015500D03*
X023333Y015500D03*
X022333Y015500D03*
X021333Y015500D03*
X020333Y015500D03*
X019333Y015500D03*
X018333Y015500D03*
X017333Y015500D03*
X016333Y015500D03*
X015333Y015500D03*
X014333Y015500D03*
X013333Y015500D03*
X012333Y015500D03*
X011333Y015500D03*
X010333Y015500D03*
X009333Y015500D03*
X008333Y015500D03*
X007333Y015500D03*
X006333Y015500D03*
X005333Y015500D03*
X004333Y015500D03*
X003333Y015500D03*
X002333Y015500D03*
X003333Y014500D03*
X004333Y014500D03*
X005333Y014500D03*
X006333Y014500D03*
X007333Y014500D03*
X008333Y014500D03*
X009333Y014500D03*
X010333Y014500D03*
X011333Y014500D03*
X012333Y014500D03*
X013333Y014500D03*
X014333Y014500D03*
X015333Y014500D03*
X016333Y014500D03*
X017333Y014500D03*
X018333Y014500D03*
X019333Y014500D03*
X020333Y014500D03*
X021333Y014500D03*
X022333Y014500D03*
X023333Y014500D03*
X024333Y014500D03*
X025333Y014500D03*
X026333Y014500D03*
X027333Y014500D03*
X028333Y014500D03*
X029333Y014500D03*
X030333Y014500D03*
X031333Y014500D03*
X032333Y014500D03*
X033333Y014500D03*
X034333Y014500D03*
X034333Y013500D03*
X033333Y013500D03*
X032333Y013500D03*
X031333Y013500D03*
X030333Y013500D03*
X029333Y013500D03*
X028333Y013500D03*
X027333Y013500D03*
X026333Y013500D03*
X025333Y013500D03*
X024333Y013500D03*
X023333Y013500D03*
X022333Y013500D03*
X021333Y013500D03*
X020333Y013500D03*
X019333Y013500D03*
X018333Y013500D03*
X017333Y013500D03*
X016333Y013500D03*
X015333Y013500D03*
X014333Y013500D03*
X013333Y013500D03*
X012333Y013500D03*
X011333Y013500D03*
X010333Y013500D03*
X009333Y013500D03*
X008333Y013500D03*
X007333Y013500D03*
X006333Y013500D03*
X005333Y013500D03*
X004333Y013500D03*
X003333Y013500D03*
X002333Y013500D03*
X002333Y012500D03*
X003333Y012500D03*
X004333Y012500D03*
X005333Y012500D03*
X006333Y012500D03*
X007333Y012500D03*
X008333Y012500D03*
X009333Y012500D03*
X010333Y012500D03*
X011333Y012500D03*
X012333Y012500D03*
X013333Y012500D03*
X014333Y012500D03*
X015333Y012500D03*
X016333Y012500D03*
X017333Y012500D03*
X018333Y012500D03*
X019333Y012500D03*
X020333Y012500D03*
X021333Y012500D03*
X022333Y012500D03*
X023333Y012500D03*
X024333Y012500D03*
X025333Y012500D03*
X026333Y012500D03*
X027333Y012500D03*
X028333Y012500D03*
X029333Y012500D03*
X030333Y012500D03*
X031333Y012500D03*
X032333Y012500D03*
X033333Y012500D03*
X034333Y012500D03*
X034333Y011500D03*
X033333Y011500D03*
X032333Y011500D03*
X031333Y011500D03*
X030333Y011500D03*
X029333Y011500D03*
X028333Y011500D03*
X027333Y011500D03*
X026333Y011500D03*
X025333Y011500D03*
X024333Y011500D03*
X023333Y011500D03*
X022333Y011500D03*
X021333Y011500D03*
X020333Y011500D03*
X019333Y011500D03*
X018333Y011500D03*
X017333Y011500D03*
X016333Y011500D03*
X015333Y011500D03*
X014333Y011500D03*
X013333Y011500D03*
X012333Y011500D03*
X011333Y011500D03*
X010333Y011500D03*
X009333Y011500D03*
X008333Y011500D03*
X007333Y011500D03*
X006333Y011500D03*
X005333Y011500D03*
X004333Y011500D03*
X003333Y011500D03*
X002333Y011500D03*
X002333Y010500D03*
X003333Y010500D03*
X004333Y010500D03*
X005333Y010500D03*
X006333Y010500D03*
X007333Y010500D03*
X008333Y010500D03*
X009333Y010500D03*
X010333Y010500D03*
X011333Y010500D03*
X012333Y010500D03*
X013333Y010500D03*
X014333Y010500D03*
X015333Y010500D03*
X016333Y010500D03*
X017333Y010500D03*
X018333Y010500D03*
X019333Y010500D03*
X020333Y010500D03*
X021333Y010500D03*
X022333Y010500D03*
X023333Y010500D03*
X024333Y010500D03*
X025333Y010500D03*
X026333Y010500D03*
X027333Y010500D03*
X028333Y010500D03*
X029333Y010500D03*
X030333Y010500D03*
X031333Y010500D03*
X032333Y010500D03*
X033333Y010500D03*
X034333Y010500D03*
X034333Y009500D03*
X033333Y009500D03*
X032333Y009500D03*
X031333Y009500D03*
X030333Y009500D03*
X029333Y009500D03*
X028333Y009500D03*
X027333Y009500D03*
X026333Y009500D03*
X025333Y009500D03*
X024333Y009500D03*
X023333Y009500D03*
X022333Y009500D03*
X021333Y009500D03*
X020333Y009500D03*
X019333Y009500D03*
X018333Y009500D03*
X017333Y009500D03*
X016333Y009500D03*
X015333Y009500D03*
X014333Y009500D03*
X013333Y009500D03*
X012333Y009500D03*
X011333Y009500D03*
X010333Y009500D03*
X009333Y009500D03*
X008333Y009500D03*
X007333Y009500D03*
X006333Y009500D03*
X005333Y009500D03*
X004333Y009500D03*
X003333Y009500D03*
X002333Y009500D03*
X001333Y009500D03*
X001333Y008500D03*
X002333Y008500D03*
X003333Y008500D03*
X004333Y008500D03*
X005333Y008500D03*
X006333Y008500D03*
X007333Y008500D03*
X008333Y008500D03*
X009333Y008500D03*
X010333Y008500D03*
X011333Y008500D03*
X012333Y008500D03*
X013333Y008500D03*
X014333Y008500D03*
X015333Y008500D03*
X016333Y008500D03*
X017333Y008500D03*
X018333Y008500D03*
X019333Y008500D03*
X020333Y008500D03*
X021333Y008500D03*
X022333Y008500D03*
X023333Y008500D03*
X024333Y008500D03*
X025333Y008500D03*
X026333Y008500D03*
X027333Y008500D03*
X028333Y008500D03*
X029333Y008500D03*
X030333Y008500D03*
X031333Y008500D03*
X032333Y008500D03*
X033333Y008500D03*
X034333Y008500D03*
X037383Y008500D03*
X038383Y008500D03*
X038283Y007500D03*
X037283Y007500D03*
X037263Y006500D03*
X038403Y006500D03*
X035333Y004550D03*
X036333Y004450D03*
X034333Y004450D03*
X033333Y004550D03*
X032333Y004450D03*
X031333Y004550D03*
X030333Y004450D03*
X027333Y004450D03*
X026333Y004550D03*
X025333Y004450D03*
X024333Y004550D03*
X023333Y004450D03*
X022333Y004550D03*
X021333Y004450D03*
X018333Y004400D03*
X017333Y004500D03*
X016333Y004400D03*
X015333Y004500D03*
X014333Y004400D03*
X013333Y004500D03*
X009333Y005650D03*
X009333Y006550D03*
X009333Y007500D03*
X010333Y007500D03*
X011333Y007500D03*
X012333Y007500D03*
X013333Y007500D03*
X014333Y007500D03*
X015333Y007500D03*
X017283Y007000D03*
X020333Y007500D03*
X021333Y007500D03*
X022333Y007500D03*
X023333Y007500D03*
X024333Y007500D03*
X025333Y007500D03*
X026333Y007500D03*
X027333Y007500D03*
X028333Y007500D03*
X029333Y007500D03*
X030333Y007500D03*
X037283Y009500D03*
X038283Y009500D03*
X038383Y010500D03*
X037383Y010500D03*
X037283Y011500D03*
X038283Y011500D03*
X038383Y012500D03*
X037383Y012500D03*
X037283Y013500D03*
X038283Y013500D03*
X038383Y014500D03*
X037383Y014500D03*
X037283Y015500D03*
X038283Y015500D03*
X038383Y016500D03*
X037383Y016500D03*
X037283Y017500D03*
X038283Y017500D03*
X038383Y018500D03*
X037383Y018500D03*
X037283Y019500D03*
X038283Y019500D03*
X038383Y020500D03*
X037383Y020500D03*
X037283Y021500D03*
X038283Y021500D03*
X038383Y022500D03*
X037383Y022500D03*
X037263Y023500D03*
X038403Y023500D03*
X034333Y023450D03*
X033333Y023550D03*
X032333Y023450D03*
X031333Y023550D03*
X030333Y023450D03*
X029333Y023550D03*
X028333Y023450D03*
X024333Y023550D03*
X023333Y023450D03*
X022333Y023550D03*
X021333Y023450D03*
X020333Y023550D03*
X019333Y023450D03*
X018333Y023550D03*
X018333Y020500D03*
X017333Y020500D03*
X016333Y020500D03*
X015333Y020500D03*
X014333Y020500D03*
X013333Y020500D03*
X012333Y020500D03*
X011333Y020500D03*
X010333Y020500D03*
X009333Y020500D03*
X006333Y021500D03*
X005333Y021500D03*
X004333Y021500D03*
X003333Y021500D03*
X002333Y021500D03*
X001333Y021500D03*
X001333Y022500D03*
X002333Y022500D03*
X003333Y022500D03*
X004333Y022500D03*
X005333Y022500D03*
X004333Y023500D03*
X003333Y023500D03*
X002333Y023500D03*
X001333Y023500D03*
X001333Y018500D03*
X002333Y018500D03*
X003333Y018500D03*
X004333Y018500D03*
X005333Y018500D03*
X006333Y018500D03*
X007333Y018500D03*
X008333Y018500D03*
X009333Y018500D03*
X010333Y018500D03*
X011333Y018500D03*
X012333Y018500D03*
X013333Y018500D03*
X014333Y018500D03*
X015333Y018500D03*
X016333Y018500D03*
X017333Y018500D03*
X018333Y018500D03*
X019333Y018500D03*
X020333Y018500D03*
X021333Y018500D03*
X022333Y018500D03*
X022333Y020500D03*
X021333Y020500D03*
X020333Y020500D03*
X019333Y020500D03*
X023333Y020500D03*
X031333Y017500D03*
X032333Y017500D03*
X033333Y017500D03*
X034333Y017500D03*
X006333Y007500D03*
X005333Y007500D03*
X004333Y007500D03*
X003333Y007500D03*
X002333Y007500D03*
X001333Y007500D03*
X001333Y005500D03*
X002333Y005500D03*
X003833Y005500D03*
X004833Y005500D03*
X006333Y005650D03*
X006333Y006550D03*
D14*
X010443Y006680D03*
X012223Y006680D03*
X012223Y004120D03*
X010443Y004120D03*
D15*
X009333Y005230D01*
X009333Y005650D01*
X009983Y005650D01*
X010443Y006110D01*
X010443Y006680D01*
X009333Y006550D02*
X008883Y006550D01*
X007983Y005650D01*
X006333Y005650D01*
X005883Y006550D02*
X004833Y005500D01*
X005883Y006550D02*
X006333Y006550D01*
X005833Y007000D02*
X002833Y007000D01*
X001333Y005500D01*
X005833Y007000D02*
X006333Y007500D01*
X009333Y007500D02*
X009833Y008000D01*
X009833Y008500D01*
X009833Y021500D01*
X011833Y023500D01*
X011833Y023550D01*
X011323Y005000D02*
X010443Y004120D01*
X011323Y005000D02*
X012833Y005000D01*
X013333Y004500D01*
D16*
X013765Y004931D02*
X014021Y004931D01*
X013988Y004917D02*
X013870Y004799D01*
X013850Y004846D01*
X013679Y005017D01*
X013455Y005110D01*
X013212Y005110D01*
X013156Y005087D01*
X013079Y005164D01*
X012998Y005246D01*
X012891Y005290D01*
X011266Y005290D01*
X011159Y005246D01*
X010582Y004669D01*
X010555Y004680D01*
X010332Y004680D01*
X010305Y004669D01*
X009760Y005214D01*
X009850Y005304D01*
X009873Y005360D01*
X010041Y005360D01*
X010148Y005404D01*
X010689Y005946D01*
X010733Y006052D01*
X010733Y006194D01*
X010761Y006205D01*
X010918Y006363D01*
X011003Y006569D01*
X011003Y006791D01*
X010918Y006997D01*
X010761Y007155D01*
X010555Y007240D01*
X010332Y007240D01*
X010126Y007155D01*
X009969Y006997D01*
X009888Y006804D01*
X009850Y006896D01*
X009721Y007025D01*
X009850Y007154D01*
X009943Y007379D01*
X009943Y007621D01*
X009920Y007677D01*
X009998Y007754D01*
X010079Y007836D01*
X010118Y007929D01*
X010212Y007890D01*
X010455Y007890D01*
X010679Y007983D01*
X010833Y008137D01*
X010988Y007983D01*
X011212Y007890D01*
X011455Y007890D01*
X011679Y007983D01*
X011833Y008137D01*
X011988Y007983D01*
X012212Y007890D01*
X012455Y007890D01*
X012679Y007983D01*
X012833Y008137D01*
X012988Y007983D01*
X013212Y007890D01*
X013455Y007890D01*
X013679Y007983D01*
X013833Y008137D01*
X013988Y007983D01*
X014212Y007890D01*
X014455Y007890D01*
X014679Y007983D01*
X014833Y008137D01*
X014988Y007983D01*
X015212Y007890D01*
X015455Y007890D01*
X015679Y007983D01*
X015833Y008137D01*
X015988Y007983D01*
X016212Y007890D01*
X016455Y007890D01*
X016679Y007983D01*
X016833Y008137D01*
X016988Y007983D01*
X017212Y007890D01*
X017455Y007890D01*
X017679Y007983D01*
X017833Y008137D01*
X017988Y007983D01*
X018212Y007890D01*
X018455Y007890D01*
X018679Y007983D01*
X018833Y008137D01*
X018988Y007983D01*
X019212Y007890D01*
X019455Y007890D01*
X019679Y007983D01*
X019833Y008137D01*
X019988Y007983D01*
X020212Y007890D01*
X020455Y007890D01*
X020679Y007983D01*
X020833Y008137D01*
X020988Y007983D01*
X021212Y007890D01*
X021455Y007890D01*
X021679Y007983D01*
X021833Y008137D01*
X021988Y007983D01*
X022212Y007890D01*
X022455Y007890D01*
X022679Y007983D01*
X022833Y008137D01*
X022988Y007983D01*
X023212Y007890D01*
X023455Y007890D01*
X023679Y007983D01*
X023833Y008137D01*
X023988Y007983D01*
X024212Y007890D01*
X024455Y007890D01*
X024679Y007983D01*
X024833Y008137D01*
X024988Y007983D01*
X025212Y007890D01*
X025455Y007890D01*
X025679Y007983D01*
X025833Y008137D01*
X025988Y007983D01*
X026212Y007890D01*
X026455Y007890D01*
X026679Y007983D01*
X026833Y008137D01*
X026988Y007983D01*
X027212Y007890D01*
X027455Y007890D01*
X027679Y007983D01*
X027833Y008137D01*
X027988Y007983D01*
X028212Y007890D01*
X028455Y007890D01*
X028679Y007983D01*
X028833Y008137D01*
X028988Y007983D01*
X029212Y007890D01*
X029455Y007890D01*
X029679Y007983D01*
X029833Y008137D01*
X029988Y007983D01*
X030212Y007890D01*
X030455Y007890D01*
X030679Y007983D01*
X030833Y008137D01*
X030988Y007983D01*
X031212Y007890D01*
X031455Y007890D01*
X031679Y007983D01*
X031833Y008137D01*
X031988Y007983D01*
X032212Y007890D01*
X032455Y007890D01*
X032679Y007983D01*
X032833Y008137D01*
X032988Y007983D01*
X033212Y007890D01*
X033455Y007890D01*
X033679Y007983D01*
X033833Y008137D01*
X033988Y007983D01*
X034212Y007890D01*
X034455Y007890D01*
X034679Y007983D01*
X034850Y008154D01*
X034943Y008379D01*
X034943Y008621D01*
X034850Y008846D01*
X034696Y009000D01*
X034850Y009154D01*
X034943Y009379D01*
X034943Y009621D01*
X034850Y009846D01*
X034696Y010000D01*
X034850Y010154D01*
X034943Y010379D01*
X034943Y010621D01*
X034850Y010846D01*
X034696Y011000D01*
X034850Y011154D01*
X034943Y011379D01*
X034943Y011621D01*
X034850Y011846D01*
X034679Y012017D01*
X034455Y012110D01*
X034212Y012110D01*
X033988Y012017D01*
X033833Y011863D01*
X033679Y012017D01*
X033455Y012110D01*
X033212Y012110D01*
X032988Y012017D01*
X032833Y011863D01*
X032679Y012017D01*
X032455Y012110D01*
X032212Y012110D01*
X031988Y012017D01*
X031833Y011863D01*
X031679Y012017D01*
X031455Y012110D01*
X031212Y012110D01*
X030988Y012017D01*
X030833Y011863D01*
X030679Y012017D01*
X030455Y012110D01*
X030212Y012110D01*
X029988Y012017D01*
X029833Y011863D01*
X029679Y012017D01*
X029455Y012110D01*
X029212Y012110D01*
X028988Y012017D01*
X028833Y011863D01*
X028679Y012017D01*
X028455Y012110D01*
X028212Y012110D01*
X027988Y012017D01*
X027833Y011863D01*
X027679Y012017D01*
X027455Y012110D01*
X027212Y012110D01*
X026988Y012017D01*
X026833Y011863D01*
X026679Y012017D01*
X026455Y012110D01*
X026212Y012110D01*
X025988Y012017D01*
X025833Y011863D01*
X025679Y012017D01*
X025455Y012110D01*
X025212Y012110D01*
X024988Y012017D01*
X024833Y011863D01*
X024679Y012017D01*
X024455Y012110D01*
X024212Y012110D01*
X023988Y012017D01*
X023833Y011863D01*
X023679Y012017D01*
X023455Y012110D01*
X023212Y012110D01*
X022988Y012017D01*
X022833Y011863D01*
X022679Y012017D01*
X022455Y012110D01*
X022212Y012110D01*
X021988Y012017D01*
X021833Y011863D01*
X021679Y012017D01*
X021455Y012110D01*
X021212Y012110D01*
X020988Y012017D01*
X020833Y011863D01*
X020679Y012017D01*
X020455Y012110D01*
X020212Y012110D01*
X019988Y012017D01*
X019833Y011863D01*
X019679Y012017D01*
X019455Y012110D01*
X019212Y012110D01*
X018988Y012017D01*
X018833Y011863D01*
X018679Y012017D01*
X018455Y012110D01*
X018212Y012110D01*
X017988Y012017D01*
X017833Y011863D01*
X017679Y012017D01*
X017455Y012110D01*
X017212Y012110D01*
X016988Y012017D01*
X016833Y011863D01*
X016679Y012017D01*
X016455Y012110D01*
X016212Y012110D01*
X015988Y012017D01*
X015833Y011863D01*
X015679Y012017D01*
X015455Y012110D01*
X015212Y012110D01*
X014988Y012017D01*
X014833Y011863D01*
X014679Y012017D01*
X014455Y012110D01*
X014212Y012110D01*
X013988Y012017D01*
X013833Y011863D01*
X013679Y012017D01*
X013455Y012110D01*
X013212Y012110D01*
X012988Y012017D01*
X012833Y011863D01*
X012679Y012017D01*
X012455Y012110D01*
X012212Y012110D01*
X011988Y012017D01*
X011833Y011863D01*
X011679Y012017D01*
X011455Y012110D01*
X011212Y012110D01*
X010988Y012017D01*
X010833Y011863D01*
X010679Y012017D01*
X010455Y012110D01*
X010212Y012110D01*
X010123Y012073D01*
X010123Y013927D01*
X010212Y013890D01*
X010455Y013890D01*
X010679Y013983D01*
X010833Y014137D01*
X010988Y013983D01*
X011212Y013890D01*
X011455Y013890D01*
X011679Y013983D01*
X011833Y014137D01*
X011988Y013983D01*
X012212Y013890D01*
X012455Y013890D01*
X012679Y013983D01*
X012833Y014137D01*
X012988Y013983D01*
X013212Y013890D01*
X013455Y013890D01*
X013679Y013983D01*
X013833Y014137D01*
X013988Y013983D01*
X014212Y013890D01*
X014455Y013890D01*
X014679Y013983D01*
X014833Y014137D01*
X014988Y013983D01*
X015212Y013890D01*
X015455Y013890D01*
X015679Y013983D01*
X015833Y014137D01*
X015988Y013983D01*
X016212Y013890D01*
X016455Y013890D01*
X016679Y013983D01*
X016833Y014137D01*
X016988Y013983D01*
X017212Y013890D01*
X017455Y013890D01*
X017679Y013983D01*
X017833Y014137D01*
X017988Y013983D01*
X018212Y013890D01*
X018455Y013890D01*
X018679Y013983D01*
X018833Y014137D01*
X018988Y013983D01*
X019212Y013890D01*
X019455Y013890D01*
X019679Y013983D01*
X019833Y014137D01*
X019988Y013983D01*
X020212Y013890D01*
X020455Y013890D01*
X020679Y013983D01*
X020833Y014137D01*
X020988Y013983D01*
X021212Y013890D01*
X021455Y013890D01*
X021679Y013983D01*
X021833Y014137D01*
X021988Y013983D01*
X022212Y013890D01*
X022455Y013890D01*
X022679Y013983D01*
X022833Y014137D01*
X022988Y013983D01*
X023212Y013890D01*
X023455Y013890D01*
X023679Y013983D01*
X023833Y014137D01*
X023988Y013983D01*
X024212Y013890D01*
X024455Y013890D01*
X024679Y013983D01*
X024833Y014137D01*
X024988Y013983D01*
X025212Y013890D01*
X025455Y013890D01*
X025679Y013983D01*
X025833Y014137D01*
X025988Y013983D01*
X026212Y013890D01*
X026455Y013890D01*
X026679Y013983D01*
X026833Y014137D01*
X026988Y013983D01*
X027212Y013890D01*
X027455Y013890D01*
X027679Y013983D01*
X027833Y014137D01*
X027988Y013983D01*
X028212Y013890D01*
X028455Y013890D01*
X028679Y013983D01*
X028833Y014137D01*
X028988Y013983D01*
X029212Y013890D01*
X029455Y013890D01*
X029679Y013983D01*
X029833Y014137D01*
X029988Y013983D01*
X030212Y013890D01*
X030455Y013890D01*
X030679Y013983D01*
X030833Y014137D01*
X030988Y013983D01*
X031212Y013890D01*
X031455Y013890D01*
X031679Y013983D01*
X031833Y014137D01*
X031988Y013983D01*
X032212Y013890D01*
X032455Y013890D01*
X032679Y013983D01*
X032833Y014137D01*
X032988Y013983D01*
X033212Y013890D01*
X033455Y013890D01*
X033679Y013983D01*
X033833Y014137D01*
X033988Y013983D01*
X034212Y013890D01*
X034455Y013890D01*
X034679Y013983D01*
X034850Y014154D01*
X034943Y014379D01*
X034943Y014621D01*
X034850Y014846D01*
X034696Y015000D01*
X034850Y015154D01*
X034943Y015379D01*
X034943Y015621D01*
X034850Y015846D01*
X034696Y016000D01*
X034850Y016154D01*
X034943Y016379D01*
X036773Y016379D01*
X036866Y016154D01*
X036984Y016036D01*
X036938Y016017D01*
X036766Y015846D01*
X036673Y015621D01*
X036673Y015379D01*
X036766Y015154D01*
X036938Y014983D01*
X036984Y014964D01*
X036866Y014846D01*
X036773Y014621D01*
X036773Y014379D01*
X036866Y014154D01*
X036984Y014036D01*
X036938Y014017D01*
X036766Y013846D01*
X036673Y013621D01*
X036673Y013379D01*
X036766Y013154D01*
X036938Y012983D01*
X036984Y012964D01*
X036866Y012846D01*
X036773Y012621D01*
X036773Y012379D01*
X036866Y012154D01*
X036984Y012036D01*
X036938Y012017D01*
X036766Y011846D01*
X036673Y011621D01*
X036673Y011379D01*
X036766Y011154D01*
X036938Y010983D01*
X036984Y010964D01*
X036866Y010846D01*
X036773Y010621D01*
X036773Y010379D01*
X036866Y010154D01*
X036984Y010036D01*
X036938Y010017D01*
X036766Y009846D01*
X036673Y009621D01*
X036673Y009379D01*
X036766Y009154D01*
X036938Y008983D01*
X036984Y008964D01*
X036866Y008846D01*
X036773Y008621D01*
X036773Y008379D01*
X036866Y008154D01*
X036984Y008036D01*
X036938Y008017D01*
X036766Y007846D01*
X036673Y007621D01*
X036673Y007379D01*
X036766Y007154D01*
X036932Y006989D01*
X036879Y006950D01*
X036813Y006884D01*
X036759Y006809D01*
X036717Y006726D01*
X036688Y006638D01*
X036673Y006546D01*
X036673Y006500D01*
X036673Y006454D01*
X036688Y006362D01*
X018783Y006362D01*
X018783Y006390D02*
X018801Y006390D01*
X018889Y006427D01*
X018957Y006494D01*
X018993Y006582D01*
X018993Y007418D01*
X018957Y007506D01*
X018889Y007573D01*
X018801Y007610D01*
X017966Y007610D01*
X017877Y007573D01*
X017810Y007506D01*
X017773Y007418D01*
X017773Y007329D01*
X017733Y007384D01*
X017668Y007450D01*
X017593Y007505D01*
X017510Y007547D01*
X017421Y007575D01*
X017330Y007590D01*
X017283Y007590D01*
X017237Y007590D01*
X017145Y007575D01*
X017057Y007547D01*
X016974Y007505D01*
X016899Y007450D01*
X016833Y007384D01*
X016779Y007309D01*
X016737Y007226D01*
X016708Y007138D01*
X016693Y007046D01*
X016693Y007000D01*
X016693Y006954D01*
X016708Y006862D01*
X016737Y006774D01*
X016779Y006691D01*
X016833Y006616D01*
X016899Y006550D01*
X016974Y006495D01*
X017057Y006453D01*
X017145Y006425D01*
X017237Y006410D01*
X017283Y006410D01*
X017283Y007000D01*
X016693Y007000D01*
X017283Y007000D01*
X017283Y007000D01*
X017283Y007000D01*
X017283Y007590D01*
X017283Y007000D01*
X017283Y007000D01*
X017283Y006410D01*
X017330Y006410D01*
X017421Y006425D01*
X017510Y006453D01*
X017593Y006495D01*
X017668Y006550D01*
X017733Y006616D01*
X017773Y006671D01*
X017773Y006582D01*
X017810Y006494D01*
X017877Y006427D01*
X017966Y006390D01*
X017983Y006390D01*
X017983Y004913D01*
X017852Y004781D01*
X017838Y004809D01*
X017783Y004884D01*
X017718Y004950D01*
X017643Y005005D01*
X017560Y005047D01*
X017471Y005075D01*
X017380Y005090D01*
X017333Y005090D01*
X017287Y005090D01*
X017195Y005075D01*
X017107Y005047D01*
X017024Y005005D01*
X016949Y004950D01*
X016883Y004884D01*
X016829Y004809D01*
X016803Y004758D01*
X016783Y004784D01*
X016718Y004850D01*
X016643Y004905D01*
X016560Y004947D01*
X016471Y004975D01*
X016380Y004990D01*
X016333Y004990D01*
X016287Y004990D01*
X016195Y004975D01*
X016107Y004947D01*
X016024Y004905D01*
X015949Y004850D01*
X015883Y004784D01*
X015879Y004778D01*
X015850Y004846D01*
X015679Y005017D01*
X015455Y005110D01*
X015212Y005110D01*
X014988Y005017D01*
X014816Y004846D01*
X014797Y004799D01*
X014679Y004917D01*
X014455Y005010D01*
X014212Y005010D01*
X013988Y004917D01*
X014645Y004931D02*
X014902Y004931D01*
X015765Y004931D02*
X016076Y004931D01*
X016333Y004931D02*
X016333Y004931D01*
X016333Y004990D02*
X016333Y004400D01*
X016333Y004400D01*
X016333Y004400D01*
X016333Y003810D01*
X016287Y003810D01*
X016195Y003825D01*
X016107Y003853D01*
X016024Y003895D01*
X015949Y003950D01*
X015883Y004016D01*
X015829Y004091D01*
X015815Y004119D01*
X015679Y003983D01*
X015455Y003890D01*
X015212Y003890D01*
X014988Y003983D01*
X014870Y004101D01*
X014850Y004054D01*
X014679Y003883D01*
X014455Y003790D01*
X014212Y003790D01*
X013988Y003883D01*
X013816Y004054D01*
X013797Y004101D01*
X013679Y003983D01*
X013455Y003890D01*
X013212Y003890D01*
X012988Y003983D01*
X012816Y004154D01*
X012723Y004379D01*
X012723Y004621D01*
X012746Y004677D01*
X012713Y004710D01*
X011443Y004710D01*
X010992Y004259D01*
X011003Y004231D01*
X011003Y004009D01*
X010918Y003803D01*
X010895Y003780D01*
X011803Y003780D01*
X011761Y003837D01*
X011723Y003913D01*
X011697Y003994D01*
X011683Y004078D01*
X011683Y004120D01*
X012223Y004120D01*
X011683Y004120D01*
X011683Y004162D01*
X011697Y004246D01*
X011723Y004327D01*
X011761Y004403D01*
X011811Y004472D01*
X011872Y004532D01*
X011940Y004582D01*
X012016Y004620D01*
X012097Y004647D01*
X012181Y004660D01*
X012223Y004660D01*
X012223Y004120D01*
X012223Y004120D01*
X012223Y004120D01*
X012223Y004660D01*
X012266Y004660D01*
X012350Y004647D01*
X012431Y004620D01*
X012506Y004582D01*
X012575Y004532D01*
X012635Y004472D01*
X012685Y004403D01*
X012724Y004327D01*
X012750Y004246D01*
X012763Y004162D01*
X012763Y004120D01*
X012223Y004120D01*
X012223Y004120D01*
X012763Y004120D01*
X012763Y004078D01*
X012750Y003994D01*
X012724Y003913D01*
X012685Y003837D01*
X012644Y003780D01*
X037823Y003780D01*
X037596Y004007D01*
X037463Y004327D01*
X037463Y004673D01*
X037596Y004993D01*
X037841Y005237D01*
X038160Y005370D01*
X038506Y005370D01*
X038826Y005237D01*
X039071Y004993D01*
X039203Y004673D01*
X039203Y004327D01*
X039160Y004223D01*
X040053Y005116D01*
X040053Y018384D01*
X039175Y019263D01*
X039096Y019341D01*
X039053Y019444D01*
X039053Y023384D01*
X039013Y023424D01*
X039013Y023379D01*
X038920Y023154D01*
X038756Y022990D01*
X038900Y022846D01*
X038993Y022621D01*
X038993Y022379D01*
X038900Y022154D01*
X038729Y021983D01*
X038682Y021964D01*
X038800Y021846D01*
X038893Y021621D01*
X038893Y021379D01*
X038800Y021154D01*
X038682Y021036D01*
X038729Y021017D01*
X038900Y020846D01*
X038993Y020621D01*
X038993Y020379D01*
X038900Y020154D01*
X038729Y019983D01*
X038682Y019964D01*
X038800Y019846D01*
X038893Y019621D01*
X038893Y019379D01*
X038800Y019154D01*
X038682Y019036D01*
X038729Y019017D01*
X038900Y018846D01*
X038993Y018621D01*
X038993Y018379D01*
X038900Y018154D01*
X038729Y017983D01*
X038682Y017964D01*
X038800Y017846D01*
X038893Y017621D01*
X038893Y017379D01*
X038800Y017154D01*
X038682Y017036D01*
X038729Y017017D01*
X038900Y016846D01*
X038993Y016621D01*
X038993Y016379D01*
X040053Y016379D01*
X040053Y016141D02*
X038887Y016141D01*
X038900Y016154D02*
X038993Y016379D01*
X038993Y016618D02*
X040053Y016618D01*
X040053Y016856D02*
X038890Y016856D01*
X038741Y017095D02*
X040053Y017095D01*
X040053Y017333D02*
X038874Y017333D01*
X038893Y017572D02*
X040053Y017572D01*
X040053Y017810D02*
X038815Y017810D01*
X038795Y018049D02*
X040053Y018049D01*
X040053Y018287D02*
X038955Y018287D01*
X038993Y018526D02*
X039912Y018526D01*
X039673Y018764D02*
X038934Y018764D01*
X038743Y019003D02*
X039435Y019003D01*
X039196Y019241D02*
X038836Y019241D01*
X038893Y019480D02*
X039053Y019480D01*
X039053Y019718D02*
X038853Y019718D01*
X038689Y019957D02*
X039053Y019957D01*
X039053Y020195D02*
X038917Y020195D01*
X038993Y020434D02*
X039053Y020434D01*
X039053Y020672D02*
X038972Y020672D01*
X039053Y020911D02*
X038835Y020911D01*
X038795Y021149D02*
X039053Y021149D01*
X039053Y021388D02*
X038893Y021388D01*
X038891Y021626D02*
X039053Y021626D01*
X039053Y021865D02*
X038781Y021865D01*
X038849Y022103D02*
X039053Y022103D01*
X039053Y022342D02*
X038978Y022342D01*
X038993Y022580D02*
X039053Y022580D01*
X039053Y022819D02*
X038912Y022819D01*
X038823Y023057D02*
X039053Y023057D01*
X039053Y023296D02*
X038979Y023296D01*
X036978Y022958D02*
X036866Y022846D01*
X036773Y022621D01*
X036773Y022379D01*
X036866Y022154D01*
X036984Y022036D01*
X036938Y022017D01*
X036766Y021846D01*
X036673Y021621D01*
X036673Y021379D01*
X036766Y021154D01*
X036938Y020983D01*
X036984Y020964D01*
X036866Y020846D01*
X036773Y020621D01*
X036773Y020379D01*
X036866Y020154D01*
X036984Y020036D01*
X036938Y020017D01*
X036766Y019846D01*
X036673Y019621D01*
X036673Y019379D01*
X036766Y019154D01*
X036938Y018983D01*
X036984Y018964D01*
X036866Y018846D01*
X036773Y018621D01*
X036773Y018379D01*
X036866Y018154D01*
X036984Y018036D01*
X036938Y018017D01*
X036766Y017846D01*
X036673Y017621D01*
X036673Y017379D01*
X036766Y017154D01*
X036938Y016983D01*
X036984Y016964D01*
X036866Y016846D01*
X036773Y016621D01*
X036773Y016379D01*
X036773Y016618D02*
X034943Y016618D01*
X034943Y016621D02*
X034850Y016846D01*
X034696Y017000D01*
X034850Y017154D01*
X034943Y017379D01*
X034943Y017621D01*
X034850Y017846D01*
X034679Y018017D01*
X034455Y018110D01*
X034212Y018110D01*
X033988Y018017D01*
X033833Y017863D01*
X033679Y018017D01*
X033455Y018110D01*
X033212Y018110D01*
X032988Y018017D01*
X032833Y017863D01*
X032679Y018017D01*
X032455Y018110D01*
X032212Y018110D01*
X031988Y018017D01*
X031833Y017863D01*
X031679Y018017D01*
X031455Y018110D01*
X031212Y018110D01*
X030988Y018017D01*
X030833Y017863D01*
X030696Y018000D01*
X030850Y018154D01*
X030943Y018379D01*
X030943Y018621D01*
X030850Y018846D01*
X030679Y019017D01*
X030455Y019110D01*
X030212Y019110D01*
X029988Y019017D01*
X029833Y018863D01*
X029679Y019017D01*
X029455Y019110D01*
X029212Y019110D01*
X028988Y019017D01*
X028833Y018863D01*
X028679Y019017D01*
X028455Y019110D01*
X028212Y019110D01*
X027988Y019017D01*
X027833Y018863D01*
X027679Y019017D01*
X027455Y019110D01*
X027212Y019110D01*
X026988Y019017D01*
X026833Y018863D01*
X026679Y019017D01*
X026455Y019110D01*
X026212Y019110D01*
X025988Y019017D01*
X025833Y018863D01*
X025679Y019017D01*
X025455Y019110D01*
X025212Y019110D01*
X024988Y019017D01*
X024833Y018863D01*
X024679Y019017D01*
X024455Y019110D01*
X024212Y019110D01*
X023988Y019017D01*
X023833Y018863D01*
X023696Y019000D01*
X023850Y019154D01*
X023943Y019379D01*
X023943Y019621D01*
X023850Y019846D01*
X023696Y020000D01*
X023850Y020154D01*
X023943Y020379D01*
X023943Y020621D01*
X023850Y020846D01*
X023679Y021017D01*
X023455Y021110D01*
X023212Y021110D01*
X022988Y021017D01*
X022833Y020863D01*
X022679Y021017D01*
X022455Y021110D01*
X022212Y021110D01*
X021988Y021017D01*
X021833Y020863D01*
X021679Y021017D01*
X021455Y021110D01*
X021212Y021110D01*
X020988Y021017D01*
X020833Y020863D01*
X020679Y021017D01*
X020455Y021110D01*
X020212Y021110D01*
X019988Y021017D01*
X019833Y020863D01*
X019679Y021017D01*
X019455Y021110D01*
X019212Y021110D01*
X018988Y021017D01*
X018833Y020863D01*
X018679Y021017D01*
X018455Y021110D01*
X018212Y021110D01*
X017988Y021017D01*
X017833Y020863D01*
X017679Y021017D01*
X017455Y021110D01*
X017212Y021110D01*
X016988Y021017D01*
X016833Y020863D01*
X016679Y021017D01*
X016455Y021110D01*
X016212Y021110D01*
X015988Y021017D01*
X015833Y020863D01*
X015679Y021017D01*
X015455Y021110D01*
X015212Y021110D01*
X014988Y021017D01*
X014833Y020863D01*
X014679Y021017D01*
X014455Y021110D01*
X014212Y021110D01*
X013988Y021017D01*
X013833Y020863D01*
X013679Y021017D01*
X013455Y021110D01*
X013212Y021110D01*
X012988Y021017D01*
X012833Y020863D01*
X012679Y021017D01*
X012455Y021110D01*
X012212Y021110D01*
X011988Y021017D01*
X011833Y020863D01*
X011679Y021017D01*
X011455Y021110D01*
X011212Y021110D01*
X010988Y021017D01*
X010833Y020863D01*
X010679Y021017D01*
X010455Y021110D01*
X010212Y021110D01*
X010123Y021073D01*
X010123Y021380D01*
X011692Y022948D01*
X011712Y022940D01*
X011955Y022940D01*
X012179Y023033D01*
X012297Y023151D01*
X012316Y023104D01*
X012488Y022933D01*
X012712Y022840D01*
X012955Y022840D01*
X013179Y022933D01*
X013350Y023104D01*
X013370Y023151D01*
X013488Y023033D01*
X013712Y022940D01*
X013955Y022940D01*
X014179Y023033D01*
X014297Y023151D01*
X014316Y023104D01*
X014488Y022933D01*
X014712Y022840D01*
X014955Y022840D01*
X015179Y022933D01*
X015350Y023104D01*
X015370Y023151D01*
X015488Y023033D01*
X015712Y022940D01*
X015955Y022940D01*
X016179Y023033D01*
X016223Y023077D01*
X016223Y023032D01*
X016260Y022944D01*
X016327Y022877D01*
X016416Y022840D01*
X017251Y022840D01*
X017339Y022877D01*
X017407Y022944D01*
X017443Y023032D01*
X017443Y023868D01*
X017407Y023956D01*
X017339Y024023D01*
X017251Y024060D01*
X016416Y024060D01*
X016327Y024023D01*
X016275Y023971D01*
X016179Y024067D01*
X015955Y024160D01*
X015712Y024160D01*
X015488Y024067D01*
X015316Y023896D01*
X015297Y023849D01*
X015179Y023967D01*
X014955Y024060D01*
X014712Y024060D01*
X014488Y023967D01*
X014370Y023849D01*
X014350Y023896D01*
X014179Y024067D01*
X013955Y024160D01*
X013712Y024160D01*
X013488Y024067D01*
X013316Y023896D01*
X013297Y023849D01*
X013179Y023967D01*
X012955Y024060D01*
X012712Y024060D01*
X012488Y023967D01*
X012370Y023849D01*
X012350Y023896D01*
X012179Y024067D01*
X011955Y024160D01*
X011712Y024160D01*
X011488Y024067D01*
X011316Y023896D01*
X011288Y023828D01*
X011283Y023834D01*
X011218Y023900D01*
X011143Y023955D01*
X011060Y023997D01*
X010971Y024025D01*
X010880Y024040D01*
X010833Y024040D01*
X010787Y024040D01*
X010695Y024025D01*
X010607Y023997D01*
X010524Y023955D01*
X010449Y023900D01*
X010383Y023834D01*
X010379Y023828D01*
X010350Y023896D01*
X010179Y024067D01*
X009955Y024160D01*
X009712Y024160D01*
X009488Y024067D01*
X009316Y023896D01*
X009223Y023671D01*
X009223Y023429D01*
X009316Y023204D01*
X009488Y023033D01*
X009712Y022940D01*
X009955Y022940D01*
X010179Y023033D01*
X010315Y023169D01*
X010329Y023141D01*
X010383Y023066D01*
X010449Y023000D01*
X010524Y022945D01*
X010607Y022903D01*
X010695Y022875D01*
X010784Y022861D01*
X009587Y021664D01*
X009543Y021558D01*
X009543Y021073D01*
X009455Y021110D01*
X009212Y021110D01*
X008988Y021017D01*
X008833Y020863D01*
X008696Y021000D01*
X008850Y021154D01*
X008943Y021379D01*
X008943Y021621D01*
X008850Y021846D01*
X008696Y022000D01*
X008850Y022154D01*
X008943Y022379D01*
X008943Y022621D01*
X008850Y022846D01*
X008696Y023000D01*
X008850Y023154D01*
X008943Y023379D01*
X008943Y023621D01*
X008850Y023846D01*
X008679Y024017D01*
X008455Y024110D01*
X008212Y024110D01*
X007988Y024017D01*
X007816Y023846D01*
X007723Y023621D01*
X007723Y023379D01*
X007816Y023154D01*
X007971Y023000D01*
X007833Y022863D01*
X007679Y023017D01*
X007455Y023110D01*
X007212Y023110D01*
X007093Y023061D01*
X007203Y023327D01*
X007203Y023673D01*
X007071Y023993D01*
X006844Y024220D01*
X035323Y024220D01*
X035096Y023993D01*
X034963Y023673D01*
X034963Y023327D01*
X035096Y023007D01*
X035341Y022763D01*
X035660Y022630D01*
X036006Y022630D01*
X036326Y022763D01*
X036571Y023007D01*
X036689Y023293D01*
X036746Y023154D01*
X036918Y022983D01*
X036978Y022958D01*
X036844Y023057D02*
X036591Y023057D01*
X036382Y022819D02*
X036855Y022819D01*
X036773Y022580D02*
X011323Y022580D01*
X011085Y022342D02*
X036789Y022342D01*
X036918Y022103D02*
X010846Y022103D01*
X010608Y021865D02*
X036785Y021865D01*
X036675Y021626D02*
X010369Y021626D01*
X010131Y021388D02*
X036673Y021388D01*
X036772Y021149D02*
X010123Y021149D01*
X009543Y021149D02*
X008845Y021149D01*
X008881Y020911D02*
X008785Y020911D01*
X008943Y021388D02*
X009543Y021388D01*
X009572Y021626D02*
X008941Y021626D01*
X008831Y021865D02*
X009788Y021865D01*
X010026Y022103D02*
X008799Y022103D01*
X008928Y022342D02*
X010265Y022342D01*
X010503Y022580D02*
X008943Y022580D01*
X008862Y022819D02*
X010742Y022819D01*
X010392Y023057D02*
X010203Y023057D01*
X009464Y023057D02*
X008753Y023057D01*
X008909Y023296D02*
X009278Y023296D01*
X009223Y023534D02*
X008943Y023534D01*
X008881Y023773D02*
X009265Y023773D01*
X009432Y024011D02*
X008685Y024011D01*
X007982Y024011D02*
X007053Y024011D01*
X007162Y023773D02*
X007786Y023773D01*
X007723Y023534D02*
X007203Y023534D01*
X007190Y023296D02*
X007758Y023296D01*
X007914Y023057D02*
X007583Y023057D01*
X005823Y024220D02*
X005596Y023993D01*
X005463Y023673D01*
X005463Y023327D01*
X005574Y023061D01*
X005455Y023110D01*
X005212Y023110D01*
X004988Y023017D01*
X004833Y022863D01*
X004696Y023000D01*
X004850Y023154D01*
X004943Y023379D01*
X004943Y023621D01*
X004850Y023846D01*
X004679Y024017D01*
X004455Y024110D01*
X004212Y024110D01*
X003988Y024017D01*
X003833Y023863D01*
X003679Y024017D01*
X003455Y024110D01*
X003212Y024110D01*
X002988Y024017D01*
X002833Y023863D01*
X002679Y024017D01*
X002455Y024110D01*
X002212Y024110D01*
X001988Y024017D01*
X001833Y023863D01*
X001679Y024017D01*
X001455Y024110D01*
X001212Y024110D01*
X000988Y024017D01*
X000816Y023846D01*
X000723Y023621D01*
X000723Y023379D01*
X000816Y023154D01*
X000971Y023000D01*
X000816Y022846D01*
X000723Y022621D01*
X000723Y022379D01*
X000816Y022154D01*
X000971Y022000D01*
X000816Y021846D01*
X000723Y021621D01*
X000723Y021379D01*
X000816Y021154D01*
X000971Y021000D01*
X000816Y020846D01*
X000723Y020621D01*
X000723Y020379D01*
X000816Y020154D01*
X000971Y020000D01*
X000816Y019846D01*
X000723Y019621D01*
X000723Y019379D01*
X000816Y019154D01*
X000971Y019000D01*
X000816Y018846D01*
X000723Y018621D01*
X000723Y018379D01*
X000816Y018154D01*
X000988Y017983D01*
X001212Y017890D01*
X001455Y017890D01*
X001679Y017983D01*
X001833Y018137D01*
X001971Y018000D01*
X001816Y017846D01*
X001723Y017621D01*
X001723Y017379D01*
X001816Y017154D01*
X001971Y017000D01*
X001816Y016846D01*
X001723Y016621D01*
X001723Y016379D01*
X000613Y016379D01*
X000613Y016141D02*
X001830Y016141D01*
X001816Y016154D02*
X001971Y016000D01*
X001816Y015846D01*
X001723Y015621D01*
X001723Y015379D01*
X001816Y015154D01*
X001988Y014983D01*
X002212Y014890D01*
X002455Y014890D01*
X002679Y014983D01*
X002833Y015137D01*
X002971Y015000D01*
X002816Y014846D01*
X002723Y014621D01*
X002723Y014379D01*
X002816Y014154D01*
X002971Y014000D01*
X002833Y013863D01*
X002679Y014017D01*
X002455Y014110D01*
X002212Y014110D01*
X001988Y014017D01*
X001816Y013846D01*
X001723Y013621D01*
X001723Y013379D01*
X001816Y013154D01*
X001971Y013000D01*
X001816Y012846D01*
X001723Y012621D01*
X001723Y012379D01*
X001816Y012154D01*
X001971Y012000D01*
X001816Y011846D01*
X001723Y011621D01*
X001723Y011379D01*
X001816Y011154D01*
X001971Y011000D01*
X001816Y010846D01*
X001723Y010621D01*
X001723Y010379D01*
X001816Y010154D01*
X001971Y010000D01*
X001833Y009863D01*
X001679Y010017D01*
X001455Y010110D01*
X001212Y010110D01*
X000988Y010017D01*
X000816Y009846D01*
X000723Y009621D01*
X000723Y009379D01*
X000816Y009154D01*
X000971Y009000D01*
X000816Y008846D01*
X000723Y008621D01*
X000723Y008379D01*
X000816Y008154D01*
X000971Y008000D01*
X000816Y007846D01*
X000723Y007621D01*
X000723Y007379D01*
X000816Y007154D01*
X000988Y006983D01*
X001212Y006890D01*
X001455Y006890D01*
X001679Y006983D01*
X001833Y007137D01*
X001988Y006983D01*
X002212Y006890D01*
X002313Y006890D01*
X001510Y006087D01*
X001455Y006110D01*
X001212Y006110D01*
X000988Y006017D01*
X000816Y005846D01*
X000723Y005621D01*
X000723Y005379D01*
X000816Y005154D01*
X000988Y004983D01*
X001212Y004890D01*
X001455Y004890D01*
X001679Y004983D01*
X001850Y005154D01*
X001852Y005159D01*
X001883Y005116D01*
X001949Y005050D01*
X002024Y004995D01*
X002107Y004953D01*
X002195Y004925D01*
X002287Y004910D01*
X002333Y004910D01*
X002333Y005500D01*
X002333Y005500D01*
X002333Y004910D01*
X002380Y004910D01*
X002471Y004925D01*
X002560Y004953D01*
X002643Y004995D01*
X002718Y005050D01*
X002783Y005116D01*
X002838Y005191D01*
X002880Y005274D01*
X002909Y005362D01*
X002923Y005454D01*
X002923Y005500D01*
X002923Y005546D01*
X002909Y005638D01*
X002880Y005726D01*
X002838Y005809D01*
X002783Y005884D01*
X002718Y005950D01*
X002643Y006005D01*
X002560Y006047D01*
X002471Y006075D01*
X002380Y006090D01*
X002333Y006090D01*
X002953Y006710D01*
X005633Y006710D01*
X005010Y006087D01*
X004955Y006110D01*
X004712Y006110D01*
X004488Y006017D01*
X004316Y005846D01*
X004315Y005841D01*
X004283Y005884D01*
X004218Y005950D01*
X004143Y006005D01*
X004060Y006047D01*
X003971Y006075D01*
X003880Y006090D01*
X003833Y006090D01*
X003787Y006090D01*
X003695Y006075D01*
X003607Y006047D01*
X003524Y006005D01*
X003449Y005950D01*
X003383Y005884D01*
X003329Y005809D01*
X003287Y005726D01*
X003258Y005638D01*
X003243Y005546D01*
X003243Y005500D01*
X003243Y005454D01*
X003258Y005362D01*
X003287Y005274D01*
X003329Y005191D01*
X003383Y005116D01*
X003449Y005050D01*
X003524Y004995D01*
X003607Y004953D01*
X003695Y004925D01*
X003787Y004910D01*
X003833Y004910D01*
X003833Y005500D01*
X003243Y005500D01*
X003833Y005500D01*
X003833Y005500D01*
X003833Y005500D01*
X003833Y006090D01*
X003833Y005500D01*
X003833Y005500D01*
X003833Y004910D01*
X003880Y004910D01*
X003971Y004925D01*
X004060Y004953D01*
X004143Y004995D01*
X004218Y005050D01*
X004283Y005116D01*
X004315Y005159D01*
X004316Y005154D01*
X004488Y004983D01*
X004712Y004890D01*
X004955Y004890D01*
X005179Y004983D01*
X005350Y005154D01*
X005443Y005379D01*
X005443Y005621D01*
X005420Y005677D01*
X005882Y006139D01*
X005921Y006100D01*
X005816Y005996D01*
X005723Y005771D01*
X005723Y005529D01*
X005816Y005304D01*
X005871Y005250D01*
X005841Y005237D01*
X005596Y004993D01*
X005463Y004673D01*
X005463Y004327D01*
X005596Y004007D01*
X005823Y003780D01*
X000613Y003780D01*
X000613Y024220D01*
X005823Y024220D01*
X005614Y024011D02*
X004685Y024011D01*
X004881Y023773D02*
X005505Y023773D01*
X005463Y023534D02*
X004943Y023534D01*
X004909Y023296D02*
X005476Y023296D01*
X005084Y023057D02*
X004753Y023057D01*
X003982Y024011D02*
X003685Y024011D01*
X002982Y024011D02*
X002685Y024011D01*
X001982Y024011D02*
X001685Y024011D01*
X000982Y024011D02*
X000613Y024011D01*
X000613Y023773D02*
X000786Y023773D01*
X000723Y023534D02*
X000613Y023534D01*
X000613Y023296D02*
X000758Y023296D01*
X000613Y023057D02*
X000914Y023057D01*
X000805Y022819D02*
X000613Y022819D01*
X000613Y022580D02*
X000723Y022580D01*
X000739Y022342D02*
X000613Y022342D01*
X000613Y022103D02*
X000868Y022103D01*
X000835Y021865D02*
X000613Y021865D01*
X000613Y021626D02*
X000725Y021626D01*
X000723Y021388D02*
X000613Y021388D01*
X000613Y021149D02*
X000822Y021149D01*
X000881Y020911D02*
X000613Y020911D01*
X000613Y020672D02*
X000744Y020672D01*
X000723Y020434D02*
X000613Y020434D01*
X000613Y020195D02*
X000799Y020195D01*
X000927Y019957D02*
X000613Y019957D01*
X000613Y019718D02*
X000763Y019718D01*
X000723Y019480D02*
X000613Y019480D01*
X000613Y019241D02*
X000780Y019241D01*
X000613Y019003D02*
X000968Y019003D01*
X000782Y018764D02*
X000613Y018764D01*
X000613Y018526D02*
X000723Y018526D01*
X000761Y018287D02*
X000613Y018287D01*
X000613Y018049D02*
X000922Y018049D01*
X000613Y017810D02*
X001801Y017810D01*
X001745Y018049D02*
X001922Y018049D01*
X001723Y017572D02*
X000613Y017572D01*
X000613Y017333D02*
X001742Y017333D01*
X001876Y017095D02*
X000613Y017095D01*
X000613Y016856D02*
X001827Y016856D01*
X001723Y016618D02*
X000613Y016618D01*
X000613Y015902D02*
X001873Y015902D01*
X001816Y016154D02*
X001723Y016379D01*
X001741Y015664D02*
X000613Y015664D01*
X000613Y015425D02*
X001723Y015425D01*
X001803Y015187D02*
X000613Y015187D01*
X000613Y014948D02*
X002072Y014948D01*
X002595Y014948D02*
X002919Y014948D01*
X002760Y014710D02*
X000613Y014710D01*
X000613Y014471D02*
X002723Y014471D01*
X002784Y014233D02*
X000613Y014233D01*
X000613Y013994D02*
X001965Y013994D01*
X001779Y013756D02*
X000613Y013756D01*
X000613Y013517D02*
X001723Y013517D01*
X001765Y013279D02*
X000613Y013279D01*
X000613Y013040D02*
X001931Y013040D01*
X001798Y012802D02*
X000613Y012802D01*
X000613Y012563D02*
X001723Y012563D01*
X001746Y012325D02*
X000613Y012325D01*
X000613Y012086D02*
X001885Y012086D01*
X001818Y011848D02*
X000613Y011848D01*
X000613Y011609D02*
X001723Y011609D01*
X001727Y011371D02*
X000613Y011371D01*
X000613Y011132D02*
X001839Y011132D01*
X001864Y010894D02*
X000613Y010894D01*
X000613Y010655D02*
X001737Y010655D01*
X001723Y010417D02*
X000613Y010417D01*
X000613Y010178D02*
X001806Y010178D01*
X001756Y009940D02*
X001910Y009940D01*
X000910Y009940D02*
X000613Y009940D01*
X000613Y009701D02*
X000756Y009701D01*
X000723Y009463D02*
X000613Y009463D01*
X000613Y009224D02*
X000787Y009224D01*
X000956Y008986D02*
X000613Y008986D01*
X000613Y008747D02*
X000775Y008747D01*
X000723Y008509D02*
X000613Y008509D01*
X000613Y008270D02*
X000768Y008270D01*
X000613Y008032D02*
X000939Y008032D01*
X000794Y007793D02*
X000613Y007793D01*
X000613Y007555D02*
X000723Y007555D01*
X000749Y007316D02*
X000613Y007316D01*
X000613Y007078D02*
X000893Y007078D01*
X000613Y006839D02*
X002262Y006839D01*
X002024Y006601D02*
X000613Y006601D01*
X000613Y006362D02*
X001785Y006362D01*
X001547Y006124D02*
X000613Y006124D01*
X000613Y005885D02*
X000856Y005885D01*
X000734Y005647D02*
X000613Y005647D01*
X000613Y005408D02*
X000723Y005408D01*
X000810Y005170D02*
X000613Y005170D01*
X000613Y004931D02*
X001113Y004931D01*
X001554Y004931D02*
X002175Y004931D01*
X002333Y004931D02*
X002333Y004931D01*
X002491Y004931D02*
X003675Y004931D01*
X003833Y004931D02*
X003833Y004931D01*
X003991Y004931D02*
X004613Y004931D01*
X005054Y004931D02*
X005570Y004931D01*
X005471Y004693D02*
X000613Y004693D01*
X000613Y004454D02*
X005463Y004454D01*
X005510Y004216D02*
X000613Y004216D01*
X000613Y003977D02*
X005626Y003977D01*
X005773Y005170D02*
X005357Y005170D01*
X005443Y005408D02*
X005773Y005408D01*
X005723Y005647D02*
X005433Y005647D01*
X005628Y005885D02*
X005770Y005885D01*
X005867Y006124D02*
X005897Y006124D01*
X005285Y006362D02*
X002605Y006362D01*
X002367Y006124D02*
X005047Y006124D01*
X004356Y005885D02*
X004283Y005885D01*
X003833Y005885D02*
X003833Y005885D01*
X003833Y005647D02*
X003833Y005647D01*
X003833Y005408D02*
X003833Y005408D01*
X003833Y005170D02*
X003833Y005170D01*
X003344Y005170D02*
X002822Y005170D01*
X002916Y005408D02*
X003251Y005408D01*
X003261Y005647D02*
X002906Y005647D01*
X002923Y005500D02*
X002333Y005500D01*
X002333Y005500D01*
X002923Y005500D01*
X002783Y005885D02*
X003384Y005885D01*
X002333Y005408D02*
X002333Y005408D01*
X002333Y005170D02*
X002333Y005170D01*
X002844Y006601D02*
X005524Y006601D01*
X001893Y007078D02*
X001774Y007078D01*
X009774Y007078D02*
X010049Y007078D01*
X009917Y007316D02*
X016784Y007316D01*
X016698Y007078D02*
X012590Y007078D01*
X012575Y007092D02*
X012506Y007142D01*
X012431Y007180D01*
X012350Y007207D01*
X012266Y007220D01*
X012223Y007220D01*
X012181Y007220D01*
X012097Y007207D01*
X012016Y007180D01*
X011940Y007142D01*
X011872Y007092D01*
X011811Y007032D01*
X011761Y006963D01*
X011723Y006887D01*
X011697Y006806D01*
X011683Y006722D01*
X011683Y006680D01*
X012223Y006680D01*
X011683Y006680D01*
X011683Y006638D01*
X011697Y006554D01*
X011723Y006473D01*
X011761Y006397D01*
X011811Y006328D01*
X011872Y006268D01*
X011940Y006218D01*
X012016Y006180D01*
X012097Y006153D01*
X012181Y006140D01*
X012223Y006140D01*
X012223Y006680D01*
X012223Y006680D01*
X012223Y007220D01*
X012223Y006680D01*
X012223Y006680D01*
X012223Y006680D01*
X012223Y006140D01*
X012266Y006140D01*
X012350Y006153D01*
X012431Y006180D01*
X012506Y006218D01*
X012575Y006268D01*
X012635Y006328D01*
X012685Y006397D01*
X012724Y006473D01*
X012750Y006554D01*
X012763Y006638D01*
X012763Y006680D01*
X012763Y006722D01*
X012750Y006806D01*
X012724Y006887D01*
X012685Y006963D01*
X012635Y007032D01*
X012575Y007092D01*
X012739Y006839D02*
X016715Y006839D01*
X016848Y006601D02*
X012757Y006601D01*
X012763Y006680D02*
X012223Y006680D01*
X012763Y006680D01*
X012660Y006362D02*
X017983Y006362D01*
X017983Y006124D02*
X010733Y006124D01*
X010628Y005885D02*
X017983Y005885D01*
X017983Y005647D02*
X010390Y005647D01*
X010151Y005408D02*
X017983Y005408D01*
X017983Y005170D02*
X013074Y005170D01*
X012731Y004693D02*
X011426Y004693D01*
X011187Y004454D02*
X011799Y004454D01*
X011692Y004216D02*
X011003Y004216D01*
X010990Y003977D02*
X011702Y003977D01*
X012223Y004216D02*
X012223Y004216D01*
X012223Y004454D02*
X012223Y004454D01*
X012648Y004454D02*
X012723Y004454D01*
X012755Y004216D02*
X012791Y004216D01*
X012745Y003977D02*
X013002Y003977D01*
X013665Y003977D02*
X013894Y003977D01*
X014773Y003977D02*
X015002Y003977D01*
X015665Y003977D02*
X015922Y003977D01*
X016333Y003977D02*
X016333Y003977D01*
X016333Y003810D02*
X016380Y003810D01*
X016471Y003825D01*
X016560Y003853D01*
X016643Y003895D01*
X016718Y003950D01*
X016783Y004016D01*
X016838Y004091D01*
X016864Y004142D01*
X016883Y004116D01*
X016949Y004050D01*
X017024Y003995D01*
X017107Y003953D01*
X017195Y003925D01*
X017287Y003910D01*
X017333Y003910D01*
X017333Y004500D01*
X017333Y005090D01*
X017333Y004500D01*
X017333Y004500D01*
X017333Y004500D01*
X017333Y003910D01*
X017380Y003910D01*
X017471Y003925D01*
X017560Y003953D01*
X017643Y003995D01*
X017718Y004050D01*
X017783Y004116D01*
X017788Y004122D01*
X017816Y004054D01*
X017988Y003883D01*
X018212Y003790D01*
X018455Y003790D01*
X018679Y003883D01*
X018850Y004054D01*
X018943Y004279D01*
X018943Y004521D01*
X018850Y004746D01*
X018783Y004813D01*
X018783Y006390D01*
X018783Y006124D02*
X036808Y006124D01*
X036813Y006116D02*
X036879Y006050D01*
X036954Y005995D01*
X037037Y005953D01*
X037125Y005925D01*
X037217Y005910D01*
X037263Y005910D01*
X037263Y006500D01*
X036673Y006500D01*
X037263Y006500D01*
X037263Y006500D01*
X037263Y006500D01*
X037263Y005910D01*
X037310Y005910D01*
X037401Y005925D01*
X037490Y005953D01*
X037573Y005995D01*
X037648Y006050D01*
X037713Y006116D01*
X037768Y006191D01*
X037810Y006274D01*
X037833Y006345D01*
X037857Y006274D01*
X037899Y006191D01*
X037953Y006116D01*
X038019Y006050D01*
X038094Y005995D01*
X038177Y005953D01*
X038265Y005925D01*
X038357Y005910D01*
X038403Y005910D01*
X038403Y006500D01*
X037853Y006500D01*
X037263Y006500D01*
X038403Y006500D01*
X038403Y006500D01*
X038403Y006500D01*
X038403Y005910D01*
X038450Y005910D01*
X038541Y005925D01*
X038630Y005953D01*
X038713Y005995D01*
X038788Y006050D01*
X038853Y006116D01*
X038908Y006191D01*
X038950Y006274D01*
X038979Y006362D01*
X040053Y006362D01*
X040053Y006124D02*
X038859Y006124D01*
X038979Y006362D02*
X038993Y006454D01*
X038993Y006500D01*
X038993Y006546D01*
X038979Y006638D01*
X038950Y006726D01*
X038908Y006809D01*
X038853Y006884D01*
X038788Y006950D01*
X038713Y007005D01*
X038672Y007026D01*
X038800Y007154D01*
X038893Y007379D01*
X038893Y007621D01*
X038800Y007846D01*
X038682Y007964D01*
X038729Y007983D01*
X038900Y008154D01*
X038993Y008379D01*
X038993Y008621D01*
X038900Y008846D01*
X038729Y009017D01*
X038682Y009036D01*
X038800Y009154D01*
X038893Y009379D01*
X038893Y009621D01*
X038800Y009846D01*
X038682Y009964D01*
X038729Y009983D01*
X038900Y010154D01*
X038993Y010379D01*
X038993Y010621D01*
X038900Y010846D01*
X038729Y011017D01*
X038682Y011036D01*
X038800Y011154D01*
X038893Y011379D01*
X038893Y011621D01*
X038800Y011846D01*
X038682Y011964D01*
X038729Y011983D01*
X038900Y012154D01*
X038993Y012379D01*
X038993Y012621D01*
X038900Y012846D01*
X038729Y013017D01*
X038682Y013036D01*
X038800Y013154D01*
X038893Y013379D01*
X038893Y013621D01*
X038800Y013846D01*
X038682Y013964D01*
X038729Y013983D01*
X038900Y014154D01*
X038993Y014379D01*
X038993Y014621D01*
X038900Y014846D01*
X038729Y015017D01*
X038682Y015036D01*
X038800Y015154D01*
X038893Y015379D01*
X038893Y015621D01*
X038800Y015846D01*
X038682Y015964D01*
X038729Y015983D01*
X038900Y016154D01*
X038744Y015902D02*
X040053Y015902D01*
X040053Y015664D02*
X038876Y015664D01*
X038893Y015425D02*
X040053Y015425D01*
X040053Y015187D02*
X038814Y015187D01*
X038798Y014948D02*
X040053Y014948D01*
X040053Y014710D02*
X038957Y014710D01*
X038993Y014471D02*
X040053Y014471D01*
X040053Y014233D02*
X038933Y014233D01*
X038740Y013994D02*
X040053Y013994D01*
X040053Y013756D02*
X038838Y013756D01*
X038893Y013517D02*
X040053Y013517D01*
X040053Y013279D02*
X038852Y013279D01*
X038686Y013040D02*
X040053Y013040D01*
X040053Y012802D02*
X038919Y012802D01*
X038993Y012563D02*
X040053Y012563D01*
X040053Y012325D02*
X038971Y012325D01*
X038832Y012086D02*
X040053Y012086D01*
X040053Y011848D02*
X038798Y011848D01*
X038893Y011609D02*
X040053Y011609D01*
X040053Y011371D02*
X038890Y011371D01*
X038778Y011132D02*
X040053Y011132D01*
X040053Y010894D02*
X038852Y010894D01*
X038979Y010655D02*
X040053Y010655D01*
X040053Y010417D02*
X038993Y010417D01*
X038910Y010178D02*
X040053Y010178D01*
X040053Y009940D02*
X038706Y009940D01*
X038860Y009701D02*
X040053Y009701D01*
X040053Y009463D02*
X038893Y009463D01*
X038829Y009224D02*
X040053Y009224D01*
X040053Y008986D02*
X038760Y008986D01*
X038941Y008747D02*
X040053Y008747D01*
X040053Y008509D02*
X038993Y008509D01*
X038948Y008270D02*
X040053Y008270D01*
X040053Y008032D02*
X038778Y008032D01*
X038822Y007793D02*
X040053Y007793D01*
X040053Y007555D02*
X038893Y007555D01*
X038867Y007316D02*
X040053Y007316D01*
X040053Y007078D02*
X038724Y007078D01*
X038886Y006839D02*
X040053Y006839D01*
X040053Y006601D02*
X038985Y006601D01*
X038993Y006500D02*
X038403Y006500D01*
X038403Y006500D01*
X038993Y006500D01*
X038403Y006362D02*
X038403Y006362D01*
X038403Y006124D02*
X038403Y006124D01*
X037948Y006124D02*
X037719Y006124D01*
X037263Y006124D02*
X037263Y006124D01*
X037263Y006362D02*
X037263Y006362D01*
X037263Y006500D02*
X037263Y006500D01*
X036682Y006601D02*
X018993Y006601D01*
X018993Y006839D02*
X036780Y006839D01*
X036843Y007078D02*
X018993Y007078D01*
X018993Y007316D02*
X036699Y007316D01*
X036673Y007555D02*
X018908Y007555D01*
X018939Y008032D02*
X018728Y008032D01*
X017939Y008032D02*
X017728Y008032D01*
X017858Y007555D02*
X017486Y007555D01*
X017283Y007555D02*
X017283Y007555D01*
X017081Y007555D02*
X009943Y007555D01*
X010036Y007793D02*
X036744Y007793D01*
X036972Y008032D02*
X034728Y008032D01*
X034898Y008270D02*
X036818Y008270D01*
X036773Y008509D02*
X034943Y008509D01*
X034891Y008747D02*
X036825Y008747D01*
X036935Y008986D02*
X034710Y008986D01*
X034879Y009224D02*
X036737Y009224D01*
X036673Y009463D02*
X034943Y009463D01*
X034910Y009701D02*
X036706Y009701D01*
X036860Y009940D02*
X034756Y009940D01*
X034860Y010178D02*
X036856Y010178D01*
X036773Y010417D02*
X034943Y010417D01*
X034929Y010655D02*
X036787Y010655D01*
X036914Y010894D02*
X034802Y010894D01*
X034828Y011132D02*
X036789Y011132D01*
X036677Y011371D02*
X034940Y011371D01*
X034943Y011609D02*
X036673Y011609D01*
X036768Y011848D02*
X034848Y011848D01*
X034513Y012086D02*
X036935Y012086D01*
X036796Y012325D02*
X010123Y012325D01*
X010123Y012563D02*
X036773Y012563D01*
X036848Y012802D02*
X010123Y012802D01*
X010123Y013040D02*
X036881Y013040D01*
X036715Y013279D02*
X010123Y013279D01*
X010123Y013517D02*
X036673Y013517D01*
X036729Y013756D02*
X010123Y013756D01*
X010690Y013994D02*
X010977Y013994D01*
X011690Y013994D02*
X011977Y013994D01*
X012690Y013994D02*
X012977Y013994D01*
X013690Y013994D02*
X013977Y013994D01*
X014690Y013994D02*
X014977Y013994D01*
X015690Y013994D02*
X015977Y013994D01*
X016690Y013994D02*
X016977Y013994D01*
X017690Y013994D02*
X017977Y013994D01*
X018690Y013994D02*
X018977Y013994D01*
X019690Y013994D02*
X019977Y013994D01*
X020690Y013994D02*
X020977Y013994D01*
X021690Y013994D02*
X021977Y013994D01*
X022690Y013994D02*
X022977Y013994D01*
X023690Y013994D02*
X023977Y013994D01*
X024690Y013994D02*
X024977Y013994D01*
X025690Y013994D02*
X025977Y013994D01*
X026690Y013994D02*
X026977Y013994D01*
X027690Y013994D02*
X027977Y013994D01*
X028690Y013994D02*
X028977Y013994D01*
X029690Y013994D02*
X029977Y013994D01*
X030690Y013994D02*
X030977Y013994D01*
X031690Y013994D02*
X031977Y013994D01*
X032690Y013994D02*
X032977Y013994D01*
X033690Y013994D02*
X033977Y013994D01*
X034690Y013994D02*
X036915Y013994D01*
X036834Y014233D02*
X034883Y014233D01*
X034943Y014471D02*
X036773Y014471D01*
X036810Y014710D02*
X034907Y014710D01*
X034748Y014948D02*
X036969Y014948D01*
X036753Y015187D02*
X034864Y015187D01*
X034943Y015425D02*
X036673Y015425D01*
X036691Y015664D02*
X034926Y015664D01*
X034794Y015902D02*
X036823Y015902D01*
X036880Y016141D02*
X034837Y016141D01*
X034943Y016379D02*
X034943Y016621D01*
X034840Y016856D02*
X036877Y016856D01*
X036826Y017095D02*
X034791Y017095D01*
X034924Y017333D02*
X036692Y017333D01*
X036673Y017572D02*
X034943Y017572D01*
X034865Y017810D02*
X036751Y017810D01*
X036972Y018049D02*
X034603Y018049D01*
X034064Y018049D02*
X033603Y018049D01*
X033064Y018049D02*
X032603Y018049D01*
X032064Y018049D02*
X031603Y018049D01*
X031064Y018049D02*
X030745Y018049D01*
X030905Y018287D02*
X036811Y018287D01*
X036773Y018526D02*
X030943Y018526D01*
X030884Y018764D02*
X036832Y018764D01*
X036918Y019003D02*
X030693Y019003D01*
X029973Y019003D02*
X029693Y019003D01*
X028973Y019003D02*
X028693Y019003D01*
X027973Y019003D02*
X027693Y019003D01*
X026973Y019003D02*
X026693Y019003D01*
X025973Y019003D02*
X025693Y019003D01*
X024973Y019003D02*
X024693Y019003D01*
X023973Y019003D02*
X023699Y019003D01*
X023886Y019241D02*
X036730Y019241D01*
X036673Y019480D02*
X023943Y019480D01*
X023903Y019718D02*
X036713Y019718D01*
X036877Y019957D02*
X023739Y019957D01*
X023867Y020195D02*
X036849Y020195D01*
X036773Y020434D02*
X023943Y020434D01*
X023922Y020672D02*
X036794Y020672D01*
X036931Y020911D02*
X023785Y020911D01*
X022881Y020911D02*
X022785Y020911D01*
X021881Y020911D02*
X021785Y020911D01*
X020881Y020911D02*
X020785Y020911D01*
X019881Y020911D02*
X019785Y020911D01*
X018881Y020911D02*
X018785Y020911D01*
X017881Y020911D02*
X017785Y020911D01*
X016881Y020911D02*
X016785Y020911D01*
X015881Y020911D02*
X015785Y020911D01*
X014881Y020911D02*
X014785Y020911D01*
X013881Y020911D02*
X013785Y020911D01*
X012881Y020911D02*
X012785Y020911D01*
X011881Y020911D02*
X011785Y020911D01*
X010881Y020911D02*
X010785Y020911D01*
X011562Y022819D02*
X035285Y022819D01*
X035075Y023057D02*
X034803Y023057D01*
X034850Y023104D02*
X034679Y022933D01*
X034455Y022840D01*
X034212Y022840D01*
X033988Y022933D01*
X033816Y023104D01*
X033797Y023151D01*
X033679Y023033D01*
X033455Y022940D01*
X033212Y022940D01*
X032988Y023033D01*
X032870Y023151D01*
X032850Y023104D01*
X032679Y022933D01*
X032455Y022840D01*
X032212Y022840D01*
X031988Y022933D01*
X031816Y023104D01*
X031797Y023151D01*
X031679Y023033D01*
X031455Y022940D01*
X031212Y022940D01*
X030988Y023033D01*
X030870Y023151D01*
X030850Y023104D01*
X030679Y022933D01*
X030455Y022840D01*
X030212Y022840D01*
X029988Y022933D01*
X029816Y023104D01*
X029797Y023151D01*
X029679Y023033D01*
X029455Y022940D01*
X029212Y022940D01*
X028988Y023033D01*
X028870Y023151D01*
X028850Y023104D01*
X028679Y022933D01*
X028455Y022840D01*
X028212Y022840D01*
X027988Y022933D01*
X027892Y023029D01*
X027839Y022977D01*
X027751Y022940D01*
X026916Y022940D01*
X026827Y022977D01*
X026760Y023044D01*
X026723Y023132D01*
X026723Y023968D01*
X026760Y024056D01*
X026827Y024123D01*
X026916Y024160D01*
X027751Y024160D01*
X027839Y024123D01*
X027907Y024056D01*
X027943Y023968D01*
X027943Y023923D01*
X027988Y023967D01*
X028212Y024060D01*
X028455Y024060D01*
X028679Y023967D01*
X028797Y023849D01*
X028816Y023896D01*
X028988Y024067D01*
X029212Y024160D01*
X029455Y024160D01*
X029679Y024067D01*
X029850Y023896D01*
X029870Y023849D01*
X029988Y023967D01*
X030212Y024060D01*
X030455Y024060D01*
X030679Y023967D01*
X030797Y023849D01*
X030816Y023896D01*
X030988Y024067D01*
X031212Y024160D01*
X031455Y024160D01*
X031679Y024067D01*
X031850Y023896D01*
X031870Y023849D01*
X031988Y023967D01*
X032212Y024060D01*
X032455Y024060D01*
X032679Y023967D01*
X032797Y023849D01*
X032816Y023896D01*
X032988Y024067D01*
X033212Y024160D01*
X033455Y024160D01*
X033679Y024067D01*
X033850Y023896D01*
X033870Y023849D01*
X033988Y023967D01*
X034212Y024060D01*
X034455Y024060D01*
X034679Y023967D01*
X034850Y023796D01*
X034943Y023571D01*
X034943Y023329D01*
X034850Y023104D01*
X034930Y023296D02*
X034976Y023296D01*
X034963Y023534D02*
X034943Y023534D01*
X035005Y023773D02*
X034860Y023773D01*
X035114Y024011D02*
X034573Y024011D01*
X034094Y024011D02*
X033735Y024011D01*
X032932Y024011D02*
X032573Y024011D01*
X032094Y024011D02*
X031735Y024011D01*
X030932Y024011D02*
X030573Y024011D01*
X030094Y024011D02*
X029735Y024011D01*
X028932Y024011D02*
X028573Y024011D01*
X028094Y024011D02*
X027925Y024011D01*
X026741Y024011D02*
X025852Y024011D01*
X025839Y024023D02*
X025751Y024060D01*
X024916Y024060D01*
X024827Y024023D01*
X024775Y023971D01*
X024679Y024067D01*
X024455Y024160D01*
X024212Y024160D01*
X023988Y024067D01*
X023816Y023896D01*
X023797Y023849D01*
X023679Y023967D01*
X023455Y024060D01*
X023212Y024060D01*
X022988Y023967D01*
X022870Y023849D01*
X022850Y023896D01*
X022679Y024067D01*
X022455Y024160D01*
X022212Y024160D01*
X021988Y024067D01*
X021816Y023896D01*
X021797Y023849D01*
X021679Y023967D01*
X021455Y024060D01*
X021212Y024060D01*
X020988Y023967D01*
X020870Y023849D01*
X020850Y023896D01*
X020679Y024067D01*
X020455Y024160D01*
X020212Y024160D01*
X019988Y024067D01*
X019816Y023896D01*
X019797Y023849D01*
X019679Y023967D01*
X019455Y024060D01*
X019212Y024060D01*
X018988Y023967D01*
X018870Y023849D01*
X018850Y023896D01*
X018679Y024067D01*
X018455Y024160D01*
X018212Y024160D01*
X017988Y024067D01*
X017816Y023896D01*
X017723Y023671D01*
X017723Y023429D01*
X017816Y023204D01*
X017988Y023033D01*
X018212Y022940D01*
X018455Y022940D01*
X018679Y023033D01*
X018797Y023151D01*
X018816Y023104D01*
X018988Y022933D01*
X019212Y022840D01*
X019455Y022840D01*
X019679Y022933D01*
X019850Y023104D01*
X019870Y023151D01*
X019988Y023033D01*
X020212Y022940D01*
X020455Y022940D01*
X020679Y023033D01*
X020797Y023151D01*
X020816Y023104D01*
X020988Y022933D01*
X021212Y022840D01*
X021455Y022840D01*
X021679Y022933D01*
X021850Y023104D01*
X021870Y023151D01*
X021988Y023033D01*
X022212Y022940D01*
X022455Y022940D01*
X022679Y023033D01*
X022797Y023151D01*
X022816Y023104D01*
X022988Y022933D01*
X023212Y022840D01*
X023455Y022840D01*
X023679Y022933D01*
X023850Y023104D01*
X023870Y023151D01*
X023988Y023033D01*
X024212Y022940D01*
X024455Y022940D01*
X024679Y023033D01*
X024723Y023077D01*
X024723Y023032D01*
X024760Y022944D01*
X024827Y022877D01*
X024916Y022840D01*
X025751Y022840D01*
X025839Y022877D01*
X025907Y022944D01*
X025943Y023032D01*
X025943Y023868D01*
X025907Y023956D01*
X025839Y024023D01*
X025943Y023773D02*
X026723Y023773D01*
X026723Y023534D02*
X025943Y023534D01*
X025943Y023296D02*
X026723Y023296D01*
X026754Y023057D02*
X025943Y023057D01*
X024723Y023057D02*
X024703Y023057D01*
X023964Y023057D02*
X023803Y023057D01*
X022864Y023057D02*
X022703Y023057D01*
X021964Y023057D02*
X021803Y023057D01*
X020864Y023057D02*
X020703Y023057D01*
X019964Y023057D02*
X019803Y023057D01*
X018864Y023057D02*
X018703Y023057D01*
X017964Y023057D02*
X017443Y023057D01*
X017443Y023296D02*
X017778Y023296D01*
X017723Y023534D02*
X017443Y023534D01*
X017443Y023773D02*
X017765Y023773D01*
X017932Y024011D02*
X017352Y024011D01*
X016315Y024011D02*
X016235Y024011D01*
X015432Y024011D02*
X015073Y024011D01*
X014594Y024011D02*
X014235Y024011D01*
X013432Y024011D02*
X013073Y024011D01*
X012594Y024011D02*
X012235Y024011D01*
X011432Y024011D02*
X011016Y024011D01*
X010833Y024011D02*
X010833Y024011D01*
X010833Y024040D02*
X010833Y023450D01*
X010833Y023450D01*
X010833Y024040D01*
X010651Y024011D02*
X010235Y024011D01*
X010833Y023773D02*
X010833Y023773D01*
X010833Y023534D02*
X010833Y023534D01*
X012203Y023057D02*
X012364Y023057D01*
X013303Y023057D02*
X013464Y023057D01*
X014203Y023057D02*
X014364Y023057D01*
X015303Y023057D02*
X015464Y023057D01*
X016203Y023057D02*
X016223Y023057D01*
X018735Y024011D02*
X019094Y024011D01*
X019573Y024011D02*
X019932Y024011D01*
X020735Y024011D02*
X021094Y024011D01*
X021573Y024011D02*
X021932Y024011D01*
X022735Y024011D02*
X023094Y024011D01*
X023573Y024011D02*
X023932Y024011D01*
X024735Y024011D02*
X024815Y024011D01*
X028803Y023057D02*
X028964Y023057D01*
X029703Y023057D02*
X029864Y023057D01*
X030803Y023057D02*
X030964Y023057D01*
X031703Y023057D02*
X031864Y023057D01*
X032803Y023057D02*
X032964Y023057D01*
X033703Y023057D02*
X033864Y023057D01*
X034154Y012086D02*
X033513Y012086D01*
X033154Y012086D02*
X032513Y012086D01*
X032154Y012086D02*
X031513Y012086D01*
X031154Y012086D02*
X030513Y012086D01*
X030154Y012086D02*
X029513Y012086D01*
X029154Y012086D02*
X028513Y012086D01*
X028154Y012086D02*
X027513Y012086D01*
X027154Y012086D02*
X026513Y012086D01*
X026154Y012086D02*
X025513Y012086D01*
X025154Y012086D02*
X024513Y012086D01*
X024154Y012086D02*
X023513Y012086D01*
X023154Y012086D02*
X022513Y012086D01*
X022154Y012086D02*
X021513Y012086D01*
X021154Y012086D02*
X020513Y012086D01*
X020154Y012086D02*
X019513Y012086D01*
X019154Y012086D02*
X018513Y012086D01*
X018154Y012086D02*
X017513Y012086D01*
X017154Y012086D02*
X016513Y012086D01*
X016154Y012086D02*
X015513Y012086D01*
X015154Y012086D02*
X014513Y012086D01*
X014154Y012086D02*
X013513Y012086D01*
X013154Y012086D02*
X012513Y012086D01*
X012154Y012086D02*
X011513Y012086D01*
X011154Y012086D02*
X010513Y012086D01*
X010154Y012086D02*
X010123Y012086D01*
X010728Y008032D02*
X010939Y008032D01*
X011728Y008032D02*
X011939Y008032D01*
X012728Y008032D02*
X012939Y008032D01*
X013728Y008032D02*
X013939Y008032D01*
X014728Y008032D02*
X014939Y008032D01*
X015728Y008032D02*
X015939Y008032D01*
X016728Y008032D02*
X016939Y008032D01*
X017283Y007316D02*
X017283Y007316D01*
X017283Y007078D02*
X017283Y007078D01*
X017283Y006839D02*
X017283Y006839D01*
X017283Y006601D02*
X017283Y006601D01*
X017718Y006601D02*
X017773Y006601D01*
X018783Y005885D02*
X040053Y005885D01*
X040053Y005647D02*
X018783Y005647D01*
X018783Y005408D02*
X040053Y005408D01*
X040053Y005170D02*
X038894Y005170D01*
X039096Y004931D02*
X039868Y004931D01*
X039630Y004693D02*
X039195Y004693D01*
X039203Y004454D02*
X039391Y004454D01*
X037773Y005170D02*
X018783Y005170D01*
X018783Y004931D02*
X019723Y004931D01*
X019723Y004968D02*
X019723Y004132D01*
X019760Y004044D01*
X019827Y003977D01*
X018773Y003977D01*
X018917Y004216D02*
X019723Y004216D01*
X019723Y004454D02*
X018943Y004454D01*
X018872Y004693D02*
X019723Y004693D01*
X019723Y004968D02*
X019760Y005056D01*
X019827Y005123D01*
X019916Y005160D01*
X020751Y005160D01*
X020839Y005123D01*
X020907Y005056D01*
X020943Y004968D01*
X020943Y004923D01*
X020988Y004967D01*
X021212Y005060D01*
X021455Y005060D01*
X021679Y004967D01*
X021797Y004849D01*
X021816Y004896D01*
X021988Y005067D01*
X022212Y005160D01*
X022455Y005160D01*
X022679Y005067D01*
X022850Y004896D01*
X022870Y004849D01*
X022988Y004967D01*
X023212Y005060D01*
X023455Y005060D01*
X023679Y004967D01*
X023797Y004849D01*
X023816Y004896D01*
X023988Y005067D01*
X024212Y005160D01*
X024455Y005160D01*
X024679Y005067D01*
X024850Y004896D01*
X024870Y004849D01*
X024988Y004967D01*
X025212Y005060D01*
X025455Y005060D01*
X025679Y004967D01*
X025797Y004849D01*
X025816Y004896D01*
X025988Y005067D01*
X026212Y005160D01*
X026455Y005160D01*
X026679Y005067D01*
X026850Y004896D01*
X026870Y004849D01*
X026988Y004967D01*
X027212Y005060D01*
X027455Y005060D01*
X027679Y004967D01*
X027850Y004796D01*
X027943Y004571D01*
X027943Y004329D01*
X027850Y004104D01*
X027679Y003933D01*
X027455Y003840D01*
X027212Y003840D01*
X026988Y003933D01*
X026816Y004104D01*
X026797Y004151D01*
X026679Y004033D01*
X026455Y003940D01*
X026212Y003940D01*
X025988Y004033D01*
X025870Y004151D01*
X025850Y004104D01*
X025679Y003933D01*
X025455Y003840D01*
X025212Y003840D01*
X024988Y003933D01*
X024816Y004104D01*
X024797Y004151D01*
X024679Y004033D01*
X024455Y003940D01*
X024212Y003940D01*
X023988Y004033D01*
X023870Y004151D01*
X023850Y004104D01*
X023679Y003933D01*
X023455Y003840D01*
X023212Y003840D01*
X022988Y003933D01*
X022816Y004104D01*
X022797Y004151D01*
X022679Y004033D01*
X022455Y003940D01*
X022212Y003940D01*
X021988Y004033D01*
X021870Y004151D01*
X021850Y004104D01*
X021679Y003933D01*
X021455Y003840D01*
X021212Y003840D01*
X020988Y003933D01*
X020892Y004029D01*
X020839Y003977D01*
X020751Y003940D01*
X019916Y003940D01*
X019827Y003977D01*
X020840Y003977D02*
X020944Y003977D01*
X021723Y003977D02*
X022123Y003977D01*
X022544Y003977D02*
X022944Y003977D01*
X023723Y003977D02*
X024123Y003977D01*
X024544Y003977D02*
X024944Y003977D01*
X025723Y003977D02*
X026123Y003977D01*
X026544Y003977D02*
X026944Y003977D01*
X027723Y003977D02*
X028827Y003977D01*
X028916Y003940D01*
X029751Y003940D01*
X029839Y003977D01*
X029892Y004029D01*
X029988Y003933D01*
X030212Y003840D01*
X030455Y003840D01*
X030679Y003933D01*
X030850Y004104D01*
X030870Y004151D01*
X030988Y004033D01*
X031212Y003940D01*
X031455Y003940D01*
X031679Y004033D01*
X031797Y004151D01*
X031816Y004104D01*
X031988Y003933D01*
X032212Y003840D01*
X032455Y003840D01*
X032679Y003933D01*
X032850Y004104D01*
X032870Y004151D01*
X032988Y004033D01*
X033212Y003940D01*
X033455Y003940D01*
X033679Y004033D01*
X033797Y004151D01*
X033816Y004104D01*
X033988Y003933D01*
X034212Y003840D01*
X034455Y003840D01*
X034679Y003933D01*
X034850Y004104D01*
X034870Y004151D01*
X034988Y004033D01*
X035212Y003940D01*
X035455Y003940D01*
X035679Y004033D01*
X035797Y004151D01*
X035816Y004104D01*
X035988Y003933D01*
X036212Y003840D01*
X036455Y003840D01*
X036679Y003933D01*
X036850Y004104D01*
X036943Y004329D01*
X036943Y004571D01*
X036850Y004796D01*
X036679Y004967D01*
X036455Y005060D01*
X036212Y005060D01*
X035988Y004967D01*
X035870Y004849D01*
X035850Y004896D01*
X035679Y005067D01*
X035455Y005160D01*
X035212Y005160D01*
X034988Y005067D01*
X034816Y004896D01*
X034797Y004849D01*
X034679Y004967D01*
X034455Y005060D01*
X034212Y005060D01*
X033988Y004967D01*
X033870Y004849D01*
X033850Y004896D01*
X033679Y005067D01*
X033455Y005160D01*
X033212Y005160D01*
X032988Y005067D01*
X032816Y004896D01*
X032797Y004849D01*
X032679Y004967D01*
X032455Y005060D01*
X032212Y005060D01*
X031988Y004967D01*
X031870Y004849D01*
X031850Y004896D01*
X031679Y005067D01*
X031455Y005160D01*
X031212Y005160D01*
X030988Y005067D01*
X030816Y004896D01*
X030797Y004849D01*
X030679Y004967D01*
X030455Y005060D01*
X030212Y005060D01*
X029988Y004967D01*
X029943Y004923D01*
X029943Y004968D01*
X029907Y005056D01*
X029839Y005123D01*
X029751Y005160D01*
X028916Y005160D01*
X028827Y005123D01*
X028760Y005056D01*
X028723Y004968D01*
X028723Y004132D01*
X028760Y004044D01*
X028827Y003977D01*
X028723Y004216D02*
X027896Y004216D01*
X027943Y004454D02*
X028723Y004454D01*
X028723Y004693D02*
X027893Y004693D01*
X027715Y004931D02*
X028723Y004931D01*
X029943Y004931D02*
X029952Y004931D01*
X030715Y004931D02*
X030852Y004931D01*
X031815Y004931D02*
X031952Y004931D01*
X032715Y004931D02*
X032852Y004931D01*
X033815Y004931D02*
X033952Y004931D01*
X034715Y004931D02*
X034852Y004931D01*
X035815Y004931D02*
X035952Y004931D01*
X036715Y004931D02*
X037570Y004931D01*
X037471Y004693D02*
X036893Y004693D01*
X036943Y004454D02*
X037463Y004454D01*
X037510Y004216D02*
X036896Y004216D01*
X036723Y003977D02*
X037626Y003977D01*
X035944Y003977D02*
X035544Y003977D01*
X035123Y003977D02*
X034723Y003977D01*
X033944Y003977D02*
X033544Y003977D01*
X033123Y003977D02*
X032723Y003977D01*
X031944Y003977D02*
X031544Y003977D01*
X031123Y003977D02*
X030723Y003977D01*
X029944Y003977D02*
X029840Y003977D01*
X026952Y004931D02*
X026815Y004931D01*
X025852Y004931D02*
X025715Y004931D01*
X024952Y004931D02*
X024815Y004931D01*
X023852Y004931D02*
X023715Y004931D01*
X022952Y004931D02*
X022815Y004931D01*
X021852Y004931D02*
X021715Y004931D01*
X020952Y004931D02*
X020943Y004931D01*
X017983Y004931D02*
X017737Y004931D01*
X017333Y004931D02*
X017333Y004931D01*
X017333Y004693D02*
X017333Y004693D01*
X017333Y004454D02*
X017333Y004454D01*
X017333Y004216D02*
X017333Y004216D01*
X017333Y003977D02*
X017333Y003977D01*
X017060Y003977D02*
X016745Y003977D01*
X016333Y003810D02*
X016333Y004400D01*
X016333Y004990D01*
X016591Y004931D02*
X016930Y004931D01*
X016333Y004693D02*
X016333Y004693D01*
X016333Y004454D02*
X016333Y004454D01*
X016333Y004216D02*
X016333Y004216D01*
X017606Y003977D02*
X017894Y003977D01*
X012223Y006362D02*
X012223Y006362D01*
X012223Y006601D02*
X012223Y006601D01*
X012223Y006680D02*
X012223Y006680D01*
X012223Y006839D02*
X012223Y006839D01*
X012223Y007078D02*
X012223Y007078D01*
X011857Y007078D02*
X010838Y007078D01*
X010984Y006839D02*
X011707Y006839D01*
X011689Y006601D02*
X011003Y006601D01*
X010917Y006362D02*
X011787Y006362D01*
X009903Y006839D02*
X009874Y006839D01*
X009804Y005170D02*
X011083Y005170D01*
X010844Y004931D02*
X010042Y004931D01*
X010281Y004693D02*
X010606Y004693D01*
X019728Y008032D02*
X019939Y008032D01*
X020728Y008032D02*
X020939Y008032D01*
X021728Y008032D02*
X021939Y008032D01*
X022728Y008032D02*
X022939Y008032D01*
X023728Y008032D02*
X023939Y008032D01*
X024728Y008032D02*
X024939Y008032D01*
X025728Y008032D02*
X025939Y008032D01*
X026728Y008032D02*
X026939Y008032D01*
X027728Y008032D02*
X027939Y008032D01*
X028728Y008032D02*
X028939Y008032D01*
X029728Y008032D02*
X029939Y008032D01*
X030728Y008032D02*
X030939Y008032D01*
X031728Y008032D02*
X031939Y008032D01*
X032728Y008032D02*
X032939Y008032D01*
X033728Y008032D02*
X033939Y008032D01*
X036688Y006362D02*
X036717Y006274D01*
X036759Y006191D01*
X036813Y006116D01*
X002965Y013994D02*
X002702Y013994D01*
D17*
X018383Y007000D02*
X018383Y004450D01*
X018333Y004400D01*
M02*
