G75*
%MOIN*%
%OFA0B0*%
%FSLAX24Y24*%
%IPPOS*%
%LPD*%
%AMOC8*
5,1,8,0,0,1.08239X$1,22.5*
%
%ADD10C,0.0110*%
%ADD11R,0.0740X0.0740*%
%ADD12C,0.0740*%
%ADD13C,0.0640*%
%ADD14C,0.0100*%
%ADD15C,0.0080*%
%ADD16C,0.0320*%
%ADD17C,0.0500*%
D10*
X000988Y012055D02*
X001087Y012055D01*
X001480Y012449D01*
X001579Y012449D01*
X001579Y012055D01*
X000988Y012700D02*
X001579Y013093D01*
X001480Y013344D02*
X001382Y013344D01*
X001284Y013443D01*
X001284Y013639D01*
X001185Y013738D01*
X001087Y013738D01*
X000988Y013639D01*
X000988Y013443D01*
X001087Y013344D01*
X001185Y013344D01*
X001284Y013443D01*
X001284Y013639D02*
X001382Y013738D01*
X001480Y013738D01*
X001579Y013639D01*
X001579Y013443D01*
X001480Y013344D01*
X000988Y013989D02*
X001579Y014382D01*
X001480Y014633D02*
X001087Y014633D01*
X001480Y015027D01*
X001087Y015027D01*
X000988Y014928D01*
X000988Y014732D01*
X001087Y014633D01*
X001480Y014633D02*
X001579Y014732D01*
X001579Y014928D01*
X001480Y015027D01*
X001480Y015278D02*
X001382Y015278D01*
X001284Y015376D01*
X001284Y015671D01*
X001480Y015671D02*
X001087Y015671D01*
X000988Y015573D01*
X000988Y015376D01*
X001087Y015278D01*
X001480Y015278D02*
X001579Y015376D01*
X001579Y015573D01*
X001480Y015671D01*
D11*
X016833Y023450D03*
X025333Y023450D03*
X027333Y023550D03*
X018383Y007000D03*
X020333Y004550D03*
X029333Y004550D03*
D12*
X030333Y004450D03*
X031333Y004550D03*
X032333Y004450D03*
X033333Y004550D03*
X034333Y004450D03*
X035333Y004550D03*
X036333Y004450D03*
X037263Y006500D03*
X038403Y006500D03*
X038283Y007500D03*
X037283Y007500D03*
X037383Y008500D03*
X038383Y008500D03*
X038283Y009500D03*
X037283Y009500D03*
X037383Y010500D03*
X038383Y010500D03*
X038283Y011500D03*
X037283Y011500D03*
X037383Y012500D03*
X038383Y012500D03*
X038283Y013500D03*
X037283Y013500D03*
X037383Y014500D03*
X038383Y014500D03*
X038283Y015500D03*
X037283Y015500D03*
X037383Y016500D03*
X038383Y016500D03*
X038283Y017500D03*
X037283Y017500D03*
X037383Y018500D03*
X038383Y018500D03*
X038283Y019500D03*
X037283Y019500D03*
X037383Y020500D03*
X038383Y020500D03*
X038283Y021500D03*
X037283Y021500D03*
X037383Y022500D03*
X038383Y022500D03*
X038403Y023500D03*
X037263Y023500D03*
X034333Y023450D03*
X033333Y023550D03*
X032333Y023450D03*
X031333Y023550D03*
X030333Y023450D03*
X029333Y023550D03*
X028333Y023450D03*
X024333Y023550D03*
X023333Y023450D03*
X022333Y023550D03*
X021333Y023450D03*
X020333Y023550D03*
X019333Y023450D03*
X018333Y023550D03*
X015833Y023550D03*
X014833Y023450D03*
X013833Y023550D03*
X012833Y023450D03*
X011833Y023550D03*
X010833Y023450D03*
X009833Y023550D03*
X008333Y023500D03*
X008333Y022500D03*
X007333Y022500D03*
X007333Y021500D03*
X008333Y021500D03*
X008333Y020500D03*
X007333Y020500D03*
X006333Y020500D03*
X005333Y020500D03*
X004333Y020500D03*
X003333Y020500D03*
X002333Y020500D03*
X001333Y020500D03*
X001333Y019500D03*
X002333Y019500D03*
X003333Y019500D03*
X004333Y019500D03*
X005333Y019500D03*
X006333Y019500D03*
X007333Y019500D03*
X008333Y019500D03*
X009333Y019500D03*
X010333Y019500D03*
X011333Y019500D03*
X012333Y019500D03*
X013333Y019500D03*
X014333Y019500D03*
X015333Y019500D03*
X016333Y019500D03*
X017333Y019500D03*
X018333Y019500D03*
X019333Y019500D03*
X020333Y019500D03*
X021333Y019500D03*
X022333Y019500D03*
X023333Y019500D03*
X023333Y018500D03*
X024333Y018500D03*
X025333Y018500D03*
X026333Y018500D03*
X027333Y018500D03*
X028333Y018500D03*
X029333Y018500D03*
X030333Y018500D03*
X030333Y017500D03*
X029333Y017500D03*
X028333Y017500D03*
X027333Y017500D03*
X026333Y017500D03*
X025333Y017500D03*
X024333Y017500D03*
X023333Y017500D03*
X022333Y017500D03*
X021333Y017500D03*
X020333Y017500D03*
X019333Y017500D03*
X018333Y017500D03*
X017333Y017500D03*
X016333Y017500D03*
X015333Y017500D03*
X014333Y017500D03*
X013333Y017500D03*
X012333Y017500D03*
X011333Y017500D03*
X010333Y017500D03*
X009333Y017500D03*
X008333Y017500D03*
X007333Y017500D03*
X006333Y017500D03*
X005333Y017500D03*
X004333Y017500D03*
X003333Y017500D03*
X002333Y017500D03*
X002333Y016500D03*
X003333Y016500D03*
X004333Y016500D03*
X005333Y016500D03*
X006333Y016500D03*
X007333Y016500D03*
X008333Y016500D03*
X009333Y016500D03*
X010333Y016500D03*
X011333Y016500D03*
X012333Y016500D03*
X013333Y016500D03*
X014333Y016500D03*
X015333Y016500D03*
X016333Y016500D03*
X017333Y016500D03*
X018333Y016500D03*
X019333Y016500D03*
X020333Y016500D03*
X021333Y016500D03*
X022333Y016500D03*
X023333Y016500D03*
X024333Y016500D03*
X025333Y016500D03*
X026333Y016500D03*
X027333Y016500D03*
X028333Y016500D03*
X029333Y016500D03*
X030333Y016500D03*
X031333Y016500D03*
X032333Y016500D03*
X033333Y016500D03*
X034333Y016500D03*
X034333Y015500D03*
X033333Y015500D03*
X032333Y015500D03*
X031333Y015500D03*
X030333Y015500D03*
X029333Y015500D03*
X028333Y015500D03*
X027333Y015500D03*
X026333Y015500D03*
X025333Y015500D03*
X024333Y015500D03*
X023333Y015500D03*
X022333Y015500D03*
X021333Y015500D03*
X020333Y015500D03*
X019333Y015500D03*
X018333Y015500D03*
X017333Y015500D03*
X016333Y015500D03*
X015333Y015500D03*
X014333Y015500D03*
X013333Y015500D03*
X012333Y015500D03*
X011333Y015500D03*
X010333Y015500D03*
X009333Y015500D03*
X008333Y015500D03*
X007333Y015500D03*
X006333Y015500D03*
X005333Y015500D03*
X004333Y015500D03*
X003333Y015500D03*
X002333Y015500D03*
X003333Y014500D03*
X004333Y014500D03*
X005333Y014500D03*
X006333Y014500D03*
X007333Y014500D03*
X008333Y014500D03*
X009333Y014500D03*
X010333Y014500D03*
X011333Y014500D03*
X012333Y014500D03*
X013333Y014500D03*
X014333Y014500D03*
X015333Y014500D03*
X016333Y014500D03*
X017333Y014500D03*
X018333Y014500D03*
X019333Y014500D03*
X020333Y014500D03*
X021333Y014500D03*
X022333Y014500D03*
X023333Y014500D03*
X024333Y014500D03*
X025333Y014500D03*
X026333Y014500D03*
X027333Y014500D03*
X028333Y014500D03*
X029333Y014500D03*
X030333Y014500D03*
X031333Y014500D03*
X032333Y014500D03*
X033333Y014500D03*
X034333Y014500D03*
X034333Y013500D03*
X033333Y013500D03*
X032333Y013500D03*
X031333Y013500D03*
X030333Y013500D03*
X029333Y013500D03*
X028333Y013500D03*
X027333Y013500D03*
X026333Y013500D03*
X025333Y013500D03*
X024333Y013500D03*
X023333Y013500D03*
X022333Y013500D03*
X021333Y013500D03*
X020333Y013500D03*
X019333Y013500D03*
X018333Y013500D03*
X017333Y013500D03*
X016333Y013500D03*
X015333Y013500D03*
X014333Y013500D03*
X013333Y013500D03*
X012333Y013500D03*
X011333Y013500D03*
X010333Y013500D03*
X009333Y013500D03*
X008333Y013500D03*
X007333Y013500D03*
X006333Y013500D03*
X005333Y013500D03*
X004333Y013500D03*
X003333Y013500D03*
X002333Y013500D03*
X002333Y012500D03*
X003333Y012500D03*
X004333Y012500D03*
X005333Y012500D03*
X006333Y012500D03*
X007333Y012500D03*
X008333Y012500D03*
X009333Y012500D03*
X010333Y012500D03*
X011333Y012500D03*
X012333Y012500D03*
X013333Y012500D03*
X014333Y012500D03*
X015333Y012500D03*
X016333Y012500D03*
X017333Y012500D03*
X018333Y012500D03*
X019333Y012500D03*
X020333Y012500D03*
X021333Y012500D03*
X022333Y012500D03*
X023333Y012500D03*
X024333Y012500D03*
X025333Y012500D03*
X026333Y012500D03*
X027333Y012500D03*
X028333Y012500D03*
X029333Y012500D03*
X030333Y012500D03*
X031333Y012500D03*
X032333Y012500D03*
X033333Y012500D03*
X034333Y012500D03*
X034333Y011500D03*
X033333Y011500D03*
X032333Y011500D03*
X031333Y011500D03*
X030333Y011500D03*
X029333Y011500D03*
X028333Y011500D03*
X027333Y011500D03*
X026333Y011500D03*
X025333Y011500D03*
X024333Y011500D03*
X023333Y011500D03*
X022333Y011500D03*
X021333Y011500D03*
X020333Y011500D03*
X019333Y011500D03*
X018333Y011500D03*
X017333Y011500D03*
X016333Y011500D03*
X015333Y011500D03*
X014333Y011500D03*
X013333Y011500D03*
X012333Y011500D03*
X011333Y011500D03*
X010333Y011500D03*
X009333Y011500D03*
X008333Y011500D03*
X007333Y011500D03*
X006333Y011500D03*
X005333Y011500D03*
X004333Y011500D03*
X003333Y011500D03*
X002333Y011500D03*
X002333Y010500D03*
X003333Y010500D03*
X004333Y010500D03*
X005333Y010500D03*
X006333Y010500D03*
X007333Y010500D03*
X008333Y010500D03*
X009333Y010500D03*
X010333Y010500D03*
X011333Y010500D03*
X012333Y010500D03*
X013333Y010500D03*
X014333Y010500D03*
X015333Y010500D03*
X016333Y010500D03*
X017333Y010500D03*
X018333Y010500D03*
X019333Y010500D03*
X020333Y010500D03*
X021333Y010500D03*
X022333Y010500D03*
X023333Y010500D03*
X024333Y010500D03*
X025333Y010500D03*
X026333Y010500D03*
X027333Y010500D03*
X028333Y010500D03*
X029333Y010500D03*
X030333Y010500D03*
X031333Y010500D03*
X032333Y010500D03*
X033333Y010500D03*
X034333Y010500D03*
X034333Y009500D03*
X033333Y009500D03*
X032333Y009500D03*
X031333Y009500D03*
X030333Y009500D03*
X029333Y009500D03*
X028333Y009500D03*
X027333Y009500D03*
X026333Y009500D03*
X025333Y009500D03*
X024333Y009500D03*
X023333Y009500D03*
X022333Y009500D03*
X021333Y009500D03*
X020333Y009500D03*
X019333Y009500D03*
X018333Y009500D03*
X017333Y009500D03*
X016333Y009500D03*
X015333Y009500D03*
X014333Y009500D03*
X013333Y009500D03*
X012333Y009500D03*
X011333Y009500D03*
X010333Y009500D03*
X009333Y009500D03*
X008333Y009500D03*
X007333Y009500D03*
X006333Y009500D03*
X005333Y009500D03*
X004333Y009500D03*
X003333Y009500D03*
X002333Y009500D03*
X001333Y009500D03*
X001333Y008500D03*
X002333Y008500D03*
X003333Y008500D03*
X004333Y008500D03*
X005333Y008500D03*
X006333Y008500D03*
X007333Y008500D03*
X008333Y008500D03*
X009333Y008500D03*
X010333Y008500D03*
X011333Y008500D03*
X012333Y008500D03*
X013333Y008500D03*
X014333Y008500D03*
X015333Y008500D03*
X016333Y008500D03*
X017333Y008500D03*
X018333Y008500D03*
X019333Y008500D03*
X020333Y008500D03*
X021333Y008500D03*
X022333Y008500D03*
X023333Y008500D03*
X024333Y008500D03*
X025333Y008500D03*
X026333Y008500D03*
X027333Y008500D03*
X028333Y008500D03*
X029333Y008500D03*
X030333Y008500D03*
X031333Y008500D03*
X032333Y008500D03*
X033333Y008500D03*
X034333Y008500D03*
X030333Y007500D03*
X029333Y007500D03*
X028333Y007500D03*
X027333Y007500D03*
X026333Y007500D03*
X025333Y007500D03*
X024333Y007500D03*
X023333Y007500D03*
X022333Y007500D03*
X021333Y007500D03*
X020333Y007500D03*
X017283Y007000D03*
X015333Y007500D03*
X014333Y007500D03*
X013333Y007500D03*
X012333Y007500D03*
X011333Y007500D03*
X010333Y007500D03*
X009333Y007500D03*
X009333Y006550D03*
X009333Y005650D03*
X006333Y005650D03*
X004833Y005500D03*
X003833Y005500D03*
X002333Y005500D03*
X001333Y005500D03*
X001333Y007500D03*
X002333Y007500D03*
X003333Y007500D03*
X004333Y007500D03*
X005333Y007500D03*
X006333Y007500D03*
X006333Y006550D03*
X013333Y004500D03*
X014333Y004400D03*
X015333Y004500D03*
X016333Y004400D03*
X017333Y004500D03*
X018333Y004400D03*
X021333Y004450D03*
X022333Y004550D03*
X023333Y004450D03*
X024333Y004550D03*
X025333Y004450D03*
X026333Y004550D03*
X027333Y004450D03*
X031333Y017500D03*
X032333Y017500D03*
X033333Y017500D03*
X034333Y017500D03*
X023333Y020500D03*
X022333Y020500D03*
X021333Y020500D03*
X020333Y020500D03*
X019333Y020500D03*
X018333Y020500D03*
X017333Y020500D03*
X016333Y020500D03*
X015333Y020500D03*
X014333Y020500D03*
X013333Y020500D03*
X012333Y020500D03*
X011333Y020500D03*
X010333Y020500D03*
X009333Y020500D03*
X006333Y021500D03*
X005333Y021500D03*
X004333Y021500D03*
X003333Y021500D03*
X002333Y021500D03*
X001333Y021500D03*
X001333Y022500D03*
X002333Y022500D03*
X003333Y022500D03*
X004333Y022500D03*
X005333Y022500D03*
X004333Y023500D03*
X003333Y023500D03*
X002333Y023500D03*
X001333Y023500D03*
X001333Y018500D03*
X002333Y018500D03*
X003333Y018500D03*
X004333Y018500D03*
X005333Y018500D03*
X006333Y018500D03*
X007333Y018500D03*
X008333Y018500D03*
X009333Y018500D03*
X010333Y018500D03*
X011333Y018500D03*
X012333Y018500D03*
X013333Y018500D03*
X014333Y018500D03*
X015333Y018500D03*
X016333Y018500D03*
X017333Y018500D03*
X018333Y018500D03*
X019333Y018500D03*
X020333Y018500D03*
X021333Y018500D03*
X022333Y018500D03*
D13*
X012223Y006680D03*
X010443Y006680D03*
X010443Y004120D03*
X012223Y004120D03*
D14*
X010333Y005500D02*
X014333Y005500D01*
X015333Y004500D01*
X010333Y005500D02*
X009333Y006550D01*
D15*
X000533Y003700D02*
X000533Y024300D01*
X038250Y024300D01*
X038529Y024022D01*
X038509Y024030D01*
X038298Y024030D01*
X038103Y023949D01*
X038064Y023910D01*
X037603Y023910D01*
X037564Y023949D01*
X037369Y024030D01*
X037158Y024030D01*
X036963Y023949D01*
X036814Y023800D01*
X036733Y023605D01*
X036733Y023480D01*
X036623Y023370D01*
X036623Y023657D01*
X036503Y023947D01*
X036281Y024170D01*
X035990Y024290D01*
X035676Y024290D01*
X035386Y024170D01*
X035164Y023947D01*
X035043Y023657D01*
X035043Y023343D01*
X035164Y023053D01*
X035386Y022830D01*
X035676Y022710D01*
X035964Y022710D01*
X032164Y018910D01*
X030673Y018910D01*
X030634Y018949D01*
X030439Y019030D01*
X030228Y019030D01*
X030033Y018949D01*
X029994Y018910D01*
X029673Y018910D01*
X029634Y018949D01*
X029439Y019030D01*
X029228Y019030D01*
X029033Y018949D01*
X028994Y018910D01*
X028673Y018910D01*
X028634Y018949D01*
X028439Y019030D01*
X028228Y019030D01*
X028033Y018949D01*
X027994Y018910D01*
X027673Y018910D01*
X027634Y018949D01*
X027439Y019030D01*
X027228Y019030D01*
X027033Y018949D01*
X026994Y018910D01*
X026673Y018910D01*
X026634Y018949D01*
X026439Y019030D01*
X026228Y019030D01*
X026033Y018949D01*
X025994Y018910D01*
X025673Y018910D01*
X025634Y018949D01*
X025439Y019030D01*
X025228Y019030D01*
X025033Y018949D01*
X024994Y018910D01*
X024673Y018910D01*
X024634Y018949D01*
X024439Y019030D01*
X024228Y019030D01*
X024033Y018949D01*
X023994Y018910D01*
X023673Y018910D01*
X023634Y018949D01*
X023511Y019000D01*
X023634Y019051D01*
X023783Y019200D01*
X032454Y019200D01*
X032532Y019279D02*
X023815Y019279D01*
X023848Y019357D02*
X032611Y019357D01*
X032689Y019436D02*
X023863Y019436D01*
X023863Y019395D02*
X023863Y019605D01*
X023783Y019800D01*
X023634Y019949D01*
X023511Y020000D01*
X023634Y020051D01*
X023783Y020200D01*
X023863Y020395D01*
X023863Y020605D01*
X023783Y020800D01*
X023634Y020949D01*
X023439Y021030D01*
X023228Y021030D01*
X023033Y020949D01*
X022884Y020800D01*
X022833Y020678D01*
X022783Y020800D01*
X022634Y020949D01*
X022439Y021030D01*
X022228Y021030D01*
X022033Y020949D01*
X021884Y020800D01*
X021833Y020678D01*
X021783Y020800D01*
X021634Y020949D01*
X021439Y021030D01*
X021228Y021030D01*
X021033Y020949D01*
X020884Y020800D01*
X020833Y020678D01*
X020783Y020800D01*
X020634Y020949D01*
X020439Y021030D01*
X020228Y021030D01*
X020033Y020949D01*
X019884Y020800D01*
X019833Y020678D01*
X019783Y020800D01*
X019634Y020949D01*
X019439Y021030D01*
X019228Y021030D01*
X019033Y020949D01*
X018884Y020800D01*
X018833Y020678D01*
X018783Y020800D01*
X018634Y020949D01*
X018439Y021030D01*
X018228Y021030D01*
X018033Y020949D01*
X017884Y020800D01*
X017833Y020678D01*
X017783Y020800D01*
X017634Y020949D01*
X017439Y021030D01*
X017228Y021030D01*
X017033Y020949D01*
X016884Y020800D01*
X016833Y020678D01*
X016783Y020800D01*
X016634Y020949D01*
X016439Y021030D01*
X016228Y021030D01*
X016033Y020949D01*
X015884Y020800D01*
X015833Y020678D01*
X015783Y020800D01*
X015634Y020949D01*
X015439Y021030D01*
X015228Y021030D01*
X015033Y020949D01*
X014884Y020800D01*
X014833Y020678D01*
X014783Y020800D01*
X014634Y020949D01*
X014439Y021030D01*
X014228Y021030D01*
X014033Y020949D01*
X013884Y020800D01*
X013833Y020678D01*
X013783Y020800D01*
X013634Y020949D01*
X013439Y021030D01*
X013228Y021030D01*
X013033Y020949D01*
X012884Y020800D01*
X012833Y020678D01*
X012783Y020800D01*
X012634Y020949D01*
X012439Y021030D01*
X012228Y021030D01*
X012033Y020949D01*
X011884Y020800D01*
X011833Y020678D01*
X011783Y020800D01*
X011634Y020949D01*
X011439Y021030D01*
X011228Y021030D01*
X011033Y020949D01*
X010884Y020800D01*
X010833Y020678D01*
X010783Y020800D01*
X010634Y020949D01*
X010439Y021030D01*
X010228Y021030D01*
X010033Y020949D01*
X009884Y020800D01*
X009833Y020678D01*
X009783Y020800D01*
X009634Y020949D01*
X009439Y021030D01*
X009228Y021030D01*
X009033Y020949D01*
X008884Y020800D01*
X008833Y020678D01*
X008783Y020800D01*
X008634Y020949D01*
X008511Y021000D01*
X008634Y021051D01*
X008783Y021200D01*
X008863Y021395D01*
X008863Y021605D01*
X008783Y021800D01*
X008634Y021949D01*
X008511Y022000D01*
X008634Y022051D01*
X008783Y022200D01*
X008863Y022395D01*
X008863Y022605D01*
X008783Y022800D01*
X008634Y022949D01*
X008511Y023000D01*
X008634Y023051D01*
X008783Y023200D01*
X008863Y023395D01*
X008863Y023605D01*
X008783Y023800D01*
X008634Y023949D01*
X008439Y024030D01*
X008228Y024030D01*
X008033Y023949D01*
X007884Y023800D01*
X007803Y023605D01*
X007803Y023395D01*
X007884Y023200D01*
X008033Y023051D01*
X008155Y023000D01*
X008033Y022949D01*
X007884Y022800D01*
X007833Y022678D01*
X007783Y022800D01*
X007634Y022949D01*
X007439Y023030D01*
X007228Y023030D01*
X007033Y022949D01*
X006884Y022800D01*
X006803Y022605D01*
X006803Y022395D01*
X006884Y022200D01*
X007033Y022051D01*
X007155Y022000D01*
X007033Y021949D01*
X006884Y021800D01*
X006833Y021678D01*
X006783Y021800D01*
X006634Y021949D01*
X006439Y022030D01*
X006228Y022030D01*
X006033Y021949D01*
X005884Y021800D01*
X005833Y021678D01*
X005783Y021800D01*
X005634Y021949D01*
X005511Y022000D01*
X005634Y022051D01*
X005783Y022200D01*
X005863Y022395D01*
X005863Y022605D01*
X005783Y022800D01*
X005634Y022949D01*
X005439Y023030D01*
X005228Y023030D01*
X005033Y022949D01*
X004884Y022800D01*
X004833Y022678D01*
X004783Y022800D01*
X004634Y022949D01*
X004511Y023000D01*
X004634Y023051D01*
X004783Y023200D01*
X004863Y023395D01*
X004863Y023605D01*
X004783Y023800D01*
X004634Y023949D01*
X004439Y024030D01*
X004228Y024030D01*
X004033Y023949D01*
X003884Y023800D01*
X003833Y023678D01*
X003783Y023800D01*
X003634Y023949D01*
X003439Y024030D01*
X003228Y024030D01*
X003033Y023949D01*
X002884Y023800D01*
X002833Y023678D01*
X002783Y023800D01*
X002634Y023949D01*
X002439Y024030D01*
X002228Y024030D01*
X002033Y023949D01*
X001884Y023800D01*
X001833Y023678D01*
X001783Y023800D01*
X001634Y023949D01*
X001439Y024030D01*
X001228Y024030D01*
X001033Y023949D01*
X000884Y023800D01*
X000803Y023605D01*
X000803Y023395D01*
X000884Y023200D01*
X001033Y023051D01*
X001155Y023000D01*
X001033Y022949D01*
X000884Y022800D01*
X000803Y022605D01*
X000803Y022395D01*
X000884Y022200D01*
X001033Y022051D01*
X001155Y022000D01*
X001033Y021949D01*
X000884Y021800D01*
X000803Y021605D01*
X000803Y021395D01*
X000884Y021200D01*
X001033Y021051D01*
X001155Y021000D01*
X001033Y020949D01*
X000884Y020800D01*
X000803Y020605D01*
X000803Y020395D01*
X000884Y020200D01*
X001033Y020051D01*
X001155Y020000D01*
X001033Y019949D01*
X000884Y019800D01*
X000803Y019605D01*
X000803Y019395D01*
X000884Y019200D01*
X000533Y019200D01*
X000533Y019122D02*
X000962Y019122D01*
X001033Y019051D02*
X001155Y019000D01*
X001033Y018949D01*
X000884Y018800D01*
X000803Y018605D01*
X000803Y018395D01*
X000884Y018200D01*
X001033Y018051D01*
X001228Y017970D01*
X001439Y017970D01*
X001634Y018051D01*
X001673Y018090D01*
X001994Y018090D01*
X002033Y018051D01*
X002155Y018000D01*
X002033Y017949D01*
X001884Y017800D01*
X001803Y017605D01*
X001803Y017395D01*
X001884Y017200D01*
X002033Y017051D01*
X002155Y017000D01*
X002033Y016949D01*
X001884Y016800D01*
X001803Y016605D01*
X001803Y016395D01*
X001884Y016200D01*
X002033Y016051D01*
X002155Y016000D01*
X002033Y015949D01*
X001884Y015800D01*
X001803Y015605D01*
X001803Y015395D01*
X001884Y015200D01*
X002033Y015051D01*
X002228Y014970D01*
X002439Y014970D01*
X002634Y015051D01*
X002783Y015200D01*
X002833Y015322D01*
X002884Y015200D01*
X003033Y015051D01*
X003155Y015000D01*
X003033Y014949D01*
X002884Y014800D01*
X002803Y014605D01*
X002803Y014395D01*
X002884Y014200D01*
X003033Y014051D01*
X003155Y014000D01*
X003033Y013949D01*
X002884Y013800D01*
X002833Y013678D01*
X002783Y013800D01*
X002634Y013949D01*
X002439Y014030D01*
X002228Y014030D01*
X002033Y013949D01*
X001884Y013800D01*
X001803Y013605D01*
X001803Y013395D01*
X001884Y013200D01*
X002033Y013051D01*
X002155Y013000D01*
X002033Y012949D01*
X001884Y012800D01*
X001803Y012605D01*
X001803Y012395D01*
X001884Y012200D01*
X002033Y012051D01*
X002155Y012000D01*
X002033Y011949D01*
X001884Y011800D01*
X001803Y011605D01*
X001803Y011395D01*
X001884Y011200D01*
X002033Y011051D01*
X002155Y011000D01*
X002033Y010949D01*
X001884Y010800D01*
X001803Y010605D01*
X001803Y010395D01*
X001884Y010200D01*
X002033Y010051D01*
X002155Y010000D01*
X002033Y009949D01*
X001884Y009800D01*
X001833Y009678D01*
X001783Y009800D01*
X001634Y009949D01*
X001439Y010030D01*
X001228Y010030D01*
X001033Y009949D01*
X000884Y009800D01*
X000803Y009605D01*
X000803Y009395D01*
X000884Y009200D01*
X001033Y009051D01*
X001155Y009000D01*
X001033Y008949D01*
X000884Y008800D01*
X000803Y008605D01*
X000803Y008395D01*
X000884Y008200D01*
X001033Y008051D01*
X001155Y008000D01*
X001033Y007949D01*
X000884Y007800D01*
X000803Y007605D01*
X000803Y007395D01*
X000884Y007200D01*
X001033Y007051D01*
X001228Y006970D01*
X001439Y006970D01*
X001634Y007051D01*
X001783Y007200D01*
X001833Y007322D01*
X001884Y007200D01*
X002033Y007051D01*
X002228Y006970D01*
X002439Y006970D01*
X002634Y007051D01*
X002783Y007200D01*
X002833Y007322D01*
X002884Y007200D01*
X003033Y007051D01*
X003228Y006970D01*
X003439Y006970D01*
X003634Y007051D01*
X003783Y007200D01*
X003833Y007322D01*
X003884Y007200D01*
X004033Y007051D01*
X004228Y006970D01*
X004439Y006970D01*
X004634Y007051D01*
X004783Y007200D01*
X004833Y007322D01*
X004884Y007200D01*
X005033Y007051D01*
X005228Y006970D01*
X005439Y006970D01*
X005634Y007051D01*
X005783Y007200D01*
X005833Y007322D01*
X005884Y007200D01*
X006033Y007051D01*
X006095Y007025D01*
X006033Y006999D01*
X005884Y006850D01*
X005803Y006655D01*
X005803Y006445D01*
X005884Y006250D01*
X006033Y006101D01*
X006035Y006100D01*
X006033Y006099D01*
X005884Y005950D01*
X005803Y005755D01*
X005803Y005545D01*
X005884Y005350D01*
X006012Y005222D01*
X005886Y005170D01*
X005664Y004947D01*
X005543Y004657D01*
X005543Y004343D01*
X005664Y004053D01*
X005886Y003830D01*
X006176Y003710D01*
X006490Y003710D01*
X006781Y003830D01*
X007003Y004053D01*
X007123Y004343D01*
X007123Y004657D01*
X007003Y004947D01*
X006781Y005170D01*
X006655Y005222D01*
X006783Y005350D01*
X006863Y005545D01*
X006863Y005755D01*
X006783Y005950D01*
X006634Y006099D01*
X006632Y006100D01*
X006634Y006101D01*
X006783Y006250D01*
X006863Y006445D01*
X006863Y006655D01*
X006783Y006850D01*
X006634Y006999D01*
X006572Y007025D01*
X006634Y007051D01*
X006783Y007200D01*
X006863Y007395D01*
X006863Y007605D01*
X006783Y007800D01*
X006634Y007949D01*
X006511Y008000D01*
X006634Y008051D01*
X006783Y008200D01*
X006833Y008322D01*
X006884Y008200D01*
X007033Y008051D01*
X007228Y007970D01*
X007439Y007970D01*
X007634Y008051D01*
X007783Y008200D01*
X007833Y008322D01*
X007884Y008200D01*
X008033Y008051D01*
X008228Y007970D01*
X008439Y007970D01*
X008634Y008051D01*
X008783Y008200D01*
X008833Y008322D01*
X008884Y008200D01*
X009033Y008051D01*
X009155Y008000D01*
X009033Y007949D01*
X008884Y007800D01*
X008803Y007605D01*
X008803Y007395D01*
X008884Y007200D01*
X009033Y007051D01*
X009095Y007025D01*
X009033Y006999D01*
X008884Y006850D01*
X008803Y006655D01*
X008803Y006445D01*
X008884Y006250D01*
X009033Y006101D01*
X009035Y006100D01*
X009033Y006099D01*
X008884Y005950D01*
X008803Y005755D01*
X008803Y005545D01*
X008884Y005350D01*
X009033Y005201D01*
X009228Y005120D01*
X009439Y005120D01*
X009634Y005201D01*
X009783Y005350D01*
X009863Y005545D01*
X009863Y005689D01*
X010123Y005416D01*
X010123Y005413D01*
X010183Y005353D01*
X010241Y005292D01*
X010244Y005292D01*
X010246Y005290D01*
X010331Y005290D01*
X010415Y005288D01*
X010417Y005290D01*
X014246Y005290D01*
X014841Y004696D01*
X014813Y004628D01*
X014783Y004700D01*
X014634Y004849D01*
X014439Y004930D01*
X014228Y004930D01*
X014033Y004849D01*
X013884Y004700D01*
X013854Y004628D01*
X013783Y004800D01*
X013634Y004949D01*
X013439Y005030D01*
X013228Y005030D01*
X013033Y004949D01*
X012884Y004800D01*
X012803Y004605D01*
X012803Y004395D01*
X012884Y004200D01*
X013033Y004051D01*
X013228Y003970D01*
X013439Y003970D01*
X013634Y004051D01*
X013783Y004200D01*
X013813Y004272D01*
X013884Y004100D01*
X014033Y003951D01*
X014228Y003870D01*
X014439Y003870D01*
X014634Y003951D01*
X014783Y004100D01*
X014854Y004272D01*
X014884Y004200D01*
X015033Y004051D01*
X015228Y003970D01*
X015439Y003970D01*
X015634Y004051D01*
X015783Y004200D01*
X015830Y004315D01*
X015836Y004281D01*
X015861Y004204D01*
X015897Y004133D01*
X015944Y004068D01*
X016001Y004011D01*
X016066Y003964D01*
X016138Y003927D01*
X016214Y003903D01*
X016293Y003890D01*
X016293Y003890D01*
X016293Y004360D01*
X016373Y004360D01*
X016373Y003890D01*
X016373Y003890D01*
X016453Y003903D01*
X016529Y003927D01*
X016601Y003964D01*
X016666Y004011D01*
X016722Y004068D01*
X016770Y004133D01*
X016806Y004204D01*
X016831Y004281D01*
X016843Y004358D01*
X016861Y004304D01*
X016897Y004233D01*
X016944Y004168D01*
X017001Y004111D01*
X017066Y004064D01*
X017138Y004027D01*
X017214Y004003D01*
X017293Y003990D01*
X017293Y003990D01*
X017293Y004460D01*
X017373Y004460D01*
X017373Y003990D01*
X017373Y003990D01*
X017453Y004003D01*
X017529Y004027D01*
X017601Y004064D01*
X017666Y004111D01*
X017722Y004168D01*
X017770Y004233D01*
X017803Y004299D01*
X017803Y004295D01*
X017884Y004100D01*
X018033Y003951D01*
X018228Y003870D01*
X018439Y003870D01*
X018634Y003951D01*
X018783Y004100D01*
X018863Y004295D01*
X018863Y004505D01*
X018783Y004700D01*
X018634Y004849D01*
X018439Y004930D01*
X018228Y004930D01*
X018033Y004849D01*
X017884Y004700D01*
X017836Y004585D01*
X017831Y004619D01*
X017806Y004696D01*
X017770Y004767D01*
X017722Y004832D01*
X017666Y004889D01*
X017601Y004936D01*
X017529Y004973D01*
X017453Y004997D01*
X017373Y005010D01*
X017373Y004540D01*
X017293Y004540D01*
X017293Y005010D01*
X017214Y004997D01*
X017138Y004973D01*
X017066Y004936D01*
X017001Y004889D01*
X016944Y004832D01*
X016897Y004767D01*
X016861Y004696D01*
X016836Y004619D01*
X016824Y004542D01*
X016806Y004596D01*
X016770Y004667D01*
X016722Y004732D01*
X016666Y004789D01*
X016601Y004836D01*
X016529Y004873D01*
X016453Y004897D01*
X016373Y004910D01*
X016373Y004440D01*
X016293Y004440D01*
X016293Y004910D01*
X016214Y004897D01*
X016138Y004873D01*
X016066Y004836D01*
X016001Y004789D01*
X015944Y004732D01*
X015897Y004667D01*
X015863Y004601D01*
X015863Y004605D01*
X015783Y004800D01*
X015634Y004949D01*
X015439Y005030D01*
X015228Y005030D01*
X015138Y004993D01*
X014420Y005710D01*
X010423Y005710D01*
X009821Y006342D01*
X009863Y006445D01*
X009863Y006655D01*
X009783Y006850D01*
X009634Y006999D01*
X009572Y007025D01*
X009634Y007051D01*
X009783Y007200D01*
X009863Y007395D01*
X009863Y007605D01*
X009783Y007800D01*
X009634Y007949D01*
X009511Y008000D01*
X009634Y008051D01*
X009783Y008200D01*
X009833Y008322D01*
X009884Y008200D01*
X010033Y008051D01*
X010228Y007970D01*
X010439Y007970D01*
X010634Y008051D01*
X010783Y008200D01*
X010833Y008322D01*
X010884Y008200D01*
X011033Y008051D01*
X011228Y007970D01*
X011439Y007970D01*
X011634Y008051D01*
X011783Y008200D01*
X011833Y008322D01*
X011884Y008200D01*
X012033Y008051D01*
X012228Y007970D01*
X012439Y007970D01*
X012634Y008051D01*
X012783Y008200D01*
X012833Y008322D01*
X012884Y008200D01*
X013033Y008051D01*
X013228Y007970D01*
X013439Y007970D01*
X013634Y008051D01*
X013783Y008200D01*
X013833Y008322D01*
X013884Y008200D01*
X014033Y008051D01*
X014228Y007970D01*
X014439Y007970D01*
X014634Y008051D01*
X014783Y008200D01*
X014833Y008322D01*
X014884Y008200D01*
X015033Y008051D01*
X015228Y007970D01*
X015439Y007970D01*
X015634Y008051D01*
X015783Y008200D01*
X015833Y008322D01*
X015884Y008200D01*
X016033Y008051D01*
X016228Y007970D01*
X016439Y007970D01*
X016634Y008051D01*
X016783Y008200D01*
X016833Y008322D01*
X016884Y008200D01*
X017033Y008051D01*
X017228Y007970D01*
X017439Y007970D01*
X017634Y008051D01*
X017783Y008200D01*
X017833Y008322D01*
X017884Y008200D01*
X018033Y008051D01*
X018228Y007970D01*
X018439Y007970D01*
X018634Y008051D01*
X018783Y008200D01*
X018833Y008322D01*
X018884Y008200D01*
X019033Y008051D01*
X019228Y007970D01*
X019439Y007970D01*
X019634Y008051D01*
X019783Y008200D01*
X019833Y008322D01*
X019884Y008200D01*
X020033Y008051D01*
X020228Y007970D01*
X020439Y007970D01*
X020634Y008051D01*
X020783Y008200D01*
X020833Y008322D01*
X020884Y008200D01*
X021033Y008051D01*
X021228Y007970D01*
X021439Y007970D01*
X021634Y008051D01*
X021783Y008200D01*
X021833Y008322D01*
X021884Y008200D01*
X022033Y008051D01*
X022228Y007970D01*
X022439Y007970D01*
X022634Y008051D01*
X022783Y008200D01*
X022833Y008322D01*
X022884Y008200D01*
X023033Y008051D01*
X023228Y007970D01*
X023439Y007970D01*
X023634Y008051D01*
X023783Y008200D01*
X023833Y008322D01*
X023884Y008200D01*
X024033Y008051D01*
X024228Y007970D01*
X024439Y007970D01*
X024634Y008051D01*
X024783Y008200D01*
X024833Y008322D01*
X024884Y008200D01*
X025033Y008051D01*
X025228Y007970D01*
X025439Y007970D01*
X025634Y008051D01*
X025783Y008200D01*
X025833Y008322D01*
X025884Y008200D01*
X026033Y008051D01*
X026228Y007970D01*
X026439Y007970D01*
X026634Y008051D01*
X026783Y008200D01*
X026833Y008322D01*
X026884Y008200D01*
X027033Y008051D01*
X027228Y007970D01*
X027439Y007970D01*
X027634Y008051D01*
X027783Y008200D01*
X027833Y008322D01*
X027884Y008200D01*
X028033Y008051D01*
X028228Y007970D01*
X028439Y007970D01*
X028634Y008051D01*
X028783Y008200D01*
X028833Y008322D01*
X028884Y008200D01*
X029033Y008051D01*
X029228Y007970D01*
X029439Y007970D01*
X029634Y008051D01*
X029783Y008200D01*
X029833Y008322D01*
X029884Y008200D01*
X030033Y008051D01*
X030228Y007970D01*
X030439Y007970D01*
X030634Y008051D01*
X030783Y008200D01*
X030833Y008322D01*
X030884Y008200D01*
X031033Y008051D01*
X031228Y007970D01*
X031439Y007970D01*
X031634Y008051D01*
X031783Y008200D01*
X031833Y008322D01*
X031884Y008200D01*
X032033Y008051D01*
X032228Y007970D01*
X032439Y007970D01*
X032634Y008051D01*
X032783Y008200D01*
X032833Y008322D01*
X032884Y008200D01*
X033033Y008051D01*
X033228Y007970D01*
X033439Y007970D01*
X033634Y008051D01*
X033783Y008200D01*
X033833Y008322D01*
X033884Y008200D01*
X034033Y008051D01*
X034228Y007970D01*
X034439Y007970D01*
X034634Y008051D01*
X034783Y008200D01*
X034863Y008395D01*
X034863Y008605D01*
X034783Y008800D01*
X034653Y008930D01*
X034653Y009070D01*
X034783Y009200D01*
X034863Y009395D01*
X034863Y009605D01*
X034783Y009800D01*
X034653Y009930D01*
X034653Y010070D01*
X034783Y010200D01*
X034863Y010395D01*
X034863Y010605D01*
X034783Y010800D01*
X034653Y010930D01*
X034653Y011070D01*
X034783Y011200D01*
X034863Y011395D01*
X034863Y011605D01*
X034783Y011800D01*
X034634Y011949D01*
X034439Y012030D01*
X034228Y012030D01*
X034033Y011949D01*
X033884Y011800D01*
X033833Y011678D01*
X033783Y011800D01*
X033634Y011949D01*
X033439Y012030D01*
X033228Y012030D01*
X033033Y011949D01*
X032884Y011800D01*
X032833Y011678D01*
X032783Y011800D01*
X032634Y011949D01*
X032439Y012030D01*
X032228Y012030D01*
X032033Y011949D01*
X031884Y011800D01*
X031833Y011678D01*
X031783Y011800D01*
X031634Y011949D01*
X031439Y012030D01*
X031228Y012030D01*
X031033Y011949D01*
X030884Y011800D01*
X030833Y011678D01*
X030783Y011800D01*
X030634Y011949D01*
X030439Y012030D01*
X030228Y012030D01*
X030033Y011949D01*
X029884Y011800D01*
X029833Y011678D01*
X029783Y011800D01*
X029634Y011949D01*
X029439Y012030D01*
X029228Y012030D01*
X029033Y011949D01*
X028884Y011800D01*
X028833Y011678D01*
X028783Y011800D01*
X028634Y011949D01*
X028439Y012030D01*
X028228Y012030D01*
X028033Y011949D01*
X027884Y011800D01*
X027833Y011678D01*
X027783Y011800D01*
X027634Y011949D01*
X027439Y012030D01*
X027228Y012030D01*
X027033Y011949D01*
X026884Y011800D01*
X026833Y011678D01*
X026783Y011800D01*
X026634Y011949D01*
X026439Y012030D01*
X026228Y012030D01*
X026033Y011949D01*
X025884Y011800D01*
X025833Y011678D01*
X025783Y011800D01*
X025634Y011949D01*
X025439Y012030D01*
X025228Y012030D01*
X025033Y011949D01*
X024884Y011800D01*
X024833Y011678D01*
X024783Y011800D01*
X024634Y011949D01*
X024439Y012030D01*
X024228Y012030D01*
X024033Y011949D01*
X023884Y011800D01*
X023833Y011678D01*
X023783Y011800D01*
X023634Y011949D01*
X023439Y012030D01*
X023228Y012030D01*
X023033Y011949D01*
X022884Y011800D01*
X022833Y011678D01*
X022783Y011800D01*
X022634Y011949D01*
X022439Y012030D01*
X022228Y012030D01*
X022033Y011949D01*
X021884Y011800D01*
X021833Y011678D01*
X021783Y011800D01*
X021634Y011949D01*
X021439Y012030D01*
X021228Y012030D01*
X021033Y011949D01*
X020884Y011800D01*
X020833Y011678D01*
X020783Y011800D01*
X020634Y011949D01*
X020439Y012030D01*
X020228Y012030D01*
X020033Y011949D01*
X019884Y011800D01*
X019833Y011678D01*
X019783Y011800D01*
X019634Y011949D01*
X019439Y012030D01*
X019228Y012030D01*
X019033Y011949D01*
X018884Y011800D01*
X018833Y011678D01*
X018783Y011800D01*
X018634Y011949D01*
X018439Y012030D01*
X018228Y012030D01*
X018033Y011949D01*
X017884Y011800D01*
X017833Y011678D01*
X017783Y011800D01*
X017634Y011949D01*
X017439Y012030D01*
X017228Y012030D01*
X017033Y011949D01*
X016884Y011800D01*
X016833Y011678D01*
X016783Y011800D01*
X016634Y011949D01*
X016439Y012030D01*
X016228Y012030D01*
X016033Y011949D01*
X015884Y011800D01*
X015833Y011678D01*
X015783Y011800D01*
X015634Y011949D01*
X015439Y012030D01*
X015228Y012030D01*
X015033Y011949D01*
X014884Y011800D01*
X014833Y011678D01*
X014783Y011800D01*
X014634Y011949D01*
X014439Y012030D01*
X014228Y012030D01*
X014033Y011949D01*
X013884Y011800D01*
X013833Y011678D01*
X013783Y011800D01*
X013634Y011949D01*
X013439Y012030D01*
X013228Y012030D01*
X013033Y011949D01*
X012884Y011800D01*
X012833Y011678D01*
X012783Y011800D01*
X012634Y011949D01*
X012439Y012030D01*
X012228Y012030D01*
X012033Y011949D01*
X011884Y011800D01*
X011833Y011678D01*
X011783Y011800D01*
X011634Y011949D01*
X011439Y012030D01*
X011228Y012030D01*
X011033Y011949D01*
X010884Y011800D01*
X010833Y011678D01*
X010783Y011800D01*
X010634Y011949D01*
X010439Y012030D01*
X010228Y012030D01*
X010033Y011949D01*
X009884Y011800D01*
X009833Y011678D01*
X009783Y011800D01*
X009634Y011949D01*
X009511Y012000D01*
X009634Y012051D01*
X009783Y012200D01*
X009863Y012395D01*
X009863Y012605D01*
X009783Y012800D01*
X009634Y012949D01*
X009511Y013000D01*
X009634Y013051D01*
X009783Y013200D01*
X009863Y013395D01*
X009863Y013605D01*
X009783Y013800D01*
X009634Y013949D01*
X009511Y014000D01*
X009634Y014051D01*
X009783Y014200D01*
X009833Y014322D01*
X009884Y014200D01*
X010033Y014051D01*
X010228Y013970D01*
X010439Y013970D01*
X010634Y014051D01*
X010783Y014200D01*
X010833Y014322D01*
X010884Y014200D01*
X011033Y014051D01*
X011228Y013970D01*
X011439Y013970D01*
X011634Y014051D01*
X011783Y014200D01*
X011833Y014322D01*
X011884Y014200D01*
X012033Y014051D01*
X012228Y013970D01*
X012439Y013970D01*
X012634Y014051D01*
X012783Y014200D01*
X012833Y014322D01*
X012884Y014200D01*
X013033Y014051D01*
X013228Y013970D01*
X013439Y013970D01*
X013634Y014051D01*
X013783Y014200D01*
X013833Y014322D01*
X013884Y014200D01*
X014033Y014051D01*
X014228Y013970D01*
X014439Y013970D01*
X014634Y014051D01*
X014783Y014200D01*
X014833Y014322D01*
X014884Y014200D01*
X015033Y014051D01*
X015228Y013970D01*
X015439Y013970D01*
X015634Y014051D01*
X015783Y014200D01*
X015833Y014322D01*
X015884Y014200D01*
X016033Y014051D01*
X016228Y013970D01*
X016439Y013970D01*
X016634Y014051D01*
X016783Y014200D01*
X016833Y014322D01*
X016884Y014200D01*
X017033Y014051D01*
X017228Y013970D01*
X017439Y013970D01*
X017634Y014051D01*
X017783Y014200D01*
X017833Y014322D01*
X017884Y014200D01*
X018033Y014051D01*
X018228Y013970D01*
X018439Y013970D01*
X018634Y014051D01*
X018783Y014200D01*
X018833Y014322D01*
X018884Y014200D01*
X019033Y014051D01*
X019228Y013970D01*
X019439Y013970D01*
X019634Y014051D01*
X019783Y014200D01*
X019833Y014322D01*
X019884Y014200D01*
X020033Y014051D01*
X020228Y013970D01*
X020439Y013970D01*
X020634Y014051D01*
X020783Y014200D01*
X020833Y014322D01*
X020884Y014200D01*
X021033Y014051D01*
X021228Y013970D01*
X021439Y013970D01*
X021634Y014051D01*
X021783Y014200D01*
X021833Y014322D01*
X021884Y014200D01*
X022033Y014051D01*
X022228Y013970D01*
X022439Y013970D01*
X022634Y014051D01*
X022783Y014200D01*
X022833Y014322D01*
X022884Y014200D01*
X023033Y014051D01*
X023228Y013970D01*
X023439Y013970D01*
X023634Y014051D01*
X023783Y014200D01*
X023833Y014322D01*
X023884Y014200D01*
X024033Y014051D01*
X024228Y013970D01*
X024439Y013970D01*
X024634Y014051D01*
X024783Y014200D01*
X024833Y014322D01*
X024884Y014200D01*
X025033Y014051D01*
X025228Y013970D01*
X025439Y013970D01*
X025634Y014051D01*
X025783Y014200D01*
X025833Y014322D01*
X025884Y014200D01*
X026033Y014051D01*
X026228Y013970D01*
X026439Y013970D01*
X026634Y014051D01*
X026783Y014200D01*
X026833Y014322D01*
X026884Y014200D01*
X027033Y014051D01*
X027228Y013970D01*
X027439Y013970D01*
X027634Y014051D01*
X027783Y014200D01*
X027833Y014322D01*
X027884Y014200D01*
X028033Y014051D01*
X028228Y013970D01*
X028439Y013970D01*
X028634Y014051D01*
X028783Y014200D01*
X028833Y014322D01*
X028884Y014200D01*
X029033Y014051D01*
X029228Y013970D01*
X029439Y013970D01*
X029634Y014051D01*
X029783Y014200D01*
X029833Y014322D01*
X029884Y014200D01*
X030033Y014051D01*
X030228Y013970D01*
X030439Y013970D01*
X030634Y014051D01*
X030783Y014200D01*
X030833Y014322D01*
X030884Y014200D01*
X031033Y014051D01*
X031228Y013970D01*
X031439Y013970D01*
X031634Y014051D01*
X031783Y014200D01*
X031833Y014322D01*
X031884Y014200D01*
X032033Y014051D01*
X032228Y013970D01*
X032439Y013970D01*
X032634Y014051D01*
X032783Y014200D01*
X032833Y014322D01*
X032884Y014200D01*
X033033Y014051D01*
X033228Y013970D01*
X033439Y013970D01*
X033634Y014051D01*
X033783Y014200D01*
X033833Y014322D01*
X033884Y014200D01*
X034033Y014051D01*
X034228Y013970D01*
X034439Y013970D01*
X034634Y014051D01*
X034783Y014200D01*
X034863Y014395D01*
X034863Y014605D01*
X034783Y014800D01*
X034653Y014930D01*
X034653Y015070D01*
X034783Y015200D01*
X034863Y015395D01*
X034863Y015605D01*
X034783Y015800D01*
X034653Y015930D01*
X034653Y016070D01*
X034783Y016200D01*
X034863Y016395D01*
X034863Y016605D01*
X034783Y016800D01*
X034653Y016930D01*
X034653Y017070D01*
X034783Y017200D01*
X034863Y017395D01*
X034863Y017605D01*
X034783Y017800D01*
X034634Y017949D01*
X034439Y018030D01*
X034228Y018030D01*
X034033Y017949D01*
X033884Y017800D01*
X033833Y017678D01*
X033783Y017800D01*
X033634Y017949D01*
X033439Y018030D01*
X033228Y018030D01*
X033033Y017949D01*
X032884Y017800D01*
X032833Y017678D01*
X032783Y017800D01*
X032634Y017949D01*
X032439Y018030D01*
X032228Y018030D01*
X032033Y017949D01*
X031884Y017800D01*
X031833Y017678D01*
X031783Y017800D01*
X031634Y017949D01*
X031439Y018030D01*
X031228Y018030D01*
X031033Y017949D01*
X030884Y017800D01*
X030833Y017678D01*
X030783Y017800D01*
X030634Y017949D01*
X030511Y018000D01*
X030634Y018051D01*
X030673Y018090D01*
X032415Y018090D01*
X032566Y018152D01*
X036853Y022440D01*
X036853Y022395D01*
X036934Y022200D01*
X037083Y022051D01*
X037155Y022021D01*
X036983Y021949D01*
X036834Y021800D01*
X036753Y021605D01*
X036753Y021395D01*
X036834Y021200D01*
X036983Y021051D01*
X037155Y020979D01*
X037083Y020949D01*
X036934Y020800D01*
X036853Y020605D01*
X036853Y020395D01*
X036934Y020200D01*
X037083Y020051D01*
X037155Y020021D01*
X036983Y019949D01*
X036834Y019800D01*
X036753Y019605D01*
X036753Y019395D01*
X036834Y019200D01*
X033613Y019200D01*
X033535Y019122D02*
X036912Y019122D01*
X036983Y019051D02*
X036834Y019200D01*
X036801Y019279D02*
X033692Y019279D01*
X033770Y019357D02*
X036769Y019357D01*
X036753Y019436D02*
X033849Y019436D01*
X033927Y019514D02*
X036753Y019514D01*
X036753Y019593D02*
X034006Y019593D01*
X034084Y019671D02*
X036781Y019671D01*
X036813Y019750D02*
X034163Y019750D01*
X034241Y019828D02*
X036862Y019828D01*
X036940Y019907D02*
X034320Y019907D01*
X034398Y019985D02*
X037069Y019985D01*
X037070Y020064D02*
X034477Y020064D01*
X034555Y020142D02*
X036992Y020142D01*
X036925Y020221D02*
X034634Y020221D01*
X034712Y020299D02*
X036893Y020299D01*
X036860Y020378D02*
X034791Y020378D01*
X034869Y020456D02*
X036853Y020456D01*
X036853Y020535D02*
X034948Y020535D01*
X035026Y020613D02*
X036856Y020613D01*
X036889Y020692D02*
X035105Y020692D01*
X035183Y020770D02*
X036922Y020770D01*
X036982Y020849D02*
X035262Y020849D01*
X035340Y020927D02*
X037061Y020927D01*
X037092Y021006D02*
X035419Y021006D01*
X035497Y021084D02*
X036950Y021084D01*
X036871Y021163D02*
X035576Y021163D01*
X035654Y021241D02*
X036817Y021241D01*
X036784Y021320D02*
X035733Y021320D01*
X035811Y021398D02*
X036753Y021398D01*
X036753Y021477D02*
X035890Y021477D01*
X035968Y021555D02*
X036753Y021555D01*
X036765Y021634D02*
X036047Y021634D01*
X036125Y021712D02*
X036798Y021712D01*
X036830Y021791D02*
X036204Y021791D01*
X036282Y021869D02*
X036903Y021869D01*
X036981Y021948D02*
X036361Y021948D01*
X036439Y022026D02*
X037143Y022026D01*
X037029Y022105D02*
X036518Y022105D01*
X036596Y022183D02*
X036951Y022183D01*
X036908Y022262D02*
X036675Y022262D01*
X036753Y022340D02*
X036876Y022340D01*
X036853Y022419D02*
X036832Y022419D01*
X035908Y022654D02*
X008843Y022654D01*
X008863Y022576D02*
X035829Y022576D01*
X035751Y022497D02*
X008863Y022497D01*
X008863Y022419D02*
X035672Y022419D01*
X035594Y022340D02*
X008841Y022340D01*
X008808Y022262D02*
X035515Y022262D01*
X035437Y022183D02*
X008766Y022183D01*
X008687Y022105D02*
X035358Y022105D01*
X035280Y022026D02*
X008574Y022026D01*
X008635Y021948D02*
X035201Y021948D01*
X035123Y021869D02*
X008714Y021869D01*
X008787Y021791D02*
X035044Y021791D01*
X034966Y021712D02*
X008819Y021712D01*
X008852Y021634D02*
X034887Y021634D01*
X034809Y021555D02*
X008863Y021555D01*
X008863Y021477D02*
X034730Y021477D01*
X034652Y021398D02*
X008863Y021398D01*
X008832Y021320D02*
X034573Y021320D01*
X034495Y021241D02*
X008800Y021241D01*
X008745Y021163D02*
X034416Y021163D01*
X034338Y021084D02*
X008667Y021084D01*
X008656Y020927D02*
X009011Y020927D01*
X008932Y020849D02*
X008734Y020849D01*
X008795Y020770D02*
X008872Y020770D01*
X008839Y020692D02*
X008828Y020692D01*
X008525Y021006D02*
X009169Y021006D01*
X009498Y021006D02*
X010169Y021006D01*
X010011Y020927D02*
X009656Y020927D01*
X009734Y020849D02*
X009932Y020849D01*
X009872Y020770D02*
X009795Y020770D01*
X009828Y020692D02*
X009839Y020692D01*
X010498Y021006D02*
X011169Y021006D01*
X011011Y020927D02*
X010656Y020927D01*
X010734Y020849D02*
X010932Y020849D01*
X010872Y020770D02*
X010795Y020770D01*
X010828Y020692D02*
X010839Y020692D01*
X011498Y021006D02*
X012169Y021006D01*
X012011Y020927D02*
X011656Y020927D01*
X011734Y020849D02*
X011932Y020849D01*
X011872Y020770D02*
X011795Y020770D01*
X011828Y020692D02*
X011839Y020692D01*
X012498Y021006D02*
X013169Y021006D01*
X013011Y020927D02*
X012656Y020927D01*
X012734Y020849D02*
X012932Y020849D01*
X012872Y020770D02*
X012795Y020770D01*
X012828Y020692D02*
X012839Y020692D01*
X013498Y021006D02*
X014169Y021006D01*
X014011Y020927D02*
X013656Y020927D01*
X013734Y020849D02*
X013932Y020849D01*
X013872Y020770D02*
X013795Y020770D01*
X013828Y020692D02*
X013839Y020692D01*
X014498Y021006D02*
X015169Y021006D01*
X015011Y020927D02*
X014656Y020927D01*
X014734Y020849D02*
X014932Y020849D01*
X014872Y020770D02*
X014795Y020770D01*
X014828Y020692D02*
X014839Y020692D01*
X015498Y021006D02*
X016169Y021006D01*
X016011Y020927D02*
X015656Y020927D01*
X015734Y020849D02*
X015932Y020849D01*
X015872Y020770D02*
X015795Y020770D01*
X015828Y020692D02*
X015839Y020692D01*
X016498Y021006D02*
X017169Y021006D01*
X017011Y020927D02*
X016656Y020927D01*
X016734Y020849D02*
X016932Y020849D01*
X016872Y020770D02*
X016795Y020770D01*
X016828Y020692D02*
X016839Y020692D01*
X017498Y021006D02*
X018169Y021006D01*
X018011Y020927D02*
X017656Y020927D01*
X017734Y020849D02*
X017932Y020849D01*
X017872Y020770D02*
X017795Y020770D01*
X017828Y020692D02*
X017839Y020692D01*
X018498Y021006D02*
X019169Y021006D01*
X019011Y020927D02*
X018656Y020927D01*
X018734Y020849D02*
X018932Y020849D01*
X018872Y020770D02*
X018795Y020770D01*
X018828Y020692D02*
X018839Y020692D01*
X019498Y021006D02*
X020169Y021006D01*
X020011Y020927D02*
X019656Y020927D01*
X019734Y020849D02*
X019932Y020849D01*
X019872Y020770D02*
X019795Y020770D01*
X019828Y020692D02*
X019839Y020692D01*
X020498Y021006D02*
X021169Y021006D01*
X021011Y020927D02*
X020656Y020927D01*
X020734Y020849D02*
X020932Y020849D01*
X020872Y020770D02*
X020795Y020770D01*
X020828Y020692D02*
X020839Y020692D01*
X021498Y021006D02*
X022169Y021006D01*
X022011Y020927D02*
X021656Y020927D01*
X021734Y020849D02*
X021932Y020849D01*
X021872Y020770D02*
X021795Y020770D01*
X021828Y020692D02*
X021839Y020692D01*
X022498Y021006D02*
X023169Y021006D01*
X023011Y020927D02*
X022656Y020927D01*
X022734Y020849D02*
X022932Y020849D01*
X022872Y020770D02*
X022795Y020770D01*
X022828Y020692D02*
X022839Y020692D01*
X023498Y021006D02*
X034259Y021006D01*
X034181Y020927D02*
X023656Y020927D01*
X023734Y020849D02*
X034102Y020849D01*
X034024Y020770D02*
X023795Y020770D01*
X023828Y020692D02*
X033945Y020692D01*
X033867Y020613D02*
X023860Y020613D01*
X023863Y020535D02*
X033788Y020535D01*
X033710Y020456D02*
X023863Y020456D01*
X023856Y020378D02*
X033631Y020378D01*
X033553Y020299D02*
X023824Y020299D01*
X023791Y020221D02*
X033474Y020221D01*
X033396Y020142D02*
X023725Y020142D01*
X023646Y020064D02*
X033317Y020064D01*
X033239Y019985D02*
X023547Y019985D01*
X023676Y019907D02*
X033160Y019907D01*
X033082Y019828D02*
X023755Y019828D01*
X023804Y019750D02*
X033003Y019750D01*
X032925Y019671D02*
X023836Y019671D01*
X023863Y019593D02*
X032846Y019593D01*
X032768Y019514D02*
X023863Y019514D01*
X023863Y019395D02*
X023783Y019200D01*
X023704Y019122D02*
X032375Y019122D01*
X032297Y019043D02*
X023615Y019043D01*
X023597Y018965D02*
X024070Y018965D01*
X024597Y018965D02*
X025070Y018965D01*
X025597Y018965D02*
X026070Y018965D01*
X026597Y018965D02*
X027070Y018965D01*
X027597Y018965D02*
X028070Y018965D01*
X028597Y018965D02*
X029070Y018965D01*
X029597Y018965D02*
X030070Y018965D01*
X030597Y018965D02*
X032218Y018965D01*
X032828Y018415D02*
X036853Y018415D01*
X036853Y018395D02*
X036934Y018200D01*
X037083Y018051D01*
X037155Y018021D01*
X036983Y017949D01*
X036834Y017800D01*
X036753Y017605D01*
X036753Y017395D01*
X036834Y017200D01*
X036983Y017051D01*
X037155Y016979D01*
X037083Y016949D01*
X036934Y016800D01*
X036853Y016605D01*
X036853Y016395D01*
X036934Y016200D01*
X037083Y016051D01*
X037155Y016021D01*
X036983Y015949D01*
X036834Y015800D01*
X036753Y015605D01*
X036753Y015395D01*
X036834Y015200D01*
X036983Y015051D01*
X037155Y014979D01*
X037083Y014949D01*
X036934Y014800D01*
X036853Y014605D01*
X036853Y014395D01*
X036934Y014200D01*
X037083Y014051D01*
X037155Y014021D01*
X036983Y013949D01*
X036834Y013800D01*
X036753Y013605D01*
X036753Y013395D01*
X036834Y013200D01*
X036983Y013051D01*
X037155Y012979D01*
X037083Y012949D01*
X036934Y012800D01*
X036853Y012605D01*
X036853Y012395D01*
X036934Y012200D01*
X037083Y012051D01*
X037155Y012021D01*
X036983Y011949D01*
X036834Y011800D01*
X036753Y011605D01*
X036753Y011395D01*
X036834Y011200D01*
X036983Y011051D01*
X037155Y010979D01*
X037083Y010949D01*
X036934Y010800D01*
X036853Y010605D01*
X036853Y010395D01*
X036934Y010200D01*
X037083Y010051D01*
X037155Y010021D01*
X036983Y009949D01*
X036834Y009800D01*
X036753Y009605D01*
X036753Y009395D01*
X036834Y009200D01*
X036983Y009051D01*
X037155Y008979D01*
X037083Y008949D01*
X036934Y008800D01*
X036853Y008605D01*
X036853Y008395D01*
X036934Y008200D01*
X037083Y008051D01*
X037155Y008021D01*
X036983Y007949D01*
X036834Y007800D01*
X036753Y007605D01*
X036753Y007395D01*
X036834Y007200D01*
X036983Y007051D01*
X037126Y006992D01*
X037068Y006973D01*
X036996Y006936D01*
X036931Y006889D01*
X036874Y006832D01*
X036827Y006767D01*
X036791Y006696D01*
X036766Y006619D01*
X036753Y006540D01*
X037223Y006540D01*
X037223Y006460D01*
X036753Y006460D01*
X036753Y006460D01*
X036766Y006381D01*
X036791Y006304D01*
X036827Y006233D01*
X036874Y006168D01*
X036931Y006111D01*
X036996Y006064D01*
X037068Y006027D01*
X037144Y006003D01*
X037223Y005990D01*
X037223Y005990D01*
X037223Y006460D01*
X037303Y006460D01*
X037303Y005990D01*
X037303Y005990D01*
X037383Y006003D01*
X037459Y006027D01*
X037531Y006064D01*
X037596Y006111D01*
X037652Y006168D01*
X037700Y006233D01*
X037736Y006304D01*
X037761Y006381D01*
X037773Y006460D01*
X037303Y006460D01*
X037303Y006540D01*
X037773Y006540D01*
X037773Y006540D01*
X037761Y006619D01*
X037736Y006696D01*
X037700Y006767D01*
X037652Y006832D01*
X037596Y006889D01*
X037531Y006936D01*
X037459Y006973D01*
X037423Y006984D01*
X037584Y007051D01*
X037733Y007200D01*
X037783Y007322D01*
X037834Y007200D01*
X037983Y007051D01*
X038178Y006970D01*
X038202Y006970D01*
X038136Y006936D01*
X038071Y006889D01*
X038014Y006832D01*
X037967Y006767D01*
X037931Y006696D01*
X037906Y006619D01*
X037893Y006540D01*
X038363Y006540D01*
X038363Y006460D01*
X037893Y006460D01*
X037893Y006460D01*
X037906Y006381D01*
X037931Y006304D01*
X037967Y006233D01*
X038014Y006168D01*
X038071Y006111D01*
X038136Y006064D01*
X038208Y006027D01*
X038284Y006003D01*
X038363Y005990D01*
X038363Y005990D01*
X038363Y006460D01*
X038443Y006460D01*
X038443Y005990D01*
X038443Y005990D01*
X038523Y006003D01*
X038599Y006027D01*
X038671Y006064D01*
X038736Y006111D01*
X038792Y006168D01*
X038840Y006233D01*
X038876Y006304D01*
X038901Y006381D01*
X038913Y006460D01*
X038443Y006460D01*
X038443Y006540D01*
X038913Y006540D01*
X038913Y006540D01*
X038901Y006619D01*
X038876Y006696D01*
X038840Y006767D01*
X038792Y006832D01*
X038736Y006889D01*
X038671Y006936D01*
X038599Y006973D01*
X038523Y006997D01*
X038474Y007005D01*
X038584Y007051D01*
X038733Y007200D01*
X038813Y007395D01*
X038813Y007605D01*
X038733Y007800D01*
X038584Y007949D01*
X038511Y007979D01*
X038684Y008051D01*
X038833Y008200D01*
X038913Y008395D01*
X038913Y008605D01*
X038833Y008800D01*
X038684Y008949D01*
X038511Y009021D01*
X038584Y009051D01*
X038733Y009200D01*
X038813Y009395D01*
X038813Y009605D01*
X038733Y009800D01*
X038584Y009949D01*
X038511Y009979D01*
X038684Y010051D01*
X038833Y010200D01*
X038913Y010395D01*
X038913Y010605D01*
X038833Y010800D01*
X038684Y010949D01*
X038511Y011021D01*
X038584Y011051D01*
X038733Y011200D01*
X038813Y011395D01*
X038813Y011605D01*
X038733Y011800D01*
X038584Y011949D01*
X038511Y011979D01*
X038684Y012051D01*
X038833Y012200D01*
X038913Y012395D01*
X038913Y012605D01*
X038833Y012800D01*
X038684Y012949D01*
X038511Y013021D01*
X038584Y013051D01*
X038733Y013200D01*
X038813Y013395D01*
X038813Y013605D01*
X038733Y013800D01*
X038584Y013949D01*
X038511Y013979D01*
X038684Y014051D01*
X038833Y014200D01*
X038913Y014395D01*
X038913Y014605D01*
X038833Y014800D01*
X038684Y014949D01*
X038511Y015021D01*
X038584Y015051D01*
X038733Y015200D01*
X038813Y015395D01*
X038813Y015605D01*
X038733Y015800D01*
X038584Y015949D01*
X038511Y015979D01*
X038684Y016051D01*
X038833Y016200D01*
X038913Y016395D01*
X038913Y016605D01*
X038833Y016800D01*
X038684Y016949D01*
X038511Y017021D01*
X038584Y017051D01*
X038733Y017200D01*
X038813Y017395D01*
X038813Y017605D01*
X038733Y017800D01*
X038584Y017949D01*
X038511Y017979D01*
X038684Y018051D01*
X038833Y018200D01*
X038913Y018395D01*
X038913Y018605D01*
X038833Y018800D01*
X038684Y018949D01*
X038511Y019021D01*
X038584Y019051D01*
X038733Y019200D01*
X039350Y019200D01*
X039272Y019279D02*
X038765Y019279D01*
X038798Y019357D02*
X039193Y019357D01*
X039250Y019300D02*
X040133Y018417D01*
X040133Y005083D01*
X039133Y004083D01*
X039133Y003700D01*
X012412Y003700D01*
X012464Y003727D01*
X012523Y003769D01*
X012574Y003820D01*
X012617Y003879D01*
X012650Y003943D01*
X012672Y004012D01*
X012683Y004080D01*
X012263Y004080D01*
X012263Y004160D01*
X012183Y004160D01*
X012183Y004080D01*
X011764Y004080D01*
X011775Y004012D01*
X011797Y003943D01*
X011830Y003879D01*
X011872Y003820D01*
X011924Y003769D01*
X011982Y003727D01*
X012034Y003700D01*
X010684Y003700D01*
X010715Y003713D01*
X010850Y003848D01*
X010923Y004025D01*
X010923Y004215D01*
X010850Y004392D01*
X010715Y004527D01*
X010539Y004600D01*
X010348Y004600D01*
X010171Y004527D01*
X010036Y004392D01*
X009963Y004215D01*
X009963Y004025D01*
X010036Y003848D01*
X010171Y003713D01*
X010203Y003700D01*
X000533Y003700D01*
X000533Y003736D02*
X006115Y003736D01*
X005925Y003814D02*
X000533Y003814D01*
X000533Y003893D02*
X005824Y003893D01*
X005745Y003971D02*
X000533Y003971D01*
X000533Y004050D02*
X005667Y004050D01*
X005632Y004128D02*
X000533Y004128D01*
X000533Y004207D02*
X005600Y004207D01*
X005567Y004285D02*
X000533Y004285D01*
X000533Y004364D02*
X005543Y004364D01*
X005543Y004442D02*
X000533Y004442D01*
X000533Y004521D02*
X005543Y004521D01*
X005543Y004599D02*
X000533Y004599D01*
X000533Y004678D02*
X005552Y004678D01*
X005584Y004756D02*
X000533Y004756D01*
X000533Y004835D02*
X005617Y004835D01*
X005649Y004913D02*
X000533Y004913D01*
X000533Y004992D02*
X001176Y004992D01*
X001228Y004970D02*
X001439Y004970D01*
X001634Y005051D01*
X001783Y005200D01*
X001845Y005351D01*
X001861Y005304D01*
X001897Y005233D01*
X001944Y005168D01*
X002001Y005111D01*
X002066Y005064D01*
X002138Y005027D01*
X002214Y005003D01*
X002293Y004990D01*
X002293Y004990D01*
X002293Y005460D01*
X002373Y005460D01*
X002373Y004990D01*
X002373Y004990D01*
X002453Y005003D01*
X002529Y005027D01*
X002601Y005064D01*
X002666Y005111D01*
X002722Y005168D01*
X002770Y005233D01*
X002806Y005304D01*
X002831Y005381D01*
X002843Y005460D01*
X002373Y005460D01*
X002373Y005540D01*
X002293Y005540D01*
X002293Y006010D01*
X002214Y005997D01*
X002138Y005973D01*
X002066Y005936D01*
X002001Y005889D01*
X001944Y005832D01*
X001897Y005767D01*
X001861Y005696D01*
X001845Y005649D01*
X001783Y005800D01*
X001634Y005949D01*
X001439Y006030D01*
X001228Y006030D01*
X001033Y005949D01*
X000884Y005800D01*
X000803Y005605D01*
X000803Y005395D01*
X000884Y005200D01*
X001033Y005051D01*
X001228Y004970D01*
X001014Y005070D02*
X000533Y005070D01*
X000533Y005149D02*
X000935Y005149D01*
X000873Y005227D02*
X000533Y005227D01*
X000533Y005306D02*
X000840Y005306D01*
X000808Y005384D02*
X000533Y005384D01*
X000533Y005463D02*
X000803Y005463D01*
X000803Y005541D02*
X000533Y005541D01*
X000533Y005620D02*
X000809Y005620D01*
X000842Y005698D02*
X000533Y005698D01*
X000533Y005777D02*
X000874Y005777D01*
X000939Y005855D02*
X000533Y005855D01*
X000533Y005934D02*
X001017Y005934D01*
X001184Y006012D02*
X000533Y006012D01*
X000533Y006091D02*
X006024Y006091D01*
X005965Y006169D02*
X000533Y006169D01*
X000533Y006248D02*
X005886Y006248D01*
X005852Y006326D02*
X000533Y006326D01*
X000533Y006405D02*
X005820Y006405D01*
X005803Y006483D02*
X000533Y006483D01*
X000533Y006562D02*
X005803Y006562D01*
X005803Y006640D02*
X000533Y006640D01*
X000533Y006719D02*
X005829Y006719D01*
X005862Y006797D02*
X000533Y006797D01*
X000533Y006876D02*
X005909Y006876D01*
X005988Y006954D02*
X000533Y006954D01*
X000533Y007033D02*
X001077Y007033D01*
X000973Y007111D02*
X000533Y007111D01*
X000533Y007190D02*
X000894Y007190D01*
X000856Y007268D02*
X000533Y007268D01*
X000533Y007347D02*
X000823Y007347D01*
X000803Y007425D02*
X000533Y007425D01*
X000533Y007504D02*
X000803Y007504D01*
X000803Y007582D02*
X000533Y007582D01*
X000533Y007661D02*
X000826Y007661D01*
X000859Y007739D02*
X000533Y007739D01*
X000533Y007818D02*
X000901Y007818D01*
X000980Y007896D02*
X000533Y007896D01*
X000533Y007975D02*
X001094Y007975D01*
X001031Y008053D02*
X000533Y008053D01*
X000533Y008132D02*
X000952Y008132D01*
X000880Y008210D02*
X000533Y008210D01*
X000533Y008289D02*
X000847Y008289D01*
X000815Y008367D02*
X000533Y008367D01*
X000533Y008446D02*
X000803Y008446D01*
X000803Y008524D02*
X000533Y008524D01*
X000533Y008603D02*
X000803Y008603D01*
X000835Y008681D02*
X000533Y008681D01*
X000533Y008760D02*
X000867Y008760D01*
X000922Y008838D02*
X000533Y008838D01*
X000533Y008917D02*
X001000Y008917D01*
X001010Y009074D02*
X000533Y009074D01*
X000533Y009152D02*
X000932Y009152D01*
X000871Y009231D02*
X000533Y009231D01*
X000533Y009309D02*
X000839Y009309D01*
X000806Y009388D02*
X000533Y009388D01*
X000533Y009466D02*
X000803Y009466D01*
X000803Y009545D02*
X000533Y009545D01*
X000533Y009623D02*
X000811Y009623D01*
X000843Y009702D02*
X000533Y009702D01*
X000533Y009780D02*
X000876Y009780D01*
X000942Y009859D02*
X000533Y009859D01*
X000533Y009937D02*
X001021Y009937D01*
X001193Y010016D02*
X000533Y010016D01*
X000533Y010094D02*
X001990Y010094D01*
X001911Y010173D02*
X000533Y010173D01*
X000533Y010251D02*
X001863Y010251D01*
X001830Y010330D02*
X000533Y010330D01*
X000533Y010408D02*
X001803Y010408D01*
X001803Y010487D02*
X000533Y010487D01*
X000533Y010565D02*
X001803Y010565D01*
X001819Y010644D02*
X000533Y010644D01*
X000533Y010722D02*
X001852Y010722D01*
X001884Y010801D02*
X000533Y010801D01*
X000533Y010879D02*
X001963Y010879D01*
X002053Y010958D02*
X000533Y010958D01*
X000533Y011036D02*
X002069Y011036D01*
X001969Y011115D02*
X000533Y011115D01*
X000533Y011193D02*
X001891Y011193D01*
X001854Y011272D02*
X000533Y011272D01*
X000533Y011350D02*
X001822Y011350D01*
X001803Y011429D02*
X000533Y011429D01*
X000533Y011507D02*
X001803Y011507D01*
X001803Y011586D02*
X000533Y011586D01*
X000533Y011664D02*
X001828Y011664D01*
X001860Y011743D02*
X000533Y011743D01*
X000533Y011821D02*
X001905Y011821D01*
X001983Y011900D02*
X001727Y011900D01*
X001668Y011840D02*
X001794Y011966D01*
X001794Y012538D01*
X001668Y012664D01*
X001391Y012664D01*
X000998Y012270D01*
X000899Y012270D01*
X000773Y012144D01*
X000773Y011966D01*
X000899Y011840D01*
X001176Y011840D01*
X001180Y011844D01*
X001364Y012028D01*
X001364Y011966D01*
X001490Y011840D01*
X001668Y011840D01*
X001794Y011978D02*
X002102Y011978D01*
X002027Y012057D02*
X001794Y012057D01*
X001794Y012135D02*
X001949Y012135D01*
X001878Y012214D02*
X001794Y012214D01*
X001794Y012292D02*
X001846Y012292D01*
X001813Y012371D02*
X001794Y012371D01*
X001794Y012449D02*
X001803Y012449D01*
X001794Y012528D02*
X001803Y012528D01*
X001804Y012606D02*
X001726Y012606D01*
X001836Y012685D02*
X001353Y012685D01*
X001334Y012606D02*
X001236Y012606D01*
X001255Y012528D02*
X001118Y012528D01*
X001177Y012449D02*
X000533Y012449D01*
X000533Y012371D02*
X001098Y012371D01*
X001020Y012292D02*
X000533Y012292D01*
X000533Y012214D02*
X000843Y012214D01*
X000773Y012135D02*
X000533Y012135D01*
X000533Y012057D02*
X000773Y012057D01*
X000773Y011978D02*
X000533Y011978D01*
X000533Y011900D02*
X000840Y011900D01*
X001235Y011900D02*
X001430Y011900D01*
X001364Y011978D02*
X001314Y011978D01*
X001033Y012471D02*
X001772Y012964D01*
X001807Y013138D01*
X001716Y013275D01*
X001720Y013280D01*
X001794Y013353D01*
X001794Y013728D01*
X001718Y013804D01*
X001668Y013854D01*
X001668Y013854D01*
X001645Y013877D01*
X001569Y013953D01*
X001322Y013953D01*
X001772Y014253D01*
X001807Y014427D01*
X001716Y014565D01*
X001720Y014569D01*
X001794Y014643D01*
X001794Y015018D01*
X001718Y015093D01*
X001668Y015143D01*
X001659Y015152D01*
X001668Y015161D01*
X001718Y015211D01*
X001794Y015287D01*
X001794Y015662D01*
X001720Y015736D01*
X001668Y015788D01*
X001668Y015788D01*
X001643Y015813D01*
X001569Y015886D01*
X000998Y015886D01*
X000872Y015760D01*
X000773Y015662D01*
X000773Y015287D01*
X000899Y015161D01*
X000908Y015152D01*
X000899Y015143D01*
X000773Y015018D01*
X000773Y014643D01*
X000899Y014517D01*
X000923Y014493D01*
X000998Y014418D01*
X001245Y014418D01*
X000795Y014118D01*
X000760Y013943D01*
X000851Y013806D01*
X000773Y013728D01*
X000773Y013353D01*
X000872Y013255D01*
X000998Y013129D01*
X001245Y013129D01*
X000795Y012829D01*
X000760Y012654D01*
X000859Y012506D01*
X001033Y012471D01*
X000845Y012528D02*
X000533Y012528D01*
X000533Y012606D02*
X000792Y012606D01*
X000766Y012685D02*
X000533Y012685D01*
X000533Y012763D02*
X000782Y012763D01*
X000814Y012842D02*
X000533Y012842D01*
X000533Y012920D02*
X000931Y012920D01*
X001049Y012999D02*
X000533Y012999D01*
X000533Y013077D02*
X001167Y013077D01*
X000971Y013156D02*
X000533Y013156D01*
X000533Y013234D02*
X000893Y013234D01*
X000814Y013313D02*
X000533Y013313D01*
X000533Y013391D02*
X000773Y013391D01*
X000773Y013470D02*
X000533Y013470D01*
X000533Y013548D02*
X000773Y013548D01*
X000773Y013627D02*
X000533Y013627D01*
X000533Y013705D02*
X000773Y013705D01*
X000828Y013784D02*
X000533Y013784D01*
X000533Y013862D02*
X000814Y013862D01*
X000762Y013941D02*
X000533Y013941D01*
X000533Y014019D02*
X000775Y014019D01*
X000791Y014098D02*
X000533Y014098D01*
X000533Y014176D02*
X000882Y014176D01*
X001000Y014255D02*
X000533Y014255D01*
X000533Y014333D02*
X001117Y014333D01*
X001235Y014412D02*
X000533Y014412D01*
X000533Y014490D02*
X000926Y014490D01*
X000847Y014569D02*
X000533Y014569D01*
X000533Y014647D02*
X000773Y014647D01*
X000773Y014726D02*
X000533Y014726D01*
X000533Y014804D02*
X000773Y014804D01*
X000773Y014883D02*
X000533Y014883D01*
X000533Y014961D02*
X000773Y014961D01*
X000795Y015040D02*
X000533Y015040D01*
X000533Y015118D02*
X000874Y015118D01*
X000864Y015197D02*
X000533Y015197D01*
X000533Y015275D02*
X000785Y015275D01*
X000773Y015354D02*
X000533Y015354D01*
X000533Y015432D02*
X000773Y015432D01*
X000773Y015511D02*
X000533Y015511D01*
X000533Y015589D02*
X000773Y015589D01*
X000779Y015668D02*
X000533Y015668D01*
X000533Y015746D02*
X000857Y015746D01*
X000936Y015825D02*
X000533Y015825D01*
X000533Y015903D02*
X001987Y015903D01*
X001908Y015825D02*
X001631Y015825D01*
X001710Y015746D02*
X001862Y015746D01*
X001829Y015668D02*
X001788Y015668D01*
X001794Y015589D02*
X001803Y015589D01*
X001794Y015511D02*
X001803Y015511D01*
X001794Y015432D02*
X001803Y015432D01*
X001794Y015354D02*
X001820Y015354D01*
X001853Y015275D02*
X001782Y015275D01*
X001703Y015197D02*
X001887Y015197D01*
X001966Y015118D02*
X001693Y015118D01*
X001668Y015143D02*
X001668Y015143D01*
X001668Y015161D02*
X001668Y015161D01*
X001772Y015040D02*
X002060Y015040D01*
X001794Y014961D02*
X003061Y014961D01*
X003060Y015040D02*
X002607Y015040D01*
X002701Y015118D02*
X002966Y015118D01*
X002887Y015197D02*
X002779Y015197D01*
X002814Y015275D02*
X002853Y015275D01*
X002966Y014883D02*
X001794Y014883D01*
X001794Y014804D02*
X002888Y014804D01*
X002853Y014726D02*
X001794Y014726D01*
X001794Y014647D02*
X002821Y014647D01*
X002803Y014569D02*
X001720Y014569D01*
X001765Y014490D02*
X002803Y014490D01*
X002803Y014412D02*
X001804Y014412D01*
X001788Y014333D02*
X002829Y014333D01*
X002861Y014255D02*
X001773Y014255D01*
X001657Y014176D02*
X002908Y014176D01*
X002986Y014098D02*
X001539Y014098D01*
X001422Y014019D02*
X002201Y014019D01*
X002024Y013941D02*
X001582Y013941D01*
X001660Y013862D02*
X001946Y013862D01*
X001877Y013784D02*
X001739Y013784D01*
X001794Y013705D02*
X001845Y013705D01*
X001812Y013627D02*
X001794Y013627D01*
X001794Y013548D02*
X001803Y013548D01*
X001794Y013470D02*
X001803Y013470D01*
X001794Y013391D02*
X001805Y013391D01*
X001837Y013313D02*
X001753Y013313D01*
X001743Y013234D02*
X001870Y013234D01*
X001928Y013156D02*
X001796Y013156D01*
X001795Y013077D02*
X002007Y013077D01*
X002004Y012920D02*
X001707Y012920D01*
X001779Y012999D02*
X002152Y012999D01*
X001925Y012842D02*
X001589Y012842D01*
X001471Y012763D02*
X001869Y012763D01*
X002822Y013705D02*
X002845Y013705D01*
X002877Y013784D02*
X002790Y013784D01*
X002721Y013862D02*
X002946Y013862D01*
X003024Y013941D02*
X002642Y013941D01*
X002465Y014019D02*
X003110Y014019D01*
X002111Y015982D02*
X000533Y015982D01*
X000533Y016060D02*
X002024Y016060D01*
X001945Y016139D02*
X000533Y016139D01*
X000533Y016217D02*
X001877Y016217D01*
X001844Y016296D02*
X000533Y016296D01*
X000533Y016374D02*
X001812Y016374D01*
X001803Y016453D02*
X000533Y016453D01*
X000533Y016531D02*
X001803Y016531D01*
X001805Y016610D02*
X000533Y016610D01*
X000533Y016688D02*
X001838Y016688D01*
X001870Y016767D02*
X000533Y016767D01*
X000533Y016845D02*
X001929Y016845D01*
X002007Y016924D02*
X000533Y016924D01*
X000533Y017002D02*
X002151Y017002D01*
X002003Y017081D02*
X000533Y017081D01*
X000533Y017159D02*
X001925Y017159D01*
X001868Y017238D02*
X000533Y017238D01*
X000533Y017316D02*
X001836Y017316D01*
X001803Y017395D02*
X000533Y017395D01*
X000533Y017473D02*
X001803Y017473D01*
X001803Y017552D02*
X000533Y017552D01*
X000533Y017630D02*
X001814Y017630D01*
X001846Y017709D02*
X000533Y017709D01*
X000533Y017787D02*
X001879Y017787D01*
X001949Y017866D02*
X000533Y017866D01*
X000533Y017944D02*
X002028Y017944D01*
X002101Y018023D02*
X001566Y018023D01*
X001101Y018023D02*
X000533Y018023D01*
X000533Y018101D02*
X000983Y018101D01*
X000904Y018180D02*
X000533Y018180D01*
X000533Y018258D02*
X000860Y018258D01*
X000827Y018337D02*
X000533Y018337D01*
X000533Y018415D02*
X000803Y018415D01*
X000803Y018494D02*
X000533Y018494D01*
X000533Y018572D02*
X000803Y018572D01*
X000822Y018651D02*
X000533Y018651D01*
X000533Y018729D02*
X000855Y018729D01*
X000891Y018808D02*
X000533Y018808D01*
X000533Y018886D02*
X000970Y018886D01*
X001070Y018965D02*
X000533Y018965D01*
X000533Y019043D02*
X001052Y019043D01*
X001033Y019051D02*
X000884Y019200D01*
X000851Y019279D02*
X000533Y019279D01*
X000533Y019357D02*
X000819Y019357D01*
X000803Y019436D02*
X000533Y019436D01*
X000533Y019514D02*
X000803Y019514D01*
X000803Y019593D02*
X000533Y019593D01*
X000533Y019671D02*
X000831Y019671D01*
X000863Y019750D02*
X000533Y019750D01*
X000533Y019828D02*
X000912Y019828D01*
X000990Y019907D02*
X000533Y019907D01*
X000533Y019985D02*
X001119Y019985D01*
X001020Y020064D02*
X000533Y020064D01*
X000533Y020142D02*
X000942Y020142D01*
X000875Y020221D02*
X000533Y020221D01*
X000533Y020299D02*
X000843Y020299D01*
X000810Y020378D02*
X000533Y020378D01*
X000533Y020456D02*
X000803Y020456D01*
X000803Y020535D02*
X000533Y020535D01*
X000533Y020613D02*
X000806Y020613D01*
X000839Y020692D02*
X000533Y020692D01*
X000533Y020770D02*
X000872Y020770D01*
X000932Y020849D02*
X000533Y020849D01*
X000533Y020927D02*
X001011Y020927D01*
X001142Y021006D02*
X000533Y021006D01*
X000533Y021084D02*
X001000Y021084D01*
X000921Y021163D02*
X000533Y021163D01*
X000533Y021241D02*
X000867Y021241D01*
X000834Y021320D02*
X000533Y021320D01*
X000533Y021398D02*
X000803Y021398D01*
X000803Y021477D02*
X000533Y021477D01*
X000533Y021555D02*
X000803Y021555D01*
X000815Y021634D02*
X000533Y021634D01*
X000533Y021712D02*
X000848Y021712D01*
X000880Y021791D02*
X000533Y021791D01*
X000533Y021869D02*
X000953Y021869D01*
X001031Y021948D02*
X000533Y021948D01*
X000533Y022026D02*
X001093Y022026D01*
X000979Y022105D02*
X000533Y022105D01*
X000533Y022183D02*
X000901Y022183D01*
X000858Y022262D02*
X000533Y022262D01*
X000533Y022340D02*
X000826Y022340D01*
X000803Y022419D02*
X000533Y022419D01*
X000533Y022497D02*
X000803Y022497D01*
X000803Y022576D02*
X000533Y022576D01*
X000533Y022654D02*
X000823Y022654D01*
X000856Y022733D02*
X000533Y022733D01*
X000533Y022811D02*
X000895Y022811D01*
X000973Y022890D02*
X000533Y022890D01*
X000533Y022968D02*
X001078Y022968D01*
X001043Y023047D02*
X000533Y023047D01*
X000533Y023125D02*
X000959Y023125D01*
X000882Y023204D02*
X000533Y023204D01*
X000533Y023282D02*
X000850Y023282D01*
X000817Y023361D02*
X000533Y023361D01*
X000533Y023439D02*
X000803Y023439D01*
X000803Y023518D02*
X000533Y023518D01*
X000533Y023596D02*
X000803Y023596D01*
X000832Y023675D02*
X000533Y023675D01*
X000533Y023753D02*
X000864Y023753D01*
X000915Y023832D02*
X000533Y023832D01*
X000533Y023910D02*
X000994Y023910D01*
X001128Y023989D02*
X000533Y023989D01*
X000533Y024067D02*
X005783Y024067D01*
X005705Y023989D02*
X004539Y023989D01*
X004673Y023910D02*
X005648Y023910D01*
X005664Y023947D02*
X005543Y023657D01*
X005543Y023343D01*
X005664Y023053D01*
X005886Y022830D01*
X006176Y022710D01*
X006490Y022710D01*
X006781Y022830D01*
X007003Y023053D01*
X007123Y023343D01*
X007123Y023657D01*
X007003Y023947D01*
X006781Y024170D01*
X006490Y024290D01*
X006176Y024290D01*
X005886Y024170D01*
X005664Y023947D01*
X005616Y023832D02*
X004751Y023832D01*
X004802Y023753D02*
X005583Y023753D01*
X005551Y023675D02*
X004835Y023675D01*
X004863Y023596D02*
X005543Y023596D01*
X005543Y023518D02*
X004863Y023518D01*
X004863Y023439D02*
X005543Y023439D01*
X005543Y023361D02*
X004849Y023361D01*
X004817Y023282D02*
X005569Y023282D01*
X005601Y023204D02*
X004784Y023204D01*
X004708Y023125D02*
X005634Y023125D01*
X005670Y023047D02*
X004624Y023047D01*
X004588Y022968D02*
X005078Y022968D01*
X004973Y022890D02*
X004693Y022890D01*
X004772Y022811D02*
X004895Y022811D01*
X004856Y022733D02*
X004811Y022733D01*
X005588Y022968D02*
X005748Y022968D01*
X005693Y022890D02*
X005827Y022890D01*
X005772Y022811D02*
X005932Y022811D01*
X005811Y022733D02*
X006122Y022733D01*
X005843Y022654D02*
X006823Y022654D01*
X006803Y022576D02*
X005863Y022576D01*
X005863Y022497D02*
X006803Y022497D01*
X006803Y022419D02*
X005863Y022419D01*
X005841Y022340D02*
X006826Y022340D01*
X006858Y022262D02*
X005808Y022262D01*
X005766Y022183D02*
X006901Y022183D01*
X006979Y022105D02*
X005687Y022105D01*
X005574Y022026D02*
X006218Y022026D01*
X006031Y021948D02*
X005635Y021948D01*
X005714Y021869D02*
X005953Y021869D01*
X005880Y021791D02*
X005787Y021791D01*
X005819Y021712D02*
X005848Y021712D01*
X006448Y022026D02*
X007093Y022026D01*
X007031Y021948D02*
X006635Y021948D01*
X006714Y021869D02*
X006953Y021869D01*
X006880Y021791D02*
X006787Y021791D01*
X006819Y021712D02*
X006848Y021712D01*
X006856Y022733D02*
X006545Y022733D01*
X006734Y022811D02*
X006895Y022811D01*
X006840Y022890D02*
X006973Y022890D01*
X006919Y022968D02*
X007078Y022968D01*
X006997Y023047D02*
X008043Y023047D01*
X008078Y022968D02*
X007588Y022968D01*
X007693Y022890D02*
X007973Y022890D01*
X007895Y022811D02*
X007772Y022811D01*
X007811Y022733D02*
X007856Y022733D01*
X008588Y022968D02*
X010666Y022968D01*
X010638Y022977D02*
X010714Y022953D01*
X010793Y022940D01*
X010793Y022940D01*
X010793Y023410D01*
X010873Y023410D01*
X010873Y022940D01*
X010873Y022940D01*
X010953Y022953D01*
X011029Y022977D01*
X011101Y023014D01*
X011166Y023061D01*
X011222Y023118D01*
X011270Y023183D01*
X011306Y023254D01*
X011331Y023331D01*
X011336Y023365D01*
X011384Y023250D01*
X011533Y023101D01*
X011728Y023020D01*
X011939Y023020D01*
X012134Y023101D01*
X012283Y023250D01*
X012313Y023322D01*
X012384Y023150D01*
X012533Y023001D01*
X012728Y022920D01*
X012939Y022920D01*
X013134Y023001D01*
X013283Y023150D01*
X013354Y023322D01*
X013384Y023250D01*
X013533Y023101D01*
X013728Y023020D01*
X013939Y023020D01*
X014134Y023101D01*
X014283Y023250D01*
X014313Y023322D01*
X014384Y023150D01*
X014533Y023001D01*
X014728Y022920D01*
X014939Y022920D01*
X015134Y023001D01*
X015283Y023150D01*
X015354Y023322D01*
X015384Y023250D01*
X015533Y023101D01*
X015728Y023020D01*
X015939Y023020D01*
X016134Y023101D01*
X016283Y023250D01*
X016303Y023300D01*
X016303Y023014D01*
X016397Y022920D01*
X017270Y022920D01*
X017363Y023014D01*
X017363Y023886D01*
X017270Y023980D01*
X016397Y023980D01*
X016303Y023886D01*
X016303Y023800D01*
X016283Y023850D01*
X016134Y023999D01*
X015939Y024080D01*
X015728Y024080D01*
X015533Y023999D01*
X015384Y023850D01*
X015313Y023678D01*
X015283Y023750D01*
X015134Y023899D01*
X014939Y023980D01*
X014728Y023980D01*
X014533Y023899D01*
X014384Y023750D01*
X014354Y023678D01*
X014283Y023850D01*
X014134Y023999D01*
X013939Y024080D01*
X013728Y024080D01*
X013533Y023999D01*
X013384Y023850D01*
X013313Y023678D01*
X013283Y023750D01*
X013134Y023899D01*
X012939Y023980D01*
X012728Y023980D01*
X012533Y023899D01*
X012384Y023750D01*
X012354Y023678D01*
X012283Y023850D01*
X012134Y023999D01*
X011939Y024080D01*
X011728Y024080D01*
X011533Y023999D01*
X011384Y023850D01*
X011303Y023655D01*
X011303Y023651D01*
X011270Y023717D01*
X011222Y023782D01*
X011166Y023839D01*
X011101Y023886D01*
X011029Y023923D01*
X010953Y023947D01*
X010873Y023960D01*
X010873Y023490D01*
X010793Y023490D01*
X010793Y023960D01*
X010714Y023947D01*
X010638Y023923D01*
X010566Y023886D01*
X010501Y023839D01*
X010444Y023782D01*
X010397Y023717D01*
X010363Y023651D01*
X010363Y023655D01*
X010283Y023850D01*
X010134Y023999D01*
X009939Y024080D01*
X009728Y024080D01*
X009533Y023999D01*
X009384Y023850D01*
X009303Y023655D01*
X009303Y023445D01*
X009384Y023250D01*
X009533Y023101D01*
X009728Y023020D01*
X009939Y023020D01*
X010134Y023101D01*
X010283Y023250D01*
X010330Y023365D01*
X010336Y023331D01*
X010361Y023254D01*
X010397Y023183D01*
X010444Y023118D01*
X010501Y023061D01*
X010566Y023014D01*
X010638Y022977D01*
X010521Y023047D02*
X010003Y023047D01*
X010158Y023125D02*
X010439Y023125D01*
X010387Y023204D02*
X010236Y023204D01*
X010296Y023282D02*
X010352Y023282D01*
X010331Y023361D02*
X010329Y023361D01*
X010355Y023675D02*
X010375Y023675D01*
X010423Y023753D02*
X010323Y023753D01*
X010290Y023832D02*
X010494Y023832D01*
X010613Y023910D02*
X010223Y023910D01*
X010144Y023989D02*
X011522Y023989D01*
X011444Y023910D02*
X011054Y023910D01*
X011173Y023832D02*
X011376Y023832D01*
X011344Y023753D02*
X011244Y023753D01*
X011291Y023675D02*
X011311Y023675D01*
X011336Y023361D02*
X011338Y023361D01*
X011315Y023282D02*
X011371Y023282D01*
X011430Y023204D02*
X011280Y023204D01*
X011228Y023125D02*
X011509Y023125D01*
X011664Y023047D02*
X011146Y023047D01*
X011000Y022968D02*
X012612Y022968D01*
X012487Y023047D02*
X012003Y023047D01*
X012158Y023125D02*
X012409Y023125D01*
X012362Y023204D02*
X012236Y023204D01*
X012296Y023282D02*
X012329Y023282D01*
X012323Y023753D02*
X012387Y023753D01*
X012465Y023832D02*
X012290Y023832D01*
X012223Y023910D02*
X012559Y023910D01*
X012144Y023989D02*
X013522Y023989D01*
X013444Y023910D02*
X013108Y023910D01*
X013201Y023832D02*
X013376Y023832D01*
X013344Y023753D02*
X013280Y023753D01*
X013697Y024067D02*
X011970Y024067D01*
X011697Y024067D02*
X009970Y024067D01*
X009697Y024067D02*
X006883Y024067D01*
X006805Y024146D02*
X035362Y024146D01*
X035283Y024067D02*
X033470Y024067D01*
X033439Y024080D02*
X033228Y024080D01*
X033033Y023999D01*
X032884Y023850D01*
X032813Y023678D01*
X032783Y023750D01*
X032634Y023899D01*
X032439Y023980D01*
X032228Y023980D01*
X032033Y023899D01*
X031884Y023750D01*
X031854Y023678D01*
X031783Y023850D01*
X031634Y023999D01*
X031439Y024080D01*
X031228Y024080D01*
X031033Y023999D01*
X030884Y023850D01*
X030813Y023678D01*
X030783Y023750D01*
X030634Y023899D01*
X030439Y023980D01*
X030228Y023980D01*
X030033Y023899D01*
X029884Y023750D01*
X029854Y023678D01*
X029783Y023850D01*
X029634Y023999D01*
X029439Y024080D01*
X029228Y024080D01*
X029033Y023999D01*
X028884Y023850D01*
X028813Y023678D01*
X028783Y023750D01*
X028634Y023899D01*
X028439Y023980D01*
X028228Y023980D01*
X028033Y023899D01*
X027884Y023750D01*
X027863Y023700D01*
X027863Y023986D01*
X027770Y024080D01*
X026897Y024080D01*
X026803Y023986D01*
X026803Y023114D01*
X026897Y023020D01*
X027770Y023020D01*
X027863Y023114D01*
X027863Y023200D01*
X027884Y023150D01*
X028033Y023001D01*
X028228Y022920D01*
X028439Y022920D01*
X028634Y023001D01*
X028783Y023150D01*
X028854Y023322D01*
X028884Y023250D01*
X029033Y023101D01*
X029228Y023020D01*
X029439Y023020D01*
X029634Y023101D01*
X029783Y023250D01*
X029813Y023322D01*
X029884Y023150D01*
X030033Y023001D01*
X030228Y022920D01*
X030439Y022920D01*
X030634Y023001D01*
X030783Y023150D01*
X030854Y023322D01*
X030884Y023250D01*
X031033Y023101D01*
X031228Y023020D01*
X031439Y023020D01*
X031634Y023101D01*
X031783Y023250D01*
X031813Y023322D01*
X031884Y023150D01*
X032033Y023001D01*
X032228Y022920D01*
X032439Y022920D01*
X032634Y023001D01*
X032783Y023150D01*
X032854Y023322D01*
X032884Y023250D01*
X033033Y023101D01*
X033228Y023020D01*
X033439Y023020D01*
X033634Y023101D01*
X033783Y023250D01*
X033813Y023322D01*
X033884Y023150D01*
X034033Y023001D01*
X034228Y022920D01*
X034439Y022920D01*
X034634Y023001D01*
X034783Y023150D01*
X034863Y023345D01*
X034863Y023555D01*
X034783Y023750D01*
X034634Y023899D01*
X034439Y023980D01*
X034228Y023980D01*
X034033Y023899D01*
X033884Y023750D01*
X033854Y023678D01*
X033783Y023850D01*
X033634Y023999D01*
X033439Y024080D01*
X033644Y023989D02*
X035205Y023989D01*
X035148Y023910D02*
X034608Y023910D01*
X034701Y023832D02*
X035116Y023832D01*
X035083Y023753D02*
X034780Y023753D01*
X034814Y023675D02*
X035051Y023675D01*
X035043Y023596D02*
X034846Y023596D01*
X034863Y023518D02*
X035043Y023518D01*
X035043Y023439D02*
X034863Y023439D01*
X034863Y023361D02*
X035043Y023361D01*
X035069Y023282D02*
X034837Y023282D01*
X034805Y023204D02*
X035101Y023204D01*
X035134Y023125D02*
X034758Y023125D01*
X034679Y023047D02*
X035170Y023047D01*
X035248Y022968D02*
X034555Y022968D01*
X034112Y022968D02*
X032555Y022968D01*
X032679Y023047D02*
X033164Y023047D01*
X033009Y023125D02*
X032758Y023125D01*
X032805Y023204D02*
X032930Y023204D01*
X032871Y023282D02*
X032837Y023282D01*
X033503Y023047D02*
X033987Y023047D01*
X033909Y023125D02*
X033658Y023125D01*
X033736Y023204D02*
X033862Y023204D01*
X033829Y023282D02*
X033796Y023282D01*
X033823Y023753D02*
X033887Y023753D01*
X033965Y023832D02*
X033790Y023832D01*
X033723Y023910D02*
X034059Y023910D01*
X033197Y024067D02*
X031470Y024067D01*
X031644Y023989D02*
X033022Y023989D01*
X032944Y023910D02*
X032608Y023910D01*
X032701Y023832D02*
X032876Y023832D01*
X032844Y023753D02*
X032780Y023753D01*
X032059Y023910D02*
X031723Y023910D01*
X031790Y023832D02*
X031965Y023832D01*
X031887Y023753D02*
X031823Y023753D01*
X031796Y023282D02*
X031829Y023282D01*
X031862Y023204D02*
X031736Y023204D01*
X031658Y023125D02*
X031909Y023125D01*
X031987Y023047D02*
X031503Y023047D01*
X031164Y023047D02*
X030679Y023047D01*
X030758Y023125D02*
X031009Y023125D01*
X030930Y023204D02*
X030805Y023204D01*
X030837Y023282D02*
X030871Y023282D01*
X030555Y022968D02*
X032112Y022968D01*
X030844Y023753D02*
X030780Y023753D01*
X030701Y023832D02*
X030876Y023832D01*
X030944Y023910D02*
X030608Y023910D01*
X031022Y023989D02*
X029644Y023989D01*
X029723Y023910D02*
X030059Y023910D01*
X029965Y023832D02*
X029790Y023832D01*
X029823Y023753D02*
X029887Y023753D01*
X029470Y024067D02*
X031197Y024067D01*
X029829Y023282D02*
X029796Y023282D01*
X029736Y023204D02*
X029862Y023204D01*
X029909Y023125D02*
X029658Y023125D01*
X029503Y023047D02*
X029987Y023047D01*
X030112Y022968D02*
X028555Y022968D01*
X028679Y023047D02*
X029164Y023047D01*
X029009Y023125D02*
X028758Y023125D01*
X028805Y023204D02*
X028930Y023204D01*
X028871Y023282D02*
X028837Y023282D01*
X028844Y023753D02*
X028780Y023753D01*
X028701Y023832D02*
X028876Y023832D01*
X028944Y023910D02*
X028608Y023910D01*
X029022Y023989D02*
X027861Y023989D01*
X027863Y023910D02*
X028059Y023910D01*
X027965Y023832D02*
X027863Y023832D01*
X027863Y023753D02*
X027887Y023753D01*
X027783Y024067D02*
X029197Y024067D01*
X027987Y023047D02*
X027796Y023047D01*
X027863Y023125D02*
X027909Y023125D01*
X028112Y022968D02*
X025818Y022968D01*
X025863Y023014D02*
X025863Y023886D01*
X025770Y023980D01*
X024897Y023980D01*
X024803Y023886D01*
X024803Y023800D01*
X024783Y023850D01*
X024634Y023999D01*
X024439Y024080D01*
X024228Y024080D01*
X024033Y023999D01*
X023884Y023850D01*
X023813Y023678D01*
X023783Y023750D01*
X023634Y023899D01*
X023439Y023980D01*
X023228Y023980D01*
X023033Y023899D01*
X022884Y023750D01*
X022854Y023678D01*
X022783Y023850D01*
X022634Y023999D01*
X022439Y024080D01*
X022228Y024080D01*
X022033Y023999D01*
X021884Y023850D01*
X021813Y023678D01*
X021783Y023750D01*
X021634Y023899D01*
X021439Y023980D01*
X021228Y023980D01*
X021033Y023899D01*
X020884Y023750D01*
X020854Y023678D01*
X020783Y023850D01*
X020634Y023999D01*
X020439Y024080D01*
X020228Y024080D01*
X020033Y023999D01*
X019884Y023850D01*
X019813Y023678D01*
X019783Y023750D01*
X019634Y023899D01*
X019439Y023980D01*
X019228Y023980D01*
X019033Y023899D01*
X018884Y023750D01*
X018854Y023678D01*
X018783Y023850D01*
X018634Y023999D01*
X018439Y024080D01*
X018228Y024080D01*
X018033Y023999D01*
X017884Y023850D01*
X017803Y023655D01*
X017803Y023445D01*
X017884Y023250D01*
X018033Y023101D01*
X018228Y023020D01*
X018439Y023020D01*
X018634Y023101D01*
X018783Y023250D01*
X018813Y023322D01*
X018884Y023150D01*
X019033Y023001D01*
X019228Y022920D01*
X019439Y022920D01*
X019634Y023001D01*
X019783Y023150D01*
X019854Y023322D01*
X019884Y023250D01*
X020033Y023101D01*
X020228Y023020D01*
X020439Y023020D01*
X020634Y023101D01*
X020783Y023250D01*
X020813Y023322D01*
X020884Y023150D01*
X021033Y023001D01*
X021228Y022920D01*
X021439Y022920D01*
X021634Y023001D01*
X021783Y023150D01*
X021854Y023322D01*
X021884Y023250D01*
X022033Y023101D01*
X022228Y023020D01*
X022439Y023020D01*
X022634Y023101D01*
X022783Y023250D01*
X022813Y023322D01*
X022884Y023150D01*
X023033Y023001D01*
X023228Y022920D01*
X023439Y022920D01*
X023634Y023001D01*
X023783Y023150D01*
X023854Y023322D01*
X023884Y023250D01*
X024033Y023101D01*
X024228Y023020D01*
X024439Y023020D01*
X024634Y023101D01*
X024783Y023250D01*
X024803Y023300D01*
X024803Y023014D01*
X024897Y022920D01*
X025770Y022920D01*
X025863Y023014D01*
X025863Y023047D02*
X026870Y023047D01*
X026803Y023125D02*
X025863Y023125D01*
X025863Y023204D02*
X026803Y023204D01*
X026803Y023282D02*
X025863Y023282D01*
X025863Y023361D02*
X026803Y023361D01*
X026803Y023439D02*
X025863Y023439D01*
X025863Y023518D02*
X026803Y023518D01*
X026803Y023596D02*
X025863Y023596D01*
X025863Y023675D02*
X026803Y023675D01*
X026803Y023753D02*
X025863Y023753D01*
X025863Y023832D02*
X026803Y023832D01*
X026803Y023910D02*
X025840Y023910D01*
X026806Y023989D02*
X024644Y023989D01*
X024723Y023910D02*
X024827Y023910D01*
X024803Y023832D02*
X024790Y023832D01*
X024470Y024067D02*
X026884Y024067D01*
X024803Y023282D02*
X024796Y023282D01*
X024803Y023204D02*
X024736Y023204D01*
X024803Y023125D02*
X024658Y023125D01*
X024803Y023047D02*
X024503Y023047D01*
X024164Y023047D02*
X023679Y023047D01*
X023758Y023125D02*
X024009Y023125D01*
X023930Y023204D02*
X023805Y023204D01*
X023837Y023282D02*
X023871Y023282D01*
X023555Y022968D02*
X024849Y022968D01*
X023844Y023753D02*
X023780Y023753D01*
X023701Y023832D02*
X023876Y023832D01*
X023944Y023910D02*
X023608Y023910D01*
X024022Y023989D02*
X022644Y023989D01*
X022723Y023910D02*
X023059Y023910D01*
X022965Y023832D02*
X022790Y023832D01*
X022823Y023753D02*
X022887Y023753D01*
X022470Y024067D02*
X024197Y024067D01*
X022829Y023282D02*
X022796Y023282D01*
X022736Y023204D02*
X022862Y023204D01*
X022909Y023125D02*
X022658Y023125D01*
X022503Y023047D02*
X022987Y023047D01*
X023112Y022968D02*
X021555Y022968D01*
X021679Y023047D02*
X022164Y023047D01*
X022009Y023125D02*
X021758Y023125D01*
X021805Y023204D02*
X021930Y023204D01*
X021871Y023282D02*
X021837Y023282D01*
X021844Y023753D02*
X021780Y023753D01*
X021701Y023832D02*
X021876Y023832D01*
X021944Y023910D02*
X021608Y023910D01*
X022022Y023989D02*
X020644Y023989D01*
X020723Y023910D02*
X021059Y023910D01*
X020965Y023832D02*
X020790Y023832D01*
X020823Y023753D02*
X020887Y023753D01*
X020470Y024067D02*
X022197Y024067D01*
X020829Y023282D02*
X020796Y023282D01*
X020736Y023204D02*
X020862Y023204D01*
X020909Y023125D02*
X020658Y023125D01*
X020503Y023047D02*
X020987Y023047D01*
X021112Y022968D02*
X019555Y022968D01*
X019679Y023047D02*
X020164Y023047D01*
X020009Y023125D02*
X019758Y023125D01*
X019805Y023204D02*
X019930Y023204D01*
X019871Y023282D02*
X019837Y023282D01*
X019844Y023753D02*
X019780Y023753D01*
X019701Y023832D02*
X019876Y023832D01*
X019944Y023910D02*
X019608Y023910D01*
X020022Y023989D02*
X018644Y023989D01*
X018723Y023910D02*
X019059Y023910D01*
X018965Y023832D02*
X018790Y023832D01*
X018823Y023753D02*
X018887Y023753D01*
X018470Y024067D02*
X020197Y024067D01*
X018829Y023282D02*
X018796Y023282D01*
X018736Y023204D02*
X018862Y023204D01*
X018909Y023125D02*
X018658Y023125D01*
X018503Y023047D02*
X018987Y023047D01*
X019112Y022968D02*
X017318Y022968D01*
X017363Y023047D02*
X018164Y023047D01*
X018009Y023125D02*
X017363Y023125D01*
X017363Y023204D02*
X017930Y023204D01*
X017871Y023282D02*
X017363Y023282D01*
X017363Y023361D02*
X017838Y023361D01*
X017806Y023439D02*
X017363Y023439D01*
X017363Y023518D02*
X017803Y023518D01*
X017803Y023596D02*
X017363Y023596D01*
X017363Y023675D02*
X017811Y023675D01*
X017844Y023753D02*
X017363Y023753D01*
X017363Y023832D02*
X017876Y023832D01*
X017944Y023910D02*
X017340Y023910D01*
X018022Y023989D02*
X016144Y023989D01*
X016223Y023910D02*
X016327Y023910D01*
X016303Y023832D02*
X016290Y023832D01*
X015970Y024067D02*
X018197Y024067D01*
X016303Y023282D02*
X016296Y023282D01*
X016303Y023204D02*
X016236Y023204D01*
X016303Y023125D02*
X016158Y023125D01*
X016303Y023047D02*
X016003Y023047D01*
X015664Y023047D02*
X015179Y023047D01*
X015258Y023125D02*
X015509Y023125D01*
X015430Y023204D02*
X015305Y023204D01*
X015337Y023282D02*
X015371Y023282D01*
X015055Y022968D02*
X016349Y022968D01*
X015344Y023753D02*
X015280Y023753D01*
X015201Y023832D02*
X015376Y023832D01*
X015444Y023910D02*
X015108Y023910D01*
X015522Y023989D02*
X014144Y023989D01*
X014223Y023910D02*
X014559Y023910D01*
X014465Y023832D02*
X014290Y023832D01*
X014323Y023753D02*
X014387Y023753D01*
X013970Y024067D02*
X015697Y024067D01*
X014329Y023282D02*
X014296Y023282D01*
X014236Y023204D02*
X014362Y023204D01*
X014409Y023125D02*
X014158Y023125D01*
X014003Y023047D02*
X014487Y023047D01*
X014612Y022968D02*
X013055Y022968D01*
X013179Y023047D02*
X013664Y023047D01*
X013509Y023125D02*
X013258Y023125D01*
X013305Y023204D02*
X013430Y023204D01*
X013371Y023282D02*
X013337Y023282D01*
X010873Y023282D02*
X010793Y023282D01*
X010793Y023204D02*
X010873Y023204D01*
X010873Y023125D02*
X010793Y023125D01*
X010793Y023047D02*
X010873Y023047D01*
X010873Y022968D02*
X010793Y022968D01*
X010793Y023361D02*
X010873Y023361D01*
X010873Y023518D02*
X010793Y023518D01*
X010793Y023596D02*
X010873Y023596D01*
X010873Y023675D02*
X010793Y023675D01*
X010793Y023753D02*
X010873Y023753D01*
X010873Y023832D02*
X010793Y023832D01*
X010793Y023910D02*
X010873Y023910D01*
X010873Y023960D02*
X010873Y023960D01*
X010793Y023960D02*
X010793Y023960D01*
X009522Y023989D02*
X008539Y023989D01*
X008673Y023910D02*
X009444Y023910D01*
X009376Y023832D02*
X008751Y023832D01*
X008802Y023753D02*
X009344Y023753D01*
X009311Y023675D02*
X008835Y023675D01*
X008863Y023596D02*
X009303Y023596D01*
X009303Y023518D02*
X008863Y023518D01*
X008863Y023439D02*
X009306Y023439D01*
X009338Y023361D02*
X008849Y023361D01*
X008817Y023282D02*
X009371Y023282D01*
X009430Y023204D02*
X008784Y023204D01*
X008708Y023125D02*
X009509Y023125D01*
X009664Y023047D02*
X008624Y023047D01*
X008693Y022890D02*
X035327Y022890D01*
X035432Y022811D02*
X008772Y022811D01*
X008811Y022733D02*
X035622Y022733D01*
X036623Y023439D02*
X036693Y023439D01*
X036733Y023518D02*
X036623Y023518D01*
X036623Y023596D02*
X036733Y023596D01*
X036762Y023675D02*
X036616Y023675D01*
X036584Y023753D02*
X036794Y023753D01*
X036845Y023832D02*
X036551Y023832D01*
X036518Y023910D02*
X036924Y023910D01*
X037058Y023989D02*
X036462Y023989D01*
X036383Y024067D02*
X038483Y024067D01*
X038405Y024146D02*
X036305Y024146D01*
X036149Y024224D02*
X038326Y024224D01*
X038198Y023989D02*
X037469Y023989D01*
X037603Y023910D02*
X038064Y023910D01*
X038925Y023625D02*
X039133Y023417D01*
X039133Y019417D01*
X039250Y019300D01*
X039133Y019436D02*
X038813Y019436D01*
X038813Y019395D02*
X038813Y019605D01*
X038733Y019800D01*
X038584Y019949D01*
X038511Y019979D01*
X038684Y020051D01*
X038833Y020200D01*
X038913Y020395D01*
X038913Y020605D01*
X038833Y020800D01*
X038684Y020949D01*
X038511Y021021D01*
X038584Y021051D01*
X038733Y021200D01*
X038813Y021395D01*
X038813Y021605D01*
X038733Y021800D01*
X038584Y021949D01*
X038511Y021979D01*
X038684Y022051D01*
X038833Y022200D01*
X038913Y022395D01*
X038913Y022605D01*
X038833Y022800D01*
X038684Y022949D01*
X038571Y022996D01*
X038704Y023051D01*
X038853Y023200D01*
X038933Y023395D01*
X038933Y023605D01*
X038925Y023625D01*
X038933Y023596D02*
X038954Y023596D01*
X038933Y023518D02*
X039033Y023518D01*
X039111Y023439D02*
X038933Y023439D01*
X038919Y023361D02*
X039133Y023361D01*
X039133Y023282D02*
X038887Y023282D01*
X038854Y023204D02*
X039133Y023204D01*
X039133Y023125D02*
X038778Y023125D01*
X038694Y023047D02*
X039133Y023047D01*
X039133Y022968D02*
X038638Y022968D01*
X038743Y022890D02*
X039133Y022890D01*
X039133Y022811D02*
X038822Y022811D01*
X038861Y022733D02*
X039133Y022733D01*
X039133Y022654D02*
X038893Y022654D01*
X038913Y022576D02*
X039133Y022576D01*
X039133Y022497D02*
X038913Y022497D01*
X038913Y022419D02*
X039133Y022419D01*
X039133Y022340D02*
X038891Y022340D01*
X038858Y022262D02*
X039133Y022262D01*
X039133Y022183D02*
X038816Y022183D01*
X038737Y022105D02*
X039133Y022105D01*
X039133Y022026D02*
X038624Y022026D01*
X038585Y021948D02*
X039133Y021948D01*
X039133Y021869D02*
X038664Y021869D01*
X038737Y021791D02*
X039133Y021791D01*
X039133Y021712D02*
X038769Y021712D01*
X038802Y021634D02*
X039133Y021634D01*
X039133Y021555D02*
X038813Y021555D01*
X038813Y021477D02*
X039133Y021477D01*
X039133Y021398D02*
X038813Y021398D01*
X038782Y021320D02*
X039133Y021320D01*
X039133Y021241D02*
X038750Y021241D01*
X038695Y021163D02*
X039133Y021163D01*
X039133Y021084D02*
X038617Y021084D01*
X038548Y021006D02*
X039133Y021006D01*
X039133Y020927D02*
X038706Y020927D01*
X038784Y020849D02*
X039133Y020849D01*
X039133Y020770D02*
X038845Y020770D01*
X038878Y020692D02*
X039133Y020692D01*
X039133Y020613D02*
X038910Y020613D01*
X038913Y020535D02*
X039133Y020535D01*
X039133Y020456D02*
X038913Y020456D01*
X038906Y020378D02*
X039133Y020378D01*
X039133Y020299D02*
X038874Y020299D01*
X038841Y020221D02*
X039133Y020221D01*
X039133Y020142D02*
X038775Y020142D01*
X038696Y020064D02*
X039133Y020064D01*
X039133Y019985D02*
X038525Y019985D01*
X038626Y019907D02*
X039133Y019907D01*
X039133Y019828D02*
X038705Y019828D01*
X038754Y019750D02*
X039133Y019750D01*
X039133Y019671D02*
X038786Y019671D01*
X038813Y019593D02*
X039133Y019593D01*
X039133Y019514D02*
X038813Y019514D01*
X038813Y019395D02*
X038733Y019200D01*
X038654Y019122D02*
X039429Y019122D01*
X039507Y019043D02*
X038565Y019043D01*
X038647Y018965D02*
X039586Y018965D01*
X039664Y018886D02*
X038747Y018886D01*
X038825Y018808D02*
X039743Y018808D01*
X039821Y018729D02*
X038862Y018729D01*
X038895Y018651D02*
X039900Y018651D01*
X039978Y018572D02*
X038913Y018572D01*
X038913Y018494D02*
X040057Y018494D01*
X040133Y018415D02*
X038913Y018415D01*
X038889Y018337D02*
X040133Y018337D01*
X040133Y018258D02*
X038857Y018258D01*
X038812Y018180D02*
X040133Y018180D01*
X040133Y018101D02*
X038734Y018101D01*
X038616Y018023D02*
X040133Y018023D01*
X040133Y017944D02*
X038589Y017944D01*
X038667Y017866D02*
X040133Y017866D01*
X040133Y017787D02*
X038738Y017787D01*
X038771Y017709D02*
X040133Y017709D01*
X040133Y017630D02*
X038803Y017630D01*
X038813Y017552D02*
X040133Y017552D01*
X040133Y017473D02*
X038813Y017473D01*
X038813Y017395D02*
X040133Y017395D01*
X040133Y017316D02*
X038781Y017316D01*
X038748Y017238D02*
X040133Y017238D01*
X040133Y017159D02*
X038692Y017159D01*
X038613Y017081D02*
X040133Y017081D01*
X040133Y017002D02*
X038556Y017002D01*
X038709Y016924D02*
X040133Y016924D01*
X040133Y016845D02*
X038788Y016845D01*
X038847Y016767D02*
X040133Y016767D01*
X040133Y016688D02*
X038879Y016688D01*
X038912Y016610D02*
X040133Y016610D01*
X040133Y016531D02*
X038913Y016531D01*
X038913Y016453D02*
X040133Y016453D01*
X040133Y016374D02*
X038905Y016374D01*
X038872Y016296D02*
X040133Y016296D01*
X040133Y016217D02*
X038840Y016217D01*
X038771Y016139D02*
X040133Y016139D01*
X040133Y016060D02*
X038693Y016060D01*
X038630Y015903D02*
X040133Y015903D01*
X040133Y015825D02*
X038708Y015825D01*
X038755Y015746D02*
X040133Y015746D01*
X040133Y015668D02*
X038788Y015668D01*
X038813Y015589D02*
X040133Y015589D01*
X040133Y015511D02*
X038813Y015511D01*
X038813Y015432D02*
X040133Y015432D01*
X040133Y015354D02*
X038796Y015354D01*
X038764Y015275D02*
X040133Y015275D01*
X040133Y015197D02*
X038729Y015197D01*
X038651Y015118D02*
X040133Y015118D01*
X040133Y015040D02*
X038557Y015040D01*
X038655Y014961D02*
X040133Y014961D01*
X040133Y014883D02*
X038750Y014883D01*
X038829Y014804D02*
X040133Y014804D01*
X040133Y014726D02*
X038864Y014726D01*
X038896Y014647D02*
X040133Y014647D01*
X040133Y014569D02*
X038913Y014569D01*
X038913Y014490D02*
X040133Y014490D01*
X040133Y014412D02*
X038913Y014412D01*
X038888Y014333D02*
X040133Y014333D01*
X040133Y014255D02*
X038855Y014255D01*
X038809Y014176D02*
X040133Y014176D01*
X040133Y014098D02*
X038730Y014098D01*
X038607Y014019D02*
X040133Y014019D01*
X040133Y013941D02*
X038592Y013941D01*
X038671Y013862D02*
X040133Y013862D01*
X040133Y013784D02*
X038740Y013784D01*
X038772Y013705D02*
X040133Y013705D01*
X040133Y013627D02*
X038805Y013627D01*
X038813Y013548D02*
X040133Y013548D01*
X040133Y013470D02*
X038813Y013470D01*
X038812Y013391D02*
X040133Y013391D01*
X040133Y013313D02*
X038779Y013313D01*
X038747Y013234D02*
X040133Y013234D01*
X040133Y013156D02*
X038688Y013156D01*
X038610Y013077D02*
X040133Y013077D01*
X040133Y012999D02*
X038565Y012999D01*
X038713Y012920D02*
X040133Y012920D01*
X040133Y012842D02*
X038791Y012842D01*
X038848Y012763D02*
X040133Y012763D01*
X040133Y012685D02*
X038881Y012685D01*
X038913Y012606D02*
X040133Y012606D01*
X040133Y012528D02*
X038913Y012528D01*
X038913Y012449D02*
X040133Y012449D01*
X040133Y012371D02*
X038903Y012371D01*
X038871Y012292D02*
X040133Y012292D01*
X040133Y012214D02*
X038838Y012214D01*
X038768Y012135D02*
X040133Y012135D01*
X040133Y012057D02*
X038689Y012057D01*
X038633Y011900D02*
X040133Y011900D01*
X040133Y011978D02*
X038514Y011978D01*
X038712Y011821D02*
X040133Y011821D01*
X040133Y011743D02*
X038757Y011743D01*
X038789Y011664D02*
X040133Y011664D01*
X040133Y011586D02*
X038813Y011586D01*
X038813Y011507D02*
X040133Y011507D01*
X040133Y011429D02*
X038813Y011429D01*
X038795Y011350D02*
X040133Y011350D01*
X040133Y011272D02*
X038762Y011272D01*
X038726Y011193D02*
X040133Y011193D01*
X040133Y011115D02*
X038647Y011115D01*
X038548Y011036D02*
X040133Y011036D01*
X040133Y010958D02*
X038664Y010958D01*
X038754Y010879D02*
X040133Y010879D01*
X040133Y010801D02*
X038832Y010801D01*
X038865Y010722D02*
X040133Y010722D01*
X040133Y010644D02*
X038898Y010644D01*
X038913Y010565D02*
X040133Y010565D01*
X040133Y010487D02*
X038913Y010487D01*
X038913Y010408D02*
X040133Y010408D01*
X040133Y010330D02*
X038886Y010330D01*
X038854Y010251D02*
X040133Y010251D01*
X040133Y010173D02*
X038805Y010173D01*
X038727Y010094D02*
X040133Y010094D01*
X040133Y010016D02*
X038599Y010016D01*
X038596Y009937D02*
X040133Y009937D01*
X040133Y009859D02*
X038674Y009859D01*
X038741Y009780D02*
X040133Y009780D01*
X040133Y009702D02*
X038774Y009702D01*
X038806Y009623D02*
X040133Y009623D01*
X040133Y009545D02*
X038813Y009545D01*
X038813Y009466D02*
X040133Y009466D01*
X040133Y009388D02*
X038810Y009388D01*
X038778Y009309D02*
X040133Y009309D01*
X040133Y009231D02*
X038745Y009231D01*
X038685Y009152D02*
X040133Y009152D01*
X040133Y009074D02*
X038606Y009074D01*
X038573Y008995D02*
X040133Y008995D01*
X040133Y008917D02*
X038716Y008917D01*
X038795Y008838D02*
X040133Y008838D01*
X040133Y008760D02*
X038850Y008760D01*
X038882Y008681D02*
X040133Y008681D01*
X040133Y008603D02*
X038913Y008603D01*
X038913Y008524D02*
X040133Y008524D01*
X040133Y008446D02*
X038913Y008446D01*
X038902Y008367D02*
X040133Y008367D01*
X040133Y008289D02*
X038869Y008289D01*
X038837Y008210D02*
X040133Y008210D01*
X040133Y008132D02*
X038764Y008132D01*
X038686Y008053D02*
X040133Y008053D01*
X040133Y007975D02*
X038523Y007975D01*
X038637Y007896D02*
X040133Y007896D01*
X040133Y007818D02*
X038715Y007818D01*
X038758Y007739D02*
X040133Y007739D01*
X040133Y007661D02*
X038791Y007661D01*
X038813Y007582D02*
X040133Y007582D01*
X040133Y007504D02*
X038813Y007504D01*
X038813Y007425D02*
X040133Y007425D01*
X040133Y007347D02*
X038793Y007347D01*
X038761Y007268D02*
X040133Y007268D01*
X040133Y007190D02*
X038722Y007190D01*
X038644Y007111D02*
X040133Y007111D01*
X040133Y007033D02*
X038540Y007033D01*
X038636Y006954D02*
X040133Y006954D01*
X040133Y006876D02*
X038749Y006876D01*
X038818Y006797D02*
X040133Y006797D01*
X040133Y006719D02*
X038864Y006719D01*
X038894Y006640D02*
X040133Y006640D01*
X040133Y006562D02*
X038910Y006562D01*
X038913Y006460D02*
X038913Y006460D01*
X038905Y006405D02*
X040133Y006405D01*
X040133Y006483D02*
X038443Y006483D01*
X038443Y006405D02*
X038363Y006405D01*
X038363Y006483D02*
X037303Y006483D01*
X037303Y006405D02*
X037223Y006405D01*
X037223Y006483D02*
X018833Y006483D01*
X018820Y006470D02*
X018913Y006564D01*
X018913Y007436D01*
X018820Y007530D01*
X017947Y007530D01*
X017853Y007436D01*
X017853Y006564D01*
X017947Y006470D01*
X018820Y006470D01*
X018911Y006562D02*
X036757Y006562D01*
X036753Y006540D02*
X036753Y006540D01*
X036773Y006640D02*
X018913Y006640D01*
X018913Y006719D02*
X036802Y006719D01*
X036849Y006797D02*
X018913Y006797D01*
X018913Y006876D02*
X036918Y006876D01*
X037031Y006954D02*
X018913Y006954D01*
X018913Y007033D02*
X037027Y007033D01*
X036923Y007111D02*
X018913Y007111D01*
X018913Y007190D02*
X036844Y007190D01*
X036806Y007268D02*
X018913Y007268D01*
X018913Y007347D02*
X036773Y007347D01*
X036753Y007425D02*
X018913Y007425D01*
X018846Y007504D02*
X036753Y007504D01*
X036753Y007582D02*
X009863Y007582D01*
X009863Y007504D02*
X017202Y007504D01*
X017164Y007497D02*
X017243Y007510D01*
X017243Y007510D01*
X017243Y007040D01*
X017243Y006960D01*
X016773Y006960D01*
X016773Y006960D01*
X016786Y006881D01*
X016811Y006804D01*
X016847Y006733D01*
X016894Y006668D01*
X016951Y006611D01*
X017016Y006564D01*
X017088Y006527D01*
X017164Y006503D01*
X017243Y006490D01*
X017243Y006490D01*
X017243Y006960D01*
X017323Y006960D01*
X017323Y006490D01*
X017323Y006490D01*
X017403Y006503D01*
X017479Y006527D01*
X017551Y006564D01*
X017616Y006611D01*
X017672Y006668D01*
X017720Y006733D01*
X017756Y006804D01*
X017781Y006881D01*
X017793Y006960D01*
X017323Y006960D01*
X017323Y007040D01*
X017243Y007040D01*
X016773Y007040D01*
X016773Y007040D01*
X016786Y007119D01*
X016811Y007196D01*
X016847Y007267D01*
X016894Y007332D01*
X016951Y007389D01*
X017016Y007436D01*
X017088Y007473D01*
X017164Y007497D01*
X017243Y007504D02*
X017323Y007504D01*
X017323Y007510D02*
X017323Y007510D01*
X017323Y007040D01*
X017793Y007040D01*
X017793Y007040D01*
X017781Y007119D01*
X017756Y007196D01*
X017720Y007267D01*
X017672Y007332D01*
X017616Y007389D01*
X017551Y007436D01*
X017479Y007473D01*
X017403Y007497D01*
X017323Y007510D01*
X017364Y007504D02*
X017921Y007504D01*
X017853Y007425D02*
X017566Y007425D01*
X017658Y007347D02*
X017853Y007347D01*
X017853Y007268D02*
X017719Y007268D01*
X017758Y007190D02*
X017853Y007190D01*
X017853Y007111D02*
X017782Y007111D01*
X017853Y007033D02*
X017323Y007033D01*
X017323Y007111D02*
X017243Y007111D01*
X017243Y007033D02*
X012521Y007033D01*
X012523Y007031D02*
X012464Y007073D01*
X012400Y007106D01*
X012331Y007129D01*
X012263Y007139D01*
X012263Y006720D01*
X012183Y006720D01*
X012183Y006640D01*
X010923Y006640D01*
X010923Y006585D02*
X010850Y006408D01*
X010715Y006273D01*
X010539Y006200D01*
X010348Y006200D01*
X010171Y006273D01*
X010036Y006408D01*
X009963Y006585D01*
X009963Y006775D01*
X010036Y006952D01*
X010171Y007087D01*
X010348Y007160D01*
X010539Y007160D01*
X010715Y007087D01*
X010850Y006952D01*
X010923Y006775D01*
X010923Y006585D01*
X010914Y006562D02*
X011778Y006562D01*
X011775Y006572D02*
X011797Y006503D01*
X011830Y006439D01*
X011872Y006380D01*
X011924Y006329D01*
X011982Y006287D01*
X012047Y006254D01*
X012116Y006231D01*
X012183Y006221D01*
X012183Y006640D01*
X011764Y006640D01*
X011775Y006572D01*
X011807Y006483D02*
X010881Y006483D01*
X010847Y006405D02*
X011855Y006405D01*
X011928Y006326D02*
X010768Y006326D01*
X010654Y006248D02*
X012066Y006248D01*
X012183Y006248D02*
X012263Y006248D01*
X012263Y006221D02*
X012331Y006231D01*
X012400Y006254D01*
X012464Y006287D01*
X012523Y006329D01*
X012574Y006380D01*
X012617Y006439D01*
X012650Y006503D01*
X012672Y006572D01*
X012683Y006640D01*
X012263Y006640D01*
X012263Y006221D01*
X012263Y006326D02*
X012183Y006326D01*
X012183Y006405D02*
X012263Y006405D01*
X012263Y006483D02*
X012183Y006483D01*
X012183Y006562D02*
X012263Y006562D01*
X012263Y006640D02*
X012183Y006640D01*
X012183Y006719D02*
X010923Y006719D01*
X010914Y006797D02*
X011778Y006797D01*
X011775Y006788D02*
X011764Y006720D01*
X012183Y006720D01*
X012183Y007139D01*
X012116Y007129D01*
X012047Y007106D01*
X011982Y007073D01*
X011924Y007031D01*
X011872Y006980D01*
X011830Y006921D01*
X011797Y006857D01*
X011775Y006788D01*
X011807Y006876D02*
X010882Y006876D01*
X010848Y006954D02*
X011854Y006954D01*
X011926Y007033D02*
X010770Y007033D01*
X010657Y007111D02*
X012061Y007111D01*
X012183Y007111D02*
X012263Y007111D01*
X012263Y007033D02*
X012183Y007033D01*
X012183Y006954D02*
X012263Y006954D01*
X012263Y006876D02*
X012183Y006876D01*
X012183Y006797D02*
X012263Y006797D01*
X012263Y006720D02*
X012683Y006720D01*
X012672Y006788D01*
X012650Y006857D01*
X012617Y006921D01*
X012574Y006980D01*
X012523Y007031D01*
X012593Y006954D02*
X016774Y006954D01*
X016788Y006876D02*
X012640Y006876D01*
X012669Y006797D02*
X016814Y006797D01*
X016857Y006719D02*
X012263Y006719D01*
X012263Y006720D02*
X012263Y006640D01*
X016922Y006640D01*
X017021Y006562D02*
X012669Y006562D01*
X012639Y006483D02*
X017934Y006483D01*
X017856Y006562D02*
X017546Y006562D01*
X017645Y006640D02*
X017853Y006640D01*
X017853Y006719D02*
X017709Y006719D01*
X017752Y006797D02*
X017853Y006797D01*
X017853Y006876D02*
X017779Y006876D01*
X017792Y006954D02*
X017853Y006954D01*
X017793Y006960D02*
X017793Y006960D01*
X017323Y006954D02*
X017243Y006954D01*
X017243Y006876D02*
X017323Y006876D01*
X017323Y006797D02*
X017243Y006797D01*
X017243Y006719D02*
X017323Y006719D01*
X017323Y006640D02*
X017243Y006640D01*
X017243Y006562D02*
X017323Y006562D01*
X017323Y007190D02*
X017243Y007190D01*
X017243Y007268D02*
X017323Y007268D01*
X017323Y007347D02*
X017243Y007347D01*
X017243Y007425D02*
X017323Y007425D01*
X017001Y007425D02*
X009863Y007425D01*
X009843Y007347D02*
X016909Y007347D01*
X016848Y007268D02*
X009811Y007268D01*
X009772Y007190D02*
X016809Y007190D01*
X016785Y007111D02*
X012385Y007111D01*
X012592Y006405D02*
X036762Y006405D01*
X036784Y006326D02*
X012519Y006326D01*
X012381Y006248D02*
X036820Y006248D01*
X036873Y006169D02*
X009986Y006169D01*
X009911Y006248D02*
X010233Y006248D01*
X010119Y006326D02*
X009837Y006326D01*
X009847Y006405D02*
X010040Y006405D01*
X010005Y006483D02*
X009863Y006483D01*
X009863Y006562D02*
X009973Y006562D01*
X009963Y006640D02*
X009863Y006640D01*
X009837Y006719D02*
X009963Y006719D01*
X009972Y006797D02*
X009805Y006797D01*
X009757Y006876D02*
X010005Y006876D01*
X010039Y006954D02*
X009679Y006954D01*
X009590Y007033D02*
X010117Y007033D01*
X010230Y007111D02*
X009694Y007111D01*
X009077Y007033D02*
X006590Y007033D01*
X006679Y006954D02*
X008988Y006954D01*
X008909Y006876D02*
X006757Y006876D01*
X006805Y006797D02*
X008862Y006797D01*
X008829Y006719D02*
X006837Y006719D01*
X006863Y006640D02*
X008803Y006640D01*
X008803Y006562D02*
X006863Y006562D01*
X006863Y006483D02*
X008803Y006483D01*
X008820Y006405D02*
X006847Y006405D01*
X006814Y006326D02*
X008852Y006326D01*
X008886Y006248D02*
X006780Y006248D01*
X006702Y006169D02*
X008965Y006169D01*
X009024Y006091D02*
X006642Y006091D01*
X006721Y006012D02*
X008946Y006012D01*
X008877Y005934D02*
X006790Y005934D01*
X006822Y005855D02*
X008845Y005855D01*
X008812Y005777D02*
X006855Y005777D01*
X006863Y005698D02*
X008803Y005698D01*
X008803Y005620D02*
X006863Y005620D01*
X006862Y005541D02*
X008805Y005541D01*
X008837Y005463D02*
X006829Y005463D01*
X006797Y005384D02*
X008870Y005384D01*
X008928Y005306D02*
X006738Y005306D01*
X006660Y005227D02*
X009007Y005227D01*
X009159Y005149D02*
X006802Y005149D01*
X006880Y005070D02*
X014466Y005070D01*
X014388Y005149D02*
X009508Y005149D01*
X009660Y005227D02*
X014309Y005227D01*
X014545Y004992D02*
X013532Y004992D01*
X013670Y004913D02*
X014187Y004913D01*
X014018Y004835D02*
X013748Y004835D01*
X013801Y004756D02*
X013940Y004756D01*
X013875Y004678D02*
X013833Y004678D01*
X014480Y004913D02*
X014623Y004913D01*
X014648Y004835D02*
X014702Y004835D01*
X014727Y004756D02*
X014780Y004756D01*
X014792Y004678D02*
X014833Y004678D01*
X015060Y005070D02*
X019887Y005070D01*
X019897Y005080D02*
X019803Y004986D01*
X019803Y004114D01*
X019897Y004020D01*
X020770Y004020D01*
X020863Y004114D01*
X020863Y004200D01*
X020884Y004150D01*
X021033Y004001D01*
X021228Y003920D01*
X021439Y003920D01*
X021634Y004001D01*
X021783Y004150D01*
X021854Y004322D01*
X021884Y004250D01*
X022033Y004101D01*
X022228Y004020D01*
X022439Y004020D01*
X022634Y004101D01*
X022783Y004250D01*
X022813Y004322D01*
X022884Y004150D01*
X023033Y004001D01*
X023228Y003920D01*
X023439Y003920D01*
X023634Y004001D01*
X023783Y004150D01*
X023854Y004322D01*
X023884Y004250D01*
X024033Y004101D01*
X024228Y004020D01*
X024439Y004020D01*
X024634Y004101D01*
X024783Y004250D01*
X024813Y004322D01*
X024884Y004150D01*
X025033Y004001D01*
X025228Y003920D01*
X025439Y003920D01*
X025634Y004001D01*
X025783Y004150D01*
X025854Y004322D01*
X025884Y004250D01*
X026033Y004101D01*
X026228Y004020D01*
X026439Y004020D01*
X026634Y004101D01*
X026783Y004250D01*
X026813Y004322D01*
X026884Y004150D01*
X027033Y004001D01*
X027228Y003920D01*
X027439Y003920D01*
X027634Y004001D01*
X027783Y004150D01*
X027863Y004345D01*
X027863Y004555D01*
X027783Y004750D01*
X027634Y004899D01*
X027439Y004980D01*
X027228Y004980D01*
X027033Y004899D01*
X026884Y004750D01*
X026854Y004678D01*
X026783Y004850D01*
X026634Y004999D01*
X026439Y005080D01*
X026228Y005080D01*
X026033Y004999D01*
X025884Y004850D01*
X025813Y004678D01*
X025783Y004750D01*
X025634Y004899D01*
X025439Y004980D01*
X025228Y004980D01*
X025033Y004899D01*
X024884Y004750D01*
X024854Y004678D01*
X024783Y004850D01*
X024634Y004999D01*
X024439Y005080D01*
X024228Y005080D01*
X024033Y004999D01*
X023884Y004850D01*
X023813Y004678D01*
X023783Y004750D01*
X023634Y004899D01*
X023439Y004980D01*
X023228Y004980D01*
X023033Y004899D01*
X022884Y004750D01*
X022854Y004678D01*
X022783Y004850D01*
X022634Y004999D01*
X022439Y005080D01*
X022228Y005080D01*
X022033Y004999D01*
X021884Y004850D01*
X021813Y004678D01*
X021783Y004750D01*
X021634Y004899D01*
X021439Y004980D01*
X021228Y004980D01*
X021033Y004899D01*
X020884Y004750D01*
X020863Y004700D01*
X020863Y004986D01*
X020770Y005080D01*
X019897Y005080D01*
X019809Y004992D02*
X017471Y004992D01*
X017373Y004992D02*
X017293Y004992D01*
X017293Y005010D02*
X017293Y005010D01*
X017373Y005010D02*
X017373Y005010D01*
X017373Y004913D02*
X017293Y004913D01*
X017293Y004835D02*
X017373Y004835D01*
X017373Y004756D02*
X017293Y004756D01*
X017293Y004678D02*
X017373Y004678D01*
X017373Y004599D02*
X017293Y004599D01*
X017293Y004442D02*
X017373Y004442D01*
X017373Y004364D02*
X017293Y004364D01*
X017293Y004285D02*
X017373Y004285D01*
X017373Y004207D02*
X017293Y004207D01*
X017293Y004128D02*
X017373Y004128D01*
X017373Y004050D02*
X017293Y004050D01*
X017094Y004050D02*
X016704Y004050D01*
X016766Y004128D02*
X016984Y004128D01*
X016916Y004207D02*
X016807Y004207D01*
X016831Y004285D02*
X016870Y004285D01*
X016833Y004599D02*
X016804Y004599D01*
X016762Y004678D02*
X016855Y004678D01*
X016891Y004756D02*
X016699Y004756D01*
X016603Y004835D02*
X016947Y004835D01*
X017034Y004913D02*
X015670Y004913D01*
X015748Y004835D02*
X016064Y004835D01*
X015968Y004756D02*
X015801Y004756D01*
X015833Y004678D02*
X015905Y004678D01*
X016293Y004678D02*
X016373Y004678D01*
X016373Y004756D02*
X016293Y004756D01*
X016293Y004835D02*
X016373Y004835D01*
X016373Y004910D02*
X016373Y004910D01*
X016293Y004910D02*
X016293Y004910D01*
X016293Y004599D02*
X016373Y004599D01*
X016373Y004521D02*
X016293Y004521D01*
X016293Y004442D02*
X016373Y004442D01*
X016373Y004285D02*
X016293Y004285D01*
X016293Y004207D02*
X016373Y004207D01*
X016373Y004128D02*
X016293Y004128D01*
X016293Y004050D02*
X016373Y004050D01*
X016373Y003971D02*
X016293Y003971D01*
X016293Y003893D02*
X016373Y003893D01*
X016389Y003893D02*
X018174Y003893D01*
X018013Y003971D02*
X016611Y003971D01*
X016277Y003893D02*
X014493Y003893D01*
X014654Y003971D02*
X015225Y003971D01*
X015036Y004050D02*
X014732Y004050D01*
X014794Y004128D02*
X014956Y004128D01*
X014881Y004207D02*
X014827Y004207D01*
X015441Y003971D02*
X016056Y003971D01*
X015963Y004050D02*
X015631Y004050D01*
X015711Y004128D02*
X015901Y004128D01*
X015860Y004207D02*
X015785Y004207D01*
X015818Y004285D02*
X015835Y004285D01*
X015532Y004992D02*
X017196Y004992D01*
X017633Y004913D02*
X018187Y004913D01*
X018018Y004835D02*
X017720Y004835D01*
X017775Y004756D02*
X017940Y004756D01*
X017875Y004678D02*
X017812Y004678D01*
X017834Y004599D02*
X017842Y004599D01*
X017807Y004285D02*
X017796Y004285D01*
X017840Y004207D02*
X017750Y004207D01*
X017683Y004128D02*
X017872Y004128D01*
X017934Y004050D02*
X017573Y004050D01*
X018493Y003893D02*
X037824Y003893D01*
X037886Y003830D02*
X037664Y004053D01*
X037543Y004343D01*
X037543Y004657D01*
X037664Y004947D01*
X037886Y005170D01*
X038176Y005290D01*
X038490Y005290D01*
X038781Y005170D01*
X039003Y004947D01*
X039123Y004657D01*
X039123Y004343D01*
X039003Y004053D01*
X038781Y003830D01*
X038490Y003710D01*
X038176Y003710D01*
X037886Y003830D01*
X037925Y003814D02*
X012568Y003814D01*
X012624Y003893D02*
X014174Y003893D01*
X014013Y003971D02*
X013441Y003971D01*
X013631Y004050D02*
X013934Y004050D01*
X013872Y004128D02*
X013711Y004128D01*
X013785Y004207D02*
X013840Y004207D01*
X013225Y003971D02*
X012659Y003971D01*
X012678Y004050D02*
X013036Y004050D01*
X012956Y004128D02*
X012263Y004128D01*
X012263Y004160D02*
X012683Y004160D01*
X012672Y004228D01*
X012650Y004297D01*
X012617Y004361D01*
X012574Y004420D01*
X012523Y004471D01*
X012464Y004513D01*
X012400Y004546D01*
X012331Y004569D01*
X012263Y004579D01*
X012263Y004160D01*
X012263Y004207D02*
X012183Y004207D01*
X012183Y004160D02*
X012183Y004579D01*
X012116Y004569D01*
X012047Y004546D01*
X011982Y004513D01*
X011924Y004471D01*
X011872Y004420D01*
X011830Y004361D01*
X011797Y004297D01*
X011775Y004228D01*
X011764Y004160D01*
X012183Y004160D01*
X012183Y004128D02*
X010923Y004128D01*
X010923Y004050D02*
X011769Y004050D01*
X011788Y003971D02*
X010901Y003971D01*
X010869Y003893D02*
X011823Y003893D01*
X011879Y003814D02*
X010816Y003814D01*
X010738Y003736D02*
X011970Y003736D01*
X012477Y003736D02*
X038115Y003736D01*
X038552Y003736D02*
X039133Y003736D01*
X039133Y003814D02*
X038741Y003814D01*
X038843Y003893D02*
X039133Y003893D01*
X039133Y003971D02*
X038921Y003971D01*
X039000Y004050D02*
X039133Y004050D01*
X039178Y004128D02*
X039034Y004128D01*
X039067Y004207D02*
X039257Y004207D01*
X039335Y004285D02*
X039099Y004285D01*
X039123Y004364D02*
X039414Y004364D01*
X039492Y004442D02*
X039123Y004442D01*
X039123Y004521D02*
X039571Y004521D01*
X039649Y004599D02*
X039123Y004599D01*
X039115Y004678D02*
X039728Y004678D01*
X039806Y004756D02*
X039082Y004756D01*
X039050Y004835D02*
X039885Y004835D01*
X039963Y004913D02*
X039017Y004913D01*
X038959Y004992D02*
X040042Y004992D01*
X040120Y005070D02*
X038880Y005070D01*
X038802Y005149D02*
X040133Y005149D01*
X040133Y005227D02*
X038642Y005227D01*
X038024Y005227D02*
X014903Y005227D01*
X014825Y005306D02*
X040133Y005306D01*
X040133Y005384D02*
X014746Y005384D01*
X014668Y005463D02*
X040133Y005463D01*
X040133Y005541D02*
X014589Y005541D01*
X014511Y005620D02*
X040133Y005620D01*
X040133Y005698D02*
X014432Y005698D01*
X014982Y005149D02*
X037865Y005149D01*
X037786Y005070D02*
X035463Y005070D01*
X035439Y005080D02*
X035228Y005080D01*
X035033Y004999D01*
X034884Y004850D01*
X034813Y004678D01*
X034783Y004750D01*
X034634Y004899D01*
X034439Y004980D01*
X034228Y004980D01*
X034033Y004899D01*
X033884Y004750D01*
X033854Y004678D01*
X033783Y004850D01*
X033634Y004999D01*
X033439Y005080D01*
X033228Y005080D01*
X033033Y004999D01*
X032884Y004850D01*
X032813Y004678D01*
X032783Y004750D01*
X032634Y004899D01*
X032439Y004980D01*
X032228Y004980D01*
X032033Y004899D01*
X031884Y004750D01*
X031854Y004678D01*
X031783Y004850D01*
X031634Y004999D01*
X031439Y005080D01*
X031228Y005080D01*
X031033Y004999D01*
X030884Y004850D01*
X030813Y004678D01*
X030783Y004750D01*
X030634Y004899D01*
X030439Y004980D01*
X030228Y004980D01*
X030033Y004899D01*
X029884Y004750D01*
X029863Y004700D01*
X029863Y004986D01*
X029770Y005080D01*
X028897Y005080D01*
X028803Y004986D01*
X028803Y004114D01*
X028897Y004020D01*
X029770Y004020D01*
X029863Y004114D01*
X029863Y004200D01*
X029884Y004150D01*
X030033Y004001D01*
X030228Y003920D01*
X030439Y003920D01*
X030634Y004001D01*
X030783Y004150D01*
X030854Y004322D01*
X030884Y004250D01*
X031033Y004101D01*
X031228Y004020D01*
X031439Y004020D01*
X031634Y004101D01*
X031783Y004250D01*
X031813Y004322D01*
X031884Y004150D01*
X032033Y004001D01*
X032228Y003920D01*
X032439Y003920D01*
X032634Y004001D01*
X032783Y004150D01*
X032854Y004322D01*
X032884Y004250D01*
X033033Y004101D01*
X033228Y004020D01*
X033439Y004020D01*
X033634Y004101D01*
X033783Y004250D01*
X033813Y004322D01*
X033884Y004150D01*
X034033Y004001D01*
X034228Y003920D01*
X034439Y003920D01*
X034634Y004001D01*
X034783Y004150D01*
X034854Y004322D01*
X034884Y004250D01*
X035033Y004101D01*
X035228Y004020D01*
X035439Y004020D01*
X035634Y004101D01*
X035783Y004250D01*
X035813Y004322D01*
X035884Y004150D01*
X036033Y004001D01*
X036228Y003920D01*
X036439Y003920D01*
X036634Y004001D01*
X036783Y004150D01*
X036863Y004345D01*
X036863Y004555D01*
X036783Y004750D01*
X036634Y004899D01*
X036439Y004980D01*
X036228Y004980D01*
X036033Y004899D01*
X035884Y004750D01*
X035854Y004678D01*
X035783Y004850D01*
X035634Y004999D01*
X035439Y005080D01*
X035641Y004992D02*
X037708Y004992D01*
X037649Y004913D02*
X036600Y004913D01*
X036698Y004835D02*
X037617Y004835D01*
X037584Y004756D02*
X036777Y004756D01*
X036813Y004678D02*
X037552Y004678D01*
X037543Y004599D02*
X036845Y004599D01*
X036863Y004521D02*
X037543Y004521D01*
X037543Y004442D02*
X036863Y004442D01*
X036863Y004364D02*
X037543Y004364D01*
X037567Y004285D02*
X036839Y004285D01*
X036806Y004207D02*
X037600Y004207D01*
X037632Y004128D02*
X036761Y004128D01*
X036682Y004050D02*
X037667Y004050D01*
X037745Y003971D02*
X036562Y003971D01*
X036105Y003971D02*
X034562Y003971D01*
X034682Y004050D02*
X035157Y004050D01*
X035006Y004128D02*
X034761Y004128D01*
X034806Y004207D02*
X034927Y004207D01*
X034869Y004285D02*
X034839Y004285D01*
X035510Y004050D02*
X035984Y004050D01*
X035906Y004128D02*
X035661Y004128D01*
X035739Y004207D02*
X035861Y004207D01*
X035828Y004285D02*
X035797Y004285D01*
X035822Y004756D02*
X035890Y004756D01*
X035968Y004835D02*
X035789Y004835D01*
X035720Y004913D02*
X036066Y004913D01*
X035204Y005070D02*
X033463Y005070D01*
X033641Y004992D02*
X035025Y004992D01*
X034947Y004913D02*
X034600Y004913D01*
X034698Y004835D02*
X034878Y004835D01*
X034845Y004756D02*
X034777Y004756D01*
X034066Y004913D02*
X033720Y004913D01*
X033789Y004835D02*
X033968Y004835D01*
X033890Y004756D02*
X033822Y004756D01*
X033204Y005070D02*
X031463Y005070D01*
X031641Y004992D02*
X033025Y004992D01*
X032947Y004913D02*
X032600Y004913D01*
X032698Y004835D02*
X032878Y004835D01*
X032845Y004756D02*
X032777Y004756D01*
X032839Y004285D02*
X032869Y004285D01*
X032927Y004207D02*
X032806Y004207D01*
X032761Y004128D02*
X033006Y004128D01*
X033157Y004050D02*
X032682Y004050D01*
X032562Y003971D02*
X034105Y003971D01*
X033984Y004050D02*
X033510Y004050D01*
X033661Y004128D02*
X033906Y004128D01*
X033861Y004207D02*
X033739Y004207D01*
X033797Y004285D02*
X033828Y004285D01*
X032105Y003971D02*
X030562Y003971D01*
X030682Y004050D02*
X031157Y004050D01*
X031006Y004128D02*
X030761Y004128D01*
X030806Y004207D02*
X030927Y004207D01*
X030869Y004285D02*
X030839Y004285D01*
X030845Y004756D02*
X030777Y004756D01*
X030698Y004835D02*
X030878Y004835D01*
X030947Y004913D02*
X030600Y004913D01*
X031025Y004992D02*
X029858Y004992D01*
X029863Y004913D02*
X030066Y004913D01*
X029968Y004835D02*
X029863Y004835D01*
X029863Y004756D02*
X029890Y004756D01*
X029780Y005070D02*
X031204Y005070D01*
X031720Y004913D02*
X032066Y004913D01*
X031968Y004835D02*
X031789Y004835D01*
X031822Y004756D02*
X031890Y004756D01*
X031828Y004285D02*
X031797Y004285D01*
X031739Y004207D02*
X031861Y004207D01*
X031906Y004128D02*
X031661Y004128D01*
X031510Y004050D02*
X031984Y004050D01*
X030105Y003971D02*
X027562Y003971D01*
X027682Y004050D02*
X028868Y004050D01*
X028803Y004128D02*
X027761Y004128D01*
X027806Y004207D02*
X028803Y004207D01*
X028803Y004285D02*
X027839Y004285D01*
X027863Y004364D02*
X028803Y004364D01*
X028803Y004442D02*
X027863Y004442D01*
X027863Y004521D02*
X028803Y004521D01*
X028803Y004599D02*
X027845Y004599D01*
X027813Y004678D02*
X028803Y004678D01*
X028803Y004756D02*
X027777Y004756D01*
X027698Y004835D02*
X028803Y004835D01*
X028803Y004913D02*
X027600Y004913D01*
X027066Y004913D02*
X026720Y004913D01*
X026789Y004835D02*
X026968Y004835D01*
X026890Y004756D02*
X026822Y004756D01*
X026641Y004992D02*
X028809Y004992D01*
X028887Y005070D02*
X026463Y005070D01*
X026204Y005070D02*
X024463Y005070D01*
X024641Y004992D02*
X026025Y004992D01*
X025947Y004913D02*
X025600Y004913D01*
X025698Y004835D02*
X025878Y004835D01*
X025845Y004756D02*
X025777Y004756D01*
X025066Y004913D02*
X024720Y004913D01*
X024789Y004835D02*
X024968Y004835D01*
X024890Y004756D02*
X024822Y004756D01*
X024204Y005070D02*
X022463Y005070D01*
X022641Y004992D02*
X024025Y004992D01*
X023947Y004913D02*
X023600Y004913D01*
X023698Y004835D02*
X023878Y004835D01*
X023845Y004756D02*
X023777Y004756D01*
X023839Y004285D02*
X023869Y004285D01*
X023927Y004207D02*
X023806Y004207D01*
X023761Y004128D02*
X024006Y004128D01*
X024157Y004050D02*
X023682Y004050D01*
X023562Y003971D02*
X025105Y003971D01*
X024984Y004050D02*
X024510Y004050D01*
X024661Y004128D02*
X024906Y004128D01*
X024861Y004207D02*
X024739Y004207D01*
X024797Y004285D02*
X024828Y004285D01*
X025562Y003971D02*
X027105Y003971D01*
X026984Y004050D02*
X026510Y004050D01*
X026661Y004128D02*
X026906Y004128D01*
X026861Y004207D02*
X026739Y004207D01*
X026797Y004285D02*
X026828Y004285D01*
X026157Y004050D02*
X025682Y004050D01*
X025761Y004128D02*
X026006Y004128D01*
X025927Y004207D02*
X025806Y004207D01*
X025839Y004285D02*
X025869Y004285D01*
X023105Y003971D02*
X021562Y003971D01*
X021682Y004050D02*
X022157Y004050D01*
X022006Y004128D02*
X021761Y004128D01*
X021806Y004207D02*
X021927Y004207D01*
X021869Y004285D02*
X021839Y004285D01*
X021845Y004756D02*
X021777Y004756D01*
X021698Y004835D02*
X021878Y004835D01*
X021947Y004913D02*
X021600Y004913D01*
X022025Y004992D02*
X020858Y004992D01*
X020863Y004913D02*
X021066Y004913D01*
X020968Y004835D02*
X020863Y004835D01*
X020863Y004756D02*
X020890Y004756D01*
X020780Y005070D02*
X022204Y005070D01*
X022720Y004913D02*
X023066Y004913D01*
X022968Y004835D02*
X022789Y004835D01*
X022822Y004756D02*
X022890Y004756D01*
X022828Y004285D02*
X022797Y004285D01*
X022739Y004207D02*
X022861Y004207D01*
X022906Y004128D02*
X022661Y004128D01*
X022510Y004050D02*
X022984Y004050D01*
X021105Y003971D02*
X018654Y003971D01*
X018732Y004050D02*
X019868Y004050D01*
X019803Y004128D02*
X018794Y004128D01*
X018827Y004207D02*
X019803Y004207D01*
X019803Y004285D02*
X018859Y004285D01*
X018863Y004364D02*
X019803Y004364D01*
X019803Y004442D02*
X018863Y004442D01*
X018857Y004521D02*
X019803Y004521D01*
X019803Y004599D02*
X018825Y004599D01*
X018792Y004678D02*
X019803Y004678D01*
X019803Y004756D02*
X018727Y004756D01*
X018648Y004835D02*
X019803Y004835D01*
X019803Y004913D02*
X018480Y004913D01*
X020799Y004050D02*
X020984Y004050D01*
X020906Y004128D02*
X020863Y004128D01*
X021217Y007975D02*
X020450Y007975D01*
X020636Y008053D02*
X021031Y008053D01*
X020952Y008132D02*
X020714Y008132D01*
X020787Y008210D02*
X020880Y008210D01*
X020847Y008289D02*
X020819Y008289D01*
X020217Y007975D02*
X019450Y007975D01*
X019636Y008053D02*
X020031Y008053D01*
X019952Y008132D02*
X019714Y008132D01*
X019787Y008210D02*
X019880Y008210D01*
X019847Y008289D02*
X019819Y008289D01*
X019217Y007975D02*
X018450Y007975D01*
X018636Y008053D02*
X019031Y008053D01*
X018952Y008132D02*
X018714Y008132D01*
X018787Y008210D02*
X018880Y008210D01*
X018847Y008289D02*
X018819Y008289D01*
X018217Y007975D02*
X017450Y007975D01*
X017636Y008053D02*
X018031Y008053D01*
X017952Y008132D02*
X017714Y008132D01*
X017787Y008210D02*
X017880Y008210D01*
X017847Y008289D02*
X017819Y008289D01*
X017217Y007975D02*
X016450Y007975D01*
X016636Y008053D02*
X017031Y008053D01*
X016952Y008132D02*
X016714Y008132D01*
X016787Y008210D02*
X016880Y008210D01*
X016847Y008289D02*
X016819Y008289D01*
X016217Y007975D02*
X015450Y007975D01*
X015636Y008053D02*
X016031Y008053D01*
X015952Y008132D02*
X015714Y008132D01*
X015787Y008210D02*
X015880Y008210D01*
X015847Y008289D02*
X015819Y008289D01*
X015217Y007975D02*
X014450Y007975D01*
X014636Y008053D02*
X015031Y008053D01*
X014952Y008132D02*
X014714Y008132D01*
X014787Y008210D02*
X014880Y008210D01*
X014847Y008289D02*
X014819Y008289D01*
X014217Y007975D02*
X013450Y007975D01*
X013636Y008053D02*
X014031Y008053D01*
X013952Y008132D02*
X013714Y008132D01*
X013787Y008210D02*
X013880Y008210D01*
X013847Y008289D02*
X013819Y008289D01*
X013217Y007975D02*
X012450Y007975D01*
X012636Y008053D02*
X013031Y008053D01*
X012952Y008132D02*
X012714Y008132D01*
X012787Y008210D02*
X012880Y008210D01*
X012847Y008289D02*
X012819Y008289D01*
X012217Y007975D02*
X011450Y007975D01*
X011636Y008053D02*
X012031Y008053D01*
X011952Y008132D02*
X011714Y008132D01*
X011787Y008210D02*
X011880Y008210D01*
X011847Y008289D02*
X011819Y008289D01*
X011217Y007975D02*
X010450Y007975D01*
X010636Y008053D02*
X011031Y008053D01*
X010952Y008132D02*
X010714Y008132D01*
X010787Y008210D02*
X010880Y008210D01*
X010847Y008289D02*
X010819Y008289D01*
X010217Y007975D02*
X009573Y007975D01*
X009636Y008053D02*
X010031Y008053D01*
X009952Y008132D02*
X009714Y008132D01*
X009787Y008210D02*
X009880Y008210D01*
X009847Y008289D02*
X009819Y008289D01*
X009031Y008053D02*
X008636Y008053D01*
X008714Y008132D02*
X008952Y008132D01*
X008880Y008210D02*
X008787Y008210D01*
X008819Y008289D02*
X008847Y008289D01*
X009094Y007975D02*
X008450Y007975D01*
X008217Y007975D02*
X007450Y007975D01*
X007636Y008053D02*
X008031Y008053D01*
X007952Y008132D02*
X007714Y008132D01*
X007787Y008210D02*
X007880Y008210D01*
X007847Y008289D02*
X007819Y008289D01*
X007217Y007975D02*
X006573Y007975D01*
X006636Y008053D02*
X007031Y008053D01*
X006952Y008132D02*
X006714Y008132D01*
X006787Y008210D02*
X006880Y008210D01*
X006847Y008289D02*
X006819Y008289D01*
X006687Y007896D02*
X008980Y007896D01*
X008901Y007818D02*
X006765Y007818D01*
X006808Y007739D02*
X008859Y007739D01*
X008826Y007661D02*
X006841Y007661D01*
X006863Y007582D02*
X008803Y007582D01*
X008803Y007504D02*
X006863Y007504D01*
X006863Y007425D02*
X008803Y007425D01*
X008823Y007347D02*
X006843Y007347D01*
X006811Y007268D02*
X008856Y007268D01*
X008894Y007190D02*
X006772Y007190D01*
X006694Y007111D02*
X008973Y007111D01*
X009841Y007661D02*
X036776Y007661D01*
X036809Y007739D02*
X009808Y007739D01*
X009765Y007818D02*
X036851Y007818D01*
X036930Y007896D02*
X009687Y007896D01*
X010061Y006091D02*
X036959Y006091D01*
X037115Y006012D02*
X010136Y006012D01*
X010210Y005934D02*
X040133Y005934D01*
X040133Y006012D02*
X038552Y006012D01*
X038443Y006012D02*
X038363Y006012D01*
X038363Y006091D02*
X038443Y006091D01*
X038443Y006169D02*
X038363Y006169D01*
X038363Y006248D02*
X038443Y006248D01*
X038443Y006326D02*
X038363Y006326D01*
X038255Y006012D02*
X037412Y006012D01*
X037303Y006012D02*
X037223Y006012D01*
X037223Y006091D02*
X037303Y006091D01*
X037303Y006169D02*
X037223Y006169D01*
X037223Y006248D02*
X037303Y006248D01*
X037303Y006326D02*
X037223Y006326D01*
X037567Y006091D02*
X038099Y006091D01*
X038013Y006169D02*
X037653Y006169D01*
X037707Y006248D02*
X037960Y006248D01*
X037924Y006326D02*
X037743Y006326D01*
X037765Y006405D02*
X037902Y006405D01*
X037893Y006540D02*
X037893Y006540D01*
X037897Y006562D02*
X037770Y006562D01*
X037754Y006640D02*
X037913Y006640D01*
X037942Y006719D02*
X037724Y006719D01*
X037678Y006797D02*
X037989Y006797D01*
X038058Y006876D02*
X037609Y006876D01*
X037496Y006954D02*
X038171Y006954D01*
X038027Y007033D02*
X037540Y007033D01*
X037644Y007111D02*
X037923Y007111D01*
X037844Y007190D02*
X037722Y007190D01*
X037761Y007268D02*
X037806Y007268D01*
X037044Y007975D02*
X034450Y007975D01*
X034636Y008053D02*
X037081Y008053D01*
X037002Y008132D02*
X034714Y008132D01*
X034787Y008210D02*
X036930Y008210D01*
X036897Y008289D02*
X034819Y008289D01*
X034852Y008367D02*
X036865Y008367D01*
X036853Y008446D02*
X034863Y008446D01*
X034863Y008524D02*
X036853Y008524D01*
X036853Y008603D02*
X034863Y008603D01*
X034832Y008681D02*
X036885Y008681D01*
X036917Y008760D02*
X034800Y008760D01*
X034745Y008838D02*
X036972Y008838D01*
X037050Y008917D02*
X034666Y008917D01*
X034653Y008995D02*
X037118Y008995D01*
X036960Y009074D02*
X034656Y009074D01*
X034735Y009152D02*
X036882Y009152D01*
X036821Y009231D02*
X034795Y009231D01*
X034828Y009309D02*
X036789Y009309D01*
X036756Y009388D02*
X034860Y009388D01*
X034863Y009466D02*
X036753Y009466D01*
X036753Y009545D02*
X034863Y009545D01*
X034856Y009623D02*
X036761Y009623D01*
X036793Y009702D02*
X034824Y009702D01*
X034791Y009780D02*
X036826Y009780D01*
X036892Y009859D02*
X034724Y009859D01*
X034653Y009937D02*
X036971Y009937D01*
X037040Y010094D02*
X034677Y010094D01*
X034653Y010016D02*
X037143Y010016D01*
X036961Y010173D02*
X034755Y010173D01*
X034804Y010251D02*
X036913Y010251D01*
X036880Y010330D02*
X034836Y010330D01*
X034863Y010408D02*
X036853Y010408D01*
X036853Y010487D02*
X034863Y010487D01*
X034863Y010565D02*
X036853Y010565D01*
X036869Y010644D02*
X034848Y010644D01*
X034815Y010722D02*
X036902Y010722D01*
X036934Y010801D02*
X034782Y010801D01*
X034704Y010879D02*
X037013Y010879D01*
X037103Y010958D02*
X034653Y010958D01*
X034653Y011036D02*
X037019Y011036D01*
X036919Y011115D02*
X034697Y011115D01*
X034776Y011193D02*
X036841Y011193D01*
X036804Y011272D02*
X034812Y011272D01*
X034845Y011350D02*
X036772Y011350D01*
X036753Y011429D02*
X034863Y011429D01*
X034863Y011507D02*
X036753Y011507D01*
X036753Y011586D02*
X034863Y011586D01*
X034839Y011664D02*
X036778Y011664D01*
X036810Y011743D02*
X034807Y011743D01*
X034762Y011821D02*
X036855Y011821D01*
X036933Y011900D02*
X034683Y011900D01*
X034564Y011978D02*
X037052Y011978D01*
X037077Y012057D02*
X009639Y012057D01*
X009564Y011978D02*
X010102Y011978D01*
X009983Y011900D02*
X009683Y011900D01*
X009762Y011821D02*
X009905Y011821D01*
X009860Y011743D02*
X009807Y011743D01*
X009718Y012135D02*
X036999Y012135D01*
X036928Y012214D02*
X009788Y012214D01*
X009821Y012292D02*
X036896Y012292D01*
X036863Y012371D02*
X009853Y012371D01*
X009863Y012449D02*
X036853Y012449D01*
X036853Y012528D02*
X009863Y012528D01*
X009863Y012606D02*
X036854Y012606D01*
X036886Y012685D02*
X009831Y012685D01*
X009798Y012763D02*
X036919Y012763D01*
X036975Y012842D02*
X009741Y012842D01*
X009663Y012920D02*
X037054Y012920D01*
X037109Y012999D02*
X009515Y012999D01*
X009660Y013077D02*
X036957Y013077D01*
X036878Y013156D02*
X009738Y013156D01*
X009797Y013234D02*
X036820Y013234D01*
X036787Y013313D02*
X009829Y013313D01*
X009862Y013391D02*
X036755Y013391D01*
X036753Y013470D02*
X009863Y013470D01*
X009863Y013548D02*
X036753Y013548D01*
X036762Y013627D02*
X009855Y013627D01*
X009822Y013705D02*
X036795Y013705D01*
X036827Y013784D02*
X009790Y013784D01*
X009721Y013862D02*
X036896Y013862D01*
X036974Y013941D02*
X009642Y013941D01*
X009557Y014019D02*
X010110Y014019D01*
X009986Y014098D02*
X009680Y014098D01*
X009759Y014176D02*
X009908Y014176D01*
X009861Y014255D02*
X009805Y014255D01*
X010557Y014019D02*
X011110Y014019D01*
X010986Y014098D02*
X010680Y014098D01*
X010759Y014176D02*
X010908Y014176D01*
X010861Y014255D02*
X010805Y014255D01*
X011557Y014019D02*
X012110Y014019D01*
X011986Y014098D02*
X011680Y014098D01*
X011759Y014176D02*
X011908Y014176D01*
X011861Y014255D02*
X011805Y014255D01*
X012557Y014019D02*
X013110Y014019D01*
X012986Y014098D02*
X012680Y014098D01*
X012759Y014176D02*
X012908Y014176D01*
X012861Y014255D02*
X012805Y014255D01*
X013557Y014019D02*
X014110Y014019D01*
X013986Y014098D02*
X013680Y014098D01*
X013759Y014176D02*
X013908Y014176D01*
X013861Y014255D02*
X013805Y014255D01*
X014557Y014019D02*
X015110Y014019D01*
X014986Y014098D02*
X014680Y014098D01*
X014759Y014176D02*
X014908Y014176D01*
X014861Y014255D02*
X014805Y014255D01*
X015557Y014019D02*
X016110Y014019D01*
X015986Y014098D02*
X015680Y014098D01*
X015759Y014176D02*
X015908Y014176D01*
X015861Y014255D02*
X015805Y014255D01*
X016557Y014019D02*
X017110Y014019D01*
X016986Y014098D02*
X016680Y014098D01*
X016759Y014176D02*
X016908Y014176D01*
X016861Y014255D02*
X016805Y014255D01*
X017557Y014019D02*
X018110Y014019D01*
X017986Y014098D02*
X017680Y014098D01*
X017759Y014176D02*
X017908Y014176D01*
X017861Y014255D02*
X017805Y014255D01*
X018557Y014019D02*
X019110Y014019D01*
X018986Y014098D02*
X018680Y014098D01*
X018759Y014176D02*
X018908Y014176D01*
X018861Y014255D02*
X018805Y014255D01*
X019557Y014019D02*
X020110Y014019D01*
X019986Y014098D02*
X019680Y014098D01*
X019759Y014176D02*
X019908Y014176D01*
X019861Y014255D02*
X019805Y014255D01*
X020557Y014019D02*
X021110Y014019D01*
X020986Y014098D02*
X020680Y014098D01*
X020759Y014176D02*
X020908Y014176D01*
X020861Y014255D02*
X020805Y014255D01*
X021557Y014019D02*
X022110Y014019D01*
X021986Y014098D02*
X021680Y014098D01*
X021759Y014176D02*
X021908Y014176D01*
X021861Y014255D02*
X021805Y014255D01*
X022557Y014019D02*
X023110Y014019D01*
X022986Y014098D02*
X022680Y014098D01*
X022759Y014176D02*
X022908Y014176D01*
X022861Y014255D02*
X022805Y014255D01*
X023557Y014019D02*
X024110Y014019D01*
X023986Y014098D02*
X023680Y014098D01*
X023759Y014176D02*
X023908Y014176D01*
X023861Y014255D02*
X023805Y014255D01*
X024557Y014019D02*
X025110Y014019D01*
X024986Y014098D02*
X024680Y014098D01*
X024759Y014176D02*
X024908Y014176D01*
X024861Y014255D02*
X024805Y014255D01*
X025557Y014019D02*
X026110Y014019D01*
X025986Y014098D02*
X025680Y014098D01*
X025759Y014176D02*
X025908Y014176D01*
X025861Y014255D02*
X025805Y014255D01*
X026557Y014019D02*
X027110Y014019D01*
X026986Y014098D02*
X026680Y014098D01*
X026759Y014176D02*
X026908Y014176D01*
X026861Y014255D02*
X026805Y014255D01*
X027557Y014019D02*
X028110Y014019D01*
X027986Y014098D02*
X027680Y014098D01*
X027759Y014176D02*
X027908Y014176D01*
X027861Y014255D02*
X027805Y014255D01*
X028557Y014019D02*
X029110Y014019D01*
X028986Y014098D02*
X028680Y014098D01*
X028759Y014176D02*
X028908Y014176D01*
X028861Y014255D02*
X028805Y014255D01*
X029557Y014019D02*
X030110Y014019D01*
X029986Y014098D02*
X029680Y014098D01*
X029759Y014176D02*
X029908Y014176D01*
X029861Y014255D02*
X029805Y014255D01*
X030557Y014019D02*
X031110Y014019D01*
X030986Y014098D02*
X030680Y014098D01*
X030759Y014176D02*
X030908Y014176D01*
X030861Y014255D02*
X030805Y014255D01*
X031557Y014019D02*
X032110Y014019D01*
X031986Y014098D02*
X031680Y014098D01*
X031759Y014176D02*
X031908Y014176D01*
X031861Y014255D02*
X031805Y014255D01*
X032557Y014019D02*
X033110Y014019D01*
X032986Y014098D02*
X032680Y014098D01*
X032759Y014176D02*
X032908Y014176D01*
X032861Y014255D02*
X032805Y014255D01*
X033557Y014019D02*
X034110Y014019D01*
X033986Y014098D02*
X033680Y014098D01*
X033759Y014176D02*
X033908Y014176D01*
X033861Y014255D02*
X033805Y014255D01*
X034557Y014019D02*
X037151Y014019D01*
X037036Y014098D02*
X034680Y014098D01*
X034759Y014176D02*
X036958Y014176D01*
X036911Y014255D02*
X034805Y014255D01*
X034838Y014333D02*
X036879Y014333D01*
X036853Y014412D02*
X034863Y014412D01*
X034863Y014490D02*
X036853Y014490D01*
X036853Y014569D02*
X034863Y014569D01*
X034846Y014647D02*
X036871Y014647D01*
X036903Y014726D02*
X034814Y014726D01*
X034779Y014804D02*
X036938Y014804D01*
X037016Y014883D02*
X034700Y014883D01*
X034653Y014961D02*
X037111Y014961D01*
X037010Y015040D02*
X034653Y015040D01*
X034701Y015118D02*
X036916Y015118D01*
X036837Y015197D02*
X034779Y015197D01*
X034814Y015275D02*
X036803Y015275D01*
X036770Y015354D02*
X034846Y015354D01*
X034863Y015432D02*
X036753Y015432D01*
X036753Y015511D02*
X034863Y015511D01*
X034863Y015589D02*
X036753Y015589D01*
X036779Y015668D02*
X034838Y015668D01*
X034805Y015746D02*
X036812Y015746D01*
X036858Y015825D02*
X034758Y015825D01*
X034680Y015903D02*
X036937Y015903D01*
X037061Y015982D02*
X034653Y015982D01*
X034653Y016060D02*
X037074Y016060D01*
X036995Y016139D02*
X034721Y016139D01*
X034790Y016217D02*
X036927Y016217D01*
X036894Y016296D02*
X034822Y016296D01*
X034855Y016374D02*
X036862Y016374D01*
X036853Y016453D02*
X034863Y016453D01*
X034863Y016531D02*
X036853Y016531D01*
X036855Y016610D02*
X034862Y016610D01*
X034829Y016688D02*
X036888Y016688D01*
X036920Y016767D02*
X034797Y016767D01*
X034738Y016845D02*
X036979Y016845D01*
X037057Y016924D02*
X034659Y016924D01*
X034653Y017002D02*
X037101Y017002D01*
X036953Y017081D02*
X034663Y017081D01*
X034742Y017159D02*
X036875Y017159D01*
X036818Y017238D02*
X034798Y017238D01*
X034831Y017316D02*
X036786Y017316D01*
X036753Y017395D02*
X034863Y017395D01*
X034863Y017473D02*
X036753Y017473D01*
X036753Y017552D02*
X034863Y017552D01*
X034853Y017630D02*
X036764Y017630D01*
X036796Y017709D02*
X034821Y017709D01*
X034788Y017787D02*
X036829Y017787D01*
X036899Y017866D02*
X034717Y017866D01*
X034639Y017944D02*
X036978Y017944D01*
X037033Y018101D02*
X032442Y018101D01*
X032457Y018023D02*
X033210Y018023D01*
X033028Y017944D02*
X032639Y017944D01*
X032717Y017866D02*
X032949Y017866D01*
X032879Y017787D02*
X032788Y017787D01*
X032821Y017709D02*
X032846Y017709D01*
X032593Y018180D02*
X036954Y018180D01*
X036910Y018258D02*
X032671Y018258D01*
X032750Y018337D02*
X036877Y018337D01*
X036853Y018395D02*
X036853Y018605D01*
X036934Y018800D01*
X037083Y018949D01*
X037155Y018979D01*
X036983Y019051D01*
X037002Y019043D02*
X033456Y019043D01*
X033378Y018965D02*
X037120Y018965D01*
X037020Y018886D02*
X033299Y018886D01*
X033221Y018808D02*
X036941Y018808D01*
X036905Y018729D02*
X033142Y018729D01*
X033064Y018651D02*
X036872Y018651D01*
X036853Y018572D02*
X032985Y018572D01*
X032907Y018494D02*
X036853Y018494D01*
X037151Y018023D02*
X034457Y018023D01*
X034210Y018023D02*
X033457Y018023D01*
X033639Y017944D02*
X034028Y017944D01*
X033949Y017866D02*
X033717Y017866D01*
X033788Y017787D02*
X033879Y017787D01*
X033846Y017709D02*
X033821Y017709D01*
X032210Y018023D02*
X031457Y018023D01*
X031639Y017944D02*
X032028Y017944D01*
X031949Y017866D02*
X031717Y017866D01*
X031788Y017787D02*
X031879Y017787D01*
X031846Y017709D02*
X031821Y017709D01*
X031210Y018023D02*
X030566Y018023D01*
X030639Y017944D02*
X031028Y017944D01*
X030949Y017866D02*
X030717Y017866D01*
X030788Y017787D02*
X030879Y017787D01*
X030846Y017709D02*
X030821Y017709D01*
X038517Y015982D02*
X040133Y015982D01*
X034102Y011978D02*
X033564Y011978D01*
X033683Y011900D02*
X033983Y011900D01*
X033905Y011821D02*
X033762Y011821D01*
X033807Y011743D02*
X033860Y011743D01*
X033102Y011978D02*
X032564Y011978D01*
X032683Y011900D02*
X032983Y011900D01*
X032905Y011821D02*
X032762Y011821D01*
X032807Y011743D02*
X032860Y011743D01*
X032102Y011978D02*
X031564Y011978D01*
X031683Y011900D02*
X031983Y011900D01*
X031905Y011821D02*
X031762Y011821D01*
X031807Y011743D02*
X031860Y011743D01*
X031102Y011978D02*
X030564Y011978D01*
X030683Y011900D02*
X030983Y011900D01*
X030905Y011821D02*
X030762Y011821D01*
X030807Y011743D02*
X030860Y011743D01*
X030102Y011978D02*
X029564Y011978D01*
X029683Y011900D02*
X029983Y011900D01*
X029905Y011821D02*
X029762Y011821D01*
X029807Y011743D02*
X029860Y011743D01*
X029102Y011978D02*
X028564Y011978D01*
X028683Y011900D02*
X028983Y011900D01*
X028905Y011821D02*
X028762Y011821D01*
X028807Y011743D02*
X028860Y011743D01*
X028102Y011978D02*
X027564Y011978D01*
X027683Y011900D02*
X027983Y011900D01*
X027905Y011821D02*
X027762Y011821D01*
X027807Y011743D02*
X027860Y011743D01*
X027102Y011978D02*
X026564Y011978D01*
X026683Y011900D02*
X026983Y011900D01*
X026905Y011821D02*
X026762Y011821D01*
X026807Y011743D02*
X026860Y011743D01*
X026102Y011978D02*
X025564Y011978D01*
X025683Y011900D02*
X025983Y011900D01*
X025905Y011821D02*
X025762Y011821D01*
X025807Y011743D02*
X025860Y011743D01*
X025102Y011978D02*
X024564Y011978D01*
X024683Y011900D02*
X024983Y011900D01*
X024905Y011821D02*
X024762Y011821D01*
X024807Y011743D02*
X024860Y011743D01*
X024102Y011978D02*
X023564Y011978D01*
X023683Y011900D02*
X023983Y011900D01*
X023905Y011821D02*
X023762Y011821D01*
X023807Y011743D02*
X023860Y011743D01*
X023102Y011978D02*
X022564Y011978D01*
X022683Y011900D02*
X022983Y011900D01*
X022905Y011821D02*
X022762Y011821D01*
X022807Y011743D02*
X022860Y011743D01*
X022102Y011978D02*
X021564Y011978D01*
X021683Y011900D02*
X021983Y011900D01*
X021905Y011821D02*
X021762Y011821D01*
X021807Y011743D02*
X021860Y011743D01*
X021102Y011978D02*
X020564Y011978D01*
X020683Y011900D02*
X020983Y011900D01*
X020905Y011821D02*
X020762Y011821D01*
X020807Y011743D02*
X020860Y011743D01*
X020102Y011978D02*
X019564Y011978D01*
X019683Y011900D02*
X019983Y011900D01*
X019905Y011821D02*
X019762Y011821D01*
X019807Y011743D02*
X019860Y011743D01*
X019102Y011978D02*
X018564Y011978D01*
X018683Y011900D02*
X018983Y011900D01*
X018905Y011821D02*
X018762Y011821D01*
X018807Y011743D02*
X018860Y011743D01*
X018102Y011978D02*
X017564Y011978D01*
X017683Y011900D02*
X017983Y011900D01*
X017905Y011821D02*
X017762Y011821D01*
X017807Y011743D02*
X017860Y011743D01*
X017102Y011978D02*
X016564Y011978D01*
X016683Y011900D02*
X016983Y011900D01*
X016905Y011821D02*
X016762Y011821D01*
X016807Y011743D02*
X016860Y011743D01*
X016102Y011978D02*
X015564Y011978D01*
X015683Y011900D02*
X015983Y011900D01*
X015905Y011821D02*
X015762Y011821D01*
X015807Y011743D02*
X015860Y011743D01*
X015102Y011978D02*
X014564Y011978D01*
X014683Y011900D02*
X014983Y011900D01*
X014905Y011821D02*
X014762Y011821D01*
X014807Y011743D02*
X014860Y011743D01*
X014102Y011978D02*
X013564Y011978D01*
X013683Y011900D02*
X013983Y011900D01*
X013905Y011821D02*
X013762Y011821D01*
X013807Y011743D02*
X013860Y011743D01*
X013102Y011978D02*
X012564Y011978D01*
X012683Y011900D02*
X012983Y011900D01*
X012905Y011821D02*
X012762Y011821D01*
X012807Y011743D02*
X012860Y011743D01*
X012102Y011978D02*
X011564Y011978D01*
X011683Y011900D02*
X011983Y011900D01*
X011905Y011821D02*
X011762Y011821D01*
X011807Y011743D02*
X011860Y011743D01*
X011102Y011978D02*
X010564Y011978D01*
X010683Y011900D02*
X010983Y011900D01*
X010905Y011821D02*
X010762Y011821D01*
X010807Y011743D02*
X010860Y011743D01*
X005856Y007268D02*
X005811Y007268D01*
X005772Y007190D02*
X005894Y007190D01*
X005973Y007111D02*
X005694Y007111D01*
X005590Y007033D02*
X006077Y007033D01*
X005077Y007033D02*
X004590Y007033D01*
X004694Y007111D02*
X004973Y007111D01*
X004894Y007190D02*
X004772Y007190D01*
X004811Y007268D02*
X004856Y007268D01*
X004077Y007033D02*
X003590Y007033D01*
X003694Y007111D02*
X003973Y007111D01*
X003894Y007190D02*
X003772Y007190D01*
X003811Y007268D02*
X003856Y007268D01*
X003077Y007033D02*
X002590Y007033D01*
X002694Y007111D02*
X002973Y007111D01*
X002894Y007190D02*
X002772Y007190D01*
X002811Y007268D02*
X002856Y007268D01*
X002077Y007033D02*
X001590Y007033D01*
X001694Y007111D02*
X001973Y007111D01*
X001894Y007190D02*
X001772Y007190D01*
X001811Y007268D02*
X001856Y007268D01*
X001482Y006012D02*
X004684Y006012D01*
X004728Y006030D02*
X004533Y005949D01*
X004384Y005800D01*
X004321Y005649D01*
X004306Y005696D01*
X004270Y005767D01*
X004222Y005832D01*
X004166Y005889D01*
X004101Y005936D01*
X004029Y005973D01*
X003953Y005997D01*
X003873Y006010D01*
X003873Y005540D01*
X003793Y005540D01*
X003793Y005460D01*
X003323Y005460D01*
X003323Y005460D01*
X003336Y005381D01*
X003361Y005304D01*
X003397Y005233D01*
X003444Y005168D01*
X003501Y005111D01*
X003566Y005064D01*
X003638Y005027D01*
X003714Y005003D01*
X003793Y004990D01*
X003793Y004990D01*
X003793Y005460D01*
X003873Y005460D01*
X003873Y004990D01*
X003873Y004990D01*
X003953Y005003D01*
X004029Y005027D01*
X004101Y005064D01*
X004166Y005111D01*
X004222Y005168D01*
X004270Y005233D01*
X004306Y005304D01*
X004321Y005351D01*
X004384Y005200D01*
X004533Y005051D01*
X004728Y004970D01*
X004939Y004970D01*
X005134Y005051D01*
X005283Y005200D01*
X005363Y005395D01*
X005363Y005605D01*
X005283Y005800D01*
X005134Y005949D01*
X004939Y006030D01*
X004728Y006030D01*
X004517Y005934D02*
X004104Y005934D01*
X004200Y005855D02*
X004439Y005855D01*
X004374Y005777D02*
X004263Y005777D01*
X004305Y005698D02*
X004342Y005698D01*
X004340Y005306D02*
X004306Y005306D01*
X004265Y005227D02*
X004373Y005227D01*
X004435Y005149D02*
X004203Y005149D01*
X004109Y005070D02*
X004514Y005070D01*
X004676Y004992D02*
X003883Y004992D01*
X003873Y004992D02*
X003793Y004992D01*
X003784Y004992D02*
X002383Y004992D01*
X002373Y004992D02*
X002293Y004992D01*
X002284Y004992D02*
X001491Y004992D01*
X001653Y005070D02*
X002058Y005070D01*
X001964Y005149D02*
X001731Y005149D01*
X001794Y005227D02*
X001901Y005227D01*
X001860Y005306D02*
X001826Y005306D01*
X001825Y005698D02*
X001862Y005698D01*
X001904Y005777D02*
X001792Y005777D01*
X001728Y005855D02*
X001967Y005855D01*
X002062Y005934D02*
X001649Y005934D01*
X002293Y005934D02*
X002373Y005934D01*
X002373Y006010D02*
X002373Y005540D01*
X002843Y005540D01*
X002843Y005540D01*
X002831Y005619D01*
X002806Y005696D01*
X002770Y005767D01*
X002722Y005832D01*
X002666Y005889D01*
X002601Y005936D01*
X002529Y005973D01*
X002453Y005997D01*
X002373Y006010D01*
X002373Y006010D01*
X002293Y006010D02*
X002293Y006010D01*
X002293Y005855D02*
X002373Y005855D01*
X002373Y005777D02*
X002293Y005777D01*
X002293Y005698D02*
X002373Y005698D01*
X002373Y005620D02*
X002293Y005620D01*
X002293Y005541D02*
X002373Y005541D01*
X002373Y005463D02*
X003793Y005463D01*
X003793Y005540D02*
X003323Y005540D01*
X003323Y005540D01*
X003336Y005619D01*
X003361Y005696D01*
X003397Y005767D01*
X003444Y005832D01*
X003501Y005889D01*
X003566Y005936D01*
X003638Y005973D01*
X003714Y005997D01*
X003793Y006010D01*
X003793Y006010D01*
X003793Y005540D01*
X003793Y005541D02*
X003873Y005541D01*
X003873Y005620D02*
X003793Y005620D01*
X003793Y005698D02*
X003873Y005698D01*
X003873Y005777D02*
X003793Y005777D01*
X003793Y005855D02*
X003873Y005855D01*
X003873Y005934D02*
X003793Y005934D01*
X003873Y006010D02*
X003873Y006010D01*
X003562Y005934D02*
X002604Y005934D01*
X002700Y005855D02*
X003467Y005855D01*
X003404Y005777D02*
X002763Y005777D01*
X002805Y005698D02*
X003362Y005698D01*
X003336Y005620D02*
X002831Y005620D01*
X002843Y005541D02*
X003323Y005541D01*
X003335Y005384D02*
X002831Y005384D01*
X002843Y005460D02*
X002843Y005460D01*
X002806Y005306D02*
X003360Y005306D01*
X003401Y005227D02*
X002765Y005227D01*
X002703Y005149D02*
X003464Y005149D01*
X003558Y005070D02*
X002609Y005070D01*
X002373Y005070D02*
X002293Y005070D01*
X002293Y005149D02*
X002373Y005149D01*
X002373Y005227D02*
X002293Y005227D01*
X002293Y005306D02*
X002373Y005306D01*
X002373Y005384D02*
X002293Y005384D01*
X003793Y005384D02*
X003873Y005384D01*
X003873Y005306D02*
X003793Y005306D01*
X003793Y005227D02*
X003873Y005227D01*
X003873Y005149D02*
X003793Y005149D01*
X003793Y005070D02*
X003873Y005070D01*
X004991Y004992D02*
X005708Y004992D01*
X005786Y005070D02*
X005153Y005070D01*
X005231Y005149D02*
X005865Y005149D01*
X006007Y005227D02*
X005294Y005227D01*
X005326Y005306D02*
X005928Y005306D01*
X005870Y005384D02*
X005359Y005384D01*
X005363Y005463D02*
X005837Y005463D01*
X005805Y005541D02*
X005363Y005541D01*
X005357Y005620D02*
X005803Y005620D01*
X005803Y005698D02*
X005325Y005698D01*
X005292Y005777D02*
X005812Y005777D01*
X005845Y005855D02*
X005228Y005855D01*
X005149Y005934D02*
X005877Y005934D01*
X005946Y006012D02*
X004982Y006012D01*
X006959Y004992D02*
X013135Y004992D01*
X012997Y004913D02*
X007017Y004913D01*
X007050Y004835D02*
X012918Y004835D01*
X012866Y004756D02*
X007082Y004756D01*
X007115Y004678D02*
X012833Y004678D01*
X012803Y004599D02*
X010541Y004599D01*
X010345Y004599D02*
X007123Y004599D01*
X007123Y004521D02*
X010165Y004521D01*
X010087Y004442D02*
X007123Y004442D01*
X007123Y004364D02*
X010025Y004364D01*
X009992Y004285D02*
X007099Y004285D01*
X007067Y004207D02*
X009963Y004207D01*
X009963Y004128D02*
X007034Y004128D01*
X007000Y004050D02*
X009963Y004050D01*
X009986Y003971D02*
X006921Y003971D01*
X006843Y003893D02*
X010018Y003893D01*
X010071Y003814D02*
X006741Y003814D01*
X006552Y003736D02*
X010149Y003736D01*
X010923Y004207D02*
X011771Y004207D01*
X011793Y004285D02*
X010895Y004285D01*
X010862Y004364D02*
X011832Y004364D01*
X011895Y004442D02*
X010800Y004442D01*
X010722Y004521D02*
X011996Y004521D01*
X012183Y004521D02*
X012263Y004521D01*
X012263Y004442D02*
X012183Y004442D01*
X012183Y004364D02*
X012263Y004364D01*
X012263Y004285D02*
X012183Y004285D01*
X012451Y004521D02*
X012803Y004521D01*
X012803Y004442D02*
X012552Y004442D01*
X012615Y004364D02*
X012816Y004364D01*
X012849Y004285D02*
X012653Y004285D01*
X012675Y004207D02*
X012881Y004207D01*
X010229Y005306D02*
X009738Y005306D01*
X009797Y005384D02*
X010152Y005384D01*
X010079Y005463D02*
X009829Y005463D01*
X009862Y005541D02*
X010004Y005541D01*
X009930Y005620D02*
X009863Y005620D01*
X010285Y005855D02*
X040133Y005855D01*
X040133Y005777D02*
X010360Y005777D01*
X002118Y010016D02*
X001474Y010016D01*
X001646Y009937D02*
X002021Y009937D01*
X001942Y009859D02*
X001724Y009859D01*
X001791Y009780D02*
X001876Y009780D01*
X001843Y009702D02*
X001824Y009702D01*
X001143Y008995D02*
X000533Y008995D01*
X021450Y007975D02*
X022217Y007975D01*
X022031Y008053D02*
X021636Y008053D01*
X021714Y008132D02*
X021952Y008132D01*
X021880Y008210D02*
X021787Y008210D01*
X021819Y008289D02*
X021847Y008289D01*
X022450Y007975D02*
X023217Y007975D01*
X023031Y008053D02*
X022636Y008053D01*
X022714Y008132D02*
X022952Y008132D01*
X022880Y008210D02*
X022787Y008210D01*
X022819Y008289D02*
X022847Y008289D01*
X023636Y008053D02*
X024031Y008053D01*
X023952Y008132D02*
X023714Y008132D01*
X023787Y008210D02*
X023880Y008210D01*
X023847Y008289D02*
X023819Y008289D01*
X023450Y007975D02*
X024217Y007975D01*
X024450Y007975D02*
X025217Y007975D01*
X025031Y008053D02*
X024636Y008053D01*
X024714Y008132D02*
X024952Y008132D01*
X024880Y008210D02*
X024787Y008210D01*
X024819Y008289D02*
X024847Y008289D01*
X025450Y007975D02*
X026217Y007975D01*
X026031Y008053D02*
X025636Y008053D01*
X025714Y008132D02*
X025952Y008132D01*
X025880Y008210D02*
X025787Y008210D01*
X025819Y008289D02*
X025847Y008289D01*
X026636Y008053D02*
X027031Y008053D01*
X026952Y008132D02*
X026714Y008132D01*
X026787Y008210D02*
X026880Y008210D01*
X026847Y008289D02*
X026819Y008289D01*
X026450Y007975D02*
X027217Y007975D01*
X027450Y007975D02*
X028217Y007975D01*
X028031Y008053D02*
X027636Y008053D01*
X027714Y008132D02*
X027952Y008132D01*
X027880Y008210D02*
X027787Y008210D01*
X027819Y008289D02*
X027847Y008289D01*
X028450Y007975D02*
X029217Y007975D01*
X029031Y008053D02*
X028636Y008053D01*
X028714Y008132D02*
X028952Y008132D01*
X028880Y008210D02*
X028787Y008210D01*
X028819Y008289D02*
X028847Y008289D01*
X029636Y008053D02*
X030031Y008053D01*
X029952Y008132D02*
X029714Y008132D01*
X029787Y008210D02*
X029880Y008210D01*
X029847Y008289D02*
X029819Y008289D01*
X029450Y007975D02*
X030217Y007975D01*
X030450Y007975D02*
X031217Y007975D01*
X031031Y008053D02*
X030636Y008053D01*
X030714Y008132D02*
X030952Y008132D01*
X030880Y008210D02*
X030787Y008210D01*
X030819Y008289D02*
X030847Y008289D01*
X031450Y007975D02*
X032217Y007975D01*
X032031Y008053D02*
X031636Y008053D01*
X031714Y008132D02*
X031952Y008132D01*
X031880Y008210D02*
X031787Y008210D01*
X031819Y008289D02*
X031847Y008289D01*
X032636Y008053D02*
X033031Y008053D01*
X032952Y008132D02*
X032714Y008132D01*
X032787Y008210D02*
X032880Y008210D01*
X032847Y008289D02*
X032819Y008289D01*
X032450Y007975D02*
X033217Y007975D01*
X033450Y007975D02*
X034217Y007975D01*
X034031Y008053D02*
X033636Y008053D01*
X033714Y008132D02*
X033952Y008132D01*
X033880Y008210D02*
X033787Y008210D01*
X033819Y008289D02*
X033847Y008289D01*
X037773Y006460D02*
X037773Y006460D01*
X038707Y006091D02*
X040133Y006091D01*
X040133Y006169D02*
X038793Y006169D01*
X038847Y006248D02*
X040133Y006248D01*
X040133Y006326D02*
X038883Y006326D01*
X029984Y004050D02*
X029799Y004050D01*
X029863Y004128D02*
X029906Y004128D01*
X007959Y023125D02*
X007033Y023125D01*
X007066Y023204D02*
X007882Y023204D01*
X007850Y023282D02*
X007098Y023282D01*
X007123Y023361D02*
X007817Y023361D01*
X007803Y023439D02*
X007123Y023439D01*
X007123Y023518D02*
X007803Y023518D01*
X007803Y023596D02*
X007123Y023596D01*
X007116Y023675D02*
X007832Y023675D01*
X007864Y023753D02*
X007084Y023753D01*
X007051Y023832D02*
X007915Y023832D01*
X007994Y023910D02*
X007018Y023910D01*
X006962Y023989D02*
X008128Y023989D01*
X006649Y024224D02*
X035517Y024224D01*
X006017Y024224D02*
X000533Y024224D01*
X000533Y024146D02*
X005862Y024146D01*
X004128Y023989D02*
X003539Y023989D01*
X003673Y023910D02*
X003994Y023910D01*
X003915Y023832D02*
X003751Y023832D01*
X003802Y023753D02*
X003864Y023753D01*
X003128Y023989D02*
X002539Y023989D01*
X002673Y023910D02*
X002994Y023910D01*
X002915Y023832D02*
X002751Y023832D01*
X002802Y023753D02*
X002864Y023753D01*
X002128Y023989D02*
X001539Y023989D01*
X001673Y023910D02*
X001994Y023910D01*
X001915Y023832D02*
X001751Y023832D01*
X001802Y023753D02*
X001864Y023753D01*
D16*
X010333Y017500D02*
X010333Y016500D01*
X010333Y015500D01*
X010333Y014500D01*
X011333Y014500D02*
X011333Y015500D01*
X011333Y016500D01*
X011333Y017500D01*
X012333Y017500D02*
X012333Y016500D01*
X012333Y015500D01*
X012333Y014500D01*
X013333Y014500D02*
X013333Y015500D01*
X013333Y016500D01*
X013333Y017500D01*
X014333Y017500D02*
X014333Y016500D01*
X014333Y015500D01*
X014333Y014500D01*
X015333Y014500D02*
X015333Y015500D01*
X015333Y016500D01*
X015333Y017500D01*
X016333Y017500D02*
X016333Y016500D01*
X016333Y015500D01*
X016333Y014500D01*
X017333Y014500D02*
X017333Y015500D01*
X017333Y016500D01*
X017333Y017500D01*
X018333Y017500D02*
X018333Y016500D01*
X018333Y015500D01*
X018333Y014500D01*
X019333Y014500D02*
X019333Y015500D01*
X019333Y016500D01*
X019333Y017500D01*
X020333Y017500D02*
X020333Y016500D01*
X020333Y015500D01*
X020333Y014500D01*
X021333Y014500D02*
X021333Y015500D01*
X021333Y016500D01*
X021333Y017500D01*
X022333Y017500D02*
X022333Y016500D01*
X022333Y015500D01*
X022333Y014500D01*
X023333Y014500D02*
X023333Y015500D01*
X023333Y016500D01*
X023333Y017500D01*
X024333Y017500D02*
X024333Y016500D01*
X024333Y015500D01*
X024333Y014500D01*
X025333Y014500D02*
X025333Y015500D01*
X025333Y016500D01*
X025333Y017500D01*
X026333Y017500D02*
X026333Y016500D01*
X026333Y015500D01*
X026333Y014500D01*
X027333Y014500D02*
X027333Y015500D01*
X027333Y016500D01*
X027333Y017500D01*
X028333Y017500D02*
X028333Y016500D01*
X028333Y015500D01*
X028333Y014500D01*
X029333Y014500D02*
X029333Y015500D01*
X029333Y016500D01*
X029333Y017500D01*
X030333Y017500D02*
X030333Y016500D01*
X030333Y015500D01*
X030333Y014500D01*
X031333Y014500D02*
X031333Y015500D01*
X031333Y016500D01*
X031333Y017500D01*
X032333Y017500D02*
X032333Y016500D01*
X032333Y015500D01*
X032333Y014500D01*
X033333Y014500D02*
X033333Y015500D01*
X033333Y016500D01*
X033333Y017500D01*
X034333Y017500D02*
X034333Y016500D01*
X034333Y015500D01*
X034333Y014500D01*
X034333Y013500D02*
X033333Y013500D01*
X032333Y013500D01*
X031333Y013500D01*
X030333Y013500D01*
X029333Y013500D01*
X028333Y013500D01*
X027333Y013500D01*
X026333Y013500D01*
X025333Y013500D01*
X024333Y013500D01*
X023333Y013500D01*
X022333Y013500D01*
X021333Y013500D01*
X020333Y013500D01*
X019333Y013500D01*
X018333Y013500D01*
X017333Y013500D01*
X016333Y013500D01*
X015333Y013500D01*
X014333Y013500D01*
X013333Y013500D01*
X012333Y013500D01*
X011333Y013500D01*
X010333Y013500D01*
X010333Y012500D01*
X011333Y012500D01*
X012333Y012500D01*
X013333Y012500D01*
X014333Y012500D01*
X015333Y012500D01*
X016333Y012500D01*
X017333Y012500D01*
X018333Y012500D01*
X019333Y012500D01*
X020333Y012500D01*
X021333Y012500D01*
X022333Y012500D01*
X023333Y012500D01*
X024333Y012500D01*
X025333Y012500D01*
X026333Y012500D01*
X027333Y012500D01*
X028333Y012500D01*
X029333Y012500D01*
X030333Y012500D01*
X031333Y012500D01*
X032333Y012500D01*
X033333Y012500D01*
X034333Y012500D01*
X034833Y012500D01*
X035333Y012000D01*
X035333Y008000D01*
X032833Y005500D01*
X017833Y005500D01*
X017333Y005000D01*
X017333Y004500D01*
X017333Y008500D02*
X017333Y009500D01*
X017333Y010500D01*
X017333Y011500D01*
X018333Y011500D02*
X018333Y010500D01*
X018333Y009500D01*
X018333Y008500D01*
X019333Y008500D02*
X019333Y009500D01*
X019333Y010500D01*
X019333Y011500D01*
X020333Y011500D02*
X020333Y010500D01*
X020333Y009500D01*
X020333Y008500D01*
X021333Y008500D02*
X021333Y009500D01*
X021333Y010500D01*
X021333Y011500D01*
X022333Y011500D02*
X022333Y010500D01*
X022333Y009500D01*
X022333Y008500D01*
X023333Y008500D02*
X023333Y009500D01*
X023333Y010500D01*
X023333Y011500D01*
X024333Y011500D02*
X024333Y010500D01*
X024333Y009500D01*
X024333Y008500D01*
X025333Y008500D02*
X025333Y009500D01*
X025333Y010500D01*
X025333Y011500D01*
X026333Y011500D02*
X026333Y010500D01*
X026333Y009500D01*
X026333Y008500D01*
X027333Y008500D02*
X027333Y009500D01*
X027333Y010500D01*
X027333Y011500D01*
X028333Y011500D02*
X028333Y010500D01*
X028333Y009500D01*
X028333Y008500D01*
X029333Y008500D02*
X029333Y009500D01*
X029333Y010500D01*
X029333Y011500D01*
X030333Y011500D02*
X030333Y010500D01*
X030333Y009500D01*
X030333Y008500D01*
X031333Y008500D02*
X031333Y009500D01*
X031333Y010500D01*
X031333Y011500D01*
X032333Y011500D02*
X032333Y010500D01*
X032333Y009500D01*
X032333Y008500D01*
X033333Y008500D02*
X033333Y009500D01*
X033333Y010500D01*
X033333Y011500D01*
X034333Y011500D02*
X034333Y010500D01*
X034333Y009500D01*
X034333Y008500D01*
X016333Y008500D02*
X016333Y009500D01*
X016333Y010500D01*
X016333Y011500D01*
X015333Y011500D02*
X015333Y010500D01*
X015333Y009500D01*
X015333Y008500D01*
X014333Y008500D02*
X014333Y009500D01*
X014333Y010500D01*
X014333Y011500D01*
X013333Y011500D02*
X013333Y010500D01*
X013333Y009500D01*
X013333Y008500D01*
X012333Y008500D02*
X012333Y009500D01*
X012333Y010500D01*
X012333Y011500D01*
X011333Y011500D02*
X011333Y010500D01*
X011333Y009500D01*
X011333Y008500D01*
X010333Y008500D02*
X010333Y009500D01*
X010333Y010500D01*
X010333Y011500D01*
D17*
X010333Y018500D02*
X009333Y018500D01*
X008333Y018500D01*
X007333Y018500D01*
X006333Y018500D01*
X005333Y018500D01*
X004333Y018500D01*
X003333Y018500D01*
X002333Y018500D01*
X001333Y018500D01*
X010333Y018500D02*
X011333Y018500D01*
X012333Y018500D01*
X013333Y018500D01*
X014333Y018500D01*
X015333Y018500D01*
X016333Y018500D01*
X017333Y018500D01*
X018333Y018500D01*
X019333Y018500D01*
X020333Y018500D01*
X021333Y018500D01*
X022333Y018500D01*
X023333Y018500D01*
X024333Y018500D01*
X025333Y018500D01*
X026333Y018500D01*
X027333Y018500D01*
X028333Y018500D01*
X029333Y018500D01*
X030333Y018500D01*
X032263Y018500D01*
X032333Y018500D01*
X037333Y023500D01*
X037263Y023500D01*
X038333Y023500D01*
X038403Y023500D01*
M02*
