G75*
%MOIN*%
%OFA0B0*%
%FSLAX24Y24*%
%IPPOS*%
%LPD*%
%AMOC8*
5,1,8,0,0,1.08239X$1,22.5*
%
%ADD10C,0.0000*%
%ADD11C,0.0780*%
%ADD12R,0.0800X0.0800*%
%ADD13C,0.0800*%
%ADD14C,0.1400*%
%ADD15R,0.0515X0.0515*%
%ADD16C,0.0554*%
%ADD17R,0.0394X0.0433*%
%ADD18R,0.0433X0.0394*%
%ADD19R,0.0394X0.0551*%
%ADD20R,0.0560X0.0220*%
%ADD21R,0.0630X0.0220*%
%ADD22R,0.0740X0.0740*%
%ADD23C,0.0740*%
%ADD24R,0.0472X0.0315*%
%ADD25R,0.0315X0.0472*%
%ADD26R,0.0650X0.0650*%
%ADD27C,0.0650*%
%ADD28C,0.0120*%
%ADD29C,0.0460*%
%ADD30C,0.0240*%
%ADD31C,0.0400*%
%ADD32C,0.0660*%
%ADD33C,0.0100*%
D10*
X000225Y000225D02*
X000225Y020221D01*
X022720Y020221D01*
X022720Y000225D01*
X000225Y000225D01*
X000575Y001225D02*
X000577Y001275D01*
X000583Y001325D01*
X000593Y001375D01*
X000606Y001423D01*
X000623Y001471D01*
X000644Y001517D01*
X000668Y001561D01*
X000696Y001603D01*
X000727Y001643D01*
X000761Y001680D01*
X000798Y001715D01*
X000837Y001746D01*
X000878Y001775D01*
X000922Y001800D01*
X000968Y001822D01*
X001015Y001840D01*
X001063Y001854D01*
X001112Y001865D01*
X001162Y001872D01*
X001212Y001875D01*
X001263Y001874D01*
X001313Y001869D01*
X001363Y001860D01*
X001411Y001848D01*
X001459Y001831D01*
X001505Y001811D01*
X001550Y001788D01*
X001593Y001761D01*
X001633Y001731D01*
X001671Y001698D01*
X001706Y001662D01*
X001739Y001623D01*
X001768Y001582D01*
X001794Y001539D01*
X001817Y001494D01*
X001836Y001447D01*
X001851Y001399D01*
X001863Y001350D01*
X001871Y001300D01*
X001875Y001250D01*
X001875Y001200D01*
X001871Y001150D01*
X001863Y001100D01*
X001851Y001051D01*
X001836Y001003D01*
X001817Y000956D01*
X001794Y000911D01*
X001768Y000868D01*
X001739Y000827D01*
X001706Y000788D01*
X001671Y000752D01*
X001633Y000719D01*
X001593Y000689D01*
X001550Y000662D01*
X001505Y000639D01*
X001459Y000619D01*
X001411Y000602D01*
X001363Y000590D01*
X001313Y000581D01*
X001263Y000576D01*
X001212Y000575D01*
X001162Y000578D01*
X001112Y000585D01*
X001063Y000596D01*
X001015Y000610D01*
X000968Y000628D01*
X000922Y000650D01*
X000878Y000675D01*
X000837Y000704D01*
X000798Y000735D01*
X000761Y000770D01*
X000727Y000807D01*
X000696Y000847D01*
X000668Y000889D01*
X000644Y000933D01*
X000623Y000979D01*
X000606Y001027D01*
X000593Y001075D01*
X000583Y001125D01*
X000577Y001175D01*
X000575Y001225D01*
X000575Y019350D02*
X000577Y019400D01*
X000583Y019450D01*
X000593Y019500D01*
X000606Y019548D01*
X000623Y019596D01*
X000644Y019642D01*
X000668Y019686D01*
X000696Y019728D01*
X000727Y019768D01*
X000761Y019805D01*
X000798Y019840D01*
X000837Y019871D01*
X000878Y019900D01*
X000922Y019925D01*
X000968Y019947D01*
X001015Y019965D01*
X001063Y019979D01*
X001112Y019990D01*
X001162Y019997D01*
X001212Y020000D01*
X001263Y019999D01*
X001313Y019994D01*
X001363Y019985D01*
X001411Y019973D01*
X001459Y019956D01*
X001505Y019936D01*
X001550Y019913D01*
X001593Y019886D01*
X001633Y019856D01*
X001671Y019823D01*
X001706Y019787D01*
X001739Y019748D01*
X001768Y019707D01*
X001794Y019664D01*
X001817Y019619D01*
X001836Y019572D01*
X001851Y019524D01*
X001863Y019475D01*
X001871Y019425D01*
X001875Y019375D01*
X001875Y019325D01*
X001871Y019275D01*
X001863Y019225D01*
X001851Y019176D01*
X001836Y019128D01*
X001817Y019081D01*
X001794Y019036D01*
X001768Y018993D01*
X001739Y018952D01*
X001706Y018913D01*
X001671Y018877D01*
X001633Y018844D01*
X001593Y018814D01*
X001550Y018787D01*
X001505Y018764D01*
X001459Y018744D01*
X001411Y018727D01*
X001363Y018715D01*
X001313Y018706D01*
X001263Y018701D01*
X001212Y018700D01*
X001162Y018703D01*
X001112Y018710D01*
X001063Y018721D01*
X001015Y018735D01*
X000968Y018753D01*
X000922Y018775D01*
X000878Y018800D01*
X000837Y018829D01*
X000798Y018860D01*
X000761Y018895D01*
X000727Y018932D01*
X000696Y018972D01*
X000668Y019014D01*
X000644Y019058D01*
X000623Y019104D01*
X000606Y019152D01*
X000593Y019200D01*
X000583Y019250D01*
X000577Y019300D01*
X000575Y019350D01*
X021075Y019225D02*
X021077Y019275D01*
X021083Y019325D01*
X021093Y019375D01*
X021106Y019423D01*
X021123Y019471D01*
X021144Y019517D01*
X021168Y019561D01*
X021196Y019603D01*
X021227Y019643D01*
X021261Y019680D01*
X021298Y019715D01*
X021337Y019746D01*
X021378Y019775D01*
X021422Y019800D01*
X021468Y019822D01*
X021515Y019840D01*
X021563Y019854D01*
X021612Y019865D01*
X021662Y019872D01*
X021712Y019875D01*
X021763Y019874D01*
X021813Y019869D01*
X021863Y019860D01*
X021911Y019848D01*
X021959Y019831D01*
X022005Y019811D01*
X022050Y019788D01*
X022093Y019761D01*
X022133Y019731D01*
X022171Y019698D01*
X022206Y019662D01*
X022239Y019623D01*
X022268Y019582D01*
X022294Y019539D01*
X022317Y019494D01*
X022336Y019447D01*
X022351Y019399D01*
X022363Y019350D01*
X022371Y019300D01*
X022375Y019250D01*
X022375Y019200D01*
X022371Y019150D01*
X022363Y019100D01*
X022351Y019051D01*
X022336Y019003D01*
X022317Y018956D01*
X022294Y018911D01*
X022268Y018868D01*
X022239Y018827D01*
X022206Y018788D01*
X022171Y018752D01*
X022133Y018719D01*
X022093Y018689D01*
X022050Y018662D01*
X022005Y018639D01*
X021959Y018619D01*
X021911Y018602D01*
X021863Y018590D01*
X021813Y018581D01*
X021763Y018576D01*
X021712Y018575D01*
X021662Y018578D01*
X021612Y018585D01*
X021563Y018596D01*
X021515Y018610D01*
X021468Y018628D01*
X021422Y018650D01*
X021378Y018675D01*
X021337Y018704D01*
X021298Y018735D01*
X021261Y018770D01*
X021227Y018807D01*
X021196Y018847D01*
X021168Y018889D01*
X021144Y018933D01*
X021123Y018979D01*
X021106Y019027D01*
X021093Y019075D01*
X021083Y019125D01*
X021077Y019175D01*
X021075Y019225D01*
X021075Y001225D02*
X021077Y001275D01*
X021083Y001325D01*
X021093Y001375D01*
X021106Y001423D01*
X021123Y001471D01*
X021144Y001517D01*
X021168Y001561D01*
X021196Y001603D01*
X021227Y001643D01*
X021261Y001680D01*
X021298Y001715D01*
X021337Y001746D01*
X021378Y001775D01*
X021422Y001800D01*
X021468Y001822D01*
X021515Y001840D01*
X021563Y001854D01*
X021612Y001865D01*
X021662Y001872D01*
X021712Y001875D01*
X021763Y001874D01*
X021813Y001869D01*
X021863Y001860D01*
X021911Y001848D01*
X021959Y001831D01*
X022005Y001811D01*
X022050Y001788D01*
X022093Y001761D01*
X022133Y001731D01*
X022171Y001698D01*
X022206Y001662D01*
X022239Y001623D01*
X022268Y001582D01*
X022294Y001539D01*
X022317Y001494D01*
X022336Y001447D01*
X022351Y001399D01*
X022363Y001350D01*
X022371Y001300D01*
X022375Y001250D01*
X022375Y001200D01*
X022371Y001150D01*
X022363Y001100D01*
X022351Y001051D01*
X022336Y001003D01*
X022317Y000956D01*
X022294Y000911D01*
X022268Y000868D01*
X022239Y000827D01*
X022206Y000788D01*
X022171Y000752D01*
X022133Y000719D01*
X022093Y000689D01*
X022050Y000662D01*
X022005Y000639D01*
X021959Y000619D01*
X021911Y000602D01*
X021863Y000590D01*
X021813Y000581D01*
X021763Y000576D01*
X021712Y000575D01*
X021662Y000578D01*
X021612Y000585D01*
X021563Y000596D01*
X021515Y000610D01*
X021468Y000628D01*
X021422Y000650D01*
X021378Y000675D01*
X021337Y000704D01*
X021298Y000735D01*
X021261Y000770D01*
X021227Y000807D01*
X021196Y000847D01*
X021168Y000889D01*
X021144Y000933D01*
X021123Y000979D01*
X021106Y001027D01*
X021093Y001075D01*
X021083Y001125D01*
X021077Y001175D01*
X021075Y001225D01*
D11*
X010475Y007100D03*
X006475Y007100D03*
D12*
X003850Y013600D03*
D13*
X003850Y012222D03*
X003850Y010844D03*
X003850Y009466D03*
X003850Y008088D03*
X003850Y006710D03*
D14*
X003538Y018600D03*
X005838Y018600D03*
X009112Y018600D03*
X011412Y018600D03*
D15*
X014850Y018600D03*
X015850Y018600D03*
D16*
X010100Y015225D03*
X010100Y013225D03*
X010100Y011225D03*
X007100Y011225D03*
X007100Y013225D03*
X007100Y015225D03*
X007100Y008225D03*
X010100Y008225D03*
D17*
X011725Y005810D03*
X011725Y005140D03*
X012225Y013265D03*
X012225Y013935D03*
D18*
X006935Y004725D03*
X006265Y004725D03*
X003560Y002725D03*
X002890Y002725D03*
X015265Y004350D03*
X015935Y004350D03*
D19*
X014349Y004283D03*
X013601Y004283D03*
X013975Y003417D03*
X011724Y004283D03*
X010976Y004283D03*
X011350Y003417D03*
X005474Y004783D03*
X004726Y004783D03*
X005100Y003917D03*
X003599Y003917D03*
X002851Y003917D03*
X003225Y004783D03*
D20*
X013125Y011725D03*
X013125Y012225D03*
X013125Y012725D03*
X013125Y013225D03*
X015325Y013225D03*
X015325Y012725D03*
X015325Y012225D03*
X015325Y011725D03*
D21*
X015225Y009100D03*
X015225Y008600D03*
X015225Y008100D03*
X015225Y007600D03*
X015225Y007100D03*
X015225Y006600D03*
X015225Y006100D03*
X013225Y006100D03*
X013225Y006600D03*
X013225Y007100D03*
X013225Y007600D03*
X013225Y008100D03*
X013225Y008600D03*
X013225Y009100D03*
D22*
X019300Y008100D03*
X019300Y011225D03*
X017550Y001600D03*
X013425Y001600D03*
X009800Y001600D03*
X005050Y001600D03*
D23*
X006150Y001600D03*
X010900Y001600D03*
X014525Y001600D03*
X018650Y001600D03*
X019400Y009100D03*
X019300Y010100D03*
X019400Y012225D03*
X019300Y013225D03*
X019400Y014225D03*
D24*
X019100Y016371D03*
X019100Y017079D03*
X019975Y017079D03*
X019975Y016371D03*
X018100Y016371D03*
X018100Y017079D03*
X018350Y018246D03*
X018350Y018954D03*
X019100Y018954D03*
X019100Y018246D03*
X012225Y002329D03*
X012225Y001621D03*
X007475Y001621D03*
X007475Y002329D03*
X019850Y002204D03*
X019850Y001496D03*
D25*
X015954Y003475D03*
X015246Y003475D03*
D26*
X016975Y008725D03*
D27*
X016975Y007725D03*
D28*
X015975Y009100D02*
X015225Y009100D01*
X014225Y008350D02*
X013975Y008600D01*
X013225Y008600D01*
X013225Y008100D02*
X012100Y008100D01*
X011725Y008475D01*
X011725Y011850D01*
X012225Y012225D02*
X013125Y012225D01*
X013125Y012725D02*
X011600Y012725D01*
X010975Y013350D01*
X010975Y014225D01*
X012600Y015850D01*
X018579Y015850D01*
X019100Y016371D01*
X019975Y016371D01*
X019100Y017079D02*
X018100Y017079D01*
X018100Y016371D02*
X018079Y016350D01*
X017350Y016350D01*
X016890Y018265D02*
X018330Y018265D01*
X018350Y018246D01*
X019100Y018246D01*
X018350Y018954D02*
X018204Y019100D01*
X016725Y019100D01*
X016890Y018265D02*
X015350Y016725D01*
X013475Y016725D01*
X012850Y016100D01*
X012350Y016100D01*
X010725Y014475D01*
X010725Y013100D01*
X011350Y012475D01*
X011975Y012475D01*
X012225Y012225D01*
X012225Y013265D02*
X013085Y013265D01*
X013125Y013225D01*
X013725Y013225D01*
X014225Y012725D01*
X014225Y010225D01*
X014225Y008350D02*
X014225Y007850D01*
X014225Y007350D01*
X013975Y007100D01*
X013225Y007100D01*
X013225Y006600D02*
X012515Y006600D01*
X011725Y005810D01*
X011725Y005140D02*
X011724Y005139D01*
X011724Y004283D01*
X011350Y003417D02*
X012225Y002542D01*
X012225Y002329D01*
X012225Y001621D02*
X012204Y001600D01*
X010900Y001600D01*
X008225Y000975D02*
X020100Y000975D01*
X020350Y001225D01*
X020350Y004600D01*
X021350Y005600D01*
X022225Y003475D02*
X020600Y001850D01*
X020600Y000850D01*
X020475Y000725D01*
X003475Y000725D01*
X002225Y001975D01*
X002225Y004725D01*
X002851Y003917D02*
X002890Y003878D01*
X002890Y002725D01*
X002890Y002185D01*
X004100Y000975D01*
X007725Y000975D01*
X007975Y001225D01*
X007975Y003685D01*
X006935Y004725D01*
X006265Y004725D02*
X006207Y004783D01*
X005474Y004783D01*
X005100Y003917D02*
X007033Y003917D01*
X007475Y003475D01*
X007475Y002329D01*
X007475Y001621D02*
X006171Y001621D01*
X006150Y001600D01*
X007975Y001225D02*
X008225Y000975D01*
X013975Y003417D02*
X015188Y003417D01*
X015246Y003475D01*
X015954Y003475D02*
X015954Y002079D01*
X015475Y001600D01*
X014525Y001600D01*
X014349Y004283D02*
X015198Y004283D01*
X015265Y004350D01*
X015265Y004890D01*
X015475Y005100D01*
X017475Y005100D01*
X018600Y001600D02*
X018475Y001475D01*
X018525Y001475D01*
X018650Y001600D01*
X019746Y001600D01*
X019850Y001496D01*
X018650Y001600D02*
X018600Y001600D01*
X022225Y003475D02*
X022225Y011350D01*
X021100Y012475D01*
X021100Y012850D01*
X020725Y013225D01*
X019300Y013225D01*
X016225Y013225D02*
X015325Y013225D01*
X012225Y013935D02*
X012225Y014475D01*
D29*
X012225Y014475D03*
X011725Y011850D03*
X014225Y010225D03*
X015975Y009100D03*
X014225Y007850D03*
X017475Y005100D03*
X021350Y005600D03*
X016225Y013225D03*
X017350Y016350D03*
X016725Y019100D03*
X002225Y004725D03*
X012725Y003350D03*
D30*
X013908Y003350D01*
X013975Y003417D01*
X013538Y003710D02*
X013030Y003710D01*
X012991Y003748D01*
X012818Y003820D01*
X012632Y003820D01*
X012459Y003748D01*
X012327Y003616D01*
X012255Y003443D01*
X012255Y003257D01*
X012327Y003084D01*
X012459Y002952D01*
X012632Y002880D01*
X012818Y002880D01*
X012991Y002952D01*
X013030Y002990D01*
X013590Y002990D01*
X013642Y002938D01*
X013730Y002901D01*
X014220Y002901D01*
X014308Y002938D01*
X014375Y003005D01*
X014412Y003094D01*
X014412Y003117D01*
X014879Y003117D01*
X014885Y003103D01*
X014952Y003035D01*
X015040Y002999D01*
X015451Y002999D01*
X015539Y003035D01*
X015600Y003096D01*
X015654Y003042D01*
X015654Y002204D01*
X015351Y001900D01*
X015061Y001900D01*
X015042Y001946D01*
X014871Y002117D01*
X014646Y002210D01*
X014404Y002210D01*
X014179Y002117D01*
X014035Y001973D01*
X014035Y002018D01*
X013998Y002106D01*
X013931Y002173D01*
X013843Y002210D01*
X013007Y002210D01*
X012919Y002173D01*
X012852Y002106D01*
X012815Y002018D01*
X012815Y001275D01*
X012612Y001275D01*
X012665Y001327D01*
X012701Y001415D01*
X012701Y001826D01*
X012665Y001914D01*
X012604Y001975D01*
X012665Y002036D01*
X012701Y002124D01*
X012701Y002535D01*
X012665Y002623D01*
X012597Y002690D01*
X012509Y002727D01*
X012464Y002727D01*
X012395Y002796D01*
X011787Y003404D01*
X011787Y003740D01*
X011776Y003767D01*
X011969Y003767D01*
X012057Y003804D01*
X012124Y003872D01*
X012161Y003960D01*
X012161Y004606D01*
X012124Y004695D01*
X012078Y004741D01*
X012125Y004788D01*
X012162Y004876D01*
X012162Y005405D01*
X012133Y005475D01*
X012162Y005545D01*
X012162Y005822D01*
X012640Y006300D01*
X012708Y006300D01*
X012705Y006295D01*
X012690Y006239D01*
X012690Y006100D01*
X013225Y006100D01*
X013760Y006100D01*
X013760Y006239D01*
X013745Y006295D01*
X013723Y006333D01*
X013743Y006354D01*
X013780Y006442D01*
X013780Y006758D01*
X013762Y006800D01*
X014035Y006800D01*
X014145Y006846D01*
X014229Y006930D01*
X014229Y006930D01*
X014479Y007180D01*
X014525Y007290D01*
X014525Y007485D01*
X014623Y007584D01*
X014670Y007696D01*
X014670Y007442D01*
X014707Y007354D01*
X014711Y007350D01*
X014707Y007346D01*
X014670Y007258D01*
X014670Y006942D01*
X014707Y006854D01*
X014711Y006850D01*
X014707Y006846D01*
X014670Y006758D01*
X014670Y006442D01*
X014707Y006354D01*
X014711Y006350D01*
X014707Y006346D01*
X014670Y006258D01*
X014670Y005942D01*
X014707Y005854D01*
X014774Y005787D01*
X014862Y005750D01*
X015588Y005750D01*
X015676Y005787D01*
X015743Y005854D01*
X015780Y005942D01*
X015780Y006258D01*
X015743Y006346D01*
X015739Y006350D01*
X015743Y006354D01*
X015780Y006442D01*
X015780Y006758D01*
X015743Y006846D01*
X015739Y006850D01*
X015743Y006854D01*
X015780Y006942D01*
X015780Y007258D01*
X015743Y007346D01*
X015739Y007350D01*
X015743Y007354D01*
X015780Y007442D01*
X015780Y007758D01*
X015743Y007846D01*
X015739Y007850D01*
X015743Y007854D01*
X015780Y007942D01*
X015780Y008258D01*
X015743Y008346D01*
X015739Y008350D01*
X015743Y008354D01*
X015780Y008442D01*
X015780Y008672D01*
X015882Y008630D01*
X016068Y008630D01*
X016241Y008702D01*
X016373Y008834D01*
X016410Y008922D01*
X016410Y008352D01*
X016447Y008264D01*
X016514Y008197D01*
X016602Y008160D01*
X016647Y008160D01*
X016620Y008141D01*
X016559Y008080D01*
X016509Y008011D01*
X016470Y007934D01*
X016443Y007853D01*
X016430Y007768D01*
X016430Y007725D01*
X016975Y007725D01*
X017520Y007725D01*
X017520Y007768D01*
X017507Y007853D01*
X017480Y007934D01*
X017441Y008011D01*
X017391Y008080D01*
X017330Y008141D01*
X017303Y008160D01*
X017348Y008160D01*
X017436Y008197D01*
X017503Y008264D01*
X017540Y008352D01*
X017540Y009098D01*
X017503Y009186D01*
X017436Y009253D01*
X017348Y009290D01*
X016602Y009290D01*
X016514Y009253D01*
X016447Y009186D01*
X016445Y009182D01*
X016445Y009193D01*
X016373Y009366D01*
X016241Y009498D01*
X016068Y009570D01*
X015882Y009570D01*
X015709Y009498D01*
X015639Y009429D01*
X015588Y009450D01*
X014862Y009450D01*
X014774Y009413D01*
X014707Y009346D01*
X014670Y009258D01*
X014670Y008942D01*
X014707Y008854D01*
X014711Y008850D01*
X014707Y008846D01*
X014670Y008758D01*
X014670Y008442D01*
X014707Y008354D01*
X014711Y008350D01*
X014707Y008346D01*
X014670Y008258D01*
X014670Y008004D01*
X014623Y008116D01*
X014525Y008215D01*
X014525Y008410D01*
X014479Y008520D01*
X014229Y008770D01*
X014145Y008854D01*
X014035Y008900D01*
X013742Y008900D01*
X013745Y008905D01*
X013760Y008961D01*
X013760Y009100D01*
X013760Y009239D01*
X013745Y009295D01*
X013716Y009345D01*
X013675Y009386D01*
X013625Y009415D01*
X013569Y009430D01*
X013225Y009430D01*
X013225Y009100D01*
X013225Y009100D01*
X013760Y009100D01*
X013225Y009100D01*
X013225Y009100D01*
X013225Y009100D01*
X012690Y009100D01*
X012690Y009239D01*
X012705Y009295D01*
X012734Y009345D01*
X012775Y009386D01*
X012825Y009415D01*
X012881Y009430D01*
X013225Y009430D01*
X013225Y009100D01*
X012690Y009100D01*
X012690Y008961D01*
X012705Y008905D01*
X012727Y008867D01*
X012707Y008846D01*
X012670Y008758D01*
X012670Y008442D01*
X012688Y008400D01*
X012224Y008400D01*
X012025Y008599D01*
X012025Y011485D01*
X012123Y011584D01*
X012195Y011757D01*
X012195Y011925D01*
X012643Y011925D01*
X012640Y011920D01*
X012625Y011864D01*
X012625Y011725D01*
X013125Y011725D01*
X013625Y011725D01*
X013625Y011864D01*
X013610Y011920D01*
X013588Y011958D01*
X013608Y011979D01*
X013645Y012067D01*
X013645Y012383D01*
X013608Y012471D01*
X013604Y012475D01*
X013608Y012479D01*
X013645Y012567D01*
X013645Y012881D01*
X013925Y012601D01*
X013925Y010590D01*
X013827Y010491D01*
X013755Y010318D01*
X013755Y010132D01*
X013827Y009959D01*
X013959Y009827D01*
X014132Y009755D01*
X014318Y009755D01*
X014491Y009827D01*
X014623Y009959D01*
X014695Y010132D01*
X014695Y010318D01*
X014623Y010491D01*
X014525Y010590D01*
X014525Y012785D01*
X014479Y012895D01*
X014395Y012979D01*
X013895Y013479D01*
X013785Y013525D01*
X013554Y013525D01*
X013541Y013538D01*
X013453Y013575D01*
X012797Y013575D01*
X012774Y013565D01*
X012647Y013565D01*
X012633Y013600D01*
X012662Y013670D01*
X012662Y014199D01*
X012641Y014250D01*
X012695Y014382D01*
X012695Y014568D01*
X012623Y014741D01*
X012491Y014873D01*
X012318Y014945D01*
X012132Y014945D01*
X012111Y014936D01*
X012724Y015550D01*
X018639Y015550D01*
X018749Y015596D01*
X019127Y015973D01*
X019384Y015973D01*
X019472Y016010D01*
X019533Y016071D01*
X019542Y016071D01*
X019603Y016010D01*
X019691Y015973D01*
X020259Y015973D01*
X020347Y016010D01*
X020415Y016077D01*
X020451Y016165D01*
X020451Y016576D01*
X020415Y016664D01*
X020347Y016732D01*
X020332Y016738D01*
X020346Y016746D01*
X020387Y016787D01*
X020416Y016837D01*
X020431Y016893D01*
X020431Y017079D01*
X019975Y017079D01*
X019975Y017079D01*
X020431Y017079D01*
X020431Y017266D01*
X020416Y017322D01*
X020387Y017372D01*
X020346Y017413D01*
X020296Y017442D01*
X020240Y017457D01*
X019975Y017457D01*
X019710Y017457D01*
X019654Y017442D01*
X019604Y017413D01*
X019563Y017372D01*
X019550Y017349D01*
X019540Y017373D01*
X019472Y017440D01*
X019384Y017477D01*
X018816Y017477D01*
X018728Y017440D01*
X018667Y017379D01*
X018533Y017379D01*
X018472Y017440D01*
X018384Y017477D01*
X017816Y017477D01*
X017728Y017440D01*
X017660Y017373D01*
X017624Y017285D01*
X017624Y016874D01*
X017660Y016786D01*
X017721Y016725D01*
X017680Y016684D01*
X017616Y016748D01*
X017443Y016820D01*
X017257Y016820D01*
X017084Y016748D01*
X016952Y016616D01*
X016880Y016443D01*
X015453Y016443D01*
X015410Y016425D02*
X015520Y016471D01*
X015604Y016555D01*
X017015Y017965D01*
X017905Y017965D01*
X017910Y017952D01*
X017978Y017885D01*
X018066Y017848D01*
X018634Y017848D01*
X018722Y017885D01*
X018725Y017888D01*
X018728Y017885D01*
X018816Y017848D01*
X019384Y017848D01*
X019472Y017885D01*
X019540Y017952D01*
X019576Y018040D01*
X019576Y018451D01*
X019540Y018539D01*
X019472Y018607D01*
X019457Y018613D01*
X019471Y018621D01*
X019512Y018662D01*
X019541Y018712D01*
X019556Y018768D01*
X019556Y018954D01*
X019100Y018954D01*
X019100Y018954D01*
X019556Y018954D01*
X019556Y019141D01*
X019541Y019197D01*
X019512Y019247D01*
X019471Y019288D01*
X019421Y019317D01*
X019365Y019332D01*
X019100Y019332D01*
X018835Y019332D01*
X018779Y019317D01*
X018742Y019295D01*
X018722Y019315D01*
X018634Y019352D01*
X018377Y019352D01*
X018374Y019354D01*
X018264Y019400D01*
X017090Y019400D01*
X016991Y019498D01*
X016818Y019570D01*
X016632Y019570D01*
X016459Y019498D01*
X016327Y019366D01*
X016255Y019193D01*
X016255Y019049D01*
X016243Y019061D01*
X016155Y019097D01*
X015545Y019097D01*
X015457Y019061D01*
X015389Y018993D01*
X015353Y018905D01*
X015353Y018295D01*
X015389Y018207D01*
X015410Y018186D01*
X015410Y018157D01*
X014918Y017665D01*
X013162Y017665D01*
X013657Y018160D01*
X014436Y018160D01*
X014457Y018139D01*
X014545Y018103D01*
X015155Y018103D01*
X015243Y018139D01*
X015311Y018207D01*
X015347Y018295D01*
X015347Y018905D01*
X015311Y018993D01*
X015243Y019061D01*
X015155Y019097D01*
X014545Y019097D01*
X014457Y019061D01*
X014436Y019040D01*
X013387Y019040D01*
X013226Y018973D01*
X012043Y017790D01*
X011913Y017790D01*
X011944Y017803D01*
X012209Y018068D01*
X012352Y018413D01*
X012352Y018787D01*
X012209Y019132D01*
X011944Y019397D01*
X011599Y019540D01*
X011225Y019540D01*
X010880Y019397D01*
X010615Y019132D01*
X010472Y018787D01*
X010472Y018413D01*
X010615Y018068D01*
X010880Y017803D01*
X010911Y017790D01*
X009613Y017790D01*
X009644Y017803D01*
X009909Y018068D01*
X010052Y018413D01*
X010052Y018787D01*
X009909Y019132D01*
X009644Y019397D01*
X009299Y019540D01*
X008925Y019540D01*
X008580Y019397D01*
X008315Y019132D01*
X008172Y018787D01*
X008172Y018413D01*
X008315Y018068D01*
X008580Y017803D01*
X008611Y017790D01*
X007475Y017790D01*
X007475Y019701D01*
X020249Y019701D01*
X020558Y019392D01*
X020555Y019379D01*
X020555Y019071D01*
X020635Y018773D01*
X020789Y018507D01*
X021007Y018289D01*
X021273Y018135D01*
X021331Y018119D01*
X021350Y018100D01*
X021403Y018100D01*
X021571Y018055D01*
X021879Y018055D01*
X022047Y018100D01*
X022200Y018100D01*
X022200Y011799D01*
X021400Y012599D01*
X021400Y012910D01*
X021354Y013020D01*
X021270Y013104D01*
X022200Y013104D01*
X022200Y012866D02*
X021400Y012866D01*
X021400Y012627D02*
X022200Y012627D01*
X022200Y012389D02*
X021611Y012389D01*
X021849Y012150D02*
X022200Y012150D01*
X022200Y011912D02*
X022088Y011912D01*
X021716Y011435D02*
X019910Y011435D01*
X019910Y011643D02*
X019873Y011731D01*
X019821Y011783D01*
X019917Y011879D01*
X020010Y012104D01*
X020010Y012346D01*
X019917Y012571D01*
X019746Y012742D01*
X019699Y012761D01*
X019817Y012879D01*
X019836Y012925D01*
X020601Y012925D01*
X020800Y012726D01*
X020800Y012415D01*
X020846Y012305D01*
X020930Y012221D01*
X020930Y012221D01*
X021925Y011226D01*
X021925Y003599D01*
X020650Y002324D01*
X020650Y004476D01*
X021304Y005130D01*
X021443Y005130D01*
X021616Y005202D01*
X021748Y005334D01*
X021820Y005507D01*
X021820Y005693D01*
X021748Y005866D01*
X021616Y005998D01*
X021443Y006070D01*
X021257Y006070D01*
X021084Y005998D01*
X020952Y005866D01*
X020880Y005693D01*
X020880Y005554D01*
X020180Y004854D01*
X020096Y004770D01*
X020050Y004660D01*
X020050Y002582D01*
X019850Y002582D01*
X019585Y002582D01*
X019529Y002567D01*
X019479Y002538D01*
X019438Y002497D01*
X019409Y002447D01*
X019394Y002391D01*
X019394Y002204D01*
X019394Y002018D01*
X019409Y001962D01*
X019438Y001912D01*
X019450Y001900D01*
X019186Y001900D01*
X019167Y001946D01*
X018996Y002117D01*
X018771Y002210D01*
X018529Y002210D01*
X018304Y002117D01*
X018160Y001973D01*
X018160Y002018D01*
X018123Y002106D01*
X018056Y002173D01*
X017968Y002210D01*
X017132Y002210D01*
X017044Y002173D01*
X016977Y002106D01*
X016940Y002018D01*
X016940Y001275D01*
X015051Y001275D01*
X015061Y001300D01*
X015535Y001300D01*
X015645Y001346D01*
X015729Y001430D01*
X016124Y001825D01*
X016209Y001909D01*
X016254Y002020D01*
X016254Y003042D01*
X016315Y003103D01*
X016352Y003191D01*
X016352Y003759D01*
X016315Y003847D01*
X016248Y003915D01*
X016194Y003937D01*
X016236Y003948D01*
X016286Y003977D01*
X016327Y004018D01*
X016356Y004068D01*
X016371Y004124D01*
X016371Y004350D01*
X016371Y004576D01*
X016356Y004632D01*
X016327Y004682D01*
X016286Y004723D01*
X016236Y004752D01*
X016180Y004767D01*
X015935Y004767D01*
X015935Y004350D01*
X016371Y004350D01*
X015935Y004350D01*
X015935Y004350D01*
X015935Y004350D01*
X015935Y004767D01*
X015689Y004767D01*
X015633Y004752D01*
X015622Y004746D01*
X015618Y004750D01*
X015570Y004770D01*
X015599Y004800D01*
X017110Y004800D01*
X017209Y004702D01*
X017382Y004630D01*
X017568Y004630D01*
X017741Y004702D01*
X017873Y004834D01*
X017945Y005007D01*
X017945Y005193D01*
X017873Y005366D01*
X017741Y005498D01*
X017568Y005570D01*
X017382Y005570D01*
X017209Y005498D01*
X017110Y005400D01*
X015415Y005400D01*
X015305Y005354D01*
X015221Y005270D01*
X015011Y005060D01*
X014965Y004950D01*
X014965Y004772D01*
X014913Y004750D01*
X014845Y004683D01*
X014809Y004595D01*
X014809Y004583D01*
X014786Y004583D01*
X014786Y004606D01*
X014749Y004695D01*
X014682Y004762D01*
X014594Y004799D01*
X014104Y004799D01*
X014016Y004762D01*
X013961Y004707D01*
X013933Y004735D01*
X013883Y004764D01*
X013827Y004779D01*
X013601Y004779D01*
X013375Y004779D01*
X013319Y004764D01*
X013269Y004735D01*
X013228Y004694D01*
X013199Y004644D01*
X013184Y004588D01*
X013184Y004283D01*
X013184Y003979D01*
X013199Y003923D01*
X013228Y003872D01*
X013269Y003831D01*
X013319Y003802D01*
X013375Y003787D01*
X013558Y003787D01*
X013538Y003740D01*
X013538Y003710D01*
X013319Y003803D02*
X012861Y003803D01*
X013184Y004041D02*
X012161Y004041D01*
X012161Y004280D02*
X013184Y004280D01*
X013184Y004283D02*
X013601Y004283D01*
X013601Y004283D01*
X013184Y004283D01*
X013184Y004518D02*
X012161Y004518D01*
X012094Y004757D02*
X013307Y004757D01*
X013601Y004757D02*
X013601Y004757D01*
X013601Y004779D02*
X013601Y004283D01*
X013601Y004283D01*
X013601Y004779D01*
X013895Y004757D02*
X014011Y004757D01*
X013601Y004518D02*
X013601Y004518D01*
X014687Y004757D02*
X014928Y004757D01*
X014984Y004995D02*
X012162Y004995D01*
X012162Y005234D02*
X015184Y005234D01*
X015603Y004757D02*
X015651Y004757D01*
X015935Y004757D02*
X015935Y004757D01*
X016219Y004757D02*
X017154Y004757D01*
X017796Y004757D02*
X020090Y004757D01*
X020180Y004854D02*
X020180Y004854D01*
X020321Y004995D02*
X017940Y004995D01*
X017928Y005234D02*
X020559Y005234D01*
X020798Y005472D02*
X017768Y005472D01*
X017182Y005472D02*
X012134Y005472D01*
X012162Y005711D02*
X020887Y005711D01*
X021034Y005949D02*
X015780Y005949D01*
X015780Y006188D02*
X021925Y006188D01*
X021925Y006426D02*
X015773Y006426D01*
X015780Y006665D02*
X021925Y006665D01*
X021925Y006903D02*
X015764Y006903D01*
X015780Y007142D02*
X021925Y007142D01*
X021925Y007380D02*
X017398Y007380D01*
X017391Y007370D02*
X017441Y007439D01*
X017480Y007516D01*
X017507Y007597D01*
X017520Y007682D01*
X017520Y007725D01*
X016975Y007725D01*
X016975Y007725D01*
X016975Y007180D01*
X017018Y007180D01*
X017103Y007193D01*
X017184Y007220D01*
X017261Y007259D01*
X017330Y007309D01*
X017391Y007370D01*
X017510Y007619D02*
X018740Y007619D01*
X018754Y007595D02*
X018725Y007645D01*
X018710Y007701D01*
X018710Y008100D01*
X019300Y008100D01*
X019890Y008100D01*
X019890Y008499D01*
X019875Y008555D01*
X019846Y008605D01*
X019807Y008644D01*
X019917Y008754D01*
X020010Y008979D01*
X020010Y009221D01*
X019917Y009446D01*
X019746Y009617D01*
X019699Y009636D01*
X019817Y009754D01*
X019910Y009979D01*
X019910Y010221D01*
X019817Y010446D01*
X019648Y010615D01*
X019718Y010615D01*
X019806Y010652D01*
X019873Y010719D01*
X021925Y010719D01*
X021925Y010958D02*
X019910Y010958D01*
X019910Y010807D02*
X019910Y011643D01*
X019897Y011673D02*
X021478Y011673D01*
X021239Y011912D02*
X019930Y011912D01*
X020010Y012150D02*
X021001Y012150D01*
X020811Y012389D02*
X019993Y012389D01*
X019861Y012627D02*
X020800Y012627D01*
X020660Y012866D02*
X019803Y012866D01*
X019836Y013525D02*
X019817Y013571D01*
X019699Y013689D01*
X019746Y013708D01*
X019917Y013879D01*
X020010Y014104D01*
X020010Y014346D01*
X019917Y014571D01*
X019746Y014742D01*
X019521Y014835D01*
X019279Y014835D01*
X019054Y014742D01*
X018883Y014571D01*
X018790Y014346D01*
X018790Y014104D01*
X018883Y013879D01*
X019001Y013761D01*
X018954Y013742D01*
X018783Y013571D01*
X018690Y013346D01*
X018690Y013104D01*
X016684Y013104D01*
X016695Y013132D02*
X016695Y013318D01*
X016623Y013491D01*
X016491Y013623D01*
X016318Y013695D01*
X016132Y013695D01*
X015959Y013623D01*
X015860Y013525D01*
X015754Y013525D01*
X015741Y013538D01*
X015653Y013575D01*
X014997Y013575D01*
X014909Y013538D01*
X014842Y013471D01*
X014805Y013383D01*
X014805Y013067D01*
X014842Y012979D01*
X014846Y012975D01*
X014842Y012971D01*
X014805Y012883D01*
X014805Y012567D01*
X014842Y012479D01*
X014846Y012475D01*
X014842Y012471D01*
X014805Y012383D01*
X014805Y012067D01*
X014842Y011979D01*
X014846Y011975D01*
X014842Y011971D01*
X014805Y011883D01*
X014805Y011567D01*
X014842Y011479D01*
X014909Y011412D01*
X014997Y011375D01*
X015653Y011375D01*
X015741Y011412D01*
X015808Y011479D01*
X015845Y011567D01*
X015845Y011883D01*
X015808Y011971D01*
X015804Y011975D01*
X015808Y011979D01*
X015845Y012067D01*
X015845Y012383D01*
X015808Y012471D01*
X015804Y012475D01*
X015808Y012479D01*
X015845Y012567D01*
X015845Y012883D01*
X015827Y012925D01*
X015860Y012925D01*
X015959Y012827D01*
X016132Y012755D01*
X016318Y012755D01*
X016491Y012827D01*
X016623Y012959D01*
X016695Y013132D01*
X016685Y013343D02*
X018690Y013343D01*
X018690Y013104D02*
X018783Y012879D01*
X018954Y012708D01*
X019001Y012689D01*
X018883Y012571D01*
X018790Y012346D01*
X018790Y012104D01*
X018883Y011879D01*
X018927Y011835D01*
X018882Y011835D01*
X018794Y011798D01*
X018727Y011731D01*
X018690Y011643D01*
X018690Y010807D01*
X018727Y010719D01*
X014525Y010719D01*
X014525Y010958D02*
X018690Y010958D01*
X018690Y011196D02*
X014525Y011196D01*
X014525Y011435D02*
X014886Y011435D01*
X014805Y011673D02*
X014525Y011673D01*
X014525Y011912D02*
X014817Y011912D01*
X014805Y012150D02*
X014525Y012150D01*
X014525Y012389D02*
X014807Y012389D01*
X014805Y012627D02*
X014525Y012627D01*
X014492Y012866D02*
X014805Y012866D01*
X014805Y013104D02*
X014270Y013104D01*
X014032Y013343D02*
X014805Y013343D01*
X013899Y012627D02*
X013645Y012627D01*
X013643Y012389D02*
X013925Y012389D01*
X013925Y012150D02*
X013645Y012150D01*
X013612Y011912D02*
X013925Y011912D01*
X013925Y011673D02*
X013625Y011673D01*
X013625Y011725D02*
X013125Y011725D01*
X013125Y011725D01*
X013125Y011395D01*
X013434Y011395D01*
X013490Y011410D01*
X013540Y011439D01*
X013581Y011480D01*
X013610Y011530D01*
X013625Y011586D01*
X013625Y011725D01*
X013532Y011435D02*
X013925Y011435D01*
X013925Y011196D02*
X012025Y011196D01*
X012025Y010958D02*
X013925Y010958D01*
X013925Y010719D02*
X012025Y010719D01*
X012025Y010481D02*
X013822Y010481D01*
X013755Y010242D02*
X012025Y010242D01*
X012025Y010004D02*
X013808Y010004D01*
X014107Y009765D02*
X012025Y009765D01*
X012025Y009527D02*
X015777Y009527D01*
X016173Y009527D02*
X018964Y009527D01*
X019001Y009564D02*
X018883Y009446D01*
X018790Y009221D01*
X018790Y008979D01*
X018883Y008754D01*
X018947Y008690D01*
X018901Y008690D01*
X018845Y008675D01*
X018795Y008646D01*
X018754Y008605D01*
X018725Y008555D01*
X018710Y008499D01*
X018710Y008100D01*
X019300Y008100D01*
X019300Y008100D01*
X019890Y008100D01*
X019890Y007701D01*
X019875Y007645D01*
X019846Y007595D01*
X019805Y007554D01*
X019755Y007525D01*
X019699Y007510D01*
X019300Y007510D01*
X019300Y008100D01*
X019300Y008100D01*
X019300Y008100D01*
X019300Y007510D01*
X018901Y007510D01*
X018845Y007525D01*
X018795Y007554D01*
X018754Y007595D01*
X018710Y007857D02*
X017505Y007857D01*
X017375Y008096D02*
X018710Y008096D01*
X018710Y008334D02*
X017532Y008334D01*
X017540Y008573D02*
X018735Y008573D01*
X018859Y008811D02*
X017540Y008811D01*
X017540Y009050D02*
X018790Y009050D01*
X018818Y009288D02*
X017353Y009288D01*
X016597Y009288D02*
X016406Y009288D01*
X016410Y008811D02*
X016351Y008811D01*
X016410Y008573D02*
X015780Y008573D01*
X015748Y008334D02*
X016418Y008334D01*
X016575Y008096D02*
X015780Y008096D01*
X015745Y007857D02*
X016445Y007857D01*
X016430Y007725D02*
X016430Y007682D01*
X016443Y007597D01*
X016470Y007516D01*
X016509Y007439D01*
X016559Y007370D01*
X016620Y007309D01*
X016689Y007259D01*
X016766Y007220D01*
X016847Y007193D01*
X016932Y007180D01*
X016975Y007180D01*
X016975Y007725D01*
X016975Y007725D01*
X016975Y007725D01*
X016430Y007725D01*
X016440Y007619D02*
X015780Y007619D01*
X015754Y007380D02*
X016552Y007380D01*
X016975Y007380D02*
X016975Y007380D01*
X016975Y007619D02*
X016975Y007619D01*
X014696Y007380D02*
X014525Y007380D01*
X014441Y007142D02*
X014670Y007142D01*
X014686Y006903D02*
X014202Y006903D01*
X013780Y006665D02*
X014670Y006665D01*
X014677Y006426D02*
X013773Y006426D01*
X013760Y006188D02*
X014670Y006188D01*
X014670Y005949D02*
X013757Y005949D01*
X013760Y005961D02*
X013760Y006100D01*
X013225Y006100D01*
X013225Y006100D01*
X013225Y005770D01*
X013569Y005770D01*
X013625Y005785D01*
X013675Y005814D01*
X013716Y005855D01*
X013745Y005905D01*
X013760Y005961D01*
X013225Y005949D02*
X013225Y005949D01*
X013225Y006100D02*
X013225Y005770D01*
X012881Y005770D01*
X012825Y005785D01*
X012775Y005814D01*
X012734Y005855D01*
X012705Y005905D01*
X012690Y005961D01*
X012690Y006100D01*
X013225Y006100D01*
X013225Y006100D01*
X013225Y006100D01*
X012690Y006188D02*
X012527Y006188D01*
X012693Y005949D02*
X012289Y005949D01*
X011757Y006266D02*
X011480Y006266D01*
X011392Y006230D01*
X011325Y006162D01*
X011288Y006074D01*
X011288Y005545D01*
X011317Y005475D01*
X011288Y005405D01*
X011288Y004876D01*
X011325Y004788D01*
X011371Y004742D01*
X011336Y004707D01*
X011308Y004735D01*
X011258Y004764D01*
X011202Y004779D01*
X010976Y004779D01*
X010750Y004779D01*
X010694Y004764D01*
X010644Y004735D01*
X010603Y004694D01*
X010574Y004644D01*
X010559Y004588D01*
X010559Y004283D01*
X010559Y003979D01*
X010574Y003923D01*
X010603Y003872D01*
X010644Y003831D01*
X010694Y003802D01*
X010750Y003787D01*
X010933Y003787D01*
X010913Y003740D01*
X010913Y003094D01*
X010950Y003005D01*
X011017Y002938D01*
X011105Y002901D01*
X011441Y002901D01*
X011766Y002577D01*
X011749Y002535D01*
X011749Y002124D01*
X011785Y002036D01*
X011846Y001975D01*
X011785Y001914D01*
X011779Y001900D01*
X011436Y001900D01*
X011417Y001946D01*
X011246Y002117D01*
X011021Y002210D01*
X010779Y002210D01*
X010554Y002117D01*
X010410Y001973D01*
X010410Y002018D01*
X010373Y002106D01*
X010306Y002173D01*
X010218Y002210D01*
X009382Y002210D01*
X009294Y002173D01*
X009227Y002106D01*
X009190Y002018D01*
X009190Y001275D01*
X008349Y001275D01*
X008275Y001349D01*
X008275Y003744D01*
X008229Y003855D01*
X007391Y004693D01*
X007391Y004970D01*
X007355Y005058D01*
X007287Y005125D01*
X007199Y005162D01*
X006670Y005162D01*
X006600Y005133D01*
X006530Y005162D01*
X006001Y005162D01*
X005913Y005125D01*
X005906Y005118D01*
X005874Y005195D01*
X005807Y005262D01*
X005719Y005299D01*
X005229Y005299D01*
X005141Y005262D01*
X005086Y005207D01*
X005058Y005235D01*
X005008Y005264D01*
X004952Y005279D01*
X004726Y005279D01*
X004500Y005279D01*
X004444Y005264D01*
X004394Y005235D01*
X004353Y005194D01*
X004324Y005144D01*
X004309Y005088D01*
X004309Y004783D01*
X004309Y004479D01*
X004324Y004423D01*
X004353Y004372D01*
X004394Y004331D01*
X004444Y004302D01*
X004500Y004287D01*
X004683Y004287D01*
X004663Y004240D01*
X004663Y003594D01*
X004700Y003505D01*
X004767Y003438D01*
X004855Y003401D01*
X005345Y003401D01*
X005433Y003438D01*
X005500Y003505D01*
X005537Y003594D01*
X005537Y003617D01*
X006909Y003617D01*
X007175Y003351D01*
X007175Y002720D01*
X007103Y002690D01*
X007035Y002623D01*
X006999Y002535D01*
X006999Y002124D01*
X007035Y002036D01*
X007096Y001975D01*
X007042Y001921D01*
X006677Y001921D01*
X006667Y001946D01*
X006496Y002117D01*
X006271Y002210D01*
X006029Y002210D01*
X005804Y002117D01*
X005660Y001973D01*
X005660Y002018D01*
X005623Y002106D01*
X005556Y002173D01*
X005468Y002210D01*
X004632Y002210D01*
X004544Y002173D01*
X004477Y002106D01*
X004440Y002018D01*
X004440Y001275D01*
X004224Y001275D01*
X003195Y002305D01*
X003243Y002325D01*
X003247Y002329D01*
X003258Y002323D01*
X003314Y002308D01*
X003560Y002308D01*
X003805Y002308D01*
X003861Y002323D01*
X003911Y002352D01*
X003952Y002393D01*
X003981Y002443D01*
X003996Y002499D01*
X003996Y002725D01*
X003996Y002951D01*
X003981Y003007D01*
X003952Y003057D01*
X003911Y003098D01*
X003861Y003127D01*
X003805Y003142D01*
X003560Y003142D01*
X003560Y002725D01*
X003996Y002725D01*
X003560Y002725D01*
X003560Y002725D01*
X003560Y002725D01*
X003560Y002308D01*
X003560Y002725D01*
X003560Y002725D01*
X003560Y003142D01*
X003314Y003142D01*
X003258Y003127D01*
X003247Y003121D01*
X003243Y003125D01*
X003190Y003147D01*
X003190Y003444D01*
X003239Y003493D01*
X003267Y003465D01*
X003317Y003436D01*
X003373Y003421D01*
X003599Y003421D01*
X003825Y003421D01*
X003881Y003436D01*
X003931Y003465D01*
X003972Y003506D01*
X004001Y003556D01*
X004016Y003612D01*
X004016Y003917D01*
X004016Y004221D01*
X004001Y004277D01*
X003972Y004328D01*
X003931Y004369D01*
X003881Y004398D01*
X003825Y004413D01*
X003642Y004413D01*
X003662Y004460D01*
X003662Y004688D01*
X003665Y004696D01*
X003665Y004871D01*
X003662Y004878D01*
X003662Y005106D01*
X003625Y005195D01*
X003558Y005262D01*
X003470Y005299D01*
X003332Y005299D01*
X002540Y006090D01*
X002540Y009918D01*
X003026Y010404D01*
X003385Y010404D01*
X003487Y010302D01*
X003723Y010204D01*
X003977Y010204D01*
X004213Y010302D01*
X004393Y010482D01*
X004490Y010717D01*
X004490Y010971D01*
X004393Y011207D01*
X004213Y011387D01*
X003977Y011484D01*
X003723Y011484D01*
X003487Y011387D01*
X003385Y011284D01*
X002757Y011284D01*
X002595Y011217D01*
X001851Y010473D01*
X001727Y010349D01*
X001725Y010344D01*
X001725Y012225D01*
X003210Y012225D01*
X003210Y012095D01*
X003307Y011860D01*
X003487Y011679D01*
X003723Y011582D01*
X003977Y011582D01*
X004213Y011679D01*
X004393Y011860D01*
X004490Y012095D01*
X004490Y012225D01*
X004785Y012225D01*
X004785Y011637D01*
X004852Y011476D01*
X005352Y010976D01*
X005476Y010852D01*
X005637Y010785D01*
X006811Y010785D01*
X006997Y010708D01*
X007203Y010708D01*
X007393Y010787D01*
X007538Y010932D01*
X007617Y011122D01*
X007617Y011328D01*
X007538Y011518D01*
X007453Y011604D01*
X008704Y010874D01*
X008726Y010852D01*
X008779Y010830D01*
X008829Y010801D01*
X008859Y010797D01*
X008887Y010785D01*
X008945Y010785D01*
X009002Y010777D01*
X009032Y010785D01*
X009811Y010785D01*
X009997Y010708D01*
X010203Y010708D01*
X010393Y010787D01*
X010538Y010932D01*
X010617Y011122D01*
X010617Y011328D01*
X010538Y011518D01*
X010393Y011663D01*
X010203Y011742D01*
X009997Y011742D01*
X009811Y011665D01*
X009094Y011665D01*
X007746Y012451D01*
X007724Y012473D01*
X007671Y012495D01*
X007621Y012524D01*
X007591Y012528D01*
X007563Y012540D01*
X007505Y012540D01*
X007448Y012548D01*
X007418Y012540D01*
X006657Y012540D01*
X006415Y012782D01*
X006415Y015915D01*
X006785Y016285D01*
X012111Y016285D01*
X010555Y014729D01*
X010471Y014645D01*
X010425Y014535D01*
X006415Y014535D01*
X006415Y014297D02*
X010425Y014297D01*
X010425Y014535D02*
X010425Y013631D01*
X010393Y013663D01*
X010203Y013742D01*
X009997Y013742D01*
X009807Y013663D01*
X009662Y013518D01*
X009583Y013328D01*
X009583Y013122D01*
X009662Y012932D01*
X009807Y012787D01*
X009997Y012708D01*
X010203Y012708D01*
X010393Y012787D01*
X010504Y012897D01*
X011096Y012305D01*
X011180Y012221D01*
X011290Y012175D01*
X011385Y012175D01*
X011327Y012116D01*
X011255Y011943D01*
X011255Y011757D01*
X011327Y011584D01*
X011425Y011485D01*
X011425Y008415D01*
X011471Y008305D01*
X011555Y008221D01*
X011930Y007846D01*
X012040Y007800D01*
X012708Y007800D01*
X012705Y007795D01*
X012690Y007739D01*
X012690Y007600D01*
X013225Y007600D01*
X013760Y007600D01*
X013760Y007739D01*
X013756Y007754D01*
X013827Y007584D01*
X013925Y007485D01*
X013925Y007474D01*
X013851Y007400D01*
X013742Y007400D01*
X013745Y007405D01*
X013760Y007461D01*
X013760Y007600D01*
X013225Y007600D01*
X013225Y007600D01*
X013225Y007600D01*
X012690Y007600D01*
X012690Y007461D01*
X012705Y007405D01*
X012727Y007367D01*
X012707Y007346D01*
X012670Y007258D01*
X012670Y006942D01*
X012688Y006900D01*
X012456Y006900D01*
X012345Y006854D01*
X011757Y006266D01*
X011917Y006426D02*
X004425Y006426D01*
X004393Y006348D02*
X004490Y006583D01*
X004490Y006838D01*
X004393Y007073D01*
X004213Y007253D01*
X003977Y007350D01*
X003723Y007350D01*
X003487Y007253D01*
X003307Y007073D01*
X003210Y006838D01*
X003210Y006583D01*
X003307Y006348D01*
X003487Y006168D01*
X003723Y006070D01*
X003977Y006070D01*
X004213Y006168D01*
X004393Y006348D01*
X004232Y006188D02*
X011350Y006188D01*
X011288Y005949D02*
X002681Y005949D01*
X002920Y005711D02*
X011288Y005711D01*
X011316Y005472D02*
X003158Y005472D01*
X003586Y005234D02*
X004393Y005234D01*
X004309Y004995D02*
X003662Y004995D01*
X003665Y004757D02*
X004309Y004757D01*
X004309Y004783D02*
X004726Y004783D01*
X004726Y004783D01*
X004309Y004783D01*
X004309Y004518D02*
X003662Y004518D01*
X004000Y004280D02*
X004679Y004280D01*
X004663Y004041D02*
X004016Y004041D01*
X004016Y003917D02*
X003599Y003917D01*
X003599Y003917D01*
X004016Y003917D01*
X004016Y003803D02*
X004663Y003803D01*
X004675Y003564D02*
X004003Y003564D01*
X003599Y003564D02*
X003599Y003564D01*
X003599Y003421D02*
X003599Y003917D01*
X003599Y003917D01*
X003599Y003421D01*
X003560Y003087D02*
X003560Y003087D01*
X003560Y002849D02*
X003560Y002849D01*
X003560Y002610D02*
X003560Y002610D01*
X003560Y002372D02*
X003560Y002372D01*
X003366Y002133D02*
X004504Y002133D01*
X004440Y001895D02*
X003605Y001895D01*
X003843Y001656D02*
X004440Y001656D01*
X004440Y001418D02*
X004082Y001418D01*
X003931Y002372D02*
X006999Y002372D01*
X006999Y002133D02*
X006457Y002133D01*
X007030Y002610D02*
X003996Y002610D01*
X003996Y002849D02*
X007175Y002849D01*
X007175Y003087D02*
X003922Y003087D01*
X003599Y003803D02*
X003599Y003803D01*
X003190Y003326D02*
X007175Y003326D01*
X006962Y003564D02*
X005525Y003564D01*
X004726Y004783D02*
X004726Y004783D01*
X004726Y005279D01*
X004726Y004783D01*
X004726Y004995D02*
X004726Y004995D01*
X004726Y005234D02*
X004726Y005234D01*
X005059Y005234D02*
X005113Y005234D01*
X005835Y005234D02*
X011288Y005234D01*
X011288Y004995D02*
X007381Y004995D01*
X007391Y004757D02*
X010682Y004757D01*
X010976Y004757D02*
X010976Y004757D01*
X010976Y004779D02*
X010976Y004283D01*
X010559Y004283D01*
X010976Y004283D01*
X010976Y004283D01*
X010976Y004283D01*
X010976Y004779D01*
X010976Y004518D02*
X010976Y004518D01*
X010559Y004518D02*
X007566Y004518D01*
X007804Y004280D02*
X010559Y004280D01*
X010559Y004041D02*
X008043Y004041D01*
X008251Y003803D02*
X010694Y003803D01*
X010913Y003564D02*
X008275Y003564D01*
X008275Y003326D02*
X010913Y003326D01*
X010916Y003087D02*
X008275Y003087D01*
X008275Y002849D02*
X011494Y002849D01*
X011733Y002610D02*
X008275Y002610D01*
X008275Y002372D02*
X011749Y002372D01*
X011749Y002133D02*
X011207Y002133D01*
X010593Y002133D02*
X010346Y002133D01*
X009254Y002133D02*
X008275Y002133D01*
X008275Y001895D02*
X009190Y001895D01*
X009190Y001656D02*
X008275Y001656D01*
X008275Y001418D02*
X009190Y001418D01*
X011866Y003326D02*
X012255Y003326D01*
X012305Y003564D02*
X011787Y003564D01*
X012053Y003803D02*
X012589Y003803D01*
X012325Y003087D02*
X012104Y003087D01*
X012343Y002849D02*
X015654Y002849D01*
X015654Y002610D02*
X012670Y002610D01*
X012701Y002372D02*
X015654Y002372D01*
X015584Y002133D02*
X014832Y002133D01*
X014218Y002133D02*
X013971Y002133D01*
X012879Y002133D02*
X012701Y002133D01*
X012673Y001895D02*
X012815Y001895D01*
X012815Y001656D02*
X012701Y001656D01*
X012701Y001418D02*
X012815Y001418D01*
X014409Y003087D02*
X014901Y003087D01*
X015591Y003087D02*
X015609Y003087D01*
X016254Y002849D02*
X020050Y002849D01*
X020050Y002610D02*
X016254Y002610D01*
X016254Y002372D02*
X019394Y002372D01*
X019394Y002204D02*
X019850Y002204D01*
X019394Y002204D01*
X019394Y002133D02*
X018957Y002133D01*
X018343Y002133D02*
X018096Y002133D01*
X017004Y002133D02*
X016254Y002133D01*
X016194Y001895D02*
X016940Y001895D01*
X016940Y001656D02*
X015955Y001656D01*
X015717Y001418D02*
X016940Y001418D01*
X016299Y003087D02*
X020050Y003087D01*
X020050Y003326D02*
X016352Y003326D01*
X016352Y003564D02*
X020050Y003564D01*
X020050Y003803D02*
X016334Y003803D01*
X016340Y004041D02*
X020050Y004041D01*
X020050Y004280D02*
X016371Y004280D01*
X016371Y004518D02*
X020050Y004518D01*
X020650Y004280D02*
X021925Y004280D01*
X021925Y004518D02*
X020692Y004518D01*
X020931Y004757D02*
X021925Y004757D01*
X021925Y004995D02*
X021169Y004995D01*
X021648Y005234D02*
X021925Y005234D01*
X021925Y005472D02*
X021806Y005472D01*
X021813Y005711D02*
X021925Y005711D01*
X021925Y005949D02*
X021666Y005949D01*
X021925Y007619D02*
X019860Y007619D01*
X019890Y007857D02*
X021925Y007857D01*
X021925Y008096D02*
X019890Y008096D01*
X019890Y008334D02*
X021925Y008334D01*
X021925Y008573D02*
X019865Y008573D01*
X019941Y008811D02*
X021925Y008811D01*
X021925Y009050D02*
X020010Y009050D01*
X019982Y009288D02*
X021925Y009288D01*
X021925Y009527D02*
X019836Y009527D01*
X019822Y009765D02*
X021925Y009765D01*
X021925Y010004D02*
X019910Y010004D01*
X019901Y010242D02*
X021925Y010242D01*
X021925Y010481D02*
X019782Y010481D01*
X019873Y010719D02*
X019910Y010807D01*
X019910Y011196D02*
X021925Y011196D01*
X021270Y013104D02*
X020895Y013479D01*
X020785Y013525D01*
X019836Y013525D01*
X019807Y013581D02*
X022200Y013581D01*
X022200Y013820D02*
X019857Y013820D01*
X019991Y014058D02*
X022200Y014058D01*
X022200Y014297D02*
X020010Y014297D01*
X019932Y014535D02*
X022200Y014535D01*
X022200Y014774D02*
X019670Y014774D01*
X019130Y014774D02*
X012591Y014774D01*
X012695Y014535D02*
X018868Y014535D01*
X018790Y014297D02*
X012660Y014297D01*
X012662Y014058D02*
X018809Y014058D01*
X018943Y013820D02*
X012662Y013820D01*
X012641Y013581D02*
X015916Y013581D01*
X016534Y013581D02*
X018793Y013581D01*
X018797Y012866D02*
X016530Y012866D01*
X015920Y012866D02*
X015845Y012866D01*
X015845Y012627D02*
X018939Y012627D01*
X018807Y012389D02*
X015843Y012389D01*
X015845Y012150D02*
X018790Y012150D01*
X018870Y011912D02*
X015833Y011912D01*
X015845Y011673D02*
X018703Y011673D01*
X018690Y011435D02*
X015764Y011435D01*
X014628Y010481D02*
X018818Y010481D01*
X018783Y010446D02*
X018690Y010221D01*
X018690Y009979D01*
X018783Y009754D01*
X018954Y009583D01*
X019001Y009564D01*
X018778Y009765D02*
X014343Y009765D01*
X014642Y010004D02*
X018690Y010004D01*
X018699Y010242D02*
X014695Y010242D01*
X014683Y009288D02*
X013747Y009288D01*
X013760Y009050D02*
X014670Y009050D01*
X014692Y008811D02*
X014188Y008811D01*
X014427Y008573D02*
X014670Y008573D01*
X014702Y008334D02*
X014525Y008334D01*
X014632Y008096D02*
X014670Y008096D01*
X014670Y007619D02*
X014638Y007619D01*
X013812Y007619D02*
X013760Y007619D01*
X012719Y007380D02*
X011041Y007380D01*
X011009Y007457D02*
X011105Y007225D01*
X011105Y006975D01*
X011009Y006743D01*
X010832Y006566D01*
X010600Y006470D01*
X010350Y006470D01*
X010118Y006566D01*
X009941Y006743D01*
X009845Y006975D01*
X009845Y007225D01*
X009941Y007457D01*
X010118Y007634D01*
X010350Y007730D01*
X010600Y007730D01*
X010832Y007634D01*
X011009Y007457D01*
X010847Y007619D02*
X012690Y007619D01*
X012670Y007142D02*
X011105Y007142D01*
X011075Y006903D02*
X012686Y006903D01*
X012156Y006665D02*
X010930Y006665D01*
X010020Y006665D02*
X006930Y006665D01*
X007009Y006743D02*
X007105Y006975D01*
X007105Y007221D01*
X007405Y007521D01*
X007460Y007653D01*
X007460Y007854D01*
X007538Y007932D01*
X007617Y008122D01*
X007617Y008328D01*
X007538Y008518D01*
X007393Y008663D01*
X007203Y008742D01*
X006997Y008742D01*
X006807Y008663D01*
X006662Y008518D01*
X006583Y008328D01*
X006583Y008122D01*
X006662Y007932D01*
X006730Y007864D01*
X006596Y007730D01*
X006350Y007730D01*
X006118Y007634D01*
X005941Y007457D01*
X005845Y007225D01*
X005845Y006975D01*
X005941Y006743D01*
X006118Y006566D01*
X006350Y006470D01*
X006600Y006470D01*
X006832Y006566D01*
X007009Y006743D01*
X007075Y006903D02*
X009875Y006903D01*
X009845Y007142D02*
X007105Y007142D01*
X007264Y007380D02*
X009909Y007380D01*
X010103Y007619D02*
X007446Y007619D01*
X007463Y007857D02*
X009737Y007857D01*
X009807Y007787D02*
X009662Y007932D01*
X009583Y008122D01*
X009583Y008328D01*
X009662Y008518D01*
X009807Y008663D01*
X009997Y008742D01*
X010203Y008742D01*
X010393Y008663D01*
X010538Y008518D01*
X010617Y008328D01*
X010617Y008122D01*
X010538Y007932D01*
X010393Y007787D01*
X010203Y007708D01*
X009997Y007708D01*
X009807Y007787D01*
X009594Y008096D02*
X007606Y008096D01*
X007615Y008334D02*
X009585Y008334D01*
X009716Y008573D02*
X007484Y008573D01*
X007100Y008225D02*
X007100Y007725D01*
X006475Y007100D01*
X006020Y006665D02*
X004490Y006665D01*
X004463Y006903D02*
X005875Y006903D01*
X005845Y007142D02*
X004324Y007142D01*
X004088Y007514D02*
X004175Y007558D01*
X004254Y007615D01*
X004323Y007684D01*
X004380Y007763D01*
X004425Y007850D01*
X004455Y007943D01*
X004470Y008039D01*
X004470Y008088D01*
X003850Y008088D01*
X003850Y007468D01*
X003899Y007468D01*
X003995Y007483D01*
X004088Y007514D01*
X004257Y007619D02*
X006103Y007619D01*
X005909Y007380D02*
X002540Y007380D01*
X002540Y007142D02*
X003376Y007142D01*
X003237Y006903D02*
X002540Y006903D01*
X002540Y006665D02*
X003210Y006665D01*
X003275Y006426D02*
X002540Y006426D01*
X002540Y006188D02*
X003468Y006188D01*
X003705Y007483D02*
X003612Y007514D01*
X003525Y007558D01*
X003446Y007615D01*
X003377Y007684D01*
X003320Y007763D01*
X003275Y007850D01*
X003245Y007943D01*
X003230Y008039D01*
X003230Y008088D01*
X003850Y008088D01*
X003850Y008088D01*
X003850Y007468D01*
X003801Y007468D01*
X003705Y007483D01*
X003850Y007619D02*
X003850Y007619D01*
X003850Y007857D02*
X003850Y007857D01*
X003850Y008088D02*
X003850Y008088D01*
X003850Y008088D01*
X003230Y008088D01*
X003230Y008137D01*
X003245Y008233D01*
X003275Y008326D01*
X003320Y008413D01*
X003377Y008492D01*
X003446Y008561D01*
X003525Y008618D01*
X003612Y008663D01*
X003705Y008693D01*
X003801Y008708D01*
X003850Y008708D01*
X003850Y008088D01*
X004470Y008088D01*
X004470Y008137D01*
X004455Y008233D01*
X004425Y008326D01*
X004380Y008413D01*
X004323Y008492D01*
X004254Y008561D01*
X004175Y008618D01*
X004088Y008663D01*
X003995Y008693D01*
X003899Y008708D01*
X003850Y008708D01*
X003850Y008088D01*
X003850Y008088D01*
X003850Y008096D02*
X003850Y008096D01*
X003850Y008334D02*
X003850Y008334D01*
X003850Y008573D02*
X003850Y008573D01*
X003723Y008826D02*
X003977Y008826D01*
X004213Y008924D01*
X004393Y009104D01*
X004490Y009339D01*
X004490Y009593D01*
X004393Y009829D01*
X004213Y010009D01*
X003977Y010106D01*
X003723Y010106D01*
X003487Y010009D01*
X003307Y009829D01*
X003210Y009593D01*
X003210Y009339D01*
X003307Y009104D01*
X003487Y008924D01*
X003723Y008826D01*
X003462Y008573D02*
X002540Y008573D01*
X002540Y008811D02*
X011425Y008811D01*
X011425Y008573D02*
X010484Y008573D01*
X010615Y008334D02*
X011459Y008334D01*
X011680Y008096D02*
X010606Y008096D01*
X010463Y007857D02*
X011919Y007857D01*
X012052Y008573D02*
X012670Y008573D01*
X012692Y008811D02*
X012025Y008811D01*
X012025Y009050D02*
X012690Y009050D01*
X012703Y009288D02*
X012025Y009288D01*
X011425Y009288D02*
X004469Y009288D01*
X004490Y009527D02*
X011425Y009527D01*
X011425Y009765D02*
X004419Y009765D01*
X004218Y010004D02*
X011425Y010004D01*
X011425Y010242D02*
X004069Y010242D01*
X004392Y010481D02*
X011425Y010481D01*
X011425Y010719D02*
X010230Y010719D01*
X009970Y010719D02*
X007230Y010719D01*
X006970Y010719D02*
X004490Y010719D01*
X004490Y010958D02*
X005370Y010958D01*
X005132Y011196D02*
X004397Y011196D01*
X004097Y011435D02*
X004893Y011435D01*
X004785Y011673D02*
X004197Y011673D01*
X004414Y011912D02*
X004785Y011912D01*
X004785Y012150D02*
X004490Y012150D01*
X003503Y011673D02*
X001725Y011673D01*
X001725Y011435D02*
X003603Y011435D01*
X003286Y011912D02*
X001725Y011912D01*
X001725Y012150D02*
X003210Y012150D01*
X002574Y011196D02*
X001725Y011196D01*
X001725Y010958D02*
X002335Y010958D01*
X002097Y010719D02*
X001725Y010719D01*
X001725Y010481D02*
X001858Y010481D01*
X002626Y010004D02*
X003482Y010004D01*
X003631Y010242D02*
X002864Y010242D01*
X002540Y009765D02*
X003281Y009765D01*
X003210Y009527D02*
X002540Y009527D01*
X002540Y009288D02*
X003231Y009288D01*
X003362Y009050D02*
X002540Y009050D01*
X002540Y008334D02*
X003279Y008334D01*
X003230Y008096D02*
X002540Y008096D01*
X002540Y007857D02*
X003273Y007857D01*
X003443Y007619D02*
X002540Y007619D01*
X004238Y008573D02*
X006716Y008573D01*
X006585Y008334D02*
X004421Y008334D01*
X004470Y008096D02*
X006594Y008096D01*
X006723Y007857D02*
X004427Y007857D01*
X004338Y009050D02*
X011425Y009050D01*
X013225Y009288D02*
X013225Y009288D01*
X011425Y010958D02*
X010549Y010958D01*
X010617Y011196D02*
X011425Y011196D01*
X011425Y011435D02*
X010573Y011435D01*
X010370Y011673D02*
X011290Y011673D01*
X011255Y011912D02*
X008671Y011912D01*
X008263Y012150D02*
X011360Y012150D01*
X011012Y012389D02*
X007854Y012389D01*
X007424Y012846D02*
X007479Y012901D01*
X007525Y012964D01*
X007561Y013034D01*
X007585Y013109D01*
X007597Y013186D01*
X007597Y013225D01*
X007597Y013264D01*
X007585Y013341D01*
X007561Y013416D01*
X007525Y013486D01*
X007479Y013549D01*
X007424Y013604D01*
X007361Y013650D01*
X007291Y013686D01*
X007216Y013710D01*
X007139Y013722D01*
X007100Y013722D01*
X007100Y013225D01*
X007100Y013225D01*
X007597Y013225D01*
X007100Y013225D01*
X007100Y013225D01*
X007100Y013225D01*
X006603Y013225D01*
X006603Y013186D01*
X006615Y013109D01*
X006639Y013034D01*
X006675Y012964D01*
X006721Y012901D01*
X006776Y012846D01*
X006839Y012800D01*
X006909Y012764D01*
X006984Y012740D01*
X007061Y012728D01*
X007100Y012728D01*
X007139Y012728D01*
X007216Y012740D01*
X007291Y012764D01*
X007361Y012800D01*
X007424Y012846D01*
X007444Y012866D02*
X009728Y012866D01*
X009590Y013104D02*
X007583Y013104D01*
X007585Y013343D02*
X009589Y013343D01*
X009725Y013581D02*
X007447Y013581D01*
X007100Y013581D02*
X007100Y013581D01*
X007100Y013722D02*
X007061Y013722D01*
X006984Y013710D01*
X006909Y013686D01*
X006839Y013650D01*
X006776Y013604D01*
X006721Y013549D01*
X006675Y013486D01*
X006639Y013416D01*
X006615Y013341D01*
X006603Y013264D01*
X006603Y013225D01*
X007100Y013225D01*
X007100Y013722D01*
X006753Y013581D02*
X006415Y013581D01*
X006415Y013820D02*
X010425Y013820D01*
X010425Y014058D02*
X006415Y014058D01*
X006415Y014774D02*
X006839Y014774D01*
X006807Y014787D02*
X006997Y014708D01*
X007203Y014708D01*
X007393Y014787D01*
X007538Y014932D01*
X007617Y015122D01*
X007617Y015328D01*
X007538Y015518D01*
X007393Y015663D01*
X007203Y015742D01*
X006997Y015742D01*
X006807Y015663D01*
X006662Y015518D01*
X006583Y015328D01*
X006583Y015122D01*
X006662Y014932D01*
X006807Y014787D01*
X006628Y015012D02*
X006415Y015012D01*
X006415Y015251D02*
X006583Y015251D01*
X006650Y015489D02*
X006415Y015489D01*
X006415Y015728D02*
X006962Y015728D01*
X007238Y015728D02*
X009962Y015728D01*
X009997Y015742D02*
X009807Y015663D01*
X009662Y015518D01*
X009583Y015328D01*
X009583Y015122D01*
X009662Y014932D01*
X009807Y014787D01*
X009997Y014708D01*
X010203Y014708D01*
X010393Y014787D01*
X010538Y014932D01*
X010617Y015122D01*
X010617Y015328D01*
X010538Y015518D01*
X010393Y015663D01*
X010203Y015742D01*
X009997Y015742D01*
X010238Y015728D02*
X011553Y015728D01*
X011792Y015966D02*
X006466Y015966D01*
X006705Y016205D02*
X012030Y016205D01*
X012663Y015489D02*
X022200Y015489D01*
X022200Y015251D02*
X012425Y015251D01*
X012186Y015012D02*
X022200Y015012D01*
X022200Y015728D02*
X018881Y015728D01*
X019120Y015966D02*
X022200Y015966D01*
X022200Y016205D02*
X020451Y016205D01*
X020451Y016443D02*
X022200Y016443D01*
X022200Y016682D02*
X020397Y016682D01*
X020431Y016920D02*
X022200Y016920D01*
X022200Y017159D02*
X020431Y017159D01*
X020362Y017397D02*
X022200Y017397D01*
X022200Y017636D02*
X016685Y017636D01*
X016923Y017874D02*
X018004Y017874D01*
X017685Y017397D02*
X016446Y017397D01*
X016208Y017159D02*
X017624Y017159D01*
X017624Y016920D02*
X015969Y016920D01*
X015731Y016682D02*
X017017Y016682D01*
X016880Y016443D02*
X016880Y016257D01*
X016924Y016150D01*
X013324Y016150D01*
X013599Y016425D01*
X015410Y016425D01*
X016902Y016205D02*
X013379Y016205D01*
X013371Y017874D02*
X015127Y017874D01*
X015179Y018113D02*
X015365Y018113D01*
X015347Y018351D02*
X015353Y018351D01*
X015347Y018590D02*
X015353Y018590D01*
X015347Y018828D02*
X015353Y018828D01*
X015470Y019067D02*
X015230Y019067D01*
X014470Y019067D02*
X012236Y019067D01*
X012335Y018828D02*
X013081Y018828D01*
X012842Y018590D02*
X012352Y018590D01*
X012326Y018351D02*
X012604Y018351D01*
X012365Y018113D02*
X012228Y018113D01*
X012127Y017874D02*
X012015Y017874D01*
X010809Y017874D02*
X009715Y017874D01*
X009928Y018113D02*
X010596Y018113D01*
X010498Y018351D02*
X010026Y018351D01*
X010052Y018590D02*
X010472Y018590D01*
X010489Y018828D02*
X010035Y018828D01*
X009936Y019067D02*
X010588Y019067D01*
X010788Y019305D02*
X009736Y019305D01*
X008488Y019305D02*
X007475Y019305D01*
X007475Y019067D02*
X008288Y019067D01*
X008189Y018828D02*
X007475Y018828D01*
X007475Y018590D02*
X008172Y018590D01*
X008198Y018351D02*
X007475Y018351D01*
X007475Y018113D02*
X008296Y018113D01*
X008509Y017874D02*
X007475Y017874D01*
X007475Y019544D02*
X016568Y019544D01*
X016882Y019544D02*
X020406Y019544D01*
X020555Y019305D02*
X019442Y019305D01*
X019556Y019067D02*
X020556Y019067D01*
X020620Y018828D02*
X019556Y018828D01*
X019489Y018590D02*
X020741Y018590D01*
X020944Y018351D02*
X019576Y018351D01*
X019576Y018113D02*
X021337Y018113D01*
X022200Y017874D02*
X019446Y017874D01*
X019515Y017397D02*
X019588Y017397D01*
X019975Y017397D02*
X019975Y017397D01*
X019975Y017457D02*
X019975Y017079D01*
X019975Y017079D01*
X019975Y017457D01*
X019975Y017159D02*
X019975Y017159D01*
X018685Y017397D02*
X018515Y017397D01*
X018696Y017874D02*
X018754Y017874D01*
X019100Y018954D02*
X019100Y019332D01*
X019100Y018954D01*
X019100Y018954D01*
X019100Y019067D02*
X019100Y019067D01*
X019100Y019305D02*
X019100Y019305D01*
X018758Y019305D02*
X018732Y019305D01*
X016301Y019305D02*
X012036Y019305D01*
X013610Y018113D02*
X014521Y018113D01*
X016230Y019067D02*
X016255Y019067D01*
X011315Y015489D02*
X010550Y015489D01*
X010617Y015251D02*
X011076Y015251D01*
X010838Y015012D02*
X010572Y015012D01*
X010599Y014774D02*
X010361Y014774D01*
X009839Y014774D02*
X007361Y014774D01*
X007572Y015012D02*
X009628Y015012D01*
X009583Y015251D02*
X007617Y015251D01*
X007550Y015489D02*
X009650Y015489D01*
X007100Y013343D02*
X007100Y013343D01*
X007100Y013225D02*
X007100Y012728D01*
X007100Y013225D01*
X007100Y013225D01*
X007100Y013104D02*
X007100Y013104D01*
X007100Y012866D02*
X007100Y012866D01*
X006756Y012866D02*
X006415Y012866D01*
X006415Y013104D02*
X006617Y013104D01*
X006615Y013343D02*
X006415Y013343D01*
X006570Y012627D02*
X010774Y012627D01*
X010535Y012866D02*
X010472Y012866D01*
X009830Y011673D02*
X009080Y011673D01*
X008560Y010958D02*
X007549Y010958D01*
X007617Y011196D02*
X008151Y011196D01*
X007743Y011435D02*
X007573Y011435D01*
X012025Y011435D02*
X012718Y011435D01*
X012710Y011439D02*
X012760Y011410D01*
X012816Y011395D01*
X013125Y011395D01*
X013125Y011725D01*
X013125Y011725D01*
X013125Y011725D01*
X012625Y011725D01*
X012625Y011586D01*
X012640Y011530D01*
X012669Y011480D01*
X012710Y011439D01*
X012625Y011673D02*
X012160Y011673D01*
X012195Y011912D02*
X012638Y011912D01*
X013125Y011673D02*
X013125Y011673D01*
X013125Y011435D02*
X013125Y011435D01*
X013645Y012866D02*
X013660Y012866D01*
X018727Y010719D02*
X018794Y010652D01*
X018882Y010615D01*
X018952Y010615D01*
X018783Y010446D01*
X019300Y008096D02*
X019300Y008096D01*
X019300Y007857D02*
X019300Y007857D01*
X019300Y007619D02*
X019300Y007619D01*
X015935Y004518D02*
X015935Y004518D01*
X019850Y002582D02*
X019850Y002204D01*
X019850Y002204D01*
X019850Y002204D01*
X019850Y002582D01*
X019850Y002372D02*
X019850Y002372D01*
X020650Y002372D02*
X020697Y002372D01*
X020650Y002610D02*
X020936Y002610D01*
X021174Y002849D02*
X020650Y002849D01*
X020650Y003087D02*
X021413Y003087D01*
X021651Y003326D02*
X020650Y003326D01*
X020650Y003564D02*
X021890Y003564D01*
X021925Y003803D02*
X020650Y003803D01*
X020650Y004041D02*
X021925Y004041D01*
X022200Y013343D02*
X021032Y013343D01*
X011356Y004757D02*
X011270Y004757D01*
X005843Y002133D02*
X005596Y002133D01*
D31*
X003225Y004783D02*
X002100Y005908D01*
X002100Y010100D01*
X002844Y010844D01*
X003850Y010844D01*
X005225Y011725D02*
X005725Y011225D01*
X007100Y011225D01*
X007475Y012100D02*
X006475Y012100D01*
X005975Y012600D01*
X005975Y016350D01*
X006350Y016725D01*
X012600Y016725D01*
X013100Y017225D01*
X015100Y017225D01*
X015850Y017975D01*
X015850Y018600D01*
X014850Y018600D02*
X013475Y018600D01*
X012225Y017350D01*
X005975Y017350D01*
X005225Y016600D01*
X005225Y011725D01*
X004600Y012725D02*
X004365Y012725D01*
X004258Y012832D01*
X004095Y012900D01*
X004280Y012900D01*
X004338Y012912D01*
X004392Y012934D01*
X004441Y012967D01*
X004483Y013009D01*
X004516Y013058D01*
X004538Y013112D01*
X004550Y013170D01*
X004550Y013600D01*
X004550Y014030D01*
X004538Y014088D01*
X004516Y014142D01*
X004483Y014191D01*
X004441Y014233D01*
X004392Y014266D01*
X004338Y014288D01*
X004280Y014300D01*
X003850Y014300D01*
X003850Y013600D01*
X003850Y013600D01*
X004550Y013600D01*
X003850Y013600D01*
X003850Y013600D01*
X003850Y013600D01*
X003150Y013600D01*
X003150Y014030D01*
X003162Y014088D01*
X003184Y014142D01*
X003217Y014191D01*
X003259Y014233D01*
X003308Y014266D01*
X003362Y014288D01*
X003420Y014300D01*
X003850Y014300D01*
X003850Y013600D01*
X003150Y013600D01*
X003150Y013170D01*
X003162Y013112D01*
X003184Y013058D01*
X003217Y013009D01*
X003259Y012967D01*
X003308Y012934D01*
X003362Y012912D01*
X003420Y012900D01*
X003605Y012900D01*
X003442Y012832D01*
X003335Y012725D01*
X002350Y012725D01*
X001850Y013225D01*
X001850Y018267D01*
X001993Y018350D01*
X002225Y018582D01*
X002390Y018868D01*
X002475Y019185D01*
X002475Y019475D01*
X002621Y019621D01*
X006975Y019621D01*
X006975Y017870D01*
X006522Y017870D01*
X006585Y017933D01*
X006655Y018020D01*
X006715Y018116D01*
X006763Y018217D01*
X006800Y018323D01*
X006825Y018432D01*
X006838Y018544D01*
X006838Y018550D01*
X005888Y018550D01*
X005888Y018650D01*
X006838Y018650D01*
X006838Y018656D01*
X006825Y018768D01*
X006800Y018877D01*
X006763Y018983D01*
X006715Y019084D01*
X006655Y019180D01*
X006585Y019267D01*
X006505Y019347D01*
X006418Y019417D01*
X006322Y019477D01*
X006221Y019525D01*
X006115Y019562D01*
X006006Y019587D01*
X005894Y019600D01*
X005888Y019600D01*
X005888Y018650D01*
X005788Y018650D01*
X005788Y019600D01*
X005782Y019600D01*
X005670Y019587D01*
X005561Y019562D01*
X005455Y019525D01*
X005354Y019477D01*
X005258Y019417D01*
X005171Y019347D01*
X005091Y019267D01*
X005021Y019180D01*
X004961Y019084D01*
X004913Y018983D01*
X004876Y018877D01*
X004851Y018768D01*
X004838Y018656D01*
X004838Y018650D01*
X005788Y018650D01*
X005788Y018550D01*
X004838Y018550D01*
X004838Y018544D01*
X004851Y018432D01*
X004876Y018323D01*
X004913Y018217D01*
X004961Y018116D01*
X005021Y018020D01*
X005091Y017933D01*
X005171Y017853D01*
X005258Y017783D01*
X005354Y017723D01*
X005455Y017675D01*
X005536Y017646D01*
X005534Y017645D01*
X005534Y017645D01*
X004930Y017041D01*
X004784Y016895D01*
X004705Y016703D01*
X004705Y012830D01*
X004600Y012725D01*
X004705Y012977D02*
X004451Y012977D01*
X004550Y013376D02*
X004705Y013376D01*
X004705Y013774D02*
X004550Y013774D01*
X004496Y014173D02*
X004705Y014173D01*
X004705Y014571D02*
X001850Y014571D01*
X001850Y014173D02*
X003204Y014173D01*
X003150Y013774D02*
X001850Y013774D01*
X001850Y013376D02*
X003150Y013376D01*
X003249Y012977D02*
X002098Y012977D01*
X003850Y013774D02*
X003850Y013774D01*
X003850Y014173D02*
X003850Y014173D01*
X004705Y014970D02*
X001850Y014970D01*
X001850Y015368D02*
X004705Y015368D01*
X004705Y015767D02*
X001850Y015767D01*
X001850Y016165D02*
X004705Y016165D01*
X004705Y016564D02*
X001850Y016564D01*
X001850Y016962D02*
X004852Y016962D01*
X004930Y017041D02*
X004930Y017041D01*
X005250Y017361D02*
X001850Y017361D01*
X001850Y017759D02*
X002955Y017759D01*
X002912Y017784D02*
X003144Y017650D01*
X003404Y017580D01*
X003672Y017580D01*
X003932Y017650D01*
X004164Y017784D01*
X004354Y017974D01*
X004488Y018206D01*
X004558Y018466D01*
X004558Y018734D01*
X004488Y018994D01*
X004354Y019226D01*
X004164Y019416D01*
X003932Y019550D01*
X003672Y019620D01*
X003404Y019620D01*
X003144Y019550D01*
X002912Y019416D01*
X002722Y019226D01*
X002588Y018994D01*
X002518Y018734D01*
X002518Y018466D01*
X002588Y018206D01*
X002722Y017974D01*
X002912Y017784D01*
X002616Y018158D02*
X001850Y018158D01*
X002199Y018556D02*
X002518Y018556D01*
X002577Y018955D02*
X002413Y018955D01*
X002475Y019353D02*
X002849Y019353D01*
X004227Y019353D02*
X005178Y019353D01*
X004903Y018955D02*
X004499Y018955D01*
X004558Y018556D02*
X005788Y018556D01*
X005888Y018556D02*
X006975Y018556D01*
X006975Y018158D02*
X006735Y018158D01*
X006773Y018955D02*
X006975Y018955D01*
X006975Y019353D02*
X006498Y019353D01*
X005888Y019353D02*
X005788Y019353D01*
X005788Y018955D02*
X005888Y018955D01*
X004941Y018158D02*
X004460Y018158D01*
X004121Y017759D02*
X005297Y017759D01*
X007475Y012100D02*
X008975Y011225D01*
X010100Y011225D01*
X013225Y006100D02*
X013225Y005225D01*
X010976Y004283D02*
X010350Y004909D01*
X010350Y005350D01*
D32*
X010350Y005350D03*
X013225Y005225D03*
D33*
X006150Y001600D02*
X006150Y001550D01*
X006185Y001515D01*
M02*
