G75*
%MOIN*%
%OFA0B0*%
%FSLAX24Y24*%
%IPPOS*%
%LPD*%
%AMOC8*
5,1,8,0,0,1.08239X$1,22.5*
%
%ADD10C,0.0080*%
%ADD11C,0.0060*%
%ADD12C,0.0110*%
%ADD13C,0.0100*%
%ADD14C,0.0020*%
%ADD15C,0.0050*%
%ADD16C,0.0010*%
%ADD17C,0.0040*%
%ADD18R,0.0300X0.0180*%
%ADD19R,0.0180X0.0300*%
%ADD20C,0.0030*%
D10*
X002433Y005820D02*
X002433Y014506D01*
X002748Y014506D01*
X002748Y005820D01*
X002433Y005820D01*
X002748Y005820D02*
X005189Y005820D01*
X005189Y014506D01*
X002748Y014506D01*
X003265Y016640D02*
X003585Y016960D01*
X003585Y017040D01*
X003505Y017120D01*
X003345Y017120D01*
X003265Y017040D01*
X003488Y017330D02*
X005888Y017330D01*
X005888Y019870D01*
X005858Y019870D02*
X003488Y019870D01*
X003488Y017330D01*
X003781Y016960D02*
X003941Y017120D01*
X004101Y016960D01*
X004101Y016640D01*
X003781Y016640D02*
X003781Y016960D01*
X003781Y016880D02*
X004101Y016880D01*
X003585Y016640D02*
X003265Y016640D01*
X004812Y016640D02*
X004812Y017120D01*
X005132Y017120D01*
X004972Y016880D02*
X004812Y016880D01*
X005328Y016720D02*
X005408Y016640D01*
X005648Y016640D01*
X005648Y016880D01*
X005568Y016960D01*
X005408Y016960D01*
X005408Y016800D02*
X005648Y016800D01*
X005843Y016880D02*
X005923Y016960D01*
X006163Y016960D01*
X006083Y016800D02*
X005923Y016800D01*
X005843Y016880D01*
X006083Y016800D02*
X006163Y016720D01*
X006083Y016640D01*
X005843Y016640D01*
X005408Y016800D02*
X005328Y016720D01*
X006359Y016960D02*
X006519Y016960D01*
X006439Y017040D02*
X006439Y016720D01*
X006519Y016640D01*
X007218Y016640D02*
X007218Y017120D01*
X007458Y017120D01*
X007539Y017040D01*
X007539Y016960D01*
X007458Y016880D01*
X007218Y016880D01*
X007458Y016880D02*
X007539Y016800D01*
X007539Y016720D01*
X007458Y016640D01*
X007218Y016640D01*
X007734Y016640D02*
X007894Y016640D01*
X007814Y016640D02*
X007814Y017120D01*
X007734Y017120D01*
X008078Y016880D02*
X008078Y016720D01*
X008158Y016640D01*
X008318Y016640D01*
X008398Y016720D01*
X008398Y016880D01*
X008318Y016960D01*
X008158Y016960D01*
X008078Y016880D01*
X008593Y016960D02*
X008593Y016720D01*
X008673Y016640D01*
X008753Y016720D01*
X008833Y016640D01*
X008914Y016720D01*
X008914Y016960D01*
X009062Y017330D02*
X009062Y019870D01*
X011462Y019870D01*
X011462Y017330D01*
X009092Y017330D01*
X009625Y017040D02*
X009625Y016720D01*
X009705Y016640D01*
X009865Y016640D01*
X009945Y016720D01*
X009945Y017040D01*
X009865Y017120D01*
X009705Y017120D01*
X009625Y017040D01*
X010140Y017120D02*
X010140Y016640D01*
X010460Y016640D02*
X010460Y017120D01*
X010656Y017120D02*
X010656Y016640D01*
X010976Y016640D01*
X011332Y016640D02*
X011332Y016880D01*
X011492Y017040D01*
X011492Y017120D01*
X011687Y017200D02*
X011687Y016880D01*
X011687Y016720D02*
X011687Y016640D01*
X011332Y016880D02*
X011171Y017040D01*
X011171Y017120D01*
X010460Y016640D02*
X010140Y017120D01*
X010509Y015623D02*
X010509Y007827D01*
X006691Y007827D01*
X006691Y015623D01*
X010509Y015623D01*
X012905Y015006D02*
X012905Y014265D01*
X013399Y014265D01*
X013660Y014265D02*
X013660Y015006D01*
X013907Y014759D01*
X014154Y015006D01*
X014154Y014265D01*
X014415Y014388D02*
X014539Y014265D01*
X014785Y014265D01*
X014909Y014388D01*
X014909Y014512D01*
X014785Y014635D01*
X014662Y014635D01*
X014785Y014635D02*
X014909Y014759D01*
X014909Y014882D01*
X014785Y015006D01*
X014539Y015006D01*
X014415Y014882D01*
X015170Y014882D02*
X015170Y014759D01*
X015294Y014635D01*
X015664Y014635D01*
X015664Y014388D02*
X015664Y014882D01*
X015540Y015006D01*
X015294Y015006D01*
X015170Y014882D01*
X015170Y014388D02*
X015294Y014265D01*
X015540Y014265D01*
X015664Y014388D01*
X015925Y014388D02*
X016049Y014265D01*
X016295Y014265D01*
X016419Y014388D01*
X016419Y014512D01*
X016295Y014635D01*
X016172Y014635D01*
X016295Y014635D02*
X016419Y014759D01*
X016419Y014882D01*
X016295Y015006D01*
X016049Y015006D01*
X015925Y014882D01*
X016680Y015006D02*
X016680Y014265D01*
X017174Y014265D02*
X017174Y015006D01*
X016927Y014759D01*
X016680Y015006D01*
X016804Y010631D02*
X016680Y010507D01*
X016804Y010631D02*
X017051Y010631D01*
X017174Y010507D01*
X017174Y010384D01*
X016680Y009890D01*
X017174Y009890D01*
X017435Y010013D02*
X017559Y009890D01*
X017806Y009890D01*
X017929Y010013D01*
X017929Y010260D01*
X017806Y010384D01*
X017682Y010384D01*
X017435Y010260D01*
X017435Y010631D01*
X017929Y010631D01*
X018190Y010631D02*
X018437Y010384D01*
X018684Y010631D01*
X018684Y009890D01*
X018190Y009890D02*
X018190Y010631D01*
X016419Y009890D02*
X015925Y009890D01*
X016172Y009890D02*
X016172Y010631D01*
X015925Y010384D01*
X015664Y010507D02*
X015540Y010631D01*
X015294Y010631D01*
X015170Y010507D01*
X015170Y010013D01*
X015294Y009890D01*
X015540Y009890D01*
X015664Y010013D01*
X014909Y009890D02*
X014909Y010631D01*
X014909Y010260D02*
X014415Y010260D01*
X014154Y010260D02*
X013660Y010260D01*
X014030Y010631D01*
X014030Y009890D01*
X014415Y009890D02*
X014415Y010631D01*
X013399Y010631D02*
X013399Y010507D01*
X012905Y010013D01*
X012905Y009890D01*
X012905Y010631D02*
X013399Y010631D01*
X016425Y007925D02*
X016425Y007525D01*
X015991Y008225D02*
X015993Y008287D01*
X015999Y008350D01*
X016009Y008411D01*
X016023Y008472D01*
X016040Y008532D01*
X016061Y008591D01*
X016087Y008648D01*
X016115Y008703D01*
X016147Y008757D01*
X016183Y008808D01*
X016221Y008858D01*
X016263Y008904D01*
X016307Y008948D01*
X016355Y008989D01*
X016404Y009027D01*
X016456Y009061D01*
X016510Y009092D01*
X016566Y009120D01*
X016624Y009144D01*
X016683Y009165D01*
X016743Y009181D01*
X016804Y009194D01*
X016866Y009203D01*
X016928Y009208D01*
X016991Y009209D01*
X017053Y009206D01*
X017115Y009199D01*
X017177Y009188D01*
X017237Y009173D01*
X017297Y009155D01*
X017355Y009133D01*
X017412Y009107D01*
X017467Y009077D01*
X017520Y009044D01*
X017571Y009008D01*
X017619Y008969D01*
X017665Y008926D01*
X017708Y008881D01*
X017748Y008833D01*
X017785Y008783D01*
X017819Y008730D01*
X017850Y008676D01*
X017876Y008620D01*
X017900Y008562D01*
X017919Y008502D01*
X017935Y008442D01*
X017947Y008380D01*
X017955Y008319D01*
X017959Y008256D01*
X017959Y008194D01*
X017955Y008131D01*
X017947Y008070D01*
X017935Y008008D01*
X017919Y007948D01*
X017900Y007888D01*
X017876Y007830D01*
X017850Y007774D01*
X017819Y007720D01*
X017785Y007667D01*
X017748Y007617D01*
X017708Y007569D01*
X017665Y007524D01*
X017619Y007481D01*
X017571Y007442D01*
X017520Y007406D01*
X017467Y007373D01*
X017412Y007343D01*
X017355Y007317D01*
X017297Y007295D01*
X017237Y007277D01*
X017177Y007262D01*
X017115Y007251D01*
X017053Y007244D01*
X016991Y007241D01*
X016928Y007242D01*
X016866Y007247D01*
X016804Y007256D01*
X016743Y007269D01*
X016683Y007285D01*
X016624Y007306D01*
X016566Y007330D01*
X016510Y007358D01*
X016456Y007389D01*
X016404Y007423D01*
X016355Y007461D01*
X016307Y007502D01*
X016263Y007546D01*
X016221Y007592D01*
X016183Y007642D01*
X016147Y007693D01*
X016115Y007747D01*
X016087Y007802D01*
X016061Y007859D01*
X016040Y007918D01*
X016023Y007978D01*
X016009Y008039D01*
X015999Y008100D01*
X015993Y008163D01*
X015991Y008225D01*
D11*
X016085Y007110D02*
X015685Y007110D01*
X014845Y005880D02*
X013605Y005880D01*
X013415Y004110D02*
X014535Y004110D01*
X014535Y003590D01*
X013415Y003590D01*
X013415Y004110D01*
X014380Y003050D02*
X014607Y003050D01*
X014748Y003107D02*
X014862Y002880D01*
X014975Y003107D01*
X015117Y003050D02*
X015173Y003107D01*
X015287Y003107D01*
X015343Y003050D01*
X015343Y002993D01*
X015117Y002993D01*
X015117Y002937D02*
X015117Y003050D01*
X015117Y002937D02*
X015173Y002880D01*
X015287Y002880D01*
X015275Y002698D02*
X015275Y002585D01*
X015275Y002698D02*
X015388Y002698D01*
X015445Y002642D01*
X015445Y002528D01*
X015388Y002472D01*
X015161Y002472D01*
X015105Y002528D01*
X015105Y002642D01*
X015161Y002698D01*
X015105Y002330D02*
X015445Y002330D01*
X015105Y002103D01*
X015445Y002103D01*
X015388Y001962D02*
X015275Y001962D01*
X015275Y001848D01*
X015388Y001735D02*
X015161Y001735D01*
X015105Y001792D01*
X015105Y001905D01*
X015161Y001962D01*
X015388Y001962D02*
X015445Y001905D01*
X015445Y001792D01*
X015388Y001735D01*
X015445Y001593D02*
X015332Y001480D01*
X015332Y001537D02*
X015332Y001367D01*
X015445Y001367D02*
X015105Y001367D01*
X015105Y001537D01*
X015161Y001593D01*
X015275Y001593D01*
X015332Y001537D01*
X015275Y001225D02*
X015275Y000998D01*
X015445Y000998D02*
X015105Y000998D01*
X015161Y000857D02*
X015105Y000800D01*
X015105Y000687D01*
X015161Y000630D01*
X015388Y000630D01*
X015445Y000687D01*
X015445Y000800D01*
X015388Y000857D01*
X015445Y001225D02*
X015105Y001225D01*
X016605Y001300D02*
X016605Y001130D01*
X016945Y001130D01*
X016832Y001130D02*
X016832Y001300D01*
X016775Y001357D01*
X016661Y001357D01*
X016605Y001300D01*
X016605Y001498D02*
X016945Y001498D01*
X016832Y001612D01*
X016945Y001725D01*
X016605Y001725D01*
X016605Y001867D02*
X016605Y002037D01*
X016661Y002093D01*
X016775Y002093D01*
X016832Y002037D01*
X016832Y001867D01*
X016945Y001867D02*
X016605Y001867D01*
X016832Y001980D02*
X016945Y002093D01*
X018130Y003050D02*
X018357Y003050D01*
X018498Y003107D02*
X018612Y002880D01*
X018725Y003107D01*
X018867Y003050D02*
X018923Y003107D01*
X019037Y003107D01*
X019093Y003050D01*
X019093Y002993D01*
X018867Y002993D01*
X018867Y002937D02*
X018867Y003050D01*
X018867Y002937D02*
X018923Y002880D01*
X019037Y002880D01*
X018243Y002937D02*
X018243Y003164D01*
X019614Y001968D02*
X019614Y001732D01*
X020086Y001732D02*
X020086Y001968D01*
X015718Y003239D02*
X015482Y003239D01*
X015482Y003711D02*
X015718Y003711D01*
X014493Y003164D02*
X014493Y002937D01*
X012461Y002093D02*
X012461Y001857D01*
X011989Y001857D02*
X011989Y002093D01*
X011287Y002880D02*
X011173Y002880D01*
X011117Y002937D01*
X011117Y003050D01*
X011173Y003107D01*
X011287Y003107D01*
X011343Y003050D01*
X011343Y002993D01*
X011117Y002993D01*
X010975Y003107D02*
X010862Y002880D01*
X010748Y003107D01*
X010607Y003050D02*
X010380Y003050D01*
X010493Y002937D02*
X010493Y003164D01*
X010790Y003590D02*
X011910Y003590D01*
X011910Y004110D01*
X010790Y004110D01*
X010790Y003590D01*
X009195Y002648D02*
X009138Y002705D01*
X008911Y002705D01*
X008855Y002648D01*
X008855Y002478D01*
X009195Y002478D01*
X009195Y002648D01*
X009138Y002337D02*
X009025Y002337D01*
X009025Y002223D01*
X009138Y002110D02*
X009195Y002167D01*
X009195Y002280D01*
X009138Y002337D01*
X008911Y002337D02*
X008855Y002280D01*
X008855Y002167D01*
X008911Y002110D01*
X009138Y002110D01*
X009195Y001968D02*
X009082Y001855D01*
X009082Y001912D02*
X009082Y001742D01*
X009195Y001742D02*
X008855Y001742D01*
X008855Y001912D01*
X008911Y001968D01*
X009025Y001968D01*
X009082Y001912D01*
X009025Y001600D02*
X009025Y001373D01*
X009195Y001373D02*
X008855Y001373D01*
X008911Y001232D02*
X008855Y001175D01*
X008855Y001062D01*
X008911Y001005D01*
X009138Y001005D01*
X009195Y001062D01*
X009195Y001175D01*
X009138Y001232D01*
X009195Y001600D02*
X008855Y001600D01*
X007711Y001857D02*
X007711Y002093D01*
X007239Y002093D02*
X007239Y001857D01*
X006537Y002880D02*
X006423Y002880D01*
X006367Y002937D01*
X006367Y003050D01*
X006423Y003107D01*
X006537Y003107D01*
X006593Y003050D01*
X006593Y002993D01*
X006367Y002993D01*
X006225Y003107D02*
X006112Y002880D01*
X005998Y003107D01*
X005857Y003050D02*
X005630Y003050D01*
X005743Y002937D02*
X005743Y003164D01*
X005660Y004090D02*
X004540Y004090D01*
X004540Y004610D01*
X005660Y004610D01*
X005660Y004090D01*
X003785Y004090D02*
X002665Y004090D01*
X002665Y004610D01*
X003785Y004610D01*
X003785Y004090D01*
X004105Y002462D02*
X004332Y002462D01*
X004445Y002348D01*
X004332Y002235D01*
X004105Y002235D01*
X004105Y002093D02*
X004105Y001867D01*
X004105Y001980D02*
X004445Y001980D01*
X004388Y001725D02*
X004445Y001668D01*
X004445Y001555D01*
X004388Y001498D01*
X004161Y001498D01*
X004105Y001555D01*
X004105Y001668D01*
X004161Y001725D01*
X004218Y001357D02*
X004105Y001243D01*
X004218Y001130D01*
X004445Y001130D01*
X004275Y001130D02*
X004275Y001357D01*
X004218Y001357D02*
X004445Y001357D01*
X001723Y006505D02*
X001723Y006845D01*
X001610Y006845D02*
X001837Y006845D01*
X001468Y006789D02*
X001468Y006675D01*
X001412Y006618D01*
X001242Y006618D01*
X001242Y006505D02*
X001242Y006845D01*
X001412Y006845D01*
X001468Y006789D01*
X001355Y006618D02*
X001468Y006505D01*
X001100Y006505D02*
X001100Y006845D01*
X001100Y006675D02*
X000873Y006675D01*
X000873Y006505D02*
X000873Y006845D01*
X000732Y006845D02*
X000505Y006845D01*
X000618Y006845D02*
X000618Y006505D01*
X000675Y007880D02*
X000505Y007880D01*
X000505Y008220D01*
X000675Y008220D01*
X000732Y008164D01*
X000732Y008107D01*
X000675Y008050D01*
X000505Y008050D01*
X000675Y008050D02*
X000732Y007993D01*
X000732Y007937D01*
X000675Y007880D01*
X000873Y008050D02*
X001100Y008050D01*
X001100Y009005D02*
X001100Y009345D01*
X001242Y009345D02*
X001412Y009345D01*
X001468Y009289D01*
X001468Y009175D01*
X001412Y009118D01*
X001242Y009118D01*
X001242Y009005D02*
X001242Y009345D01*
X001355Y009118D02*
X001468Y009005D01*
X001100Y009005D02*
X000987Y009118D01*
X000873Y009005D01*
X000873Y009345D01*
X000732Y009289D02*
X000732Y009175D01*
X000675Y009118D01*
X000505Y009118D01*
X000505Y009005D02*
X000505Y009345D01*
X000675Y009345D01*
X000732Y009289D01*
X000675Y009605D02*
X000732Y009662D01*
X000675Y009605D02*
X000562Y009605D01*
X000505Y009662D01*
X000505Y009889D01*
X000562Y009945D01*
X000675Y009945D01*
X000732Y009889D01*
X000873Y009945D02*
X001100Y009605D01*
X001100Y009945D01*
X001242Y009945D02*
X001468Y009945D01*
X001355Y009945D02*
X001355Y009605D01*
X001610Y009662D02*
X001610Y009889D01*
X001667Y009945D01*
X001780Y009945D01*
X001837Y009889D01*
X001978Y009945D02*
X002205Y009945D01*
X002092Y009945D02*
X002092Y009605D01*
X001837Y009662D02*
X001780Y009605D01*
X001667Y009605D01*
X001610Y009662D01*
X000873Y009605D02*
X000873Y009945D01*
X000873Y010380D02*
X000873Y010720D01*
X001100Y010380D01*
X001100Y010720D01*
X001242Y010720D02*
X001412Y010720D01*
X001468Y010664D01*
X001468Y010437D01*
X001412Y010380D01*
X001242Y010380D01*
X001242Y010720D01*
X001355Y010980D02*
X001355Y011320D01*
X001242Y011320D02*
X001468Y011320D01*
X001610Y011264D02*
X001610Y011037D01*
X001667Y010980D01*
X001780Y010980D01*
X001837Y011037D01*
X001837Y011264D02*
X001780Y011320D01*
X001667Y011320D01*
X001610Y011264D01*
X001978Y011320D02*
X002205Y011320D01*
X002092Y011320D02*
X002092Y010980D01*
X001355Y011755D02*
X001355Y012095D01*
X001242Y012095D02*
X001468Y012095D01*
X001468Y012355D02*
X001242Y012355D01*
X001242Y012695D01*
X001468Y012695D01*
X001610Y012639D02*
X001610Y012412D01*
X001667Y012355D01*
X001780Y012355D01*
X001837Y012412D01*
X001837Y012639D02*
X001780Y012695D01*
X001667Y012695D01*
X001610Y012639D01*
X001355Y012525D02*
X001242Y012525D01*
X001100Y012525D02*
X001100Y012639D01*
X001043Y012695D01*
X000873Y012695D01*
X000873Y012355D01*
X000873Y012468D02*
X001043Y012468D01*
X001100Y012525D01*
X000987Y012468D02*
X001100Y012355D01*
X000732Y012525D02*
X000732Y012639D01*
X000675Y012695D01*
X000505Y012695D01*
X000505Y012355D01*
X000505Y012468D02*
X000675Y012468D01*
X000732Y012525D01*
X000675Y012095D02*
X000732Y012039D01*
X000732Y011812D01*
X000675Y011755D01*
X000562Y011755D01*
X000505Y011812D01*
X000505Y012039D01*
X000562Y012095D01*
X000675Y012095D01*
X000873Y012095D02*
X000873Y011812D01*
X000930Y011755D01*
X001043Y011755D01*
X001100Y011812D01*
X001100Y012095D01*
X001100Y011320D02*
X001100Y010980D01*
X000873Y011320D01*
X000873Y010980D01*
X000732Y011037D02*
X000675Y010980D01*
X000562Y010980D01*
X000505Y011037D01*
X000505Y011264D01*
X000562Y011320D01*
X000675Y011320D01*
X000732Y011264D01*
X000675Y010720D02*
X000562Y010720D01*
X000505Y010664D01*
X000505Y010437D01*
X000562Y010380D01*
X000675Y010380D01*
X000732Y010437D01*
X000732Y010550D01*
X000618Y010550D01*
X000732Y010664D02*
X000675Y010720D01*
X000675Y013505D02*
X000505Y013505D01*
X000505Y013845D01*
X000675Y013845D01*
X000732Y013789D01*
X000732Y013732D01*
X000675Y013675D01*
X000505Y013675D01*
X000675Y013675D02*
X000732Y013618D01*
X000732Y013562D01*
X000675Y013505D01*
X000873Y013675D02*
X001100Y013675D01*
X000987Y013562D02*
X000987Y013789D01*
X013445Y013485D02*
X014105Y013485D01*
X014345Y013485D01*
X015005Y013485D01*
X014345Y013485D02*
X014343Y013464D01*
X014338Y013444D01*
X014329Y013425D01*
X014317Y013408D01*
X014302Y013393D01*
X014285Y013381D01*
X014266Y013372D01*
X014246Y013367D01*
X014225Y013365D01*
X014204Y013367D01*
X014184Y013372D01*
X014165Y013381D01*
X014148Y013393D01*
X014133Y013408D01*
X014121Y013425D01*
X014112Y013444D01*
X014107Y013464D01*
X014105Y013485D01*
X013445Y011465D02*
X015005Y011465D01*
X014845Y009320D02*
X014345Y009320D01*
X014105Y009320D01*
X013605Y009320D01*
X014105Y009320D02*
X014107Y009299D01*
X014112Y009279D01*
X014121Y009260D01*
X014133Y009243D01*
X014148Y009228D01*
X014165Y009216D01*
X014184Y009207D01*
X014204Y009202D01*
X014225Y009200D01*
X014246Y009202D01*
X014266Y009207D01*
X014285Y009216D01*
X014302Y009228D01*
X014317Y009243D01*
X014329Y009260D01*
X014338Y009279D01*
X014343Y009299D01*
X014345Y009320D01*
X020505Y009220D02*
X020505Y009050D01*
X020618Y009107D01*
X020675Y009107D01*
X020732Y009050D01*
X020732Y008937D01*
X020675Y008880D01*
X020562Y008880D01*
X020505Y008937D01*
X020505Y009220D02*
X020732Y009220D01*
X020873Y009220D02*
X020873Y008993D01*
X020987Y008880D01*
X021100Y008993D01*
X021100Y009220D01*
X021100Y009630D02*
X021100Y009970D01*
X020873Y009970D02*
X021100Y009630D01*
X020873Y009630D02*
X020873Y009970D01*
X020732Y009970D02*
X020505Y009970D01*
X020505Y009630D01*
X020732Y009630D01*
X020618Y009800D02*
X020505Y009800D01*
X020562Y010230D02*
X020675Y010230D01*
X020732Y010287D01*
X020873Y010230D02*
X020873Y010570D01*
X021100Y010230D01*
X021100Y010570D01*
X021242Y010570D02*
X021468Y010570D01*
X021355Y010570D02*
X021355Y010230D01*
X021610Y010287D02*
X021667Y010230D01*
X021780Y010230D01*
X021837Y010287D01*
X021610Y010287D02*
X021610Y010514D01*
X021667Y010570D01*
X021780Y010570D01*
X021837Y010514D01*
X021978Y010570D02*
X022205Y010570D01*
X022092Y010570D02*
X022092Y010230D01*
X021100Y010755D02*
X021100Y011095D01*
X020873Y011095D02*
X020873Y010755D01*
X020732Y010755D02*
X020505Y010755D01*
X020505Y011095D01*
X020732Y011095D01*
X020873Y011095D02*
X021100Y010755D01*
X020732Y010514D02*
X020675Y010570D01*
X020562Y010570D01*
X020505Y010514D01*
X020505Y010287D01*
X020562Y010230D01*
X020505Y010925D02*
X020618Y010925D01*
X020505Y011355D02*
X020505Y011695D01*
X020675Y011695D01*
X020732Y011639D01*
X020732Y011525D01*
X020675Y011468D01*
X020505Y011468D01*
X020873Y011468D02*
X021043Y011468D01*
X021100Y011525D01*
X021100Y011639D01*
X021043Y011695D01*
X020873Y011695D01*
X020873Y011355D01*
X020987Y011468D02*
X021100Y011355D01*
X021242Y011355D02*
X021242Y011695D01*
X021468Y011695D01*
X021610Y011639D02*
X021610Y011412D01*
X021667Y011355D01*
X021780Y011355D01*
X021837Y011412D01*
X021978Y011355D02*
X021978Y011695D01*
X021837Y011639D02*
X021780Y011695D01*
X021667Y011695D01*
X021610Y011639D01*
X021355Y011525D02*
X021242Y011525D01*
X021242Y011355D02*
X021468Y011355D01*
X021978Y011525D02*
X022205Y011525D01*
X022205Y011695D02*
X022205Y011355D01*
X022347Y011355D02*
X022403Y011355D01*
X022403Y011412D01*
X022347Y011412D01*
X022347Y011355D01*
X021468Y012243D02*
X021468Y012470D01*
X021242Y012470D02*
X021242Y012243D01*
X021355Y012130D01*
X021468Y012243D01*
X021100Y012130D02*
X020873Y012130D01*
X021100Y012357D01*
X021100Y012414D01*
X021043Y012470D01*
X020930Y012470D01*
X020873Y012414D01*
X020618Y012470D02*
X020618Y012130D01*
X020505Y012130D02*
X020732Y012130D01*
X020505Y012357D02*
X020618Y012470D01*
X020618Y013130D02*
X020618Y013470D01*
X020505Y013470D02*
X020732Y013470D01*
X020873Y013470D02*
X020873Y013130D01*
X020873Y013300D02*
X021100Y013300D01*
X021242Y013243D02*
X021412Y013243D01*
X021468Y013300D01*
X021468Y013414D01*
X021412Y013470D01*
X021242Y013470D01*
X021242Y013130D01*
X021100Y013130D02*
X021100Y013470D01*
X020987Y013755D02*
X020987Y014095D01*
X021100Y014095D02*
X020873Y014095D01*
X020732Y014039D02*
X020675Y014095D01*
X020562Y014095D01*
X020505Y014039D01*
X020505Y013982D01*
X020562Y013925D01*
X020675Y013925D01*
X020732Y013868D01*
X020732Y013812D01*
X020675Y013755D01*
X020562Y013755D01*
X020505Y013812D01*
X020505Y014355D02*
X020505Y014695D01*
X020675Y014695D01*
X020732Y014639D01*
X020732Y014525D01*
X020675Y014468D01*
X020505Y014468D01*
X020873Y014468D02*
X021043Y014468D01*
X021100Y014525D01*
X021100Y014639D01*
X021043Y014695D01*
X020873Y014695D01*
X020873Y014355D01*
X020987Y014468D02*
X021100Y014355D01*
X021242Y014355D02*
X021468Y014355D01*
X021610Y014412D02*
X021667Y014355D01*
X021780Y014355D01*
X021837Y014412D01*
X021978Y014355D02*
X021978Y014695D01*
X021837Y014639D02*
X021780Y014695D01*
X021667Y014695D01*
X021610Y014639D01*
X021610Y014412D01*
X021355Y014525D02*
X021242Y014525D01*
X021242Y014695D02*
X021242Y014355D01*
X021355Y014095D02*
X021468Y013982D01*
X021468Y013755D01*
X021468Y013925D02*
X021242Y013925D01*
X021242Y013982D02*
X021355Y014095D01*
X021242Y013982D02*
X021242Y013755D01*
X021723Y013755D02*
X021723Y014095D01*
X021610Y014095D02*
X021837Y014095D01*
X021978Y014095D02*
X021978Y013755D01*
X022205Y013755D01*
X022092Y013925D02*
X021978Y013925D01*
X021978Y014095D02*
X022205Y014095D01*
X022205Y014355D02*
X022205Y014695D01*
X022205Y014525D02*
X021978Y014525D01*
X021468Y014695D02*
X021242Y014695D01*
X021667Y013470D02*
X021610Y013414D01*
X021610Y013187D01*
X021667Y013130D01*
X021780Y013130D01*
X021837Y013187D01*
X021837Y013414D01*
X021780Y013470D01*
X021667Y013470D01*
X021978Y013470D02*
X022205Y013470D01*
X022092Y013470D02*
X022092Y013130D01*
X022347Y013130D02*
X022347Y013187D01*
X022403Y013187D01*
X022403Y013130D01*
X022347Y013130D01*
X021468Y013130D02*
X021355Y013243D01*
X020211Y016607D02*
X020211Y016843D01*
X019739Y016843D02*
X019739Y016607D01*
X019336Y016607D02*
X019336Y016843D01*
X018864Y016843D02*
X018864Y016607D01*
X018336Y016607D02*
X018336Y016843D01*
X017864Y016843D02*
X017864Y016607D01*
X017056Y016943D02*
X016829Y016943D01*
X016829Y016887D02*
X016829Y017000D01*
X016885Y017057D01*
X016999Y017057D01*
X017056Y017000D01*
X017056Y016943D01*
X016999Y016830D02*
X016885Y016830D01*
X016829Y016887D01*
X016687Y016830D02*
X016517Y016830D01*
X016460Y016887D01*
X016460Y017000D01*
X016517Y017057D01*
X016687Y017057D01*
X016687Y016773D01*
X016631Y016717D01*
X016574Y016717D01*
X016324Y017057D02*
X016267Y017057D01*
X016154Y016943D01*
X016154Y016830D02*
X016154Y017057D01*
X016012Y017000D02*
X016012Y016830D01*
X015842Y016830D01*
X015785Y016887D01*
X015842Y016943D01*
X016012Y016943D01*
X016012Y017000D02*
X015955Y017057D01*
X015842Y017057D01*
X015644Y017000D02*
X015644Y016830D01*
X015644Y017000D02*
X015587Y017057D01*
X015474Y017057D01*
X015417Y017000D01*
X015275Y017057D02*
X015105Y017057D01*
X015049Y017000D01*
X015049Y016887D01*
X015105Y016830D01*
X015275Y016830D01*
X015417Y016830D02*
X015417Y017170D01*
X014907Y017000D02*
X014907Y016943D01*
X014680Y016943D01*
X014680Y016887D02*
X014680Y017000D01*
X014737Y017057D01*
X014850Y017057D01*
X014907Y017000D01*
X014850Y016830D02*
X014737Y016830D01*
X014680Y016887D01*
X014543Y017057D02*
X014487Y017057D01*
X014373Y016943D01*
X014373Y016830D02*
X014373Y017057D01*
X014232Y017114D02*
X014232Y017000D01*
X014175Y016943D01*
X014005Y016943D01*
X014005Y016830D02*
X014005Y017170D01*
X014175Y017170D01*
X014232Y017114D01*
X014175Y016570D02*
X014232Y016514D01*
X014232Y016400D01*
X014175Y016343D01*
X014005Y016343D01*
X014005Y016230D02*
X014005Y016570D01*
X014175Y016570D01*
X014118Y016343D02*
X014232Y016230D01*
X014373Y016287D02*
X014430Y016230D01*
X014543Y016230D01*
X014600Y016343D02*
X014373Y016343D01*
X014373Y016287D02*
X014373Y016400D01*
X014430Y016457D01*
X014543Y016457D01*
X014600Y016400D01*
X014600Y016343D01*
X014742Y016400D02*
X014798Y016457D01*
X014968Y016457D01*
X014912Y016343D02*
X014968Y016287D01*
X014912Y016230D01*
X014742Y016230D01*
X014798Y016343D02*
X014742Y016400D01*
X014798Y016343D02*
X014912Y016343D01*
X015110Y016230D02*
X015223Y016230D01*
X015167Y016230D02*
X015167Y016457D01*
X015110Y016457D01*
X015167Y016570D02*
X015167Y016627D01*
X015355Y016400D02*
X015412Y016457D01*
X015582Y016457D01*
X015526Y016343D02*
X015412Y016343D01*
X015355Y016400D01*
X015355Y016230D02*
X015526Y016230D01*
X015582Y016287D01*
X015526Y016343D01*
X015724Y016457D02*
X015837Y016457D01*
X015781Y016514D02*
X015781Y016287D01*
X015837Y016230D01*
X015969Y016287D02*
X016026Y016230D01*
X016139Y016230D01*
X016196Y016287D01*
X016196Y016400D01*
X016139Y016457D01*
X016026Y016457D01*
X015969Y016400D01*
X015969Y016287D01*
X016092Y015970D02*
X016319Y015630D01*
X016460Y015630D02*
X016574Y015743D01*
X016574Y015857D01*
X016460Y015970D01*
X016319Y015970D02*
X016092Y015630D01*
X015951Y015630D02*
X015951Y015857D01*
X015837Y015970D01*
X015724Y015857D01*
X015724Y015630D01*
X015582Y015630D02*
X015582Y015970D01*
X015469Y015857D01*
X015355Y015970D01*
X015355Y015630D01*
X015724Y015800D02*
X015951Y015800D01*
X016338Y016230D02*
X016338Y016457D01*
X016451Y016457D02*
X016508Y016457D01*
X016451Y016457D02*
X016338Y016343D01*
X014846Y015857D02*
X014846Y015630D01*
X014846Y015800D02*
X014619Y015800D01*
X014619Y015857D02*
X014619Y015630D01*
X014477Y015630D02*
X014251Y015630D01*
X014477Y015857D01*
X014477Y015914D01*
X014421Y015970D01*
X014307Y015970D01*
X014251Y015914D01*
X014118Y015970D02*
X014005Y015857D01*
X014005Y015743D01*
X014118Y015630D01*
X014619Y015857D02*
X014732Y015970D01*
X014846Y015857D01*
X018114Y018482D02*
X018114Y018718D01*
X018586Y018718D02*
X018586Y018482D01*
X018864Y018482D02*
X018864Y018718D01*
X019336Y018718D02*
X019336Y018482D01*
X020562Y008220D02*
X020505Y008164D01*
X020505Y007937D01*
X020562Y007880D01*
X020675Y007880D01*
X020732Y007937D01*
X020732Y008050D01*
X020618Y008050D01*
X020732Y008164D02*
X020675Y008220D01*
X020562Y008220D01*
X020873Y008220D02*
X020873Y007880D01*
X021100Y007880D02*
X020873Y008220D01*
X021100Y008220D02*
X021100Y007880D01*
X021242Y007880D02*
X021242Y008220D01*
X021412Y008220D01*
X021468Y008164D01*
X021468Y007937D01*
X021412Y007880D01*
X021242Y007880D01*
D12*
X021213Y007144D02*
X021213Y007046D01*
X021213Y006849D02*
X021213Y006455D01*
X021311Y006455D02*
X021114Y006455D01*
X021544Y006455D02*
X021839Y006455D01*
X021937Y006553D01*
X021839Y006652D01*
X021642Y006652D01*
X021544Y006750D01*
X021642Y006849D01*
X021937Y006849D01*
X021213Y006849D02*
X021114Y006849D01*
X020863Y006849D02*
X020568Y006849D01*
X020470Y006750D01*
X020568Y006652D01*
X020765Y006652D01*
X020863Y006553D01*
X020765Y006455D01*
X020470Y006455D01*
X020219Y006652D02*
X019825Y006652D01*
X019825Y006750D02*
X019923Y006849D01*
X020120Y006849D01*
X020219Y006750D01*
X020219Y006652D01*
X020120Y006455D02*
X019923Y006455D01*
X019825Y006553D01*
X019825Y006750D01*
X019574Y006750D02*
X019574Y006455D01*
X019574Y006750D02*
X019476Y006849D01*
X019279Y006849D01*
X019180Y006750D01*
X018948Y006849D02*
X018751Y006849D01*
X018849Y006947D02*
X018849Y006553D01*
X018948Y006455D01*
X019180Y006455D02*
X019180Y007046D01*
X018500Y006849D02*
X018205Y006849D01*
X018106Y006750D01*
X018205Y006652D01*
X018401Y006652D01*
X018500Y006553D01*
X018401Y006455D01*
X018106Y006455D01*
X017855Y006553D02*
X017855Y006750D01*
X017757Y006849D01*
X017560Y006849D01*
X017462Y006750D01*
X017462Y006553D01*
X017560Y006455D01*
X017757Y006455D01*
X017855Y006553D01*
X017864Y005996D02*
X017569Y005996D01*
X017569Y005405D01*
X017864Y005405D01*
X017963Y005503D01*
X017963Y005602D01*
X017864Y005700D01*
X017569Y005700D01*
X017864Y005700D02*
X017963Y005799D01*
X017963Y005897D01*
X017864Y005996D01*
X017318Y005897D02*
X017220Y005996D01*
X017023Y005996D01*
X016925Y005897D01*
X016925Y005503D01*
X017023Y005405D01*
X017220Y005405D01*
X017318Y005503D01*
X016674Y005503D02*
X016575Y005405D01*
X016378Y005405D01*
X016280Y005503D01*
X016280Y005897D01*
X016378Y005996D01*
X016575Y005996D01*
X016674Y005897D01*
X016925Y006455D02*
X016925Y006849D01*
X017121Y006849D02*
X016925Y006652D01*
X016674Y006750D02*
X016674Y006947D01*
X016575Y007046D01*
X016280Y007046D01*
X016280Y006455D01*
X016280Y006652D02*
X016575Y006652D01*
X016674Y006750D01*
X017121Y006849D02*
X017220Y006849D01*
X018858Y005996D02*
X018858Y005602D01*
X019055Y005405D01*
X019252Y005602D01*
X019252Y005996D01*
X019503Y005799D02*
X019700Y005996D01*
X019700Y005405D01*
X019896Y005405D02*
X019503Y005405D01*
X020147Y005405D02*
X020246Y005405D01*
X020246Y005503D01*
X020147Y005503D01*
X020147Y005405D01*
X020470Y005405D02*
X020863Y005799D01*
X020863Y005897D01*
X020765Y005996D01*
X020568Y005996D01*
X020470Y005897D01*
X020470Y005405D02*
X020863Y005405D01*
D13*
X009975Y007100D02*
X009725Y007100D01*
X009725Y007600D01*
X009225Y007600D01*
X009225Y006600D01*
X009725Y006600D01*
X009725Y007100D01*
X009225Y006600D02*
X007225Y006600D01*
X007225Y007100D01*
X006975Y007100D01*
X007225Y007100D02*
X007225Y007600D01*
X009225Y007600D01*
D14*
X007703Y007760D02*
X007556Y007760D01*
X007629Y007760D02*
X007629Y007980D01*
X007556Y007907D01*
X007482Y007943D02*
X007445Y007980D01*
X007335Y007980D01*
X007335Y007760D01*
X007445Y007760D01*
X007482Y007797D01*
X007482Y007943D01*
D15*
X007467Y007275D02*
X007467Y006925D01*
X007350Y006925D02*
X007584Y006925D01*
X007718Y006925D02*
X007718Y007275D01*
X007952Y006925D01*
X007952Y007275D01*
X008087Y007100D02*
X008320Y007100D01*
X008455Y006983D02*
X008688Y007217D01*
X008688Y006983D01*
X008630Y006925D01*
X008513Y006925D01*
X008455Y006983D01*
X008455Y007217D01*
X008513Y007275D01*
X008630Y007275D01*
X008688Y007217D01*
X008823Y007217D02*
X008882Y007275D01*
X008998Y007275D01*
X009057Y007217D01*
X008823Y006983D01*
X008882Y006925D01*
X008998Y006925D01*
X009057Y006983D01*
X009057Y007217D01*
X009192Y007159D02*
X009308Y007275D01*
X009308Y006925D01*
X009192Y006925D02*
X009425Y006925D01*
X008823Y006983D02*
X008823Y007217D01*
X008262Y007275D02*
X008262Y006925D01*
X008087Y007100D02*
X008262Y007275D01*
X007467Y007275D02*
X007350Y007159D01*
X006600Y002800D02*
X004600Y002800D01*
X004600Y000600D01*
X005100Y000600D01*
X005100Y001100D01*
X006100Y001100D01*
X006100Y000600D01*
X005100Y000600D01*
X006100Y000600D02*
X006600Y000600D01*
X006600Y002800D01*
X009350Y002800D02*
X009350Y000600D01*
X009850Y000600D01*
X009850Y001100D01*
X010850Y001100D01*
X010850Y000600D01*
X009850Y000600D01*
X010850Y000600D02*
X011350Y000600D01*
X011350Y002800D01*
X009350Y002800D01*
X012975Y002800D02*
X012975Y000600D01*
X013475Y000600D01*
X013475Y001100D01*
X014475Y001100D01*
X014475Y000600D01*
X013475Y000600D01*
X014475Y000600D02*
X014975Y000600D01*
X014975Y002800D01*
X012975Y002800D01*
X017100Y002800D02*
X017100Y000600D01*
X017600Y000600D01*
X017600Y001100D01*
X018600Y001100D01*
X018600Y000600D01*
X017600Y000600D01*
X018600Y000600D02*
X019100Y000600D01*
X019100Y002800D01*
X017100Y002800D01*
X018150Y007600D02*
X018150Y010600D01*
X020350Y010600D01*
X020350Y010100D01*
X019850Y010100D01*
X019850Y008100D01*
X020350Y008100D01*
X020350Y007600D01*
X018150Y007600D01*
X020350Y008100D02*
X020350Y010100D01*
X020350Y010725D02*
X020350Y011225D01*
X019850Y011225D01*
X019850Y014225D01*
X020350Y014225D01*
X020350Y011225D01*
X020350Y010725D02*
X018150Y010725D01*
X018150Y014725D01*
X020350Y014725D01*
X020350Y014225D01*
X016425Y017320D02*
X014259Y017320D01*
X014259Y019584D01*
X016425Y019584D01*
X016425Y017320D01*
X016425Y019584D02*
X016425Y019880D01*
X014259Y019880D01*
X014259Y019584D01*
D16*
X002880Y003180D02*
X002880Y003030D01*
X002880Y003080D02*
X002955Y003080D01*
X002980Y003105D01*
X002980Y003155D01*
X002955Y003180D01*
X002880Y003180D01*
X002930Y003080D02*
X002980Y003030D01*
X003027Y003055D02*
X003027Y003105D01*
X003102Y003105D01*
X003127Y003080D01*
X003127Y003055D01*
X003102Y003030D01*
X003052Y003030D01*
X003027Y003055D01*
X003027Y003105D02*
X003077Y003155D01*
X003127Y003180D01*
X005160Y003420D02*
X005185Y003395D01*
X005235Y003395D01*
X005260Y003420D01*
X005260Y003520D01*
X005235Y003545D01*
X005185Y003545D01*
X005160Y003520D01*
X005160Y003420D01*
X005210Y003445D02*
X005260Y003395D01*
X005308Y003395D02*
X005408Y003495D01*
X005408Y003520D01*
X005383Y003545D01*
X005333Y003545D01*
X005308Y003520D01*
X005308Y003395D02*
X005408Y003395D01*
X006995Y002075D02*
X006995Y001975D01*
X007070Y001975D01*
X007045Y002025D01*
X007045Y002050D01*
X007070Y002075D01*
X007120Y002075D01*
X007145Y002050D01*
X007145Y002000D01*
X007120Y001975D01*
X007145Y001927D02*
X007145Y001827D01*
X007145Y001780D02*
X007095Y001730D01*
X007095Y001755D02*
X007095Y001680D01*
X007145Y001680D02*
X006995Y001680D01*
X006995Y001755D01*
X007020Y001780D01*
X007070Y001780D01*
X007095Y001755D01*
X007045Y001827D02*
X006995Y001877D01*
X007145Y001877D01*
X006502Y005030D02*
X006402Y005030D01*
X006502Y005130D01*
X006502Y005155D01*
X006477Y005180D01*
X006427Y005180D01*
X006402Y005155D01*
X006355Y005155D02*
X006355Y005105D01*
X006330Y005080D01*
X006255Y005080D01*
X006255Y005030D02*
X006255Y005180D01*
X006330Y005180D01*
X006355Y005155D01*
X006305Y005080D02*
X006355Y005030D01*
X003127Y005180D02*
X003127Y005205D01*
X003102Y005230D01*
X003027Y005230D01*
X003027Y005180D01*
X003052Y005155D01*
X003102Y005155D01*
X003127Y005180D01*
X003077Y005280D02*
X003027Y005230D01*
X002980Y005180D02*
X002955Y005155D01*
X002905Y005155D01*
X002880Y005180D01*
X002880Y005280D01*
X002905Y005305D01*
X002955Y005305D01*
X002980Y005280D01*
X002980Y005180D01*
X002980Y005155D02*
X002930Y005205D01*
X003077Y005280D02*
X003127Y005305D01*
X011410Y003020D02*
X011435Y003045D01*
X011485Y003045D01*
X011510Y003020D01*
X011510Y002920D01*
X011485Y002895D01*
X011435Y002895D01*
X011410Y002920D01*
X011410Y003020D01*
X011460Y002945D02*
X011510Y002895D01*
X011558Y002895D02*
X011658Y002895D01*
X011608Y002895D02*
X011608Y003045D01*
X011558Y002995D01*
X011770Y001927D02*
X011795Y001927D01*
X011820Y001902D01*
X011845Y001927D01*
X011870Y001927D01*
X011895Y001902D01*
X011895Y001852D01*
X011870Y001827D01*
X011895Y001780D02*
X011845Y001730D01*
X011845Y001755D02*
X011845Y001680D01*
X011895Y001680D02*
X011745Y001680D01*
X011745Y001755D01*
X011770Y001780D01*
X011820Y001780D01*
X011845Y001755D01*
X011770Y001827D02*
X011745Y001852D01*
X011745Y001902D01*
X011770Y001927D01*
X011820Y001902D02*
X011820Y001877D01*
X014035Y002920D02*
X014060Y002895D01*
X014110Y002895D01*
X014135Y002920D01*
X014135Y003020D01*
X014110Y003045D01*
X014060Y003045D01*
X014035Y003020D01*
X014035Y002920D01*
X014085Y002945D02*
X014135Y002895D01*
X014183Y002920D02*
X014208Y002895D01*
X014258Y002895D01*
X014283Y002920D01*
X014283Y002945D01*
X014258Y002970D01*
X014233Y002970D01*
X014258Y002970D02*
X014283Y002995D01*
X014283Y003020D01*
X014258Y003045D01*
X014208Y003045D01*
X014183Y003020D01*
X015610Y002995D02*
X015610Y003145D01*
X015685Y003145D01*
X015710Y003120D01*
X015710Y003070D01*
X015685Y003045D01*
X015610Y003045D01*
X015660Y003045D02*
X015710Y002995D01*
X015758Y003020D02*
X015783Y002995D01*
X015833Y002995D01*
X015858Y003020D01*
X015858Y003070D01*
X015833Y003095D01*
X015808Y003095D01*
X015758Y003070D01*
X015758Y003145D01*
X015858Y003145D01*
X015477Y004655D02*
X015477Y004805D01*
X015402Y004730D01*
X015502Y004730D01*
X015355Y004730D02*
X015355Y004780D01*
X015330Y004805D01*
X015255Y004805D01*
X015255Y004655D01*
X015255Y004705D02*
X015330Y004705D01*
X015355Y004730D01*
X015305Y004705D02*
X015355Y004655D01*
X012180Y005535D02*
X012030Y005535D01*
X012030Y005610D01*
X012055Y005635D01*
X012105Y005635D01*
X012130Y005610D01*
X012130Y005535D01*
X012130Y005585D02*
X012180Y005635D01*
X012180Y005683D02*
X012155Y005683D01*
X012055Y005783D01*
X012030Y005783D01*
X012030Y005683D01*
X016220Y007905D02*
X016245Y007880D01*
X016345Y007880D01*
X016370Y007905D01*
X016370Y007955D01*
X016345Y007980D01*
X016370Y008027D02*
X016370Y008127D01*
X016370Y008077D02*
X016220Y008077D01*
X016270Y008027D01*
X016245Y007980D02*
X016220Y007955D01*
X016220Y007905D01*
X012680Y013513D02*
X012530Y013513D01*
X012530Y013588D01*
X012555Y013613D01*
X012605Y013613D01*
X012630Y013588D01*
X012630Y013513D01*
X012630Y013563D02*
X012680Y013613D01*
X012680Y013660D02*
X012680Y013760D01*
X012680Y013808D02*
X012580Y013908D01*
X012555Y013908D01*
X012530Y013883D01*
X012530Y013833D01*
X012555Y013808D01*
X012530Y013710D02*
X012680Y013710D01*
X012680Y013808D02*
X012680Y013908D01*
X012530Y013710D02*
X012580Y013660D01*
X017870Y018305D02*
X017870Y018380D01*
X017895Y018405D01*
X017945Y018405D01*
X017970Y018380D01*
X017970Y018305D01*
X018020Y018305D02*
X017870Y018305D01*
X017970Y018355D02*
X018020Y018405D01*
X018020Y018452D02*
X018020Y018552D01*
X018020Y018502D02*
X017870Y018502D01*
X017920Y018452D01*
X017945Y018600D02*
X017870Y018675D01*
X018020Y018675D01*
X017945Y018700D02*
X017945Y018600D01*
X019430Y018610D02*
X019430Y018685D01*
X019455Y018710D01*
X019505Y018710D01*
X019530Y018685D01*
X019530Y018610D01*
X019580Y018610D02*
X019430Y018610D01*
X019530Y018660D02*
X019580Y018710D01*
X019555Y018758D02*
X019530Y018758D01*
X019505Y018783D01*
X019505Y018833D01*
X019530Y018858D01*
X019555Y018858D01*
X019580Y018833D01*
X019580Y018783D01*
X019555Y018758D01*
X019505Y018783D02*
X019480Y018758D01*
X019455Y018758D01*
X019430Y018783D01*
X019430Y018833D01*
X019455Y018858D01*
X019480Y018858D01*
X019505Y018833D01*
X020305Y016933D02*
X020455Y016933D01*
X020455Y016883D02*
X020455Y016983D01*
X020355Y016883D02*
X020305Y016933D01*
X020305Y016785D02*
X020455Y016785D01*
X020455Y016735D02*
X020455Y016835D01*
X020355Y016735D02*
X020305Y016785D01*
X020330Y016688D02*
X020380Y016688D01*
X020405Y016663D01*
X020405Y016588D01*
X020455Y016588D02*
X020305Y016588D01*
X020305Y016663D01*
X020330Y016688D01*
X020405Y016638D02*
X020455Y016688D01*
X018770Y016677D02*
X018770Y016577D01*
X018770Y016530D02*
X018720Y016480D01*
X018720Y016505D02*
X018720Y016430D01*
X018770Y016430D02*
X018620Y016430D01*
X018620Y016505D01*
X018645Y016530D01*
X018695Y016530D01*
X018720Y016505D01*
X018670Y016577D02*
X018620Y016627D01*
X018770Y016627D01*
X018745Y016725D02*
X018770Y016750D01*
X018770Y016800D01*
X018745Y016825D01*
X018720Y016825D01*
X018695Y016800D01*
X018695Y016775D01*
X018695Y016800D02*
X018670Y016825D01*
X018645Y016825D01*
X018620Y016800D01*
X018620Y016750D01*
X018645Y016725D01*
X018580Y016735D02*
X018430Y016735D01*
X018430Y016810D01*
X018455Y016835D01*
X018505Y016835D01*
X018530Y016810D01*
X018530Y016735D01*
X018530Y016785D02*
X018580Y016835D01*
X018555Y016883D02*
X018580Y016908D01*
X018580Y016958D01*
X018555Y016983D01*
X018455Y016983D01*
X018430Y016958D01*
X018430Y016908D01*
X018455Y016883D01*
X018480Y016883D01*
X018505Y016908D01*
X018505Y016983D01*
X005005Y014008D02*
X004855Y014008D01*
X004855Y013958D02*
X004855Y014058D01*
X004855Y013910D02*
X004980Y013910D01*
X005005Y013885D01*
X005005Y013835D01*
X004980Y013810D01*
X004855Y013810D01*
X004880Y013763D02*
X004930Y013763D01*
X004955Y013738D01*
X004955Y013663D01*
X005005Y013663D02*
X004855Y013663D01*
X004855Y013738D01*
X004880Y013763D01*
X004855Y013616D02*
X004855Y013516D01*
X004855Y013468D02*
X004980Y013468D01*
X005005Y013443D01*
X005005Y013393D01*
X004980Y013368D01*
X004855Y013368D01*
X004880Y013321D02*
X004855Y013296D01*
X004855Y013246D01*
X004880Y013221D01*
X004980Y013221D01*
X005005Y013246D01*
X005005Y013296D01*
X004980Y013321D01*
X004880Y013321D01*
X004855Y013566D02*
X005005Y013566D01*
X019370Y001752D02*
X019520Y001752D01*
X019520Y001702D02*
X019520Y001802D01*
X019420Y001702D02*
X019370Y001752D01*
X019395Y001655D02*
X019445Y001655D01*
X019470Y001630D01*
X019470Y001555D01*
X019520Y001555D02*
X019370Y001555D01*
X019370Y001630D01*
X019395Y001655D01*
X019470Y001605D02*
X019520Y001655D01*
D17*
X008080Y008245D02*
X007620Y008245D01*
X007620Y008475D01*
X007696Y008552D01*
X007850Y008552D01*
X007927Y008475D01*
X007927Y008245D01*
X007927Y008705D02*
X007927Y008936D01*
X007850Y009012D01*
X007696Y009012D01*
X007620Y008936D01*
X007620Y008705D01*
X008080Y008705D01*
X007927Y008859D02*
X008080Y009012D01*
X008080Y009166D02*
X008080Y009473D01*
X008003Y009626D02*
X008080Y009703D01*
X008080Y009856D01*
X008003Y009933D01*
X008080Y010087D02*
X007620Y010087D01*
X007696Y009933D02*
X007620Y009856D01*
X007620Y009703D01*
X007696Y009626D01*
X008003Y009626D01*
X007850Y009319D02*
X007850Y009166D01*
X007620Y009166D02*
X008080Y009166D01*
X007620Y009166D02*
X007620Y009473D01*
X007850Y010087D02*
X007850Y010393D01*
X007850Y010547D02*
X007850Y010854D01*
X007773Y010854D02*
X008080Y010854D01*
X008080Y011007D02*
X007620Y011007D01*
X007620Y011238D01*
X007696Y011314D01*
X007850Y011314D01*
X007927Y011238D01*
X007927Y011007D01*
X007927Y011161D02*
X008080Y011314D01*
X008003Y011468D02*
X008080Y011544D01*
X008080Y011698D01*
X008003Y011775D01*
X007850Y011775D01*
X007850Y011621D01*
X008003Y011468D02*
X007696Y011468D01*
X007620Y011544D01*
X007620Y011698D01*
X007696Y011775D01*
X007620Y011928D02*
X008080Y011928D01*
X008080Y012235D01*
X008157Y012389D02*
X008157Y012695D01*
X008080Y012849D02*
X007620Y012849D01*
X007620Y013079D01*
X007696Y013156D01*
X007850Y013156D01*
X007927Y013079D01*
X007927Y012849D01*
X007927Y013002D02*
X008080Y013156D01*
X008080Y013309D02*
X008080Y013616D01*
X008080Y013770D02*
X008080Y014077D01*
X008080Y014230D02*
X007773Y014230D01*
X007620Y014384D01*
X007773Y014537D01*
X008080Y014537D01*
X007850Y014537D02*
X007850Y014230D01*
X007696Y014690D02*
X007850Y014844D01*
X008080Y014844D01*
X007850Y014844D02*
X007696Y014997D01*
X007620Y014997D01*
X007620Y014690D02*
X007696Y014690D01*
X007620Y013770D02*
X008080Y013770D01*
X007850Y013463D02*
X007850Y013309D01*
X007620Y013309D02*
X008080Y013309D01*
X007620Y013309D02*
X007620Y013616D01*
X007620Y012235D02*
X007620Y011928D01*
X007850Y011928D02*
X007850Y012082D01*
X007773Y010854D02*
X007620Y010700D01*
X007773Y010547D01*
X008080Y010547D01*
X008080Y010393D02*
X007620Y010393D01*
D18*
X012225Y013600D03*
X011725Y005475D03*
D19*
X015600Y004350D03*
X006600Y004725D03*
X003225Y002725D03*
D20*
X012910Y009363D02*
X013224Y009677D01*
X013224Y009520D02*
X012910Y009520D01*
X012910Y009677D02*
X013224Y009363D01*
X013067Y009363D02*
X013067Y009677D01*
X013124Y013488D02*
X012810Y013802D01*
X012810Y013645D02*
X013124Y013645D01*
X013124Y013802D02*
X012810Y013488D01*
X012967Y013488D02*
X012967Y013802D01*
M02*
