%
M48
M72
T01C0.0276
T02C0.0300
T03C0.0315
T04C0.0354
T05C0.0394
T06C0.0400
T07C0.0472
T08C0.1000
T09C0.1300
%
T01
X16975Y7725
X16975Y8725
T02
X15975Y9100
X14225Y10225
X11725Y11850
X12225Y14475
X16225Y13225
X17350Y16350
X16725Y19100
X14225Y7850
X13225Y5225
X12725Y3350
X10350Y5350
X17475Y5100
X21350Y5600
X2225Y4725
T03
X14850Y18600
X15850Y18600
T04
X10100Y15225
X10100Y13225
X10100Y11225
X7100Y11225
X7100Y13225
X7100Y15225
X7100Y8225
X10100Y8225
T05
X10475Y7100
X6475Y7100
T06
X6150Y1600
X5050Y1600
X9800Y1600
X10900Y1600
X13425Y1600
X14525Y1600
X17550Y1600
X18650Y1600
X19300Y8100
X19400Y9100
X19300Y10100
X19300Y11225
X19400Y12225
X19300Y13225
X19400Y14225
T07
X3850Y13600
X3850Y12222
X3850Y10844
X3850Y9466
X3850Y8088
X3850Y6710
T08
X3538Y18600
X5838Y18600
X9112Y18600
X11412Y18600
T09
X1225Y1225
X1225Y19350
X21725Y19225
X21725Y1225
M30
