G75*
%MOIN*%
%OFA0B0*%
%FSLAX24Y24*%
%IPPOS*%
%LPD*%
%AMOC8*
5,1,8,0,0,1.08239X$1,22.5*
%
%ADD10C,0.0780*%
%ADD11R,0.0800X0.0800*%
%ADD12C,0.0800*%
%ADD13C,0.1400*%
%ADD14R,0.0515X0.0515*%
%ADD15C,0.0554*%
%ADD16R,0.0740X0.0740*%
%ADD17C,0.0740*%
%ADD18R,0.0650X0.0650*%
%ADD19C,0.0650*%
%ADD20C,0.0240*%
%ADD21C,0.0460*%
%ADD22C,0.0120*%
%ADD23C,0.0660*%
%ADD24C,0.0400*%
%ADD25C,0.0660*%
D10*
X006475Y007100D03*
X010475Y007100D03*
D11*
X003850Y013600D03*
D12*
X003850Y012222D03*
X003850Y010844D03*
X003850Y009466D03*
X003850Y008088D03*
X003850Y006710D03*
D13*
X003538Y018600D03*
X005838Y018600D03*
X009112Y018600D03*
X011412Y018600D03*
D14*
X014850Y018600D03*
X015850Y018600D03*
D15*
X010100Y015225D03*
X010100Y013225D03*
X010100Y011225D03*
X007100Y011225D03*
X007100Y013225D03*
X007100Y015225D03*
X007100Y008225D03*
X010100Y008225D03*
D16*
X009800Y001600D03*
X013425Y001600D03*
X017550Y001600D03*
X019300Y008100D03*
X019300Y011225D03*
X005050Y001600D03*
D17*
X006150Y001600D03*
X010900Y001600D03*
X014525Y001600D03*
X018650Y001600D03*
X019400Y009100D03*
X019300Y010100D03*
X019400Y012225D03*
X019300Y013225D03*
X019400Y014225D03*
D18*
X016975Y008725D03*
D19*
X016975Y007725D03*
D20*
X002315Y001677D02*
X002161Y001943D01*
X001943Y002161D01*
X001677Y002315D01*
X001379Y002395D01*
X001071Y002395D01*
X000773Y002315D01*
X000745Y002299D01*
X000745Y018276D01*
X000773Y018260D01*
X001071Y018180D01*
X001379Y018180D01*
X001677Y018260D01*
X001943Y018414D01*
X002161Y018632D01*
X002315Y018898D01*
X002395Y019196D01*
X002395Y019504D01*
X002342Y019701D01*
X013804Y019701D01*
X011852Y017489D01*
X011852Y017765D01*
X011944Y017803D01*
X012209Y018068D01*
X012352Y018413D01*
X012352Y018787D01*
X012209Y019132D01*
X011944Y019397D01*
X011599Y019540D01*
X011225Y019540D01*
X010880Y019397D01*
X010615Y019132D01*
X010472Y018787D01*
X010472Y018413D01*
X010615Y018068D01*
X010880Y017803D01*
X010972Y017765D01*
X010972Y016719D01*
X009993Y015741D01*
X009807Y015663D01*
X009662Y015518D01*
X009583Y015328D01*
X009583Y015122D01*
X009662Y014932D01*
X009807Y014787D01*
X009997Y014708D01*
X010159Y014708D01*
X009846Y014395D01*
X009800Y014285D01*
X009800Y014147D01*
X008349Y015598D01*
X008188Y015665D01*
X007389Y015665D01*
X007203Y015742D01*
X006997Y015742D01*
X006807Y015663D01*
X006662Y015518D01*
X006584Y015332D01*
X004490Y013237D01*
X004490Y014048D01*
X004453Y014136D01*
X004386Y014203D01*
X004298Y014240D01*
X003402Y014240D01*
X003314Y014203D01*
X003247Y014136D01*
X003210Y014048D01*
X003210Y013152D01*
X003247Y013064D01*
X003314Y012997D01*
X003402Y012960D01*
X004213Y012960D01*
X004075Y012822D01*
X003977Y012862D01*
X003723Y012862D01*
X003487Y012765D01*
X003307Y012585D01*
X003210Y012349D01*
X003210Y012095D01*
X003307Y011860D01*
X003487Y011679D01*
X003723Y011582D01*
X003977Y011582D01*
X004213Y011679D01*
X004393Y011860D01*
X004418Y011921D01*
X007207Y014709D01*
X007389Y014785D01*
X007918Y014785D01*
X009584Y013118D01*
X009662Y012932D01*
X009807Y012787D01*
X009997Y012708D01*
X010203Y012708D01*
X010393Y012787D01*
X010538Y012932D01*
X010617Y013122D01*
X010617Y013328D01*
X010538Y013518D01*
X010400Y013656D01*
X010400Y014101D01*
X013770Y017471D01*
X013854Y017555D01*
X013900Y017665D01*
X013900Y018226D01*
X014353Y018678D01*
X014353Y018295D01*
X014389Y018207D01*
X014457Y018139D01*
X014545Y018103D01*
X015155Y018103D01*
X015243Y018139D01*
X015311Y018207D01*
X015347Y018295D01*
X015347Y018905D01*
X015311Y018993D01*
X015254Y019050D01*
X015446Y019050D01*
X015389Y018993D01*
X015353Y018905D01*
X015353Y018295D01*
X015389Y018207D01*
X015457Y018139D01*
X015545Y018103D01*
X016155Y018103D01*
X016243Y018139D01*
X016311Y018207D01*
X016347Y018295D01*
X016347Y018813D01*
X016459Y018702D01*
X016632Y018630D01*
X016818Y018630D01*
X016991Y018702D01*
X017050Y018760D01*
X017050Y016715D01*
X016952Y016616D01*
X016880Y016443D01*
X012742Y016443D01*
X012504Y016205D02*
X016902Y016205D01*
X016880Y016257D02*
X016952Y016084D01*
X017084Y015952D01*
X017257Y015880D01*
X017443Y015880D01*
X017616Y015952D01*
X017748Y016084D01*
X017820Y016257D01*
X017820Y016443D01*
X022200Y016443D01*
X022200Y016205D02*
X017798Y016205D01*
X017820Y016443D02*
X017748Y016616D01*
X017650Y016715D01*
X017650Y019312D01*
X017655Y019333D01*
X017650Y019371D01*
X017650Y019410D01*
X017642Y019430D01*
X017639Y019451D01*
X017619Y019484D01*
X017604Y019520D01*
X017589Y019535D01*
X017578Y019554D01*
X017547Y019577D01*
X017520Y019604D01*
X017500Y019613D01*
X017382Y019701D01*
X020649Y019701D01*
X020635Y019677D01*
X020555Y019379D01*
X020555Y019071D01*
X020635Y018773D01*
X020789Y018507D01*
X021007Y018289D01*
X021273Y018135D01*
X021571Y018055D01*
X021879Y018055D01*
X022177Y018135D01*
X022200Y018148D01*
X022200Y009924D01*
X021900Y010224D01*
X021900Y011035D01*
X021854Y011145D01*
X021604Y011395D01*
X021520Y011479D01*
X021410Y011525D01*
X019910Y011525D01*
X019910Y011643D01*
X019873Y011731D01*
X019821Y011783D01*
X019917Y011879D01*
X020010Y012104D01*
X020010Y012346D01*
X019917Y012571D01*
X019746Y012742D01*
X019699Y012761D01*
X019817Y012879D01*
X019910Y013104D01*
X022200Y013104D01*
X022200Y012866D02*
X019803Y012866D01*
X019861Y012627D02*
X022200Y012627D01*
X022200Y012389D02*
X019993Y012389D01*
X020010Y012150D02*
X022200Y012150D01*
X022200Y011912D02*
X019930Y011912D01*
X019897Y011673D02*
X022200Y011673D01*
X022200Y011435D02*
X021565Y011435D01*
X021803Y011196D02*
X022200Y011196D01*
X022200Y010958D02*
X021900Y010958D01*
X021900Y010719D02*
X022200Y010719D01*
X022200Y010481D02*
X021900Y010481D01*
X021900Y010242D02*
X022200Y010242D01*
X022200Y010004D02*
X022121Y010004D01*
X020925Y009800D02*
X020925Y009040D01*
X020971Y008930D01*
X021055Y008846D01*
X021055Y008846D01*
X021425Y008476D01*
X021425Y006099D01*
X021396Y006070D01*
X021257Y006070D01*
X021084Y005998D01*
X020952Y005866D01*
X020880Y005693D01*
X020880Y005507D01*
X020924Y005400D01*
X017840Y005400D01*
X017741Y005498D01*
X017568Y005570D01*
X017382Y005570D01*
X017209Y005498D01*
X017077Y005366D01*
X017005Y005193D01*
X017005Y005007D01*
X017077Y004834D01*
X017209Y004702D01*
X017382Y004630D01*
X017568Y004630D01*
X017741Y004702D01*
X017840Y004800D01*
X021535Y004800D01*
X021645Y004846D01*
X022200Y005401D01*
X022200Y002302D01*
X022177Y002315D01*
X021879Y002395D01*
X021571Y002395D01*
X021273Y002315D01*
X021007Y002161D01*
X020789Y001943D01*
X020635Y001677D01*
X020555Y001379D01*
X020555Y001071D01*
X020635Y000773D01*
X020651Y000745D01*
X002299Y000745D01*
X002315Y000773D01*
X002395Y001071D01*
X002395Y001379D01*
X002315Y001677D01*
X002321Y001656D02*
X004460Y001656D01*
X004460Y001600D02*
X005050Y001600D01*
X005050Y001600D01*
X005050Y002190D01*
X005449Y002190D01*
X005505Y002175D01*
X005555Y002146D01*
X005596Y002105D01*
X005625Y002055D01*
X005640Y001999D01*
X005640Y001953D01*
X005804Y002117D01*
X006029Y002210D01*
X006271Y002210D01*
X006496Y002117D01*
X006667Y001946D01*
X006760Y001721D01*
X006760Y001479D01*
X006667Y001254D01*
X006496Y001083D01*
X006271Y000990D01*
X006029Y000990D01*
X005804Y001083D01*
X005640Y001247D01*
X005640Y001201D01*
X005625Y001145D01*
X005596Y001095D01*
X005555Y001054D01*
X005505Y001025D01*
X005449Y001010D01*
X005050Y001010D01*
X005050Y001600D01*
X005050Y001600D01*
X005050Y001600D01*
X005050Y002190D01*
X004651Y002190D01*
X004595Y002175D01*
X004545Y002146D01*
X004504Y002105D01*
X004475Y002055D01*
X004460Y001999D01*
X004460Y001600D01*
X004460Y001201D01*
X004475Y001145D01*
X004504Y001095D01*
X004545Y001054D01*
X004595Y001025D01*
X004651Y001010D01*
X005050Y001010D01*
X005050Y001600D01*
X004460Y001600D01*
X004460Y001418D02*
X002385Y001418D01*
X002395Y001179D02*
X004466Y001179D01*
X005050Y001179D02*
X005050Y001179D01*
X005050Y001418D02*
X005050Y001418D01*
X005050Y001656D02*
X005050Y001656D01*
X005050Y001895D02*
X005050Y001895D01*
X005050Y002133D02*
X005050Y002133D01*
X005568Y002133D02*
X005843Y002133D01*
X006457Y002133D02*
X009282Y002133D01*
X009295Y002146D02*
X009254Y002105D01*
X009225Y002055D01*
X009210Y001999D01*
X009210Y001600D01*
X009800Y001600D01*
X009800Y001600D01*
X009800Y002190D01*
X010199Y002190D01*
X010255Y002175D01*
X010305Y002146D01*
X010346Y002105D01*
X010375Y002055D01*
X010390Y001999D01*
X010390Y001953D01*
X010554Y002117D01*
X010779Y002210D01*
X011021Y002210D01*
X011246Y002117D01*
X011417Y001946D01*
X011510Y001721D01*
X011510Y001479D01*
X011417Y001254D01*
X011246Y001083D01*
X011021Y000990D01*
X010779Y000990D01*
X010554Y001083D01*
X010390Y001247D01*
X010390Y001201D01*
X010375Y001145D01*
X010346Y001095D01*
X010305Y001054D01*
X010255Y001025D01*
X010199Y001010D01*
X009800Y001010D01*
X009800Y001600D01*
X009800Y001600D01*
X009800Y001600D01*
X009800Y002190D01*
X009401Y002190D01*
X009345Y002175D01*
X009295Y002146D01*
X009210Y001895D02*
X006688Y001895D01*
X006760Y001656D02*
X009210Y001656D01*
X009210Y001600D02*
X009210Y001201D01*
X009225Y001145D01*
X009254Y001095D01*
X009295Y001054D01*
X009345Y001025D01*
X009401Y001010D01*
X009800Y001010D01*
X009800Y001600D01*
X009210Y001600D01*
X009210Y001418D02*
X006735Y001418D01*
X006592Y001179D02*
X009216Y001179D01*
X009800Y001179D02*
X009800Y001179D01*
X009800Y001418D02*
X009800Y001418D01*
X009800Y001656D02*
X009800Y001656D01*
X009800Y001895D02*
X009800Y001895D01*
X009800Y002133D02*
X009800Y002133D01*
X010318Y002133D02*
X010593Y002133D01*
X011207Y002133D02*
X012907Y002133D01*
X012920Y002146D02*
X012879Y002105D01*
X012850Y002055D01*
X012835Y001999D01*
X012835Y001600D01*
X013425Y001600D01*
X013425Y001600D01*
X013425Y002190D01*
X013824Y002190D01*
X013880Y002175D01*
X013930Y002146D01*
X013971Y002105D01*
X014000Y002055D01*
X014015Y001999D01*
X014015Y001953D01*
X014179Y002117D01*
X014404Y002210D01*
X014646Y002210D01*
X014871Y002117D01*
X015042Y001946D01*
X015135Y001721D01*
X015135Y001479D01*
X015042Y001254D01*
X014871Y001083D01*
X014646Y000990D01*
X014404Y000990D01*
X014179Y001083D01*
X014015Y001247D01*
X014015Y001201D01*
X014000Y001145D01*
X013971Y001095D01*
X013930Y001054D01*
X013880Y001025D01*
X013824Y001010D01*
X013425Y001010D01*
X013425Y001600D01*
X013425Y001600D01*
X013425Y001600D01*
X013425Y002190D01*
X013026Y002190D01*
X012970Y002175D01*
X012920Y002146D01*
X012835Y001895D02*
X011438Y001895D01*
X011510Y001656D02*
X012835Y001656D01*
X012835Y001600D02*
X012835Y001201D01*
X012850Y001145D01*
X012879Y001095D01*
X012920Y001054D01*
X012970Y001025D01*
X013026Y001010D01*
X013425Y001010D01*
X013425Y001600D01*
X012835Y001600D01*
X012835Y001418D02*
X011485Y001418D01*
X011342Y001179D02*
X012841Y001179D01*
X013425Y001179D02*
X013425Y001179D01*
X013425Y001418D02*
X013425Y001418D01*
X013425Y001656D02*
X013425Y001656D01*
X013425Y001895D02*
X013425Y001895D01*
X013425Y002133D02*
X013425Y002133D01*
X013943Y002133D02*
X014218Y002133D01*
X014832Y002133D02*
X017032Y002133D01*
X017045Y002146D02*
X017004Y002105D01*
X016975Y002055D01*
X016960Y001999D01*
X016960Y001600D01*
X017550Y001600D01*
X017550Y001600D01*
X017550Y002190D01*
X017949Y002190D01*
X018005Y002175D01*
X018055Y002146D01*
X018096Y002105D01*
X018125Y002055D01*
X018140Y001999D01*
X018140Y001953D01*
X018304Y002117D01*
X018529Y002210D01*
X018771Y002210D01*
X018996Y002117D01*
X019167Y001946D01*
X019260Y001721D01*
X019260Y001479D01*
X019167Y001254D01*
X018996Y001083D01*
X018771Y000990D01*
X018529Y000990D01*
X018304Y001083D01*
X018140Y001247D01*
X018140Y001201D01*
X018125Y001145D01*
X018096Y001095D01*
X018055Y001054D01*
X018005Y001025D01*
X017949Y001010D01*
X017550Y001010D01*
X017550Y001600D01*
X017550Y001600D01*
X017550Y001600D01*
X017550Y002190D01*
X017151Y002190D01*
X017095Y002175D01*
X017045Y002146D01*
X016960Y001895D02*
X015063Y001895D01*
X015135Y001656D02*
X016960Y001656D01*
X016960Y001600D02*
X016960Y001201D01*
X016975Y001145D01*
X017004Y001095D01*
X017045Y001054D01*
X017095Y001025D01*
X017151Y001010D01*
X017550Y001010D01*
X017550Y001600D01*
X016960Y001600D01*
X016960Y001418D02*
X015110Y001418D01*
X014967Y001179D02*
X016966Y001179D01*
X017550Y001179D02*
X017550Y001179D01*
X017550Y001418D02*
X017550Y001418D01*
X017550Y001656D02*
X017550Y001656D01*
X017550Y001895D02*
X017550Y001895D01*
X017550Y002133D02*
X017550Y002133D01*
X018068Y002133D02*
X018343Y002133D01*
X018957Y002133D02*
X020978Y002133D01*
X020761Y001895D02*
X019188Y001895D01*
X019260Y001656D02*
X020629Y001656D01*
X020565Y001418D02*
X019235Y001418D01*
X019092Y001179D02*
X020555Y001179D01*
X020590Y000941D02*
X002360Y000941D01*
X002189Y001895D02*
X004460Y001895D01*
X004532Y002133D02*
X001972Y002133D01*
X001467Y002372D02*
X021483Y002372D01*
X021967Y002372D02*
X022200Y002372D01*
X022200Y002610D02*
X000745Y002610D01*
X000745Y002372D02*
X000983Y002372D01*
X000745Y002849D02*
X022200Y002849D01*
X022200Y003087D02*
X013125Y003087D01*
X013123Y003084D02*
X013195Y003257D01*
X013195Y003443D01*
X013123Y003616D01*
X012991Y003748D01*
X012818Y003820D01*
X012632Y003820D01*
X012459Y003748D01*
X012420Y003710D01*
X010374Y003710D01*
X007105Y006979D01*
X007105Y007225D01*
X007009Y007457D01*
X006832Y007634D01*
X006600Y007730D01*
X006350Y007730D01*
X006118Y007634D01*
X005941Y007457D01*
X005845Y007225D01*
X005845Y006975D01*
X005941Y006743D01*
X006118Y006566D01*
X006350Y006470D01*
X006596Y006470D01*
X010021Y003045D01*
X010153Y002990D01*
X012420Y002990D01*
X012459Y002952D01*
X012632Y002880D01*
X012818Y002880D01*
X012991Y002952D01*
X013123Y003084D01*
X013195Y003326D02*
X022200Y003326D01*
X022200Y003564D02*
X013145Y003564D01*
X012861Y003803D02*
X022200Y003803D01*
X022200Y004041D02*
X010043Y004041D01*
X009805Y004280D02*
X022200Y004280D01*
X022200Y004518D02*
X009566Y004518D01*
X009328Y004757D02*
X012887Y004757D01*
X012902Y004742D02*
X013112Y004655D01*
X013338Y004655D01*
X013548Y004742D01*
X013708Y004902D01*
X013795Y005112D01*
X013795Y005338D01*
X013708Y005548D01*
X013548Y005708D01*
X013338Y005795D01*
X013112Y005795D01*
X013100Y005790D01*
X010716Y005790D01*
X010673Y005833D01*
X010463Y005920D01*
X010237Y005920D01*
X010027Y005833D01*
X009867Y005673D01*
X009780Y005463D01*
X009780Y005237D01*
X009867Y005027D01*
X010027Y004867D01*
X010237Y004780D01*
X010463Y004780D01*
X010673Y004867D01*
X010716Y004910D01*
X012739Y004910D01*
X012742Y004902D01*
X012902Y004742D01*
X013563Y004757D02*
X017154Y004757D01*
X017010Y004995D02*
X013747Y004995D01*
X013795Y005234D02*
X017022Y005234D01*
X017182Y005472D02*
X013740Y005472D01*
X013542Y005711D02*
X020887Y005711D01*
X020894Y005472D02*
X017768Y005472D01*
X017796Y004757D02*
X022200Y004757D01*
X022200Y004995D02*
X021794Y004995D01*
X022033Y005234D02*
X022200Y005234D01*
X021425Y006188D02*
X007897Y006188D01*
X007658Y006426D02*
X021425Y006426D01*
X021425Y006665D02*
X010902Y006665D01*
X010872Y006635D02*
X010940Y006703D01*
X010997Y006780D01*
X011040Y006866D01*
X011070Y006957D01*
X011085Y007052D01*
X011085Y007100D01*
X011085Y007148D01*
X011070Y007243D01*
X011040Y007334D01*
X010997Y007420D01*
X010940Y007497D01*
X010872Y007565D01*
X010795Y007622D01*
X010709Y007665D01*
X010618Y007695D01*
X010523Y007710D01*
X010475Y007710D01*
X010475Y007100D01*
X011085Y007100D01*
X010475Y007100D01*
X010475Y007100D01*
X010475Y007100D01*
X010475Y006490D01*
X010523Y006490D01*
X010618Y006505D01*
X010709Y006535D01*
X010795Y006578D01*
X010872Y006635D01*
X011052Y006903D02*
X021425Y006903D01*
X021425Y007142D02*
X011085Y007142D01*
X011017Y007380D02*
X014131Y007380D01*
X014132Y007380D02*
X014318Y007380D01*
X014491Y007452D01*
X014623Y007584D01*
X014695Y007757D01*
X014695Y007943D01*
X014623Y008116D01*
X014525Y008215D01*
X014525Y009860D01*
X014623Y009959D01*
X014695Y010132D01*
X014695Y010318D01*
X014623Y010491D01*
X014585Y010530D01*
X016838Y010530D01*
X017048Y010617D01*
X018086Y011655D01*
X018695Y011655D01*
X018690Y011643D01*
X018690Y010807D01*
X018727Y010719D01*
X017150Y010719D01*
X017389Y010958D02*
X018690Y010958D01*
X018690Y011196D02*
X017627Y011196D01*
X017866Y011435D02*
X018690Y011435D01*
X018727Y010719D02*
X018794Y010652D01*
X018882Y010615D01*
X018952Y010615D01*
X018783Y010446D01*
X018690Y010221D01*
X018690Y009979D01*
X018783Y009754D01*
X018954Y009583D01*
X019022Y009555D01*
X019016Y009550D01*
X018950Y009484D01*
X018895Y009409D01*
X018853Y009326D01*
X018825Y009238D01*
X018810Y009146D01*
X018810Y009100D01*
X019400Y009100D01*
X019990Y009100D01*
X019990Y009146D01*
X019975Y009238D01*
X019947Y009326D01*
X019905Y009409D01*
X019850Y009484D01*
X019784Y009550D01*
X019709Y009605D01*
X019681Y009619D01*
X019817Y009754D01*
X019836Y009800D01*
X020925Y009800D01*
X020925Y009765D02*
X019821Y009765D01*
X019808Y009527D02*
X020925Y009527D01*
X020925Y009288D02*
X019959Y009288D01*
X019990Y009100D02*
X019400Y009100D01*
X019400Y009100D01*
X019400Y009100D01*
X018810Y009100D01*
X018810Y009054D01*
X018825Y008962D01*
X018853Y008874D01*
X018895Y008791D01*
X018950Y008716D01*
X018956Y008710D01*
X018882Y008710D01*
X018794Y008673D01*
X018727Y008606D01*
X018690Y008518D01*
X018690Y007682D01*
X018727Y007594D01*
X018794Y007527D01*
X018882Y007490D01*
X019718Y007490D01*
X019806Y007527D01*
X019873Y007594D01*
X019910Y007682D01*
X019910Y008518D01*
X019873Y008606D01*
X019807Y008673D01*
X019850Y008716D01*
X019905Y008791D01*
X019947Y008874D01*
X019975Y008962D01*
X019990Y009054D01*
X019990Y009100D01*
X019989Y009050D02*
X020925Y009050D01*
X021090Y008811D02*
X019915Y008811D01*
X019887Y008573D02*
X021328Y008573D01*
X021425Y008334D02*
X019910Y008334D01*
X019910Y008096D02*
X021425Y008096D01*
X021425Y007857D02*
X019910Y007857D01*
X019884Y007619D02*
X021425Y007619D01*
X021425Y007380D02*
X017429Y007380D01*
X017454Y007405D02*
X017295Y007246D01*
X017087Y007160D01*
X016863Y007160D01*
X016655Y007246D01*
X016496Y007405D01*
X016410Y007613D01*
X016410Y007837D01*
X016496Y008045D01*
X016631Y008180D01*
X016621Y008180D01*
X016565Y008195D01*
X016515Y008224D01*
X016474Y008265D01*
X016445Y008315D01*
X016430Y008371D01*
X016430Y008725D01*
X016430Y009079D01*
X016445Y009135D01*
X016474Y009185D01*
X016515Y009226D01*
X016565Y009255D01*
X016621Y009270D01*
X016975Y009270D01*
X016975Y008725D01*
X016975Y008725D01*
X017520Y008725D01*
X017520Y009079D01*
X017505Y009135D01*
X017476Y009185D01*
X017435Y009226D01*
X017385Y009255D01*
X017329Y009270D01*
X016975Y009270D01*
X016975Y008725D01*
X016975Y008725D01*
X017520Y008725D01*
X017520Y008371D01*
X017505Y008315D01*
X017476Y008265D01*
X017435Y008224D01*
X017385Y008195D01*
X017329Y008180D01*
X017319Y008180D01*
X017454Y008045D01*
X017540Y007837D01*
X017540Y007613D01*
X017454Y007405D01*
X017540Y007619D02*
X018716Y007619D01*
X018690Y007857D02*
X017532Y007857D01*
X017404Y008096D02*
X018690Y008096D01*
X018690Y008334D02*
X017510Y008334D01*
X017520Y008573D02*
X018713Y008573D01*
X018885Y008811D02*
X017520Y008811D01*
X017520Y009050D02*
X018811Y009050D01*
X018841Y009288D02*
X014525Y009288D01*
X014525Y009527D02*
X018992Y009527D01*
X018778Y009765D02*
X014525Y009765D01*
X014642Y010004D02*
X018690Y010004D01*
X018699Y010242D02*
X014695Y010242D01*
X014628Y010481D02*
X018818Y010481D01*
X016975Y009050D02*
X016975Y009050D01*
X016975Y008811D02*
X016975Y008811D01*
X016975Y008725D02*
X016975Y008725D01*
X016430Y008725D01*
X016975Y008725D01*
X016430Y008811D02*
X014525Y008811D01*
X014525Y008573D02*
X016430Y008573D01*
X016440Y008334D02*
X014525Y008334D01*
X014632Y008096D02*
X016546Y008096D01*
X016418Y007857D02*
X014695Y007857D01*
X014638Y007619D02*
X016410Y007619D01*
X016521Y007380D02*
X014319Y007380D01*
X014132Y007380D02*
X013959Y007452D01*
X013827Y007584D01*
X013755Y007757D01*
X013755Y007943D01*
X013827Y008116D01*
X013925Y008215D01*
X013925Y009860D01*
X013827Y009959D01*
X013755Y010132D01*
X013755Y010318D01*
X013827Y010491D01*
X013865Y010530D01*
X012836Y010530D01*
X011289Y008983D01*
X011080Y008896D01*
X004146Y008896D01*
X003977Y008826D01*
X003723Y008826D01*
X003487Y008924D01*
X003307Y009104D01*
X003210Y009339D01*
X003210Y009593D01*
X003307Y009829D01*
X003487Y010009D01*
X003723Y010106D01*
X003977Y010106D01*
X004146Y010036D01*
X010730Y010036D01*
X012117Y011423D01*
X012277Y011583D01*
X012487Y011670D01*
X016489Y011670D01*
X017367Y012548D01*
X017527Y012708D01*
X017737Y012795D01*
X018867Y012795D01*
X018783Y012879D01*
X018690Y013104D01*
X017695Y013104D01*
X017915Y013343D02*
X018690Y013343D01*
X018690Y013346D02*
X018690Y013104D01*
X018690Y013346D02*
X018774Y013550D01*
X018106Y013550D01*
X016732Y012061D01*
X016729Y012055D01*
X016691Y012017D01*
X016655Y011978D01*
X016649Y011975D01*
X016645Y011971D01*
X016595Y011950D01*
X016547Y011928D01*
X016540Y011927D01*
X016535Y011925D01*
X016481Y011925D01*
X016427Y011923D01*
X016422Y011925D01*
X012433Y011925D01*
X012195Y011782D01*
X012195Y011757D01*
X012123Y011584D01*
X011991Y011452D01*
X011818Y011380D01*
X011632Y011380D01*
X011459Y011452D01*
X011327Y011584D01*
X011255Y011757D01*
X011255Y011943D01*
X011327Y012116D01*
X011459Y012248D01*
X011632Y012320D01*
X011818Y012320D01*
X011882Y012294D01*
X012164Y012463D01*
X012180Y012479D01*
X012215Y012494D01*
X012247Y012513D01*
X012269Y012516D01*
X012290Y012525D01*
X012328Y012525D01*
X012365Y012531D01*
X012387Y012525D01*
X016344Y012525D01*
X017718Y014014D01*
X017721Y014020D01*
X017759Y014058D01*
X010400Y014058D01*
X010400Y013820D02*
X017539Y013820D01*
X017759Y014058D02*
X017795Y014097D01*
X017801Y014100D01*
X017805Y014104D01*
X017855Y014125D01*
X017903Y014147D01*
X017910Y014148D01*
X017915Y014150D01*
X017969Y014150D01*
X018023Y014152D01*
X018028Y014150D01*
X018790Y014150D01*
X018790Y014346D01*
X018883Y014571D01*
X019054Y014742D01*
X019279Y014835D01*
X019521Y014835D01*
X019746Y014742D01*
X019917Y014571D01*
X020010Y014346D01*
X020010Y014104D01*
X019917Y013879D01*
X019746Y013708D01*
X019699Y013689D01*
X019817Y013571D01*
X019910Y013346D01*
X019910Y013104D01*
X019910Y013343D02*
X022200Y013343D01*
X022200Y013581D02*
X019807Y013581D01*
X019857Y013820D02*
X022200Y013820D01*
X022200Y014058D02*
X019991Y014058D01*
X020010Y014297D02*
X022200Y014297D01*
X022200Y014535D02*
X019932Y014535D01*
X019670Y014774D02*
X022200Y014774D01*
X022200Y015012D02*
X011311Y015012D01*
X011073Y014774D02*
X019130Y014774D01*
X018868Y014535D02*
X010834Y014535D01*
X010596Y014297D02*
X018790Y014297D01*
X017318Y013581D02*
X010475Y013581D01*
X010611Y013343D02*
X017098Y013343D01*
X016878Y013104D02*
X010610Y013104D01*
X010472Y012866D02*
X016658Y012866D01*
X016438Y012627D02*
X005124Y012627D01*
X004886Y012389D02*
X012039Y012389D01*
X012411Y011912D02*
X016730Y011912D01*
X016492Y011673D02*
X012160Y011673D01*
X012128Y011435D02*
X011950Y011435D01*
X011890Y011196D02*
X010617Y011196D01*
X010617Y011122D02*
X010538Y010932D01*
X010393Y010787D01*
X010203Y010708D01*
X009997Y010708D01*
X009807Y010787D01*
X009662Y010932D01*
X009583Y011122D01*
X009583Y011328D01*
X009662Y011518D01*
X009807Y011663D01*
X009997Y011742D01*
X010203Y011742D01*
X010393Y011663D01*
X010538Y011518D01*
X010617Y011328D01*
X010617Y011122D01*
X010549Y010958D02*
X011651Y010958D01*
X011413Y010719D02*
X010230Y010719D01*
X009970Y010719D02*
X007230Y010719D01*
X007203Y010708D02*
X007393Y010787D01*
X007538Y010932D01*
X007617Y011122D01*
X007617Y011328D01*
X007538Y011518D01*
X007393Y011663D01*
X007203Y011742D01*
X006997Y011742D01*
X006807Y011663D01*
X006662Y011518D01*
X006583Y011328D01*
X006583Y011122D01*
X006662Y010932D01*
X006807Y010787D01*
X006997Y010708D01*
X007203Y010708D01*
X006970Y010719D02*
X004490Y010719D01*
X004490Y010717D02*
X004393Y010482D01*
X004213Y010302D01*
X003977Y010204D01*
X003723Y010204D01*
X003487Y010302D01*
X003307Y010482D01*
X003210Y010717D01*
X003210Y010971D01*
X003307Y011207D01*
X003487Y011387D01*
X003723Y011484D01*
X003977Y011484D01*
X004213Y011387D01*
X004393Y011207D01*
X004490Y010971D01*
X004490Y010717D01*
X004490Y010958D02*
X006651Y010958D01*
X006583Y011196D02*
X004397Y011196D01*
X004097Y011435D02*
X006627Y011435D01*
X006830Y011673D02*
X004197Y011673D01*
X004414Y011912D02*
X011255Y011912D01*
X011290Y011673D02*
X010370Y011673D01*
X010573Y011435D02*
X011500Y011435D01*
X011360Y012150D02*
X004647Y012150D01*
X004118Y012866D02*
X000745Y012866D01*
X000745Y013104D02*
X003230Y013104D01*
X003210Y013343D02*
X000745Y013343D01*
X000745Y013581D02*
X003210Y013581D01*
X003210Y013820D02*
X000745Y013820D01*
X000745Y014058D02*
X003214Y014058D01*
X004486Y014058D02*
X005311Y014058D01*
X005549Y014297D02*
X000745Y014297D01*
X000745Y014535D02*
X005788Y014535D01*
X006026Y014774D02*
X000745Y014774D01*
X000745Y015012D02*
X006265Y015012D01*
X006503Y015251D02*
X000745Y015251D01*
X000745Y015489D02*
X006650Y015489D01*
X006962Y015728D02*
X000745Y015728D01*
X000745Y015966D02*
X010219Y015966D01*
X010457Y016205D02*
X000745Y016205D01*
X000745Y016443D02*
X010696Y016443D01*
X010934Y016682D02*
X000745Y016682D01*
X000745Y016920D02*
X010972Y016920D01*
X010972Y017159D02*
X000745Y017159D01*
X000745Y017397D02*
X010972Y017397D01*
X010972Y017636D02*
X000745Y017636D01*
X000745Y017874D02*
X002935Y017874D01*
X003006Y017803D02*
X002741Y018068D01*
X002598Y018413D01*
X002598Y018787D01*
X002741Y019132D01*
X003006Y019397D01*
X003351Y019540D01*
X003725Y019540D01*
X004070Y019397D01*
X004335Y019132D01*
X004478Y018787D01*
X004478Y018413D01*
X004335Y018068D01*
X004070Y017803D01*
X003725Y017660D01*
X003351Y017660D01*
X003006Y017803D01*
X002722Y018113D02*
X000745Y018113D01*
X001835Y018351D02*
X002624Y018351D01*
X002598Y018590D02*
X002119Y018590D01*
X002275Y018828D02*
X002615Y018828D01*
X002714Y019067D02*
X002360Y019067D01*
X002395Y019305D02*
X002914Y019305D01*
X002384Y019544D02*
X013665Y019544D01*
X013454Y019305D02*
X012036Y019305D01*
X012236Y019067D02*
X013244Y019067D01*
X013033Y018828D02*
X012335Y018828D01*
X012352Y018590D02*
X012823Y018590D01*
X012613Y018351D02*
X012326Y018351D01*
X012402Y018113D02*
X012228Y018113D01*
X012192Y017874D02*
X012015Y017874D01*
X011981Y017636D02*
X011852Y017636D01*
X010809Y017874D02*
X009715Y017874D01*
X009644Y017803D02*
X009909Y018068D01*
X010052Y018413D01*
X010052Y018787D01*
X009909Y019132D01*
X009644Y019397D01*
X009299Y019540D01*
X008925Y019540D01*
X008580Y019397D01*
X008315Y019132D01*
X008172Y018787D01*
X008172Y018413D01*
X008315Y018068D01*
X008580Y017803D01*
X008925Y017660D01*
X009299Y017660D01*
X009644Y017803D01*
X009928Y018113D02*
X010596Y018113D01*
X010498Y018351D02*
X010026Y018351D01*
X010052Y018590D02*
X010472Y018590D01*
X010489Y018828D02*
X010035Y018828D01*
X009936Y019067D02*
X010588Y019067D01*
X010788Y019305D02*
X009736Y019305D01*
X008488Y019305D02*
X006462Y019305D01*
X006370Y019397D02*
X006025Y019540D01*
X005651Y019540D01*
X005306Y019397D01*
X005041Y019132D01*
X004898Y018787D01*
X004898Y018413D01*
X005041Y018068D01*
X005306Y017803D01*
X005651Y017660D01*
X006025Y017660D01*
X006370Y017803D01*
X006635Y018068D01*
X006778Y018413D01*
X006778Y018787D01*
X006635Y019132D01*
X006370Y019397D01*
X006662Y019067D02*
X008288Y019067D01*
X008189Y018828D02*
X006761Y018828D01*
X006778Y018590D02*
X008172Y018590D01*
X008198Y018351D02*
X006752Y018351D01*
X006654Y018113D02*
X008296Y018113D01*
X008509Y017874D02*
X006441Y017874D01*
X005235Y017874D02*
X004141Y017874D01*
X004354Y018113D02*
X005022Y018113D01*
X004924Y018351D02*
X004452Y018351D01*
X004478Y018590D02*
X004898Y018590D01*
X004915Y018828D02*
X004461Y018828D01*
X004362Y019067D02*
X005014Y019067D01*
X005214Y019305D02*
X004162Y019305D01*
X007238Y015728D02*
X009962Y015728D01*
X009650Y015489D02*
X008458Y015489D01*
X008697Y015251D02*
X009583Y015251D01*
X009628Y015012D02*
X008935Y015012D01*
X009174Y014774D02*
X009839Y014774D01*
X009986Y014535D02*
X009412Y014535D01*
X009651Y014297D02*
X009805Y014297D01*
X009122Y013581D02*
X007475Y013581D01*
X007538Y013518D02*
X007393Y013663D01*
X007203Y013742D01*
X006997Y013742D01*
X006807Y013663D01*
X006662Y013518D01*
X006583Y013328D01*
X006583Y013122D01*
X006662Y012932D01*
X006807Y012787D01*
X006997Y012708D01*
X007203Y012708D01*
X007393Y012787D01*
X007538Y012932D01*
X007617Y013122D01*
X007617Y013328D01*
X007538Y013518D01*
X007611Y013343D02*
X009360Y013343D01*
X009590Y013104D02*
X007610Y013104D01*
X007472Y012866D02*
X009728Y012866D01*
X008883Y013820D02*
X006317Y013820D01*
X006555Y014058D02*
X008645Y014058D01*
X008406Y014297D02*
X006794Y014297D01*
X007032Y014535D02*
X008168Y014535D01*
X007929Y014774D02*
X007361Y014774D01*
X006725Y013581D02*
X006078Y013581D01*
X005840Y013343D02*
X006589Y013343D01*
X006590Y013104D02*
X005601Y013104D01*
X005363Y012866D02*
X006728Y012866D01*
X007370Y011673D02*
X009830Y011673D01*
X009627Y011435D02*
X007573Y011435D01*
X007617Y011196D02*
X009583Y011196D01*
X009651Y010958D02*
X007549Y010958D01*
X007203Y008742D02*
X006997Y008742D01*
X006807Y008663D01*
X006662Y008518D01*
X006583Y008328D01*
X006583Y008122D01*
X006662Y007932D01*
X006807Y007787D01*
X006997Y007708D01*
X007203Y007708D01*
X007393Y007787D01*
X007538Y007932D01*
X007617Y008122D01*
X007617Y008328D01*
X007538Y008518D01*
X007393Y008663D01*
X007203Y008742D01*
X007484Y008573D02*
X009744Y008573D01*
X009721Y008549D02*
X009675Y008486D01*
X009639Y008416D01*
X009615Y008341D01*
X009603Y008264D01*
X009603Y008225D01*
X009603Y008186D01*
X009615Y008109D01*
X009639Y008034D01*
X009675Y007964D01*
X009721Y007901D01*
X009776Y007846D01*
X009839Y007800D01*
X009909Y007764D01*
X009984Y007740D01*
X010061Y007728D01*
X010100Y007728D01*
X010139Y007728D01*
X010216Y007740D01*
X010291Y007764D01*
X010361Y007800D01*
X010424Y007846D01*
X010479Y007901D01*
X010525Y007964D01*
X010561Y008034D01*
X010585Y008109D01*
X010597Y008186D01*
X010597Y008225D01*
X010597Y008264D01*
X010585Y008341D01*
X010561Y008416D01*
X010525Y008486D01*
X010479Y008549D01*
X010424Y008604D01*
X010361Y008650D01*
X010291Y008686D01*
X010216Y008710D01*
X010139Y008722D01*
X010100Y008722D01*
X010100Y008225D01*
X010100Y008225D01*
X010597Y008225D01*
X010100Y008225D01*
X010100Y008225D01*
X010100Y008225D01*
X009603Y008225D01*
X010100Y008225D01*
X010100Y008722D01*
X010061Y008722D01*
X009984Y008710D01*
X009909Y008686D01*
X009839Y008650D01*
X009776Y008604D01*
X009721Y008549D01*
X009614Y008334D02*
X007615Y008334D01*
X007606Y008096D02*
X009619Y008096D01*
X009765Y007857D02*
X007463Y007857D01*
X007041Y007380D02*
X009933Y007380D01*
X009953Y007420D02*
X009910Y007334D01*
X009880Y007243D01*
X009865Y007148D01*
X009865Y007100D01*
X010475Y007100D01*
X010475Y007100D01*
X010475Y007100D01*
X010475Y007710D01*
X010427Y007710D01*
X010332Y007695D01*
X010241Y007665D01*
X010155Y007622D01*
X010078Y007565D01*
X010010Y007497D01*
X009953Y007420D01*
X010151Y007619D02*
X006847Y007619D01*
X006737Y007857D02*
X004447Y007857D01*
X004490Y007961D02*
X004393Y007726D01*
X004213Y007546D01*
X003977Y007448D01*
X003723Y007448D01*
X003487Y007546D01*
X003307Y007726D01*
X003210Y007961D01*
X003210Y008215D01*
X003307Y008451D01*
X003487Y008631D01*
X003723Y008728D01*
X003977Y008728D01*
X004213Y008631D01*
X004393Y008451D01*
X004490Y008215D01*
X004490Y007961D01*
X004490Y008096D02*
X006594Y008096D01*
X006585Y008334D02*
X004441Y008334D01*
X004271Y008573D02*
X006716Y008573D01*
X006103Y007619D02*
X004285Y007619D01*
X004213Y007253D02*
X003977Y007350D01*
X003723Y007350D01*
X003487Y007253D01*
X003307Y007073D01*
X003210Y006838D01*
X003210Y006583D01*
X003236Y006520D01*
X001971Y005255D01*
X001925Y005145D01*
X001925Y005090D01*
X001827Y004991D01*
X001755Y004818D01*
X001755Y004632D01*
X001827Y004459D01*
X001959Y004327D01*
X002132Y004255D01*
X002318Y004255D01*
X002491Y004327D01*
X002623Y004459D01*
X002695Y004632D01*
X002695Y004818D01*
X002623Y004991D01*
X002589Y005025D01*
X003660Y006096D01*
X003723Y006070D01*
X003977Y006070D01*
X004213Y006168D01*
X004393Y006348D01*
X004490Y006583D01*
X004490Y006838D01*
X004393Y007073D01*
X004213Y007253D01*
X004324Y007142D02*
X005845Y007142D01*
X005875Y006903D02*
X004463Y006903D01*
X004490Y006665D02*
X006020Y006665D01*
X006475Y007100D02*
X010225Y003350D01*
X012725Y003350D01*
X012589Y003803D02*
X010282Y003803D01*
X009740Y003326D02*
X000745Y003326D01*
X000745Y003564D02*
X009502Y003564D01*
X009263Y003803D02*
X000745Y003803D01*
X000745Y004041D02*
X009025Y004041D01*
X008786Y004280D02*
X002378Y004280D01*
X002072Y004280D02*
X000745Y004280D01*
X000745Y004518D02*
X001802Y004518D01*
X001755Y004757D02*
X000745Y004757D01*
X000745Y004995D02*
X001830Y004995D01*
X001962Y005234D02*
X000745Y005234D01*
X000745Y005472D02*
X002188Y005472D01*
X002426Y005711D02*
X000745Y005711D01*
X000745Y005949D02*
X002665Y005949D01*
X002903Y006188D02*
X000745Y006188D01*
X000745Y006426D02*
X003142Y006426D01*
X003210Y006665D02*
X000745Y006665D01*
X000745Y006903D02*
X003237Y006903D01*
X003376Y007142D02*
X000745Y007142D01*
X000745Y007380D02*
X005909Y007380D01*
X006640Y006426D02*
X004425Y006426D01*
X004232Y006188D02*
X006878Y006188D01*
X007117Y005949D02*
X003513Y005949D01*
X003275Y005711D02*
X007355Y005711D01*
X007594Y005472D02*
X003036Y005472D01*
X002798Y005234D02*
X007832Y005234D01*
X008071Y004995D02*
X002620Y004995D01*
X002695Y004757D02*
X008309Y004757D01*
X008548Y004518D02*
X002648Y004518D01*
X000745Y003087D02*
X009979Y003087D01*
X009899Y004995D02*
X009089Y004995D01*
X008851Y005234D02*
X009781Y005234D01*
X009784Y005472D02*
X008612Y005472D01*
X008374Y005711D02*
X009904Y005711D01*
X010241Y006535D02*
X010332Y006505D01*
X010427Y006490D01*
X010475Y006490D01*
X010475Y007100D01*
X009865Y007100D01*
X009865Y007052D01*
X009880Y006957D01*
X009910Y006866D01*
X009953Y006780D01*
X010010Y006703D01*
X010078Y006635D01*
X010155Y006578D01*
X010241Y006535D01*
X010048Y006665D02*
X007420Y006665D01*
X007181Y006903D02*
X009898Y006903D01*
X009865Y007142D02*
X007105Y007142D01*
X008135Y005949D02*
X021034Y005949D01*
X016430Y009050D02*
X014525Y009050D01*
X013925Y009050D02*
X011356Y009050D01*
X011594Y009288D02*
X013925Y009288D01*
X013925Y009527D02*
X011833Y009527D01*
X012071Y009765D02*
X013925Y009765D01*
X013808Y010004D02*
X012310Y010004D01*
X012548Y010242D02*
X013755Y010242D01*
X013822Y010481D02*
X012787Y010481D01*
X011174Y010481D02*
X004392Y010481D01*
X004069Y010242D02*
X010936Y010242D01*
X010456Y008573D02*
X013925Y008573D01*
X013925Y008811D02*
X000745Y008811D01*
X000745Y008573D02*
X003429Y008573D01*
X003259Y008334D02*
X000745Y008334D01*
X000745Y008096D02*
X003210Y008096D01*
X003253Y007857D02*
X000745Y007857D01*
X000745Y007619D02*
X003415Y007619D01*
X003362Y009050D02*
X000745Y009050D01*
X000745Y009288D02*
X003231Y009288D01*
X003210Y009527D02*
X000745Y009527D01*
X000745Y009765D02*
X003281Y009765D01*
X003482Y010004D02*
X000745Y010004D01*
X000745Y010242D02*
X003631Y010242D01*
X003308Y010481D02*
X000745Y010481D01*
X000745Y010719D02*
X003210Y010719D01*
X003210Y010958D02*
X000745Y010958D01*
X000745Y011196D02*
X003303Y011196D01*
X003603Y011435D02*
X000745Y011435D01*
X000745Y011673D02*
X003503Y011673D01*
X003286Y011912D02*
X000745Y011912D01*
X000745Y012150D02*
X003210Y012150D01*
X003226Y012389D02*
X000745Y012389D01*
X000745Y012627D02*
X003350Y012627D01*
X004490Y013343D02*
X004595Y013343D01*
X004490Y013581D02*
X004834Y013581D01*
X005072Y013820D02*
X004490Y013820D01*
X010100Y008573D02*
X010100Y008573D01*
X010100Y008334D02*
X010100Y008334D01*
X010100Y008225D02*
X010100Y007728D01*
X010100Y008225D01*
X010100Y008225D01*
X010100Y008096D02*
X010100Y008096D01*
X010100Y007857D02*
X010100Y007857D01*
X010435Y007857D02*
X013755Y007857D01*
X013812Y007619D02*
X010799Y007619D01*
X010475Y007619D02*
X010475Y007619D01*
X010475Y007380D02*
X010475Y007380D01*
X010475Y007142D02*
X010475Y007142D01*
X010475Y006903D02*
X010475Y006903D01*
X010475Y006665D02*
X010475Y006665D01*
X010581Y008096D02*
X013818Y008096D01*
X013925Y008334D02*
X010586Y008334D01*
X016814Y012150D02*
X016969Y012150D01*
X017034Y012389D02*
X017207Y012389D01*
X017254Y012627D02*
X017446Y012627D01*
X017475Y012866D02*
X018797Y012866D01*
X017631Y015966D02*
X022200Y015966D01*
X022200Y015728D02*
X012027Y015728D01*
X012265Y015966D02*
X017069Y015966D01*
X016880Y016257D02*
X016880Y016443D01*
X017017Y016682D02*
X012981Y016682D01*
X013219Y016920D02*
X017050Y016920D01*
X017050Y017159D02*
X013458Y017159D01*
X013696Y017397D02*
X017050Y017397D01*
X017050Y017636D02*
X013888Y017636D01*
X013900Y017874D02*
X017050Y017874D01*
X017050Y018113D02*
X016179Y018113D01*
X016347Y018351D02*
X017050Y018351D01*
X017050Y018590D02*
X016347Y018590D01*
X015521Y018113D02*
X015179Y018113D01*
X015347Y018351D02*
X015353Y018351D01*
X015347Y018590D02*
X015353Y018590D01*
X015347Y018828D02*
X015353Y018828D01*
X014521Y018113D02*
X013900Y018113D01*
X014025Y018351D02*
X014353Y018351D01*
X014353Y018590D02*
X014264Y018590D01*
X017650Y018590D02*
X020741Y018590D01*
X020620Y018828D02*
X017650Y018828D01*
X017650Y019067D02*
X020556Y019067D01*
X020555Y019305D02*
X017650Y019305D01*
X017584Y019544D02*
X020599Y019544D01*
X020944Y018351D02*
X017650Y018351D01*
X017650Y018113D02*
X021356Y018113D01*
X022094Y018113D02*
X022200Y018113D01*
X022200Y017874D02*
X017650Y017874D01*
X017650Y017636D02*
X022200Y017636D01*
X022200Y017397D02*
X017650Y017397D01*
X017650Y017159D02*
X022200Y017159D01*
X022200Y016920D02*
X017650Y016920D01*
X017683Y016682D02*
X022200Y016682D01*
X022200Y015489D02*
X011788Y015489D01*
X011550Y015251D02*
X022200Y015251D01*
X018208Y001179D02*
X018134Y001179D01*
X014083Y001179D02*
X014009Y001179D01*
X010458Y001179D02*
X010384Y001179D01*
X005708Y001179D02*
X005634Y001179D01*
D21*
X002225Y004725D03*
X011725Y011850D03*
X014225Y010225D03*
X015975Y009100D03*
X014225Y007850D03*
X017475Y005100D03*
X021350Y005600D03*
X016225Y013225D03*
X017350Y016350D03*
X016725Y019100D03*
X012225Y014475D03*
X012725Y003350D03*
D22*
X017475Y005100D02*
X021475Y005100D01*
X022100Y005725D01*
X022100Y009600D01*
X021600Y010100D01*
X021600Y010975D01*
X021350Y011225D01*
X019300Y011225D01*
X019300Y010100D02*
X021100Y010100D01*
X021225Y009975D01*
X021225Y009100D01*
X021725Y008600D01*
X021725Y005975D01*
X021350Y005600D01*
X018600Y009100D02*
X015975Y009100D01*
X014225Y010225D02*
X014225Y007850D01*
X011725Y011850D02*
X012350Y012225D01*
X016475Y012225D01*
X017975Y013850D01*
X019025Y013850D01*
X019400Y014225D01*
X017350Y016350D02*
X017350Y019350D01*
X016850Y019725D01*
X014225Y019725D01*
X011412Y016537D01*
X012225Y014475D02*
X014975Y014475D01*
X016225Y013225D01*
X016475Y013225D01*
X013600Y017725D02*
X013600Y018350D01*
X014600Y019350D01*
X016475Y019350D01*
X016725Y019100D01*
X013600Y017725D02*
X010100Y014225D01*
X010100Y013225D01*
X003850Y006710D02*
X002225Y005085D01*
X002225Y004725D01*
D23*
X010350Y005350D03*
X013225Y005225D03*
D24*
X013100Y005350D01*
X010350Y005350D01*
X004097Y012222D02*
X003850Y012222D01*
X004097Y012222D02*
X007100Y015225D01*
X008100Y015225D01*
X010100Y013225D01*
X010100Y015225D02*
X011412Y016537D01*
X011412Y018600D01*
D25*
X017850Y012225D02*
X019400Y012225D01*
X017850Y012225D02*
X016725Y011100D01*
X012600Y011100D01*
X010966Y009466D01*
X003850Y009466D01*
M02*
