G75*
%MOIN*%
%OFA0B0*%
%FSLAX24Y24*%
%IPPOS*%
%LPD*%
%AMOC8*
5,1,8,0,0,1.08239X$1,22.5*
%
%ADD10R,0.0740X0.0740*%
%ADD11C,0.0740*%
%ADD12R,0.0555X0.0555*%
%ADD13C,0.0650*%
%ADD14R,0.0650X0.0650*%
%ADD15C,0.0160*%
%ADD16C,0.0400*%
%ADD17C,0.0120*%
%ADD18C,0.0400*%
%ADD19C,0.0560*%
%ADD20C,0.0500*%
%ADD21C,0.0320*%
D10*
X010500Y009925D03*
X011600Y013175D03*
X017425Y013250D03*
X021425Y012850D03*
X023425Y010625D03*
X031975Y007800D03*
X033000Y010425D03*
X034100Y012925D03*
X025300Y020250D03*
X027300Y020350D03*
X016800Y020250D03*
X020300Y001350D03*
X029300Y001350D03*
D11*
X030300Y001250D03*
X031300Y001350D03*
X032300Y001250D03*
X033300Y001350D03*
X034300Y001250D03*
X035300Y001350D03*
X036300Y001250D03*
X037230Y003300D03*
X038370Y003300D03*
X038250Y004300D03*
X037250Y004300D03*
X037350Y005300D03*
X038350Y005300D03*
X038250Y006300D03*
X037250Y006300D03*
X037350Y007300D03*
X038350Y007300D03*
X038250Y008300D03*
X037250Y008300D03*
X037350Y009300D03*
X038350Y009300D03*
X038250Y010300D03*
X037250Y010300D03*
X037350Y011300D03*
X038350Y011300D03*
X038250Y012300D03*
X037250Y012300D03*
X037350Y013300D03*
X038350Y013300D03*
X038250Y014300D03*
X037250Y014300D03*
X037350Y015300D03*
X038350Y015300D03*
X038250Y016300D03*
X037250Y016300D03*
X037350Y017300D03*
X038350Y017300D03*
X038250Y018300D03*
X037250Y018300D03*
X037350Y019300D03*
X038350Y019300D03*
X038370Y020300D03*
X037230Y020300D03*
X034300Y020250D03*
X033300Y020350D03*
X032300Y020250D03*
X031300Y020350D03*
X030300Y020250D03*
X029300Y020350D03*
X028300Y020250D03*
X024300Y020350D03*
X023300Y020250D03*
X022300Y020350D03*
X021300Y020250D03*
X020300Y020350D03*
X019300Y020250D03*
X018300Y020350D03*
X015800Y020350D03*
X014800Y020250D03*
X013800Y020350D03*
X012800Y020250D03*
X011800Y020350D03*
X010800Y020250D03*
X009800Y020350D03*
X014425Y013350D03*
X015425Y013250D03*
X016425Y013350D03*
X021425Y010625D03*
X022425Y010725D03*
X022425Y012750D03*
X023425Y012850D03*
X026925Y013025D03*
X027925Y012925D03*
X028925Y013025D03*
X029925Y012925D03*
X030925Y013025D03*
X031925Y012925D03*
X033000Y012925D03*
X034100Y010425D03*
X031925Y010325D03*
X030925Y010425D03*
X029925Y010325D03*
X028925Y010425D03*
X027925Y010325D03*
X026925Y010425D03*
X026300Y008175D03*
X025300Y008175D03*
X024300Y008175D03*
X023300Y008175D03*
X018425Y009825D03*
X017425Y009925D03*
X016425Y009825D03*
X015425Y009925D03*
X014425Y009825D03*
X013425Y009925D03*
X011600Y009925D03*
X010500Y013175D03*
X023300Y004175D03*
X024300Y004175D03*
X025300Y004175D03*
X026300Y004175D03*
X026300Y001350D03*
X025300Y001250D03*
X024300Y001350D03*
X023300Y001250D03*
X022300Y001350D03*
X021300Y001250D03*
X018300Y001200D03*
X017300Y001300D03*
X016300Y001200D03*
X015300Y001300D03*
X014300Y001200D03*
X013300Y001300D03*
X027300Y001250D03*
X031875Y004800D03*
X031975Y005800D03*
X031875Y006800D03*
D12*
X011550Y001675D03*
X010550Y001675D03*
D13*
X008550Y001550D03*
X031425Y017550D03*
D14*
X032425Y017550D03*
X008550Y002550D03*
D15*
X007550Y001925D02*
X007175Y002300D01*
X005675Y002300D01*
X005425Y002050D01*
X005425Y001675D01*
X005175Y001425D01*
X004925Y001425D01*
X004675Y001675D01*
X007550Y001925D02*
X007550Y001300D01*
X007925Y000925D01*
X012300Y000925D01*
X012425Y001050D01*
X012425Y001675D01*
X012800Y002050D01*
X015050Y002050D01*
X015300Y001800D01*
X015300Y001300D01*
D16*
X020425Y004675D03*
X019800Y005300D03*
X019175Y005800D03*
X011175Y008175D03*
X008050Y006925D03*
X006800Y006925D03*
X006050Y005925D03*
X006800Y005550D03*
X004550Y005800D03*
X004300Y005050D03*
X004175Y004300D03*
X004800Y004300D03*
X005425Y002925D03*
X007300Y003925D03*
X004675Y001675D03*
X007425Y000800D03*
X005050Y008050D03*
X003675Y008550D03*
X002675Y008175D03*
X003050Y010800D03*
X004175Y011675D03*
X007050Y012425D03*
X007550Y013050D03*
X008425Y012050D03*
X008425Y011050D03*
X005550Y013300D03*
X004800Y014175D03*
X003300Y013425D03*
X001425Y014425D03*
X006425Y015175D03*
X007175Y014675D03*
X008550Y014425D03*
X007050Y016175D03*
X005800Y017425D03*
X012800Y015925D03*
X012925Y016425D03*
X013425Y015300D03*
X012925Y014925D03*
X013050Y014425D03*
X015050Y016425D03*
X017050Y016425D03*
X018675Y014425D03*
X019675Y012800D03*
X019675Y011425D03*
X025300Y014675D03*
X023925Y014925D03*
X030425Y015300D03*
X029800Y009050D03*
X018300Y018675D03*
X016300Y018800D03*
X015300Y019300D03*
D17*
X015300Y017300D01*
X014425Y016425D01*
X014425Y015550D01*
X013675Y014800D01*
X013675Y013425D01*
X012675Y012425D01*
X008800Y012425D01*
X008425Y012050D01*
X007800Y012425D02*
X008550Y013175D01*
X008550Y014425D01*
X009250Y014425D01*
X010500Y013175D01*
X009800Y014425D02*
X009425Y014800D01*
X007300Y014800D01*
X007175Y014675D01*
X006425Y015175D02*
X006425Y016175D01*
X006925Y016675D01*
X012675Y016675D01*
X012925Y016425D01*
X012800Y015925D02*
X012300Y016425D01*
X007300Y016425D01*
X007050Y016175D01*
X005800Y017425D02*
X005800Y014800D01*
X007550Y013050D01*
X007800Y012425D02*
X007050Y012425D01*
X005550Y013300D02*
X005300Y013550D01*
X005300Y019300D01*
X005425Y019425D01*
X006925Y019425D01*
X007175Y019675D01*
X007175Y020925D01*
X007300Y021050D01*
X018925Y021050D01*
X019300Y020675D01*
X019300Y020250D01*
X017800Y018425D02*
X017425Y018800D01*
X016300Y018800D01*
X016675Y019175D01*
X033675Y019175D01*
X034300Y019800D01*
X034300Y020250D01*
X033300Y020350D02*
X033300Y020050D01*
X032800Y019550D01*
X016300Y019550D01*
X015550Y018800D01*
X015550Y018425D01*
X015925Y018050D01*
X016800Y018050D01*
X017175Y017675D01*
X017175Y016550D01*
X017050Y016425D01*
X016425Y015550D01*
X016425Y013350D01*
X017425Y013250D02*
X017425Y015675D01*
X017800Y016050D01*
X017800Y018425D01*
X018300Y018675D02*
X018300Y013425D01*
X018550Y013175D01*
X019300Y013175D01*
X019675Y012800D01*
X019050Y012300D02*
X018925Y012175D01*
X018925Y011800D01*
X018800Y011675D01*
X004800Y011675D01*
X004300Y012175D01*
X004300Y012925D01*
X004050Y013175D01*
X003550Y013175D01*
X003300Y013425D01*
X004800Y014175D02*
X001675Y014175D01*
X001425Y014425D01*
X004175Y011675D02*
X004425Y011425D01*
X019050Y011425D01*
X019175Y011550D01*
X019175Y011925D01*
X019300Y012050D01*
X020425Y012050D01*
X020800Y012425D01*
X020800Y012675D01*
X020925Y012800D01*
X021375Y012800D01*
X021425Y012850D01*
X020800Y013425D02*
X020550Y013175D01*
X020550Y012550D01*
X020300Y012300D01*
X019050Y012300D01*
X019675Y011425D02*
X019425Y011175D01*
X010050Y011175D01*
X009675Y010800D01*
X009675Y009550D01*
X009300Y009175D01*
X004800Y009175D01*
X004050Y008425D01*
X004050Y006550D01*
X003675Y006175D01*
X003675Y004550D01*
X003925Y004300D01*
X004175Y004300D01*
X004800Y004300D02*
X005425Y003675D01*
X005425Y002925D01*
X007175Y003050D02*
X007175Y002300D01*
X007175Y003050D02*
X008175Y004050D01*
X008175Y006800D01*
X008050Y006925D01*
X006800Y006925D02*
X006800Y007800D01*
X007050Y008050D01*
X011050Y008050D01*
X011175Y008175D01*
X012050Y008800D02*
X004800Y008800D01*
X004300Y008300D01*
X004300Y006300D01*
X004050Y006050D01*
X004050Y005300D01*
X004300Y005050D01*
X004550Y005800D02*
X004675Y005925D01*
X004675Y008300D01*
X004925Y008550D01*
X012425Y008550D01*
X012675Y008800D01*
X012675Y010300D01*
X012925Y010550D01*
X019800Y010550D01*
X020050Y010300D01*
X021300Y010300D01*
X021425Y010425D01*
X021425Y010625D01*
X020800Y011425D02*
X020300Y010925D01*
X019925Y010925D01*
X019800Y010800D01*
X012800Y010800D01*
X012300Y010300D01*
X012300Y009050D01*
X012050Y008800D01*
X014425Y009825D02*
X014425Y005050D01*
X014800Y004675D01*
X020425Y004675D01*
X019800Y005300D02*
X015550Y005300D01*
X015425Y005425D01*
X015425Y009925D01*
X016425Y009825D02*
X016425Y005925D01*
X016550Y005800D01*
X019175Y005800D01*
X023300Y007050D02*
X023300Y004175D01*
X023300Y001250D01*
X024300Y001350D02*
X024300Y004175D01*
X024300Y006550D01*
X024550Y006800D01*
X031875Y006800D01*
X031975Y007800D02*
X027300Y007800D01*
X026800Y007300D01*
X023550Y007300D01*
X023300Y007050D01*
X025300Y005425D02*
X025675Y005800D01*
X031975Y005800D01*
X031875Y004800D02*
X026425Y004800D01*
X026300Y004675D01*
X026300Y004175D01*
X026300Y001350D01*
X025300Y001250D02*
X025300Y004175D01*
X025300Y005425D01*
X030800Y009050D02*
X030925Y008925D01*
X036175Y008925D01*
X036300Y008800D01*
X036300Y008300D01*
X036675Y007925D01*
X036675Y007800D01*
X037175Y007300D01*
X037350Y007300D01*
X037250Y006300D02*
X036925Y006300D01*
X036550Y005925D01*
X036550Y002550D01*
X036925Y002175D01*
X036925Y000800D01*
X036675Y000550D01*
X007675Y000550D01*
X007425Y000800D01*
X007300Y003925D02*
X006425Y003925D01*
X006050Y004300D01*
X006050Y005925D01*
X006800Y005550D02*
X006925Y005675D01*
X006925Y005925D01*
X006300Y006550D01*
X006300Y007300D01*
X006175Y007425D01*
X005300Y007425D01*
X005050Y007675D01*
X005050Y008050D01*
X004675Y009425D02*
X003675Y008550D01*
X003050Y008550D02*
X002675Y008175D01*
X003050Y008550D02*
X003050Y010800D01*
X004675Y009425D02*
X008050Y009425D01*
X008425Y009800D01*
X008425Y011050D01*
X009800Y014425D02*
X013050Y014425D01*
X012925Y014925D02*
X012800Y015050D01*
X012800Y015300D01*
X013925Y016425D01*
X013925Y016675D01*
X014675Y017425D01*
X014675Y018800D01*
X013800Y019675D01*
X013175Y019675D01*
X012800Y020050D01*
X012800Y020250D01*
X013800Y020350D02*
X013800Y020050D01*
X014925Y018925D01*
X014925Y017300D01*
X014175Y016550D01*
X014175Y016300D01*
X013425Y015550D01*
X013425Y015300D01*
X015050Y015425D02*
X015425Y015050D01*
X015425Y013250D01*
X018675Y014425D02*
X024675Y014425D01*
X024800Y014300D01*
X025550Y014300D01*
X025675Y014425D01*
X028925Y014425D01*
X029800Y015300D01*
X030425Y015300D01*
X030050Y014425D02*
X032925Y014425D01*
X034800Y016300D01*
X037250Y016300D01*
X037350Y015300D02*
X034175Y015300D01*
X033050Y014175D01*
X030300Y014175D01*
X029925Y013800D01*
X029925Y012925D01*
X029300Y013675D02*
X030050Y014425D01*
X030925Y013675D02*
X031175Y013925D01*
X033175Y013925D01*
X033550Y014300D01*
X037250Y014300D01*
X036550Y013925D02*
X036550Y013425D01*
X036675Y013300D01*
X037350Y013300D01*
X036550Y013925D02*
X036425Y014050D01*
X033675Y014050D01*
X033300Y013675D01*
X032175Y013675D01*
X031925Y013425D01*
X031925Y012925D01*
X030925Y013025D02*
X030925Y013675D01*
X029300Y013675D02*
X028175Y013675D01*
X027925Y013425D01*
X027925Y012925D01*
X025300Y014675D02*
X025050Y014925D01*
X023925Y014925D01*
X023300Y013425D02*
X020800Y013425D01*
X023300Y013425D02*
X023425Y013300D01*
X023425Y012850D01*
X023175Y011425D02*
X020800Y011425D01*
X023175Y011425D02*
X023425Y011175D01*
X023425Y010625D01*
X029925Y010325D02*
X029925Y009800D01*
X030050Y009675D01*
X030550Y009675D01*
X031050Y009175D01*
X036300Y009175D01*
X036550Y008925D01*
X036550Y008425D01*
X036675Y008300D01*
X037250Y008300D01*
X037350Y009300D02*
X036550Y009300D01*
X036425Y009425D01*
X031175Y009425D01*
X030925Y009675D01*
X030925Y010425D01*
X031925Y010325D02*
X031925Y009925D01*
X032175Y009675D01*
X034550Y009675D01*
X035175Y010300D01*
X037250Y010300D01*
X030800Y009050D02*
X029800Y009050D01*
X015050Y015425D02*
X015050Y016425D01*
D18*
X000660Y020940D02*
X000660Y000660D01*
X005597Y000660D01*
X005495Y000762D01*
X005367Y001071D01*
X005255Y001025D01*
X004845Y001025D01*
X004698Y001086D01*
X004629Y001155D01*
X004572Y001155D01*
X004380Y001234D01*
X004234Y001380D01*
X004155Y001572D01*
X004155Y001778D01*
X004234Y001970D01*
X004380Y002116D01*
X004572Y002195D01*
X004778Y002195D01*
X004970Y002116D01*
X005025Y002060D01*
X005025Y002130D01*
X005086Y002277D01*
X005198Y002389D01*
X005448Y002639D01*
X005595Y002700D01*
X006795Y002700D01*
X006795Y003126D01*
X006853Y003265D01*
X007052Y003465D01*
X007005Y003484D01*
X006945Y003545D01*
X006349Y003545D01*
X006210Y003603D01*
X005835Y003978D01*
X005728Y004085D01*
X005670Y004224D01*
X005670Y005570D01*
X005609Y005630D01*
X005530Y005822D01*
X005530Y006028D01*
X005609Y006220D01*
X005755Y006366D01*
X005934Y006440D01*
X005920Y006474D01*
X005920Y007045D01*
X005224Y007045D01*
X005085Y007103D01*
X005055Y007133D01*
X005055Y005940D01*
X005070Y005903D01*
X005070Y005697D01*
X004991Y005505D01*
X004845Y005359D01*
X004751Y005320D01*
X004820Y005153D01*
X004820Y004947D01*
X004741Y004755D01*
X004598Y004613D01*
X004616Y004595D01*
X004695Y004403D01*
X004695Y004197D01*
X004616Y004005D01*
X004470Y003859D01*
X004278Y003780D01*
X004072Y003780D01*
X003880Y003859D01*
X003799Y003941D01*
X003710Y003978D01*
X003460Y004228D01*
X003353Y004335D01*
X003295Y004474D01*
X003295Y006251D01*
X003353Y006390D01*
X003670Y006707D01*
X003670Y008030D01*
X003572Y008030D01*
X003380Y008109D01*
X003264Y008226D01*
X003195Y008158D01*
X003195Y008072D01*
X003116Y007880D01*
X002970Y007734D01*
X002778Y007655D01*
X002572Y007655D01*
X002380Y007734D01*
X002234Y007880D01*
X002155Y008072D01*
X002155Y008278D01*
X002234Y008470D01*
X002380Y008616D01*
X002572Y008695D01*
X002658Y008695D01*
X002670Y008707D01*
X002670Y010445D01*
X002609Y010505D01*
X002530Y010697D01*
X002530Y010903D01*
X002609Y011095D01*
X002755Y011241D01*
X002947Y011320D01*
X003153Y011320D01*
X003345Y011241D01*
X003491Y011095D01*
X003570Y010903D01*
X003570Y010697D01*
X003491Y010505D01*
X003430Y010445D01*
X003430Y009011D01*
X003572Y009070D01*
X003692Y009070D01*
X004415Y009703D01*
X004460Y009747D01*
X004472Y009752D01*
X004482Y009761D01*
X004541Y009781D01*
X004599Y009805D01*
X004612Y009805D01*
X004625Y009809D01*
X004688Y009805D01*
X007893Y009805D01*
X008045Y009957D01*
X008045Y010695D01*
X007984Y010755D01*
X007905Y010947D01*
X007905Y011045D01*
X004349Y011045D01*
X004210Y011103D01*
X004158Y011155D01*
X004072Y011155D01*
X003880Y011234D01*
X003734Y011380D01*
X003655Y011572D01*
X003655Y011778D01*
X003734Y011970D01*
X003880Y012116D01*
X003920Y012132D01*
X003920Y012768D01*
X003893Y012795D01*
X003474Y012795D01*
X003335Y012853D01*
X003283Y012905D01*
X003197Y012905D01*
X003005Y012984D01*
X002859Y013130D01*
X002780Y013322D01*
X002780Y013528D01*
X002859Y013720D01*
X003005Y013866D01*
X003197Y013945D01*
X003403Y013945D01*
X003595Y013866D01*
X003741Y013720D01*
X003809Y013555D01*
X004126Y013555D01*
X004265Y013497D01*
X004372Y013390D01*
X004622Y013140D01*
X004680Y013001D01*
X004680Y012332D01*
X004957Y012055D01*
X006685Y012055D01*
X006609Y012130D01*
X006530Y012322D01*
X006530Y012528D01*
X006609Y012720D01*
X006755Y012866D01*
X006947Y012945D01*
X007031Y012945D01*
X007030Y012947D01*
X007030Y013033D01*
X005680Y014383D01*
X005680Y013809D01*
X005845Y013741D01*
X005991Y013595D01*
X006070Y013403D01*
X006070Y013197D01*
X005991Y013005D01*
X005845Y012859D01*
X005653Y012780D01*
X005447Y012780D01*
X005255Y012859D01*
X005109Y013005D01*
X005030Y013197D01*
X005030Y013283D01*
X004978Y013335D01*
X004920Y013474D01*
X004920Y019376D01*
X004978Y019515D01*
X005085Y019622D01*
X005210Y019747D01*
X005349Y019805D01*
X005477Y019805D01*
X005350Y020111D01*
X005350Y020489D01*
X005495Y020838D01*
X005597Y020940D01*
X000660Y020940D01*
X000660Y020624D02*
X005406Y020624D01*
X005350Y020225D02*
X000660Y020225D01*
X000660Y019827D02*
X005468Y019827D01*
X004942Y019428D02*
X000660Y019428D01*
X000660Y019030D02*
X004920Y019030D01*
X005680Y019030D02*
X013908Y019030D01*
X013643Y019295D02*
X014295Y018643D01*
X014295Y017582D01*
X013710Y016997D01*
X013603Y016890D01*
X013545Y016751D01*
X013545Y016582D01*
X013445Y016482D01*
X013445Y016528D01*
X013366Y016720D01*
X013220Y016866D01*
X013028Y016945D01*
X012942Y016945D01*
X012890Y016997D01*
X012751Y017055D01*
X006849Y017055D01*
X006710Y016997D01*
X006210Y016497D01*
X006180Y016467D01*
X006180Y017070D01*
X006241Y017130D01*
X006320Y017322D01*
X006320Y017528D01*
X006241Y017720D01*
X006095Y017866D01*
X005903Y017945D01*
X005697Y017945D01*
X005680Y017938D01*
X005680Y019045D01*
X007001Y019045D01*
X007140Y019103D01*
X007247Y019210D01*
X007497Y019460D01*
X007555Y019599D01*
X007555Y020670D01*
X009186Y020670D01*
X009110Y020487D01*
X009110Y020213D01*
X009215Y019959D01*
X009409Y019765D01*
X009663Y019660D01*
X009937Y019660D01*
X010191Y019765D01*
X010268Y019842D01*
X010295Y019807D01*
X010357Y019745D01*
X010427Y019692D01*
X010503Y019648D01*
X010584Y019614D01*
X010669Y019591D01*
X010756Y019580D01*
X010800Y019580D01*
X010844Y019580D01*
X010931Y019591D01*
X011016Y019614D01*
X011097Y019648D01*
X011173Y019692D01*
X011243Y019745D01*
X011305Y019807D01*
X011332Y019842D01*
X011409Y019765D01*
X011663Y019660D01*
X011937Y019660D01*
X012191Y019765D01*
X012250Y019824D01*
X012409Y019665D01*
X012663Y019560D01*
X012753Y019560D01*
X012853Y019460D01*
X012960Y019353D01*
X013099Y019295D01*
X013643Y019295D01*
X012885Y019428D02*
X007465Y019428D01*
X007555Y019827D02*
X009348Y019827D01*
X009110Y020225D02*
X007555Y020225D01*
X007555Y020624D02*
X009166Y020624D01*
X010252Y019827D02*
X010280Y019827D01*
X010800Y019827D02*
X010800Y019827D01*
X010800Y019580D02*
X010800Y020250D01*
X010800Y020250D01*
X010800Y019580D01*
X011320Y019827D02*
X011348Y019827D01*
X010800Y020225D02*
X010800Y020225D01*
X014295Y018631D02*
X005680Y018631D01*
X004920Y018631D02*
X000660Y018631D01*
X000660Y018233D02*
X004920Y018233D01*
X005680Y018233D02*
X014295Y018233D01*
X014295Y017834D02*
X006126Y017834D01*
X006320Y017436D02*
X014148Y017436D01*
X013750Y017037D02*
X012794Y017037D01*
X013399Y016639D02*
X013545Y016639D01*
X014697Y015284D02*
X014728Y015210D01*
X015045Y014893D01*
X015045Y013839D01*
X015034Y013835D01*
X014957Y013758D01*
X014930Y013793D01*
X014868Y013855D01*
X014798Y013908D01*
X014722Y013952D01*
X014641Y013986D01*
X014556Y014009D01*
X014469Y014020D01*
X014425Y014020D01*
X014425Y013350D01*
X014425Y013350D01*
X014425Y014020D01*
X014381Y014020D01*
X014294Y014009D01*
X014209Y013986D01*
X014128Y013952D01*
X014055Y013910D01*
X014055Y014643D01*
X014697Y015284D01*
X014893Y015045D02*
X014457Y015045D01*
X014058Y014646D02*
X015045Y014646D01*
X015045Y014248D02*
X014055Y014248D01*
X014425Y013849D02*
X014425Y013849D01*
X014874Y013849D02*
X015045Y013849D01*
X014425Y013451D02*
X014425Y013451D01*
X014425Y013350D02*
X014425Y012680D01*
X014469Y012680D01*
X014556Y012691D01*
X014641Y012714D01*
X014722Y012748D01*
X014798Y012792D01*
X014860Y012839D01*
X015034Y012665D01*
X015288Y012560D01*
X015562Y012560D01*
X015816Y012665D01*
X015975Y012824D01*
X016034Y012765D01*
X016288Y012660D01*
X016562Y012660D01*
X016765Y012744D01*
X016784Y012699D01*
X016874Y012609D01*
X016991Y012560D01*
X017859Y012560D01*
X017976Y012609D01*
X018066Y012699D01*
X018115Y012816D01*
X018115Y013073D01*
X018335Y012853D01*
X018474Y012795D01*
X019143Y012795D01*
X019155Y012783D01*
X019155Y012697D01*
X019162Y012680D01*
X018974Y012680D01*
X018835Y012622D01*
X018710Y012497D01*
X018603Y012390D01*
X018545Y012251D01*
X018545Y012055D01*
X012775Y012055D01*
X012890Y012103D01*
X012997Y012210D01*
X013829Y013042D01*
X013867Y012977D01*
X013920Y012907D01*
X013982Y012845D01*
X014052Y012792D01*
X014128Y012748D01*
X014209Y012714D01*
X014294Y012691D01*
X014381Y012680D01*
X014425Y012680D01*
X014425Y013350D01*
X014425Y013350D01*
X014425Y013052D02*
X014425Y013052D01*
X015062Y012654D02*
X013441Y012654D01*
X013042Y012255D02*
X018547Y012255D01*
X018910Y012654D02*
X018021Y012654D01*
X018115Y013052D02*
X018136Y013052D01*
X018680Y013582D02*
X018680Y013905D01*
X018778Y013905D01*
X018970Y013984D01*
X019030Y014045D01*
X024518Y014045D01*
X024585Y013978D01*
X024724Y013920D01*
X025626Y013920D01*
X025765Y013978D01*
X025832Y014045D01*
X026241Y014045D01*
X025653Y013457D01*
X025518Y013322D01*
X025445Y013145D01*
X025445Y010749D01*
X025101Y010405D01*
X024115Y010405D01*
X024115Y011059D01*
X024066Y011176D01*
X023976Y011266D01*
X023859Y011315D01*
X023778Y011315D01*
X023747Y011390D01*
X023640Y011497D01*
X023390Y011747D01*
X023251Y011805D01*
X020724Y011805D01*
X020712Y011800D01*
X021015Y012103D01*
X021072Y012160D01*
X021859Y012160D01*
X021976Y012209D01*
X022000Y012232D01*
X022052Y012192D01*
X022128Y012148D01*
X022209Y012114D01*
X022294Y012091D01*
X022381Y012080D01*
X022425Y012080D01*
X022469Y012080D01*
X022556Y012091D01*
X022641Y012114D01*
X022722Y012148D01*
X022798Y012192D01*
X022868Y012245D01*
X022930Y012307D01*
X022957Y012342D01*
X023034Y012265D01*
X023288Y012160D01*
X023562Y012160D01*
X023816Y012265D01*
X024010Y012459D01*
X024115Y012713D01*
X024115Y012987D01*
X024010Y013241D01*
X023816Y013435D01*
X023773Y013453D01*
X023747Y013515D01*
X023640Y013622D01*
X023515Y013747D01*
X023376Y013805D01*
X020724Y013805D01*
X020585Y013747D01*
X020478Y013640D01*
X020228Y013390D01*
X020170Y013251D01*
X020170Y012964D01*
X020116Y013095D01*
X019970Y013241D01*
X019778Y013320D01*
X019692Y013320D01*
X019515Y013497D01*
X019376Y013555D01*
X018707Y013555D01*
X018680Y013582D01*
X018680Y013849D02*
X026045Y013849D01*
X025647Y013451D02*
X023778Y013451D01*
X024088Y013052D02*
X025445Y013052D01*
X025445Y012654D02*
X024090Y012654D01*
X023792Y012255D02*
X025445Y012255D01*
X025445Y011857D02*
X020769Y011857D01*
X022425Y012080D02*
X022425Y012750D01*
X022425Y012080D01*
X022425Y012255D02*
X022425Y012255D01*
X022878Y012255D02*
X023058Y012255D01*
X022425Y012654D02*
X022425Y012654D01*
X022425Y012750D02*
X022425Y012750D01*
X023679Y011458D02*
X025445Y011458D01*
X025445Y011060D02*
X024115Y011060D01*
X024115Y010661D02*
X025357Y010661D01*
X026405Y010881D02*
X026405Y012569D01*
X026534Y012440D01*
X026788Y012335D01*
X027062Y012335D01*
X027316Y012440D01*
X027375Y012499D01*
X027534Y012340D01*
X027788Y012235D01*
X028062Y012235D01*
X028316Y012340D01*
X028475Y012499D01*
X028534Y012440D01*
X028788Y012335D01*
X029062Y012335D01*
X029316Y012440D01*
X029375Y012499D01*
X029534Y012340D01*
X029788Y012235D01*
X030062Y012235D01*
X030316Y012340D01*
X030475Y012499D01*
X030534Y012440D01*
X030788Y012335D01*
X031062Y012335D01*
X031316Y012440D01*
X031375Y012499D01*
X031534Y012340D01*
X031788Y012235D01*
X032062Y012235D01*
X032316Y012340D01*
X032462Y012487D01*
X032609Y012340D01*
X032863Y012235D01*
X033137Y012235D01*
X033391Y012340D01*
X033464Y012413D01*
X033497Y012364D01*
X033539Y012322D01*
X033588Y012289D01*
X033642Y012267D01*
X033700Y012255D01*
X033186Y012255D01*
X033464Y012413D02*
X033464Y012413D01*
X033700Y012255D02*
X034100Y012255D01*
X034500Y012255D01*
X036560Y012255D01*
X036560Y012163D02*
X036665Y011909D01*
X036824Y011750D01*
X036765Y011691D01*
X036660Y011437D01*
X036660Y011163D01*
X036765Y010909D01*
X036824Y010850D01*
X036665Y010691D01*
X036661Y010680D01*
X035099Y010680D01*
X034960Y010622D01*
X034853Y010515D01*
X034770Y010432D01*
X034770Y010469D01*
X034759Y010556D01*
X034736Y010641D01*
X034702Y010722D01*
X034658Y010798D01*
X034605Y010868D01*
X034543Y010930D01*
X034473Y010983D01*
X034397Y011027D01*
X034316Y011061D01*
X034231Y011084D01*
X034144Y011095D01*
X034100Y011095D01*
X034100Y010425D01*
X034100Y010425D01*
X034100Y011095D01*
X034056Y011095D01*
X033969Y011084D01*
X033884Y011061D01*
X033803Y011027D01*
X033727Y010983D01*
X033660Y010932D01*
X033641Y010976D01*
X033551Y011066D01*
X033434Y011115D01*
X032566Y011115D01*
X032449Y011066D01*
X032359Y010976D01*
X032327Y010899D01*
X032316Y010910D01*
X032062Y011015D01*
X031788Y011015D01*
X031534Y010910D01*
X031475Y010851D01*
X031316Y011010D01*
X031062Y011115D01*
X030788Y011115D01*
X030534Y011010D01*
X030375Y010851D01*
X030316Y010910D01*
X030062Y011015D01*
X029788Y011015D01*
X029534Y010910D01*
X029475Y010851D01*
X029316Y011010D01*
X029062Y011115D01*
X028788Y011115D01*
X028534Y011010D01*
X028375Y010851D01*
X028316Y010910D01*
X028062Y011015D01*
X027788Y011015D01*
X027534Y010910D01*
X027475Y010851D01*
X027316Y011010D01*
X027062Y011115D01*
X026788Y011115D01*
X026534Y011010D01*
X026405Y010881D01*
X026405Y011060D02*
X026654Y011060D01*
X027196Y011060D02*
X028654Y011060D01*
X029196Y011060D02*
X030654Y011060D01*
X031196Y011060D02*
X032442Y011060D01*
X033558Y011060D02*
X033881Y011060D01*
X034100Y011060D02*
X034100Y011060D01*
X034319Y011060D02*
X036703Y011060D01*
X036669Y011458D02*
X026405Y011458D01*
X026405Y011857D02*
X036718Y011857D01*
X036560Y012163D02*
X036560Y012437D01*
X036665Y012691D01*
X036824Y012850D01*
X036765Y012909D01*
X036761Y012920D01*
X036599Y012920D01*
X036460Y012978D01*
X036353Y013085D01*
X036353Y013085D01*
X036228Y013210D01*
X036170Y013349D01*
X036170Y013670D01*
X033832Y013670D01*
X033757Y013595D01*
X034100Y013595D01*
X034100Y012925D01*
X034100Y012925D01*
X034770Y012925D01*
X034770Y013325D01*
X034758Y013383D01*
X034736Y013437D01*
X034703Y013486D01*
X034661Y013528D01*
X034612Y013561D01*
X034558Y013583D01*
X034500Y013595D01*
X034100Y013595D01*
X034100Y012925D01*
X034100Y012925D01*
X034770Y012925D01*
X034770Y012525D01*
X034758Y012467D01*
X034736Y012413D01*
X034703Y012364D01*
X034661Y012322D01*
X034612Y012289D01*
X034558Y012267D01*
X034500Y012255D01*
X034100Y012255D02*
X034100Y012255D01*
X034100Y012925D01*
X034100Y012925D01*
X034100Y012255D01*
X034100Y012654D02*
X034100Y012654D01*
X034100Y013052D02*
X034100Y013052D01*
X034100Y013451D02*
X034100Y013451D01*
X034727Y013451D02*
X036170Y013451D01*
X036386Y013052D02*
X034770Y013052D01*
X034770Y012654D02*
X036650Y012654D01*
X038776Y012750D02*
X038935Y012909D01*
X039040Y013163D01*
X039040Y013437D01*
X038935Y013691D01*
X038776Y013850D01*
X038835Y013909D01*
X038940Y014163D01*
X038940Y014437D01*
X038835Y014691D01*
X038776Y014750D01*
X038935Y014909D01*
X039040Y015163D01*
X039040Y015437D01*
X038935Y015691D01*
X038776Y015850D01*
X038835Y015909D01*
X038940Y016163D01*
X038940Y016437D01*
X038835Y016691D01*
X038776Y016750D01*
X038935Y016909D01*
X038940Y016921D01*
X038940Y016228D01*
X038995Y016096D01*
X039096Y015995D01*
X039940Y015151D01*
X039940Y001949D01*
X039250Y001259D01*
X039250Y001489D01*
X039105Y001838D01*
X038838Y002105D01*
X038489Y002250D01*
X038111Y002250D01*
X037762Y002105D01*
X037495Y001838D01*
X037350Y001489D01*
X037350Y001111D01*
X037495Y000762D01*
X037597Y000660D01*
X037278Y000660D01*
X037305Y000724D01*
X037305Y002251D01*
X037247Y002390D01*
X037140Y002497D01*
X036944Y002693D01*
X037014Y002664D01*
X037099Y002641D01*
X037186Y002630D01*
X037230Y002630D01*
X037274Y002630D01*
X037361Y002641D01*
X037446Y002664D01*
X037527Y002698D01*
X037603Y002742D01*
X037673Y002795D01*
X037735Y002857D01*
X037788Y002927D01*
X037800Y002947D01*
X037812Y002927D01*
X037865Y002857D01*
X037927Y002795D01*
X037997Y002742D01*
X038073Y002698D01*
X038154Y002664D01*
X038239Y002641D01*
X038326Y002630D01*
X038370Y002630D01*
X038414Y002630D01*
X038501Y002641D01*
X038586Y002664D01*
X038667Y002698D01*
X038743Y002742D01*
X038813Y002795D01*
X038875Y002857D01*
X038928Y002927D01*
X038972Y003003D01*
X039006Y003084D01*
X039029Y003169D01*
X039040Y003256D01*
X039040Y003300D01*
X039040Y003344D01*
X039029Y003431D01*
X039006Y003516D01*
X038972Y003597D01*
X038928Y003673D01*
X038875Y003743D01*
X038813Y003805D01*
X038766Y003840D01*
X038835Y003909D01*
X038940Y004163D01*
X038940Y004437D01*
X038835Y004691D01*
X038776Y004750D01*
X038935Y004909D01*
X039040Y005163D01*
X039040Y005437D01*
X038935Y005691D01*
X038776Y005850D01*
X038835Y005909D01*
X038940Y006163D01*
X038940Y006437D01*
X038835Y006691D01*
X038776Y006750D01*
X038935Y006909D01*
X039040Y007163D01*
X039040Y007437D01*
X038935Y007691D01*
X038776Y007850D01*
X038835Y007909D01*
X038940Y008163D01*
X038940Y008437D01*
X038835Y008691D01*
X038776Y008750D01*
X038935Y008909D01*
X039040Y009163D01*
X039040Y009437D01*
X038935Y009691D01*
X038776Y009850D01*
X038835Y009909D01*
X038940Y010163D01*
X038940Y010437D01*
X038835Y010691D01*
X038776Y010750D01*
X038935Y010909D01*
X039040Y011163D01*
X039040Y011437D01*
X038935Y011691D01*
X038776Y011850D01*
X038835Y011909D01*
X038940Y012163D01*
X038940Y012437D01*
X038835Y012691D01*
X038776Y012750D01*
X038850Y012654D02*
X039940Y012654D01*
X039940Y013052D02*
X038994Y013052D01*
X039035Y013451D02*
X039940Y013451D01*
X039940Y013849D02*
X038777Y013849D01*
X038940Y014248D02*
X039940Y014248D01*
X039940Y014646D02*
X038854Y014646D01*
X038991Y015045D02*
X039940Y015045D01*
X039648Y015443D02*
X039038Y015443D01*
X039249Y015842D02*
X038784Y015842D01*
X038940Y016240D02*
X038940Y016240D01*
X038940Y016639D02*
X038857Y016639D01*
X034771Y018631D02*
X018820Y018631D01*
X018820Y018572D02*
X018820Y018778D01*
X018813Y018795D01*
X033751Y018795D01*
X033890Y018853D01*
X033997Y018960D01*
X034622Y019585D01*
X034648Y019647D01*
X034691Y019665D01*
X034885Y019859D01*
X034920Y019943D01*
X034995Y019762D01*
X035262Y019495D01*
X035525Y019386D01*
X034085Y017945D01*
X033572Y017945D01*
X033380Y017866D01*
X033070Y017555D01*
X033070Y017939D01*
X033021Y018056D01*
X032931Y018146D01*
X032814Y018195D01*
X032036Y018195D01*
X031919Y018146D01*
X031829Y018056D01*
X031820Y018035D01*
X031753Y018085D01*
X031665Y018129D01*
X031571Y018160D01*
X031474Y018175D01*
X031425Y018175D01*
X031425Y017550D01*
X031425Y017550D01*
X031425Y016925D01*
X031474Y016925D01*
X031571Y016940D01*
X031665Y016971D01*
X031753Y017015D01*
X031820Y017065D01*
X031829Y017044D01*
X031919Y016954D01*
X031961Y016936D01*
X031984Y016880D01*
X032405Y016460D01*
X032405Y015409D01*
X032355Y015288D01*
X032355Y015284D01*
X032351Y015280D01*
X030945Y015280D01*
X030945Y015403D01*
X030866Y015595D01*
X030720Y015741D01*
X030528Y015820D01*
X030322Y015820D01*
X030130Y015741D01*
X030070Y015680D01*
X029724Y015680D01*
X029585Y015622D01*
X028768Y014805D01*
X025809Y014805D01*
X025741Y014970D01*
X025595Y015116D01*
X025403Y015195D01*
X025317Y015195D01*
X025265Y015247D01*
X025126Y015305D01*
X024280Y015305D01*
X024220Y015366D01*
X024028Y015445D01*
X023822Y015445D01*
X023630Y015366D01*
X023484Y015220D01*
X023405Y015028D01*
X023405Y014822D01*
X023412Y014805D01*
X019030Y014805D01*
X018970Y014866D01*
X018778Y014945D01*
X018680Y014945D01*
X018680Y018320D01*
X018741Y018380D01*
X018820Y018572D01*
X018680Y018233D02*
X034372Y018233D01*
X033349Y017834D02*
X033070Y017834D01*
X032425Y017550D02*
X032425Y017175D01*
X032925Y016675D01*
X032925Y015175D01*
X032405Y015443D02*
X030929Y015443D01*
X032405Y015842D02*
X018680Y015842D01*
X018680Y016240D02*
X032405Y016240D01*
X032226Y016639D02*
X018680Y016639D01*
X018680Y017037D02*
X031068Y017037D01*
X031097Y017015D02*
X031185Y016971D01*
X031279Y016940D01*
X031376Y016925D01*
X031425Y016925D01*
X031425Y017550D01*
X031425Y017550D01*
X031425Y017550D01*
X030800Y017550D01*
X030800Y017599D01*
X030815Y017696D01*
X030846Y017790D01*
X030890Y017878D01*
X030948Y017957D01*
X031018Y018027D01*
X031097Y018085D01*
X031185Y018129D01*
X031279Y018160D01*
X031376Y018175D01*
X031425Y018175D01*
X031425Y017550D01*
X030800Y017550D01*
X030800Y017501D01*
X030815Y017404D01*
X030846Y017310D01*
X030890Y017222D01*
X030948Y017143D01*
X031018Y017073D01*
X031097Y017015D01*
X031425Y017037D02*
X031425Y017037D01*
X031782Y017037D02*
X031835Y017037D01*
X031425Y017436D02*
X031425Y017436D01*
X031425Y017834D02*
X031425Y017834D01*
X030868Y017834D02*
X018680Y017834D01*
X018680Y017436D02*
X030810Y017436D01*
X032925Y016675D02*
X033675Y017425D01*
X034300Y017425D01*
X037175Y020300D01*
X037230Y020300D01*
X035423Y019428D02*
X034465Y019428D01*
X034852Y019827D02*
X034968Y019827D01*
X035169Y019030D02*
X034067Y019030D01*
X029406Y015443D02*
X024033Y015443D01*
X023817Y015443D02*
X018680Y015443D01*
X018680Y015045D02*
X023412Y015045D01*
X025666Y015045D02*
X029007Y015045D01*
X029739Y012255D02*
X028111Y012255D01*
X027739Y012255D02*
X026405Y012255D01*
X030111Y012255D02*
X031739Y012255D01*
X032111Y012255D02*
X032814Y012255D01*
X034100Y010661D02*
X034100Y010661D01*
X034727Y010661D02*
X035054Y010661D01*
X035920Y008545D02*
X035920Y008224D01*
X035978Y008085D01*
X036085Y007978D01*
X036295Y007768D01*
X036295Y007724D01*
X036353Y007585D01*
X036460Y007478D01*
X036660Y007278D01*
X036660Y007163D01*
X036765Y006909D01*
X036824Y006850D01*
X036665Y006691D01*
X036585Y006497D01*
X036335Y006247D01*
X036228Y006140D01*
X036170Y006001D01*
X036170Y002474D01*
X036228Y002335D01*
X036335Y002228D01*
X036545Y002018D01*
X036545Y001895D01*
X036437Y001940D01*
X036163Y001940D01*
X035909Y001835D01*
X035850Y001776D01*
X035691Y001935D01*
X035437Y002040D01*
X035163Y002040D01*
X034909Y001935D01*
X034750Y001776D01*
X034691Y001835D01*
X034437Y001940D01*
X034163Y001940D01*
X033909Y001835D01*
X033850Y001776D01*
X033691Y001935D01*
X033437Y002040D01*
X033163Y002040D01*
X032909Y001935D01*
X032750Y001776D01*
X032691Y001835D01*
X032437Y001940D01*
X032163Y001940D01*
X031909Y001835D01*
X031850Y001776D01*
X031691Y001935D01*
X031437Y002040D01*
X031163Y002040D01*
X030909Y001935D01*
X030750Y001776D01*
X030691Y001835D01*
X030437Y001940D01*
X030163Y001940D01*
X029960Y001856D01*
X029941Y001901D01*
X029851Y001991D01*
X029734Y002040D01*
X028866Y002040D01*
X028749Y001991D01*
X028659Y001901D01*
X028610Y001784D01*
X028610Y000930D01*
X027914Y000930D01*
X027990Y001113D01*
X027990Y001387D01*
X027885Y001641D01*
X027691Y001835D01*
X027437Y001940D01*
X027163Y001940D01*
X026909Y001835D01*
X026850Y001776D01*
X026691Y001935D01*
X026680Y001939D01*
X026680Y003586D01*
X026691Y003590D01*
X026885Y003784D01*
X026990Y004038D01*
X026990Y004312D01*
X026945Y004420D01*
X031286Y004420D01*
X031290Y004409D01*
X031484Y004215D01*
X031738Y004110D01*
X032012Y004110D01*
X032266Y004215D01*
X032460Y004409D01*
X032565Y004663D01*
X032565Y004937D01*
X032460Y005191D01*
X032401Y005250D01*
X032560Y005409D01*
X032665Y005663D01*
X032665Y005937D01*
X032560Y006191D01*
X032401Y006350D01*
X032460Y006409D01*
X032565Y006663D01*
X032565Y006937D01*
X032481Y007140D01*
X032526Y007159D01*
X032616Y007249D01*
X032665Y007366D01*
X032665Y008234D01*
X032616Y008351D01*
X032526Y008441D01*
X032409Y008490D01*
X031541Y008490D01*
X031424Y008441D01*
X031334Y008351D01*
X031285Y008234D01*
X031285Y008180D01*
X027224Y008180D01*
X027085Y008122D01*
X026941Y007978D01*
X026959Y008044D01*
X026970Y008131D01*
X026970Y008175D01*
X026970Y008219D01*
X026959Y008306D01*
X026936Y008391D01*
X026902Y008472D01*
X026858Y008548D01*
X026805Y008618D01*
X026743Y008680D01*
X026716Y008700D01*
X028794Y008700D01*
X029015Y008791D01*
X029265Y009041D01*
X029280Y009056D01*
X029280Y008947D01*
X029359Y008755D01*
X029505Y008609D01*
X029697Y008530D01*
X029903Y008530D01*
X030095Y008609D01*
X030155Y008670D01*
X030643Y008670D01*
X030710Y008603D01*
X030849Y008545D01*
X035920Y008545D01*
X035920Y008270D02*
X032650Y008270D01*
X032665Y007872D02*
X036191Y007872D01*
X036465Y007473D02*
X032665Y007473D01*
X032508Y007075D02*
X036697Y007075D01*
X036659Y006676D02*
X032565Y006676D01*
X032473Y006278D02*
X036365Y006278D01*
X036170Y005879D02*
X032665Y005879D01*
X032590Y005481D02*
X036170Y005481D01*
X036170Y005082D02*
X032505Y005082D01*
X032565Y004684D02*
X036170Y004684D01*
X036170Y004285D02*
X032336Y004285D01*
X031414Y004285D02*
X026990Y004285D01*
X026927Y003887D02*
X036170Y003887D01*
X036170Y003488D02*
X026680Y003488D01*
X026680Y003090D02*
X036170Y003090D01*
X036170Y002691D02*
X026680Y002691D01*
X026680Y002293D02*
X036270Y002293D01*
X036335Y002228D02*
X036335Y002228D01*
X036052Y001894D02*
X035732Y001894D01*
X034868Y001894D02*
X034548Y001894D01*
X034052Y001894D02*
X033732Y001894D01*
X032868Y001894D02*
X032548Y001894D01*
X032052Y001894D02*
X031732Y001894D01*
X030868Y001894D02*
X030548Y001894D01*
X030052Y001894D02*
X029944Y001894D01*
X028656Y001894D02*
X027548Y001894D01*
X027052Y001894D02*
X026732Y001894D01*
X027945Y001496D02*
X028610Y001496D01*
X028610Y001097D02*
X027983Y001097D01*
X022920Y001839D02*
X022909Y001835D01*
X022850Y001776D01*
X022691Y001935D01*
X022437Y002040D01*
X022163Y002040D01*
X021909Y001935D01*
X021750Y001776D01*
X021691Y001835D01*
X021437Y001940D01*
X021163Y001940D01*
X020960Y001856D01*
X020941Y001901D01*
X020851Y001991D01*
X020734Y002040D01*
X019866Y002040D01*
X019749Y001991D01*
X019659Y001901D01*
X019610Y001784D01*
X019610Y000930D01*
X018935Y000930D01*
X018990Y001063D01*
X018990Y001337D01*
X018900Y001555D01*
X018900Y001885D01*
X022232Y004528D01*
X022265Y004541D01*
X022325Y004601D01*
X022391Y004654D01*
X022409Y004685D01*
X022434Y004710D01*
X022466Y004789D01*
X022507Y004863D01*
X022511Y004898D01*
X022525Y004931D01*
X022525Y005015D01*
X022535Y005100D01*
X022525Y005134D01*
X022525Y008274D01*
X022666Y008395D01*
X022664Y008391D01*
X022641Y008306D01*
X022630Y008219D01*
X022630Y008175D01*
X023300Y008175D01*
X024300Y008175D01*
X025300Y008175D01*
X026300Y008175D01*
X026970Y008175D01*
X026300Y008175D01*
X026300Y008175D01*
X026300Y008175D01*
X025630Y008175D01*
X025300Y008175D01*
X025300Y008175D01*
X025300Y008175D01*
X024630Y008175D01*
X024300Y008175D01*
X024300Y008175D01*
X024300Y008175D01*
X023630Y008175D01*
X023300Y008175D01*
X023300Y008175D01*
X023300Y008175D01*
X022630Y008175D01*
X022630Y008131D01*
X022641Y008044D01*
X022664Y007959D01*
X022698Y007878D01*
X022742Y007802D01*
X022795Y007732D01*
X022857Y007670D01*
X022927Y007617D01*
X023003Y007573D01*
X023084Y007539D01*
X023169Y007516D01*
X023222Y007509D01*
X023085Y007372D01*
X022978Y007265D01*
X022920Y007126D01*
X022920Y004764D01*
X022909Y004760D01*
X022715Y004566D01*
X022610Y004312D01*
X022610Y004038D01*
X022715Y003784D01*
X022909Y003590D01*
X022920Y003586D01*
X022920Y001839D01*
X022920Y001894D02*
X022732Y001894D01*
X022920Y002293D02*
X019414Y002293D01*
X019656Y001894D02*
X018911Y001894D01*
X018924Y001496D02*
X019610Y001496D01*
X019610Y001097D02*
X018990Y001097D01*
X017700Y001838D02*
X017700Y001965D01*
X017512Y002200D01*
X015466Y002200D01*
X015639Y002027D01*
X015700Y001880D01*
X015700Y001876D01*
X015865Y001711D01*
X015927Y001758D01*
X016003Y001802D01*
X016084Y001836D01*
X016169Y001859D01*
X016256Y001870D01*
X016300Y001870D01*
X016300Y001200D01*
X016300Y001200D01*
X016300Y001870D01*
X016344Y001870D01*
X016431Y001859D01*
X016516Y001836D01*
X016597Y001802D01*
X016673Y001758D01*
X016743Y001705D01*
X016756Y001692D01*
X016795Y001743D01*
X016857Y001805D01*
X016927Y001858D01*
X017003Y001902D01*
X017084Y001936D01*
X017169Y001959D01*
X017256Y001970D01*
X017300Y001970D01*
X017300Y001300D01*
X017300Y001300D01*
X017300Y001970D01*
X017344Y001970D01*
X017431Y001959D01*
X017516Y001936D01*
X017597Y001902D01*
X017673Y001858D01*
X017700Y001838D01*
X017700Y001894D02*
X017611Y001894D01*
X017300Y001894D02*
X017300Y001894D01*
X016989Y001894D02*
X015694Y001894D01*
X016300Y001496D02*
X016300Y001496D01*
X017300Y001496D02*
X017300Y001496D01*
X019916Y002691D02*
X022920Y002691D01*
X022920Y003090D02*
X020419Y003090D01*
X020921Y003488D02*
X022920Y003488D01*
X022673Y003887D02*
X021424Y003887D01*
X021926Y004285D02*
X022610Y004285D01*
X022408Y004684D02*
X022833Y004684D01*
X022920Y005082D02*
X022533Y005082D01*
X022525Y005481D02*
X022920Y005481D01*
X022920Y005879D02*
X022525Y005879D01*
X022525Y006278D02*
X022920Y006278D01*
X022920Y006676D02*
X022525Y006676D01*
X022525Y007075D02*
X022920Y007075D01*
X023186Y007473D02*
X022525Y007473D01*
X022525Y007872D02*
X022702Y007872D01*
X022637Y008270D02*
X022525Y008270D01*
X021325Y008270D02*
X016805Y008270D01*
X016805Y007872D02*
X021325Y007872D01*
X021325Y007473D02*
X016805Y007473D01*
X016805Y007075D02*
X021325Y007075D01*
X021325Y006676D02*
X016805Y006676D01*
X016805Y006278D02*
X018969Y006278D01*
X018880Y006241D02*
X018820Y006180D01*
X016805Y006180D01*
X016805Y009236D01*
X016816Y009240D01*
X016990Y009414D01*
X017052Y009367D01*
X017128Y009323D01*
X017209Y009289D01*
X017294Y009266D01*
X017381Y009255D01*
X017425Y009255D01*
X017469Y009255D01*
X017556Y009266D01*
X017641Y009289D01*
X017722Y009323D01*
X017798Y009367D01*
X017860Y009414D01*
X018034Y009240D01*
X018288Y009135D01*
X018562Y009135D01*
X018816Y009240D01*
X019010Y009434D01*
X019014Y009445D01*
X022047Y009445D01*
X021607Y009068D01*
X021585Y009059D01*
X021517Y008991D01*
X021444Y008928D01*
X021433Y008907D01*
X021416Y008890D01*
X021379Y008801D01*
X021336Y008715D01*
X021334Y008691D01*
X021325Y008669D01*
X021325Y008573D01*
X021318Y008477D01*
X021325Y008454D01*
X021325Y005340D01*
X020862Y004973D01*
X020720Y005116D01*
X020528Y005195D01*
X020322Y005195D01*
X020319Y005194D01*
X020320Y005197D01*
X020320Y005403D01*
X020241Y005595D01*
X020095Y005741D01*
X019903Y005820D01*
X019697Y005820D01*
X019695Y005819D01*
X019695Y005903D01*
X019616Y006095D01*
X019470Y006241D01*
X019278Y006320D01*
X019072Y006320D01*
X018880Y006241D01*
X019381Y006278D02*
X021325Y006278D01*
X021325Y005879D02*
X019695Y005879D01*
X020288Y005481D02*
X021325Y005481D01*
X021000Y005082D02*
X020753Y005082D01*
X020944Y001894D02*
X021052Y001894D01*
X021548Y001894D02*
X021868Y001894D01*
X010550Y001675D02*
X010550Y001675D01*
X009973Y001675D01*
X009973Y001368D01*
X009981Y001325D01*
X009134Y001325D01*
X009160Y001404D01*
X009175Y001501D01*
X009175Y001550D01*
X009175Y001599D01*
X009160Y001696D01*
X009129Y001790D01*
X009085Y001878D01*
X009035Y001945D01*
X009056Y001954D01*
X009146Y002044D01*
X009195Y002161D01*
X009195Y002200D01*
X010103Y002200D01*
X010081Y002186D01*
X010039Y002144D01*
X010007Y002095D01*
X009984Y002040D01*
X009973Y001982D01*
X009973Y001675D01*
X010550Y001675D01*
X009973Y001496D02*
X009174Y001496D01*
X009175Y001550D02*
X008550Y001550D01*
X009175Y001550D01*
X009073Y001894D02*
X009973Y001894D01*
X008550Y001550D02*
X008550Y001550D01*
X006795Y003090D02*
X000660Y003090D01*
X000660Y003488D02*
X007002Y003488D01*
X005926Y003887D02*
X004497Y003887D01*
X004695Y004285D02*
X005670Y004285D01*
X005670Y004684D02*
X004669Y004684D01*
X004820Y005082D02*
X005670Y005082D01*
X005670Y005481D02*
X004966Y005481D01*
X005070Y005879D02*
X005530Y005879D01*
X005667Y006278D02*
X005055Y006278D01*
X005055Y006676D02*
X005920Y006676D01*
X005153Y007075D02*
X005055Y007075D01*
X003670Y007075D02*
X000660Y007075D01*
X000660Y007473D02*
X003670Y007473D01*
X003670Y007872D02*
X003107Y007872D01*
X002243Y007872D02*
X000660Y007872D01*
X000660Y008270D02*
X002155Y008270D01*
X002508Y008669D02*
X000660Y008669D01*
X000660Y009067D02*
X002670Y009067D01*
X002670Y009466D02*
X000660Y009466D01*
X000660Y009864D02*
X002670Y009864D01*
X002670Y010263D02*
X000660Y010263D01*
X000660Y010661D02*
X002545Y010661D01*
X002595Y011060D02*
X000660Y011060D01*
X000660Y011458D02*
X003702Y011458D01*
X003687Y011857D02*
X000660Y011857D01*
X000660Y012255D02*
X003920Y012255D01*
X003920Y012654D02*
X000660Y012654D01*
X000660Y013052D02*
X002938Y013052D01*
X002780Y013451D02*
X000660Y013451D01*
X000660Y013849D02*
X002989Y013849D01*
X003611Y013849D02*
X004920Y013849D01*
X005680Y013849D02*
X006214Y013849D01*
X006051Y013451D02*
X006612Y013451D01*
X007011Y013052D02*
X006010Y013052D01*
X006582Y012654D02*
X004680Y012654D01*
X004659Y013052D02*
X005090Y013052D01*
X004930Y013451D02*
X004312Y013451D01*
X004920Y014248D02*
X000660Y014248D01*
X000660Y014646D02*
X004920Y014646D01*
X004920Y015045D02*
X000660Y015045D01*
X000660Y015443D02*
X004920Y015443D01*
X004920Y015842D02*
X000660Y015842D01*
X000660Y016240D02*
X004920Y016240D01*
X004920Y016639D02*
X000660Y016639D01*
X000660Y017037D02*
X004920Y017037D01*
X004920Y017436D02*
X000660Y017436D01*
X000660Y017834D02*
X004920Y017834D01*
X006180Y017037D02*
X006806Y017037D01*
X006351Y016639D02*
X006180Y016639D01*
X005815Y014248D02*
X005680Y014248D01*
X006558Y012255D02*
X004757Y012255D01*
X004314Y011060D02*
X003505Y011060D01*
X003555Y010661D02*
X008045Y010661D01*
X008045Y010263D02*
X003430Y010263D01*
X003430Y009864D02*
X007952Y009864D01*
X009842Y009180D02*
X009890Y009228D01*
X009966Y009304D01*
X009988Y009289D01*
X010042Y009267D01*
X010100Y009255D01*
X010500Y009255D01*
X010900Y009255D01*
X010958Y009267D01*
X011012Y009289D01*
X011061Y009322D01*
X011103Y009364D01*
X011136Y009413D01*
X011136Y009413D01*
X011209Y009340D01*
X011463Y009235D01*
X011737Y009235D01*
X011920Y009311D01*
X011920Y009207D01*
X011893Y009180D01*
X009842Y009180D01*
X010500Y009255D02*
X010500Y009925D01*
X010500Y009925D01*
X010500Y010595D01*
X010900Y010595D01*
X010958Y010583D01*
X011012Y010561D01*
X011061Y010528D01*
X011103Y010486D01*
X011136Y010437D01*
X011136Y010437D01*
X011209Y010510D01*
X011463Y010615D01*
X011737Y010615D01*
X011978Y010515D01*
X012085Y010622D01*
X012258Y010795D01*
X010207Y010795D01*
X010055Y010643D01*
X010055Y010586D01*
X010100Y010595D01*
X010500Y010595D01*
X010500Y009925D01*
X010500Y009255D01*
X010500Y009466D02*
X010500Y009466D01*
X010500Y009864D02*
X010500Y009864D01*
X010500Y009925D02*
X010500Y009925D01*
X010500Y010263D02*
X010500Y010263D01*
X010073Y010661D02*
X012124Y010661D01*
X012270Y012805D02*
X012270Y013175D01*
X012270Y013575D01*
X012258Y013633D01*
X012236Y013687D01*
X012203Y013736D01*
X012161Y013778D01*
X012112Y013811D01*
X012058Y013833D01*
X012000Y013845D01*
X011600Y013845D01*
X011600Y013175D01*
X011600Y013175D01*
X012270Y013175D01*
X011600Y013175D01*
X011600Y013175D01*
X011600Y013845D01*
X011200Y013845D01*
X011142Y013833D01*
X011088Y013811D01*
X011039Y013778D01*
X010997Y013736D01*
X010964Y013687D01*
X010964Y013687D01*
X010891Y013760D01*
X010637Y013865D01*
X010363Y013865D01*
X010352Y013861D01*
X010167Y014045D01*
X012695Y014045D01*
X012755Y013984D01*
X012947Y013905D01*
X013153Y013905D01*
X013295Y013964D01*
X013295Y013582D01*
X012518Y012805D01*
X012270Y012805D01*
X012270Y013052D02*
X012765Y013052D01*
X013163Y013451D02*
X012270Y013451D01*
X011600Y013451D02*
X011600Y013451D01*
X010676Y013849D02*
X013295Y013849D01*
X015788Y012654D02*
X016829Y012654D01*
X019562Y013451D02*
X020288Y013451D01*
X020170Y013052D02*
X020133Y013052D01*
X017425Y009925D02*
X017425Y009255D01*
X017425Y009925D01*
X017425Y009925D01*
X017425Y009864D02*
X017425Y009864D01*
X017425Y009466D02*
X017425Y009466D01*
X016805Y009067D02*
X021605Y009067D01*
X021325Y008669D02*
X016805Y008669D01*
X026754Y008669D02*
X029446Y008669D01*
X030154Y008669D02*
X030644Y008669D01*
X031300Y008270D02*
X026963Y008270D01*
X037230Y003300D02*
X037230Y002630D01*
X037230Y003300D01*
X038370Y003300D01*
X039040Y003300D01*
X038370Y003300D01*
X038370Y003300D01*
X038370Y002630D01*
X038370Y003300D01*
X038370Y003300D01*
X038370Y003300D01*
X037900Y003300D01*
X037230Y003300D01*
X037230Y003300D01*
X037230Y003300D01*
X037230Y003090D02*
X037230Y003090D01*
X037230Y002691D02*
X037230Y002691D01*
X037140Y002497D02*
X037140Y002497D01*
X037288Y002293D02*
X039940Y002293D01*
X039940Y002691D02*
X038651Y002691D01*
X038370Y002691D02*
X038370Y002691D01*
X038089Y002691D02*
X037511Y002691D01*
X036949Y002691D02*
X036946Y002691D01*
X037305Y001894D02*
X037551Y001894D01*
X037353Y001496D02*
X037305Y001496D01*
X037305Y001097D02*
X037356Y001097D01*
X037294Y000699D02*
X037558Y000699D01*
X039247Y001496D02*
X039486Y001496D01*
X039885Y001894D02*
X039049Y001894D01*
X039007Y003090D02*
X039940Y003090D01*
X039940Y003488D02*
X039013Y003488D01*
X038812Y003887D02*
X039940Y003887D01*
X039940Y004285D02*
X038940Y004285D01*
X038838Y004684D02*
X039940Y004684D01*
X039940Y005082D02*
X039007Y005082D01*
X039022Y005481D02*
X039940Y005481D01*
X039940Y005879D02*
X038805Y005879D01*
X038940Y006278D02*
X039940Y006278D01*
X039940Y006676D02*
X038841Y006676D01*
X039003Y007075D02*
X039940Y007075D01*
X039940Y007473D02*
X039025Y007473D01*
X038797Y007872D02*
X039940Y007872D01*
X039940Y008270D02*
X038940Y008270D01*
X038844Y008669D02*
X039940Y008669D01*
X039940Y009067D02*
X039000Y009067D01*
X039028Y009466D02*
X039940Y009466D01*
X039940Y009864D02*
X038790Y009864D01*
X038940Y010263D02*
X039940Y010263D01*
X039940Y010661D02*
X038847Y010661D01*
X038997Y011060D02*
X039940Y011060D01*
X039940Y011458D02*
X039031Y011458D01*
X038782Y011857D02*
X039940Y011857D01*
X039940Y012255D02*
X038940Y012255D01*
X038370Y003090D02*
X038370Y003090D01*
X005574Y002691D02*
X000660Y002691D01*
X000660Y002293D02*
X005102Y002293D01*
X004203Y001894D02*
X000660Y001894D01*
X000660Y001496D02*
X004187Y001496D01*
X004687Y001097D02*
X000660Y001097D01*
X000660Y000699D02*
X005558Y000699D01*
X003853Y003887D02*
X000660Y003887D01*
X000660Y004285D02*
X003403Y004285D01*
X003295Y004684D02*
X000660Y004684D01*
X000660Y005082D02*
X003295Y005082D01*
X003295Y005481D02*
X000660Y005481D01*
X000660Y005879D02*
X003295Y005879D01*
X003306Y006278D02*
X000660Y006278D01*
X000660Y006676D02*
X003639Y006676D01*
X003564Y009067D02*
X003430Y009067D01*
X003430Y009466D02*
X004144Y009466D01*
D19*
X008800Y002800D02*
X008550Y002550D01*
X008800Y002800D02*
X012675Y002800D01*
X017800Y002800D01*
X018300Y002175D01*
X018300Y001200D01*
X018300Y002175D02*
X021925Y005050D01*
X021925Y008550D01*
X022800Y009300D01*
X028675Y009300D01*
X028925Y009550D01*
X028925Y010425D01*
X012675Y002800D02*
X011550Y001675D01*
D20*
X032925Y015175D03*
D21*
X032550Y014800D01*
X029800Y014800D01*
X029050Y014050D01*
X026925Y014050D01*
X025925Y013050D01*
X025925Y010550D01*
X025300Y009925D01*
X018775Y009925D01*
X018425Y009825D01*
M02*
