G75*
%MOIN*%
%OFA0B0*%
%FSLAX24Y24*%
%IPPOS*%
%LPD*%
%AMOC8*
5,1,8,0,0,1.08239X$1,22.5*
%
%ADD10R,0.0551X0.0472*%
%ADD11R,0.0560X0.0140*%
%ADD12R,0.0551X0.0630*%
%ADD13R,0.0433X0.0394*%
%ADD14R,0.0630X0.0551*%
%ADD15R,0.0394X0.0433*%
%ADD16R,0.0472X0.0315*%
%ADD17R,0.0315X0.0472*%
D10*
X001550Y000834D03*
X001550Y002016D03*
X001550Y019334D03*
X001550Y020516D03*
D11*
X005555Y015695D03*
X005555Y015435D03*
X005555Y015185D03*
X005555Y014925D03*
X005555Y014665D03*
X005555Y014415D03*
X005555Y014155D03*
X007795Y014155D03*
X007795Y014415D03*
X007795Y014665D03*
X007795Y014925D03*
X007795Y015185D03*
X007795Y015435D03*
X007795Y015695D03*
X007670Y006320D03*
X007670Y006060D03*
X007670Y005810D03*
X007670Y005550D03*
X007670Y005290D03*
X007670Y005040D03*
X007670Y004780D03*
X005430Y004780D03*
X005430Y005040D03*
X005430Y005290D03*
X005430Y005550D03*
X005430Y005810D03*
X005430Y006060D03*
X005430Y006320D03*
D12*
X003351Y006300D03*
X002249Y006300D03*
X002249Y004050D03*
X003351Y004050D03*
X003351Y011925D03*
X002249Y011925D03*
X002249Y014425D03*
X003351Y014425D03*
X003351Y016925D03*
X002249Y016925D03*
D13*
X002715Y017800D03*
X003385Y017800D03*
X003385Y015300D03*
X002715Y015300D03*
X002715Y012800D03*
X003385Y012800D03*
X008715Y015800D03*
X009385Y015800D03*
X015590Y016425D03*
X016260Y016425D03*
X016260Y017300D03*
X015590Y017300D03*
X003385Y007300D03*
X002715Y007300D03*
X002715Y005050D03*
X003385Y005050D03*
X008590Y006425D03*
X009260Y006425D03*
D14*
X006175Y003601D03*
X006175Y002499D03*
X005925Y010749D03*
X005925Y011851D03*
D15*
X006925Y011760D03*
X006925Y011090D03*
X004675Y003260D03*
X004675Y002590D03*
D16*
X002425Y001654D03*
X002425Y000946D03*
D17*
X002696Y020550D03*
X003404Y020550D03*
M02*
