%
M48
M72
T01C0.0200
T02C0.0276
T03C0.0315
T04C0.0354
T05C0.0400
T06C0.1260
%
T01
X4675Y1675
X5425Y2925
X7300Y3925
X4800Y4300
X4175Y4300
X4300Y5050
X4550Y5800
X6050Y5925
X6800Y5550
X6800Y6925
X8050Y6925
X5050Y8050
X3675Y8550
X2675Y8175
X3050Y10800
X4175Y11675
X7050Y12425
X7550Y13050
X8425Y12050
X8425Y11050
X5550Y13300
X4800Y14175
X3300Y13425
X1425Y14425
X6425Y15175
X7175Y14675
X8550Y14425
X7050Y16175
X5800Y17425
X12800Y15925
X12925Y16425
X13425Y15300
X12925Y14925
X13050Y14425
X15050Y16425
X17050Y16425
X18675Y14425
X19675Y12800
X19675Y11425
X25300Y14675
X23925Y14925
X30425Y15300
X32925Y15175
X29800Y9050
X20425Y4675
X19800Y5300
X19175Y5800
X11175Y8175
X7425Y800
X18300Y18675
X16300Y18800
X15300Y19300
T02
X31425Y17550
X32425Y17550
X8550Y2550
X8550Y1550
T03
X10550Y1675
X11550Y1675
T04
X23300Y4175
X24300Y4175
X25300Y4175
X26300Y4175
X26300Y8175
X25300Y8175
X24300Y8175
X23300Y8175
T05
X26925Y10425
X27925Y10325
X28925Y10425
X29925Y10325
X30925Y10425
X31925Y10325
X33000Y10425
X34100Y10425
X37250Y10300
X38250Y10300
X38350Y11300
X37350Y11300
X37250Y12300
X38250Y12300
X38350Y13300
X37350Y13300
X37250Y14300
X38250Y14300
X38350Y15300
X37350Y15300
X37250Y16300
X38250Y16300
X38350Y17300
X37350Y17300
X37250Y18300
X38250Y18300
X38350Y19300
X37350Y19300
X37230Y20300
X38370Y20300
X34300Y20250
X33300Y20350
X32300Y20250
X31300Y20350
X30300Y20250
X29300Y20350
X28300Y20250
X27300Y20350
X25300Y20250
X24300Y20350
X23300Y20250
X22300Y20350
X21300Y20250
X20300Y20350
X19300Y20250
X18300Y20350
X16800Y20250
X15800Y20350
X14800Y20250
X13800Y20350
X12800Y20250
X11800Y20350
X10800Y20250
X9800Y20350
X14425Y13350
X15425Y13250
X16425Y13350
X17425Y13250
X21425Y12850
X22425Y12750
X23425Y12850
X22425Y10725
X23425Y10625
X21425Y10625
X18425Y9825
X17425Y9925
X16425Y9825
X15425Y9925
X14425Y9825
X13425Y9925
X11600Y9925
X10500Y9925
X10500Y13175
X11600Y13175
X26925Y13025
X27925Y12925
X28925Y13025
X29925Y12925
X30925Y13025
X31925Y12925
X33000Y12925
X34100Y12925
X37350Y9300
X38350Y9300
X38250Y8300
X37250Y8300
X37350Y7300
X38350Y7300
X38250Y6300
X37250Y6300
X37350Y5300
X38350Y5300
X38250Y4300
X37250Y4300
X37230Y3300
X38370Y3300
X35300Y1350
X34300Y1250
X33300Y1350
X32300Y1250
X31300Y1350
X30300Y1250
X29300Y1350
X27300Y1250
X26300Y1350
X25300Y1250
X24300Y1350
X23300Y1250
X22300Y1350
X21300Y1250
X20300Y1350
X18300Y1200
X17300Y1300
X16300Y1200
X15300Y1300
X14300Y1200
X13300Y1300
X31875Y4800
X31975Y5800
X31875Y6800
X31975Y7800
X36300Y1250
T06
X38300Y1300
X6300Y1300
X6300Y20300
X35800Y20300
M30
