G75*
%MOIN*%
%OFA0B0*%
%FSLAX24Y24*%
%IPPOS*%
%LPD*%
%AMOC8*
5,1,8,0,0,1.08239X$1,22.5*
%
%ADD10C,0.1340*%
%ADD11R,0.0820X0.0820*%
%ADD12C,0.0820*%
%ADD13R,0.0635X0.0635*%
%ADD14C,0.0730*%
%ADD15R,0.0730X0.0730*%
D10*
X006300Y001300D03*
X038300Y001300D03*
X035800Y020300D03*
X006300Y020300D03*
D11*
X016800Y020250D03*
X025300Y020250D03*
X027300Y020350D03*
X017425Y013250D03*
X021425Y012850D03*
X023425Y010625D03*
X031975Y007800D03*
X033000Y010425D03*
X034100Y012925D03*
X029300Y001350D03*
X020300Y001350D03*
X010500Y009925D03*
X011600Y013175D03*
D12*
X010500Y013175D03*
X014425Y013350D03*
X015425Y013250D03*
X016425Y013350D03*
X021425Y010625D03*
X022425Y010725D03*
X022425Y012750D03*
X023425Y012850D03*
X026925Y013025D03*
X027925Y012925D03*
X028925Y013025D03*
X029925Y012925D03*
X030925Y013025D03*
X031925Y012925D03*
X033000Y012925D03*
X037250Y012300D03*
X038250Y012300D03*
X038350Y011300D03*
X037350Y011300D03*
X037250Y010300D03*
X038250Y010300D03*
X038350Y009300D03*
X037350Y009300D03*
X037250Y008300D03*
X038250Y008300D03*
X038350Y007300D03*
X037350Y007300D03*
X037250Y006300D03*
X038250Y006300D03*
X038350Y005300D03*
X037350Y005300D03*
X037250Y004300D03*
X038250Y004300D03*
X038370Y003300D03*
X037230Y003300D03*
X035300Y001350D03*
X034300Y001250D03*
X033300Y001350D03*
X032300Y001250D03*
X031300Y001350D03*
X030300Y001250D03*
X027300Y001250D03*
X026300Y001350D03*
X025300Y001250D03*
X024300Y001350D03*
X023300Y001250D03*
X022300Y001350D03*
X021300Y001250D03*
X018300Y001200D03*
X017300Y001300D03*
X016300Y001200D03*
X015300Y001300D03*
X014300Y001200D03*
X013300Y001300D03*
X023300Y004175D03*
X024300Y004175D03*
X025300Y004175D03*
X026300Y004175D03*
X031875Y004800D03*
X031975Y005800D03*
X031875Y006800D03*
X026300Y008175D03*
X025300Y008175D03*
X024300Y008175D03*
X023300Y008175D03*
X026925Y010425D03*
X027925Y010325D03*
X028925Y010425D03*
X029925Y010325D03*
X030925Y010425D03*
X031925Y010325D03*
X034100Y010425D03*
X037350Y013300D03*
X038350Y013300D03*
X038250Y014300D03*
X037250Y014300D03*
X037350Y015300D03*
X038350Y015300D03*
X038250Y016300D03*
X037250Y016300D03*
X037350Y017300D03*
X038350Y017300D03*
X038250Y018300D03*
X037250Y018300D03*
X037350Y019300D03*
X038350Y019300D03*
X038370Y020300D03*
X037230Y020300D03*
X034300Y020250D03*
X033300Y020350D03*
X032300Y020250D03*
X031300Y020350D03*
X030300Y020250D03*
X029300Y020350D03*
X028300Y020250D03*
X024300Y020350D03*
X023300Y020250D03*
X022300Y020350D03*
X021300Y020250D03*
X020300Y020350D03*
X019300Y020250D03*
X018300Y020350D03*
X015800Y020350D03*
X014800Y020250D03*
X013800Y020350D03*
X012800Y020250D03*
X011800Y020350D03*
X010800Y020250D03*
X009800Y020350D03*
X011600Y009925D03*
X013425Y009925D03*
X014425Y009825D03*
X015425Y009925D03*
X016425Y009825D03*
X017425Y009925D03*
X018425Y009825D03*
X036300Y001250D03*
D13*
X011550Y001675D03*
X010550Y001675D03*
D14*
X008550Y001550D03*
X031425Y017550D03*
D15*
X032425Y017550D03*
X008550Y002550D03*
M02*
