G75*
%MOIN*%
%OFA0B0*%
%FSLAX24Y24*%
%IPPOS*%
%LPD*%
%AMOC8*
5,1,8,0,0,1.08239X$1,22.5*
%
%ADD10R,0.0740X0.0740*%
%ADD11C,0.0740*%
%ADD12C,0.2000*%
%ADD13C,0.0600*%
%ADD14R,0.0950X0.0950*%
%ADD15C,0.0950*%
%ADD16C,0.1142*%
%ADD17C,0.0650*%
%ADD18R,0.0650X0.0650*%
%ADD19C,0.0240*%
%ADD20C,0.0460*%
%ADD21C,0.0120*%
%ADD22C,0.0160*%
%ADD23C,0.0560*%
%ADD24C,0.0500*%
D10*
X008500Y001005D03*
X010875Y001255D03*
X013875Y001255D03*
X017375Y001255D03*
X023741Y008686D03*
X023741Y028436D03*
D11*
X023741Y027346D03*
X023741Y026255D03*
X023741Y025164D03*
X023741Y024074D03*
X024859Y024621D03*
X024859Y025712D03*
X024859Y026798D03*
X024859Y027889D03*
X024859Y008139D03*
X024859Y007048D03*
X024859Y005962D03*
X024859Y004871D03*
X023741Y005414D03*
X023741Y004324D03*
X023741Y006505D03*
X023741Y007596D03*
X018475Y001255D03*
X014975Y001255D03*
X011975Y001255D03*
X008600Y002005D03*
X008500Y003005D03*
X008600Y004005D03*
X006050Y028380D03*
X005050Y028380D03*
X005050Y031255D03*
X006050Y031255D03*
D12*
X024300Y031176D03*
X024300Y021334D03*
X024300Y011426D03*
X024300Y001584D03*
D13*
X018925Y007005D03*
X017925Y007005D03*
X017925Y009005D03*
X018925Y009005D03*
X018925Y010630D03*
X017925Y010630D03*
X017925Y012630D03*
X018925Y012630D03*
X018925Y014505D03*
X017925Y014505D03*
X017925Y016505D03*
X018925Y016505D03*
X014925Y016505D03*
X014925Y014505D03*
X014925Y012630D03*
X014925Y010630D03*
X014925Y009005D03*
X014925Y007005D03*
D14*
X025925Y015130D03*
D15*
X025925Y016508D03*
X025925Y017886D03*
D16*
X008839Y018110D03*
X008839Y016457D03*
X008839Y014803D03*
X008839Y013150D03*
X008839Y011496D03*
X008839Y009843D03*
X008839Y008189D03*
X008839Y006536D03*
X006674Y006536D03*
X006674Y008189D03*
X006674Y009843D03*
X006674Y011496D03*
X006674Y013150D03*
X006674Y014803D03*
X006674Y016457D03*
X006674Y018110D03*
X006674Y019764D03*
X006674Y021417D03*
X006674Y023071D03*
X006674Y024724D03*
X008839Y024724D03*
X008839Y023071D03*
X008839Y021417D03*
X008839Y019764D03*
D17*
X020925Y017755D03*
D18*
X020925Y016755D03*
D19*
X025925Y015130D02*
X010300Y015130D01*
X009925Y014630D01*
X009925Y007755D01*
X009550Y007380D01*
X007519Y007380D01*
X006674Y006536D01*
D20*
X002050Y010255D03*
X002050Y010880D03*
X002300Y011880D03*
X001800Y012255D03*
X001800Y013755D03*
X001800Y018130D03*
X010425Y014255D03*
X010800Y013630D03*
X012175Y015630D03*
X013800Y013880D03*
X013800Y009880D03*
X013800Y006255D03*
X017425Y005505D03*
X018300Y005255D03*
X018800Y011380D03*
X018175Y011755D03*
X024300Y013255D03*
X021800Y024880D03*
X021800Y025505D03*
X017675Y025005D03*
X017175Y025505D03*
D21*
X005425Y002630D02*
X001425Y002630D01*
X001300Y002755D01*
X001300Y028130D01*
X001550Y028380D01*
X005050Y028380D01*
X006654Y018130D02*
X001800Y018130D01*
X002175Y014755D02*
X006501Y014755D01*
X006674Y014803D01*
X007501Y015630D02*
X006674Y016457D01*
X007501Y015630D02*
X012175Y015630D01*
X010425Y014255D02*
X010425Y012005D01*
X011050Y011380D01*
X018800Y011380D01*
X018425Y010880D02*
X018175Y011130D01*
X017675Y011130D01*
X017425Y010880D01*
X017425Y010755D01*
X017300Y010630D01*
X014925Y010630D01*
X018175Y011755D02*
X011175Y011755D01*
X010800Y012130D01*
X010800Y013630D01*
X008839Y011496D02*
X007956Y012380D01*
X006175Y012380D01*
X005925Y012630D01*
X002675Y012630D01*
X002300Y012255D01*
X002300Y011880D01*
X001800Y012255D02*
X002675Y013130D01*
X006654Y013130D01*
X006674Y013150D01*
X006665Y011505D02*
X006674Y011496D01*
X006665Y011505D02*
X003050Y011505D01*
X002425Y010880D01*
X002050Y010880D01*
X002050Y010255D02*
X005300Y010255D01*
X005800Y010755D01*
X007927Y010755D01*
X008839Y009843D01*
X008023Y009005D02*
X008839Y008189D01*
X008023Y009005D02*
X006175Y009005D01*
X005675Y008505D01*
X005675Y003005D01*
X005425Y002630D01*
X001800Y013755D02*
X001800Y014380D01*
X002175Y014755D01*
X006654Y018130D02*
X006674Y018110D01*
X017175Y025505D02*
X021800Y025505D01*
X021675Y025005D02*
X021800Y024880D01*
X021675Y025005D02*
X017675Y025005D01*
X018425Y010880D02*
X018425Y010130D01*
X018675Y009880D01*
X019425Y009880D01*
X019550Y009755D01*
X019550Y006380D01*
X019175Y006005D01*
X018300Y006005D01*
X018050Y005755D01*
X017675Y005755D01*
X017425Y005505D01*
X018300Y005630D02*
X018300Y005255D01*
X018300Y005630D02*
X018425Y005755D01*
X019300Y005755D01*
X019800Y006255D01*
X019800Y010255D01*
X019425Y010630D01*
X018925Y010630D01*
D22*
X017925Y010630D02*
X017925Y010005D01*
X017800Y009880D01*
X013800Y009880D01*
X013800Y006255D02*
X017675Y006255D01*
X017925Y006505D01*
X017925Y007005D01*
X017300Y013880D02*
X013800Y013880D01*
X017300Y013880D02*
X017925Y014505D01*
D23*
X018425Y014015D02*
X018322Y013912D01*
X018064Y013805D01*
X017904Y013805D01*
X017572Y013473D01*
X017395Y013400D01*
X014211Y013400D01*
X014157Y013346D01*
X013925Y013250D01*
X013675Y013250D01*
X013443Y013346D01*
X013266Y013523D01*
X013170Y013755D01*
X013170Y014005D01*
X013266Y014237D01*
X013443Y014414D01*
X013675Y014510D01*
X013925Y014510D01*
X014157Y014414D01*
X014211Y014360D01*
X014227Y014360D01*
X014225Y014366D01*
X014225Y014610D01*
X010960Y014610D01*
X011055Y014380D01*
X011055Y014206D01*
X011157Y014164D01*
X011334Y013987D01*
X011430Y013755D01*
X011430Y013505D01*
X011334Y013273D01*
X011260Y013199D01*
X011260Y012321D01*
X011366Y012215D01*
X014350Y012215D01*
X014332Y012233D01*
X014225Y012491D01*
X014225Y012769D01*
X014332Y013027D01*
X014528Y013223D01*
X014786Y013330D01*
X015064Y013330D01*
X015322Y013223D01*
X015518Y013027D01*
X015625Y012769D01*
X015625Y012491D01*
X015518Y012233D01*
X015500Y012215D01*
X017350Y012215D01*
X017332Y012233D01*
X017225Y012491D01*
X017225Y012769D01*
X017332Y013027D01*
X017528Y013223D01*
X017786Y013330D01*
X018064Y013330D01*
X018322Y013223D01*
X018425Y013120D01*
X018528Y013223D01*
X018786Y013330D01*
X019064Y013330D01*
X019322Y013223D01*
X019518Y013027D01*
X019625Y012769D01*
X019625Y012491D01*
X019518Y012233D01*
X019322Y012037D01*
X019091Y011941D01*
X019157Y011914D01*
X019334Y011737D01*
X019430Y011505D01*
X019430Y011255D01*
X019389Y011156D01*
X019455Y011090D01*
X019516Y011090D01*
X019686Y011020D01*
X019815Y010891D01*
X020190Y010516D01*
X020260Y010346D01*
X020260Y006163D01*
X020190Y005994D01*
X020061Y005865D01*
X020061Y005865D01*
X019561Y005365D01*
X019391Y005295D01*
X018930Y005295D01*
X018930Y005130D01*
X018834Y004898D01*
X018657Y004721D01*
X018425Y004625D01*
X018175Y004625D01*
X017943Y004721D01*
X017766Y004898D01*
X017743Y004955D01*
X017550Y004875D01*
X017300Y004875D01*
X017068Y004971D01*
X016891Y005148D01*
X016795Y005380D01*
X016795Y005630D01*
X016855Y005775D01*
X014211Y005775D01*
X014157Y005721D01*
X013925Y005625D01*
X013675Y005625D01*
X013443Y005721D01*
X013266Y005898D01*
X013170Y006130D01*
X013170Y006380D01*
X013266Y006612D01*
X013443Y006789D01*
X013675Y006885D01*
X013925Y006885D01*
X014157Y006789D01*
X014211Y006735D01*
X014279Y006735D01*
X014225Y006866D01*
X014225Y007144D01*
X014332Y007402D01*
X014528Y007598D01*
X014786Y007705D01*
X015064Y007705D01*
X015322Y007598D01*
X015518Y007402D01*
X015625Y007144D01*
X015625Y006866D01*
X015571Y006735D01*
X017279Y006735D01*
X017225Y006866D01*
X017225Y007144D01*
X017332Y007402D01*
X017528Y007598D01*
X017786Y007705D01*
X018064Y007705D01*
X018322Y007598D01*
X018425Y007495D01*
X018528Y007598D01*
X018786Y007705D01*
X019064Y007705D01*
X019090Y007694D01*
X019090Y008316D01*
X019064Y008305D01*
X018786Y008305D01*
X018528Y008412D01*
X018425Y008515D01*
X018322Y008412D01*
X018064Y008305D01*
X017786Y008305D01*
X017528Y008412D01*
X017332Y008608D01*
X017225Y008866D01*
X017225Y009144D01*
X017331Y009400D01*
X015519Y009400D01*
X015625Y009144D01*
X015625Y008866D01*
X015518Y008608D01*
X015322Y008412D01*
X015064Y008305D01*
X014786Y008305D01*
X014528Y008412D01*
X014332Y008608D01*
X014225Y008866D01*
X014225Y009144D01*
X014331Y009400D01*
X014211Y009400D01*
X014157Y009346D01*
X013925Y009250D01*
X013675Y009250D01*
X013443Y009346D01*
X013266Y009523D01*
X013170Y009755D01*
X013170Y010005D01*
X013266Y010237D01*
X013443Y010414D01*
X013675Y010510D01*
X013925Y010510D01*
X014157Y010414D01*
X014211Y010360D01*
X014279Y010360D01*
X014225Y010491D01*
X014225Y010769D01*
X014287Y010920D01*
X010958Y010920D01*
X010789Y010990D01*
X010445Y011334D01*
X010445Y007652D01*
X010366Y007460D01*
X009991Y007085D01*
X009845Y006939D01*
X009741Y006896D01*
X009810Y006729D01*
X009810Y006342D01*
X009662Y005986D01*
X009389Y005712D01*
X009032Y005565D01*
X008646Y005565D01*
X008289Y005712D01*
X008016Y005986D01*
X007869Y006342D01*
X007869Y006729D01*
X007923Y006860D01*
X007734Y006860D01*
X007632Y006759D01*
X007645Y006729D01*
X007645Y006342D01*
X007497Y005986D01*
X007224Y005712D01*
X006867Y005565D01*
X006481Y005565D01*
X006135Y005708D01*
X006135Y003051D01*
X006144Y003005D01*
X006135Y002960D01*
X006135Y002913D01*
X006117Y002871D01*
X006108Y002826D01*
X006083Y002787D01*
X006065Y002744D01*
X006032Y002712D01*
X005833Y002412D01*
X005815Y002369D01*
X005782Y002337D01*
X005757Y002299D01*
X005718Y002273D01*
X005686Y002240D01*
X005643Y002222D01*
X005605Y002197D01*
X005559Y002188D01*
X005516Y002170D01*
X005471Y002170D01*
X005425Y002161D01*
X005380Y002170D01*
X003130Y002170D01*
X003289Y001893D01*
X003380Y001555D01*
X003380Y001205D01*
X003289Y000867D01*
X003257Y000810D01*
X007730Y000810D01*
X007730Y001455D01*
X007791Y001602D01*
X007892Y001703D01*
X007830Y001852D01*
X007830Y002158D01*
X007947Y002441D01*
X007961Y002455D01*
X007847Y002569D01*
X007730Y002852D01*
X007730Y003158D01*
X007847Y003441D01*
X007961Y003555D01*
X007947Y003569D01*
X007830Y003852D01*
X007830Y004158D01*
X007947Y004441D01*
X008164Y004658D01*
X008447Y004775D01*
X008753Y004775D01*
X009036Y004658D01*
X009253Y004441D01*
X009370Y004158D01*
X009370Y003852D01*
X009253Y003569D01*
X009139Y003455D01*
X009153Y003441D01*
X009270Y003158D01*
X009270Y002852D01*
X009153Y002569D01*
X009139Y002555D01*
X009253Y002441D01*
X009370Y002158D01*
X009370Y001852D01*
X009253Y001569D01*
X009231Y001548D01*
X009270Y001455D01*
X009270Y000810D01*
X010105Y000810D01*
X010105Y001705D01*
X010166Y001852D01*
X010278Y001964D01*
X010425Y002025D01*
X011325Y002025D01*
X011472Y001964D01*
X011533Y001902D01*
X011539Y001908D01*
X011822Y002025D01*
X012128Y002025D01*
X012411Y001908D01*
X012628Y001691D01*
X012745Y001408D01*
X012745Y001102D01*
X012628Y000819D01*
X012619Y000810D01*
X013105Y000810D01*
X013105Y001705D01*
X013166Y001852D01*
X013278Y001964D01*
X013425Y002025D01*
X014325Y002025D01*
X014472Y001964D01*
X014556Y001879D01*
X014557Y001880D01*
X014643Y001929D01*
X014733Y001967D01*
X014828Y001992D01*
X014926Y002005D01*
X014975Y002005D01*
X014975Y001255D01*
X014975Y001255D01*
X015725Y001255D01*
X015725Y001304D01*
X015712Y001402D01*
X015687Y001497D01*
X015649Y001587D01*
X015600Y001673D01*
X015540Y001751D01*
X015471Y001820D01*
X015393Y001880D01*
X015307Y001929D01*
X015217Y001967D01*
X015122Y001992D01*
X015024Y002005D01*
X014975Y002005D01*
X014975Y001255D01*
X014975Y001255D01*
X015725Y001255D01*
X015725Y001206D01*
X015712Y001108D01*
X015687Y001013D01*
X015649Y000923D01*
X015600Y000837D01*
X015579Y000810D01*
X016605Y000810D01*
X016605Y001705D01*
X016666Y001852D01*
X016778Y001964D01*
X016925Y002025D01*
X017825Y002025D01*
X017972Y001964D01*
X018056Y001879D01*
X018057Y001880D01*
X018143Y001929D01*
X018233Y001967D01*
X018328Y001992D01*
X018426Y002005D01*
X018475Y002005D01*
X018475Y001255D01*
X018475Y001255D01*
X019225Y001255D01*
X019225Y001304D01*
X019212Y001402D01*
X019187Y001497D01*
X019149Y001587D01*
X019100Y001673D01*
X019040Y001751D01*
X018971Y001820D01*
X018893Y001880D01*
X018807Y001929D01*
X018717Y001967D01*
X018622Y001992D01*
X018524Y002005D01*
X018475Y002005D01*
X018475Y001255D01*
X018475Y001255D01*
X019225Y001255D01*
X019225Y001206D01*
X019212Y001108D01*
X019187Y001013D01*
X019149Y000923D01*
X019100Y000837D01*
X019079Y000810D01*
X019593Y000810D01*
X019561Y000867D01*
X019470Y001205D01*
X019470Y001555D01*
X019561Y001893D01*
X019736Y002197D01*
X019983Y002444D01*
X020287Y002619D01*
X020625Y002710D01*
X020975Y002710D01*
X021313Y002619D01*
X021617Y002444D01*
X021864Y002197D01*
X022039Y001893D01*
X022130Y001555D01*
X022130Y001205D01*
X022039Y000867D01*
X022007Y000810D01*
X023130Y000810D01*
X022995Y001043D01*
X022900Y001399D01*
X022900Y001768D01*
X022995Y002124D01*
X023180Y002443D01*
X023440Y002704D01*
X023760Y002888D01*
X024116Y002984D01*
X024484Y002984D01*
X024840Y002888D01*
X025160Y002704D01*
X025420Y002443D01*
X025605Y002124D01*
X025700Y001768D01*
X025700Y001399D01*
X025605Y001043D01*
X025470Y000810D01*
X027615Y000810D01*
X027615Y031946D01*
X025472Y031946D01*
X025605Y031717D01*
X025700Y031361D01*
X025700Y030992D01*
X025605Y030636D01*
X025420Y030317D01*
X025160Y030056D01*
X024840Y029872D01*
X024484Y029776D01*
X024116Y029776D01*
X023760Y029872D01*
X023440Y030056D01*
X023180Y030317D01*
X022995Y030636D01*
X022900Y030992D01*
X022900Y031361D01*
X022995Y031717D01*
X023128Y031946D01*
X006394Y031946D01*
X006486Y031908D01*
X006703Y031691D01*
X006820Y031408D01*
X006820Y031102D01*
X006703Y030819D01*
X006486Y030602D01*
X006203Y030485D01*
X005897Y030485D01*
X005614Y030602D01*
X005550Y030666D01*
X005486Y030602D01*
X005203Y030485D01*
X004897Y030485D01*
X004614Y030602D01*
X004397Y030819D01*
X004280Y031102D01*
X004280Y031408D01*
X004397Y031691D01*
X004614Y031908D01*
X004706Y031946D01*
X001480Y031946D01*
X001480Y031388D01*
X001750Y031460D01*
X002100Y031460D01*
X002438Y031369D01*
X002742Y031194D01*
X002989Y030947D01*
X003164Y030643D01*
X003255Y030305D01*
X003255Y029955D01*
X003164Y029617D01*
X002989Y029313D01*
X002742Y029066D01*
X002438Y028891D01*
X002249Y028840D01*
X004421Y028840D01*
X004614Y029033D01*
X004897Y029150D01*
X005203Y029150D01*
X005486Y029033D01*
X005565Y028954D01*
X005632Y029005D01*
X005718Y029054D01*
X005808Y029092D01*
X005903Y029117D01*
X006001Y029130D01*
X006050Y029130D01*
X006099Y029130D01*
X006197Y029117D01*
X006292Y029092D01*
X006382Y029054D01*
X006468Y029005D01*
X006546Y028945D01*
X006615Y028876D01*
X006675Y028798D01*
X006724Y028712D01*
X006762Y028622D01*
X006787Y028527D01*
X006800Y028429D01*
X006800Y028380D01*
X006050Y028380D01*
X006050Y028380D01*
X006050Y028380D01*
X006050Y029130D01*
X006050Y028380D01*
X006800Y028380D01*
X006800Y028331D01*
X006787Y028233D01*
X006762Y028138D01*
X006724Y028048D01*
X006675Y027962D01*
X006615Y027884D01*
X006546Y027815D01*
X006468Y027755D01*
X006382Y027706D01*
X006292Y027668D01*
X006197Y027643D01*
X006099Y027630D01*
X006050Y027630D01*
X006050Y028380D01*
X006050Y028380D01*
X006050Y027630D01*
X006001Y027630D01*
X005903Y027643D01*
X005808Y027668D01*
X005718Y027706D01*
X005632Y027755D01*
X005565Y027806D01*
X005486Y027727D01*
X005203Y027610D01*
X004897Y027610D01*
X004614Y027727D01*
X004421Y027920D01*
X001760Y027920D01*
X001760Y018760D01*
X001925Y018760D01*
X002157Y018664D01*
X002231Y018590D01*
X005822Y018590D01*
X005851Y018660D01*
X006124Y018933D01*
X006133Y018937D01*
X006124Y018941D01*
X005851Y019214D01*
X005703Y019571D01*
X005703Y019957D01*
X005851Y020314D01*
X006124Y020587D01*
X006133Y020591D01*
X006124Y020594D01*
X005851Y020867D01*
X005703Y021224D01*
X005703Y021611D01*
X005851Y021967D01*
X006124Y022240D01*
X006175Y022262D01*
X006123Y022294D01*
X006039Y022361D01*
X005964Y022436D01*
X005897Y022520D01*
X005840Y022610D01*
X005794Y022706D01*
X005759Y022807D01*
X005735Y022911D01*
X005723Y023018D01*
X005723Y023071D01*
X006674Y023071D01*
X006674Y024724D01*
X006674Y023774D01*
X006674Y023071D01*
X006674Y023071D01*
X006674Y023071D01*
X007625Y023071D01*
X007625Y023124D01*
X007613Y023230D01*
X007589Y023335D01*
X007554Y023435D01*
X007508Y023532D01*
X007451Y023622D01*
X007384Y023706D01*
X007309Y023781D01*
X007225Y023848D01*
X007145Y023898D01*
X007225Y023948D01*
X007309Y024014D01*
X007384Y024090D01*
X007451Y024173D01*
X007508Y024264D01*
X007554Y024360D01*
X007589Y024461D01*
X007613Y024565D01*
X007625Y024671D01*
X007625Y024724D01*
X006674Y024724D01*
X006674Y024724D01*
X005723Y024724D01*
X005723Y024671D01*
X005735Y024565D01*
X005759Y024461D01*
X005794Y024360D01*
X005840Y024264D01*
X005897Y024173D01*
X005964Y024090D01*
X006039Y024014D01*
X006123Y023948D01*
X006203Y023898D01*
X006123Y023848D01*
X006039Y023781D01*
X005964Y023706D01*
X005897Y023622D01*
X005840Y023532D01*
X005794Y023435D01*
X005759Y023335D01*
X005735Y023230D01*
X005723Y023124D01*
X005723Y023071D01*
X006674Y023071D01*
X006674Y023071D01*
X007625Y023071D01*
X007625Y023018D01*
X007613Y022911D01*
X007589Y022807D01*
X007554Y022706D01*
X007508Y022610D01*
X007451Y022520D01*
X007384Y022436D01*
X007309Y022361D01*
X007225Y022294D01*
X007173Y022262D01*
X007224Y022240D01*
X007497Y021967D01*
X007645Y021611D01*
X007645Y021224D01*
X007497Y020867D01*
X007224Y020594D01*
X007215Y020591D01*
X007224Y020587D01*
X007497Y020314D01*
X007645Y019957D01*
X007645Y019571D01*
X007497Y019214D01*
X007224Y018941D01*
X007215Y018937D01*
X007224Y018933D01*
X007497Y018660D01*
X007645Y018303D01*
X007645Y017917D01*
X007497Y017560D01*
X007224Y017287D01*
X007215Y017284D01*
X007224Y017280D01*
X007497Y017007D01*
X007645Y016650D01*
X007645Y016264D01*
X007608Y016174D01*
X007691Y016090D01*
X007940Y016090D01*
X007869Y016264D01*
X007869Y016650D01*
X008016Y017007D01*
X008289Y017280D01*
X008298Y017284D01*
X008289Y017287D01*
X008016Y017560D01*
X007869Y017917D01*
X007869Y018303D01*
X008016Y018660D01*
X008289Y018933D01*
X008298Y018937D01*
X008289Y018941D01*
X008016Y019214D01*
X007869Y019571D01*
X007869Y019957D01*
X008016Y020314D01*
X008289Y020587D01*
X008298Y020591D01*
X008289Y020594D01*
X008016Y020867D01*
X007869Y021224D01*
X007869Y021611D01*
X008016Y021967D01*
X008289Y022240D01*
X008298Y022244D01*
X008289Y022248D01*
X008016Y022521D01*
X007869Y022878D01*
X007869Y023264D01*
X008016Y023621D01*
X008289Y023894D01*
X008298Y023898D01*
X008289Y023901D01*
X008016Y024175D01*
X007869Y024531D01*
X007869Y024918D01*
X008016Y025274D01*
X008289Y025548D01*
X008646Y025695D01*
X009032Y025695D01*
X009389Y025548D01*
X009662Y025274D01*
X009810Y024918D01*
X009810Y024531D01*
X009662Y024175D01*
X009389Y023901D01*
X009380Y023898D01*
X009389Y023894D01*
X009662Y023621D01*
X009810Y023264D01*
X009810Y022878D01*
X009662Y022521D01*
X009389Y022248D01*
X009380Y022244D01*
X009389Y022240D01*
X009662Y021967D01*
X009810Y021611D01*
X009810Y021224D01*
X009662Y020867D01*
X009389Y020594D01*
X009380Y020591D01*
X009389Y020587D01*
X009662Y020314D01*
X009810Y019957D01*
X009810Y019571D01*
X009662Y019214D01*
X009389Y018941D01*
X009380Y018937D01*
X009389Y018933D01*
X009662Y018660D01*
X009810Y018303D01*
X009810Y017917D01*
X009662Y017560D01*
X009389Y017287D01*
X009380Y017284D01*
X009389Y017280D01*
X009662Y017007D01*
X009810Y016650D01*
X009810Y016264D01*
X009738Y016090D01*
X011744Y016090D01*
X011818Y016164D01*
X012050Y016260D01*
X012300Y016260D01*
X012532Y016164D01*
X012709Y015987D01*
X012805Y015755D01*
X012805Y015650D01*
X025050Y015650D01*
X025050Y015685D01*
X025111Y015832D01*
X025223Y015944D01*
X025243Y015952D01*
X025183Y016012D01*
X025050Y016334D01*
X025050Y016682D01*
X025183Y017004D01*
X025395Y017215D01*
X025360Y017242D01*
X025281Y017321D01*
X025213Y017410D01*
X025157Y017507D01*
X025114Y017610D01*
X025085Y017719D01*
X025070Y017830D01*
X025070Y017886D01*
X025925Y017886D01*
X025925Y018741D01*
X025869Y018741D01*
X025758Y018726D01*
X025650Y018697D01*
X025546Y018654D01*
X025449Y018598D01*
X025360Y018530D01*
X025281Y018451D01*
X025213Y018362D01*
X025157Y018265D01*
X025114Y018161D01*
X025085Y018053D01*
X025070Y017942D01*
X025070Y017886D01*
X025925Y017886D01*
X025925Y017886D01*
X025925Y018741D01*
X025981Y018741D01*
X026092Y018726D01*
X026200Y018697D01*
X026304Y018654D01*
X026401Y018598D01*
X026490Y018530D01*
X026569Y018451D01*
X026637Y018362D01*
X026693Y018265D01*
X026736Y018161D01*
X026765Y018053D01*
X026780Y017942D01*
X026780Y017886D01*
X025925Y017886D01*
X025925Y017886D01*
X025925Y017886D01*
X026780Y017886D01*
X026780Y017830D01*
X026765Y017719D01*
X026736Y017610D01*
X026693Y017507D01*
X026637Y017410D01*
X026569Y017321D01*
X026490Y017242D01*
X026455Y017215D01*
X026667Y017004D01*
X026800Y016682D01*
X026800Y016334D01*
X026667Y016012D01*
X026607Y015952D01*
X026627Y015944D01*
X026739Y015832D01*
X026800Y015685D01*
X026800Y014575D01*
X026739Y014428D01*
X026627Y014316D01*
X026480Y014255D01*
X025370Y014255D01*
X025223Y014316D01*
X025111Y014428D01*
X025050Y014575D01*
X025050Y014610D01*
X022739Y014610D01*
X023444Y013905D01*
X024429Y013905D01*
X024668Y013806D01*
X024851Y013623D01*
X024950Y013384D01*
X024950Y013126D01*
X024851Y012887D01*
X024726Y012762D01*
X024840Y012731D01*
X025160Y012547D01*
X025420Y012286D01*
X025605Y011967D01*
X025700Y011611D01*
X025700Y011242D01*
X025605Y010886D01*
X025420Y010567D01*
X025160Y010306D01*
X024840Y010122D01*
X024484Y010026D01*
X024116Y010026D01*
X023760Y010122D01*
X023440Y010306D01*
X023180Y010567D01*
X022995Y010886D01*
X022900Y011242D01*
X022900Y011611D01*
X022995Y011967D01*
X023180Y012286D01*
X023440Y012547D01*
X023542Y012605D01*
X023046Y012605D01*
X022807Y012704D01*
X021656Y013855D01*
X019185Y013855D01*
X019064Y013805D01*
X018786Y013805D01*
X018528Y013912D01*
X018425Y014015D01*
X017633Y013534D02*
X021977Y013534D01*
X022535Y012976D02*
X019540Y012976D01*
X019594Y012417D02*
X023311Y012417D01*
X022966Y011859D02*
X019212Y011859D01*
X019430Y011300D02*
X022900Y011300D01*
X023079Y010742D02*
X019964Y010742D01*
X020260Y010183D02*
X023653Y010183D01*
X023291Y009456D02*
X023144Y009395D01*
X023032Y009283D01*
X022971Y009136D01*
X022971Y008237D01*
X023032Y008090D01*
X023089Y008032D01*
X023088Y008032D01*
X022971Y007749D01*
X022971Y007442D01*
X023088Y007159D01*
X023197Y007050D01*
X023088Y006941D01*
X022971Y006658D01*
X022971Y006352D01*
X023088Y006069D01*
X023197Y005960D01*
X023088Y005851D01*
X022971Y005568D01*
X022971Y005261D01*
X023088Y004978D01*
X023197Y004869D01*
X023088Y004760D01*
X022971Y004477D01*
X022971Y004171D01*
X023088Y003888D01*
X023305Y003671D01*
X023588Y003554D01*
X023894Y003554D01*
X024177Y003671D01*
X024394Y003888D01*
X024511Y004171D01*
X024511Y004182D01*
X024706Y004101D01*
X025012Y004101D01*
X025295Y004218D01*
X025512Y004435D01*
X025629Y004718D01*
X025629Y005024D01*
X025512Y005307D01*
X025403Y005416D01*
X025512Y005526D01*
X025629Y005809D01*
X025629Y006115D01*
X025512Y006398D01*
X025405Y006505D01*
X025512Y006612D01*
X025629Y006895D01*
X025629Y007201D01*
X025512Y007484D01*
X025403Y007594D01*
X025512Y007703D01*
X025629Y007986D01*
X025629Y008292D01*
X025512Y008575D01*
X025295Y008792D01*
X025012Y008909D01*
X024706Y008909D01*
X024511Y008828D01*
X024511Y009136D01*
X024450Y009283D01*
X024338Y009395D01*
X024191Y009456D01*
X023291Y009456D01*
X022971Y009066D02*
X020260Y009066D01*
X020260Y008508D02*
X022971Y008508D01*
X023054Y007949D02*
X020260Y007949D01*
X020260Y007391D02*
X022992Y007391D01*
X023043Y006832D02*
X020260Y006832D01*
X020260Y006274D02*
X023003Y006274D01*
X023032Y005715D02*
X019911Y005715D01*
X018930Y005157D02*
X023014Y005157D01*
X023021Y004598D02*
X009096Y004598D01*
X009370Y004040D02*
X023025Y004040D01*
X023887Y002923D02*
X009270Y002923D01*
X009285Y002364D02*
X019903Y002364D01*
X019537Y001806D02*
X018985Y001806D01*
X018475Y001806D02*
X018475Y001806D01*
X019225Y001247D02*
X019470Y001247D01*
X021697Y002364D02*
X023134Y002364D01*
X022910Y001806D02*
X022063Y001806D01*
X022130Y001247D02*
X022941Y001247D01*
X024713Y002923D02*
X027615Y002923D01*
X027615Y002364D02*
X025466Y002364D01*
X025690Y001806D02*
X027615Y001806D01*
X027615Y001247D02*
X025659Y001247D01*
X027615Y003481D02*
X009165Y003481D01*
X007887Y003481D02*
X006135Y003481D01*
X006135Y002923D02*
X007730Y002923D01*
X007915Y002364D02*
X005810Y002364D01*
X006135Y004040D02*
X007830Y004040D01*
X008104Y004598D02*
X006135Y004598D01*
X006135Y005157D02*
X016887Y005157D01*
X016830Y005715D02*
X014143Y005715D01*
X013457Y005715D02*
X009392Y005715D01*
X009782Y006274D02*
X013170Y006274D01*
X013547Y006832D02*
X009767Y006832D01*
X010296Y007391D02*
X014327Y007391D01*
X014239Y006832D02*
X014053Y006832D01*
X015611Y006832D02*
X017239Y006832D01*
X017327Y007391D02*
X015523Y007391D01*
X015417Y008508D02*
X017433Y008508D01*
X017225Y009066D02*
X015625Y009066D01*
X014433Y008508D02*
X010445Y008508D01*
X010445Y007949D02*
X019090Y007949D01*
X018433Y008508D02*
X018417Y008508D01*
X020260Y009625D02*
X027615Y009625D01*
X027615Y010183D02*
X024947Y010183D01*
X025521Y010742D02*
X027615Y010742D01*
X027615Y011300D02*
X025700Y011300D01*
X025634Y011859D02*
X027615Y011859D01*
X027615Y012417D02*
X025289Y012417D01*
X024888Y012976D02*
X027615Y012976D01*
X027615Y013534D02*
X024888Y013534D01*
X023257Y014093D02*
X027615Y014093D01*
X027615Y014651D02*
X026800Y014651D01*
X026800Y015210D02*
X027615Y015210D01*
X027615Y015768D02*
X026765Y015768D01*
X026797Y016327D02*
X027615Y016327D01*
X027615Y016885D02*
X026716Y016885D01*
X026657Y017444D02*
X027615Y017444D01*
X027615Y018002D02*
X026772Y018002D01*
X026450Y018561D02*
X027615Y018561D01*
X027615Y019119D02*
X009568Y019119D01*
X009704Y018561D02*
X025400Y018561D01*
X025925Y018561D02*
X025925Y018561D01*
X025925Y018002D02*
X025925Y018002D01*
X025193Y017444D02*
X021559Y017444D01*
X021559Y017443D02*
X021520Y017376D01*
X021589Y017307D01*
X021650Y017160D01*
X021650Y016350D01*
X021589Y016203D01*
X021477Y016091D01*
X021330Y016030D01*
X020520Y016030D01*
X020373Y016091D01*
X020261Y016203D01*
X020200Y016350D01*
X020200Y017160D01*
X020261Y017307D01*
X020330Y017376D01*
X020291Y017443D01*
X020291Y017444D02*
X009546Y017444D01*
X009810Y018002D02*
X020264Y018002D01*
X020256Y017982D02*
X020232Y017893D01*
X020220Y017801D01*
X020220Y017755D01*
X020925Y017755D01*
X020925Y017755D01*
X020925Y018460D01*
X020971Y018460D01*
X021063Y018448D01*
X021152Y018424D01*
X021237Y018389D01*
X021318Y018342D01*
X021391Y018286D01*
X021456Y018221D01*
X021512Y018148D01*
X021559Y018067D01*
X021594Y017982D01*
X021618Y017893D01*
X021630Y017801D01*
X021630Y017755D01*
X020925Y017755D01*
X020925Y017755D01*
X020925Y017755D01*
X020925Y018460D01*
X020879Y018460D01*
X020787Y018448D01*
X020698Y018424D01*
X020613Y018389D01*
X020532Y018342D01*
X020459Y018286D01*
X020394Y018221D01*
X020338Y018148D01*
X020291Y018067D01*
X020256Y017982D01*
X020220Y017755D02*
X020220Y017709D01*
X020232Y017617D01*
X020256Y017528D01*
X020291Y017443D01*
X020220Y017755D02*
X020925Y017755D01*
X021630Y017755D01*
X021630Y017709D01*
X021618Y017617D01*
X021594Y017528D01*
X021559Y017443D01*
X021586Y018002D02*
X025078Y018002D01*
X025134Y016885D02*
X021650Y016885D01*
X021640Y016327D02*
X025053Y016327D01*
X025085Y015768D02*
X012800Y015768D01*
X014225Y016366D02*
X014332Y016108D01*
X014528Y015912D01*
X014786Y015805D01*
X015064Y015805D01*
X015322Y015912D01*
X015518Y016108D01*
X015625Y016366D01*
X015625Y016644D01*
X015518Y016902D01*
X015322Y017098D01*
X015064Y017205D01*
X014786Y017205D01*
X014528Y017098D01*
X014332Y016902D01*
X014225Y016644D01*
X014225Y016366D01*
X014241Y016327D02*
X009810Y016327D01*
X009713Y016885D02*
X014325Y016885D01*
X015525Y016885D02*
X017325Y016885D01*
X017332Y016902D02*
X017225Y016644D01*
X017225Y016366D01*
X017332Y016108D01*
X017528Y015912D01*
X017786Y015805D01*
X018064Y015805D01*
X018322Y015912D01*
X018425Y016015D01*
X018528Y015912D01*
X018786Y015805D01*
X019064Y015805D01*
X019322Y015912D01*
X019518Y016108D01*
X019625Y016366D01*
X019625Y016644D01*
X019518Y016902D01*
X019322Y017098D01*
X019064Y017205D01*
X018786Y017205D01*
X018528Y017098D01*
X018425Y016995D01*
X018322Y017098D01*
X018064Y017205D01*
X017786Y017205D01*
X017528Y017098D01*
X017332Y016902D01*
X017241Y016327D02*
X015609Y016327D01*
X013206Y014093D02*
X011228Y014093D01*
X011430Y013534D02*
X013261Y013534D01*
X014310Y012976D02*
X011260Y012976D01*
X011260Y012417D02*
X014256Y012417D01*
X015594Y012417D02*
X017256Y012417D01*
X017310Y012976D02*
X015540Y012976D01*
X014225Y010742D02*
X010445Y010742D01*
X010445Y010183D02*
X013244Y010183D01*
X013224Y009625D02*
X010445Y009625D01*
X010445Y009066D02*
X014225Y009066D01*
X010479Y011300D02*
X010445Y011300D01*
X007911Y006832D02*
X007706Y006832D01*
X007616Y006274D02*
X007897Y006274D01*
X008287Y005715D02*
X007227Y005715D01*
X007849Y001806D02*
X003313Y001806D01*
X003380Y001247D02*
X007730Y001247D01*
X009270Y001247D02*
X010105Y001247D01*
X010147Y001806D02*
X009351Y001806D01*
X012513Y001806D02*
X013147Y001806D01*
X013105Y001247D02*
X012745Y001247D01*
X014975Y001806D02*
X014975Y001806D01*
X015485Y001806D02*
X016647Y001806D01*
X016605Y001247D02*
X015725Y001247D01*
X024457Y004040D02*
X027615Y004040D01*
X027615Y004598D02*
X025579Y004598D01*
X025574Y005157D02*
X027615Y005157D01*
X027615Y005715D02*
X025590Y005715D01*
X025563Y006274D02*
X027615Y006274D01*
X027615Y006832D02*
X025603Y006832D01*
X025551Y007391D02*
X027615Y007391D01*
X027615Y007949D02*
X025614Y007949D01*
X025540Y008508D02*
X027615Y008508D01*
X027615Y009066D02*
X024511Y009066D01*
X020210Y016327D02*
X019609Y016327D01*
X019525Y016885D02*
X020200Y016885D01*
X020925Y018002D02*
X020925Y018002D01*
X023180Y020474D02*
X023440Y020213D01*
X023760Y020029D01*
X024116Y019934D01*
X024484Y019934D01*
X024840Y020029D01*
X025160Y020213D01*
X025420Y020474D01*
X025605Y020793D01*
X025700Y021149D01*
X025700Y021518D01*
X025605Y021874D01*
X025420Y022193D01*
X025160Y022454D01*
X024840Y022638D01*
X024484Y022734D01*
X024116Y022734D01*
X023760Y022638D01*
X023440Y022454D01*
X023180Y022193D01*
X022995Y021874D01*
X022900Y021518D01*
X022900Y021149D01*
X022995Y020793D01*
X023180Y020474D01*
X023418Y020236D02*
X009695Y020236D01*
X009810Y019678D02*
X027615Y019678D01*
X027615Y020236D02*
X025182Y020236D01*
X025605Y020795D02*
X027615Y020795D01*
X027615Y021353D02*
X025700Y021353D01*
X025583Y021912D02*
X027615Y021912D01*
X027615Y022470D02*
X025132Y022470D01*
X024177Y023421D02*
X024394Y023638D01*
X024511Y023921D01*
X024511Y023932D01*
X024706Y023851D01*
X025012Y023851D01*
X025295Y023968D01*
X025512Y024185D01*
X025629Y024468D01*
X025629Y024774D01*
X025512Y025057D01*
X025403Y025166D01*
X025512Y025276D01*
X025629Y025559D01*
X025629Y025865D01*
X025512Y026148D01*
X025405Y026255D01*
X025512Y026362D01*
X025629Y026645D01*
X025629Y026951D01*
X025512Y027234D01*
X025403Y027344D01*
X025512Y027453D01*
X025629Y027736D01*
X025629Y028042D01*
X025512Y028325D01*
X025295Y028542D01*
X025012Y028659D01*
X024706Y028659D01*
X024511Y028578D01*
X024511Y028886D01*
X024450Y029033D01*
X024338Y029145D01*
X024191Y029206D01*
X023291Y029206D01*
X023144Y029145D01*
X023032Y029033D01*
X022971Y028886D01*
X022971Y027987D01*
X023032Y027840D01*
X023089Y027782D01*
X023088Y027782D01*
X022971Y027499D01*
X022971Y027192D01*
X023088Y026909D01*
X023197Y026800D01*
X023088Y026691D01*
X022971Y026408D01*
X022971Y026102D01*
X023088Y025819D01*
X023197Y025710D01*
X023088Y025601D01*
X022971Y025318D01*
X022971Y025011D01*
X023088Y024728D01*
X023197Y024619D01*
X023088Y024510D01*
X022971Y024227D01*
X022971Y023921D01*
X023088Y023638D01*
X023305Y023421D01*
X023588Y023304D01*
X023894Y023304D01*
X024177Y023421D01*
X024343Y023587D02*
X027615Y023587D01*
X027615Y023029D02*
X009810Y023029D01*
X009676Y023587D02*
X023139Y023587D01*
X022971Y024146D02*
X009633Y024146D01*
X009810Y024704D02*
X017118Y024704D01*
X017141Y024648D02*
X017318Y024471D01*
X017550Y024375D01*
X017800Y024375D01*
X018032Y024471D01*
X018106Y024545D01*
X021257Y024545D01*
X021266Y024523D01*
X021443Y024346D01*
X021675Y024250D01*
X021925Y024250D01*
X022157Y024346D01*
X022334Y024523D01*
X022430Y024755D01*
X022430Y025005D01*
X022352Y025193D01*
X022430Y025380D01*
X022430Y025630D01*
X022334Y025862D01*
X022157Y026039D01*
X021925Y026135D01*
X021675Y026135D01*
X021443Y026039D01*
X021369Y025965D01*
X017606Y025965D01*
X017532Y026039D01*
X017300Y026135D01*
X017050Y026135D01*
X016818Y026039D01*
X016641Y025862D01*
X016545Y025630D01*
X016545Y025380D01*
X016641Y025148D01*
X016818Y024971D01*
X017046Y024876D01*
X017141Y024648D01*
X016594Y025263D02*
X009667Y025263D01*
X008011Y025263D02*
X007459Y025263D01*
X007451Y025276D02*
X007384Y025359D01*
X007309Y025435D01*
X007225Y025501D01*
X007135Y025558D01*
X007038Y025604D01*
X006938Y025640D01*
X006834Y025663D01*
X006727Y025675D01*
X006674Y025675D01*
X006621Y025675D01*
X006514Y025663D01*
X006410Y025640D01*
X006310Y025604D01*
X006213Y025558D01*
X006123Y025501D01*
X006039Y025435D01*
X005964Y025359D01*
X005897Y025276D01*
X005840Y025185D01*
X005794Y025089D01*
X005759Y024988D01*
X005735Y024884D01*
X005723Y024778D01*
X005723Y024724D01*
X006674Y024724D01*
X006674Y024724D01*
X006674Y024724D01*
X007625Y024724D01*
X007625Y024778D01*
X007613Y024884D01*
X007589Y024988D01*
X007554Y025089D01*
X007508Y025185D01*
X007451Y025276D01*
X007625Y024704D02*
X007869Y024704D01*
X008045Y024146D02*
X007428Y024146D01*
X007473Y023587D02*
X008002Y023587D01*
X007869Y023029D02*
X007625Y023029D01*
X007411Y022470D02*
X008067Y022470D01*
X007993Y021912D02*
X007520Y021912D01*
X007645Y021353D02*
X007869Y021353D01*
X008089Y020795D02*
X007424Y020795D01*
X007529Y020236D02*
X007984Y020236D01*
X007869Y019678D02*
X007645Y019678D01*
X007402Y019119D02*
X008111Y019119D01*
X007975Y018561D02*
X007538Y018561D01*
X007645Y018002D02*
X007869Y018002D01*
X008133Y017444D02*
X007380Y017444D01*
X007547Y016885D02*
X007966Y016885D01*
X007869Y016327D02*
X007645Y016327D01*
X005946Y019119D02*
X001760Y019119D01*
X001760Y019678D02*
X005703Y019678D01*
X005819Y020236D02*
X001760Y020236D01*
X001760Y020795D02*
X005924Y020795D01*
X005703Y021353D02*
X001760Y021353D01*
X001760Y021912D02*
X005828Y021912D01*
X005937Y022470D02*
X001760Y022470D01*
X001760Y023029D02*
X005723Y023029D01*
X005875Y023587D02*
X004371Y023587D01*
X004290Y023541D02*
X004580Y023708D01*
X004817Y023944D01*
X004984Y024234D01*
X005071Y024557D01*
X005071Y024892D01*
X004984Y025215D01*
X004817Y025505D01*
X004580Y025741D01*
X004290Y025908D01*
X003967Y025995D01*
X003633Y025995D01*
X003310Y025908D01*
X003020Y025741D01*
X002783Y025505D01*
X002616Y025215D01*
X002529Y024892D01*
X002529Y024557D01*
X002616Y024234D01*
X002783Y023944D01*
X003020Y023708D01*
X003310Y023541D01*
X003633Y023454D01*
X003967Y023454D01*
X004290Y023541D01*
X004933Y024146D02*
X005920Y024146D01*
X005723Y024704D02*
X005071Y024704D01*
X004956Y025263D02*
X005889Y025263D01*
X006674Y025263D02*
X006674Y025263D01*
X006674Y025675D02*
X006674Y024725D01*
X006674Y024725D01*
X006674Y025675D01*
X006674Y024704D02*
X006674Y024704D01*
X006674Y024146D02*
X006674Y024146D01*
X006674Y023587D02*
X006674Y023587D01*
X004442Y025821D02*
X016624Y025821D01*
X019877Y029172D02*
X002848Y029172D01*
X003195Y029731D02*
X019530Y029731D01*
X019561Y029617D02*
X019736Y029313D01*
X019983Y029066D01*
X020287Y028891D01*
X020625Y028800D01*
X020975Y028800D01*
X021313Y028891D01*
X021617Y029066D01*
X021864Y029313D01*
X022039Y029617D01*
X022130Y029955D01*
X022130Y030305D01*
X022039Y030643D01*
X021864Y030947D01*
X021617Y031194D01*
X021313Y031369D01*
X020975Y031460D01*
X020625Y031460D01*
X020287Y031369D01*
X019983Y031194D01*
X019736Y030947D01*
X019561Y030643D01*
X019470Y030305D01*
X019470Y029955D01*
X019561Y029617D01*
X019470Y030289D02*
X003255Y030289D01*
X003046Y030848D02*
X004385Y030848D01*
X004280Y031406D02*
X002302Y031406D01*
X001548Y031406D02*
X001480Y031406D01*
X001760Y027497D02*
X022971Y027497D01*
X023076Y026938D02*
X001760Y026938D01*
X001760Y026380D02*
X022971Y026380D01*
X023087Y025821D02*
X022351Y025821D01*
X022381Y025263D02*
X022971Y025263D01*
X023112Y024704D02*
X022409Y024704D01*
X023468Y022470D02*
X009611Y022470D01*
X009686Y021912D02*
X023017Y021912D01*
X022900Y021353D02*
X009810Y021353D01*
X009589Y020795D02*
X022995Y020795D01*
X025472Y024146D02*
X027615Y024146D01*
X027615Y024704D02*
X025629Y024704D01*
X025499Y025263D02*
X027615Y025263D01*
X027615Y025821D02*
X025629Y025821D01*
X025519Y026380D02*
X027615Y026380D01*
X027615Y026938D02*
X025629Y026938D01*
X025530Y027497D02*
X027615Y027497D01*
X027615Y028055D02*
X025624Y028055D01*
X025122Y028614D02*
X027615Y028614D01*
X027615Y029172D02*
X024273Y029172D01*
X024511Y028614D02*
X024596Y028614D01*
X023209Y029172D02*
X021723Y029172D01*
X022070Y029731D02*
X027615Y029731D01*
X027615Y030289D02*
X025393Y030289D01*
X025661Y030848D02*
X027615Y030848D01*
X027615Y031406D02*
X025688Y031406D01*
X023207Y030289D02*
X022130Y030289D01*
X021921Y030848D02*
X022939Y030848D01*
X022912Y031406D02*
X021177Y031406D01*
X020423Y031406D02*
X006820Y031406D01*
X006715Y030848D02*
X019679Y030848D01*
X022971Y028614D02*
X006764Y028614D01*
X006727Y028055D02*
X022971Y028055D01*
X006050Y028055D02*
X006050Y028055D01*
X006050Y028614D02*
X006050Y028614D01*
X003158Y025821D02*
X001760Y025821D01*
X001760Y025263D02*
X002644Y025263D01*
X002529Y024704D02*
X001760Y024704D01*
X001760Y024146D02*
X002667Y024146D01*
X003229Y023587D02*
X001760Y023587D01*
D24*
X018925Y014505D02*
X021925Y014505D01*
X023175Y013255D01*
X024300Y013255D01*
M02*
