%
M48
M72
T01C0.0276
T02C0.0300
T03C0.0320
T04C0.0400
T05C0.0472
T06C0.0709
T07C0.1181
T08C0.1300
%
T01
X20925Y16755
X20925Y17755
T02
X24300Y13255
X18800Y11380
X18175Y11755
X13800Y9880
X13800Y6255
X17425Y5505
X18300Y5255
X10800Y13630
X10425Y14255
X12175Y15630
X13800Y13880
X21800Y24880
X21800Y25505
X17675Y25005
X17175Y25505
X2300Y11880
X1800Y12255
X2050Y10880
X2050Y10255
X1800Y13755
X1800Y18130
T03
X5050Y28380
X6050Y28380
X6050Y31255
X5050Y31255
T04
X14925Y16505
X14925Y14505
X14925Y12630
X14925Y10630
X14925Y9005
X14925Y7005
X17925Y7005
X18925Y7005
X18925Y9005
X17925Y9005
X17925Y10630
X18925Y10630
X18925Y12630
X17925Y12630
X17925Y14505
X18925Y14505
X18925Y16505
X17925Y16505
X23741Y24074
X23741Y25164
X23741Y26255
X23741Y27346
X23741Y28436
X24859Y27889
X24859Y26798
X24859Y25712
X24859Y24621
X23741Y8686
X23741Y7596
X23741Y6505
X23741Y5414
X23741Y4324
X24859Y4871
X24859Y5962
X24859Y7048
X24859Y8139
X18475Y1255
X17375Y1255
X14975Y1255
X13875Y1255
X11975Y1255
X10875Y1255
X8600Y2005
X8500Y1005
X8500Y3005
X8600Y4005
T05
X25925Y15130
X25925Y16508
X25925Y17886
T06
X8839Y18110
X8839Y16457
X8839Y14803
X8839Y13150
X8839Y11496
X8839Y9843
X8839Y8189
X8839Y6536
X6674Y6536
X6674Y8189
X6674Y9843
X6674Y11496
X6674Y13150
X6674Y14803
X6674Y16457
X6674Y18110
X6674Y19764
X6674Y21417
X6674Y23071
X6674Y24724
X8839Y24724
X8839Y23071
X8839Y21417
X8839Y19764
T07
X3800Y24724
X3800Y6536
T08
X2050Y1380
X20800Y1380
X24300Y1584
X24300Y11426
X24300Y21334
X20800Y30130
X24300Y31176
X1925Y30130
M30
