G75*
%MOIN*%
%OFA0B0*%
%FSLAX24Y24*%
%IPPOS*%
%LPD*%
%AMOC8*
5,1,8,0,0,1.08239X$1,22.5*
%
%ADD10C,0.0000*%
%ADD11R,0.0740X0.0740*%
%ADD12C,0.0740*%
%ADD13C,0.2000*%
%ADD14R,0.0394X0.0433*%
%ADD15C,0.0600*%
%ADD16R,0.0579X0.0500*%
%ADD17R,0.0950X0.0950*%
%ADD18C,0.0950*%
%ADD19C,0.1142*%
%ADD20R,0.0472X0.0315*%
%ADD21C,0.0650*%
%ADD22R,0.0650X0.0650*%
%ADD23C,0.0120*%
%ADD24C,0.0460*%
%ADD25C,0.0160*%
%ADD26C,0.0560*%
%ADD27C,0.0500*%
D10*
X000800Y000130D02*
X000800Y032626D01*
X028295Y032626D01*
X028295Y000130D01*
X000800Y000130D01*
X001400Y001380D02*
X001402Y001430D01*
X001408Y001480D01*
X001418Y001530D01*
X001431Y001578D01*
X001448Y001626D01*
X001469Y001672D01*
X001493Y001716D01*
X001521Y001758D01*
X001552Y001798D01*
X001586Y001835D01*
X001623Y001870D01*
X001662Y001901D01*
X001703Y001930D01*
X001747Y001955D01*
X001793Y001977D01*
X001840Y001995D01*
X001888Y002009D01*
X001937Y002020D01*
X001987Y002027D01*
X002037Y002030D01*
X002088Y002029D01*
X002138Y002024D01*
X002188Y002015D01*
X002236Y002003D01*
X002284Y001986D01*
X002330Y001966D01*
X002375Y001943D01*
X002418Y001916D01*
X002458Y001886D01*
X002496Y001853D01*
X002531Y001817D01*
X002564Y001778D01*
X002593Y001737D01*
X002619Y001694D01*
X002642Y001649D01*
X002661Y001602D01*
X002676Y001554D01*
X002688Y001505D01*
X002696Y001455D01*
X002700Y001405D01*
X002700Y001355D01*
X002696Y001305D01*
X002688Y001255D01*
X002676Y001206D01*
X002661Y001158D01*
X002642Y001111D01*
X002619Y001066D01*
X002593Y001023D01*
X002564Y000982D01*
X002531Y000943D01*
X002496Y000907D01*
X002458Y000874D01*
X002418Y000844D01*
X002375Y000817D01*
X002330Y000794D01*
X002284Y000774D01*
X002236Y000757D01*
X002188Y000745D01*
X002138Y000736D01*
X002088Y000731D01*
X002037Y000730D01*
X001987Y000733D01*
X001937Y000740D01*
X001888Y000751D01*
X001840Y000765D01*
X001793Y000783D01*
X001747Y000805D01*
X001703Y000830D01*
X001662Y000859D01*
X001623Y000890D01*
X001586Y000925D01*
X001552Y000962D01*
X001521Y001002D01*
X001493Y001044D01*
X001469Y001088D01*
X001448Y001134D01*
X001431Y001182D01*
X001418Y001230D01*
X001408Y001280D01*
X001402Y001330D01*
X001400Y001380D01*
X003209Y006536D02*
X003211Y006584D01*
X003217Y006632D01*
X003227Y006679D01*
X003240Y006725D01*
X003258Y006770D01*
X003278Y006814D01*
X003303Y006856D01*
X003331Y006895D01*
X003361Y006932D01*
X003395Y006966D01*
X003432Y006998D01*
X003470Y007027D01*
X003511Y007052D01*
X003554Y007074D01*
X003599Y007092D01*
X003645Y007106D01*
X003692Y007117D01*
X003740Y007124D01*
X003788Y007127D01*
X003836Y007126D01*
X003884Y007121D01*
X003932Y007112D01*
X003978Y007100D01*
X004023Y007083D01*
X004067Y007063D01*
X004109Y007040D01*
X004149Y007013D01*
X004187Y006983D01*
X004222Y006950D01*
X004254Y006914D01*
X004284Y006876D01*
X004310Y006835D01*
X004332Y006792D01*
X004352Y006748D01*
X004367Y006703D01*
X004379Y006656D01*
X004387Y006608D01*
X004391Y006560D01*
X004391Y006512D01*
X004387Y006464D01*
X004379Y006416D01*
X004367Y006369D01*
X004352Y006324D01*
X004332Y006280D01*
X004310Y006237D01*
X004284Y006196D01*
X004254Y006158D01*
X004222Y006122D01*
X004187Y006089D01*
X004149Y006059D01*
X004109Y006032D01*
X004067Y006009D01*
X004023Y005989D01*
X003978Y005972D01*
X003932Y005960D01*
X003884Y005951D01*
X003836Y005946D01*
X003788Y005945D01*
X003740Y005948D01*
X003692Y005955D01*
X003645Y005966D01*
X003599Y005980D01*
X003554Y005998D01*
X003511Y006020D01*
X003470Y006045D01*
X003432Y006074D01*
X003395Y006106D01*
X003361Y006140D01*
X003331Y006177D01*
X003303Y006216D01*
X003278Y006258D01*
X003258Y006302D01*
X003240Y006347D01*
X003227Y006393D01*
X003217Y006440D01*
X003211Y006488D01*
X003209Y006536D01*
X003209Y024724D02*
X003211Y024772D01*
X003217Y024820D01*
X003227Y024867D01*
X003240Y024913D01*
X003258Y024958D01*
X003278Y025002D01*
X003303Y025044D01*
X003331Y025083D01*
X003361Y025120D01*
X003395Y025154D01*
X003432Y025186D01*
X003470Y025215D01*
X003511Y025240D01*
X003554Y025262D01*
X003599Y025280D01*
X003645Y025294D01*
X003692Y025305D01*
X003740Y025312D01*
X003788Y025315D01*
X003836Y025314D01*
X003884Y025309D01*
X003932Y025300D01*
X003978Y025288D01*
X004023Y025271D01*
X004067Y025251D01*
X004109Y025228D01*
X004149Y025201D01*
X004187Y025171D01*
X004222Y025138D01*
X004254Y025102D01*
X004284Y025064D01*
X004310Y025023D01*
X004332Y024980D01*
X004352Y024936D01*
X004367Y024891D01*
X004379Y024844D01*
X004387Y024796D01*
X004391Y024748D01*
X004391Y024700D01*
X004387Y024652D01*
X004379Y024604D01*
X004367Y024557D01*
X004352Y024512D01*
X004332Y024468D01*
X004310Y024425D01*
X004284Y024384D01*
X004254Y024346D01*
X004222Y024310D01*
X004187Y024277D01*
X004149Y024247D01*
X004109Y024220D01*
X004067Y024197D01*
X004023Y024177D01*
X003978Y024160D01*
X003932Y024148D01*
X003884Y024139D01*
X003836Y024134D01*
X003788Y024133D01*
X003740Y024136D01*
X003692Y024143D01*
X003645Y024154D01*
X003599Y024168D01*
X003554Y024186D01*
X003511Y024208D01*
X003470Y024233D01*
X003432Y024262D01*
X003395Y024294D01*
X003361Y024328D01*
X003331Y024365D01*
X003303Y024404D01*
X003278Y024446D01*
X003258Y024490D01*
X003240Y024535D01*
X003227Y024581D01*
X003217Y024628D01*
X003211Y024676D01*
X003209Y024724D01*
X001275Y030130D02*
X001277Y030180D01*
X001283Y030230D01*
X001293Y030280D01*
X001306Y030328D01*
X001323Y030376D01*
X001344Y030422D01*
X001368Y030466D01*
X001396Y030508D01*
X001427Y030548D01*
X001461Y030585D01*
X001498Y030620D01*
X001537Y030651D01*
X001578Y030680D01*
X001622Y030705D01*
X001668Y030727D01*
X001715Y030745D01*
X001763Y030759D01*
X001812Y030770D01*
X001862Y030777D01*
X001912Y030780D01*
X001963Y030779D01*
X002013Y030774D01*
X002063Y030765D01*
X002111Y030753D01*
X002159Y030736D01*
X002205Y030716D01*
X002250Y030693D01*
X002293Y030666D01*
X002333Y030636D01*
X002371Y030603D01*
X002406Y030567D01*
X002439Y030528D01*
X002468Y030487D01*
X002494Y030444D01*
X002517Y030399D01*
X002536Y030352D01*
X002551Y030304D01*
X002563Y030255D01*
X002571Y030205D01*
X002575Y030155D01*
X002575Y030105D01*
X002571Y030055D01*
X002563Y030005D01*
X002551Y029956D01*
X002536Y029908D01*
X002517Y029861D01*
X002494Y029816D01*
X002468Y029773D01*
X002439Y029732D01*
X002406Y029693D01*
X002371Y029657D01*
X002333Y029624D01*
X002293Y029594D01*
X002250Y029567D01*
X002205Y029544D01*
X002159Y029524D01*
X002111Y029507D01*
X002063Y029495D01*
X002013Y029486D01*
X001963Y029481D01*
X001912Y029480D01*
X001862Y029483D01*
X001812Y029490D01*
X001763Y029501D01*
X001715Y029515D01*
X001668Y029533D01*
X001622Y029555D01*
X001578Y029580D01*
X001537Y029609D01*
X001498Y029640D01*
X001461Y029675D01*
X001427Y029712D01*
X001396Y029752D01*
X001368Y029794D01*
X001344Y029838D01*
X001323Y029884D01*
X001306Y029932D01*
X001293Y029980D01*
X001283Y030030D01*
X001277Y030080D01*
X001275Y030130D01*
X020150Y030130D02*
X020152Y030180D01*
X020158Y030230D01*
X020168Y030280D01*
X020181Y030328D01*
X020198Y030376D01*
X020219Y030422D01*
X020243Y030466D01*
X020271Y030508D01*
X020302Y030548D01*
X020336Y030585D01*
X020373Y030620D01*
X020412Y030651D01*
X020453Y030680D01*
X020497Y030705D01*
X020543Y030727D01*
X020590Y030745D01*
X020638Y030759D01*
X020687Y030770D01*
X020737Y030777D01*
X020787Y030780D01*
X020838Y030779D01*
X020888Y030774D01*
X020938Y030765D01*
X020986Y030753D01*
X021034Y030736D01*
X021080Y030716D01*
X021125Y030693D01*
X021168Y030666D01*
X021208Y030636D01*
X021246Y030603D01*
X021281Y030567D01*
X021314Y030528D01*
X021343Y030487D01*
X021369Y030444D01*
X021392Y030399D01*
X021411Y030352D01*
X021426Y030304D01*
X021438Y030255D01*
X021446Y030205D01*
X021450Y030155D01*
X021450Y030105D01*
X021446Y030055D01*
X021438Y030005D01*
X021426Y029956D01*
X021411Y029908D01*
X021392Y029861D01*
X021369Y029816D01*
X021343Y029773D01*
X021314Y029732D01*
X021281Y029693D01*
X021246Y029657D01*
X021208Y029624D01*
X021168Y029594D01*
X021125Y029567D01*
X021080Y029544D01*
X021034Y029524D01*
X020986Y029507D01*
X020938Y029495D01*
X020888Y029486D01*
X020838Y029481D01*
X020787Y029480D01*
X020737Y029483D01*
X020687Y029490D01*
X020638Y029501D01*
X020590Y029515D01*
X020543Y029533D01*
X020497Y029555D01*
X020453Y029580D01*
X020412Y029609D01*
X020373Y029640D01*
X020336Y029675D01*
X020302Y029712D01*
X020271Y029752D01*
X020243Y029794D01*
X020219Y029838D01*
X020198Y029884D01*
X020181Y029932D01*
X020168Y029980D01*
X020158Y030030D01*
X020152Y030080D01*
X020150Y030130D01*
X020150Y001380D02*
X020152Y001430D01*
X020158Y001480D01*
X020168Y001530D01*
X020181Y001578D01*
X020198Y001626D01*
X020219Y001672D01*
X020243Y001716D01*
X020271Y001758D01*
X020302Y001798D01*
X020336Y001835D01*
X020373Y001870D01*
X020412Y001901D01*
X020453Y001930D01*
X020497Y001955D01*
X020543Y001977D01*
X020590Y001995D01*
X020638Y002009D01*
X020687Y002020D01*
X020737Y002027D01*
X020787Y002030D01*
X020838Y002029D01*
X020888Y002024D01*
X020938Y002015D01*
X020986Y002003D01*
X021034Y001986D01*
X021080Y001966D01*
X021125Y001943D01*
X021168Y001916D01*
X021208Y001886D01*
X021246Y001853D01*
X021281Y001817D01*
X021314Y001778D01*
X021343Y001737D01*
X021369Y001694D01*
X021392Y001649D01*
X021411Y001602D01*
X021426Y001554D01*
X021438Y001505D01*
X021446Y001455D01*
X021450Y001405D01*
X021450Y001355D01*
X021446Y001305D01*
X021438Y001255D01*
X021426Y001206D01*
X021411Y001158D01*
X021392Y001111D01*
X021369Y001066D01*
X021343Y001023D01*
X021314Y000982D01*
X021281Y000943D01*
X021246Y000907D01*
X021208Y000874D01*
X021168Y000844D01*
X021125Y000817D01*
X021080Y000794D01*
X021034Y000774D01*
X020986Y000757D01*
X020938Y000745D01*
X020888Y000736D01*
X020838Y000731D01*
X020787Y000730D01*
X020737Y000733D01*
X020687Y000740D01*
X020638Y000751D01*
X020590Y000765D01*
X020543Y000783D01*
X020497Y000805D01*
X020453Y000830D01*
X020412Y000859D01*
X020373Y000890D01*
X020336Y000925D01*
X020302Y000962D01*
X020271Y001002D01*
X020243Y001044D01*
X020219Y001088D01*
X020198Y001134D01*
X020181Y001182D01*
X020168Y001230D01*
X020158Y001280D01*
X020152Y001330D01*
X020150Y001380D01*
D11*
X017375Y001255D03*
X013875Y001255D03*
X010875Y001255D03*
X008500Y001005D03*
X023741Y008686D03*
X023741Y028436D03*
D12*
X023741Y027346D03*
X023741Y026255D03*
X023741Y025164D03*
X023741Y024074D03*
X024859Y024621D03*
X024859Y025712D03*
X024859Y026798D03*
X024859Y027889D03*
X024859Y008139D03*
X024859Y007048D03*
X024859Y005962D03*
X024859Y004871D03*
X023741Y005414D03*
X023741Y004324D03*
X023741Y006505D03*
X023741Y007596D03*
X018475Y001255D03*
X014975Y001255D03*
X011975Y001255D03*
X008600Y002005D03*
X008500Y003005D03*
X008600Y004005D03*
X006050Y028380D03*
X005050Y028380D03*
X005050Y031255D03*
X006050Y031255D03*
D13*
X024300Y031176D03*
X024300Y021334D03*
X024300Y011426D03*
X024300Y001584D03*
D14*
X022675Y005170D03*
X022675Y005840D03*
X022550Y024920D03*
X022550Y025590D03*
D15*
X018925Y016505D03*
X017925Y016505D03*
X017925Y014505D03*
X018925Y014505D03*
X018925Y012630D03*
X017925Y012630D03*
X017925Y010630D03*
X018925Y010630D03*
X018925Y009005D03*
X017925Y009005D03*
X017925Y007005D03*
X018925Y007005D03*
X014925Y007005D03*
X014925Y009005D03*
X014925Y010630D03*
X014925Y012630D03*
X014925Y014505D03*
X014925Y016505D03*
D16*
X013550Y016351D03*
X013550Y014659D03*
X013550Y012351D03*
X013550Y010659D03*
X013550Y008851D03*
X013550Y007159D03*
D17*
X025925Y015130D03*
D18*
X025925Y016508D03*
X025925Y017886D03*
D19*
X008839Y018110D03*
X008839Y016457D03*
X008839Y014803D03*
X008839Y013150D03*
X008839Y011496D03*
X008839Y009843D03*
X008839Y008189D03*
X008839Y006536D03*
X006674Y006536D03*
X006674Y008189D03*
X006674Y009843D03*
X006674Y011496D03*
X006674Y013150D03*
X006674Y014803D03*
X006674Y016457D03*
X006674Y018110D03*
X006674Y019764D03*
X006674Y021417D03*
X006674Y023071D03*
X006674Y024724D03*
X008839Y024724D03*
X008839Y023071D03*
X008839Y021417D03*
X008839Y019764D03*
D20*
X003425Y030776D03*
X003425Y031484D03*
D21*
X020925Y017755D03*
D22*
X020925Y016755D03*
D23*
X019425Y011755D02*
X018175Y011755D01*
X018800Y011380D02*
X019425Y011380D01*
X019550Y011255D01*
X019550Y005255D01*
X019635Y005170D01*
X022675Y005170D01*
X022675Y004505D01*
X022800Y004380D01*
X023685Y004380D01*
X023741Y004324D01*
X022675Y005840D02*
X022675Y006380D01*
X020050Y006380D01*
X019800Y006630D01*
X019800Y011380D01*
X019425Y011755D01*
X014925Y012630D02*
X014925Y010630D01*
X013550Y010130D02*
X012800Y009380D01*
X012800Y006380D01*
X013300Y005880D01*
X013300Y005005D01*
X013175Y004880D01*
X008050Y004880D01*
X007800Y004630D01*
X007800Y004005D01*
X007550Y003755D01*
X002675Y003755D01*
X002550Y003880D01*
X002550Y009005D01*
X003300Y009755D01*
X003300Y011880D01*
X002175Y013005D01*
X002175Y014130D01*
X002050Y014255D01*
X001425Y014255D01*
X001300Y014380D01*
X001300Y017630D01*
X001800Y018130D01*
X001800Y013755D02*
X001800Y013005D01*
X003050Y011755D01*
X003050Y009880D01*
X002300Y009130D01*
X002300Y003630D01*
X002425Y003505D01*
X007675Y003505D01*
X008050Y003880D01*
X008050Y004505D01*
X008175Y004630D01*
X013550Y004630D01*
X013800Y004880D01*
X013800Y006255D01*
X014175Y004005D02*
X012800Y002630D01*
X012800Y002130D01*
X012675Y002005D01*
X011175Y002005D01*
X010925Y001755D01*
X010925Y001305D01*
X010875Y001255D01*
X011975Y001255D02*
X012925Y001255D01*
X013175Y001505D01*
X013175Y002630D01*
X014300Y003755D01*
X016675Y003755D01*
X017675Y004755D01*
X018175Y004755D01*
X018300Y004880D01*
X018300Y005255D01*
X017425Y005505D02*
X017425Y004880D01*
X016550Y004005D01*
X014175Y004005D01*
X008600Y004005D02*
X008550Y004005D01*
X007800Y003255D01*
X002175Y003255D01*
X002050Y003380D01*
X002050Y009255D01*
X002800Y010005D01*
X002800Y011380D01*
X002300Y011880D01*
X002300Y011380D02*
X001925Y011380D01*
X001675Y011630D01*
X001675Y012130D01*
X001800Y012255D01*
X002300Y011380D02*
X002550Y011130D01*
X002550Y010130D01*
X001800Y009380D01*
X001800Y003130D01*
X001925Y003005D01*
X008500Y003005D01*
X007800Y002755D02*
X003175Y002755D01*
X003050Y002755D01*
X001800Y002755D01*
X001550Y003005D01*
X001550Y009755D01*
X002050Y010255D01*
X002050Y010880D02*
X001675Y010880D01*
X001300Y010505D01*
X001300Y002880D01*
X001675Y002505D01*
X007675Y002505D01*
X007925Y002255D01*
X007925Y001255D01*
X008175Y001005D01*
X008500Y001005D01*
X008550Y002005D02*
X007800Y002755D01*
X008550Y002005D02*
X008600Y002005D01*
X010300Y013630D02*
X009050Y014755D01*
X008888Y014755D01*
X008839Y014803D01*
X008916Y016380D02*
X008839Y016457D01*
X008916Y016380D02*
X010050Y016380D01*
X010425Y016005D01*
X010425Y014255D01*
X010300Y013630D02*
X010800Y013630D01*
X012175Y015630D02*
X013300Y015630D01*
X013550Y015380D01*
X013550Y014659D01*
X011550Y019505D02*
X010175Y019505D01*
X008839Y018169D01*
X008839Y018110D01*
X008839Y019764D02*
X011434Y019764D01*
X017175Y025505D01*
X017050Y025005D02*
X017675Y025005D01*
X017050Y025005D02*
X011550Y019505D01*
X008839Y023071D02*
X008780Y023130D01*
X008050Y023130D01*
X007800Y023380D01*
X007800Y031130D01*
X007675Y031255D01*
X006050Y031255D01*
X005050Y031255D02*
X004840Y031465D01*
X021800Y025505D02*
X022465Y025505D01*
X022550Y025590D01*
X022550Y026005D01*
X022800Y026255D01*
X023741Y026255D01*
X022550Y024920D02*
X022510Y024880D01*
X021800Y024880D01*
X022550Y024920D02*
X022550Y024255D01*
X022675Y024130D01*
X023685Y024130D01*
X023741Y024074D01*
X023741Y006505D02*
X022800Y006505D01*
X022675Y006380D01*
D24*
X018300Y005255D03*
X017425Y005505D03*
X013800Y006255D03*
X013800Y009880D03*
X010800Y013630D03*
X010425Y014255D03*
X012175Y015630D03*
X013800Y013880D03*
X018175Y011755D03*
X018800Y011380D03*
X024300Y013255D03*
X021800Y024880D03*
X021800Y025505D03*
X017675Y025005D03*
X017175Y025505D03*
X002300Y011880D03*
X001800Y012255D03*
X002050Y010880D03*
X002050Y010255D03*
X001800Y013755D03*
X001800Y018130D03*
D25*
X013550Y014659D02*
X013550Y014005D01*
X013675Y013880D01*
X013800Y013880D01*
X013550Y010659D02*
X013550Y010130D01*
X013800Y009880D01*
X013550Y007159D02*
X013550Y006505D01*
X013800Y006255D01*
X005050Y031255D02*
X004821Y031484D01*
X003425Y031484D01*
D26*
X004035Y031004D02*
X004320Y031004D01*
X004397Y030819D01*
X004614Y030602D01*
X004897Y030485D01*
X005203Y030485D01*
X005486Y030602D01*
X005550Y030666D01*
X005614Y030602D01*
X005897Y030485D01*
X006203Y030485D01*
X006486Y030602D01*
X006679Y030795D01*
X007340Y030795D01*
X007340Y025432D01*
X007224Y025548D01*
X006867Y025695D01*
X006481Y025695D01*
X006124Y025548D01*
X005851Y025274D01*
X005703Y024918D01*
X005703Y024531D01*
X005851Y024175D01*
X006124Y023901D01*
X006133Y023898D01*
X006124Y023894D01*
X005851Y023621D01*
X005703Y023264D01*
X005703Y022878D01*
X005851Y022521D01*
X006124Y022248D01*
X006133Y022244D01*
X006124Y022240D01*
X005851Y021967D01*
X005703Y021611D01*
X005703Y021224D01*
X005851Y020867D01*
X006124Y020594D01*
X006133Y020591D01*
X006124Y020587D01*
X005851Y020314D01*
X005703Y019957D01*
X005703Y019571D01*
X005851Y019214D01*
X006124Y018941D01*
X006133Y018937D01*
X006124Y018933D01*
X005851Y018660D01*
X005703Y018303D01*
X005703Y017917D01*
X005851Y017560D01*
X006124Y017287D01*
X006133Y017284D01*
X006124Y017280D01*
X005851Y017007D01*
X005703Y016650D01*
X005703Y016264D01*
X005851Y015907D01*
X006124Y015634D01*
X006133Y015630D01*
X006124Y015626D01*
X005851Y015353D01*
X005703Y014996D01*
X005703Y014610D01*
X005851Y014253D01*
X006124Y013980D01*
X006133Y013976D01*
X006124Y013973D01*
X005851Y013700D01*
X005703Y013343D01*
X005703Y012957D01*
X005851Y012600D01*
X006124Y012327D01*
X006133Y012323D01*
X006124Y012319D01*
X005851Y012046D01*
X005703Y011689D01*
X005703Y011303D01*
X005851Y010946D01*
X006124Y010673D01*
X006175Y010652D01*
X006123Y010619D01*
X006039Y010553D01*
X005964Y010477D01*
X005897Y010394D01*
X005840Y010303D01*
X005794Y010207D01*
X005759Y010106D01*
X005735Y010002D01*
X005723Y009896D01*
X005723Y009843D01*
X006674Y009843D01*
X007625Y009843D01*
X007625Y009896D01*
X007613Y010002D01*
X007589Y010106D01*
X007554Y010207D01*
X007508Y010303D01*
X007451Y010394D01*
X007384Y010477D01*
X007309Y010553D01*
X007225Y010619D01*
X007173Y010652D01*
X007224Y010673D01*
X007497Y010946D01*
X007645Y011303D01*
X007645Y011689D01*
X007497Y012046D01*
X007224Y012319D01*
X007215Y012323D01*
X007224Y012327D01*
X007497Y012600D01*
X007645Y012957D01*
X007645Y013343D01*
X007497Y013700D01*
X007224Y013973D01*
X007215Y013976D01*
X007224Y013980D01*
X007497Y014253D01*
X007645Y014610D01*
X007645Y014996D01*
X007497Y015353D01*
X007224Y015626D01*
X007215Y015630D01*
X007224Y015634D01*
X007497Y015907D01*
X007645Y016264D01*
X007645Y016650D01*
X007497Y017007D01*
X007224Y017280D01*
X007215Y017284D01*
X007224Y017287D01*
X007497Y017560D01*
X007645Y017917D01*
X007645Y018303D01*
X007497Y018660D01*
X007224Y018933D01*
X007215Y018937D01*
X007224Y018941D01*
X007497Y019214D01*
X007645Y019571D01*
X007645Y019957D01*
X007497Y020314D01*
X007224Y020587D01*
X007215Y020591D01*
X007224Y020594D01*
X007497Y020867D01*
X007645Y021224D01*
X007645Y021611D01*
X007497Y021967D01*
X007224Y022240D01*
X007215Y022244D01*
X007224Y022248D01*
X007497Y022521D01*
X007645Y022878D01*
X007645Y022885D01*
X007789Y022740D01*
X007954Y022672D01*
X008016Y022521D01*
X008289Y022248D01*
X008298Y022244D01*
X008289Y022240D01*
X008016Y021967D01*
X007869Y021611D01*
X007869Y021224D01*
X008016Y020867D01*
X008289Y020594D01*
X008298Y020591D01*
X008289Y020587D01*
X008016Y020314D01*
X007869Y019957D01*
X007869Y019571D01*
X008016Y019214D01*
X008289Y018941D01*
X008298Y018937D01*
X008289Y018933D01*
X008016Y018660D01*
X007869Y018303D01*
X007869Y017917D01*
X008016Y017560D01*
X008289Y017287D01*
X008298Y017284D01*
X008289Y017280D01*
X008016Y017007D01*
X007869Y016650D01*
X007869Y016264D01*
X008016Y015907D01*
X008289Y015634D01*
X008298Y015630D01*
X008289Y015626D01*
X008016Y015353D01*
X007869Y014996D01*
X007869Y014610D01*
X008016Y014253D01*
X008289Y013980D01*
X008298Y013976D01*
X008289Y013973D01*
X008016Y013700D01*
X007869Y013343D01*
X007869Y012957D01*
X008016Y012600D01*
X008289Y012327D01*
X008298Y012323D01*
X008289Y012319D01*
X008016Y012046D01*
X007869Y011689D01*
X007869Y011303D01*
X008016Y010946D01*
X008289Y010673D01*
X008298Y010669D01*
X008289Y010666D01*
X008016Y010393D01*
X007869Y010036D01*
X007869Y009649D01*
X008016Y009293D01*
X008289Y009020D01*
X008298Y009016D01*
X008289Y009012D01*
X008016Y008739D01*
X007869Y008382D01*
X007869Y007996D01*
X008016Y007639D01*
X008289Y007366D01*
X008298Y007362D01*
X008289Y007359D01*
X008016Y007085D01*
X007869Y006729D01*
X007869Y006342D01*
X008016Y005986D01*
X008289Y005712D01*
X008646Y005565D01*
X009032Y005565D01*
X009389Y005712D01*
X009662Y005986D01*
X009810Y006342D01*
X009810Y006729D01*
X009662Y007085D01*
X009389Y007359D01*
X009380Y007362D01*
X009389Y007366D01*
X009662Y007639D01*
X009810Y007996D01*
X009810Y008382D01*
X009662Y008739D01*
X009389Y009012D01*
X009380Y009016D01*
X009389Y009020D01*
X009662Y009293D01*
X009810Y009649D01*
X009810Y010036D01*
X009662Y010393D01*
X009389Y010666D01*
X009380Y010669D01*
X009389Y010673D01*
X009662Y010946D01*
X009810Y011303D01*
X009810Y011689D01*
X009662Y012046D01*
X009389Y012319D01*
X009380Y012323D01*
X009389Y012327D01*
X009662Y012600D01*
X009810Y012957D01*
X009810Y013343D01*
X009738Y013517D01*
X009983Y013296D01*
X010039Y013240D01*
X010051Y013235D01*
X010060Y013227D01*
X010135Y013200D01*
X010208Y013170D01*
X010221Y013170D01*
X010233Y013166D01*
X010312Y013170D01*
X010369Y013170D01*
X010443Y013096D01*
X010675Y013000D01*
X010925Y013000D01*
X011157Y013096D01*
X011334Y013273D01*
X011430Y013505D01*
X011430Y013755D01*
X011334Y013987D01*
X011157Y014164D01*
X011055Y014206D01*
X011055Y014380D01*
X010959Y014612D01*
X010885Y014686D01*
X010885Y016096D01*
X010815Y016266D01*
X010440Y016641D01*
X010311Y016770D01*
X010141Y016840D01*
X009731Y016840D01*
X009662Y017007D01*
X009389Y017280D01*
X009380Y017284D01*
X009389Y017287D01*
X009662Y017560D01*
X009810Y017917D01*
X009810Y018303D01*
X009756Y018435D01*
X010366Y019045D01*
X011641Y019045D01*
X011811Y019115D01*
X017241Y024545D01*
X017244Y024545D01*
X017318Y024471D01*
X017550Y024375D01*
X017800Y024375D01*
X018032Y024471D01*
X018209Y024648D01*
X018305Y024880D01*
X018305Y025130D01*
X018209Y025362D01*
X018032Y025539D01*
X017804Y025634D01*
X017709Y025862D01*
X017532Y026039D01*
X017300Y026135D01*
X017050Y026135D01*
X016818Y026039D01*
X016641Y025862D01*
X016545Y025630D01*
X016545Y025526D01*
X011243Y020224D01*
X009700Y020224D01*
X009662Y020314D01*
X009389Y020587D01*
X009380Y020591D01*
X009389Y020594D01*
X009662Y020867D01*
X009810Y021224D01*
X009810Y021611D01*
X009662Y021967D01*
X009389Y022240D01*
X009380Y022244D01*
X009389Y022248D01*
X009662Y022521D01*
X009810Y022878D01*
X009810Y023264D01*
X009662Y023621D01*
X009389Y023894D01*
X009380Y023898D01*
X009389Y023901D01*
X009662Y024175D01*
X009810Y024531D01*
X009810Y024918D01*
X009662Y025274D01*
X009389Y025548D01*
X009032Y025695D01*
X008646Y025695D01*
X008289Y025548D01*
X008260Y025518D01*
X008260Y031221D01*
X008190Y031391D01*
X008061Y031520D01*
X007936Y031645D01*
X007766Y031715D01*
X006679Y031715D01*
X006486Y031908D01*
X006394Y031946D01*
X023128Y031946D01*
X022995Y031717D01*
X022900Y031361D01*
X022900Y030992D01*
X022995Y030636D01*
X023180Y030317D01*
X023440Y030056D01*
X023760Y029872D01*
X024116Y029776D01*
X024484Y029776D01*
X024840Y029872D01*
X025160Y030056D01*
X025420Y030317D01*
X025605Y030636D01*
X025700Y030992D01*
X025700Y031361D01*
X025605Y031717D01*
X025472Y031946D01*
X027615Y031946D01*
X027615Y000810D01*
X025470Y000810D01*
X025605Y001043D01*
X025700Y001399D01*
X025700Y001768D01*
X025605Y002124D01*
X025420Y002443D01*
X025160Y002704D01*
X024898Y002855D01*
X025929Y002855D01*
X026168Y002954D01*
X027293Y004079D01*
X027476Y004262D01*
X027575Y004501D01*
X027575Y013009D01*
X027476Y013248D01*
X027101Y013623D01*
X026918Y013806D01*
X026679Y013905D01*
X024171Y013905D01*
X023932Y013806D01*
X023749Y013623D01*
X023650Y013384D01*
X023650Y013126D01*
X023749Y012887D01*
X023874Y012762D01*
X023760Y012731D01*
X023440Y012547D01*
X023180Y012286D01*
X022995Y011967D01*
X022900Y011611D01*
X022900Y011242D01*
X022995Y010886D01*
X023180Y010567D01*
X023440Y010306D01*
X023760Y010122D01*
X024116Y010026D01*
X024484Y010026D01*
X024840Y010122D01*
X025160Y010306D01*
X025420Y010567D01*
X025605Y010886D01*
X025700Y011242D01*
X025700Y011611D01*
X025605Y011967D01*
X025420Y012286D01*
X025160Y012547D01*
X025058Y012605D01*
X026275Y012605D01*
X026275Y004899D01*
X025531Y004155D01*
X025142Y004155D01*
X025295Y004218D01*
X025512Y004435D01*
X025629Y004718D01*
X025629Y005024D01*
X025512Y005307D01*
X025403Y005416D01*
X025512Y005526D01*
X025629Y005809D01*
X025629Y006115D01*
X025512Y006398D01*
X025405Y006505D01*
X025512Y006612D01*
X025629Y006895D01*
X025629Y007201D01*
X025512Y007484D01*
X025403Y007594D01*
X025512Y007703D01*
X025629Y007986D01*
X025629Y008292D01*
X025512Y008575D01*
X025295Y008792D01*
X025012Y008909D01*
X024706Y008909D01*
X024511Y008828D01*
X024511Y009136D01*
X024450Y009283D01*
X024338Y009395D01*
X024191Y009456D01*
X023291Y009456D01*
X023144Y009395D01*
X023032Y009283D01*
X022971Y009136D01*
X022971Y008237D01*
X023032Y008090D01*
X023089Y008032D01*
X023088Y008032D01*
X022971Y007749D01*
X022971Y007442D01*
X023088Y007159D01*
X023197Y007050D01*
X023112Y006965D01*
X022708Y006965D01*
X022539Y006895D01*
X022484Y006840D01*
X020260Y006840D01*
X020260Y011471D01*
X020190Y011641D01*
X019815Y012016D01*
X019686Y012145D01*
X019516Y012215D01*
X019500Y012215D01*
X019518Y012233D01*
X019625Y012491D01*
X019625Y012769D01*
X019518Y013027D01*
X019322Y013223D01*
X019064Y013330D01*
X018786Y013330D01*
X018528Y013223D01*
X018411Y013106D01*
X018374Y013142D01*
X018304Y013197D01*
X018226Y013241D01*
X018144Y013275D01*
X018058Y013298D01*
X017970Y013310D01*
X017925Y013310D01*
X017925Y012630D01*
X017925Y012630D01*
X017925Y012630D01*
X017245Y012630D01*
X017245Y012675D01*
X017257Y012763D01*
X017280Y012849D01*
X017314Y012931D01*
X017358Y013009D01*
X017413Y013079D01*
X017476Y013142D01*
X017546Y013197D01*
X017624Y013241D01*
X017706Y013275D01*
X017792Y013298D01*
X017880Y013310D01*
X017925Y013310D01*
X017925Y012630D01*
X017245Y012630D01*
X017245Y012585D01*
X017257Y012497D01*
X017280Y012411D01*
X017314Y012329D01*
X017358Y012251D01*
X017413Y012181D01*
X017476Y012118D01*
X017546Y012063D01*
X017606Y012029D01*
X017545Y011880D01*
X017545Y011630D01*
X017641Y011398D01*
X017732Y011308D01*
X017528Y011223D01*
X017332Y011027D01*
X017225Y010769D01*
X017225Y010491D01*
X017332Y010233D01*
X017528Y010037D01*
X017786Y009930D01*
X018064Y009930D01*
X018322Y010037D01*
X018425Y010140D01*
X018528Y010037D01*
X018786Y009930D01*
X019064Y009930D01*
X019090Y009941D01*
X019090Y009694D01*
X019064Y009705D01*
X018786Y009705D01*
X018528Y009598D01*
X018411Y009481D01*
X018374Y009517D01*
X018304Y009572D01*
X018226Y009616D01*
X018144Y009650D01*
X018058Y009673D01*
X017970Y009685D01*
X017925Y009685D01*
X017925Y009005D01*
X017925Y009005D01*
X017925Y008325D01*
X017970Y008325D01*
X018058Y008337D01*
X018144Y008360D01*
X018226Y008394D01*
X018304Y008438D01*
X018374Y008493D01*
X018411Y008529D01*
X018528Y008412D01*
X018786Y008305D01*
X019064Y008305D01*
X019090Y008316D01*
X019090Y007694D01*
X019064Y007705D01*
X018786Y007705D01*
X018528Y007598D01*
X018425Y007495D01*
X018322Y007598D01*
X018064Y007705D01*
X017786Y007705D01*
X017528Y007598D01*
X017332Y007402D01*
X017225Y007144D01*
X017225Y006866D01*
X017332Y006608D01*
X017528Y006412D01*
X017786Y006305D01*
X018064Y006305D01*
X018275Y006392D01*
X018275Y005885D01*
X018175Y005885D01*
X017982Y005805D01*
X017959Y005862D01*
X017782Y006039D01*
X017550Y006135D01*
X017300Y006135D01*
X017068Y006039D01*
X016891Y005862D01*
X016795Y005630D01*
X016795Y005380D01*
X016891Y005148D01*
X016965Y005074D01*
X016965Y005071D01*
X016359Y004465D01*
X014083Y004465D01*
X014002Y004431D01*
X014190Y004619D01*
X014260Y004788D01*
X014260Y005824D01*
X014334Y005898D01*
X014430Y006130D01*
X014430Y006380D01*
X014334Y006612D01*
X014204Y006742D01*
X014239Y006829D01*
X014239Y007488D01*
X014178Y007635D01*
X014066Y007748D01*
X013919Y007809D01*
X013260Y007809D01*
X013260Y008221D01*
X013550Y008221D01*
X013877Y008221D01*
X013950Y008236D01*
X014019Y008265D01*
X014082Y008306D01*
X014135Y008359D01*
X014176Y008421D01*
X014205Y008491D01*
X014219Y008564D01*
X014219Y008851D01*
X013550Y008851D01*
X013550Y008221D01*
X013550Y008851D01*
X013550Y008851D01*
X013550Y008851D01*
X014219Y008851D01*
X014219Y009139D01*
X014205Y009212D01*
X014176Y009281D01*
X014138Y009338D01*
X014157Y009346D01*
X014334Y009523D01*
X014430Y009755D01*
X014430Y010005D01*
X014338Y010227D01*
X014528Y010037D01*
X014786Y009930D01*
X015064Y009930D01*
X015322Y010037D01*
X015518Y010233D01*
X015625Y010491D01*
X015625Y010769D01*
X015518Y011027D01*
X015385Y011160D01*
X015385Y012100D01*
X015518Y012233D01*
X015625Y012491D01*
X015625Y012769D01*
X015518Y013027D01*
X015322Y013223D01*
X015064Y013330D01*
X014786Y013330D01*
X014528Y013223D01*
X014332Y013027D01*
X014225Y012769D01*
X014225Y012491D01*
X014332Y012233D01*
X014465Y012100D01*
X014465Y011160D01*
X014332Y011027D01*
X014239Y010804D01*
X014239Y010988D01*
X014178Y011135D01*
X014066Y011248D01*
X013919Y011309D01*
X013181Y011309D01*
X013034Y011248D01*
X012922Y011135D01*
X012861Y010988D01*
X012861Y010329D01*
X012922Y010182D01*
X012936Y010167D01*
X012410Y009641D01*
X012340Y009471D01*
X012340Y006288D01*
X012410Y006119D01*
X012539Y005990D01*
X012840Y005689D01*
X012840Y005340D01*
X007958Y005340D01*
X007789Y005270D01*
X007539Y005020D01*
X007410Y004891D01*
X007340Y004721D01*
X007340Y004215D01*
X003010Y004215D01*
X003010Y005529D01*
X003020Y005519D01*
X003310Y005352D01*
X003633Y005265D01*
X003967Y005265D01*
X004290Y005352D01*
X004580Y005519D01*
X004817Y005755D01*
X004984Y006045D01*
X005071Y006368D01*
X005071Y006703D01*
X004984Y007026D01*
X004817Y007316D01*
X004580Y007552D01*
X004290Y007719D01*
X003967Y007806D01*
X003633Y007806D01*
X003310Y007719D01*
X003020Y007552D01*
X003010Y007542D01*
X003010Y008814D01*
X003561Y009365D01*
X003690Y009494D01*
X003760Y009663D01*
X003760Y011971D01*
X003690Y012141D01*
X002635Y013196D01*
X002635Y014221D01*
X002565Y014391D01*
X002440Y014516D01*
X002311Y014645D01*
X002141Y014715D01*
X001760Y014715D01*
X001760Y017439D01*
X001821Y017500D01*
X001925Y017500D01*
X002157Y017596D01*
X002334Y017773D01*
X002430Y018005D01*
X002430Y018255D01*
X002334Y018487D01*
X002157Y018664D01*
X001925Y018760D01*
X001675Y018760D01*
X001480Y018679D01*
X001480Y028872D01*
X001750Y028800D01*
X002100Y028800D01*
X002438Y028891D01*
X002742Y029066D01*
X002989Y029313D01*
X003164Y029617D01*
X003255Y029955D01*
X003255Y030238D01*
X003425Y030238D01*
X003699Y030238D01*
X003772Y030253D01*
X003841Y030281D01*
X003903Y030323D01*
X003956Y030376D01*
X003998Y030438D01*
X004027Y030507D01*
X004041Y030581D01*
X004041Y030776D01*
X004041Y030971D01*
X004035Y031004D01*
X004041Y030848D02*
X004385Y030848D01*
X004041Y030776D02*
X003425Y030776D01*
X003425Y030776D01*
X004041Y030776D01*
X003853Y030289D02*
X007340Y030289D01*
X007340Y029731D02*
X003195Y029731D01*
X002848Y029172D02*
X007340Y029172D01*
X007340Y028614D02*
X006787Y028614D01*
X006820Y028533D02*
X006703Y028816D01*
X006486Y029033D01*
X006203Y029150D01*
X005897Y029150D01*
X005614Y029033D01*
X005550Y028969D01*
X005486Y029033D01*
X005203Y029150D01*
X004897Y029150D01*
X004614Y029033D01*
X004397Y028816D01*
X004280Y028533D01*
X004280Y028227D01*
X004397Y027944D01*
X004614Y027727D01*
X004897Y027610D01*
X005203Y027610D01*
X005486Y027727D01*
X005550Y027791D01*
X005614Y027727D01*
X005897Y027610D01*
X006203Y027610D01*
X006486Y027727D01*
X006703Y027944D01*
X006820Y028227D01*
X006820Y028533D01*
X006749Y028055D02*
X007340Y028055D01*
X007340Y027497D02*
X001480Y027497D01*
X001480Y026938D02*
X007340Y026938D01*
X007340Y026380D02*
X001480Y026380D01*
X001480Y025821D02*
X003158Y025821D01*
X003020Y025741D02*
X002783Y025505D01*
X002616Y025215D01*
X002529Y024892D01*
X002529Y024557D01*
X002616Y024234D01*
X002783Y023944D01*
X003020Y023708D01*
X003310Y023541D01*
X003633Y023454D01*
X003967Y023454D01*
X004290Y023541D01*
X004580Y023708D01*
X004817Y023944D01*
X004984Y024234D01*
X005071Y024557D01*
X005071Y024892D01*
X004984Y025215D01*
X004817Y025505D01*
X004580Y025741D01*
X004290Y025908D01*
X003967Y025995D01*
X003633Y025995D01*
X003310Y025908D01*
X003020Y025741D01*
X002644Y025263D02*
X001480Y025263D01*
X001480Y024704D02*
X002529Y024704D01*
X002667Y024146D02*
X001480Y024146D01*
X001480Y023587D02*
X003229Y023587D01*
X004371Y023587D02*
X005837Y023587D01*
X005703Y023029D02*
X001480Y023029D01*
X001480Y022470D02*
X005902Y022470D01*
X005828Y021912D02*
X001480Y021912D01*
X001480Y021353D02*
X005703Y021353D01*
X005924Y020795D02*
X001480Y020795D01*
X001480Y020236D02*
X005819Y020236D01*
X005703Y019678D02*
X001480Y019678D01*
X001480Y019119D02*
X005946Y019119D01*
X005810Y018561D02*
X002260Y018561D01*
X002429Y018002D02*
X005703Y018002D01*
X005968Y017444D02*
X001764Y017444D01*
X001760Y016885D02*
X005801Y016885D01*
X005703Y016327D02*
X001760Y016327D01*
X001760Y015768D02*
X005990Y015768D01*
X005791Y015210D02*
X001760Y015210D01*
X002296Y014651D02*
X005703Y014651D01*
X006012Y014093D02*
X002635Y014093D01*
X002635Y013534D02*
X005782Y013534D01*
X005703Y012976D02*
X002855Y012976D01*
X003414Y012417D02*
X006034Y012417D01*
X005773Y011859D02*
X003760Y011859D01*
X003760Y011300D02*
X005704Y011300D01*
X006056Y010742D02*
X003760Y010742D01*
X003760Y010183D02*
X005786Y010183D01*
X005723Y009843D02*
X005723Y009789D01*
X005735Y009683D01*
X005759Y009579D01*
X005794Y009478D01*
X005840Y009382D01*
X005897Y009291D01*
X005964Y009208D01*
X006039Y009132D01*
X006123Y009066D01*
X006203Y009016D01*
X006123Y008966D01*
X006039Y008899D01*
X005964Y008824D01*
X005897Y008740D01*
X005840Y008650D01*
X005794Y008554D01*
X005759Y008453D01*
X005735Y008349D01*
X005723Y008242D01*
X005723Y008189D01*
X005723Y008136D01*
X005735Y008030D01*
X005759Y007925D01*
X005794Y007825D01*
X005840Y007728D01*
X005897Y007638D01*
X005964Y007554D01*
X006039Y007479D01*
X006123Y007412D01*
X006175Y007380D01*
X006124Y007359D01*
X005851Y007085D01*
X005703Y006729D01*
X005703Y006342D01*
X005851Y005986D01*
X006124Y005712D01*
X006481Y005565D01*
X006867Y005565D01*
X007224Y005712D01*
X007497Y005986D01*
X007645Y006342D01*
X007645Y006729D01*
X007497Y007085D01*
X007224Y007359D01*
X007173Y007380D01*
X007225Y007412D01*
X007309Y007479D01*
X007384Y007554D01*
X007451Y007638D01*
X007508Y007728D01*
X007554Y007825D01*
X007589Y007925D01*
X007613Y008030D01*
X007625Y008136D01*
X007625Y008189D01*
X006674Y008189D01*
X005723Y008189D01*
X006674Y008189D01*
X006674Y008189D01*
X006674Y008189D01*
X007625Y008189D01*
X007625Y008242D01*
X007613Y008349D01*
X007589Y008453D01*
X007554Y008554D01*
X007508Y008650D01*
X007451Y008740D01*
X007384Y008824D01*
X007309Y008899D01*
X007225Y008966D01*
X007145Y009016D01*
X007225Y009066D01*
X007309Y009132D01*
X007384Y009208D01*
X007451Y009291D01*
X007508Y009382D01*
X007554Y009478D01*
X007589Y009579D01*
X007613Y009683D01*
X007625Y009789D01*
X007625Y009843D01*
X006674Y009843D01*
X006674Y009843D01*
X006674Y009843D01*
X005723Y009843D01*
X005748Y009625D02*
X003744Y009625D01*
X003262Y009066D02*
X006123Y009066D01*
X006674Y009066D02*
X006674Y009066D01*
X006674Y008892D02*
X006674Y009843D01*
X006674Y009843D01*
X006674Y008189D01*
X006674Y008189D01*
X006674Y008892D01*
X006674Y008508D02*
X006674Y008508D01*
X007225Y009066D02*
X008243Y009066D01*
X007920Y008508D02*
X007570Y008508D01*
X007595Y007949D02*
X007888Y007949D01*
X008265Y007391D02*
X007190Y007391D01*
X007602Y006832D02*
X007911Y006832D01*
X007897Y006274D02*
X007616Y006274D01*
X007227Y005715D02*
X008287Y005715D01*
X007676Y005157D02*
X003010Y005157D01*
X003010Y004598D02*
X007340Y004598D01*
X006122Y005715D02*
X004776Y005715D01*
X005045Y006274D02*
X005732Y006274D01*
X005746Y006832D02*
X005036Y006832D01*
X004742Y007391D02*
X006158Y007391D01*
X005753Y007949D02*
X003010Y007949D01*
X003010Y008508D02*
X005778Y008508D01*
X006674Y009625D02*
X006674Y009625D01*
X007600Y009625D02*
X007879Y009625D01*
X007930Y010183D02*
X007562Y010183D01*
X007292Y010742D02*
X008221Y010742D01*
X007870Y011300D02*
X007644Y011300D01*
X007575Y011859D02*
X007939Y011859D01*
X008199Y012417D02*
X007314Y012417D01*
X007645Y012976D02*
X007869Y012976D01*
X007948Y013534D02*
X007566Y013534D01*
X007336Y014093D02*
X008177Y014093D01*
X007869Y014651D02*
X007645Y014651D01*
X007557Y015210D02*
X007957Y015210D01*
X008155Y015768D02*
X007358Y015768D01*
X007645Y016327D02*
X007869Y016327D01*
X007966Y016885D02*
X007547Y016885D01*
X007380Y017444D02*
X008133Y017444D01*
X007869Y018002D02*
X007645Y018002D01*
X007538Y018561D02*
X007975Y018561D01*
X008111Y019119D02*
X007402Y019119D01*
X007645Y019678D02*
X007869Y019678D01*
X007984Y020236D02*
X007529Y020236D01*
X007424Y020795D02*
X008089Y020795D01*
X007869Y021353D02*
X007645Y021353D01*
X007520Y021912D02*
X007993Y021912D01*
X008067Y022470D02*
X007446Y022470D01*
X005880Y024146D02*
X004933Y024146D01*
X005071Y024704D02*
X005703Y024704D01*
X005846Y025263D02*
X004956Y025263D01*
X004442Y025821D02*
X007340Y025821D01*
X008260Y025821D02*
X016624Y025821D01*
X016282Y025263D02*
X009667Y025263D01*
X009810Y024704D02*
X015723Y024704D01*
X015165Y024146D02*
X009633Y024146D01*
X009676Y023587D02*
X014606Y023587D01*
X014048Y023029D02*
X009810Y023029D01*
X009611Y022470D02*
X013489Y022470D01*
X012931Y021912D02*
X009686Y021912D01*
X009810Y021353D02*
X012372Y021353D01*
X011814Y020795D02*
X009589Y020795D01*
X009695Y020236D02*
X011255Y020236D01*
X011815Y019119D02*
X027615Y019119D01*
X027615Y018561D02*
X026488Y018561D01*
X026421Y018628D02*
X026099Y018761D01*
X025751Y018761D01*
X025429Y018628D01*
X025183Y018382D01*
X025050Y018060D01*
X025050Y017712D01*
X025183Y017390D01*
X025395Y017179D01*
X025360Y017152D01*
X025281Y017073D01*
X025213Y016984D01*
X025157Y016887D01*
X025114Y016783D01*
X025085Y016675D01*
X025070Y016564D01*
X025070Y016508D01*
X025925Y016508D01*
X026780Y016508D01*
X026780Y016564D01*
X026765Y016675D01*
X026736Y016783D01*
X026693Y016887D01*
X026637Y016984D01*
X026569Y017073D01*
X026490Y017152D01*
X026455Y017179D01*
X026667Y017390D01*
X026800Y017712D01*
X026800Y018060D01*
X026667Y018382D01*
X026421Y018628D01*
X026800Y018002D02*
X027615Y018002D01*
X027615Y017444D02*
X026689Y017444D01*
X026694Y016885D02*
X027615Y016885D01*
X027615Y016327D02*
X026762Y016327D01*
X026765Y016341D02*
X026780Y016452D01*
X026780Y016508D01*
X025925Y016508D01*
X025925Y016508D01*
X025925Y016508D01*
X025070Y016508D01*
X025070Y016452D01*
X025085Y016341D01*
X025114Y016233D01*
X025157Y016129D01*
X025213Y016032D01*
X025266Y015962D01*
X025223Y015944D01*
X025111Y015832D01*
X025050Y015685D01*
X025050Y014575D01*
X025111Y014428D01*
X025223Y014316D01*
X025370Y014255D01*
X026480Y014255D01*
X026627Y014316D01*
X026739Y014428D01*
X026800Y014575D01*
X026800Y015685D01*
X026739Y015832D01*
X026627Y015944D01*
X026584Y015962D01*
X026637Y016032D01*
X026693Y016129D01*
X026736Y016233D01*
X026765Y016341D01*
X026765Y015768D02*
X027615Y015768D01*
X027615Y015210D02*
X026800Y015210D01*
X026800Y014651D02*
X027615Y014651D01*
X027615Y014093D02*
X019502Y014093D01*
X019518Y014108D02*
X019625Y014366D01*
X019625Y014644D01*
X019518Y014902D01*
X019322Y015098D01*
X019064Y015205D01*
X018786Y015205D01*
X018528Y015098D01*
X018425Y014995D01*
X018322Y015098D01*
X018064Y015205D01*
X017786Y015205D01*
X017528Y015098D01*
X017332Y014902D01*
X017225Y014644D01*
X017225Y014366D01*
X017332Y014108D01*
X017528Y013912D01*
X017786Y013805D01*
X018064Y013805D01*
X018322Y013912D01*
X018425Y014015D01*
X018528Y013912D01*
X018786Y013805D01*
X019064Y013805D01*
X019322Y013912D01*
X019518Y014108D01*
X019622Y014651D02*
X025050Y014651D01*
X025050Y015210D02*
X014104Y015210D01*
X014066Y015248D02*
X014010Y015271D01*
X014010Y015471D01*
X013940Y015641D01*
X013859Y015721D01*
X013877Y015721D01*
X013950Y015736D01*
X014019Y015765D01*
X014082Y015806D01*
X014135Y015859D01*
X014176Y015921D01*
X014205Y015991D01*
X014219Y016064D01*
X014219Y016351D01*
X013550Y016351D01*
X013550Y016351D01*
X012881Y016351D01*
X012881Y016090D01*
X012606Y016090D01*
X012532Y016164D01*
X012300Y016260D01*
X012050Y016260D01*
X011818Y016164D01*
X011641Y015987D01*
X011545Y015755D01*
X011545Y015505D01*
X011641Y015273D01*
X011818Y015096D01*
X012050Y015000D01*
X012300Y015000D01*
X012532Y015096D01*
X012606Y015170D01*
X012956Y015170D01*
X012922Y015135D01*
X012861Y014988D01*
X012861Y014329D01*
X012922Y014182D01*
X013034Y014069D01*
X013070Y014055D01*
X013070Y013910D01*
X013143Y013733D01*
X013204Y013672D01*
X013266Y013523D01*
X013443Y013346D01*
X013675Y013250D01*
X013925Y013250D01*
X014157Y013346D01*
X014334Y013523D01*
X014430Y013755D01*
X014430Y014005D01*
X014405Y014066D01*
X014413Y014056D01*
X014476Y013993D01*
X014546Y013938D01*
X014624Y013894D01*
X014706Y013860D01*
X014792Y013837D01*
X014880Y013825D01*
X014925Y013825D01*
X014970Y013825D01*
X015058Y013837D01*
X015144Y013860D01*
X015226Y013894D01*
X015304Y013938D01*
X015374Y013993D01*
X015437Y014056D01*
X015492Y014126D01*
X015536Y014204D01*
X015570Y014286D01*
X015593Y014372D01*
X015605Y014460D01*
X015605Y014505D01*
X015605Y014550D01*
X015593Y014638D01*
X015570Y014724D01*
X015536Y014806D01*
X015492Y014884D01*
X015437Y014954D01*
X015374Y015017D01*
X015304Y015072D01*
X015226Y015116D01*
X015144Y015150D01*
X015058Y015173D01*
X014970Y015185D01*
X014925Y015185D01*
X014925Y014505D01*
X014925Y014505D01*
X015605Y014505D01*
X014925Y014505D01*
X014925Y014505D01*
X014925Y014505D01*
X014245Y014505D01*
X014245Y014550D01*
X014257Y014638D01*
X014280Y014724D01*
X014314Y014806D01*
X014358Y014884D01*
X014413Y014954D01*
X014476Y015017D01*
X014546Y015072D01*
X014624Y015116D01*
X014706Y015150D01*
X014792Y015173D01*
X014880Y015185D01*
X014925Y015185D01*
X014925Y014505D01*
X014925Y013825D01*
X014925Y014505D01*
X014925Y014505D01*
X014245Y014505D01*
X014245Y014460D01*
X014257Y014372D01*
X014278Y014293D01*
X014239Y014332D01*
X014239Y014988D01*
X014178Y015135D01*
X014066Y015248D01*
X014024Y015768D02*
X025085Y015768D01*
X025088Y016327D02*
X021617Y016327D01*
X021615Y016319D02*
X021630Y016393D01*
X021630Y016755D01*
X021630Y017117D01*
X021615Y017191D01*
X021587Y017260D01*
X021545Y017322D01*
X021531Y017336D01*
X021540Y017344D01*
X021650Y017611D01*
X021650Y017899D01*
X021540Y018166D01*
X021336Y018370D01*
X021069Y018480D01*
X020781Y018480D01*
X020514Y018370D01*
X020310Y018166D01*
X020200Y017899D01*
X020200Y017611D01*
X020310Y017344D01*
X020319Y017336D01*
X020305Y017322D01*
X020263Y017260D01*
X020235Y017191D01*
X020220Y017117D01*
X020220Y016755D01*
X020925Y016755D01*
X021630Y016755D01*
X020925Y016755D01*
X020925Y016755D01*
X020925Y016050D01*
X021287Y016050D01*
X021361Y016065D01*
X021430Y016093D01*
X021492Y016135D01*
X021545Y016188D01*
X021587Y016250D01*
X021615Y016319D01*
X021630Y016885D02*
X025156Y016885D01*
X025161Y017444D02*
X021581Y017444D01*
X021607Y018002D02*
X025050Y018002D01*
X025362Y018561D02*
X009881Y018561D01*
X009810Y018002D02*
X020243Y018002D01*
X020269Y017444D02*
X009546Y017444D01*
X009713Y016885D02*
X013007Y016885D01*
X013018Y016897D02*
X012965Y016844D01*
X012924Y016781D01*
X012895Y016712D01*
X012881Y016639D01*
X012881Y016351D01*
X013550Y016351D01*
X013550Y016351D01*
X014219Y016351D01*
X014219Y016639D01*
X014205Y016712D01*
X014176Y016781D01*
X014135Y016844D01*
X014082Y016897D01*
X014019Y016938D01*
X013950Y016967D01*
X013877Y016981D01*
X013550Y016981D01*
X013223Y016981D01*
X013150Y016967D01*
X013081Y016938D01*
X013018Y016897D01*
X013550Y016885D02*
X013550Y016885D01*
X013550Y016981D02*
X013550Y016351D01*
X013550Y016351D01*
X013550Y016981D01*
X014093Y016885D02*
X014359Y016885D01*
X014358Y016884D02*
X014314Y016806D01*
X014280Y016724D01*
X014257Y016638D01*
X014245Y016550D01*
X014245Y016505D01*
X014925Y016505D01*
X015605Y016505D01*
X015605Y016550D01*
X015593Y016638D01*
X015570Y016724D01*
X015536Y016806D01*
X015492Y016884D01*
X015437Y016954D01*
X015374Y017017D01*
X015304Y017072D01*
X015226Y017116D01*
X015144Y017150D01*
X015058Y017173D01*
X014970Y017185D01*
X014925Y017185D01*
X014925Y016505D01*
X014925Y016505D01*
X014925Y016505D01*
X015605Y016505D01*
X015605Y016460D01*
X015593Y016372D01*
X015570Y016286D01*
X015536Y016204D01*
X015492Y016126D01*
X015437Y016056D01*
X015374Y015993D01*
X015304Y015938D01*
X015226Y015894D01*
X015144Y015860D01*
X015058Y015837D01*
X014970Y015825D01*
X014925Y015825D01*
X014925Y016505D01*
X014925Y016505D01*
X014925Y016505D01*
X014925Y017185D01*
X014880Y017185D01*
X014792Y017173D01*
X014706Y017150D01*
X014624Y017116D01*
X014546Y017072D01*
X014476Y017017D01*
X014413Y016954D01*
X014358Y016884D01*
X014245Y016505D02*
X014245Y016460D01*
X014257Y016372D01*
X014280Y016286D01*
X014314Y016204D01*
X014358Y016126D01*
X014413Y016056D01*
X014476Y015993D01*
X014546Y015938D01*
X014624Y015894D01*
X014706Y015860D01*
X014792Y015837D01*
X014880Y015825D01*
X014925Y015825D01*
X014925Y016505D01*
X014245Y016505D01*
X014219Y016327D02*
X014269Y016327D01*
X014925Y016327D02*
X014925Y016327D01*
X014925Y016885D02*
X014925Y016885D01*
X015491Y016885D02*
X017359Y016885D01*
X017358Y016884D02*
X017314Y016806D01*
X017280Y016724D01*
X017257Y016638D01*
X017245Y016550D01*
X017245Y016505D01*
X017925Y016505D01*
X017925Y016505D01*
X017925Y017185D01*
X017970Y017185D01*
X018058Y017173D01*
X018144Y017150D01*
X018226Y017116D01*
X018304Y017072D01*
X018374Y017017D01*
X018411Y016981D01*
X018528Y017098D01*
X018786Y017205D01*
X019064Y017205D01*
X019322Y017098D01*
X019518Y016902D01*
X019625Y016644D01*
X019625Y016366D01*
X019518Y016108D01*
X019322Y015912D01*
X019064Y015805D01*
X018786Y015805D01*
X018528Y015912D01*
X018411Y016029D01*
X018374Y015993D01*
X018304Y015938D01*
X018226Y015894D01*
X018144Y015860D01*
X018058Y015837D01*
X017970Y015825D01*
X017925Y015825D01*
X017925Y016505D01*
X017925Y017185D01*
X017880Y017185D01*
X017792Y017173D01*
X017706Y017150D01*
X017624Y017116D01*
X017546Y017072D01*
X017476Y017017D01*
X017413Y016954D01*
X017358Y016884D01*
X017245Y016505D02*
X017245Y016460D01*
X017257Y016372D01*
X017280Y016286D01*
X017314Y016204D01*
X017358Y016126D01*
X017413Y016056D01*
X017476Y015993D01*
X017546Y015938D01*
X017624Y015894D01*
X017706Y015860D01*
X017792Y015837D01*
X017880Y015825D01*
X017925Y015825D01*
X017925Y016505D01*
X017925Y016505D01*
X017925Y016505D01*
X017245Y016505D01*
X017269Y016327D02*
X015581Y016327D01*
X015590Y014651D02*
X017228Y014651D01*
X017348Y014093D02*
X015466Y014093D01*
X014925Y014093D02*
X014925Y014093D01*
X014925Y014651D02*
X014925Y014651D01*
X014260Y014651D02*
X014239Y014651D01*
X014339Y013534D02*
X023712Y013534D01*
X023712Y012976D02*
X019540Y012976D01*
X019594Y012417D02*
X023311Y012417D01*
X022966Y011859D02*
X019972Y011859D01*
X020260Y011300D02*
X022900Y011300D01*
X023079Y010742D02*
X020260Y010742D01*
X020260Y010183D02*
X023653Y010183D01*
X024947Y010183D02*
X026275Y010183D01*
X026275Y010742D02*
X025521Y010742D01*
X025700Y011300D02*
X026275Y011300D01*
X026275Y011859D02*
X025634Y011859D01*
X025289Y012417D02*
X026275Y012417D01*
X027575Y012417D02*
X027615Y012417D01*
X027615Y011859D02*
X027575Y011859D01*
X027575Y011300D02*
X027615Y011300D01*
X027615Y010742D02*
X027575Y010742D01*
X027575Y010183D02*
X027615Y010183D01*
X027615Y009625D02*
X027575Y009625D01*
X027575Y009066D02*
X027615Y009066D01*
X027615Y008508D02*
X027575Y008508D01*
X027575Y007949D02*
X027615Y007949D01*
X027615Y007391D02*
X027575Y007391D01*
X027575Y006832D02*
X027615Y006832D01*
X027615Y006274D02*
X027575Y006274D01*
X027575Y005715D02*
X027615Y005715D01*
X027615Y005157D02*
X027575Y005157D01*
X027575Y004598D02*
X027615Y004598D01*
X027615Y004040D02*
X027254Y004040D01*
X027615Y003481D02*
X026695Y003481D01*
X026092Y002923D02*
X027615Y002923D01*
X027615Y002364D02*
X025466Y002364D01*
X025690Y001806D02*
X027615Y001806D01*
X027615Y001247D02*
X025659Y001247D01*
X025579Y004598D02*
X025974Y004598D01*
X026275Y005157D02*
X025574Y005157D01*
X025590Y005715D02*
X026275Y005715D01*
X026275Y006274D02*
X025563Y006274D01*
X025603Y006832D02*
X026275Y006832D01*
X026275Y007391D02*
X025551Y007391D01*
X025614Y007949D02*
X026275Y007949D01*
X026275Y008508D02*
X025540Y008508D01*
X026275Y009066D02*
X024511Y009066D01*
X023054Y007949D02*
X020260Y007949D01*
X020260Y008508D02*
X022971Y008508D01*
X022971Y009066D02*
X020260Y009066D01*
X020260Y009625D02*
X026275Y009625D01*
X027575Y012976D02*
X027615Y012976D01*
X027615Y013534D02*
X027190Y013534D01*
X027615Y019678D02*
X012373Y019678D01*
X012932Y020236D02*
X023418Y020236D01*
X023440Y020213D02*
X023760Y020029D01*
X024116Y019934D01*
X024484Y019934D01*
X024840Y020029D01*
X025160Y020213D01*
X025420Y020474D01*
X025605Y020793D01*
X025700Y021149D01*
X025700Y021518D01*
X025605Y021874D01*
X025420Y022193D01*
X025160Y022454D01*
X024840Y022638D01*
X024484Y022734D01*
X024116Y022734D01*
X023760Y022638D01*
X023440Y022454D01*
X023180Y022193D01*
X022995Y021874D01*
X022900Y021518D01*
X022900Y021149D01*
X022995Y020793D01*
X023180Y020474D01*
X023440Y020213D01*
X022995Y020795D02*
X013490Y020795D01*
X014049Y021353D02*
X022900Y021353D01*
X023017Y021912D02*
X014607Y021912D01*
X015166Y022470D02*
X023468Y022470D01*
X023588Y023304D02*
X023894Y023304D01*
X024177Y023421D01*
X024394Y023638D01*
X024511Y023921D01*
X024511Y023932D01*
X024706Y023851D01*
X025012Y023851D01*
X025295Y023968D01*
X025512Y024185D01*
X025629Y024468D01*
X025629Y024774D01*
X025512Y025057D01*
X025403Y025166D01*
X025512Y025276D01*
X025629Y025559D01*
X025629Y025865D01*
X025512Y026148D01*
X025405Y026255D01*
X025512Y026362D01*
X025629Y026645D01*
X025629Y026951D01*
X025512Y027234D01*
X025403Y027344D01*
X025512Y027453D01*
X025629Y027736D01*
X025629Y028042D01*
X025512Y028325D01*
X025295Y028542D01*
X025012Y028659D01*
X024706Y028659D01*
X024511Y028578D01*
X024511Y028886D01*
X024450Y029033D01*
X024338Y029145D01*
X024191Y029206D01*
X023291Y029206D01*
X023144Y029145D01*
X023032Y029033D01*
X022971Y028886D01*
X022971Y027987D01*
X023032Y027840D01*
X023089Y027782D01*
X023088Y027782D01*
X022971Y027499D01*
X022971Y027192D01*
X023088Y026909D01*
X023197Y026800D01*
X023112Y026715D01*
X022708Y026715D01*
X022539Y026645D01*
X022410Y026516D01*
X022160Y026266D01*
X022099Y026117D01*
X022060Y026079D01*
X021925Y026135D01*
X021675Y026135D01*
X021443Y026039D01*
X021266Y025862D01*
X021170Y025630D01*
X021170Y025380D01*
X021248Y025192D01*
X021170Y025005D01*
X021170Y024755D01*
X021266Y024523D01*
X021443Y024346D01*
X021675Y024250D01*
X021925Y024250D01*
X022090Y024318D01*
X022090Y024163D01*
X022160Y023994D01*
X022285Y023869D01*
X022414Y023740D01*
X022583Y023670D01*
X023075Y023670D01*
X023088Y023638D01*
X023305Y023421D01*
X023588Y023304D01*
X023139Y023587D02*
X016283Y023587D01*
X016841Y024146D02*
X022097Y024146D01*
X021191Y024704D02*
X018232Y024704D01*
X018250Y025263D02*
X021219Y025263D01*
X021249Y025821D02*
X017726Y025821D01*
X015724Y023029D02*
X027615Y023029D01*
X027615Y023587D02*
X024343Y023587D01*
X025132Y022470D02*
X027615Y022470D01*
X027615Y021912D02*
X025583Y021912D01*
X025700Y021353D02*
X027615Y021353D01*
X027615Y020795D02*
X025605Y020795D01*
X025182Y020236D02*
X027615Y020236D01*
X027615Y024146D02*
X025472Y024146D01*
X025629Y024704D02*
X027615Y024704D01*
X027615Y025263D02*
X025499Y025263D01*
X025629Y025821D02*
X027615Y025821D01*
X027615Y026380D02*
X025519Y026380D01*
X025629Y026938D02*
X027615Y026938D01*
X027615Y027497D02*
X025530Y027497D01*
X025624Y028055D02*
X027615Y028055D01*
X027615Y028614D02*
X025122Y028614D01*
X024596Y028614D02*
X024511Y028614D01*
X024273Y029172D02*
X027615Y029172D01*
X027615Y029731D02*
X022070Y029731D01*
X022039Y029617D02*
X022130Y029955D01*
X022130Y030305D01*
X022039Y030643D01*
X021864Y030947D01*
X021617Y031194D01*
X021313Y031369D01*
X020975Y031460D01*
X020625Y031460D01*
X020287Y031369D01*
X019983Y031194D01*
X019736Y030947D01*
X019561Y030643D01*
X019470Y030305D01*
X019470Y029955D01*
X019561Y029617D01*
X019736Y029313D01*
X019983Y029066D01*
X020287Y028891D01*
X020625Y028800D01*
X020975Y028800D01*
X021313Y028891D01*
X021617Y029066D01*
X021864Y029313D01*
X022039Y029617D01*
X021723Y029172D02*
X023209Y029172D01*
X022971Y028614D02*
X008260Y028614D01*
X008260Y029172D02*
X019877Y029172D01*
X019530Y029731D02*
X008260Y029731D01*
X008260Y030289D02*
X019470Y030289D01*
X019679Y030848D02*
X008260Y030848D01*
X008175Y031406D02*
X020423Y031406D01*
X021177Y031406D02*
X022912Y031406D01*
X022939Y030848D02*
X021921Y030848D01*
X022130Y030289D02*
X023207Y030289D01*
X025393Y030289D02*
X027615Y030289D01*
X027615Y030848D02*
X025661Y030848D01*
X025688Y031406D02*
X027615Y031406D01*
X023076Y026938D02*
X008260Y026938D01*
X008260Y027497D02*
X022971Y027497D01*
X022971Y028055D02*
X008260Y028055D01*
X008260Y026380D02*
X022274Y026380D01*
X020220Y016885D02*
X019525Y016885D01*
X019609Y016327D02*
X020233Y016327D01*
X020235Y016319D02*
X020263Y016250D01*
X020305Y016188D01*
X020358Y016135D01*
X020420Y016093D01*
X020489Y016065D01*
X020563Y016050D01*
X020925Y016050D01*
X020925Y016755D01*
X020925Y016755D01*
X020925Y016755D01*
X020220Y016755D01*
X020220Y016393D01*
X020235Y016319D01*
X020925Y016327D02*
X020925Y016327D01*
X017925Y016327D02*
X017925Y016327D01*
X017925Y016885D02*
X017925Y016885D01*
X017925Y012976D02*
X017925Y012976D01*
X017339Y012976D02*
X015540Y012976D01*
X015594Y012417D02*
X017278Y012417D01*
X017545Y011859D02*
X015385Y011859D01*
X015385Y011300D02*
X017713Y011300D01*
X017225Y010742D02*
X015625Y010742D01*
X015468Y010183D02*
X017382Y010183D01*
X017624Y009616D02*
X017546Y009572D01*
X017476Y009517D01*
X017413Y009454D01*
X017358Y009384D01*
X017314Y009306D01*
X017280Y009224D01*
X017257Y009138D01*
X017245Y009050D01*
X017245Y009005D01*
X017925Y009005D01*
X017925Y009005D01*
X017925Y009005D01*
X017925Y009685D01*
X017880Y009685D01*
X017792Y009673D01*
X017706Y009650D01*
X017624Y009616D01*
X017644Y009625D02*
X015206Y009625D01*
X015226Y009616D02*
X015144Y009650D01*
X015058Y009673D01*
X014970Y009685D01*
X014925Y009685D01*
X014925Y009005D01*
X015605Y009005D01*
X015605Y009050D01*
X015593Y009138D01*
X015570Y009224D01*
X015536Y009306D01*
X015492Y009384D01*
X015437Y009454D01*
X015374Y009517D01*
X015304Y009572D01*
X015226Y009616D01*
X014925Y009625D02*
X014925Y009625D01*
X014925Y009685D02*
X014880Y009685D01*
X014792Y009673D01*
X014706Y009650D01*
X014624Y009616D01*
X014546Y009572D01*
X014476Y009517D01*
X014413Y009454D01*
X014358Y009384D01*
X014314Y009306D01*
X014280Y009224D01*
X014257Y009138D01*
X014245Y009050D01*
X014245Y009005D01*
X014925Y009005D01*
X014925Y009005D01*
X014925Y009005D01*
X015605Y009005D01*
X015605Y008960D01*
X015593Y008872D01*
X015570Y008786D01*
X015536Y008704D01*
X015492Y008626D01*
X015437Y008556D01*
X015374Y008493D01*
X015304Y008438D01*
X015226Y008394D01*
X015144Y008360D01*
X015058Y008337D01*
X014970Y008325D01*
X014925Y008325D01*
X014925Y009005D01*
X014925Y009005D01*
X014925Y009005D01*
X014925Y009685D01*
X014644Y009625D02*
X014376Y009625D01*
X014356Y010183D02*
X014382Y010183D01*
X014465Y011300D02*
X013940Y011300D01*
X013877Y011721D02*
X013550Y011721D01*
X013550Y012351D01*
X013550Y012351D01*
X013550Y011721D01*
X013223Y011721D01*
X013150Y011736D01*
X013081Y011765D01*
X013018Y011806D01*
X012965Y011859D01*
X012924Y011921D01*
X012895Y011991D01*
X012881Y012064D01*
X012881Y012351D01*
X013550Y012351D01*
X013550Y012351D01*
X014219Y012351D01*
X014219Y012064D01*
X014205Y011991D01*
X014176Y011921D01*
X014135Y011859D01*
X014082Y011806D01*
X014019Y011765D01*
X013950Y011736D01*
X013877Y011721D01*
X014134Y011859D02*
X014465Y011859D01*
X014219Y012351D02*
X014219Y012639D01*
X014205Y012712D01*
X014176Y012781D01*
X014135Y012844D01*
X014082Y012897D01*
X014019Y012938D01*
X013950Y012967D01*
X013877Y012981D01*
X013550Y012981D01*
X013223Y012981D01*
X013150Y012967D01*
X013081Y012938D01*
X013018Y012897D01*
X012965Y012844D01*
X012924Y012781D01*
X012895Y012712D01*
X012881Y012639D01*
X012881Y012351D01*
X013550Y012351D01*
X013550Y012351D01*
X014219Y012351D01*
X014219Y012417D02*
X014256Y012417D01*
X014310Y012976D02*
X013907Y012976D01*
X013550Y012976D02*
X013550Y012976D01*
X013550Y012981D02*
X013550Y012351D01*
X013550Y012351D01*
X013550Y012981D01*
X013193Y012976D02*
X009810Y012976D01*
X009480Y012417D02*
X012881Y012417D01*
X012966Y011859D02*
X009740Y011859D01*
X009809Y011300D02*
X013160Y011300D01*
X012861Y010742D02*
X009458Y010742D01*
X009749Y010183D02*
X012921Y010183D01*
X012403Y009625D02*
X009800Y009625D01*
X009436Y009066D02*
X012340Y009066D01*
X012340Y008508D02*
X009758Y008508D01*
X009791Y007949D02*
X012340Y007949D01*
X012340Y007391D02*
X009414Y007391D01*
X009767Y006832D02*
X012340Y006832D01*
X012346Y006274D02*
X009782Y006274D01*
X009392Y005715D02*
X012814Y005715D01*
X014260Y005715D02*
X016830Y005715D01*
X016887Y005157D02*
X014260Y005157D01*
X014169Y004598D02*
X016492Y004598D01*
X015304Y006438D02*
X015374Y006493D01*
X015437Y006556D01*
X015492Y006626D01*
X015536Y006704D01*
X015570Y006786D01*
X015593Y006872D01*
X015605Y006960D01*
X015605Y007005D01*
X015605Y007050D01*
X015593Y007138D01*
X015570Y007224D01*
X015536Y007306D01*
X015492Y007384D01*
X015437Y007454D01*
X015374Y007517D01*
X015304Y007572D01*
X015226Y007616D01*
X015144Y007650D01*
X015058Y007673D01*
X014970Y007685D01*
X014925Y007685D01*
X014925Y007005D01*
X015605Y007005D01*
X014925Y007005D01*
X014925Y007005D01*
X014925Y007005D01*
X014925Y006325D01*
X014970Y006325D01*
X015058Y006337D01*
X015144Y006360D01*
X015226Y006394D01*
X015304Y006438D01*
X014925Y006325D02*
X014925Y007005D01*
X014925Y007005D01*
X014925Y007005D01*
X014245Y007005D01*
X014245Y007050D01*
X014257Y007138D01*
X014280Y007224D01*
X014314Y007306D01*
X014358Y007384D01*
X014413Y007454D01*
X014476Y007517D01*
X014546Y007572D01*
X014624Y007616D01*
X014706Y007650D01*
X014792Y007673D01*
X014880Y007685D01*
X014925Y007685D01*
X014925Y007005D01*
X014245Y007005D01*
X014245Y006960D01*
X014257Y006872D01*
X014280Y006786D01*
X014314Y006704D01*
X014358Y006626D01*
X014413Y006556D01*
X014476Y006493D01*
X014546Y006438D01*
X014624Y006394D01*
X014706Y006360D01*
X014792Y006337D01*
X014880Y006325D01*
X014925Y006325D01*
X014430Y006274D02*
X018275Y006274D01*
X017239Y006832D02*
X015583Y006832D01*
X015486Y007391D02*
X017327Y007391D01*
X017706Y008360D02*
X017792Y008337D01*
X017880Y008325D01*
X017925Y008325D01*
X017925Y009005D01*
X017245Y009005D01*
X017245Y008960D01*
X017257Y008872D01*
X017280Y008786D01*
X017314Y008704D01*
X017358Y008626D01*
X017413Y008556D01*
X017476Y008493D01*
X017546Y008438D01*
X017624Y008394D01*
X017706Y008360D01*
X017925Y008508D02*
X017925Y008508D01*
X018389Y008508D02*
X018433Y008508D01*
X017925Y009066D02*
X017925Y009066D01*
X017925Y009625D02*
X017925Y009625D01*
X018206Y009625D02*
X018591Y009625D01*
X017247Y009066D02*
X015603Y009066D01*
X015389Y008508D02*
X017461Y008508D01*
X019090Y007949D02*
X013260Y007949D01*
X013550Y008508D02*
X013550Y008508D01*
X014208Y008508D02*
X014461Y008508D01*
X014476Y008493D02*
X014546Y008438D01*
X014624Y008394D01*
X014706Y008360D01*
X014792Y008337D01*
X014880Y008325D01*
X014925Y008325D01*
X014925Y009005D01*
X014245Y009005D01*
X014245Y008960D01*
X014257Y008872D01*
X014280Y008786D01*
X014314Y008704D01*
X014358Y008626D01*
X014413Y008556D01*
X014476Y008493D01*
X014925Y008508D02*
X014925Y008508D01*
X014925Y009066D02*
X014925Y009066D01*
X014247Y009066D02*
X014219Y009066D01*
X014239Y007391D02*
X014364Y007391D01*
X014925Y007391D02*
X014925Y007391D01*
X014925Y006832D02*
X014925Y006832D01*
X014267Y006832D02*
X014239Y006832D01*
X013550Y011859D02*
X013550Y011859D01*
X013550Y012417D02*
X013550Y012417D01*
X013261Y013534D02*
X011430Y013534D01*
X011228Y014093D02*
X013011Y014093D01*
X012861Y014651D02*
X010920Y014651D01*
X010885Y015210D02*
X011705Y015210D01*
X011550Y015768D02*
X010885Y015768D01*
X010754Y016327D02*
X012881Y016327D01*
X020260Y007391D02*
X022992Y007391D01*
X004351Y028055D02*
X001480Y028055D01*
X001480Y028614D02*
X004313Y028614D01*
X003425Y030238D02*
X003425Y030776D01*
X003425Y030776D01*
X003425Y030238D01*
X003425Y030289D02*
X003425Y030289D01*
D27*
X024300Y013255D02*
X026550Y013255D01*
X026925Y012880D01*
X026925Y004630D01*
X025800Y003505D01*
X018175Y003505D01*
X017375Y002705D01*
X017375Y001255D01*
X016925Y003255D02*
X017925Y004255D01*
X018550Y004255D01*
X018925Y004630D01*
X018925Y007005D01*
X016925Y003255D02*
X014425Y003255D01*
X013875Y002705D01*
X013875Y001255D01*
M02*
